%TF.GenerationSoftware,KiCad,Pcbnew,7.0.10*%
%TF.CreationDate,2024-01-31T15:31:13+08:00*%
%TF.ProjectId,UINIO-MCU-ESP32S3,55494e49-4f2d-44d4-9355-2d4553503332,Version 3.2.1*%
%TF.SameCoordinates,PX629df6ePY56b2a99*%
%TF.FileFunction,Legend,Bot*%
%TF.FilePolarity,Positive*%
%FSLAX46Y46*%
G04 Gerber Fmt 4.6, Leading zero omitted, Abs format (unit mm)*
G04 Created by KiCad (PCBNEW 7.0.10) date 2024-01-31 15:31:13*
%MOMM*%
%LPD*%
G01*
G04 APERTURE LIST*
%ADD10C,0.312500*%
%ADD11C,0.375000*%
%ADD12C,0.300000*%
%ADD13C,0.100000*%
%ADD14C,0.120000*%
%ADD15C,1.200000*%
%ADD16R,1.700000X1.700000*%
%ADD17O,1.700000X1.700000*%
%ADD18C,0.650000*%
%ADD19O,2.100000X1.000000*%
%ADD20O,1.900000X1.000000*%
G04 APERTURE END LIST*
D10*
G36*
X44090760Y-4806595D02*
G01*
X43382260Y-4806595D01*
X43382260Y-6815835D01*
X43382992Y-6866586D01*
X43385188Y-6915574D01*
X43388848Y-6962800D01*
X43393972Y-7008262D01*
X43400560Y-7051960D01*
X43408611Y-7093896D01*
X43418127Y-7134069D01*
X43429106Y-7172478D01*
X43441550Y-7209125D01*
X43455457Y-7244008D01*
X43470828Y-7277128D01*
X43487663Y-7308485D01*
X43505963Y-7338079D01*
X43525726Y-7365909D01*
X43546953Y-7391977D01*
X43569644Y-7416281D01*
X43593868Y-7438972D01*
X43619866Y-7460199D01*
X43647638Y-7479962D01*
X43677184Y-7498262D01*
X43708503Y-7515097D01*
X43741597Y-7530468D01*
X43776464Y-7544375D01*
X43813105Y-7556819D01*
X43851520Y-7567798D01*
X43891708Y-7577314D01*
X43933671Y-7585365D01*
X43977407Y-7591953D01*
X44022917Y-7597077D01*
X44070201Y-7600737D01*
X44119259Y-7602933D01*
X44170090Y-7603665D01*
X45075547Y-7603665D01*
X45126381Y-7602933D01*
X45175447Y-7600737D01*
X45222744Y-7597077D01*
X45268273Y-7591953D01*
X45312034Y-7585365D01*
X45354025Y-7577314D01*
X45394249Y-7567798D01*
X45432704Y-7556819D01*
X45469390Y-7544375D01*
X45504308Y-7530468D01*
X45537457Y-7515097D01*
X45568838Y-7498262D01*
X45598451Y-7479962D01*
X45626295Y-7460199D01*
X45652371Y-7438972D01*
X45676678Y-7416281D01*
X45699286Y-7391977D01*
X45720435Y-7365909D01*
X45740126Y-7338079D01*
X45758359Y-7308485D01*
X45775132Y-7277128D01*
X45790448Y-7244008D01*
X45804304Y-7209125D01*
X45816702Y-7172478D01*
X45827642Y-7134069D01*
X45837122Y-7093896D01*
X45845145Y-7051960D01*
X45851708Y-7008262D01*
X45856813Y-6962800D01*
X45860460Y-6915574D01*
X45862648Y-6866586D01*
X45863377Y-6815835D01*
X45863377Y-4806595D01*
X45154877Y-4806595D01*
X45154877Y-6815835D01*
X45153953Y-6844405D01*
X45149100Y-6883805D01*
X45140088Y-6919058D01*
X45126917Y-6950163D01*
X45109586Y-6977121D01*
X45088096Y-6999931D01*
X45062447Y-7018595D01*
X45032638Y-7033110D01*
X44998670Y-7043479D01*
X44960542Y-7049700D01*
X44932813Y-7051543D01*
X44918255Y-7051773D01*
X44327383Y-7051773D01*
X44298729Y-7050852D01*
X44259215Y-7046013D01*
X44223860Y-7037027D01*
X44192665Y-7023894D01*
X44165629Y-7006613D01*
X44142752Y-6985185D01*
X44124035Y-6959610D01*
X44109477Y-6929887D01*
X44099079Y-6896017D01*
X44092840Y-6858000D01*
X44090991Y-6830351D01*
X44090760Y-6815835D01*
X44090760Y-4806595D01*
G37*
G36*
X41626057Y-7564000D02*
G01*
X43043740Y-7564000D01*
X43043740Y-7012792D01*
X42689490Y-7012792D01*
X42689490Y-5357803D01*
X43043740Y-5357803D01*
X43043740Y-4806595D01*
X41626057Y-4806595D01*
X41626057Y-5357803D01*
X41980307Y-5357803D01*
X41980307Y-7012792D01*
X41626057Y-7012792D01*
X41626057Y-7564000D01*
G37*
G36*
X38878911Y-7564000D02*
G01*
X39627076Y-7564000D01*
X40572882Y-5909694D01*
X40572882Y-7564000D01*
X41281381Y-7564000D01*
X41281381Y-4806595D01*
X40533217Y-4806595D01*
X39588094Y-6460901D01*
X39588094Y-4806595D01*
X38878911Y-4806595D01*
X38878911Y-7564000D01*
G37*
G36*
X37120655Y-7564000D02*
G01*
X38538339Y-7564000D01*
X38538339Y-7012792D01*
X38184089Y-7012792D01*
X38184089Y-5357803D01*
X38538339Y-5357803D01*
X38538339Y-4806595D01*
X37120655Y-4806595D01*
X37120655Y-5357803D01*
X37474905Y-5357803D01*
X37474905Y-7012792D01*
X37120655Y-7012792D01*
X37120655Y-7564000D01*
G37*
G36*
X36118232Y-4767662D02*
G01*
X36167220Y-4769858D01*
X36214445Y-4773518D01*
X36259907Y-4778642D01*
X36303606Y-4785230D01*
X36345542Y-4793281D01*
X36385714Y-4802797D01*
X36424124Y-4813776D01*
X36460770Y-4826220D01*
X36495653Y-4840127D01*
X36528773Y-4855498D01*
X36560130Y-4872333D01*
X36589724Y-4890633D01*
X36617555Y-4910396D01*
X36643622Y-4931623D01*
X36667927Y-4954314D01*
X36690618Y-4978618D01*
X36711845Y-5004686D01*
X36731608Y-5032516D01*
X36749907Y-5062110D01*
X36766742Y-5093467D01*
X36782114Y-5126587D01*
X36796021Y-5161470D01*
X36808464Y-5198117D01*
X36819444Y-5236526D01*
X36828959Y-5276699D01*
X36837011Y-5318635D01*
X36843599Y-5362333D01*
X36848722Y-5407795D01*
X36852382Y-5455021D01*
X36854578Y-5504009D01*
X36855310Y-5554760D01*
X36855310Y-6815835D01*
X36854578Y-6866586D01*
X36852382Y-6915574D01*
X36848722Y-6962800D01*
X36843599Y-7008262D01*
X36837011Y-7051960D01*
X36828959Y-7093896D01*
X36819444Y-7134069D01*
X36808464Y-7172478D01*
X36796021Y-7209125D01*
X36782114Y-7244008D01*
X36766742Y-7277128D01*
X36749907Y-7308485D01*
X36731608Y-7338079D01*
X36711845Y-7365909D01*
X36690618Y-7391977D01*
X36667927Y-7416281D01*
X36643622Y-7438972D01*
X36617555Y-7460199D01*
X36589724Y-7479962D01*
X36560130Y-7498262D01*
X36528773Y-7515097D01*
X36495653Y-7530468D01*
X36460770Y-7544375D01*
X36424124Y-7556819D01*
X36385714Y-7567798D01*
X36345542Y-7577314D01*
X36303606Y-7585365D01*
X36259907Y-7591953D01*
X36214445Y-7597077D01*
X36167220Y-7600737D01*
X36118232Y-7602933D01*
X36067480Y-7603665D01*
X35082693Y-7603665D01*
X35031862Y-7602933D01*
X34982804Y-7600737D01*
X34935520Y-7597077D01*
X34890010Y-7591953D01*
X34846274Y-7585365D01*
X34804311Y-7577314D01*
X34764123Y-7567798D01*
X34725708Y-7556819D01*
X34689067Y-7544375D01*
X34654200Y-7530468D01*
X34621106Y-7515097D01*
X34589787Y-7498262D01*
X34560241Y-7479962D01*
X34532469Y-7460199D01*
X34506471Y-7438972D01*
X34482247Y-7416281D01*
X34459556Y-7391977D01*
X34438329Y-7365909D01*
X34418566Y-7338079D01*
X34400266Y-7308485D01*
X34383431Y-7277128D01*
X34368060Y-7244008D01*
X34354153Y-7209125D01*
X34341709Y-7172478D01*
X34330730Y-7134069D01*
X34321214Y-7093896D01*
X34313163Y-7051960D01*
X34306575Y-7008262D01*
X34301451Y-6962800D01*
X34297791Y-6915574D01*
X34295595Y-6866586D01*
X34294863Y-6815835D01*
X35003363Y-6815835D01*
X35003594Y-6830351D01*
X35005443Y-6858000D01*
X35011682Y-6896017D01*
X35022080Y-6929887D01*
X35036638Y-6959610D01*
X35055355Y-6985185D01*
X35078232Y-7006613D01*
X35105268Y-7023894D01*
X35136463Y-7037027D01*
X35171818Y-7046013D01*
X35211332Y-7050852D01*
X35239986Y-7051773D01*
X35909504Y-7051773D01*
X35924062Y-7051543D01*
X35951791Y-7049700D01*
X35989919Y-7043479D01*
X36023887Y-7033110D01*
X36053696Y-7018595D01*
X36079345Y-6999931D01*
X36100835Y-6977121D01*
X36118166Y-6950163D01*
X36131338Y-6919058D01*
X36140350Y-6883805D01*
X36145202Y-6844405D01*
X36146127Y-6815835D01*
X36146127Y-5554760D01*
X36145895Y-5540244D01*
X36144047Y-5512595D01*
X36137808Y-5474578D01*
X36127409Y-5440708D01*
X36112851Y-5410985D01*
X36094134Y-5385410D01*
X36071258Y-5363982D01*
X36044222Y-5346701D01*
X36013026Y-5333568D01*
X35977672Y-5324582D01*
X35938158Y-5319743D01*
X35909504Y-5318822D01*
X35239986Y-5318822D01*
X35225428Y-5319052D01*
X35197699Y-5320895D01*
X35159571Y-5327116D01*
X35125603Y-5337485D01*
X35095794Y-5352000D01*
X35070144Y-5370664D01*
X35048654Y-5393474D01*
X35031323Y-5420432D01*
X35018152Y-5451537D01*
X35009140Y-5486790D01*
X35004287Y-5526189D01*
X35003363Y-5554760D01*
X35003363Y-6815835D01*
X34294863Y-6815835D01*
X34294863Y-5554760D01*
X34295595Y-5504009D01*
X34297791Y-5455021D01*
X34301451Y-5407795D01*
X34306575Y-5362333D01*
X34313163Y-5318635D01*
X34321214Y-5276699D01*
X34330730Y-5236526D01*
X34341709Y-5198117D01*
X34354153Y-5161470D01*
X34368060Y-5126587D01*
X34383431Y-5093467D01*
X34400266Y-5062110D01*
X34418566Y-5032516D01*
X34438329Y-5004686D01*
X34459556Y-4978618D01*
X34482247Y-4954314D01*
X34506471Y-4931623D01*
X34532469Y-4910396D01*
X34560241Y-4890633D01*
X34589787Y-4872333D01*
X34621106Y-4855498D01*
X34654200Y-4840127D01*
X34689067Y-4826220D01*
X34725708Y-4813776D01*
X34764123Y-4802797D01*
X34804311Y-4793281D01*
X34846274Y-4785230D01*
X34890010Y-4778642D01*
X34935520Y-4773518D01*
X34982804Y-4769858D01*
X35031862Y-4767662D01*
X35082693Y-4766930D01*
X36067480Y-4766930D01*
X36118232Y-4767662D01*
G37*
G36*
X34032937Y-6460901D02*
G01*
X34032937Y-5909694D01*
X32418297Y-5909694D01*
X32418297Y-6460901D01*
X34032937Y-6460901D01*
G37*
G36*
X29710132Y-6028005D02*
G01*
X30262023Y-7012792D01*
X30813230Y-7012792D01*
X31365122Y-6028005D01*
X31365122Y-7564000D01*
X32073621Y-7564000D01*
X32073621Y-4806595D01*
X31325457Y-4806595D01*
X30537627Y-6263944D01*
X29749797Y-4806595D01*
X29001632Y-4806595D01*
X29001632Y-7564000D01*
X29710132Y-7564000D01*
X29710132Y-6028005D01*
G37*
G36*
X26420669Y-7524334D02*
G01*
X26475259Y-7529215D01*
X26529265Y-7533941D01*
X26582687Y-7538512D01*
X26635525Y-7542927D01*
X26687780Y-7547188D01*
X26739451Y-7551294D01*
X26790538Y-7555245D01*
X26841042Y-7559041D01*
X26890962Y-7562682D01*
X26940298Y-7566169D01*
X26989050Y-7569500D01*
X27037219Y-7572676D01*
X27084804Y-7575698D01*
X27131806Y-7578564D01*
X27178223Y-7581275D01*
X27224057Y-7583832D01*
X27269308Y-7586234D01*
X27313974Y-7588480D01*
X27358057Y-7590572D01*
X27401556Y-7592509D01*
X27444472Y-7594291D01*
X27486804Y-7595917D01*
X27528552Y-7597389D01*
X27569716Y-7598706D01*
X27610297Y-7599868D01*
X27650294Y-7600876D01*
X27689707Y-7601728D01*
X27728536Y-7602425D01*
X27766782Y-7602967D01*
X27804444Y-7603355D01*
X27841523Y-7603587D01*
X27878018Y-7603665D01*
X27925515Y-7602957D01*
X27971410Y-7600833D01*
X28015702Y-7597293D01*
X28058391Y-7592338D01*
X28099477Y-7585966D01*
X28138961Y-7578179D01*
X28176841Y-7568976D01*
X28213119Y-7558357D01*
X28247794Y-7546323D01*
X28280866Y-7532872D01*
X28312335Y-7518006D01*
X28342201Y-7501724D01*
X28370465Y-7484026D01*
X28397125Y-7464912D01*
X28422183Y-7444382D01*
X28445638Y-7422436D01*
X28467584Y-7398981D01*
X28488113Y-7373924D01*
X28507227Y-7347263D01*
X28524925Y-7319000D01*
X28541208Y-7289133D01*
X28556074Y-7257664D01*
X28569524Y-7224592D01*
X28581559Y-7189917D01*
X28592178Y-7153639D01*
X28601381Y-7115759D01*
X28609168Y-7076276D01*
X28615539Y-7035189D01*
X28620495Y-6992500D01*
X28624035Y-6948208D01*
X28626158Y-6902314D01*
X28626866Y-6854816D01*
X28626866Y-5594425D01*
X28626134Y-5543594D01*
X28623938Y-5494536D01*
X28620279Y-5447252D01*
X28615155Y-5401742D01*
X28608567Y-5358006D01*
X28600515Y-5316043D01*
X28591000Y-5275855D01*
X28580020Y-5237440D01*
X28567577Y-5200799D01*
X28553670Y-5165932D01*
X28538298Y-5132838D01*
X28521463Y-5101519D01*
X28503164Y-5071973D01*
X28483401Y-5044201D01*
X28462174Y-5018203D01*
X28439483Y-4993979D01*
X28415179Y-4971288D01*
X28389111Y-4950061D01*
X28361280Y-4930298D01*
X28331687Y-4911998D01*
X28300330Y-4895163D01*
X28267209Y-4879792D01*
X28232326Y-4865885D01*
X28195680Y-4853441D01*
X28157270Y-4842462D01*
X28117098Y-4832946D01*
X28075162Y-4824895D01*
X28031463Y-4818307D01*
X27986001Y-4813183D01*
X27938776Y-4809523D01*
X27889788Y-4807327D01*
X27839036Y-4806595D01*
X26420669Y-4806595D01*
X26420669Y-5357803D01*
X27681060Y-5357803D01*
X27709714Y-5358727D01*
X27749228Y-5363580D01*
X27784583Y-5372592D01*
X27815778Y-5385763D01*
X27842814Y-5403094D01*
X27865690Y-5424584D01*
X27884408Y-5450233D01*
X27898965Y-5480042D01*
X27909364Y-5514011D01*
X27915603Y-5552138D01*
X27917452Y-5579867D01*
X27917683Y-5594425D01*
X27917683Y-6854816D01*
X27916380Y-6882321D01*
X27911379Y-6912904D01*
X27902628Y-6940841D01*
X27890126Y-6966134D01*
X27873873Y-6988782D01*
X27864340Y-6999115D01*
X27843303Y-7017010D01*
X27816146Y-7033209D01*
X27790629Y-7043083D01*
X27763044Y-7049254D01*
X27733391Y-7051722D01*
X27728248Y-7051773D01*
X27696664Y-7051701D01*
X27663974Y-7051485D01*
X27635887Y-7051194D01*
X27607033Y-7050804D01*
X27577410Y-7050313D01*
X27547020Y-7049722D01*
X27516061Y-7049047D01*
X27484736Y-7048306D01*
X27453043Y-7047498D01*
X27420983Y-7046623D01*
X27388555Y-7045681D01*
X27355760Y-7044673D01*
X27342540Y-7044251D01*
X27309167Y-7042968D01*
X27275728Y-7041686D01*
X27242222Y-7040404D01*
X27208649Y-7039122D01*
X27175009Y-7037839D01*
X27141303Y-7036557D01*
X27127801Y-7036044D01*
X27099794Y-7034901D01*
X27069800Y-7033522D01*
X27037818Y-7031909D01*
X27003848Y-7030060D01*
X26967891Y-7027977D01*
X26939619Y-7026259D01*
X26910229Y-7024410D01*
X26879721Y-7022429D01*
X26848094Y-7020315D01*
X26815170Y-7018099D01*
X26780767Y-7015811D01*
X26744885Y-7013451D01*
X26707525Y-7011018D01*
X26668686Y-7008514D01*
X26628369Y-7005937D01*
X26600669Y-7004180D01*
X26572312Y-7002390D01*
X26543298Y-7000568D01*
X26513626Y-6998714D01*
X26483298Y-6996828D01*
X26452312Y-6994910D01*
X26420669Y-6992960D01*
X26420669Y-7524334D01*
G37*
G36*
X24345778Y-4806595D02*
G01*
X23637278Y-4806595D01*
X23637278Y-6815835D01*
X23638010Y-6866586D01*
X23640206Y-6915574D01*
X23643866Y-6962800D01*
X23648989Y-7008262D01*
X23655577Y-7051960D01*
X23663629Y-7093896D01*
X23673144Y-7134069D01*
X23684124Y-7172478D01*
X23696567Y-7209125D01*
X23710474Y-7244008D01*
X23725846Y-7277128D01*
X23742681Y-7308485D01*
X23760980Y-7338079D01*
X23780743Y-7365909D01*
X23801970Y-7391977D01*
X23824661Y-7416281D01*
X23848885Y-7438972D01*
X23874883Y-7460199D01*
X23902655Y-7479962D01*
X23932201Y-7498262D01*
X23963521Y-7515097D01*
X23996614Y-7530468D01*
X24031481Y-7544375D01*
X24068122Y-7556819D01*
X24106537Y-7567798D01*
X24146726Y-7577314D01*
X24188688Y-7585365D01*
X24232424Y-7591953D01*
X24277935Y-7597077D01*
X24325218Y-7600737D01*
X24374276Y-7602933D01*
X24425108Y-7603665D01*
X25330565Y-7603665D01*
X25381399Y-7602933D01*
X25430465Y-7600737D01*
X25477762Y-7597077D01*
X25523291Y-7591953D01*
X25567051Y-7585365D01*
X25609043Y-7577314D01*
X25649266Y-7567798D01*
X25687721Y-7556819D01*
X25724407Y-7544375D01*
X25759325Y-7530468D01*
X25792475Y-7515097D01*
X25823856Y-7498262D01*
X25853468Y-7479962D01*
X25881313Y-7460199D01*
X25907388Y-7438972D01*
X25931695Y-7416281D01*
X25954303Y-7391977D01*
X25975453Y-7365909D01*
X25995144Y-7338079D01*
X26013376Y-7308485D01*
X26030150Y-7277128D01*
X26045465Y-7244008D01*
X26059322Y-7209125D01*
X26071720Y-7172478D01*
X26082659Y-7134069D01*
X26092140Y-7093896D01*
X26100162Y-7051960D01*
X26106726Y-7008262D01*
X26111831Y-6962800D01*
X26115477Y-6915574D01*
X26117665Y-6866586D01*
X26118394Y-6815835D01*
X26118394Y-4806595D01*
X25409895Y-4806595D01*
X25409895Y-6815835D01*
X25408971Y-6844405D01*
X25404118Y-6883805D01*
X25395106Y-6919058D01*
X25381935Y-6950163D01*
X25364604Y-6977121D01*
X25343114Y-6999931D01*
X25317464Y-7018595D01*
X25287655Y-7033110D01*
X25253687Y-7043479D01*
X25215559Y-7049700D01*
X25187830Y-7051543D01*
X25173272Y-7051773D01*
X24582400Y-7051773D01*
X24553747Y-7050852D01*
X24514232Y-7046013D01*
X24478878Y-7037027D01*
X24447682Y-7023894D01*
X24420646Y-7006613D01*
X24397770Y-6985185D01*
X24379053Y-6959610D01*
X24364495Y-6929887D01*
X24354096Y-6896017D01*
X24347857Y-6858000D01*
X24346009Y-6830351D01*
X24345778Y-6815835D01*
X24345778Y-4806595D01*
G37*
G36*
X23298757Y-6460901D02*
G01*
X23298757Y-5909694D01*
X21684117Y-5909694D01*
X21684117Y-6460901D01*
X23298757Y-6460901D01*
G37*
G36*
X19153761Y-7564000D02*
G01*
X21339441Y-7564000D01*
X21339441Y-4806595D01*
X19153761Y-4806595D01*
X19153761Y-5357803D01*
X20630942Y-5357803D01*
X20630942Y-5889861D01*
X19468346Y-5889861D01*
X19468346Y-6441069D01*
X20630942Y-6441069D01*
X20630942Y-7012792D01*
X19153761Y-7012792D01*
X19153761Y-7564000D01*
G37*
G36*
X18932868Y-6992960D02*
G01*
X18866100Y-6996578D01*
X18800694Y-7000082D01*
X18736649Y-7003470D01*
X18673966Y-7006744D01*
X18612643Y-7009903D01*
X18552681Y-7012947D01*
X18494080Y-7015876D01*
X18436841Y-7018691D01*
X18380962Y-7021390D01*
X18326445Y-7023975D01*
X18273289Y-7026444D01*
X18221494Y-7028799D01*
X18171059Y-7031039D01*
X18121986Y-7033164D01*
X18074274Y-7035175D01*
X18027923Y-7037070D01*
X17982934Y-7038850D01*
X17939305Y-7040516D01*
X17897037Y-7042067D01*
X17856131Y-7043503D01*
X17816585Y-7044824D01*
X17778401Y-7046030D01*
X17741577Y-7047121D01*
X17706115Y-7048098D01*
X17672014Y-7048959D01*
X17639274Y-7049706D01*
X17607895Y-7050338D01*
X17577877Y-7050854D01*
X17549220Y-7051256D01*
X17495990Y-7051716D01*
X17471416Y-7051773D01*
X17438862Y-7049922D01*
X17408905Y-7044368D01*
X17381545Y-7035112D01*
X17356781Y-7022153D01*
X17334613Y-7005491D01*
X17327801Y-6999115D01*
X17309673Y-6977789D01*
X17295296Y-6953818D01*
X17284669Y-6927203D01*
X17277793Y-6897943D01*
X17274667Y-6866039D01*
X17274459Y-6854816D01*
X17274459Y-6500566D01*
X18180600Y-6500566D01*
X18231434Y-6499837D01*
X18280500Y-6497649D01*
X18327797Y-6494002D01*
X18373326Y-6488897D01*
X18417086Y-6482334D01*
X18459078Y-6474312D01*
X18499301Y-6464831D01*
X18537756Y-6453891D01*
X18574442Y-6441493D01*
X18609360Y-6427637D01*
X18642510Y-6412322D01*
X18673891Y-6395548D01*
X18703503Y-6377315D01*
X18731347Y-6357625D01*
X18757423Y-6336475D01*
X18781730Y-6313867D01*
X18804338Y-6289560D01*
X18825488Y-6263484D01*
X18845179Y-6235640D01*
X18863411Y-6206028D01*
X18880185Y-6174647D01*
X18895500Y-6141497D01*
X18909357Y-6106579D01*
X18921755Y-6069893D01*
X18932694Y-6031438D01*
X18942175Y-5991214D01*
X18950197Y-5949223D01*
X18956761Y-5905462D01*
X18961866Y-5859934D01*
X18965512Y-5812636D01*
X18967700Y-5763571D01*
X18968429Y-5712736D01*
X18968429Y-5594425D01*
X18967700Y-5543594D01*
X18965512Y-5494536D01*
X18961866Y-5447252D01*
X18956761Y-5401742D01*
X18950197Y-5358006D01*
X18942175Y-5316043D01*
X18932694Y-5275855D01*
X18921755Y-5237440D01*
X18909357Y-5200799D01*
X18895500Y-5165932D01*
X18880185Y-5132838D01*
X18863411Y-5101519D01*
X18845179Y-5071973D01*
X18825488Y-5044201D01*
X18804338Y-5018203D01*
X18781730Y-4993979D01*
X18757423Y-4971288D01*
X18731347Y-4950061D01*
X18703503Y-4930298D01*
X18673891Y-4911998D01*
X18642510Y-4895163D01*
X18609360Y-4879792D01*
X18574442Y-4865885D01*
X18537756Y-4853441D01*
X18499301Y-4842462D01*
X18459078Y-4832946D01*
X18417086Y-4824895D01*
X18373326Y-4818307D01*
X18327797Y-4813183D01*
X18280500Y-4809523D01*
X18231434Y-4807327D01*
X18180600Y-4806595D01*
X16797794Y-4806595D01*
X16797794Y-5357803D01*
X18023307Y-5357803D01*
X18051878Y-5358727D01*
X18091278Y-5363580D01*
X18126530Y-5372592D01*
X18157636Y-5385763D01*
X18184593Y-5403094D01*
X18207404Y-5424584D01*
X18226067Y-5450233D01*
X18240583Y-5480042D01*
X18250951Y-5514011D01*
X18257172Y-5552138D01*
X18259015Y-5579867D01*
X18259246Y-5594425D01*
X18259246Y-5673071D01*
X18258324Y-5701725D01*
X18253486Y-5741239D01*
X18244500Y-5776594D01*
X18231366Y-5807789D01*
X18214086Y-5834825D01*
X18192658Y-5857702D01*
X18167082Y-5876419D01*
X18137360Y-5890977D01*
X18103490Y-5901375D01*
X18065472Y-5907614D01*
X18037823Y-5909463D01*
X18023307Y-5909694D01*
X17314124Y-5909694D01*
X17266709Y-5910402D01*
X17220892Y-5912526D01*
X17176672Y-5916065D01*
X17134050Y-5921021D01*
X17093025Y-5927392D01*
X17053598Y-5935179D01*
X17015768Y-5944382D01*
X16979535Y-5955001D01*
X16944901Y-5967036D01*
X16911863Y-5980486D01*
X16880424Y-5995352D01*
X16850581Y-6011635D01*
X16822337Y-6029333D01*
X16795689Y-6048447D01*
X16770639Y-6068976D01*
X16747187Y-6090922D01*
X16725242Y-6114374D01*
X16704712Y-6139424D01*
X16685598Y-6166071D01*
X16667900Y-6194316D01*
X16651618Y-6224158D01*
X16636751Y-6255598D01*
X16623301Y-6288635D01*
X16611266Y-6323270D01*
X16600647Y-6359503D01*
X16591444Y-6397332D01*
X16583657Y-6436760D01*
X16577286Y-6477784D01*
X16572330Y-6520407D01*
X16568791Y-6564626D01*
X16566667Y-6610444D01*
X16565959Y-6657859D01*
X16565959Y-6854816D01*
X16566667Y-6902314D01*
X16568791Y-6948208D01*
X16572330Y-6992500D01*
X16577286Y-7035189D01*
X16583657Y-7076276D01*
X16591444Y-7115759D01*
X16600647Y-7153639D01*
X16611266Y-7189917D01*
X16623301Y-7224592D01*
X16636751Y-7257664D01*
X16651618Y-7289133D01*
X16667900Y-7319000D01*
X16685598Y-7347263D01*
X16704712Y-7373924D01*
X16725242Y-7398981D01*
X16747187Y-7422436D01*
X16770639Y-7444382D01*
X16795689Y-7464912D01*
X16822337Y-7484026D01*
X16850581Y-7501724D01*
X16880424Y-7518006D01*
X16911863Y-7532872D01*
X16944901Y-7546323D01*
X16979535Y-7558357D01*
X17015768Y-7568976D01*
X17053598Y-7578179D01*
X17093025Y-7585966D01*
X17134050Y-7592338D01*
X17176672Y-7597293D01*
X17220892Y-7600833D01*
X17266709Y-7602957D01*
X17314124Y-7603665D01*
X17352027Y-7603592D01*
X17390339Y-7603376D01*
X17429060Y-7603015D01*
X17468189Y-7602510D01*
X17507727Y-7601861D01*
X17547674Y-7601068D01*
X17588030Y-7600130D01*
X17628794Y-7599048D01*
X17656197Y-7598247D01*
X17683782Y-7597381D01*
X17711549Y-7596452D01*
X17739497Y-7595458D01*
X18101953Y-7579729D01*
X18152323Y-7577188D01*
X18202901Y-7574525D01*
X18253687Y-7571739D01*
X18304681Y-7568829D01*
X18355884Y-7565797D01*
X18407295Y-7562642D01*
X18458915Y-7559365D01*
X18510743Y-7555964D01*
X18562779Y-7552440D01*
X18615024Y-7548794D01*
X18667477Y-7545025D01*
X18720138Y-7541132D01*
X18773008Y-7537117D01*
X18826086Y-7532979D01*
X18879373Y-7528718D01*
X18932868Y-7524334D01*
X18932868Y-6992960D01*
G37*
G36*
X16224019Y-7564000D02*
G01*
X15515519Y-7564000D01*
X15515519Y-6776170D01*
X14569713Y-6776170D01*
X14518882Y-6775440D01*
X14469824Y-6773253D01*
X14422540Y-6769606D01*
X14377030Y-6764501D01*
X14333294Y-6757937D01*
X14291331Y-6749915D01*
X14251143Y-6740434D01*
X14212728Y-6729495D01*
X14176087Y-6717097D01*
X14141220Y-6703240D01*
X14108126Y-6687925D01*
X14076807Y-6671151D01*
X14047261Y-6652919D01*
X14019489Y-6633228D01*
X13993491Y-6612079D01*
X13969267Y-6589471D01*
X13946576Y-6565163D01*
X13925349Y-6539088D01*
X13905586Y-6511244D01*
X13887287Y-6481631D01*
X13870451Y-6450250D01*
X13855080Y-6417101D01*
X13841173Y-6382183D01*
X13828729Y-6345496D01*
X13817750Y-6307041D01*
X13808234Y-6266818D01*
X13800183Y-6224826D01*
X13793595Y-6181066D01*
X13788471Y-6135537D01*
X13784812Y-6088240D01*
X13782616Y-6039174D01*
X13781884Y-5988340D01*
X14491067Y-5988340D01*
X14491298Y-6002898D01*
X14493147Y-6030627D01*
X14499386Y-6068755D01*
X14509784Y-6102723D01*
X14524342Y-6132532D01*
X14543059Y-6158181D01*
X14565936Y-6179671D01*
X14592972Y-6197002D01*
X14624167Y-6210174D01*
X14659522Y-6219186D01*
X14699036Y-6224038D01*
X14727690Y-6224963D01*
X15515519Y-6224963D01*
X15515519Y-5357803D01*
X14727690Y-5357803D01*
X14713132Y-5358034D01*
X14685403Y-5359882D01*
X14647275Y-5366121D01*
X14613307Y-5376520D01*
X14583498Y-5391078D01*
X14557848Y-5409795D01*
X14536358Y-5432672D01*
X14519027Y-5459708D01*
X14505856Y-5490903D01*
X14496844Y-5526258D01*
X14491991Y-5565772D01*
X14491067Y-5594425D01*
X14491067Y-5988340D01*
X13781884Y-5988340D01*
X13781884Y-5594425D01*
X13782616Y-5543594D01*
X13784812Y-5494536D01*
X13788471Y-5447252D01*
X13793595Y-5401742D01*
X13800183Y-5358006D01*
X13808234Y-5316043D01*
X13817750Y-5275855D01*
X13828729Y-5237440D01*
X13841173Y-5200799D01*
X13855080Y-5165932D01*
X13870451Y-5132838D01*
X13887287Y-5101519D01*
X13905586Y-5071973D01*
X13925349Y-5044201D01*
X13946576Y-5018203D01*
X13969267Y-4993979D01*
X13993491Y-4971288D01*
X14019489Y-4950061D01*
X14047261Y-4930298D01*
X14076807Y-4911998D01*
X14108126Y-4895163D01*
X14141220Y-4879792D01*
X14176087Y-4865885D01*
X14212728Y-4853441D01*
X14251143Y-4842462D01*
X14291331Y-4832946D01*
X14333294Y-4824895D01*
X14377030Y-4818307D01*
X14422540Y-4813183D01*
X14469824Y-4809523D01*
X14518882Y-4807327D01*
X14569713Y-4806595D01*
X16224019Y-4806595D01*
X16224019Y-7564000D01*
G37*
G36*
X12142623Y-7603665D02*
G01*
X12183880Y-7603587D01*
X12225413Y-7603355D01*
X12267222Y-7602967D01*
X12309308Y-7602425D01*
X12351671Y-7601728D01*
X12394310Y-7600876D01*
X12437225Y-7599868D01*
X12480417Y-7598706D01*
X12523886Y-7597389D01*
X12567631Y-7595917D01*
X12611652Y-7594291D01*
X12655950Y-7592509D01*
X12700524Y-7590572D01*
X12745375Y-7588480D01*
X12790503Y-7586234D01*
X12835907Y-7583832D01*
X12881587Y-7581275D01*
X12927544Y-7578564D01*
X12973777Y-7575698D01*
X13020287Y-7572676D01*
X13067073Y-7569500D01*
X13114136Y-7566169D01*
X13161476Y-7562682D01*
X13209091Y-7559041D01*
X13256984Y-7555245D01*
X13305153Y-7551294D01*
X13353598Y-7547188D01*
X13402320Y-7542927D01*
X13451318Y-7538512D01*
X13500593Y-7533941D01*
X13550144Y-7529215D01*
X13599972Y-7524334D01*
X13599972Y-6992960D01*
X13545991Y-6996578D01*
X13492872Y-7000082D01*
X13440615Y-7003470D01*
X13389219Y-7006744D01*
X13338685Y-7009903D01*
X13289012Y-7012947D01*
X13240201Y-7015876D01*
X13192251Y-7018691D01*
X13145163Y-7021390D01*
X13098936Y-7023975D01*
X13053571Y-7026444D01*
X13009067Y-7028799D01*
X12965425Y-7031039D01*
X12922645Y-7033164D01*
X12880726Y-7035175D01*
X12839668Y-7037070D01*
X12799472Y-7038850D01*
X12760138Y-7040516D01*
X12721665Y-7042067D01*
X12684053Y-7043503D01*
X12647303Y-7044824D01*
X12611415Y-7046030D01*
X12576388Y-7047121D01*
X12542223Y-7048098D01*
X12508919Y-7048959D01*
X12476477Y-7049706D01*
X12444896Y-7050338D01*
X12414177Y-7050854D01*
X12384320Y-7051256D01*
X12355323Y-7051544D01*
X12327189Y-7051716D01*
X12299916Y-7051773D01*
X12267362Y-7049922D01*
X12237405Y-7044368D01*
X12210044Y-7035112D01*
X12185280Y-7022153D01*
X12163113Y-7005491D01*
X12156301Y-6999115D01*
X12138173Y-6977789D01*
X12123795Y-6953818D01*
X12113168Y-6927203D01*
X12106292Y-6897943D01*
X12103167Y-6866039D01*
X12102958Y-6854816D01*
X12102958Y-6697524D01*
X12103883Y-6668870D01*
X12108735Y-6629356D01*
X12117747Y-6594001D01*
X12130919Y-6562806D01*
X12148249Y-6535770D01*
X12169739Y-6512893D01*
X12195389Y-6494176D01*
X12225198Y-6479618D01*
X12259166Y-6469220D01*
X12297294Y-6462981D01*
X12325023Y-6461132D01*
X12339581Y-6460901D01*
X13166392Y-6460901D01*
X13166392Y-5909694D01*
X12418227Y-5909694D01*
X12389573Y-5908770D01*
X12350059Y-5903917D01*
X12314705Y-5894905D01*
X12283509Y-5881734D01*
X12256473Y-5864403D01*
X12233597Y-5842913D01*
X12214880Y-5817263D01*
X12200322Y-5787454D01*
X12189923Y-5753486D01*
X12183684Y-5715358D01*
X12181836Y-5687629D01*
X12181605Y-5673071D01*
X12181605Y-5594425D01*
X12182529Y-5565772D01*
X12187381Y-5526258D01*
X12196393Y-5490903D01*
X12209565Y-5459708D01*
X12226896Y-5432672D01*
X12248386Y-5409795D01*
X12274035Y-5391078D01*
X12303844Y-5376520D01*
X12337812Y-5366121D01*
X12375940Y-5359882D01*
X12403669Y-5358034D01*
X12418227Y-5357803D01*
X13560307Y-5357803D01*
X13560307Y-4806595D01*
X12221270Y-4806595D01*
X12173772Y-4807282D01*
X12127877Y-4809342D01*
X12083585Y-4812774D01*
X12040896Y-4817580D01*
X11999810Y-4823759D01*
X11960327Y-4831311D01*
X11922446Y-4840236D01*
X11886168Y-4850535D01*
X11851494Y-4862206D01*
X11818422Y-4875251D01*
X11786952Y-4889668D01*
X11757086Y-4905459D01*
X11728823Y-4922623D01*
X11702162Y-4941160D01*
X11677104Y-4961070D01*
X11653649Y-4982353D01*
X11631704Y-5004953D01*
X11611174Y-5028985D01*
X11592060Y-5054449D01*
X11574362Y-5081344D01*
X11558080Y-5109672D01*
X11543213Y-5139431D01*
X11529763Y-5170623D01*
X11517728Y-5203246D01*
X11507109Y-5237301D01*
X11497906Y-5272788D01*
X11490119Y-5309707D01*
X11483748Y-5348057D01*
X11478792Y-5387840D01*
X11475253Y-5429054D01*
X11473129Y-5471701D01*
X11472421Y-5515779D01*
X11472846Y-5544927D01*
X11474120Y-5573385D01*
X11476244Y-5601154D01*
X11481022Y-5641516D01*
X11487712Y-5680327D01*
X11496313Y-5717587D01*
X11506826Y-5753296D01*
X11519250Y-5787455D01*
X11533586Y-5820063D01*
X11549832Y-5851120D01*
X11567991Y-5880626D01*
X11581158Y-5899436D01*
X11602025Y-5926357D01*
X11624106Y-5951728D01*
X11647401Y-5975549D01*
X11671911Y-5997818D01*
X11697635Y-6018537D01*
X11724572Y-6037705D01*
X11752724Y-6055322D01*
X11782090Y-6071389D01*
X11812671Y-6085904D01*
X11844465Y-6098869D01*
X11866336Y-6106651D01*
X11827299Y-6118491D01*
X11789859Y-6132297D01*
X11754017Y-6148069D01*
X11719772Y-6165807D01*
X11687125Y-6185511D01*
X11656075Y-6207182D01*
X11626623Y-6230818D01*
X11598768Y-6256421D01*
X11572511Y-6283990D01*
X11547851Y-6313525D01*
X11524789Y-6345026D01*
X11503324Y-6378494D01*
X11483457Y-6413927D01*
X11465187Y-6451327D01*
X11448515Y-6490693D01*
X11433440Y-6532025D01*
X11424143Y-6563088D01*
X11416086Y-6595412D01*
X11409269Y-6628997D01*
X11403691Y-6663842D01*
X11399353Y-6699949D01*
X11396912Y-6727857D01*
X11395169Y-6756473D01*
X11394123Y-6785800D01*
X11393775Y-6815835D01*
X11393775Y-6854816D01*
X11394483Y-6902314D01*
X11396606Y-6948208D01*
X11400146Y-6992500D01*
X11405102Y-7035189D01*
X11411473Y-7076276D01*
X11419260Y-7115759D01*
X11428463Y-7153639D01*
X11439082Y-7189917D01*
X11451117Y-7224592D01*
X11464567Y-7257664D01*
X11479433Y-7289133D01*
X11495716Y-7319000D01*
X11513414Y-7347263D01*
X11532528Y-7373924D01*
X11553057Y-7398981D01*
X11575003Y-7422436D01*
X11598458Y-7444382D01*
X11623516Y-7464912D01*
X11650176Y-7484026D01*
X11678440Y-7501724D01*
X11708306Y-7518006D01*
X11739775Y-7532872D01*
X11772847Y-7546323D01*
X11807522Y-7558357D01*
X11843800Y-7568976D01*
X11881680Y-7578179D01*
X11921164Y-7585966D01*
X11962250Y-7592338D01*
X12004939Y-7597293D01*
X12049231Y-7600833D01*
X12095126Y-7602957D01*
X12142623Y-7603665D01*
G37*
G36*
X9081577Y-5673071D02*
G01*
X9082685Y-5714604D01*
X9086011Y-5755425D01*
X9091554Y-5795537D01*
X9099315Y-5834937D01*
X9109292Y-5873627D01*
X9121487Y-5911607D01*
X9135900Y-5948875D01*
X9152529Y-5985434D01*
X9171376Y-6021281D01*
X9192440Y-6056418D01*
X9215721Y-6090845D01*
X9241220Y-6124560D01*
X9268936Y-6157566D01*
X9298869Y-6189860D01*
X9331019Y-6221444D01*
X9365387Y-6252318D01*
X9387346Y-6270964D01*
X9409796Y-6289632D01*
X9432738Y-6308321D01*
X9456172Y-6327032D01*
X9480097Y-6345764D01*
X9504514Y-6364517D01*
X9529422Y-6383291D01*
X9554822Y-6402087D01*
X10401465Y-7012792D01*
X9081577Y-7012792D01*
X9081577Y-7564000D01*
X11209127Y-7564000D01*
X11209127Y-6815835D01*
X9790760Y-5791383D01*
X9790760Y-5594425D01*
X9791684Y-5565772D01*
X9796537Y-5526258D01*
X9805549Y-5490903D01*
X9818720Y-5459708D01*
X9836051Y-5432672D01*
X9857541Y-5409795D01*
X9883191Y-5391078D01*
X9913000Y-5376520D01*
X9946968Y-5366121D01*
X9985096Y-5359882D01*
X10012825Y-5358034D01*
X10027383Y-5357803D01*
X11130481Y-5357803D01*
X11130481Y-4806595D01*
X9869406Y-4806595D01*
X9818655Y-4807327D01*
X9769667Y-4809523D01*
X9722442Y-4813183D01*
X9676980Y-4818307D01*
X9633281Y-4824895D01*
X9591345Y-4832946D01*
X9551172Y-4842462D01*
X9512763Y-4853441D01*
X9476117Y-4865885D01*
X9441233Y-4879792D01*
X9408113Y-4895163D01*
X9376756Y-4911998D01*
X9347162Y-4930298D01*
X9319332Y-4950061D01*
X9293264Y-4971288D01*
X9268960Y-4993979D01*
X9246269Y-5018203D01*
X9225042Y-5044201D01*
X9205279Y-5071973D01*
X9186980Y-5101519D01*
X9170144Y-5132838D01*
X9154773Y-5165932D01*
X9140866Y-5200799D01*
X9128422Y-5237440D01*
X9117443Y-5275855D01*
X9107927Y-5316043D01*
X9099876Y-5358006D01*
X9093288Y-5401742D01*
X9088164Y-5447252D01*
X9084504Y-5494536D01*
X9082309Y-5543594D01*
X9081577Y-5594425D01*
X9081577Y-5673071D01*
G37*
G36*
X8822386Y-6992960D02*
G01*
X8755619Y-6996578D01*
X8690213Y-7000082D01*
X8626168Y-7003470D01*
X8563484Y-7006744D01*
X8502161Y-7009903D01*
X8442200Y-7012947D01*
X8383599Y-7015876D01*
X8326359Y-7018691D01*
X8270481Y-7021390D01*
X8215964Y-7023975D01*
X8162807Y-7026444D01*
X8111012Y-7028799D01*
X8060578Y-7031039D01*
X8011505Y-7033164D01*
X7963793Y-7035175D01*
X7917442Y-7037070D01*
X7872452Y-7038850D01*
X7828823Y-7040516D01*
X7786556Y-7042067D01*
X7745649Y-7043503D01*
X7706104Y-7044824D01*
X7667919Y-7046030D01*
X7631096Y-7047121D01*
X7595634Y-7048098D01*
X7561532Y-7048959D01*
X7528792Y-7049706D01*
X7497413Y-7050338D01*
X7467395Y-7050854D01*
X7438739Y-7051256D01*
X7385508Y-7051716D01*
X7360935Y-7051773D01*
X7328381Y-7049922D01*
X7298424Y-7044368D01*
X7271063Y-7035112D01*
X7246299Y-7022153D01*
X7224132Y-7005491D01*
X7217320Y-6999115D01*
X7199192Y-6977789D01*
X7184814Y-6953818D01*
X7174187Y-6927203D01*
X7167311Y-6897943D01*
X7164186Y-6866039D01*
X7163977Y-6854816D01*
X7163977Y-6500566D01*
X8070118Y-6500566D01*
X8120952Y-6499837D01*
X8170018Y-6497649D01*
X8217315Y-6494002D01*
X8262844Y-6488897D01*
X8306604Y-6482334D01*
X8348596Y-6474312D01*
X8388820Y-6464831D01*
X8427274Y-6453891D01*
X8463961Y-6441493D01*
X8498879Y-6427637D01*
X8532028Y-6412322D01*
X8563409Y-6395548D01*
X8593022Y-6377315D01*
X8620866Y-6357625D01*
X8646942Y-6336475D01*
X8671249Y-6313867D01*
X8693857Y-6289560D01*
X8715006Y-6263484D01*
X8734697Y-6235640D01*
X8752930Y-6206028D01*
X8769703Y-6174647D01*
X8785018Y-6141497D01*
X8798875Y-6106579D01*
X8811273Y-6069893D01*
X8822212Y-6031438D01*
X8831693Y-5991214D01*
X8839716Y-5949223D01*
X8846279Y-5905462D01*
X8851384Y-5859934D01*
X8855031Y-5812636D01*
X8857219Y-5763571D01*
X8857948Y-5712736D01*
X8857948Y-5594425D01*
X8857219Y-5543594D01*
X8855031Y-5494536D01*
X8851384Y-5447252D01*
X8846279Y-5401742D01*
X8839716Y-5358006D01*
X8831693Y-5316043D01*
X8822212Y-5275855D01*
X8811273Y-5237440D01*
X8798875Y-5200799D01*
X8785018Y-5165932D01*
X8769703Y-5132838D01*
X8752930Y-5101519D01*
X8734697Y-5071973D01*
X8715006Y-5044201D01*
X8693857Y-5018203D01*
X8671249Y-4993979D01*
X8646942Y-4971288D01*
X8620866Y-4950061D01*
X8593022Y-4930298D01*
X8563409Y-4911998D01*
X8532028Y-4895163D01*
X8498879Y-4879792D01*
X8463961Y-4865885D01*
X8427274Y-4853441D01*
X8388820Y-4842462D01*
X8348596Y-4832946D01*
X8306604Y-4824895D01*
X8262844Y-4818307D01*
X8217315Y-4813183D01*
X8170018Y-4809523D01*
X8120952Y-4807327D01*
X8070118Y-4806595D01*
X6687313Y-4806595D01*
X6687313Y-5357803D01*
X7912826Y-5357803D01*
X7941396Y-5358727D01*
X7980796Y-5363580D01*
X8016049Y-5372592D01*
X8047154Y-5385763D01*
X8074112Y-5403094D01*
X8096922Y-5424584D01*
X8115585Y-5450233D01*
X8130101Y-5480042D01*
X8140470Y-5514011D01*
X8146691Y-5552138D01*
X8148534Y-5579867D01*
X8148764Y-5594425D01*
X8148764Y-5673071D01*
X8147843Y-5701725D01*
X8143004Y-5741239D01*
X8134018Y-5776594D01*
X8120885Y-5807789D01*
X8103604Y-5834825D01*
X8082176Y-5857702D01*
X8056601Y-5876419D01*
X8026878Y-5890977D01*
X7993008Y-5901375D01*
X7954991Y-5907614D01*
X7927341Y-5909463D01*
X7912826Y-5909694D01*
X7203642Y-5909694D01*
X7156227Y-5910402D01*
X7110410Y-5912526D01*
X7066190Y-5916065D01*
X7023568Y-5921021D01*
X6982543Y-5927392D01*
X6943116Y-5935179D01*
X6905286Y-5944382D01*
X6869054Y-5955001D01*
X6834419Y-5967036D01*
X6801382Y-5980486D01*
X6769942Y-5995352D01*
X6740100Y-6011635D01*
X6711855Y-6029333D01*
X6685208Y-6048447D01*
X6660158Y-6068976D01*
X6636706Y-6090922D01*
X6614760Y-6114374D01*
X6594230Y-6139424D01*
X6575116Y-6166071D01*
X6557418Y-6194316D01*
X6541136Y-6224158D01*
X6526270Y-6255598D01*
X6512819Y-6288635D01*
X6500785Y-6323270D01*
X6490166Y-6359503D01*
X6480963Y-6397332D01*
X6473176Y-6436760D01*
X6466804Y-6477784D01*
X6461849Y-6520407D01*
X6458309Y-6564626D01*
X6456185Y-6610444D01*
X6455478Y-6657859D01*
X6455478Y-6854816D01*
X6456185Y-6902314D01*
X6458309Y-6948208D01*
X6461849Y-6992500D01*
X6466804Y-7035189D01*
X6473176Y-7076276D01*
X6480963Y-7115759D01*
X6490166Y-7153639D01*
X6500785Y-7189917D01*
X6512819Y-7224592D01*
X6526270Y-7257664D01*
X6541136Y-7289133D01*
X6557418Y-7319000D01*
X6575116Y-7347263D01*
X6594230Y-7373924D01*
X6614760Y-7398981D01*
X6636706Y-7422436D01*
X6660158Y-7444382D01*
X6685208Y-7464912D01*
X6711855Y-7484026D01*
X6740100Y-7501724D01*
X6769942Y-7518006D01*
X6801382Y-7532872D01*
X6834419Y-7546323D01*
X6869054Y-7558357D01*
X6905286Y-7568976D01*
X6943116Y-7578179D01*
X6982543Y-7585966D01*
X7023568Y-7592338D01*
X7066190Y-7597293D01*
X7110410Y-7600833D01*
X7156227Y-7602957D01*
X7203642Y-7603665D01*
X7241545Y-7603592D01*
X7279857Y-7603376D01*
X7318578Y-7603015D01*
X7357708Y-7602510D01*
X7397246Y-7601861D01*
X7437193Y-7601068D01*
X7477548Y-7600130D01*
X7518312Y-7599048D01*
X7545716Y-7598247D01*
X7573301Y-7597381D01*
X7601067Y-7596452D01*
X7629016Y-7595458D01*
X7991472Y-7579729D01*
X8041841Y-7577188D01*
X8092419Y-7574525D01*
X8143205Y-7571739D01*
X8194200Y-7568829D01*
X8245402Y-7565797D01*
X8296814Y-7562642D01*
X8348433Y-7559365D01*
X8400261Y-7555964D01*
X8452298Y-7552440D01*
X8504542Y-7548794D01*
X8556995Y-7545025D01*
X8609657Y-7541132D01*
X8662526Y-7537117D01*
X8715605Y-7532979D01*
X8768891Y-7528718D01*
X8822386Y-7524334D01*
X8822386Y-6992960D01*
G37*
G36*
X4814166Y-7603665D02*
G01*
X4855422Y-7603587D01*
X4896955Y-7603355D01*
X4938765Y-7602967D01*
X4980851Y-7602425D01*
X5023213Y-7601728D01*
X5065852Y-7600876D01*
X5108768Y-7599868D01*
X5151960Y-7598706D01*
X5195428Y-7597389D01*
X5239173Y-7595917D01*
X5283194Y-7594291D01*
X5327492Y-7592509D01*
X5372067Y-7590572D01*
X5416918Y-7588480D01*
X5462045Y-7586234D01*
X5507449Y-7583832D01*
X5553129Y-7581275D01*
X5599086Y-7578564D01*
X5645320Y-7575698D01*
X5691829Y-7572676D01*
X5738616Y-7569500D01*
X5785679Y-7566169D01*
X5833018Y-7562682D01*
X5880634Y-7559041D01*
X5928526Y-7555245D01*
X5976695Y-7551294D01*
X6025140Y-7547188D01*
X6073862Y-7542927D01*
X6122860Y-7538512D01*
X6172135Y-7533941D01*
X6221686Y-7529215D01*
X6271514Y-7524334D01*
X6271514Y-6992960D01*
X6217533Y-6996578D01*
X6164414Y-7000082D01*
X6112157Y-7003470D01*
X6060761Y-7006744D01*
X6010227Y-7009903D01*
X5960554Y-7012947D01*
X5911743Y-7015876D01*
X5863793Y-7018691D01*
X5816705Y-7021390D01*
X5770478Y-7023975D01*
X5725113Y-7026444D01*
X5680609Y-7028799D01*
X5636967Y-7031039D01*
X5594187Y-7033164D01*
X5552268Y-7035175D01*
X5511210Y-7037070D01*
X5471014Y-7038850D01*
X5431680Y-7040516D01*
X5393207Y-7042067D01*
X5355595Y-7043503D01*
X5318846Y-7044824D01*
X5282957Y-7046030D01*
X5247930Y-7047121D01*
X5213765Y-7048098D01*
X5180461Y-7048959D01*
X5148019Y-7049706D01*
X5116439Y-7050338D01*
X5085719Y-7050854D01*
X5055862Y-7051256D01*
X5026866Y-7051544D01*
X4998731Y-7051716D01*
X4971458Y-7051773D01*
X4938904Y-7049922D01*
X4908947Y-7044368D01*
X4881587Y-7035112D01*
X4856823Y-7022153D01*
X4834655Y-7005491D01*
X4827843Y-6999115D01*
X4809715Y-6977789D01*
X4795338Y-6953818D01*
X4784711Y-6927203D01*
X4777834Y-6897943D01*
X4774709Y-6866039D01*
X4774501Y-6854816D01*
X4774501Y-6697524D01*
X4775425Y-6668870D01*
X4780277Y-6629356D01*
X4789289Y-6594001D01*
X4802461Y-6562806D01*
X4819792Y-6535770D01*
X4841282Y-6512893D01*
X4866931Y-6494176D01*
X4896740Y-6479618D01*
X4930708Y-6469220D01*
X4968836Y-6462981D01*
X4996565Y-6461132D01*
X5011123Y-6460901D01*
X5837934Y-6460901D01*
X5837934Y-5909694D01*
X5089769Y-5909694D01*
X5061116Y-5908770D01*
X5021602Y-5903917D01*
X4986247Y-5894905D01*
X4955052Y-5881734D01*
X4928016Y-5864403D01*
X4905139Y-5842913D01*
X4886422Y-5817263D01*
X4871864Y-5787454D01*
X4861466Y-5753486D01*
X4855226Y-5715358D01*
X4853378Y-5687629D01*
X4853147Y-5673071D01*
X4853147Y-5594425D01*
X4854071Y-5565772D01*
X4858924Y-5526258D01*
X4867936Y-5490903D01*
X4881107Y-5459708D01*
X4898438Y-5432672D01*
X4919928Y-5409795D01*
X4945577Y-5391078D01*
X4975386Y-5376520D01*
X5009355Y-5366121D01*
X5047482Y-5359882D01*
X5075211Y-5358034D01*
X5089769Y-5357803D01*
X6231849Y-5357803D01*
X6231849Y-4806595D01*
X4892812Y-4806595D01*
X4845314Y-4807282D01*
X4799419Y-4809342D01*
X4755128Y-4812774D01*
X4712438Y-4817580D01*
X4671352Y-4823759D01*
X4631869Y-4831311D01*
X4593988Y-4840236D01*
X4557711Y-4850535D01*
X4523036Y-4862206D01*
X4489964Y-4875251D01*
X4458495Y-4889668D01*
X4428628Y-4905459D01*
X4400365Y-4922623D01*
X4373704Y-4941160D01*
X4348646Y-4961070D01*
X4325191Y-4982353D01*
X4303246Y-5004953D01*
X4282716Y-5028985D01*
X4263602Y-5054449D01*
X4245904Y-5081344D01*
X4229622Y-5109672D01*
X4214755Y-5139431D01*
X4201305Y-5170623D01*
X4189270Y-5203246D01*
X4178651Y-5237301D01*
X4169448Y-5272788D01*
X4161661Y-5309707D01*
X4155290Y-5348057D01*
X4150335Y-5387840D01*
X4146795Y-5429054D01*
X4144671Y-5471701D01*
X4143963Y-5515779D01*
X4144388Y-5544927D01*
X4145662Y-5573385D01*
X4147786Y-5601154D01*
X4152564Y-5641516D01*
X4159254Y-5680327D01*
X4167856Y-5717587D01*
X4178368Y-5753296D01*
X4190792Y-5787455D01*
X4205128Y-5820063D01*
X4221375Y-5851120D01*
X4239533Y-5880626D01*
X4252700Y-5899436D01*
X4273567Y-5926357D01*
X4295648Y-5951728D01*
X4318944Y-5975549D01*
X4343453Y-5997818D01*
X4369177Y-6018537D01*
X4396115Y-6037705D01*
X4424267Y-6055322D01*
X4453633Y-6071389D01*
X4484213Y-6085904D01*
X4516007Y-6098869D01*
X4537878Y-6106651D01*
X4498841Y-6118491D01*
X4461401Y-6132297D01*
X4425559Y-6148069D01*
X4391314Y-6165807D01*
X4358667Y-6185511D01*
X4327617Y-6207182D01*
X4298165Y-6230818D01*
X4270310Y-6256421D01*
X4244053Y-6283990D01*
X4219393Y-6313525D01*
X4196331Y-6345026D01*
X4174866Y-6378494D01*
X4154999Y-6413927D01*
X4136729Y-6451327D01*
X4120057Y-6490693D01*
X4104982Y-6532025D01*
X4095686Y-6563088D01*
X4087629Y-6595412D01*
X4080811Y-6628997D01*
X4075233Y-6663842D01*
X4070895Y-6699949D01*
X4068455Y-6727857D01*
X4066711Y-6756473D01*
X4065666Y-6785800D01*
X4065317Y-6815835D01*
X4065317Y-6854816D01*
X4066025Y-6902314D01*
X4068149Y-6948208D01*
X4071688Y-6992500D01*
X4076644Y-7035189D01*
X4083015Y-7076276D01*
X4090802Y-7115759D01*
X4100005Y-7153639D01*
X4110624Y-7189917D01*
X4122659Y-7224592D01*
X4136109Y-7257664D01*
X4150976Y-7289133D01*
X4167258Y-7319000D01*
X4184956Y-7347263D01*
X4204070Y-7373924D01*
X4224600Y-7398981D01*
X4246545Y-7422436D01*
X4270000Y-7444382D01*
X4295058Y-7464912D01*
X4321719Y-7484026D01*
X4349982Y-7501724D01*
X4379848Y-7518006D01*
X4411318Y-7532872D01*
X4444390Y-7546323D01*
X4479064Y-7558357D01*
X4515342Y-7568976D01*
X4553223Y-7578179D01*
X4592706Y-7585966D01*
X4633792Y-7592338D01*
X4676481Y-7597293D01*
X4720773Y-7600833D01*
X4766668Y-7602957D01*
X4814166Y-7603665D01*
G37*
D11*
G36*
X30866207Y-9771699D02*
G01*
X30507536Y-8737819D01*
X30096109Y-8737819D01*
X30655181Y-10215000D01*
X31077232Y-10215000D01*
X31636671Y-8737819D01*
X31224877Y-8737819D01*
X30866207Y-9771699D01*
G37*
G36*
X29785531Y-9075957D02*
G01*
X29804512Y-9077009D01*
X29822957Y-9078762D01*
X29840867Y-9081217D01*
X29858243Y-9084372D01*
X29875082Y-9088229D01*
X29891387Y-9092787D01*
X29907156Y-9098046D01*
X29922391Y-9104007D01*
X29937090Y-9110669D01*
X29951253Y-9118032D01*
X29964882Y-9126096D01*
X29977975Y-9134862D01*
X29990533Y-9144329D01*
X30002556Y-9154497D01*
X30014043Y-9165366D01*
X30024913Y-9176809D01*
X30035081Y-9188790D01*
X30044547Y-9201310D01*
X30053313Y-9214367D01*
X30061377Y-9227963D01*
X30068740Y-9242096D01*
X30075402Y-9256768D01*
X30081363Y-9271978D01*
X30086622Y-9287726D01*
X30091180Y-9304012D01*
X30095037Y-9320836D01*
X30098193Y-9338198D01*
X30100647Y-9356099D01*
X30102400Y-9374537D01*
X30103452Y-9393513D01*
X30103803Y-9413028D01*
X30103803Y-9919710D01*
X30103465Y-9937396D01*
X30102452Y-9954640D01*
X30100763Y-9971445D01*
X30098399Y-9987808D01*
X30095359Y-10003730D01*
X30091644Y-10019212D01*
X30087253Y-10034253D01*
X30082187Y-10048853D01*
X30076445Y-10063013D01*
X30070028Y-10076731D01*
X30062936Y-10090009D01*
X30055168Y-10102846D01*
X30046724Y-10115243D01*
X30037605Y-10127198D01*
X30027811Y-10138713D01*
X30017341Y-10149787D01*
X30006267Y-10160257D01*
X29994752Y-10170051D01*
X29982796Y-10179170D01*
X29970400Y-10187614D01*
X29957563Y-10195382D01*
X29944285Y-10202474D01*
X29930567Y-10208892D01*
X29916407Y-10214633D01*
X29901807Y-10219699D01*
X29886766Y-10224090D01*
X29871284Y-10227805D01*
X29855362Y-10230845D01*
X29838998Y-10233209D01*
X29822194Y-10234898D01*
X29804949Y-10235911D01*
X29787264Y-10236249D01*
X29766468Y-10236207D01*
X29745524Y-10236083D01*
X29724433Y-10235875D01*
X29703195Y-10235585D01*
X29681809Y-10235211D01*
X29660276Y-10234755D01*
X29638595Y-10234215D01*
X29616767Y-10233592D01*
X29594792Y-10232887D01*
X29572669Y-10232098D01*
X29550399Y-10231227D01*
X29527981Y-10230272D01*
X29505416Y-10229235D01*
X29482703Y-10228114D01*
X29459844Y-10226911D01*
X29436836Y-10225624D01*
X29413682Y-10224254D01*
X29390380Y-10222802D01*
X29366930Y-10221266D01*
X29343333Y-10219648D01*
X29319589Y-10217946D01*
X29295697Y-10216162D01*
X29271658Y-10214294D01*
X29247472Y-10212343D01*
X29223138Y-10210310D01*
X29198657Y-10208193D01*
X29174028Y-10205994D01*
X29149252Y-10203711D01*
X29124328Y-10201345D01*
X29099257Y-10198897D01*
X29074039Y-10196365D01*
X29048673Y-10193750D01*
X29048673Y-9929968D01*
X29073671Y-9931929D01*
X29098290Y-9933828D01*
X29122529Y-9935664D01*
X29146390Y-9937438D01*
X29169871Y-9939150D01*
X29192972Y-9940800D01*
X29215695Y-9942388D01*
X29238038Y-9943913D01*
X29260002Y-9945376D01*
X29281587Y-9946776D01*
X29302792Y-9948115D01*
X29323618Y-9949391D01*
X29344065Y-9950605D01*
X29364133Y-9951757D01*
X29383822Y-9952846D01*
X29403131Y-9953873D01*
X29422061Y-9954838D01*
X29440612Y-9955741D01*
X29458783Y-9956581D01*
X29476575Y-9957360D01*
X29493988Y-9958075D01*
X29511022Y-9958729D01*
X29527677Y-9959321D01*
X29543952Y-9959850D01*
X29559848Y-9960317D01*
X29575365Y-9960721D01*
X29590503Y-9961064D01*
X29605261Y-9961344D01*
X29633640Y-9961717D01*
X29660502Y-9961842D01*
X29670097Y-9961332D01*
X29686107Y-9957845D01*
X29700494Y-9951054D01*
X29713258Y-9940959D01*
X29720480Y-9932617D01*
X29728510Y-9918703D01*
X29733179Y-9903109D01*
X29734507Y-9887836D01*
X29734507Y-9803572D01*
X29006175Y-9803572D01*
X29006175Y-9539790D01*
X29375470Y-9539790D01*
X29734507Y-9539790D01*
X29734507Y-9423653D01*
X29734425Y-9418468D01*
X29732441Y-9399377D01*
X29727813Y-9382920D01*
X29720540Y-9369095D01*
X29710622Y-9357904D01*
X29698060Y-9349346D01*
X29682853Y-9343421D01*
X29665002Y-9340129D01*
X29649877Y-9339389D01*
X29460100Y-9339389D01*
X29454894Y-9339471D01*
X29435720Y-9341446D01*
X29419190Y-9346054D01*
X29405306Y-9353296D01*
X29394066Y-9363170D01*
X29385471Y-9375678D01*
X29379520Y-9390819D01*
X29376214Y-9408594D01*
X29375470Y-9423653D01*
X29375470Y-9539790D01*
X29006175Y-9539790D01*
X29006175Y-9413028D01*
X29006526Y-9393513D01*
X29007578Y-9374537D01*
X29009331Y-9356099D01*
X29011785Y-9338198D01*
X29014941Y-9320836D01*
X29018798Y-9304012D01*
X29023356Y-9287726D01*
X29028615Y-9271978D01*
X29034576Y-9256768D01*
X29041237Y-9242096D01*
X29048600Y-9227963D01*
X29056665Y-9214367D01*
X29065430Y-9201310D01*
X29074897Y-9188790D01*
X29085065Y-9176809D01*
X29095934Y-9165366D01*
X29107422Y-9154497D01*
X29119445Y-9144329D01*
X29132003Y-9134862D01*
X29145096Y-9126096D01*
X29158724Y-9118032D01*
X29172888Y-9110669D01*
X29187587Y-9104007D01*
X29202821Y-9098046D01*
X29218591Y-9092787D01*
X29234895Y-9088229D01*
X29251735Y-9084372D01*
X29269110Y-9081217D01*
X29287021Y-9078762D01*
X29305466Y-9077009D01*
X29324447Y-9075957D01*
X29343963Y-9075607D01*
X29766015Y-9075607D01*
X29785531Y-9075957D01*
G37*
G36*
X28180024Y-9402404D02*
G01*
X28196680Y-9402651D01*
X28213403Y-9403394D01*
X28230191Y-9404632D01*
X28247045Y-9406365D01*
X28263966Y-9408593D01*
X28280951Y-9411317D01*
X28298003Y-9414535D01*
X28315121Y-9418249D01*
X28332304Y-9422458D01*
X28349553Y-9427162D01*
X28366868Y-9432361D01*
X28384249Y-9438055D01*
X28401696Y-9444245D01*
X28419208Y-9450930D01*
X28436786Y-9458110D01*
X28454431Y-9465785D01*
X28454431Y-10215000D01*
X28823726Y-10215000D01*
X28823726Y-9096489D01*
X28496562Y-9096489D01*
X28475680Y-9233876D01*
X28464306Y-9224139D01*
X28452901Y-9214711D01*
X28429993Y-9196782D01*
X28406956Y-9180089D01*
X28383791Y-9164633D01*
X28360497Y-9150414D01*
X28337074Y-9137431D01*
X28313522Y-9125684D01*
X28289841Y-9115174D01*
X28266032Y-9105900D01*
X28242094Y-9097863D01*
X28218027Y-9091063D01*
X28193831Y-9085498D01*
X28169507Y-9081171D01*
X28145053Y-9078080D01*
X28120471Y-9076225D01*
X28095760Y-9075607D01*
X28000872Y-9075607D01*
X28000872Y-9402404D01*
X28180024Y-9402404D01*
G37*
G36*
X27900121Y-9919710D02*
G01*
X27873531Y-9921648D01*
X27847295Y-9923525D01*
X27821413Y-9925341D01*
X27795885Y-9927094D01*
X27770711Y-9928787D01*
X27745892Y-9930417D01*
X27721427Y-9931987D01*
X27697316Y-9933494D01*
X27673559Y-9934940D01*
X27650157Y-9936325D01*
X27627108Y-9937648D01*
X27604414Y-9938910D01*
X27582074Y-9940110D01*
X27560088Y-9941248D01*
X27538457Y-9942325D01*
X27517179Y-9943340D01*
X27496256Y-9944294D01*
X27475687Y-9945187D01*
X27455472Y-9946017D01*
X27435612Y-9946787D01*
X27416105Y-9947494D01*
X27396953Y-9948140D01*
X27378155Y-9948725D01*
X27359711Y-9949248D01*
X27341622Y-9949710D01*
X27323886Y-9950110D01*
X27306505Y-9950448D01*
X27289478Y-9950725D01*
X27272805Y-9950940D01*
X27256487Y-9951094D01*
X27240522Y-9951186D01*
X27224912Y-9951217D01*
X27209800Y-9949912D01*
X27194331Y-9945324D01*
X27180485Y-9937431D01*
X27172156Y-9930334D01*
X27161884Y-9917541D01*
X27154974Y-9903068D01*
X27151654Y-9888791D01*
X27150906Y-9877212D01*
X27150906Y-9803572D01*
X27604832Y-9803572D01*
X27622517Y-9803235D01*
X27639762Y-9802221D01*
X27656566Y-9800533D01*
X27672930Y-9798169D01*
X27688852Y-9795129D01*
X27704334Y-9791414D01*
X27719375Y-9787023D01*
X27733975Y-9781957D01*
X27748135Y-9776215D01*
X27761853Y-9769798D01*
X27775131Y-9762706D01*
X27787968Y-9754938D01*
X27800364Y-9746494D01*
X27812320Y-9737375D01*
X27823835Y-9727580D01*
X27834909Y-9717110D01*
X27845379Y-9706037D01*
X27855173Y-9694522D01*
X27864292Y-9682566D01*
X27872736Y-9670170D01*
X27880504Y-9657333D01*
X27887596Y-9644055D01*
X27894013Y-9630337D01*
X27899755Y-9616177D01*
X27904821Y-9601577D01*
X27909212Y-9586536D01*
X27912927Y-9571054D01*
X27915967Y-9555132D01*
X27918331Y-9538768D01*
X27920020Y-9521964D01*
X27921033Y-9504719D01*
X27921371Y-9487034D01*
X27921371Y-9413028D01*
X27921033Y-9395344D01*
X27920020Y-9378103D01*
X27918331Y-9361306D01*
X27915967Y-9344953D01*
X27912927Y-9329043D01*
X27909212Y-9313577D01*
X27904821Y-9298555D01*
X27899755Y-9283976D01*
X27894013Y-9269841D01*
X27887596Y-9256150D01*
X27880504Y-9242902D01*
X27872736Y-9230098D01*
X27864292Y-9217737D01*
X27855173Y-9205820D01*
X27845379Y-9194347D01*
X27834909Y-9183318D01*
X27823835Y-9172803D01*
X27812320Y-9162967D01*
X27800364Y-9153810D01*
X27787968Y-9145330D01*
X27775131Y-9137529D01*
X27761853Y-9130407D01*
X27748135Y-9123962D01*
X27733975Y-9118196D01*
X27719375Y-9113109D01*
X27704334Y-9108700D01*
X27688852Y-9104969D01*
X27672930Y-9101916D01*
X27656566Y-9099542D01*
X27639762Y-9097846D01*
X27622517Y-9096829D01*
X27604832Y-9096489D01*
X26887124Y-9096489D01*
X26887124Y-9370896D01*
X27478070Y-9370896D01*
X27493343Y-9372224D01*
X27508937Y-9376893D01*
X27522851Y-9384924D01*
X27531193Y-9392145D01*
X27541287Y-9404761D01*
X27548078Y-9419116D01*
X27551566Y-9435210D01*
X27552075Y-9444902D01*
X27550770Y-9460014D01*
X27546182Y-9475483D01*
X27538289Y-9489329D01*
X27531193Y-9497658D01*
X27518400Y-9507753D01*
X27503926Y-9514544D01*
X27487771Y-9518031D01*
X27478070Y-9518541D01*
X27098150Y-9518541D01*
X27080466Y-9518880D01*
X27063225Y-9519898D01*
X27046428Y-9521594D01*
X27030075Y-9523968D01*
X27014165Y-9527020D01*
X26998699Y-9530751D01*
X26983677Y-9535161D01*
X26969098Y-9540248D01*
X26954963Y-9546014D01*
X26941272Y-9552458D01*
X26928024Y-9559581D01*
X26915220Y-9567382D01*
X26902859Y-9575861D01*
X26890942Y-9585019D01*
X26879469Y-9594855D01*
X26868440Y-9605369D01*
X26857925Y-9616399D01*
X26848089Y-9627872D01*
X26838932Y-9639789D01*
X26830452Y-9652149D01*
X26822651Y-9664954D01*
X26815529Y-9678201D01*
X26809084Y-9691893D01*
X26803318Y-9706028D01*
X26798231Y-9720607D01*
X26793822Y-9735629D01*
X26790091Y-9751095D01*
X26787038Y-9767005D01*
X26784664Y-9783358D01*
X26782968Y-9800155D01*
X26781950Y-9817396D01*
X26781611Y-9835080D01*
X26781611Y-9919710D01*
X26781950Y-9937396D01*
X26782968Y-9954640D01*
X26784664Y-9971445D01*
X26787038Y-9987808D01*
X26790091Y-10003730D01*
X26793822Y-10019212D01*
X26798231Y-10034253D01*
X26803318Y-10048853D01*
X26809084Y-10063013D01*
X26815529Y-10076731D01*
X26822651Y-10090009D01*
X26830452Y-10102846D01*
X26838932Y-10115243D01*
X26848089Y-10127198D01*
X26857925Y-10138713D01*
X26868440Y-10149787D01*
X26879469Y-10160257D01*
X26890942Y-10170051D01*
X26902859Y-10179170D01*
X26915220Y-10187614D01*
X26928024Y-10195382D01*
X26941272Y-10202474D01*
X26954963Y-10208892D01*
X26969098Y-10214633D01*
X26983677Y-10219699D01*
X26998699Y-10224090D01*
X27014165Y-10227805D01*
X27030075Y-10230845D01*
X27046428Y-10233209D01*
X27063225Y-10234898D01*
X27080466Y-10235911D01*
X27098150Y-10236249D01*
X27121559Y-10236207D01*
X27145075Y-10236083D01*
X27168697Y-10235875D01*
X27192426Y-10235585D01*
X27216261Y-10235211D01*
X27240203Y-10234755D01*
X27264252Y-10234215D01*
X27288408Y-10233592D01*
X27312670Y-10232887D01*
X27337038Y-10232098D01*
X27361513Y-10231227D01*
X27386095Y-10230272D01*
X27410784Y-10229235D01*
X27435579Y-10228114D01*
X27460480Y-10226911D01*
X27485489Y-10225624D01*
X27510604Y-10224254D01*
X27535825Y-10222802D01*
X27561153Y-10221266D01*
X27586588Y-10219648D01*
X27612129Y-10217946D01*
X27637777Y-10216162D01*
X27663532Y-10214294D01*
X27689393Y-10212343D01*
X27715361Y-10210310D01*
X27741436Y-10208193D01*
X27767617Y-10205994D01*
X27793904Y-10203711D01*
X27820299Y-10201345D01*
X27846800Y-10198897D01*
X27873407Y-10196365D01*
X27900121Y-10193750D01*
X27900121Y-9919710D01*
G37*
G36*
X26196528Y-9138621D02*
G01*
X26196528Y-10215000D01*
X26565823Y-10215000D01*
X26565823Y-9423653D01*
X26724092Y-9423653D01*
X26724092Y-9138621D01*
X26196528Y-9138621D01*
G37*
G36*
X26565823Y-8716570D02*
G01*
X26196528Y-8716570D01*
X26196528Y-9012226D01*
X26565823Y-9012226D01*
X26565823Y-8716570D01*
G37*
G36*
X25692509Y-9075957D02*
G01*
X25711490Y-9077009D01*
X25729935Y-9078762D01*
X25747846Y-9081217D01*
X25765221Y-9084372D01*
X25782061Y-9088229D01*
X25798365Y-9092787D01*
X25814135Y-9098046D01*
X25829369Y-9104007D01*
X25844068Y-9110669D01*
X25858232Y-9118032D01*
X25871860Y-9126096D01*
X25884953Y-9134862D01*
X25897511Y-9144329D01*
X25909534Y-9154497D01*
X25921022Y-9165366D01*
X25931891Y-9176809D01*
X25942059Y-9188790D01*
X25951526Y-9201310D01*
X25960291Y-9214367D01*
X25968356Y-9227963D01*
X25975719Y-9242096D01*
X25982380Y-9256768D01*
X25988341Y-9271978D01*
X25993600Y-9287726D01*
X25998158Y-9304012D01*
X26002015Y-9320836D01*
X26005171Y-9338198D01*
X26007625Y-9356099D01*
X26009378Y-9374537D01*
X26010430Y-9393513D01*
X26010781Y-9413028D01*
X26010781Y-9898461D01*
X26010430Y-9917977D01*
X26009378Y-9936958D01*
X26007625Y-9955403D01*
X26005171Y-9973314D01*
X26002015Y-9990689D01*
X25998158Y-10007529D01*
X25993600Y-10023833D01*
X25988341Y-10039603D01*
X25982380Y-10054837D01*
X25975719Y-10069536D01*
X25968356Y-10083699D01*
X25960291Y-10097328D01*
X25951526Y-10110421D01*
X25942059Y-10122979D01*
X25931891Y-10135002D01*
X25921022Y-10146489D01*
X25909534Y-10157359D01*
X25897511Y-10167527D01*
X25884953Y-10176994D01*
X25871860Y-10185759D01*
X25858232Y-10193823D01*
X25844068Y-10201186D01*
X25829369Y-10207848D01*
X25814135Y-10213809D01*
X25798365Y-10219068D01*
X25782061Y-10223626D01*
X25765221Y-10227483D01*
X25747846Y-10230639D01*
X25729935Y-10233093D01*
X25711490Y-10234846D01*
X25692509Y-10235898D01*
X25672993Y-10236249D01*
X25187560Y-10236249D01*
X25168046Y-10235898D01*
X25149069Y-10234846D01*
X25130631Y-10233093D01*
X25112730Y-10230639D01*
X25095368Y-10227483D01*
X25078544Y-10223626D01*
X25062258Y-10219068D01*
X25046510Y-10213809D01*
X25031300Y-10207848D01*
X25016629Y-10201186D01*
X25002495Y-10193823D01*
X24988899Y-10185759D01*
X24975842Y-10176994D01*
X24963323Y-10167527D01*
X24951341Y-10157359D01*
X24939898Y-10146489D01*
X24929029Y-10135002D01*
X24918861Y-10122979D01*
X24909394Y-10110421D01*
X24900628Y-10097328D01*
X24892564Y-10083699D01*
X24885201Y-10069536D01*
X24878539Y-10054837D01*
X24872579Y-10039603D01*
X24867319Y-10023833D01*
X24862761Y-10007529D01*
X24858904Y-9990689D01*
X24855749Y-9973314D01*
X24853294Y-9955403D01*
X24851541Y-9936958D01*
X24850489Y-9917977D01*
X24850139Y-9898461D01*
X24850139Y-9866953D01*
X25219434Y-9866953D01*
X25219516Y-9872138D01*
X25221491Y-9891229D01*
X25226099Y-9907686D01*
X25233341Y-9921511D01*
X25243216Y-9932702D01*
X25255723Y-9941260D01*
X25270865Y-9947185D01*
X25288639Y-9950477D01*
X25303698Y-9951217D01*
X25556856Y-9951217D01*
X25562062Y-9951135D01*
X25581236Y-9949160D01*
X25597766Y-9944552D01*
X25611650Y-9937310D01*
X25622890Y-9927436D01*
X25631485Y-9914928D01*
X25637436Y-9899787D01*
X25640742Y-9882012D01*
X25641486Y-9866953D01*
X25641486Y-9444902D01*
X25641403Y-9439695D01*
X25639420Y-9420521D01*
X25634791Y-9403992D01*
X25627518Y-9390107D01*
X25617601Y-9378867D01*
X25605039Y-9370272D01*
X25589832Y-9364321D01*
X25571980Y-9361015D01*
X25556856Y-9360272D01*
X25303698Y-9360272D01*
X25298514Y-9360354D01*
X25279423Y-9362338D01*
X25262965Y-9366966D01*
X25249140Y-9374239D01*
X25237949Y-9384157D01*
X25229391Y-9396719D01*
X25223466Y-9411926D01*
X25220175Y-9429777D01*
X25219434Y-9444902D01*
X25219434Y-9866953D01*
X24850139Y-9866953D01*
X24850139Y-9413028D01*
X24850489Y-9393513D01*
X24851541Y-9374537D01*
X24853294Y-9356099D01*
X24855749Y-9338198D01*
X24858904Y-9320836D01*
X24862761Y-9304012D01*
X24867319Y-9287726D01*
X24872579Y-9271978D01*
X24878539Y-9256768D01*
X24885201Y-9242096D01*
X24892564Y-9227963D01*
X24900628Y-9214367D01*
X24909394Y-9201310D01*
X24918861Y-9188790D01*
X24929029Y-9176809D01*
X24939898Y-9165366D01*
X24951341Y-9154497D01*
X24963323Y-9144329D01*
X24975842Y-9134862D01*
X24988899Y-9126096D01*
X25002495Y-9118032D01*
X25016629Y-9110669D01*
X25031300Y-9104007D01*
X25046510Y-9098046D01*
X25062258Y-9092787D01*
X25078544Y-9088229D01*
X25095368Y-9084372D01*
X25112730Y-9081217D01*
X25130631Y-9078762D01*
X25149069Y-9077009D01*
X25168046Y-9075957D01*
X25187560Y-9075607D01*
X25672993Y-9075607D01*
X25692509Y-9075957D01*
G37*
G36*
X24045237Y-9381521D02*
G01*
X24066449Y-9381891D01*
X24088183Y-9383002D01*
X24102962Y-9384154D01*
X24117973Y-9385635D01*
X24133216Y-9387446D01*
X24148690Y-9389585D01*
X24164397Y-9392054D01*
X24180335Y-9394852D01*
X24196505Y-9397979D01*
X24212907Y-9401435D01*
X24229541Y-9405220D01*
X24246406Y-9409334D01*
X24263504Y-9413778D01*
X24280833Y-9418551D01*
X24298394Y-9423653D01*
X24298394Y-10215000D01*
X24667689Y-10215000D01*
X24667689Y-9096489D01*
X24340526Y-9096489D01*
X24319643Y-9202002D01*
X24307213Y-9193987D01*
X24294742Y-9186243D01*
X24275961Y-9175137D01*
X24257090Y-9164643D01*
X24238128Y-9154761D01*
X24219076Y-9145491D01*
X24199935Y-9136832D01*
X24180703Y-9128785D01*
X24161380Y-9121350D01*
X24141968Y-9114527D01*
X24122466Y-9108316D01*
X24115945Y-9106381D01*
X24096654Y-9100881D01*
X24077936Y-9095923D01*
X24059791Y-9091505D01*
X24042220Y-9087628D01*
X24025221Y-9084292D01*
X24008796Y-9081497D01*
X23992944Y-9079243D01*
X23977665Y-9077530D01*
X23962960Y-9076358D01*
X23944243Y-9075637D01*
X23939724Y-9075607D01*
X23844835Y-9075607D01*
X23827107Y-9075944D01*
X23809825Y-9076958D01*
X23792989Y-9078646D01*
X23776600Y-9081010D01*
X23760657Y-9084050D01*
X23745161Y-9087765D01*
X23730112Y-9092156D01*
X23715509Y-9097222D01*
X23701352Y-9102964D01*
X23687642Y-9109381D01*
X23674379Y-9116473D01*
X23661562Y-9124241D01*
X23649191Y-9132685D01*
X23637267Y-9141804D01*
X23625790Y-9151599D01*
X23614759Y-9162069D01*
X23604289Y-9173100D01*
X23594494Y-9184577D01*
X23585375Y-9196501D01*
X23576931Y-9208872D01*
X23569163Y-9221689D01*
X23562071Y-9234952D01*
X23555654Y-9248662D01*
X23549912Y-9262819D01*
X23544846Y-9277422D01*
X23540455Y-9292471D01*
X23536740Y-9307967D01*
X23533700Y-9323910D01*
X23531336Y-9340299D01*
X23529648Y-9357135D01*
X23528634Y-9374417D01*
X23528297Y-9392145D01*
X23528297Y-10215000D01*
X23897592Y-10215000D01*
X23897592Y-9455160D01*
X23898920Y-9440070D01*
X23903589Y-9424682D01*
X23911620Y-9410974D01*
X23918841Y-9402770D01*
X23931428Y-9392498D01*
X23945696Y-9385588D01*
X23961644Y-9382040D01*
X23971231Y-9381521D01*
X24045237Y-9381521D01*
G37*
G36*
X21998359Y-10236249D02*
G01*
X22020461Y-10236207D01*
X22042711Y-10236083D01*
X22065109Y-10235875D01*
X22087655Y-10235585D01*
X22110349Y-10235211D01*
X22133191Y-10234755D01*
X22156182Y-10234215D01*
X22179320Y-10233592D01*
X22202607Y-10232887D01*
X22226042Y-10232098D01*
X22249625Y-10231227D01*
X22273356Y-10230272D01*
X22297235Y-10229235D01*
X22321262Y-10228114D01*
X22345438Y-10226911D01*
X22369761Y-10225624D01*
X22394233Y-10224254D01*
X22418853Y-10222802D01*
X22443620Y-10221266D01*
X22468536Y-10219648D01*
X22493601Y-10217946D01*
X22518813Y-10216162D01*
X22544173Y-10214294D01*
X22569682Y-10212343D01*
X22595338Y-10210310D01*
X22621143Y-10208193D01*
X22647096Y-10205994D01*
X22673197Y-10203711D01*
X22699446Y-10201345D01*
X22725843Y-10198897D01*
X22752388Y-10196365D01*
X22779082Y-10193750D01*
X22779082Y-9909085D01*
X22750164Y-9911024D01*
X22721707Y-9912901D01*
X22693712Y-9914716D01*
X22666178Y-9916470D01*
X22639107Y-9918162D01*
X22612496Y-9919793D01*
X22586347Y-9921362D01*
X22560660Y-9922870D01*
X22535434Y-9924316D01*
X22510670Y-9925701D01*
X22486367Y-9927024D01*
X22462526Y-9928285D01*
X22439146Y-9929485D01*
X22416228Y-9930624D01*
X22393771Y-9931700D01*
X22371776Y-9932716D01*
X22350243Y-9933670D01*
X22329171Y-9934562D01*
X22308560Y-9935393D01*
X22288411Y-9936162D01*
X22268724Y-9936870D01*
X22249498Y-9937516D01*
X22230733Y-9938100D01*
X22212431Y-9938623D01*
X22194589Y-9939085D01*
X22177210Y-9939485D01*
X22160291Y-9939823D01*
X22143835Y-9940100D01*
X22127839Y-9940316D01*
X22112306Y-9940470D01*
X22097234Y-9940562D01*
X22082623Y-9940593D01*
X22065184Y-9939601D01*
X22049135Y-9936626D01*
X22034478Y-9931667D01*
X22021211Y-9924725D01*
X22009336Y-9915799D01*
X22005687Y-9912383D01*
X21995975Y-9900958D01*
X21988273Y-9888117D01*
X21982580Y-9873859D01*
X21978896Y-9858184D01*
X21977222Y-9841092D01*
X21977110Y-9835080D01*
X21977110Y-9750816D01*
X21977605Y-9735466D01*
X21980205Y-9714298D01*
X21985033Y-9695358D01*
X21992089Y-9678646D01*
X22001373Y-9664162D01*
X22012886Y-9651907D01*
X22026627Y-9641880D01*
X22042596Y-9634081D01*
X22060793Y-9628510D01*
X22081219Y-9625168D01*
X22096073Y-9624178D01*
X22103872Y-9624054D01*
X22546807Y-9624054D01*
X22546807Y-9328764D01*
X22146004Y-9328764D01*
X22130654Y-9328269D01*
X22109486Y-9325670D01*
X22090546Y-9320842D01*
X22073834Y-9313786D01*
X22059350Y-9304501D01*
X22047095Y-9292989D01*
X22037068Y-9279248D01*
X22029269Y-9263279D01*
X22023699Y-9245082D01*
X22020356Y-9224656D01*
X22019366Y-9209801D01*
X22019242Y-9202002D01*
X22019242Y-9159870D01*
X22019737Y-9144520D01*
X22022337Y-9123352D01*
X22027165Y-9104412D01*
X22034221Y-9087700D01*
X22043505Y-9073217D01*
X22055018Y-9060961D01*
X22068759Y-9050934D01*
X22084728Y-9043135D01*
X22102925Y-9037565D01*
X22123350Y-9034222D01*
X22138205Y-9033232D01*
X22146004Y-9033108D01*
X22757833Y-9033108D01*
X22757833Y-8737819D01*
X22040491Y-8737819D01*
X22015046Y-8738187D01*
X21990460Y-8739290D01*
X21966732Y-8741129D01*
X21943863Y-8743703D01*
X21921852Y-8747014D01*
X21900700Y-8751059D01*
X21880407Y-8755841D01*
X21860973Y-8761358D01*
X21842397Y-8767610D01*
X21824680Y-8774598D01*
X21807821Y-8782322D01*
X21791822Y-8790781D01*
X21776680Y-8799976D01*
X21762398Y-8809907D01*
X21748974Y-8820573D01*
X21736409Y-8831974D01*
X21724652Y-8844082D01*
X21713654Y-8856956D01*
X21703415Y-8870597D01*
X21693934Y-8885006D01*
X21685211Y-8900181D01*
X21677247Y-8916124D01*
X21670041Y-8932833D01*
X21663594Y-8950310D01*
X21657905Y-8968554D01*
X21652975Y-8987565D01*
X21648804Y-9007343D01*
X21645390Y-9027888D01*
X21642736Y-9049200D01*
X21640839Y-9071279D01*
X21639702Y-9094125D01*
X21639322Y-9117739D01*
X21639550Y-9133353D01*
X21640233Y-9148599D01*
X21641370Y-9163475D01*
X21643930Y-9185098D01*
X21647514Y-9205889D01*
X21652122Y-9225850D01*
X21657754Y-9244980D01*
X21664409Y-9263279D01*
X21672089Y-9280748D01*
X21680793Y-9297385D01*
X21690520Y-9313192D01*
X21697574Y-9323269D01*
X21708753Y-9337691D01*
X21720582Y-9351283D01*
X21733062Y-9364044D01*
X21746192Y-9375974D01*
X21759973Y-9387073D01*
X21774403Y-9397342D01*
X21789485Y-9406780D01*
X21805217Y-9415387D01*
X21821599Y-9423163D01*
X21838632Y-9430108D01*
X21850348Y-9434277D01*
X21829435Y-9440620D01*
X21809378Y-9448016D01*
X21790177Y-9456465D01*
X21771832Y-9465968D01*
X21754342Y-9476524D01*
X21737708Y-9488133D01*
X21721930Y-9500795D01*
X21707008Y-9514511D01*
X21692942Y-9529280D01*
X21679731Y-9545102D01*
X21667376Y-9561978D01*
X21655877Y-9579907D01*
X21645234Y-9598889D01*
X21635447Y-9618925D01*
X21626515Y-9640014D01*
X21618440Y-9662156D01*
X21613459Y-9678797D01*
X21609143Y-9696113D01*
X21605491Y-9714105D01*
X21602503Y-9732773D01*
X21600179Y-9752115D01*
X21598871Y-9767066D01*
X21597938Y-9782396D01*
X21597377Y-9798107D01*
X21597191Y-9814197D01*
X21597191Y-9835080D01*
X21597570Y-9860525D01*
X21598707Y-9885111D01*
X21600604Y-9908839D01*
X21603258Y-9931708D01*
X21606672Y-9953719D01*
X21610843Y-9974871D01*
X21615773Y-9995164D01*
X21621462Y-10014598D01*
X21627909Y-10033174D01*
X21635115Y-10050891D01*
X21643079Y-10067750D01*
X21651802Y-10083750D01*
X21661283Y-10098891D01*
X21671522Y-10113173D01*
X21682520Y-10126597D01*
X21694277Y-10139162D01*
X21706842Y-10150919D01*
X21720266Y-10161917D01*
X21734548Y-10172156D01*
X21749690Y-10181637D01*
X21765689Y-10190360D01*
X21782548Y-10198324D01*
X21800265Y-10205530D01*
X21818841Y-10211977D01*
X21838275Y-10217666D01*
X21858569Y-10222596D01*
X21879720Y-10226768D01*
X21901731Y-10230181D01*
X21924600Y-10232835D01*
X21948328Y-10234732D01*
X21972914Y-10235869D01*
X21998359Y-10236249D01*
G37*
G36*
X21477023Y-9898461D02*
G01*
X21097103Y-9898461D01*
X21097103Y-10215000D01*
X21477023Y-10215000D01*
X21477023Y-9898461D01*
G37*
G36*
X19854396Y-9202002D02*
G01*
X19854990Y-9224252D01*
X19856771Y-9246121D01*
X19859741Y-9267609D01*
X19863898Y-9288716D01*
X19869243Y-9309443D01*
X19875776Y-9329789D01*
X19883497Y-9349754D01*
X19892406Y-9369339D01*
X19902502Y-9388543D01*
X19913787Y-9407367D01*
X19926259Y-9425809D01*
X19939919Y-9443871D01*
X19954767Y-9461553D01*
X19970802Y-9478853D01*
X19988026Y-9495773D01*
X20006437Y-9512313D01*
X20018201Y-9522302D01*
X20030228Y-9532303D01*
X20042518Y-9542315D01*
X20055072Y-9552338D01*
X20067889Y-9562373D01*
X20080969Y-9572419D01*
X20094313Y-9582477D01*
X20107920Y-9592547D01*
X20561479Y-9919710D01*
X19854396Y-9919710D01*
X19854396Y-10215000D01*
X20994155Y-10215000D01*
X20994155Y-9814197D01*
X20234315Y-9265383D01*
X20234315Y-9159870D01*
X20234811Y-9144520D01*
X20237410Y-9123352D01*
X20242238Y-9104412D01*
X20249294Y-9087700D01*
X20258578Y-9073217D01*
X20270091Y-9060961D01*
X20283832Y-9050934D01*
X20299801Y-9043135D01*
X20317998Y-9037565D01*
X20338424Y-9034222D01*
X20353279Y-9033232D01*
X20361077Y-9033108D01*
X20952023Y-9033108D01*
X20952023Y-8737819D01*
X20276447Y-8737819D01*
X20249259Y-8738211D01*
X20223015Y-8739387D01*
X20197716Y-8741348D01*
X20173362Y-8744093D01*
X20149951Y-8747622D01*
X20127486Y-8751935D01*
X20105965Y-8757033D01*
X20085388Y-8762915D01*
X20065756Y-8769581D01*
X20047069Y-8777031D01*
X20029326Y-8785266D01*
X20012528Y-8794285D01*
X19996674Y-8804088D01*
X19981765Y-8814675D01*
X19967800Y-8826047D01*
X19954779Y-8838203D01*
X19942624Y-8851180D01*
X19931252Y-8865107D01*
X19920665Y-8879985D01*
X19910862Y-8895813D01*
X19901843Y-8912592D01*
X19893608Y-8930320D01*
X19886158Y-8948999D01*
X19879492Y-8968628D01*
X19873610Y-8989208D01*
X19868512Y-9010737D01*
X19864199Y-9033217D01*
X19860670Y-9056647D01*
X19857925Y-9081028D01*
X19855964Y-9106358D01*
X19854788Y-9132639D01*
X19854396Y-9159870D01*
X19854396Y-9202002D01*
G37*
G36*
X19734595Y-9898461D02*
G01*
X19354675Y-9898461D01*
X19354675Y-10215000D01*
X19734595Y-10215000D01*
X19734595Y-9898461D01*
G37*
G36*
X18945812Y-10215000D02*
G01*
X18945812Y-9064982D01*
X19188345Y-9149246D01*
X19293858Y-8906713D01*
X18903314Y-8737819D01*
X18565893Y-8737819D01*
X18565893Y-10215000D01*
X18945812Y-10215000D01*
G37*
D12*
G36*
X57489156Y-7004704D02*
G01*
X57538520Y-7016096D01*
X57589545Y-7041015D01*
X57628703Y-7077800D01*
X57655996Y-7126452D01*
X57669286Y-7173917D01*
X57674982Y-7228977D01*
X57675219Y-7243928D01*
X57675219Y-8650767D01*
X57671422Y-8707439D01*
X57660030Y-8756555D01*
X57635111Y-8807323D01*
X57598326Y-8846285D01*
X57549674Y-8873441D01*
X57502209Y-8886664D01*
X57447149Y-8892331D01*
X57432198Y-8892568D01*
X56588339Y-8892568D01*
X56531667Y-8888789D01*
X56482551Y-8877455D01*
X56431782Y-8852661D01*
X56392820Y-8816060D01*
X56365665Y-8767653D01*
X56352442Y-8720426D01*
X56346774Y-8665644D01*
X56346538Y-8650767D01*
X56346538Y-7243928D01*
X56350316Y-7186970D01*
X56361651Y-7137606D01*
X56386445Y-7086581D01*
X56423045Y-7047423D01*
X56471453Y-7020130D01*
X56518679Y-7006840D01*
X56573462Y-7001144D01*
X56588339Y-7000907D01*
X57432198Y-7000907D01*
X57489156Y-7004704D01*
G37*
G36*
X67964090Y-5844113D02*
G01*
X68025878Y-5854191D01*
X68080926Y-5870989D01*
X68129233Y-5894506D01*
X68170800Y-5924741D01*
X68205626Y-5961696D01*
X68233711Y-6005370D01*
X68255056Y-6055763D01*
X68269661Y-6112875D01*
X68277525Y-6176706D01*
X68279023Y-6222993D01*
X68279023Y-8474912D01*
X68275652Y-8543223D01*
X68265541Y-8604814D01*
X68248690Y-8659687D01*
X68225098Y-8707840D01*
X68194766Y-8749274D01*
X68157693Y-8783989D01*
X68113880Y-8811985D01*
X68063326Y-8833262D01*
X68006031Y-8847820D01*
X67941996Y-8855659D01*
X67895561Y-8857152D01*
X66699993Y-8857152D01*
X66631464Y-8853793D01*
X66569676Y-8843714D01*
X66514628Y-8826917D01*
X66466321Y-8803400D01*
X66424754Y-8773164D01*
X66389928Y-8736209D01*
X66361843Y-8692535D01*
X66340498Y-8642142D01*
X66325893Y-8585030D01*
X66318029Y-8521199D01*
X66316531Y-8474912D01*
X66316531Y-6222993D01*
X66319902Y-6154683D01*
X66330012Y-6093091D01*
X66346864Y-6038219D01*
X66370455Y-5990066D01*
X66400788Y-5948631D01*
X66437861Y-5913916D01*
X66481674Y-5885920D01*
X66532228Y-5864643D01*
X66589523Y-5850085D01*
X66653558Y-5842246D01*
X66699993Y-5840753D01*
X67895561Y-5840753D01*
X67964090Y-5844113D01*
G37*
G36*
X85021745Y-10635116D02*
G01*
X47840905Y-10635116D01*
X47840905Y-9850000D01*
X48555191Y-9850000D01*
X49864333Y-9850000D01*
X49864333Y-7278122D01*
X49870177Y-7225386D01*
X49887708Y-7178612D01*
X49916926Y-7137802D01*
X49924173Y-7130355D01*
X49963790Y-7099443D01*
X50009371Y-7079980D01*
X50060915Y-7071966D01*
X50071939Y-7071737D01*
X50107355Y-7071737D01*
X50167032Y-7072886D01*
X50229285Y-7076331D01*
X50294115Y-7082073D01*
X50361520Y-7090113D01*
X50431501Y-7100449D01*
X50504059Y-7113082D01*
X50553861Y-7122780D01*
X50604809Y-7133499D01*
X50656901Y-7145239D01*
X50710138Y-7158000D01*
X50764521Y-7171781D01*
X50820048Y-7186584D01*
X50876720Y-7202407D01*
X50876720Y-9850000D01*
X52185861Y-9850000D01*
X52185861Y-7278122D01*
X52191586Y-7225386D01*
X52208759Y-7178612D01*
X52237381Y-7137802D01*
X52244480Y-7130355D01*
X52284217Y-7099443D01*
X52330155Y-7079980D01*
X52382296Y-7071966D01*
X52393468Y-7071737D01*
X52428883Y-7071737D01*
X52488560Y-7072886D01*
X52550814Y-7076331D01*
X52615643Y-7082073D01*
X52683048Y-7090113D01*
X52753029Y-7100449D01*
X52825587Y-7113082D01*
X52875389Y-7122780D01*
X52926337Y-7133499D01*
X52978429Y-7145239D01*
X53031667Y-7158000D01*
X53086049Y-7171781D01*
X53141576Y-7186584D01*
X53198248Y-7202407D01*
X53198248Y-9850000D01*
X54507390Y-9850000D01*
X54507390Y-8755792D01*
X55037397Y-8755792D01*
X55038608Y-8822815D01*
X55042243Y-8888026D01*
X55048302Y-8951424D01*
X55056783Y-9013010D01*
X55067688Y-9072783D01*
X55081017Y-9130742D01*
X55096769Y-9186890D01*
X55114944Y-9241224D01*
X55135542Y-9293746D01*
X55158564Y-9344455D01*
X55184009Y-9393351D01*
X55211878Y-9440435D01*
X55242169Y-9485706D01*
X55274885Y-9529164D01*
X55310023Y-9570809D01*
X55347585Y-9610642D01*
X55387270Y-9648203D01*
X55428777Y-9683342D01*
X55472106Y-9716057D01*
X55517257Y-9746349D01*
X55564231Y-9774217D01*
X55613027Y-9799663D01*
X55663646Y-9822684D01*
X55716086Y-9843283D01*
X55770349Y-9861458D01*
X55826435Y-9877210D01*
X55884342Y-9890538D01*
X55944072Y-9901443D01*
X56005624Y-9909925D01*
X56068998Y-9915983D01*
X56134195Y-9919618D01*
X56201214Y-9920830D01*
X57819323Y-9920830D01*
X57886346Y-9919618D01*
X57951557Y-9915983D01*
X58014955Y-9909925D01*
X58076541Y-9901443D01*
X58136314Y-9890538D01*
X58194274Y-9877210D01*
X58250421Y-9861458D01*
X58304755Y-9843283D01*
X58357277Y-9822684D01*
X58407986Y-9799663D01*
X58456882Y-9774217D01*
X58503966Y-9746349D01*
X58549237Y-9716057D01*
X58592695Y-9683342D01*
X58634340Y-9648203D01*
X58674173Y-9610642D01*
X58711734Y-9570809D01*
X58746873Y-9529164D01*
X58779588Y-9485706D01*
X58809880Y-9440435D01*
X58837748Y-9393351D01*
X58863194Y-9344455D01*
X58886215Y-9293746D01*
X58906814Y-9241224D01*
X58924989Y-9186890D01*
X58940741Y-9130742D01*
X58954069Y-9072783D01*
X58964974Y-9013010D01*
X58973456Y-8951424D01*
X58979514Y-8888026D01*
X58983149Y-8822815D01*
X58984361Y-8755792D01*
X58984361Y-7137683D01*
X58983149Y-7070664D01*
X58979514Y-7005467D01*
X58973456Y-6942093D01*
X58964974Y-6880541D01*
X58954069Y-6820811D01*
X58940741Y-6762903D01*
X58924989Y-6706818D01*
X58906814Y-6652555D01*
X58886215Y-6600115D01*
X58863194Y-6549496D01*
X58837748Y-6500700D01*
X58809880Y-6453726D01*
X58779588Y-6408575D01*
X58746873Y-6365246D01*
X58711734Y-6323739D01*
X58674173Y-6284054D01*
X58634340Y-6246492D01*
X58592695Y-6211354D01*
X58549237Y-6178638D01*
X58503966Y-6148346D01*
X58456882Y-6120478D01*
X58407986Y-6095033D01*
X58357277Y-6072011D01*
X58304755Y-6051413D01*
X58281024Y-6043475D01*
X59378813Y-6043475D01*
X59378813Y-7071737D01*
X61281465Y-7071737D01*
X61338423Y-7075515D01*
X61387787Y-7086850D01*
X61438812Y-7111644D01*
X61477971Y-7148244D01*
X61505263Y-7196652D01*
X61518553Y-7243878D01*
X61524249Y-7298661D01*
X61524487Y-7313538D01*
X61524487Y-8684961D01*
X61518762Y-8738342D01*
X61501589Y-8785520D01*
X61472967Y-8826498D01*
X61465868Y-8833949D01*
X61425606Y-8864861D01*
X61379620Y-8884324D01*
X61327909Y-8892339D01*
X61316880Y-8892568D01*
X61235321Y-8892143D01*
X61148486Y-8890869D01*
X61056375Y-8888746D01*
X60958988Y-8885775D01*
X60908316Y-8883970D01*
X60856325Y-8881953D01*
X60803015Y-8879725D01*
X60748386Y-8877283D01*
X60692438Y-8874630D01*
X60635171Y-8871764D01*
X60576585Y-8868686D01*
X60516680Y-8865396D01*
X60455455Y-8861893D01*
X60392912Y-8858178D01*
X60329050Y-8854251D01*
X60263869Y-8850111D01*
X60197369Y-8845759D01*
X60129550Y-8841195D01*
X60060412Y-8836419D01*
X59989955Y-8831431D01*
X59918178Y-8826230D01*
X59845083Y-8820816D01*
X59770669Y-8815191D01*
X59694936Y-8809353D01*
X59617884Y-8803303D01*
X59539513Y-8797041D01*
X59459822Y-8790566D01*
X59378813Y-8783879D01*
X59378813Y-9775505D01*
X59462971Y-9784446D01*
X59546458Y-9793103D01*
X59629275Y-9801477D01*
X59711422Y-9809566D01*
X59792899Y-9817371D01*
X59873705Y-9824893D01*
X59953842Y-9832131D01*
X60033308Y-9839085D01*
X60112103Y-9845755D01*
X60190229Y-9852141D01*
X60267684Y-9858244D01*
X60344469Y-9864063D01*
X60420584Y-9869597D01*
X60496029Y-9874848D01*
X60570803Y-9879815D01*
X60644907Y-9884499D01*
X60718341Y-9888898D01*
X60791105Y-9893014D01*
X60863198Y-9896846D01*
X60934621Y-9900394D01*
X61005374Y-9903658D01*
X61075457Y-9906638D01*
X61144869Y-9909335D01*
X61213611Y-9911747D01*
X61281683Y-9913876D01*
X61349085Y-9915721D01*
X61415816Y-9917282D01*
X61481878Y-9918559D01*
X61547269Y-9919553D01*
X61611989Y-9920262D01*
X61676040Y-9920688D01*
X61739420Y-9920830D01*
X61800338Y-9919656D01*
X61859748Y-9916136D01*
X61917651Y-9910268D01*
X61974046Y-9902054D01*
X62028934Y-9891492D01*
X62082314Y-9878584D01*
X62134187Y-9863328D01*
X62184553Y-9845725D01*
X62233411Y-9825776D01*
X62280762Y-9803479D01*
X62326605Y-9778835D01*
X62370941Y-9751844D01*
X62413769Y-9722507D01*
X62455090Y-9690822D01*
X62494903Y-9656790D01*
X62533210Y-9620411D01*
X62569588Y-9582105D01*
X62603620Y-9542292D01*
X62635305Y-9500971D01*
X62664643Y-9458142D01*
X62691633Y-9413807D01*
X62716277Y-9367963D01*
X62738574Y-9320613D01*
X62758524Y-9271755D01*
X62776126Y-9221389D01*
X62791382Y-9169516D01*
X62804290Y-9116136D01*
X62814852Y-9061248D01*
X62823067Y-9004852D01*
X62828934Y-8946950D01*
X62832455Y-8887540D01*
X62833628Y-8826622D01*
X62833628Y-8716713D01*
X63239071Y-8716713D01*
X63239071Y-9850000D01*
X64583628Y-9850000D01*
X64583628Y-8716713D01*
X63239071Y-8716713D01*
X62833628Y-8716713D01*
X62833628Y-8474912D01*
X64973196Y-8474912D01*
X64974546Y-8567510D01*
X64978596Y-8656930D01*
X64985346Y-8743174D01*
X64994796Y-8826240D01*
X65006946Y-8906130D01*
X65021796Y-8982842D01*
X65039346Y-9056377D01*
X65059596Y-9126735D01*
X65082547Y-9193916D01*
X65108197Y-9257920D01*
X65136547Y-9318747D01*
X65167598Y-9376397D01*
X65201348Y-9430870D01*
X65237798Y-9482166D01*
X65276949Y-9530285D01*
X65318799Y-9575226D01*
X65363598Y-9617077D01*
X65411592Y-9656227D01*
X65462783Y-9692678D01*
X65517170Y-9726428D01*
X65574753Y-9757478D01*
X65635533Y-9785829D01*
X65699508Y-9811479D01*
X65766680Y-9834429D01*
X65837047Y-9854679D01*
X65910611Y-9872229D01*
X65987371Y-9887080D01*
X66067327Y-9899230D01*
X66150480Y-9908680D01*
X66236828Y-9915430D01*
X66326373Y-9919480D01*
X66419113Y-9920830D01*
X68177662Y-9920830D01*
X68270259Y-9919480D01*
X68359680Y-9915430D01*
X68445923Y-9908680D01*
X68528990Y-9899230D01*
X68608879Y-9887080D01*
X68685591Y-9872229D01*
X68759127Y-9854679D01*
X68829485Y-9834429D01*
X68896666Y-9811479D01*
X68960670Y-9785829D01*
X69021497Y-9757478D01*
X69079147Y-9726428D01*
X69133620Y-9692678D01*
X69184915Y-9656227D01*
X69233034Y-9617077D01*
X69277976Y-9575226D01*
X69319826Y-9530285D01*
X69358977Y-9482166D01*
X69395427Y-9430870D01*
X69429177Y-9376397D01*
X69460228Y-9318747D01*
X69488578Y-9257920D01*
X69514228Y-9193916D01*
X69537178Y-9126735D01*
X69557429Y-9056377D01*
X69574979Y-8982842D01*
X69589829Y-8906130D01*
X69601979Y-8826240D01*
X69611429Y-8743174D01*
X69618179Y-8656930D01*
X69622229Y-8567510D01*
X69623579Y-8474912D01*
X69623579Y-6222993D01*
X69622229Y-6130400D01*
X69618179Y-6040994D01*
X69611429Y-5954775D01*
X69601979Y-5871741D01*
X69589829Y-5791895D01*
X69574979Y-5715235D01*
X69557429Y-5641762D01*
X69537178Y-5571475D01*
X69514228Y-5504375D01*
X69488578Y-5440462D01*
X69460228Y-5379735D01*
X69429177Y-5322195D01*
X69395427Y-5267841D01*
X69358977Y-5216675D01*
X69319826Y-5168694D01*
X69277976Y-5123900D01*
X69233034Y-5081902D01*
X69184915Y-5042613D01*
X69133620Y-5006034D01*
X69079147Y-4972165D01*
X69021497Y-4941004D01*
X68960670Y-4912554D01*
X68896666Y-4886813D01*
X68829485Y-4863782D01*
X68774520Y-4847906D01*
X70019253Y-4847906D01*
X70019253Y-5910362D01*
X70651842Y-5910362D01*
X70651842Y-8787543D01*
X70019253Y-8787543D01*
X70019253Y-9850000D01*
X72628988Y-9850000D01*
X73018555Y-9850000D01*
X74327697Y-9850000D01*
X74327697Y-7278122D01*
X74333421Y-7225386D01*
X74350594Y-7178612D01*
X74379217Y-7137802D01*
X74386315Y-7130355D01*
X74425933Y-7099443D01*
X74471514Y-7079980D01*
X74523058Y-7071966D01*
X74534082Y-7071737D01*
X74780767Y-7071737D01*
X74850094Y-7072886D01*
X74920687Y-7076331D01*
X74992546Y-7082073D01*
X75041156Y-7087178D01*
X75090329Y-7093303D01*
X75140065Y-7100449D01*
X75190364Y-7108616D01*
X75241226Y-7117803D01*
X75292650Y-7128012D01*
X75344638Y-7139241D01*
X75397188Y-7151492D01*
X75450301Y-7164763D01*
X75503978Y-7179055D01*
X75558217Y-7194368D01*
X75585547Y-7202407D01*
X75585547Y-9850000D01*
X76894689Y-9850000D01*
X76894689Y-6183914D01*
X77506517Y-6183914D01*
X77506517Y-9850000D01*
X78815659Y-9850000D01*
X78815659Y-7212177D01*
X79343224Y-7212177D01*
X79343224Y-6183914D01*
X77506517Y-6183914D01*
X76894689Y-6183914D01*
X76894689Y-6043475D01*
X75733314Y-6043475D01*
X75668590Y-6369539D01*
X75614201Y-6335017D01*
X75558652Y-6301976D01*
X75501944Y-6270417D01*
X75444077Y-6240338D01*
X75385051Y-6211741D01*
X75324866Y-6184625D01*
X75263521Y-6158990D01*
X75201017Y-6134837D01*
X75137355Y-6112164D01*
X75072532Y-6090973D01*
X75028674Y-6077669D01*
X74963225Y-6059118D01*
X74899688Y-6042392D01*
X74838060Y-6027490D01*
X74778344Y-6014414D01*
X74720538Y-6003162D01*
X74664642Y-5993734D01*
X74610657Y-5986131D01*
X74558582Y-5980353D01*
X74508418Y-5976400D01*
X74444505Y-5973967D01*
X74429057Y-5973866D01*
X74112763Y-5973866D01*
X74051702Y-5975039D01*
X73992168Y-5978560D01*
X73934160Y-5984427D01*
X73877679Y-5992642D01*
X73822725Y-6003203D01*
X73769296Y-6016112D01*
X73717395Y-6031368D01*
X73667020Y-6048970D01*
X73618171Y-6068920D01*
X73570849Y-6091217D01*
X73525054Y-6115860D01*
X73480785Y-6142851D01*
X73438042Y-6172189D01*
X73396826Y-6203874D01*
X73357137Y-6237905D01*
X73318974Y-6274284D01*
X73282595Y-6312447D01*
X73248563Y-6352137D01*
X73216878Y-6393353D01*
X73187540Y-6436095D01*
X73160550Y-6480364D01*
X73135906Y-6526160D01*
X73113609Y-6573482D01*
X73093660Y-6622330D01*
X73076057Y-6672705D01*
X73060801Y-6724607D01*
X73047893Y-6778035D01*
X73037331Y-6832990D01*
X73029117Y-6889471D01*
X73023249Y-6947479D01*
X73019728Y-7007013D01*
X73018555Y-7068073D01*
X73018555Y-9850000D01*
X72628988Y-9850000D01*
X72628988Y-8787543D01*
X71996399Y-8787543D01*
X71996399Y-5910362D01*
X72628988Y-5910362D01*
X72628988Y-4847906D01*
X70019253Y-4847906D01*
X68774520Y-4847906D01*
X68759127Y-4843460D01*
X68685591Y-4825848D01*
X68608879Y-4810945D01*
X68528990Y-4798752D01*
X68445923Y-4789269D01*
X68359680Y-4782495D01*
X68270259Y-4778430D01*
X68177662Y-4777076D01*
X77506517Y-4777076D01*
X77506517Y-5840753D01*
X78815659Y-5840753D01*
X78815659Y-4847906D01*
X79798736Y-4847906D01*
X79798736Y-8474912D01*
X79800086Y-8567510D01*
X79804136Y-8656930D01*
X79810887Y-8743174D01*
X79820337Y-8826240D01*
X79832487Y-8906130D01*
X79847337Y-8982842D01*
X79864887Y-9056377D01*
X79885137Y-9126735D01*
X79908088Y-9193916D01*
X79933738Y-9257920D01*
X79962088Y-9318747D01*
X79993138Y-9376397D01*
X80026889Y-9430870D01*
X80063339Y-9482166D01*
X80102490Y-9530285D01*
X80144340Y-9575226D01*
X80189139Y-9617077D01*
X80237133Y-9656227D01*
X80288324Y-9692678D01*
X80342711Y-9726428D01*
X80400294Y-9757478D01*
X80461073Y-9785829D01*
X80525049Y-9811479D01*
X80592220Y-9834429D01*
X80662588Y-9854679D01*
X80736152Y-9872229D01*
X80812912Y-9887080D01*
X80892868Y-9899230D01*
X80976020Y-9908680D01*
X81062369Y-9915430D01*
X81151913Y-9919480D01*
X81244654Y-9920830D01*
X82861542Y-9920830D01*
X82954282Y-9919480D01*
X83043827Y-9915430D01*
X83130175Y-9908680D01*
X83213328Y-9899230D01*
X83293284Y-9887080D01*
X83370044Y-9872229D01*
X83443608Y-9854679D01*
X83513975Y-9834429D01*
X83581147Y-9811479D01*
X83645122Y-9785829D01*
X83705902Y-9757478D01*
X83763485Y-9726428D01*
X83817872Y-9692678D01*
X83869063Y-9656227D01*
X83917057Y-9617077D01*
X83961856Y-9575226D01*
X84003706Y-9530285D01*
X84042857Y-9482166D01*
X84079307Y-9430870D01*
X84113057Y-9376397D01*
X84144108Y-9318747D01*
X84172458Y-9257920D01*
X84198108Y-9193916D01*
X84221058Y-9126735D01*
X84241309Y-9056377D01*
X84258859Y-8982842D01*
X84273709Y-8906130D01*
X84285859Y-8826240D01*
X84295309Y-8743174D01*
X84302059Y-8656930D01*
X84306109Y-8567510D01*
X84307459Y-8474912D01*
X84307459Y-4847906D01*
X82964124Y-4847906D01*
X82964124Y-8474912D01*
X82960753Y-8543223D01*
X82950643Y-8604814D01*
X82933791Y-8659687D01*
X82910199Y-8707840D01*
X82879867Y-8749274D01*
X82842794Y-8783989D01*
X82798981Y-8811985D01*
X82748427Y-8833262D01*
X82691132Y-8847820D01*
X82627097Y-8855659D01*
X82580662Y-8857152D01*
X81525533Y-8857152D01*
X81457005Y-8853793D01*
X81395216Y-8843714D01*
X81340169Y-8826917D01*
X81291862Y-8803400D01*
X81250295Y-8773164D01*
X81215469Y-8736209D01*
X81187383Y-8692535D01*
X81166038Y-8642142D01*
X81151434Y-8585030D01*
X81143570Y-8521199D01*
X81142072Y-8474912D01*
X81142072Y-4847906D01*
X79798736Y-4847906D01*
X78815659Y-4847906D01*
X78815659Y-4777076D01*
X77506517Y-4777076D01*
X68177662Y-4777076D01*
X66419113Y-4777076D01*
X66326373Y-4778430D01*
X66236828Y-4782495D01*
X66150480Y-4789269D01*
X66067327Y-4798752D01*
X65987371Y-4810945D01*
X65910611Y-4825848D01*
X65837047Y-4843460D01*
X65766680Y-4863782D01*
X65699508Y-4886813D01*
X65635533Y-4912554D01*
X65574753Y-4941004D01*
X65517170Y-4972165D01*
X65462783Y-5006034D01*
X65411592Y-5042613D01*
X65363598Y-5081902D01*
X65318799Y-5123900D01*
X65276949Y-5168694D01*
X65237798Y-5216675D01*
X65201348Y-5267841D01*
X65167598Y-5322195D01*
X65136547Y-5379735D01*
X65108197Y-5440462D01*
X65082547Y-5504375D01*
X65059596Y-5571475D01*
X65039346Y-5641762D01*
X65021796Y-5715235D01*
X65006946Y-5791895D01*
X64994796Y-5871741D01*
X64985346Y-5954775D01*
X64978596Y-6040994D01*
X64974546Y-6130400D01*
X64973196Y-6222993D01*
X64973196Y-8474912D01*
X62833628Y-8474912D01*
X62833628Y-7208513D01*
X62832417Y-7141494D01*
X62828782Y-7076298D01*
X62822723Y-7012923D01*
X62814241Y-6951371D01*
X62803336Y-6891641D01*
X62790008Y-6833734D01*
X62774256Y-6777649D01*
X62756081Y-6723386D01*
X62735483Y-6670945D01*
X62712461Y-6620327D01*
X62687016Y-6571531D01*
X62659147Y-6524557D01*
X62628855Y-6479405D01*
X62596140Y-6436076D01*
X62561002Y-6394569D01*
X62523440Y-6354884D01*
X62483607Y-6317175D01*
X62441962Y-6281898D01*
X62398504Y-6249054D01*
X62353233Y-6218643D01*
X62306150Y-6190664D01*
X62257253Y-6165119D01*
X62206544Y-6142007D01*
X62154023Y-6121327D01*
X62099688Y-6103080D01*
X62043541Y-6087267D01*
X61985581Y-6073886D01*
X61925808Y-6062938D01*
X61864223Y-6054423D01*
X61800824Y-6048341D01*
X61735614Y-6044691D01*
X61668590Y-6043475D01*
X59378813Y-6043475D01*
X58281024Y-6043475D01*
X58250421Y-6033238D01*
X58194274Y-6017486D01*
X58136314Y-6004157D01*
X58076541Y-5993252D01*
X58014955Y-5984771D01*
X57951557Y-5978712D01*
X57886346Y-5975077D01*
X57819323Y-5973866D01*
X56201214Y-5973866D01*
X56134195Y-5975077D01*
X56068998Y-5978712D01*
X56005624Y-5984771D01*
X55944072Y-5993252D01*
X55884342Y-6004157D01*
X55826435Y-6017486D01*
X55770349Y-6033238D01*
X55716086Y-6051413D01*
X55663646Y-6072011D01*
X55613027Y-6095033D01*
X55564231Y-6120478D01*
X55517257Y-6148346D01*
X55472106Y-6178638D01*
X55428777Y-6211354D01*
X55387270Y-6246492D01*
X55347585Y-6284054D01*
X55310023Y-6323739D01*
X55274885Y-6365246D01*
X55242169Y-6408575D01*
X55211878Y-6453726D01*
X55184009Y-6500700D01*
X55158564Y-6549496D01*
X55135542Y-6600115D01*
X55114944Y-6652555D01*
X55096769Y-6706818D01*
X55081017Y-6762903D01*
X55067688Y-6820811D01*
X55056783Y-6880541D01*
X55048302Y-6942093D01*
X55042243Y-7005467D01*
X55038608Y-7070664D01*
X55037397Y-7137683D01*
X55037397Y-8650767D01*
X55037397Y-8755792D01*
X54507390Y-8755792D01*
X54507390Y-6043475D01*
X53346015Y-6043475D01*
X53281290Y-6369539D01*
X53226901Y-6335017D01*
X53171353Y-6301976D01*
X53114645Y-6270417D01*
X53056778Y-6240338D01*
X52997752Y-6211741D01*
X52937566Y-6184625D01*
X52876222Y-6158990D01*
X52813718Y-6134837D01*
X52750055Y-6112164D01*
X52685233Y-6090973D01*
X52641374Y-6077669D01*
X52575926Y-6059118D01*
X52512388Y-6042392D01*
X52450761Y-6027490D01*
X52391044Y-6014414D01*
X52333238Y-6003162D01*
X52277343Y-5993734D01*
X52223358Y-5986131D01*
X52171283Y-5980353D01*
X52121119Y-5976400D01*
X52057206Y-5973967D01*
X52041758Y-5973866D01*
X51970928Y-5973866D01*
X51898475Y-5975454D01*
X51828275Y-5980220D01*
X51760325Y-5988162D01*
X51694628Y-5999282D01*
X51631182Y-6013579D01*
X51569988Y-6031053D01*
X51511045Y-6051704D01*
X51454354Y-6075532D01*
X51399915Y-6102537D01*
X51347727Y-6132719D01*
X51297791Y-6166078D01*
X51250106Y-6202614D01*
X51204673Y-6242328D01*
X51161492Y-6285218D01*
X51120562Y-6331285D01*
X51081884Y-6380530D01*
X51025283Y-6343836D01*
X50967223Y-6308860D01*
X50907703Y-6275601D01*
X50846724Y-6244059D01*
X50784284Y-6214235D01*
X50720385Y-6186128D01*
X50655026Y-6159738D01*
X50588208Y-6135066D01*
X50519930Y-6112111D01*
X50450192Y-6090873D01*
X50402889Y-6077669D01*
X50355428Y-6065099D01*
X50285436Y-6047764D01*
X50216882Y-6032255D01*
X50149767Y-6018570D01*
X50084090Y-6006709D01*
X50019851Y-5996674D01*
X49957050Y-5988463D01*
X49895688Y-5982077D01*
X49835763Y-5977515D01*
X49777277Y-5974778D01*
X49720230Y-5973866D01*
X49649399Y-5973866D01*
X49588482Y-5975039D01*
X49529072Y-5978560D01*
X49471169Y-5984427D01*
X49414774Y-5992642D01*
X49359886Y-6003203D01*
X49306505Y-6016112D01*
X49254632Y-6031368D01*
X49204267Y-6048970D01*
X49155409Y-6068920D01*
X49108058Y-6091217D01*
X49062215Y-6115860D01*
X49017879Y-6142851D01*
X48975051Y-6172189D01*
X48933730Y-6203874D01*
X48893916Y-6237905D01*
X48855610Y-6274284D01*
X48819231Y-6312447D01*
X48785199Y-6352137D01*
X48753515Y-6393353D01*
X48724177Y-6436095D01*
X48697186Y-6480364D01*
X48672542Y-6526160D01*
X48650246Y-6573482D01*
X48630296Y-6622330D01*
X48612693Y-6672705D01*
X48597438Y-6724607D01*
X48584529Y-6778035D01*
X48573968Y-6832990D01*
X48565753Y-6889471D01*
X48559885Y-6947479D01*
X48556365Y-7007013D01*
X48555191Y-7068073D01*
X48555191Y-9850000D01*
X47840905Y-9850000D01*
X47840905Y-4062790D01*
X85021745Y-4062790D01*
X85021745Y-10635116D01*
G37*
D13*
%TO.C,HOLE\u002A\u002A*%
X86449210Y-15945663D02*
G75*
G03*
X84649210Y-15945663I-900000J0D01*
G01*
X84649210Y-15945663D02*
G75*
G03*
X86449210Y-15945663I900000J0D01*
G01*
X15316265Y-15945663D02*
G75*
G03*
X13516265Y-15945663I-900000J0D01*
G01*
X13516265Y-15945663D02*
G75*
G03*
X15316265Y-15945663I900000J0D01*
G01*
X15316265Y1664337D02*
G75*
G03*
X13516265Y1664337I-900000J0D01*
G01*
X13516265Y1664337D02*
G75*
G03*
X15316265Y1664337I900000J0D01*
G01*
X86449210Y1664337D02*
G75*
G03*
X84649210Y1664337I-900000J0D01*
G01*
X84649210Y1664337D02*
G75*
G03*
X86449210Y1664337I900000J0D01*
G01*
D14*
%TO.C,J2*%
X15741265Y334337D02*
X15741265Y2994337D01*
X81841265Y334337D02*
X15741265Y334337D01*
X81841265Y334337D02*
X81841265Y2994337D01*
X83111265Y334337D02*
X84441265Y334337D01*
X84441265Y334337D02*
X84441265Y1664337D01*
X81841265Y2994337D02*
X15741265Y2994337D01*
%TO.C,J4*%
X15741265Y-17275663D02*
X15741265Y-14615663D01*
X81841265Y-17275663D02*
X15741265Y-17275663D01*
X81841265Y-17275663D02*
X81841265Y-14615663D01*
X83111265Y-17275663D02*
X84441265Y-17275663D01*
X84441265Y-17275663D02*
X84441265Y-15945663D01*
X81841265Y-14615663D02*
X15741265Y-14615663D01*
%TD*%
%LPC*%
D15*
%TO.C,HOLE\u002A\u002A*%
X85549210Y-15945663D03*
%TD*%
%TO.C,HOLE\u002A\u002A*%
X14416265Y-15945663D03*
%TD*%
D16*
%TO.C,J3*%
X4189210Y1664337D03*
D17*
X6729210Y1664337D03*
X9269210Y1664337D03*
X11809210Y1664337D03*
%TD*%
D18*
%TO.C,USB1*%
X5708210Y-4242831D03*
X5708210Y-10022831D03*
D19*
X6208210Y-2807831D03*
X6208210Y-11457831D03*
D20*
X2008210Y-2807831D03*
X2008210Y-11457831D03*
%TD*%
D15*
%TO.C,HOLE\u002A\u002A*%
X14416265Y1664337D03*
%TD*%
D16*
%TO.C,J1*%
X6739210Y-15945663D03*
D17*
X9279210Y-15945663D03*
X11819210Y-15945663D03*
%TD*%
D15*
%TO.C,HOLE\u002A\u002A*%
X85549210Y1664337D03*
%TD*%
D16*
%TO.C,J2*%
X83111265Y1664337D03*
D17*
X80571265Y1664337D03*
X78031265Y1664337D03*
X75491265Y1664337D03*
X72951265Y1664337D03*
X70411265Y1664337D03*
X67871265Y1664337D03*
X65331265Y1664337D03*
X62791265Y1664337D03*
X60251265Y1664337D03*
X57711265Y1664337D03*
X55171265Y1664337D03*
X52631265Y1664337D03*
X50091265Y1664337D03*
X47551265Y1664337D03*
X45011265Y1664337D03*
X42471265Y1664337D03*
X39931265Y1664337D03*
X37391265Y1664337D03*
X34851265Y1664337D03*
X32311265Y1664337D03*
X29771265Y1664337D03*
X27231265Y1664337D03*
X24691265Y1664337D03*
X22151265Y1664337D03*
X19611265Y1664337D03*
X17071265Y1664337D03*
%TD*%
D16*
%TO.C,J4*%
X83111265Y-15945663D03*
D17*
X80571265Y-15945663D03*
X78031265Y-15945663D03*
X75491265Y-15945663D03*
X72951265Y-15945663D03*
X70411265Y-15945663D03*
X67871265Y-15945663D03*
X65331265Y-15945663D03*
X62791265Y-15945663D03*
X60251265Y-15945663D03*
X57711265Y-15945663D03*
X55171265Y-15945663D03*
X52631265Y-15945663D03*
X50091265Y-15945663D03*
X47551265Y-15945663D03*
X45011265Y-15945663D03*
X42471265Y-15945663D03*
X39931265Y-15945663D03*
X37391265Y-15945663D03*
X34851265Y-15945663D03*
X32311265Y-15945663D03*
X29771265Y-15945663D03*
X27231265Y-15945663D03*
X24691265Y-15945663D03*
X22151265Y-15945663D03*
X19611265Y-15945663D03*
X17071265Y-15945663D03*
%TD*%
%LPD*%
M02*
