%TF.GenerationSoftware,KiCad,Pcbnew,7.0.11*%
%TF.CreationDate,2024-03-30T01:50:56+08:00*%
%TF.ProjectId,UINIO-MCU-ESP32S3,55494e49-4f2d-44d4-9355-2d4553503332,Version 3.3.0*%
%TF.SameCoordinates,PX629df6ePY56b2a99*%
%TF.FileFunction,Legend,Bot*%
%TF.FilePolarity,Positive*%
%FSLAX46Y46*%
G04 Gerber Fmt 4.6, Leading zero omitted, Abs format (unit mm)*
G04 Created by KiCad (PCBNEW 7.0.11) date 2024-03-30 01:50:56*
%MOMM*%
%LPD*%
G01*
G04 APERTURE LIST*
%ADD10C,0.300000*%
%ADD11C,0.187500*%
%ADD12C,0.100000*%
%ADD13C,0.120000*%
%ADD14C,1.200000*%
%ADD15O,1.700000X1.700000*%
%ADD16R,1.700000X1.700000*%
%ADD17O,1.900000X1.000000*%
%ADD18O,2.100000X1.000000*%
%ADD19C,0.650000*%
G04 APERTURE END LIST*
D10*
G36*
X54792893Y-7049387D02*
G01*
X54828435Y-7057589D01*
X54865173Y-7075530D01*
X54893367Y-7102016D01*
X54913018Y-7137045D01*
X54922587Y-7171220D01*
X54926688Y-7210863D01*
X54926859Y-7221628D01*
X54926859Y-8234552D01*
X54924125Y-8275356D01*
X54915923Y-8310719D01*
X54897981Y-8347273D01*
X54871495Y-8375325D01*
X54836466Y-8394877D01*
X54802291Y-8404398D01*
X54762648Y-8408478D01*
X54751883Y-8408648D01*
X54144305Y-8408648D01*
X54103501Y-8405928D01*
X54068138Y-8397767D01*
X54031584Y-8379916D01*
X54003532Y-8353563D01*
X53983980Y-8318710D01*
X53974459Y-8284707D01*
X53970378Y-8245263D01*
X53970208Y-8234552D01*
X53970208Y-7221628D01*
X53972929Y-7180618D01*
X53981089Y-7145076D01*
X53998941Y-7108338D01*
X54025294Y-7080144D01*
X54060147Y-7060494D01*
X54094150Y-7050925D01*
X54133594Y-7046824D01*
X54144305Y-7046653D01*
X54751883Y-7046653D01*
X54792893Y-7049387D01*
G37*
G36*
X62334846Y-6213761D02*
G01*
X62379333Y-6221018D01*
X62418967Y-6233112D01*
X62453749Y-6250044D01*
X62483677Y-6271814D01*
X62508751Y-6298421D01*
X62528973Y-6329866D01*
X62544341Y-6366149D01*
X62554857Y-6407270D01*
X62560519Y-6453228D01*
X62561597Y-6486555D01*
X62561597Y-8107937D01*
X62559170Y-8157120D01*
X62551891Y-8201466D01*
X62539758Y-8240974D01*
X62522772Y-8275645D01*
X62500932Y-8305477D01*
X62474240Y-8330472D01*
X62442694Y-8350629D01*
X62406295Y-8365949D01*
X62365043Y-8376430D01*
X62318938Y-8382074D01*
X62285505Y-8383150D01*
X61424695Y-8383150D01*
X61375355Y-8380731D01*
X61330867Y-8373474D01*
X61291233Y-8361380D01*
X61256452Y-8344448D01*
X61226524Y-8322678D01*
X61201449Y-8296070D01*
X61181228Y-8264625D01*
X61165859Y-8228342D01*
X61155344Y-8187222D01*
X61149682Y-8141263D01*
X61148603Y-8107937D01*
X61148603Y-6486555D01*
X61151030Y-6437371D01*
X61158310Y-6393026D01*
X61170443Y-6353518D01*
X61187429Y-6318847D01*
X61209268Y-6289015D01*
X61235961Y-6264020D01*
X61267506Y-6243862D01*
X61303905Y-6228543D01*
X61345157Y-6218061D01*
X61391262Y-6212417D01*
X61424695Y-6211342D01*
X62285505Y-6211342D01*
X62334846Y-6213761D01*
G37*
G36*
X74616358Y-9663283D02*
G01*
X47846153Y-9663283D01*
X47846153Y-9098000D01*
X48360439Y-9098000D01*
X49303021Y-9098000D01*
X49303021Y-7246248D01*
X49307228Y-7208278D01*
X49319851Y-7174601D01*
X49340888Y-7145217D01*
X49346105Y-7139856D01*
X49374630Y-7117599D01*
X49407448Y-7103586D01*
X49444560Y-7097815D01*
X49452497Y-7097651D01*
X49477996Y-7097651D01*
X49520964Y-7098477D01*
X49565786Y-7100958D01*
X49612463Y-7105093D01*
X49660995Y-7110881D01*
X49711382Y-7118323D01*
X49763623Y-7127419D01*
X49799481Y-7134401D01*
X49836163Y-7142119D01*
X49873670Y-7150572D01*
X49912001Y-7159760D01*
X49951156Y-7169682D01*
X49991135Y-7180340D01*
X50031939Y-7191733D01*
X50031939Y-9098000D01*
X50974521Y-9098000D01*
X50974521Y-7246248D01*
X50978643Y-7208278D01*
X50991007Y-7174601D01*
X51011615Y-7145217D01*
X51016726Y-7139856D01*
X51045337Y-7117599D01*
X51078413Y-7103586D01*
X51115954Y-7097815D01*
X51123998Y-7097651D01*
X51149497Y-7097651D01*
X51192464Y-7098477D01*
X51237287Y-7100958D01*
X51283964Y-7105093D01*
X51332496Y-7110881D01*
X51382882Y-7118323D01*
X51435123Y-7127419D01*
X51470981Y-7134401D01*
X51507663Y-7142119D01*
X51545170Y-7150572D01*
X51583501Y-7159760D01*
X51622656Y-7169682D01*
X51662636Y-7180340D01*
X51703439Y-7191733D01*
X51703439Y-9098000D01*
X52646021Y-9098000D01*
X52646021Y-8310170D01*
X53027626Y-8310170D01*
X53028499Y-8358427D01*
X53031116Y-8405379D01*
X53035478Y-8451025D01*
X53041585Y-8495367D01*
X53049437Y-8538403D01*
X53059033Y-8580134D01*
X53070374Y-8620560D01*
X53083460Y-8659681D01*
X53098291Y-8697497D01*
X53114867Y-8734007D01*
X53133187Y-8769213D01*
X53153253Y-8803113D01*
X53175063Y-8835708D01*
X53198618Y-8866998D01*
X53223917Y-8896982D01*
X53250962Y-8925662D01*
X53279535Y-8952706D01*
X53309420Y-8978006D01*
X53340617Y-9001561D01*
X53373126Y-9023371D01*
X53406947Y-9043436D01*
X53442081Y-9061757D01*
X53478526Y-9078333D01*
X53516283Y-9093163D01*
X53555352Y-9106250D01*
X53595734Y-9117591D01*
X53637427Y-9127187D01*
X53680433Y-9135039D01*
X53724750Y-9141146D01*
X53770380Y-9145508D01*
X53817321Y-9148125D01*
X53865575Y-9148997D01*
X55030613Y-9148997D01*
X55078870Y-9148125D01*
X55125822Y-9145508D01*
X55171469Y-9141146D01*
X55215810Y-9135039D01*
X55258847Y-9127187D01*
X55300578Y-9117591D01*
X55341004Y-9106250D01*
X55380125Y-9093163D01*
X55417940Y-9078333D01*
X55454451Y-9061757D01*
X55489656Y-9043436D01*
X55523556Y-9023371D01*
X55556151Y-9001561D01*
X55587441Y-8978006D01*
X55617426Y-8952706D01*
X55646105Y-8925662D01*
X55673150Y-8896982D01*
X55698449Y-8866998D01*
X55722004Y-8835708D01*
X55743814Y-8803113D01*
X55763880Y-8769213D01*
X55782200Y-8734007D01*
X55798776Y-8697497D01*
X55813607Y-8659681D01*
X55826693Y-8620560D01*
X55838034Y-8580134D01*
X55847631Y-8538403D01*
X55855482Y-8495367D01*
X55861589Y-8451025D01*
X55865951Y-8405379D01*
X55868568Y-8358427D01*
X55869441Y-8310170D01*
X55869441Y-7145131D01*
X55868568Y-7096878D01*
X55865951Y-7049936D01*
X55861589Y-7004307D01*
X55855482Y-6959989D01*
X55847631Y-6916984D01*
X55838034Y-6875290D01*
X55826693Y-6834909D01*
X55813607Y-6795840D01*
X55798776Y-6758082D01*
X55782200Y-6721637D01*
X55763880Y-6686504D01*
X55743814Y-6652683D01*
X55722004Y-6620174D01*
X55698449Y-6588977D01*
X55673150Y-6559092D01*
X55646105Y-6530519D01*
X55617426Y-6503474D01*
X55587441Y-6478174D01*
X55556151Y-6454619D01*
X55523556Y-6432809D01*
X55489656Y-6412744D01*
X55454451Y-6394424D01*
X55417940Y-6377848D01*
X55380125Y-6363017D01*
X55363040Y-6357302D01*
X56153446Y-6357302D01*
X56153446Y-7097651D01*
X57523356Y-7097651D01*
X57564366Y-7100371D01*
X57599907Y-7108532D01*
X57636645Y-7126383D01*
X57664840Y-7152736D01*
X57684490Y-7187589D01*
X57694059Y-7221592D01*
X57698160Y-7261036D01*
X57698331Y-7271747D01*
X57698331Y-8259172D01*
X57694210Y-8297606D01*
X57681845Y-8331575D01*
X57661237Y-8361078D01*
X57656126Y-8366443D01*
X57627137Y-8388700D01*
X57594027Y-8402713D01*
X57556796Y-8408484D01*
X57548855Y-8408648D01*
X57490132Y-8408343D01*
X57427611Y-8407426D01*
X57361291Y-8405897D01*
X57291172Y-8403758D01*
X57254688Y-8402458D01*
X57217255Y-8401006D01*
X57178872Y-8399402D01*
X57139539Y-8397644D01*
X57099256Y-8395733D01*
X57058024Y-8393670D01*
X57015842Y-8391454D01*
X56972710Y-8389085D01*
X56928629Y-8386563D01*
X56883598Y-8383888D01*
X56837617Y-8381060D01*
X56790687Y-8378080D01*
X56742807Y-8374947D01*
X56693977Y-8371661D01*
X56644197Y-8368222D01*
X56593468Y-8364630D01*
X56541789Y-8360885D01*
X56489161Y-8356988D01*
X56435583Y-8352937D01*
X56381055Y-8348734D01*
X56325577Y-8344378D01*
X56269150Y-8339869D01*
X56211773Y-8335208D01*
X56153446Y-8330393D01*
X56153446Y-9044364D01*
X56214040Y-9050801D01*
X56274151Y-9057034D01*
X56333779Y-9063063D01*
X56392925Y-9068887D01*
X56451588Y-9074507D01*
X56509769Y-9079923D01*
X56567467Y-9085134D01*
X56624682Y-9090141D01*
X56681415Y-9094944D01*
X56737666Y-9099542D01*
X56793433Y-9103935D01*
X56848719Y-9108125D01*
X56903521Y-9112110D01*
X56957841Y-9115891D01*
X57011679Y-9119467D01*
X57065034Y-9122839D01*
X57117906Y-9126007D01*
X57170296Y-9128970D01*
X57222203Y-9131729D01*
X57273628Y-9134283D01*
X57324570Y-9136633D01*
X57375030Y-9138779D01*
X57425007Y-9140721D01*
X57474501Y-9142458D01*
X57523513Y-9143991D01*
X57572042Y-9145319D01*
X57620089Y-9146443D01*
X57667653Y-9147363D01*
X57714734Y-9148078D01*
X57761333Y-9148589D01*
X57807450Y-9148895D01*
X57853083Y-9148997D01*
X57896944Y-9148152D01*
X57939719Y-9145618D01*
X57981409Y-9141393D01*
X58022014Y-9135479D01*
X58061533Y-9127874D01*
X58099967Y-9118580D01*
X58137316Y-9107596D01*
X58173579Y-9094922D01*
X58208757Y-9080558D01*
X58242849Y-9064505D01*
X58275856Y-9046761D01*
X58307778Y-9027328D01*
X58338615Y-9006205D01*
X58368366Y-8983392D01*
X58397031Y-8958889D01*
X58424612Y-8932696D01*
X58450804Y-8905116D01*
X58475307Y-8876450D01*
X58498120Y-8846699D01*
X58519244Y-8815862D01*
X58538677Y-8783941D01*
X58556420Y-8750933D01*
X58572474Y-8716841D01*
X58586838Y-8681663D01*
X58599512Y-8645400D01*
X58610496Y-8608051D01*
X58619790Y-8569617D01*
X58627394Y-8530098D01*
X58633309Y-8489494D01*
X58637533Y-8447804D01*
X58640068Y-8405028D01*
X58640913Y-8361168D01*
X58640913Y-8282033D01*
X58932832Y-8282033D01*
X58932832Y-9098000D01*
X59900913Y-9098000D01*
X59900913Y-8282033D01*
X58932832Y-8282033D01*
X58640913Y-8282033D01*
X58640913Y-8107937D01*
X60181402Y-8107937D01*
X60182374Y-8174607D01*
X60185290Y-8238990D01*
X60190150Y-8301085D01*
X60196954Y-8360893D01*
X60205702Y-8418413D01*
X60216394Y-8473646D01*
X60229030Y-8526591D01*
X60243610Y-8577249D01*
X60260135Y-8625620D01*
X60278603Y-8671703D01*
X60299015Y-8715498D01*
X60321371Y-8757006D01*
X60345671Y-8796226D01*
X60371916Y-8833159D01*
X60400104Y-8867805D01*
X60430236Y-8900163D01*
X60462491Y-8930295D01*
X60497047Y-8958483D01*
X60533905Y-8984728D01*
X60573063Y-9009028D01*
X60614523Y-9031384D01*
X60658284Y-9051796D01*
X60704347Y-9070265D01*
X60752710Y-9086789D01*
X60803375Y-9101369D01*
X60856341Y-9114005D01*
X60911608Y-9124697D01*
X60969176Y-9133445D01*
X61029046Y-9140249D01*
X61091217Y-9145109D01*
X61155689Y-9148025D01*
X61222462Y-9148997D01*
X62488617Y-9148997D01*
X62555288Y-9148025D01*
X62619670Y-9145109D01*
X62681766Y-9140249D01*
X62741574Y-9133445D01*
X62799094Y-9124697D01*
X62854327Y-9114005D01*
X62907272Y-9101369D01*
X62957930Y-9086789D01*
X63006300Y-9070265D01*
X63052383Y-9051796D01*
X63096179Y-9031384D01*
X63137687Y-9009028D01*
X63176907Y-8984728D01*
X63213840Y-8958483D01*
X63248485Y-8930295D01*
X63280843Y-8900163D01*
X63310976Y-8867805D01*
X63339164Y-8833159D01*
X63365408Y-8796226D01*
X63389709Y-8757006D01*
X63412065Y-8715498D01*
X63432477Y-8671703D01*
X63450945Y-8625620D01*
X63467469Y-8577249D01*
X63482050Y-8526591D01*
X63494686Y-8473646D01*
X63505378Y-8418413D01*
X63514126Y-8360893D01*
X63520930Y-8301085D01*
X63525790Y-8238990D01*
X63528706Y-8174607D01*
X63529678Y-8107937D01*
X63529678Y-6486555D01*
X63528706Y-6419888D01*
X63525790Y-6355516D01*
X63520930Y-6293438D01*
X63514126Y-6233654D01*
X63505378Y-6176164D01*
X63494686Y-6120969D01*
X63482050Y-6068069D01*
X63467469Y-6017462D01*
X63450945Y-5969150D01*
X63432477Y-5923133D01*
X63412065Y-5879409D01*
X63389709Y-5837980D01*
X63365408Y-5798846D01*
X63339164Y-5762006D01*
X63310976Y-5727460D01*
X63280843Y-5695208D01*
X63248485Y-5664969D01*
X63213840Y-5636681D01*
X63176907Y-5610344D01*
X63137687Y-5585958D01*
X63096179Y-5563523D01*
X63052383Y-5543039D01*
X63006300Y-5524505D01*
X62957930Y-5507923D01*
X62918354Y-5496492D01*
X63814563Y-5496492D01*
X63814563Y-6261461D01*
X64270027Y-6261461D01*
X64270027Y-8333031D01*
X63814563Y-8333031D01*
X63814563Y-9098000D01*
X65693572Y-9098000D01*
X65974060Y-9098000D01*
X66916642Y-9098000D01*
X66916642Y-7246248D01*
X66920764Y-7208278D01*
X66933129Y-7174601D01*
X66953737Y-7145217D01*
X66958848Y-7139856D01*
X66987372Y-7117599D01*
X67020191Y-7103586D01*
X67057302Y-7097815D01*
X67065240Y-7097651D01*
X67242853Y-7097651D01*
X67292768Y-7098477D01*
X67343595Y-7100958D01*
X67395334Y-7105093D01*
X67430334Y-7108768D01*
X67465738Y-7113178D01*
X67501548Y-7118323D01*
X67537763Y-7124203D01*
X67574383Y-7130818D01*
X67611409Y-7138168D01*
X67648840Y-7146254D01*
X67686676Y-7155074D01*
X67724918Y-7164629D01*
X67763565Y-7174919D01*
X67802617Y-7185945D01*
X67822295Y-7191733D01*
X67822295Y-9098000D01*
X68764877Y-9098000D01*
X68764877Y-6458418D01*
X69205393Y-6458418D01*
X69205393Y-9098000D01*
X70147975Y-9098000D01*
X70147975Y-7198767D01*
X70527822Y-7198767D01*
X70527822Y-6458418D01*
X69205393Y-6458418D01*
X68764877Y-6458418D01*
X68764877Y-6357302D01*
X67928687Y-6357302D01*
X67882086Y-6592068D01*
X67842925Y-6567212D01*
X67802930Y-6543423D01*
X67762101Y-6520700D01*
X67720436Y-6499043D01*
X67677938Y-6478453D01*
X67634604Y-6458930D01*
X67590436Y-6440473D01*
X67545433Y-6423082D01*
X67499596Y-6406758D01*
X67452924Y-6391501D01*
X67421346Y-6381921D01*
X67374223Y-6368565D01*
X67328476Y-6356522D01*
X67284104Y-6345793D01*
X67241108Y-6336378D01*
X67199488Y-6328276D01*
X67159243Y-6321488D01*
X67120374Y-6316014D01*
X67082880Y-6311854D01*
X67046762Y-6309008D01*
X67000745Y-6307256D01*
X66989622Y-6307183D01*
X66761890Y-6307183D01*
X66717926Y-6308028D01*
X66675062Y-6310563D01*
X66633296Y-6314787D01*
X66592630Y-6320702D01*
X66553063Y-6328306D01*
X66514594Y-6337600D01*
X66477225Y-6348584D01*
X66440955Y-6361258D01*
X66405784Y-6375622D01*
X66371712Y-6391676D01*
X66338739Y-6409419D01*
X66306866Y-6428853D01*
X66276091Y-6449976D01*
X66246416Y-6472789D01*
X66217839Y-6497292D01*
X66190362Y-6523484D01*
X66164169Y-6550962D01*
X66139666Y-6579538D01*
X66116853Y-6609214D01*
X66095730Y-6639988D01*
X66076297Y-6671862D01*
X66058553Y-6704835D01*
X66042500Y-6738907D01*
X66028136Y-6774078D01*
X66015462Y-6810348D01*
X66004478Y-6847717D01*
X65995184Y-6886185D01*
X65987579Y-6925752D01*
X65981665Y-6966419D01*
X65977440Y-7008184D01*
X65974905Y-7051049D01*
X65974060Y-7095013D01*
X65974060Y-9098000D01*
X65693572Y-9098000D01*
X65693572Y-8333031D01*
X65238108Y-8333031D01*
X65238108Y-6261461D01*
X65693572Y-6261461D01*
X65693572Y-5496492D01*
X63814563Y-5496492D01*
X62918354Y-5496492D01*
X62907272Y-5493291D01*
X62854327Y-5480610D01*
X62799094Y-5469880D01*
X62741574Y-5461101D01*
X62681766Y-5454273D01*
X62619670Y-5449396D01*
X62555288Y-5446470D01*
X62488617Y-5445494D01*
X69205393Y-5445494D01*
X69205393Y-6211342D01*
X70147975Y-6211342D01*
X70147975Y-5496492D01*
X70855791Y-5496492D01*
X70855791Y-8107937D01*
X70856763Y-8174607D01*
X70859679Y-8238990D01*
X70864539Y-8301085D01*
X70871343Y-8360893D01*
X70880091Y-8418413D01*
X70890783Y-8473646D01*
X70903420Y-8526591D01*
X70918000Y-8577249D01*
X70934524Y-8625620D01*
X70952992Y-8671703D01*
X70973404Y-8715498D01*
X70995761Y-8757006D01*
X71020061Y-8796226D01*
X71046305Y-8833159D01*
X71074493Y-8867805D01*
X71104626Y-8900163D01*
X71136881Y-8930295D01*
X71171437Y-8958483D01*
X71208294Y-8984728D01*
X71247453Y-9009028D01*
X71288913Y-9031384D01*
X71332674Y-9051796D01*
X71378736Y-9070265D01*
X71427100Y-9086789D01*
X71477764Y-9101369D01*
X71530730Y-9114005D01*
X71585997Y-9124697D01*
X71643566Y-9133445D01*
X71703435Y-9140249D01*
X71765606Y-9145109D01*
X71830078Y-9148025D01*
X71896852Y-9148997D01*
X73061011Y-9148997D01*
X73127784Y-9148025D01*
X73192256Y-9145109D01*
X73254427Y-9140249D01*
X73314297Y-9133445D01*
X73371865Y-9124697D01*
X73427132Y-9114005D01*
X73480098Y-9101369D01*
X73530763Y-9086789D01*
X73579127Y-9070265D01*
X73625189Y-9051796D01*
X73668950Y-9031384D01*
X73710410Y-9009028D01*
X73749569Y-8984728D01*
X73786426Y-8958483D01*
X73820982Y-8930295D01*
X73853237Y-8900163D01*
X73883369Y-8867805D01*
X73911558Y-8833159D01*
X73937802Y-8796226D01*
X73962102Y-8757006D01*
X73984458Y-8715498D01*
X74004871Y-8671703D01*
X74023339Y-8625620D01*
X74039863Y-8577249D01*
X74054443Y-8526591D01*
X74067079Y-8473646D01*
X74077771Y-8418413D01*
X74086519Y-8360893D01*
X74093324Y-8301085D01*
X74098184Y-8238990D01*
X74101100Y-8174607D01*
X74102072Y-8107937D01*
X74102072Y-5496492D01*
X73134870Y-5496492D01*
X73134870Y-8107937D01*
X73132443Y-8157120D01*
X73125164Y-8201466D01*
X73113031Y-8240974D01*
X73096044Y-8275645D01*
X73074205Y-8305477D01*
X73047513Y-8330472D01*
X73015967Y-8350629D01*
X72979568Y-8365949D01*
X72938316Y-8376430D01*
X72892211Y-8382074D01*
X72858778Y-8383150D01*
X72099085Y-8383150D01*
X72049744Y-8380731D01*
X72005257Y-8373474D01*
X71965622Y-8361380D01*
X71930841Y-8344448D01*
X71900913Y-8322678D01*
X71875839Y-8296070D01*
X71855617Y-8264625D01*
X71840249Y-8228342D01*
X71829733Y-8187222D01*
X71824071Y-8141263D01*
X71822993Y-8107937D01*
X71822993Y-5496492D01*
X70855791Y-5496492D01*
X70147975Y-5496492D01*
X70147975Y-5445494D01*
X69205393Y-5445494D01*
X62488617Y-5445494D01*
X61222462Y-5445494D01*
X61155689Y-5446470D01*
X61091217Y-5449396D01*
X61029046Y-5454273D01*
X60969176Y-5461101D01*
X60911608Y-5469880D01*
X60856341Y-5480610D01*
X60803375Y-5493291D01*
X60752710Y-5507923D01*
X60704347Y-5524505D01*
X60658284Y-5543039D01*
X60614523Y-5563523D01*
X60573063Y-5585958D01*
X60533905Y-5610344D01*
X60497047Y-5636681D01*
X60462491Y-5664969D01*
X60430236Y-5695208D01*
X60400104Y-5727460D01*
X60371916Y-5762006D01*
X60345671Y-5798846D01*
X60321371Y-5837980D01*
X60299015Y-5879409D01*
X60278603Y-5923133D01*
X60260135Y-5969150D01*
X60243610Y-6017462D01*
X60229030Y-6068069D01*
X60216394Y-6120969D01*
X60205702Y-6176164D01*
X60196954Y-6233654D01*
X60190150Y-6293438D01*
X60185290Y-6355516D01*
X60182374Y-6419888D01*
X60181402Y-6486555D01*
X60181402Y-8107937D01*
X58640913Y-8107937D01*
X58640913Y-7196129D01*
X58640041Y-7147876D01*
X58637424Y-7100934D01*
X58633062Y-7055305D01*
X58626955Y-7010987D01*
X58619103Y-6967982D01*
X58609507Y-6926288D01*
X58598165Y-6885907D01*
X58585079Y-6846838D01*
X58570248Y-6809080D01*
X58553673Y-6772635D01*
X58535352Y-6737502D01*
X58515287Y-6703681D01*
X58493477Y-6671172D01*
X58469922Y-6639975D01*
X58444622Y-6610090D01*
X58417578Y-6581517D01*
X58388898Y-6554366D01*
X58358913Y-6528966D01*
X58327624Y-6505319D01*
X58295029Y-6483423D01*
X58261129Y-6463278D01*
X58225923Y-6444886D01*
X58189413Y-6428245D01*
X58151597Y-6413355D01*
X58112476Y-6400218D01*
X58072050Y-6388832D01*
X58030319Y-6379198D01*
X57987283Y-6371315D01*
X57942941Y-6365184D01*
X57897294Y-6360805D01*
X57850343Y-6358178D01*
X57802086Y-6357302D01*
X56153446Y-6357302D01*
X55363040Y-6357302D01*
X55341004Y-6349931D01*
X55300578Y-6338590D01*
X55258847Y-6328993D01*
X55215810Y-6321142D01*
X55171469Y-6315035D01*
X55125822Y-6310673D01*
X55078870Y-6308055D01*
X55030613Y-6307183D01*
X53865575Y-6307183D01*
X53817321Y-6308055D01*
X53770380Y-6310673D01*
X53724750Y-6315035D01*
X53680433Y-6321142D01*
X53637427Y-6328993D01*
X53595734Y-6338590D01*
X53555352Y-6349931D01*
X53516283Y-6363017D01*
X53478526Y-6377848D01*
X53442081Y-6394424D01*
X53406947Y-6412744D01*
X53373126Y-6432809D01*
X53340617Y-6454619D01*
X53309420Y-6478174D01*
X53279535Y-6503474D01*
X53250962Y-6530519D01*
X53223917Y-6559092D01*
X53198618Y-6588977D01*
X53175063Y-6620174D01*
X53153253Y-6652683D01*
X53133187Y-6686504D01*
X53114867Y-6721637D01*
X53098291Y-6758082D01*
X53083460Y-6795840D01*
X53070374Y-6834909D01*
X53059033Y-6875290D01*
X53049437Y-6916984D01*
X53041585Y-6959989D01*
X53035478Y-7004307D01*
X53031116Y-7049936D01*
X53028499Y-7096878D01*
X53027626Y-7145131D01*
X53027626Y-8234552D01*
X53027626Y-8310170D01*
X52646021Y-8310170D01*
X52646021Y-6357302D01*
X51809832Y-6357302D01*
X51763230Y-6592068D01*
X51724070Y-6567212D01*
X51684075Y-6543423D01*
X51643245Y-6520700D01*
X51601581Y-6499043D01*
X51559082Y-6478453D01*
X51515749Y-6458930D01*
X51471581Y-6440473D01*
X51426578Y-6423082D01*
X51380741Y-6406758D01*
X51334069Y-6391501D01*
X51302490Y-6381921D01*
X51255368Y-6368565D01*
X51209620Y-6356522D01*
X51165249Y-6345793D01*
X51122253Y-6336378D01*
X51080632Y-6328276D01*
X51040388Y-6321488D01*
X51001518Y-6316014D01*
X50964025Y-6311854D01*
X50927907Y-6309008D01*
X50881889Y-6307256D01*
X50870767Y-6307183D01*
X50819769Y-6307183D01*
X50767603Y-6308327D01*
X50717059Y-6311758D01*
X50668135Y-6317477D01*
X50620833Y-6325483D01*
X50575152Y-6335777D01*
X50531092Y-6348358D01*
X50488653Y-6363226D01*
X50447836Y-6380383D01*
X50408639Y-6399826D01*
X50371064Y-6421557D01*
X50335110Y-6445576D01*
X50300777Y-6471882D01*
X50268065Y-6500476D01*
X50236975Y-6531357D01*
X50207505Y-6564525D01*
X50179657Y-6599981D01*
X50138905Y-6573562D01*
X50097101Y-6548379D01*
X50054247Y-6524432D01*
X50010342Y-6501722D01*
X49965386Y-6480249D01*
X49919378Y-6460012D01*
X49872320Y-6441011D01*
X49824210Y-6423247D01*
X49775050Y-6406720D01*
X49724839Y-6391428D01*
X49690781Y-6381921D01*
X49656609Y-6372871D01*
X49606215Y-6360390D01*
X49556856Y-6349223D01*
X49508533Y-6339370D01*
X49461245Y-6330831D01*
X49414993Y-6323605D01*
X49369777Y-6317693D01*
X49325596Y-6313095D01*
X49282450Y-6309811D01*
X49240341Y-6307840D01*
X49199266Y-6307183D01*
X49148268Y-6307183D01*
X49104408Y-6308028D01*
X49061632Y-6310563D01*
X49019942Y-6314787D01*
X48979338Y-6320702D01*
X48939819Y-6328306D01*
X48901385Y-6337600D01*
X48864036Y-6348584D01*
X48827773Y-6361258D01*
X48792595Y-6375622D01*
X48758503Y-6391676D01*
X48725495Y-6409419D01*
X48693574Y-6428853D01*
X48662737Y-6449976D01*
X48632986Y-6472789D01*
X48604320Y-6497292D01*
X48576740Y-6523484D01*
X48550547Y-6550962D01*
X48526044Y-6579538D01*
X48503231Y-6609214D01*
X48482108Y-6639988D01*
X48462675Y-6671862D01*
X48444931Y-6704835D01*
X48428878Y-6738907D01*
X48414514Y-6774078D01*
X48401840Y-6810348D01*
X48390856Y-6847717D01*
X48381562Y-6886185D01*
X48373958Y-6925752D01*
X48368043Y-6966419D01*
X48363818Y-7008184D01*
X48361284Y-7051049D01*
X48360439Y-7095013D01*
X48360439Y-9098000D01*
X47846153Y-9098000D01*
X47846153Y-4931208D01*
X74616358Y-4931208D01*
X74616358Y-9663283D01*
G37*
D11*
G36*
X37910471Y-9191699D02*
G01*
X37551800Y-8157819D01*
X37140373Y-8157819D01*
X37699445Y-9635000D01*
X38121496Y-9635000D01*
X38680935Y-8157819D01*
X38269141Y-8157819D01*
X37910471Y-9191699D01*
G37*
G36*
X36829795Y-8495957D02*
G01*
X36848776Y-8497009D01*
X36867221Y-8498762D01*
X36885131Y-8501217D01*
X36902507Y-8504372D01*
X36919346Y-8508229D01*
X36935651Y-8512787D01*
X36951420Y-8518046D01*
X36966655Y-8524007D01*
X36981354Y-8530669D01*
X36995517Y-8538032D01*
X37009146Y-8546096D01*
X37022239Y-8554862D01*
X37034797Y-8564329D01*
X37046820Y-8574497D01*
X37058307Y-8585366D01*
X37069177Y-8596809D01*
X37079345Y-8608790D01*
X37088811Y-8621310D01*
X37097577Y-8634367D01*
X37105641Y-8647963D01*
X37113004Y-8662096D01*
X37119666Y-8676768D01*
X37125627Y-8691978D01*
X37130886Y-8707726D01*
X37135444Y-8724012D01*
X37139301Y-8740836D01*
X37142457Y-8758198D01*
X37144911Y-8776099D01*
X37146664Y-8794537D01*
X37147716Y-8813513D01*
X37148067Y-8833028D01*
X37148067Y-9339710D01*
X37147729Y-9357396D01*
X37146716Y-9374640D01*
X37145027Y-9391445D01*
X37142663Y-9407808D01*
X37139623Y-9423730D01*
X37135908Y-9439212D01*
X37131517Y-9454253D01*
X37126451Y-9468853D01*
X37120709Y-9483013D01*
X37114292Y-9496731D01*
X37107200Y-9510009D01*
X37099432Y-9522846D01*
X37090988Y-9535243D01*
X37081869Y-9547198D01*
X37072075Y-9558713D01*
X37061605Y-9569787D01*
X37050531Y-9580257D01*
X37039016Y-9590051D01*
X37027060Y-9599170D01*
X37014664Y-9607614D01*
X37001827Y-9615382D01*
X36988549Y-9622474D01*
X36974831Y-9628892D01*
X36960671Y-9634633D01*
X36946071Y-9639699D01*
X36931030Y-9644090D01*
X36915548Y-9647805D01*
X36899626Y-9650845D01*
X36883262Y-9653209D01*
X36866458Y-9654898D01*
X36849213Y-9655911D01*
X36831528Y-9656249D01*
X36810732Y-9656207D01*
X36789788Y-9656083D01*
X36768697Y-9655875D01*
X36747459Y-9655585D01*
X36726073Y-9655211D01*
X36704540Y-9654755D01*
X36682859Y-9654215D01*
X36661031Y-9653592D01*
X36639056Y-9652887D01*
X36616933Y-9652098D01*
X36594663Y-9651227D01*
X36572245Y-9650272D01*
X36549680Y-9649235D01*
X36526967Y-9648114D01*
X36504108Y-9646911D01*
X36481100Y-9645624D01*
X36457946Y-9644254D01*
X36434644Y-9642802D01*
X36411194Y-9641266D01*
X36387597Y-9639648D01*
X36363853Y-9637946D01*
X36339961Y-9636162D01*
X36315922Y-9634294D01*
X36291736Y-9632343D01*
X36267402Y-9630310D01*
X36242921Y-9628193D01*
X36218292Y-9625994D01*
X36193516Y-9623711D01*
X36168592Y-9621345D01*
X36143521Y-9618897D01*
X36118303Y-9616365D01*
X36092937Y-9613750D01*
X36092937Y-9349968D01*
X36117935Y-9351929D01*
X36142554Y-9353828D01*
X36166793Y-9355664D01*
X36190654Y-9357438D01*
X36214135Y-9359150D01*
X36237236Y-9360800D01*
X36259959Y-9362388D01*
X36282302Y-9363913D01*
X36304266Y-9365376D01*
X36325851Y-9366776D01*
X36347056Y-9368115D01*
X36367882Y-9369391D01*
X36388329Y-9370605D01*
X36408397Y-9371757D01*
X36428086Y-9372846D01*
X36447395Y-9373873D01*
X36466325Y-9374838D01*
X36484876Y-9375741D01*
X36503047Y-9376581D01*
X36520839Y-9377360D01*
X36538252Y-9378075D01*
X36555286Y-9378729D01*
X36571941Y-9379321D01*
X36588216Y-9379850D01*
X36604112Y-9380317D01*
X36619629Y-9380721D01*
X36634767Y-9381064D01*
X36649525Y-9381344D01*
X36677904Y-9381717D01*
X36704766Y-9381842D01*
X36714361Y-9381332D01*
X36730371Y-9377845D01*
X36744758Y-9371054D01*
X36757522Y-9360959D01*
X36764744Y-9352617D01*
X36772774Y-9338703D01*
X36777443Y-9323109D01*
X36778771Y-9307836D01*
X36778771Y-9223572D01*
X36050439Y-9223572D01*
X36050439Y-8959790D01*
X36419734Y-8959790D01*
X36778771Y-8959790D01*
X36778771Y-8843653D01*
X36778689Y-8838468D01*
X36776705Y-8819377D01*
X36772077Y-8802920D01*
X36764804Y-8789095D01*
X36754886Y-8777904D01*
X36742324Y-8769346D01*
X36727117Y-8763421D01*
X36709266Y-8760129D01*
X36694141Y-8759389D01*
X36504364Y-8759389D01*
X36499158Y-8759471D01*
X36479984Y-8761446D01*
X36463454Y-8766054D01*
X36449570Y-8773296D01*
X36438330Y-8783170D01*
X36429735Y-8795678D01*
X36423784Y-8810819D01*
X36420478Y-8828594D01*
X36419734Y-8843653D01*
X36419734Y-8959790D01*
X36050439Y-8959790D01*
X36050439Y-8833028D01*
X36050790Y-8813513D01*
X36051842Y-8794537D01*
X36053595Y-8776099D01*
X36056049Y-8758198D01*
X36059205Y-8740836D01*
X36063062Y-8724012D01*
X36067620Y-8707726D01*
X36072879Y-8691978D01*
X36078840Y-8676768D01*
X36085501Y-8662096D01*
X36092864Y-8647963D01*
X36100929Y-8634367D01*
X36109694Y-8621310D01*
X36119161Y-8608790D01*
X36129329Y-8596809D01*
X36140198Y-8585366D01*
X36151686Y-8574497D01*
X36163709Y-8564329D01*
X36176267Y-8554862D01*
X36189360Y-8546096D01*
X36202988Y-8538032D01*
X36217152Y-8530669D01*
X36231851Y-8524007D01*
X36247085Y-8518046D01*
X36262855Y-8512787D01*
X36279159Y-8508229D01*
X36295999Y-8504372D01*
X36313374Y-8501217D01*
X36331285Y-8498762D01*
X36349730Y-8497009D01*
X36368711Y-8495957D01*
X36388227Y-8495607D01*
X36810279Y-8495607D01*
X36829795Y-8495957D01*
G37*
G36*
X35224288Y-8822404D02*
G01*
X35240944Y-8822651D01*
X35257667Y-8823394D01*
X35274455Y-8824632D01*
X35291309Y-8826365D01*
X35308230Y-8828593D01*
X35325215Y-8831317D01*
X35342267Y-8834535D01*
X35359385Y-8838249D01*
X35376568Y-8842458D01*
X35393817Y-8847162D01*
X35411132Y-8852361D01*
X35428513Y-8858055D01*
X35445960Y-8864245D01*
X35463472Y-8870930D01*
X35481050Y-8878110D01*
X35498695Y-8885785D01*
X35498695Y-9635000D01*
X35867990Y-9635000D01*
X35867990Y-8516489D01*
X35540826Y-8516489D01*
X35519944Y-8653876D01*
X35508570Y-8644139D01*
X35497165Y-8634711D01*
X35474257Y-8616782D01*
X35451220Y-8600089D01*
X35428055Y-8584633D01*
X35404761Y-8570414D01*
X35381338Y-8557431D01*
X35357786Y-8545684D01*
X35334105Y-8535174D01*
X35310296Y-8525900D01*
X35286358Y-8517863D01*
X35262291Y-8511063D01*
X35238095Y-8505498D01*
X35213771Y-8501171D01*
X35189317Y-8498080D01*
X35164735Y-8496225D01*
X35140024Y-8495607D01*
X35045136Y-8495607D01*
X35045136Y-8822404D01*
X35224288Y-8822404D01*
G37*
G36*
X34944385Y-9339710D02*
G01*
X34917795Y-9341648D01*
X34891559Y-9343525D01*
X34865677Y-9345341D01*
X34840149Y-9347094D01*
X34814975Y-9348787D01*
X34790156Y-9350417D01*
X34765691Y-9351987D01*
X34741580Y-9353494D01*
X34717823Y-9354940D01*
X34694421Y-9356325D01*
X34671372Y-9357648D01*
X34648678Y-9358910D01*
X34626338Y-9360110D01*
X34604352Y-9361248D01*
X34582721Y-9362325D01*
X34561443Y-9363340D01*
X34540520Y-9364294D01*
X34519951Y-9365187D01*
X34499736Y-9366017D01*
X34479876Y-9366787D01*
X34460369Y-9367494D01*
X34441217Y-9368140D01*
X34422419Y-9368725D01*
X34403975Y-9369248D01*
X34385886Y-9369710D01*
X34368150Y-9370110D01*
X34350769Y-9370448D01*
X34333742Y-9370725D01*
X34317069Y-9370940D01*
X34300751Y-9371094D01*
X34284786Y-9371186D01*
X34269176Y-9371217D01*
X34254064Y-9369912D01*
X34238595Y-9365324D01*
X34224749Y-9357431D01*
X34216420Y-9350334D01*
X34206148Y-9337541D01*
X34199238Y-9323068D01*
X34195918Y-9308791D01*
X34195170Y-9297212D01*
X34195170Y-9223572D01*
X34649096Y-9223572D01*
X34666781Y-9223235D01*
X34684026Y-9222221D01*
X34700830Y-9220533D01*
X34717194Y-9218169D01*
X34733116Y-9215129D01*
X34748598Y-9211414D01*
X34763639Y-9207023D01*
X34778239Y-9201957D01*
X34792399Y-9196215D01*
X34806117Y-9189798D01*
X34819395Y-9182706D01*
X34832232Y-9174938D01*
X34844628Y-9166494D01*
X34856584Y-9157375D01*
X34868099Y-9147580D01*
X34879173Y-9137110D01*
X34889643Y-9126037D01*
X34899437Y-9114522D01*
X34908556Y-9102566D01*
X34917000Y-9090170D01*
X34924768Y-9077333D01*
X34931860Y-9064055D01*
X34938277Y-9050337D01*
X34944019Y-9036177D01*
X34949085Y-9021577D01*
X34953476Y-9006536D01*
X34957191Y-8991054D01*
X34960231Y-8975132D01*
X34962595Y-8958768D01*
X34964284Y-8941964D01*
X34965297Y-8924719D01*
X34965635Y-8907034D01*
X34965635Y-8833028D01*
X34965297Y-8815344D01*
X34964284Y-8798103D01*
X34962595Y-8781306D01*
X34960231Y-8764953D01*
X34957191Y-8749043D01*
X34953476Y-8733577D01*
X34949085Y-8718555D01*
X34944019Y-8703976D01*
X34938277Y-8689841D01*
X34931860Y-8676150D01*
X34924768Y-8662902D01*
X34917000Y-8650098D01*
X34908556Y-8637737D01*
X34899437Y-8625820D01*
X34889643Y-8614347D01*
X34879173Y-8603318D01*
X34868099Y-8592803D01*
X34856584Y-8582967D01*
X34844628Y-8573810D01*
X34832232Y-8565330D01*
X34819395Y-8557529D01*
X34806117Y-8550407D01*
X34792399Y-8543962D01*
X34778239Y-8538196D01*
X34763639Y-8533109D01*
X34748598Y-8528700D01*
X34733116Y-8524969D01*
X34717194Y-8521916D01*
X34700830Y-8519542D01*
X34684026Y-8517846D01*
X34666781Y-8516829D01*
X34649096Y-8516489D01*
X33931388Y-8516489D01*
X33931388Y-8790896D01*
X34522334Y-8790896D01*
X34537607Y-8792224D01*
X34553201Y-8796893D01*
X34567115Y-8804924D01*
X34575457Y-8812145D01*
X34585551Y-8824761D01*
X34592342Y-8839116D01*
X34595830Y-8855210D01*
X34596339Y-8864902D01*
X34595034Y-8880014D01*
X34590446Y-8895483D01*
X34582553Y-8909329D01*
X34575457Y-8917658D01*
X34562664Y-8927753D01*
X34548190Y-8934544D01*
X34532035Y-8938031D01*
X34522334Y-8938541D01*
X34142414Y-8938541D01*
X34124730Y-8938880D01*
X34107489Y-8939898D01*
X34090692Y-8941594D01*
X34074339Y-8943968D01*
X34058429Y-8947020D01*
X34042963Y-8950751D01*
X34027941Y-8955161D01*
X34013362Y-8960248D01*
X33999227Y-8966014D01*
X33985536Y-8972458D01*
X33972288Y-8979581D01*
X33959484Y-8987382D01*
X33947123Y-8995861D01*
X33935206Y-9005019D01*
X33923733Y-9014855D01*
X33912704Y-9025369D01*
X33902189Y-9036399D01*
X33892353Y-9047872D01*
X33883196Y-9059789D01*
X33874716Y-9072149D01*
X33866915Y-9084954D01*
X33859793Y-9098201D01*
X33853348Y-9111893D01*
X33847582Y-9126028D01*
X33842495Y-9140607D01*
X33838086Y-9155629D01*
X33834355Y-9171095D01*
X33831302Y-9187005D01*
X33828928Y-9203358D01*
X33827232Y-9220155D01*
X33826214Y-9237396D01*
X33825875Y-9255080D01*
X33825875Y-9339710D01*
X33826214Y-9357396D01*
X33827232Y-9374640D01*
X33828928Y-9391445D01*
X33831302Y-9407808D01*
X33834355Y-9423730D01*
X33838086Y-9439212D01*
X33842495Y-9454253D01*
X33847582Y-9468853D01*
X33853348Y-9483013D01*
X33859793Y-9496731D01*
X33866915Y-9510009D01*
X33874716Y-9522846D01*
X33883196Y-9535243D01*
X33892353Y-9547198D01*
X33902189Y-9558713D01*
X33912704Y-9569787D01*
X33923733Y-9580257D01*
X33935206Y-9590051D01*
X33947123Y-9599170D01*
X33959484Y-9607614D01*
X33972288Y-9615382D01*
X33985536Y-9622474D01*
X33999227Y-9628892D01*
X34013362Y-9634633D01*
X34027941Y-9639699D01*
X34042963Y-9644090D01*
X34058429Y-9647805D01*
X34074339Y-9650845D01*
X34090692Y-9653209D01*
X34107489Y-9654898D01*
X34124730Y-9655911D01*
X34142414Y-9656249D01*
X34165823Y-9656207D01*
X34189339Y-9656083D01*
X34212961Y-9655875D01*
X34236690Y-9655585D01*
X34260525Y-9655211D01*
X34284467Y-9654755D01*
X34308516Y-9654215D01*
X34332672Y-9653592D01*
X34356934Y-9652887D01*
X34381302Y-9652098D01*
X34405777Y-9651227D01*
X34430359Y-9650272D01*
X34455048Y-9649235D01*
X34479843Y-9648114D01*
X34504744Y-9646911D01*
X34529753Y-9645624D01*
X34554868Y-9644254D01*
X34580089Y-9642802D01*
X34605417Y-9641266D01*
X34630852Y-9639648D01*
X34656393Y-9637946D01*
X34682041Y-9636162D01*
X34707796Y-9634294D01*
X34733657Y-9632343D01*
X34759625Y-9630310D01*
X34785700Y-9628193D01*
X34811881Y-9625994D01*
X34838168Y-9623711D01*
X34864563Y-9621345D01*
X34891064Y-9618897D01*
X34917671Y-9616365D01*
X34944385Y-9613750D01*
X34944385Y-9339710D01*
G37*
G36*
X33240792Y-8558621D02*
G01*
X33240792Y-9635000D01*
X33610087Y-9635000D01*
X33610087Y-8843653D01*
X33768356Y-8843653D01*
X33768356Y-8558621D01*
X33240792Y-8558621D01*
G37*
G36*
X33610087Y-8136570D02*
G01*
X33240792Y-8136570D01*
X33240792Y-8432226D01*
X33610087Y-8432226D01*
X33610087Y-8136570D01*
G37*
G36*
X32736773Y-8495957D02*
G01*
X32755754Y-8497009D01*
X32774199Y-8498762D01*
X32792110Y-8501217D01*
X32809485Y-8504372D01*
X32826325Y-8508229D01*
X32842629Y-8512787D01*
X32858399Y-8518046D01*
X32873633Y-8524007D01*
X32888332Y-8530669D01*
X32902496Y-8538032D01*
X32916124Y-8546096D01*
X32929217Y-8554862D01*
X32941775Y-8564329D01*
X32953798Y-8574497D01*
X32965286Y-8585366D01*
X32976155Y-8596809D01*
X32986323Y-8608790D01*
X32995790Y-8621310D01*
X33004555Y-8634367D01*
X33012620Y-8647963D01*
X33019983Y-8662096D01*
X33026644Y-8676768D01*
X33032605Y-8691978D01*
X33037864Y-8707726D01*
X33042422Y-8724012D01*
X33046279Y-8740836D01*
X33049435Y-8758198D01*
X33051889Y-8776099D01*
X33053642Y-8794537D01*
X33054694Y-8813513D01*
X33055045Y-8833028D01*
X33055045Y-9318461D01*
X33054694Y-9337977D01*
X33053642Y-9356958D01*
X33051889Y-9375403D01*
X33049435Y-9393314D01*
X33046279Y-9410689D01*
X33042422Y-9427529D01*
X33037864Y-9443833D01*
X33032605Y-9459603D01*
X33026644Y-9474837D01*
X33019983Y-9489536D01*
X33012620Y-9503699D01*
X33004555Y-9517328D01*
X32995790Y-9530421D01*
X32986323Y-9542979D01*
X32976155Y-9555002D01*
X32965286Y-9566489D01*
X32953798Y-9577359D01*
X32941775Y-9587527D01*
X32929217Y-9596994D01*
X32916124Y-9605759D01*
X32902496Y-9613823D01*
X32888332Y-9621186D01*
X32873633Y-9627848D01*
X32858399Y-9633809D01*
X32842629Y-9639068D01*
X32826325Y-9643626D01*
X32809485Y-9647483D01*
X32792110Y-9650639D01*
X32774199Y-9653093D01*
X32755754Y-9654846D01*
X32736773Y-9655898D01*
X32717257Y-9656249D01*
X32231824Y-9656249D01*
X32212310Y-9655898D01*
X32193333Y-9654846D01*
X32174895Y-9653093D01*
X32156994Y-9650639D01*
X32139632Y-9647483D01*
X32122808Y-9643626D01*
X32106522Y-9639068D01*
X32090774Y-9633809D01*
X32075564Y-9627848D01*
X32060893Y-9621186D01*
X32046759Y-9613823D01*
X32033163Y-9605759D01*
X32020106Y-9596994D01*
X32007587Y-9587527D01*
X31995605Y-9577359D01*
X31984162Y-9566489D01*
X31973293Y-9555002D01*
X31963125Y-9542979D01*
X31953658Y-9530421D01*
X31944892Y-9517328D01*
X31936828Y-9503699D01*
X31929465Y-9489536D01*
X31922803Y-9474837D01*
X31916843Y-9459603D01*
X31911583Y-9443833D01*
X31907025Y-9427529D01*
X31903168Y-9410689D01*
X31900013Y-9393314D01*
X31897558Y-9375403D01*
X31895805Y-9356958D01*
X31894753Y-9337977D01*
X31894403Y-9318461D01*
X31894403Y-9286953D01*
X32263698Y-9286953D01*
X32263780Y-9292138D01*
X32265755Y-9311229D01*
X32270363Y-9327686D01*
X32277605Y-9341511D01*
X32287480Y-9352702D01*
X32299987Y-9361260D01*
X32315129Y-9367185D01*
X32332903Y-9370477D01*
X32347962Y-9371217D01*
X32601120Y-9371217D01*
X32606326Y-9371135D01*
X32625500Y-9369160D01*
X32642030Y-9364552D01*
X32655914Y-9357310D01*
X32667154Y-9347436D01*
X32675749Y-9334928D01*
X32681700Y-9319787D01*
X32685006Y-9302012D01*
X32685750Y-9286953D01*
X32685750Y-8864902D01*
X32685667Y-8859695D01*
X32683684Y-8840521D01*
X32679055Y-8823992D01*
X32671782Y-8810107D01*
X32661865Y-8798867D01*
X32649303Y-8790272D01*
X32634096Y-8784321D01*
X32616244Y-8781015D01*
X32601120Y-8780272D01*
X32347962Y-8780272D01*
X32342778Y-8780354D01*
X32323687Y-8782338D01*
X32307229Y-8786966D01*
X32293404Y-8794239D01*
X32282213Y-8804157D01*
X32273655Y-8816719D01*
X32267730Y-8831926D01*
X32264439Y-8849777D01*
X32263698Y-8864902D01*
X32263698Y-9286953D01*
X31894403Y-9286953D01*
X31894403Y-8833028D01*
X31894753Y-8813513D01*
X31895805Y-8794537D01*
X31897558Y-8776099D01*
X31900013Y-8758198D01*
X31903168Y-8740836D01*
X31907025Y-8724012D01*
X31911583Y-8707726D01*
X31916843Y-8691978D01*
X31922803Y-8676768D01*
X31929465Y-8662096D01*
X31936828Y-8647963D01*
X31944892Y-8634367D01*
X31953658Y-8621310D01*
X31963125Y-8608790D01*
X31973293Y-8596809D01*
X31984162Y-8585366D01*
X31995605Y-8574497D01*
X32007587Y-8564329D01*
X32020106Y-8554862D01*
X32033163Y-8546096D01*
X32046759Y-8538032D01*
X32060893Y-8530669D01*
X32075564Y-8524007D01*
X32090774Y-8518046D01*
X32106522Y-8512787D01*
X32122808Y-8508229D01*
X32139632Y-8504372D01*
X32156994Y-8501217D01*
X32174895Y-8498762D01*
X32193333Y-8497009D01*
X32212310Y-8495957D01*
X32231824Y-8495607D01*
X32717257Y-8495607D01*
X32736773Y-8495957D01*
G37*
G36*
X31089501Y-8801521D02*
G01*
X31110713Y-8801891D01*
X31132447Y-8803002D01*
X31147226Y-8804154D01*
X31162237Y-8805635D01*
X31177480Y-8807446D01*
X31192954Y-8809585D01*
X31208661Y-8812054D01*
X31224599Y-8814852D01*
X31240769Y-8817979D01*
X31257171Y-8821435D01*
X31273805Y-8825220D01*
X31290670Y-8829334D01*
X31307768Y-8833778D01*
X31325097Y-8838551D01*
X31342658Y-8843653D01*
X31342658Y-9635000D01*
X31711953Y-9635000D01*
X31711953Y-8516489D01*
X31384790Y-8516489D01*
X31363907Y-8622002D01*
X31351477Y-8613987D01*
X31339006Y-8606243D01*
X31320225Y-8595137D01*
X31301354Y-8584643D01*
X31282392Y-8574761D01*
X31263340Y-8565491D01*
X31244199Y-8556832D01*
X31224967Y-8548785D01*
X31205644Y-8541350D01*
X31186232Y-8534527D01*
X31166730Y-8528316D01*
X31160209Y-8526381D01*
X31140918Y-8520881D01*
X31122200Y-8515923D01*
X31104055Y-8511505D01*
X31086484Y-8507628D01*
X31069485Y-8504292D01*
X31053060Y-8501497D01*
X31037208Y-8499243D01*
X31021929Y-8497530D01*
X31007224Y-8496358D01*
X30988507Y-8495637D01*
X30983988Y-8495607D01*
X30889099Y-8495607D01*
X30871371Y-8495944D01*
X30854089Y-8496958D01*
X30837253Y-8498646D01*
X30820864Y-8501010D01*
X30804921Y-8504050D01*
X30789425Y-8507765D01*
X30774376Y-8512156D01*
X30759773Y-8517222D01*
X30745616Y-8522964D01*
X30731906Y-8529381D01*
X30718643Y-8536473D01*
X30705826Y-8544241D01*
X30693455Y-8552685D01*
X30681531Y-8561804D01*
X30670054Y-8571599D01*
X30659023Y-8582069D01*
X30648553Y-8593100D01*
X30638758Y-8604577D01*
X30629639Y-8616501D01*
X30621195Y-8628872D01*
X30613427Y-8641689D01*
X30606335Y-8654952D01*
X30599918Y-8668662D01*
X30594176Y-8682819D01*
X30589110Y-8697422D01*
X30584719Y-8712471D01*
X30581004Y-8727967D01*
X30577964Y-8743910D01*
X30575600Y-8760299D01*
X30573912Y-8777135D01*
X30572898Y-8794417D01*
X30572561Y-8812145D01*
X30572561Y-9635000D01*
X30941856Y-9635000D01*
X30941856Y-8875160D01*
X30943184Y-8860070D01*
X30947853Y-8844682D01*
X30955884Y-8830974D01*
X30963105Y-8822770D01*
X30975692Y-8812498D01*
X30989960Y-8805588D01*
X31005908Y-8802040D01*
X31015495Y-8801521D01*
X31089501Y-8801521D01*
G37*
G36*
X29042623Y-9656249D02*
G01*
X29064725Y-9656207D01*
X29086975Y-9656083D01*
X29109373Y-9655875D01*
X29131919Y-9655585D01*
X29154613Y-9655211D01*
X29177455Y-9654755D01*
X29200446Y-9654215D01*
X29223584Y-9653592D01*
X29246871Y-9652887D01*
X29270306Y-9652098D01*
X29293889Y-9651227D01*
X29317620Y-9650272D01*
X29341499Y-9649235D01*
X29365526Y-9648114D01*
X29389702Y-9646911D01*
X29414025Y-9645624D01*
X29438497Y-9644254D01*
X29463117Y-9642802D01*
X29487884Y-9641266D01*
X29512800Y-9639648D01*
X29537865Y-9637946D01*
X29563077Y-9636162D01*
X29588437Y-9634294D01*
X29613946Y-9632343D01*
X29639602Y-9630310D01*
X29665407Y-9628193D01*
X29691360Y-9625994D01*
X29717461Y-9623711D01*
X29743710Y-9621345D01*
X29770107Y-9618897D01*
X29796652Y-9616365D01*
X29823346Y-9613750D01*
X29823346Y-9329085D01*
X29794428Y-9331024D01*
X29765971Y-9332901D01*
X29737976Y-9334716D01*
X29710442Y-9336470D01*
X29683371Y-9338162D01*
X29656760Y-9339793D01*
X29630611Y-9341362D01*
X29604924Y-9342870D01*
X29579698Y-9344316D01*
X29554934Y-9345701D01*
X29530631Y-9347024D01*
X29506790Y-9348285D01*
X29483410Y-9349485D01*
X29460492Y-9350624D01*
X29438035Y-9351700D01*
X29416040Y-9352716D01*
X29394507Y-9353670D01*
X29373435Y-9354562D01*
X29352824Y-9355393D01*
X29332675Y-9356162D01*
X29312988Y-9356870D01*
X29293762Y-9357516D01*
X29274997Y-9358100D01*
X29256695Y-9358623D01*
X29238853Y-9359085D01*
X29221474Y-9359485D01*
X29204555Y-9359823D01*
X29188099Y-9360100D01*
X29172103Y-9360316D01*
X29156570Y-9360470D01*
X29141498Y-9360562D01*
X29126887Y-9360593D01*
X29109448Y-9359601D01*
X29093399Y-9356626D01*
X29078742Y-9351667D01*
X29065475Y-9344725D01*
X29053600Y-9335799D01*
X29049951Y-9332383D01*
X29040239Y-9320958D01*
X29032537Y-9308117D01*
X29026844Y-9293859D01*
X29023160Y-9278184D01*
X29021486Y-9261092D01*
X29021374Y-9255080D01*
X29021374Y-9170816D01*
X29021869Y-9155466D01*
X29024469Y-9134298D01*
X29029297Y-9115358D01*
X29036353Y-9098646D01*
X29045637Y-9084162D01*
X29057150Y-9071907D01*
X29070891Y-9061880D01*
X29086860Y-9054081D01*
X29105057Y-9048510D01*
X29125483Y-9045168D01*
X29140337Y-9044178D01*
X29148136Y-9044054D01*
X29591071Y-9044054D01*
X29591071Y-8748764D01*
X29190268Y-8748764D01*
X29174918Y-8748269D01*
X29153750Y-8745670D01*
X29134810Y-8740842D01*
X29118098Y-8733786D01*
X29103614Y-8724501D01*
X29091359Y-8712989D01*
X29081332Y-8699248D01*
X29073533Y-8683279D01*
X29067963Y-8665082D01*
X29064620Y-8644656D01*
X29063630Y-8629801D01*
X29063506Y-8622002D01*
X29063506Y-8579870D01*
X29064001Y-8564520D01*
X29066601Y-8543352D01*
X29071429Y-8524412D01*
X29078485Y-8507700D01*
X29087769Y-8493217D01*
X29099282Y-8480961D01*
X29113023Y-8470934D01*
X29128992Y-8463135D01*
X29147189Y-8457565D01*
X29167614Y-8454222D01*
X29182469Y-8453232D01*
X29190268Y-8453108D01*
X29802097Y-8453108D01*
X29802097Y-8157819D01*
X29084755Y-8157819D01*
X29059310Y-8158187D01*
X29034724Y-8159290D01*
X29010996Y-8161129D01*
X28988127Y-8163703D01*
X28966116Y-8167014D01*
X28944964Y-8171059D01*
X28924671Y-8175841D01*
X28905237Y-8181358D01*
X28886661Y-8187610D01*
X28868944Y-8194598D01*
X28852085Y-8202322D01*
X28836086Y-8210781D01*
X28820944Y-8219976D01*
X28806662Y-8229907D01*
X28793238Y-8240573D01*
X28780673Y-8251974D01*
X28768916Y-8264082D01*
X28757918Y-8276956D01*
X28747679Y-8290597D01*
X28738198Y-8305006D01*
X28729475Y-8320181D01*
X28721511Y-8336124D01*
X28714305Y-8352833D01*
X28707858Y-8370310D01*
X28702169Y-8388554D01*
X28697239Y-8407565D01*
X28693068Y-8427343D01*
X28689654Y-8447888D01*
X28687000Y-8469200D01*
X28685103Y-8491279D01*
X28683966Y-8514125D01*
X28683586Y-8537739D01*
X28683814Y-8553353D01*
X28684497Y-8568599D01*
X28685634Y-8583475D01*
X28688194Y-8605098D01*
X28691778Y-8625889D01*
X28696386Y-8645850D01*
X28702018Y-8664980D01*
X28708673Y-8683279D01*
X28716353Y-8700748D01*
X28725057Y-8717385D01*
X28734784Y-8733192D01*
X28741838Y-8743269D01*
X28753017Y-8757691D01*
X28764846Y-8771283D01*
X28777326Y-8784044D01*
X28790456Y-8795974D01*
X28804237Y-8807073D01*
X28818667Y-8817342D01*
X28833749Y-8826780D01*
X28849481Y-8835387D01*
X28865863Y-8843163D01*
X28882896Y-8850108D01*
X28894612Y-8854277D01*
X28873699Y-8860620D01*
X28853642Y-8868016D01*
X28834441Y-8876465D01*
X28816096Y-8885968D01*
X28798606Y-8896524D01*
X28781972Y-8908133D01*
X28766194Y-8920795D01*
X28751272Y-8934511D01*
X28737206Y-8949280D01*
X28723995Y-8965102D01*
X28711640Y-8981978D01*
X28700141Y-8999907D01*
X28689498Y-9018889D01*
X28679711Y-9038925D01*
X28670779Y-9060014D01*
X28662704Y-9082156D01*
X28657723Y-9098797D01*
X28653407Y-9116113D01*
X28649755Y-9134105D01*
X28646767Y-9152773D01*
X28644443Y-9172115D01*
X28643135Y-9187066D01*
X28642202Y-9202396D01*
X28641641Y-9218107D01*
X28641455Y-9234197D01*
X28641455Y-9255080D01*
X28641834Y-9280525D01*
X28642971Y-9305111D01*
X28644868Y-9328839D01*
X28647522Y-9351708D01*
X28650936Y-9373719D01*
X28655107Y-9394871D01*
X28660037Y-9415164D01*
X28665726Y-9434598D01*
X28672173Y-9453174D01*
X28679379Y-9470891D01*
X28687343Y-9487750D01*
X28696066Y-9503750D01*
X28705547Y-9518891D01*
X28715786Y-9533173D01*
X28726784Y-9546597D01*
X28738541Y-9559162D01*
X28751106Y-9570919D01*
X28764530Y-9581917D01*
X28778812Y-9592156D01*
X28793954Y-9601637D01*
X28809953Y-9610360D01*
X28826812Y-9618324D01*
X28844529Y-9625530D01*
X28863105Y-9631977D01*
X28882539Y-9637666D01*
X28902833Y-9642596D01*
X28923984Y-9646768D01*
X28945995Y-9650181D01*
X28968864Y-9652835D01*
X28992592Y-9654732D01*
X29017178Y-9655869D01*
X29042623Y-9656249D01*
G37*
G36*
X28521287Y-9318461D02*
G01*
X28141367Y-9318461D01*
X28141367Y-9635000D01*
X28521287Y-9635000D01*
X28521287Y-9318461D01*
G37*
G36*
X27257697Y-9656249D02*
G01*
X27279798Y-9656207D01*
X27302048Y-9656083D01*
X27324446Y-9655875D01*
X27346992Y-9655585D01*
X27369686Y-9655211D01*
X27392529Y-9654755D01*
X27415519Y-9654215D01*
X27438658Y-9653592D01*
X27461944Y-9652887D01*
X27485379Y-9652098D01*
X27508962Y-9651227D01*
X27532693Y-9650272D01*
X27556572Y-9649235D01*
X27580600Y-9648114D01*
X27604775Y-9646911D01*
X27629098Y-9645624D01*
X27653570Y-9644254D01*
X27678190Y-9642802D01*
X27702958Y-9641266D01*
X27727874Y-9639648D01*
X27752938Y-9637946D01*
X27778150Y-9636162D01*
X27803510Y-9634294D01*
X27829019Y-9632343D01*
X27854675Y-9630310D01*
X27880480Y-9628193D01*
X27906433Y-9625994D01*
X27932534Y-9623711D01*
X27958783Y-9621345D01*
X27985180Y-9618897D01*
X28011725Y-9616365D01*
X28038419Y-9613750D01*
X28038419Y-9329085D01*
X28009501Y-9331024D01*
X27981044Y-9332901D01*
X27953049Y-9334716D01*
X27925516Y-9336470D01*
X27898444Y-9338162D01*
X27871833Y-9339793D01*
X27845684Y-9341362D01*
X27819997Y-9342870D01*
X27794771Y-9344316D01*
X27770007Y-9345701D01*
X27745704Y-9347024D01*
X27721863Y-9348285D01*
X27698483Y-9349485D01*
X27675565Y-9350624D01*
X27653109Y-9351700D01*
X27631113Y-9352716D01*
X27609580Y-9353670D01*
X27588508Y-9354562D01*
X27567897Y-9355393D01*
X27547748Y-9356162D01*
X27528061Y-9356870D01*
X27508835Y-9357516D01*
X27490071Y-9358100D01*
X27471768Y-9358623D01*
X27453927Y-9359085D01*
X27436547Y-9359485D01*
X27419629Y-9359823D01*
X27403172Y-9360100D01*
X27387177Y-9360316D01*
X27371643Y-9360470D01*
X27356571Y-9360562D01*
X27341960Y-9360593D01*
X27324521Y-9359601D01*
X27308472Y-9356626D01*
X27293815Y-9351667D01*
X27280549Y-9344725D01*
X27268673Y-9335799D01*
X27265024Y-9332383D01*
X27255312Y-9320958D01*
X27247610Y-9308117D01*
X27241917Y-9293859D01*
X27238234Y-9278184D01*
X27236559Y-9261092D01*
X27236448Y-9255080D01*
X27236448Y-9149567D01*
X27236943Y-9134261D01*
X27239542Y-9113154D01*
X27244370Y-9094269D01*
X27251426Y-9077605D01*
X27260711Y-9063164D01*
X27272223Y-9050944D01*
X27285964Y-9040946D01*
X27301933Y-9033169D01*
X27320130Y-9027615D01*
X27340556Y-9024282D01*
X27355411Y-9023295D01*
X27363210Y-9023171D01*
X27975038Y-9023171D01*
X27975038Y-8157819D01*
X26962041Y-8157819D01*
X26962041Y-8453108D01*
X27595118Y-8453108D01*
X27595118Y-8727515D01*
X27257697Y-8727515D01*
X27232252Y-8727883D01*
X27207665Y-8728986D01*
X27183937Y-8730825D01*
X27161068Y-8733400D01*
X27139058Y-8736710D01*
X27117906Y-8740756D01*
X27097613Y-8745537D01*
X27078178Y-8751054D01*
X27059602Y-8757307D01*
X27041885Y-8764295D01*
X27025027Y-8772018D01*
X27009027Y-8780478D01*
X26993886Y-8789673D01*
X26979603Y-8799603D01*
X26966179Y-8810269D01*
X26953614Y-8821671D01*
X26941858Y-8833778D01*
X26930860Y-8846652D01*
X26920620Y-8860294D01*
X26911139Y-8874702D01*
X26902416Y-8889878D01*
X26894452Y-8905820D01*
X26887247Y-8922530D01*
X26880799Y-8940006D01*
X26875111Y-8958250D01*
X26870181Y-8977261D01*
X26866009Y-8997039D01*
X26862596Y-9017584D01*
X26859941Y-9038896D01*
X26858045Y-9060975D01*
X26856907Y-9083822D01*
X26856528Y-9107435D01*
X26856528Y-9255080D01*
X26856907Y-9280525D01*
X26858045Y-9305111D01*
X26859941Y-9328839D01*
X26862596Y-9351708D01*
X26866009Y-9373719D01*
X26870181Y-9394871D01*
X26875111Y-9415164D01*
X26880799Y-9434598D01*
X26887247Y-9453174D01*
X26894452Y-9470891D01*
X26902416Y-9487750D01*
X26911139Y-9503750D01*
X26920620Y-9518891D01*
X26930860Y-9533173D01*
X26941858Y-9546597D01*
X26953614Y-9559162D01*
X26966179Y-9570919D01*
X26979603Y-9581917D01*
X26993886Y-9592156D01*
X27009027Y-9601637D01*
X27025027Y-9610360D01*
X27041885Y-9618324D01*
X27059602Y-9625530D01*
X27078178Y-9631977D01*
X27097613Y-9637666D01*
X27117906Y-9642596D01*
X27139058Y-9646768D01*
X27161068Y-9650181D01*
X27183937Y-9652835D01*
X27207665Y-9654732D01*
X27232252Y-9655869D01*
X27257697Y-9656249D01*
G37*
G36*
X26758342Y-9318461D02*
G01*
X26378422Y-9318461D01*
X26378422Y-9635000D01*
X26758342Y-9635000D01*
X26758342Y-9318461D01*
G37*
G36*
X25838479Y-8136962D02*
G01*
X25864722Y-8138138D01*
X25890022Y-8140099D01*
X25914376Y-8142844D01*
X25937786Y-8146373D01*
X25960252Y-8150686D01*
X25981773Y-8155784D01*
X26002349Y-8161666D01*
X26021981Y-8168332D01*
X26040669Y-8175782D01*
X26058412Y-8184017D01*
X26075210Y-8193036D01*
X26091064Y-8202839D01*
X26105973Y-8213426D01*
X26119938Y-8224798D01*
X26132958Y-8236953D01*
X26145114Y-8249974D01*
X26156486Y-8263938D01*
X26167073Y-8278848D01*
X26176876Y-8294702D01*
X26185895Y-8311500D01*
X26194130Y-8329243D01*
X26201580Y-8347930D01*
X26208246Y-8367562D01*
X26214128Y-8388139D01*
X26219226Y-8409660D01*
X26223539Y-8432125D01*
X26227068Y-8455536D01*
X26229813Y-8479890D01*
X26231774Y-8505189D01*
X26232950Y-8531433D01*
X26233342Y-8558621D01*
X26233342Y-9234197D01*
X26232950Y-9261385D01*
X26231774Y-9287629D01*
X26229813Y-9312928D01*
X26227068Y-9337283D01*
X26223539Y-9360693D01*
X26219226Y-9383158D01*
X26214128Y-9404679D01*
X26208246Y-9425256D01*
X26201580Y-9444888D01*
X26194130Y-9463575D01*
X26185895Y-9481318D01*
X26176876Y-9498117D01*
X26167073Y-9513970D01*
X26156486Y-9528880D01*
X26145114Y-9542845D01*
X26132958Y-9555865D01*
X26119938Y-9568021D01*
X26105973Y-9579392D01*
X26091064Y-9589980D01*
X26075210Y-9599783D01*
X26058412Y-9608802D01*
X26040669Y-9617036D01*
X26021981Y-9624487D01*
X26002349Y-9631153D01*
X25981773Y-9637035D01*
X25960252Y-9642132D01*
X25937786Y-9646446D01*
X25914376Y-9649975D01*
X25890022Y-9652720D01*
X25864722Y-9654680D01*
X25838479Y-9655857D01*
X25811291Y-9656249D01*
X25410122Y-9656249D01*
X25382890Y-9655857D01*
X25356610Y-9654680D01*
X25331279Y-9652720D01*
X25306899Y-9649975D01*
X25283468Y-9646446D01*
X25260988Y-9642132D01*
X25239459Y-9637035D01*
X25218879Y-9631153D01*
X25199250Y-9624487D01*
X25180572Y-9617036D01*
X25162843Y-9608802D01*
X25146065Y-9599783D01*
X25130237Y-9589980D01*
X25115359Y-9579392D01*
X25101431Y-9568021D01*
X25088454Y-9555865D01*
X25076298Y-9542845D01*
X25064926Y-9528880D01*
X25054339Y-9513970D01*
X25044536Y-9498117D01*
X25035517Y-9481318D01*
X25027282Y-9463575D01*
X25019832Y-9444888D01*
X25013166Y-9425256D01*
X25007284Y-9404679D01*
X25002186Y-9383158D01*
X24997873Y-9360693D01*
X24994344Y-9337283D01*
X24991599Y-9312928D01*
X24989639Y-9287629D01*
X24988462Y-9261385D01*
X24988070Y-9234197D01*
X25367990Y-9234197D01*
X25368114Y-9241973D01*
X25369104Y-9256785D01*
X25372446Y-9277152D01*
X25378017Y-9295296D01*
X25385816Y-9311219D01*
X25395843Y-9324920D01*
X25408098Y-9336400D01*
X25422582Y-9345657D01*
X25439293Y-9352693D01*
X25458233Y-9357507D01*
X25479402Y-9360099D01*
X25494752Y-9360593D01*
X25726660Y-9360593D01*
X25734459Y-9360469D01*
X25749314Y-9359482D01*
X25769740Y-9356149D01*
X25787937Y-9350595D01*
X25803906Y-9342818D01*
X25817647Y-9332820D01*
X25829159Y-9320600D01*
X25838444Y-9306159D01*
X25845500Y-9289495D01*
X25850328Y-9270610D01*
X25852927Y-9249503D01*
X25853422Y-9234197D01*
X25853422Y-8558621D01*
X25853299Y-8550845D01*
X25852308Y-8536033D01*
X25848966Y-8515666D01*
X25843395Y-8497522D01*
X25835597Y-8481599D01*
X25825569Y-8467898D01*
X25813314Y-8456419D01*
X25798831Y-8447161D01*
X25782119Y-8440125D01*
X25763179Y-8435311D01*
X25742010Y-8432719D01*
X25726660Y-8432226D01*
X25494752Y-8432226D01*
X25486953Y-8432349D01*
X25472098Y-8433336D01*
X25451673Y-8436669D01*
X25433475Y-8442224D01*
X25417506Y-8450000D01*
X25403765Y-8459998D01*
X25392253Y-8472218D01*
X25382968Y-8486660D01*
X25375912Y-8503323D01*
X25371085Y-8522208D01*
X25368485Y-8543316D01*
X25367990Y-8558621D01*
X25367990Y-9234197D01*
X24988070Y-9234197D01*
X24988070Y-8558621D01*
X24988462Y-8531433D01*
X24989639Y-8505189D01*
X24991599Y-8479890D01*
X24994344Y-8455536D01*
X24997873Y-8432125D01*
X25002186Y-8409660D01*
X25007284Y-8388139D01*
X25013166Y-8367562D01*
X25019832Y-8347930D01*
X25027282Y-8329243D01*
X25035517Y-8311500D01*
X25044536Y-8294702D01*
X25054339Y-8278848D01*
X25064926Y-8263938D01*
X25076298Y-8249974D01*
X25088454Y-8236953D01*
X25101431Y-8224798D01*
X25115359Y-8213426D01*
X25130237Y-8202839D01*
X25146065Y-8193036D01*
X25162843Y-8184017D01*
X25180572Y-8175782D01*
X25199250Y-8168332D01*
X25218879Y-8161666D01*
X25239459Y-8155784D01*
X25260988Y-8150686D01*
X25283468Y-8146373D01*
X25306899Y-8142844D01*
X25331279Y-8140099D01*
X25356610Y-8138138D01*
X25382890Y-8136962D01*
X25410122Y-8136570D01*
X25811291Y-8136570D01*
X25838479Y-8136962D01*
G37*
G36*
X45400300Y-5480425D02*
G01*
X44894228Y-5480425D01*
X44894228Y-6915596D01*
X44894751Y-6951847D01*
X44896320Y-6986839D01*
X44898934Y-7020571D01*
X44902594Y-7053044D01*
X44907299Y-7084257D01*
X44913050Y-7114211D01*
X44919847Y-7142906D01*
X44927690Y-7170341D01*
X44936578Y-7196517D01*
X44946512Y-7221434D01*
X44957491Y-7245091D01*
X44969516Y-7267489D01*
X44982587Y-7288627D01*
X44996703Y-7308507D01*
X45011866Y-7327126D01*
X45028073Y-7344487D01*
X45045377Y-7360694D01*
X45063947Y-7375857D01*
X45083784Y-7389973D01*
X45104888Y-7403044D01*
X45127259Y-7415069D01*
X45150897Y-7426048D01*
X45175802Y-7435982D01*
X45201974Y-7444870D01*
X45229413Y-7452713D01*
X45258120Y-7459510D01*
X45288093Y-7465261D01*
X45319333Y-7469966D01*
X45351840Y-7473626D01*
X45385614Y-7476240D01*
X45420656Y-7477809D01*
X45456964Y-7478332D01*
X46103719Y-7478332D01*
X46140029Y-7477809D01*
X46175076Y-7476240D01*
X46208860Y-7473626D01*
X46241380Y-7469966D01*
X46272638Y-7465261D01*
X46302632Y-7459510D01*
X46331363Y-7452713D01*
X46358831Y-7444870D01*
X46385035Y-7435982D01*
X46409977Y-7426048D01*
X46433655Y-7415069D01*
X46456070Y-7403044D01*
X46477222Y-7389973D01*
X46497110Y-7375857D01*
X46515736Y-7360694D01*
X46533098Y-7344487D01*
X46549247Y-7327126D01*
X46564353Y-7308507D01*
X46578418Y-7288627D01*
X46591441Y-7267489D01*
X46603423Y-7245091D01*
X46614362Y-7221434D01*
X46624260Y-7196517D01*
X46633115Y-7170341D01*
X46640929Y-7142906D01*
X46647701Y-7114211D01*
X46653431Y-7084257D01*
X46658120Y-7053044D01*
X46661766Y-7020571D01*
X46664371Y-6986839D01*
X46665934Y-6951847D01*
X46666454Y-6915596D01*
X46666454Y-5480425D01*
X46160383Y-5480425D01*
X46160383Y-6915596D01*
X46159723Y-6936004D01*
X46156257Y-6964147D01*
X46149820Y-6989327D01*
X46140412Y-7011545D01*
X46128033Y-7030801D01*
X46112682Y-7047094D01*
X46094361Y-7060425D01*
X46073069Y-7070793D01*
X46048806Y-7078199D01*
X46021572Y-7082643D01*
X46001766Y-7083959D01*
X45991367Y-7084124D01*
X45569316Y-7084124D01*
X45548849Y-7083465D01*
X45520624Y-7080009D01*
X45495371Y-7073591D01*
X45473089Y-7064210D01*
X45453777Y-7051866D01*
X45437437Y-7036561D01*
X45424067Y-7018293D01*
X45413669Y-6997062D01*
X45406242Y-6972869D01*
X45401785Y-6945714D01*
X45400465Y-6925965D01*
X45400300Y-6915596D01*
X45400300Y-5480425D01*
G37*
G36*
X43639797Y-7450000D02*
G01*
X44652428Y-7450000D01*
X44652428Y-7056280D01*
X44399392Y-7056280D01*
X44399392Y-5874145D01*
X44652428Y-5874145D01*
X44652428Y-5480425D01*
X43639797Y-5480425D01*
X43639797Y-5874145D01*
X43892833Y-5874145D01*
X43892833Y-7056280D01*
X43639797Y-7056280D01*
X43639797Y-7450000D01*
G37*
G36*
X41677550Y-7450000D02*
G01*
X42211953Y-7450000D01*
X42887529Y-6268353D01*
X42887529Y-7450000D01*
X43393600Y-7450000D01*
X43393600Y-5480425D01*
X42859197Y-5480425D01*
X42184110Y-6662072D01*
X42184110Y-5480425D01*
X41677550Y-5480425D01*
X41677550Y-7450000D01*
G37*
G36*
X40421653Y-7450000D02*
G01*
X41434284Y-7450000D01*
X41434284Y-7056280D01*
X41181249Y-7056280D01*
X41181249Y-5874145D01*
X41434284Y-5874145D01*
X41434284Y-5480425D01*
X40421653Y-5480425D01*
X40421653Y-5874145D01*
X40674689Y-5874145D01*
X40674689Y-7056280D01*
X40421653Y-7056280D01*
X40421653Y-7450000D01*
G37*
G36*
X39705636Y-5452616D02*
G01*
X39740628Y-5454184D01*
X39774360Y-5456799D01*
X39806833Y-5460458D01*
X39838046Y-5465164D01*
X39868001Y-5470915D01*
X39896695Y-5477712D01*
X39924131Y-5485554D01*
X39950307Y-5494442D01*
X39975223Y-5504376D01*
X39998880Y-5515356D01*
X40021278Y-5527381D01*
X40042417Y-5540452D01*
X40062296Y-5554568D01*
X40080915Y-5569730D01*
X40098276Y-5585938D01*
X40114484Y-5603298D01*
X40129646Y-5621918D01*
X40143762Y-5641797D01*
X40156833Y-5662936D01*
X40168858Y-5685333D01*
X40179838Y-5708991D01*
X40189771Y-5733907D01*
X40198660Y-5760083D01*
X40206502Y-5787519D01*
X40213299Y-5816213D01*
X40219050Y-5846167D01*
X40223756Y-5877381D01*
X40227415Y-5909854D01*
X40230030Y-5943586D01*
X40231598Y-5978578D01*
X40232121Y-6014829D01*
X40232121Y-6915596D01*
X40231598Y-6951847D01*
X40230030Y-6986839D01*
X40227415Y-7020571D01*
X40223756Y-7053044D01*
X40219050Y-7084257D01*
X40213299Y-7114211D01*
X40206502Y-7142906D01*
X40198660Y-7170341D01*
X40189771Y-7196517D01*
X40179838Y-7221434D01*
X40168858Y-7245091D01*
X40156833Y-7267489D01*
X40143762Y-7288627D01*
X40129646Y-7308507D01*
X40114484Y-7327126D01*
X40098276Y-7344487D01*
X40080915Y-7360694D01*
X40062296Y-7375857D01*
X40042417Y-7389973D01*
X40021278Y-7403044D01*
X39998880Y-7415069D01*
X39975223Y-7426048D01*
X39950307Y-7435982D01*
X39924131Y-7444870D01*
X39896695Y-7452713D01*
X39868001Y-7459510D01*
X39838046Y-7465261D01*
X39806833Y-7469966D01*
X39774360Y-7473626D01*
X39740628Y-7476240D01*
X39705636Y-7477809D01*
X39669385Y-7478332D01*
X38965966Y-7478332D01*
X38929658Y-7477809D01*
X38894617Y-7476240D01*
X38860842Y-7473626D01*
X38828335Y-7469966D01*
X38797095Y-7465261D01*
X38767122Y-7459510D01*
X38738416Y-7452713D01*
X38710976Y-7444870D01*
X38684804Y-7435982D01*
X38659899Y-7426048D01*
X38636261Y-7415069D01*
X38613890Y-7403044D01*
X38592786Y-7389973D01*
X38572949Y-7375857D01*
X38554379Y-7360694D01*
X38537076Y-7344487D01*
X38520868Y-7327126D01*
X38505706Y-7308507D01*
X38491589Y-7288627D01*
X38478518Y-7267489D01*
X38466493Y-7245091D01*
X38455514Y-7221434D01*
X38445580Y-7196517D01*
X38436692Y-7170341D01*
X38428849Y-7142906D01*
X38422052Y-7114211D01*
X38416301Y-7084257D01*
X38411596Y-7053044D01*
X38407936Y-7020571D01*
X38405322Y-6986839D01*
X38403753Y-6951847D01*
X38403230Y-6915596D01*
X38909302Y-6915596D01*
X38909467Y-6925965D01*
X38910787Y-6945714D01*
X38915244Y-6972869D01*
X38922671Y-6997062D01*
X38933070Y-7018293D01*
X38946439Y-7036561D01*
X38962779Y-7051866D01*
X38982091Y-7064210D01*
X39004373Y-7073591D01*
X39029627Y-7080009D01*
X39057851Y-7083465D01*
X39078318Y-7084124D01*
X39556545Y-7084124D01*
X39566944Y-7083959D01*
X39586750Y-7082643D01*
X39613984Y-7078199D01*
X39638247Y-7070793D01*
X39659539Y-7060425D01*
X39677860Y-7047094D01*
X39693210Y-7030801D01*
X39705590Y-7011545D01*
X39714998Y-6989327D01*
X39721435Y-6964147D01*
X39724901Y-6936004D01*
X39725561Y-6915596D01*
X39725561Y-6014829D01*
X39725396Y-6004460D01*
X39724076Y-5984711D01*
X39719619Y-5957555D01*
X39712192Y-5933363D01*
X39701793Y-5912132D01*
X39688424Y-5893864D01*
X39672083Y-5878558D01*
X39652772Y-5866215D01*
X39630490Y-5856834D01*
X39605236Y-5850415D01*
X39577012Y-5846959D01*
X39556545Y-5846301D01*
X39078318Y-5846301D01*
X39067919Y-5846466D01*
X39048113Y-5847782D01*
X39020879Y-5852226D01*
X38996616Y-5859632D01*
X38975324Y-5870000D01*
X38957002Y-5883331D01*
X38941652Y-5899624D01*
X38929273Y-5918880D01*
X38919865Y-5941098D01*
X38913428Y-5966278D01*
X38909962Y-5994421D01*
X38909302Y-6014829D01*
X38909302Y-6915596D01*
X38403230Y-6915596D01*
X38403230Y-6014829D01*
X38403753Y-5978578D01*
X38405322Y-5943586D01*
X38407936Y-5909854D01*
X38411596Y-5877381D01*
X38416301Y-5846167D01*
X38422052Y-5816213D01*
X38428849Y-5787519D01*
X38436692Y-5760083D01*
X38445580Y-5733907D01*
X38455514Y-5708991D01*
X38466493Y-5685333D01*
X38478518Y-5662936D01*
X38491589Y-5641797D01*
X38505706Y-5621918D01*
X38520868Y-5603298D01*
X38537076Y-5585938D01*
X38554379Y-5569730D01*
X38572949Y-5554568D01*
X38592786Y-5540452D01*
X38613890Y-5527381D01*
X38636261Y-5515356D01*
X38659899Y-5504376D01*
X38684804Y-5494442D01*
X38710976Y-5485554D01*
X38738416Y-5477712D01*
X38767122Y-5470915D01*
X38797095Y-5465164D01*
X38828335Y-5460458D01*
X38860842Y-5456799D01*
X38894617Y-5454184D01*
X38929658Y-5452616D01*
X38965966Y-5452093D01*
X39669385Y-5452093D01*
X39705636Y-5452616D01*
G37*
G36*
X38216140Y-6662072D02*
G01*
X38216140Y-6268353D01*
X37062826Y-6268353D01*
X37062826Y-6662072D01*
X38216140Y-6662072D01*
G37*
G36*
X35128422Y-6352861D02*
G01*
X35522630Y-7056280D01*
X35916350Y-7056280D01*
X36310558Y-6352861D01*
X36310558Y-7450000D01*
X36816629Y-7450000D01*
X36816629Y-5480425D01*
X36282226Y-5480425D01*
X35719490Y-6521388D01*
X35156755Y-5480425D01*
X34622351Y-5480425D01*
X34622351Y-7450000D01*
X35128422Y-7450000D01*
X35128422Y-6352861D01*
G37*
G36*
X32778806Y-7421667D02*
G01*
X32817799Y-7425154D01*
X32856374Y-7428529D01*
X32894533Y-7431794D01*
X32932275Y-7434948D01*
X32969599Y-7437992D01*
X33006507Y-7440924D01*
X33042998Y-7443747D01*
X33079072Y-7446458D01*
X33114729Y-7449059D01*
X33149969Y-7451549D01*
X33184793Y-7453928D01*
X33219199Y-7456197D01*
X33253188Y-7458355D01*
X33286761Y-7460403D01*
X33319916Y-7462339D01*
X33352655Y-7464166D01*
X33384976Y-7465881D01*
X33416881Y-7467486D01*
X33448369Y-7468980D01*
X33479440Y-7470363D01*
X33510094Y-7471636D01*
X33540331Y-7472798D01*
X33570151Y-7473849D01*
X33599554Y-7474790D01*
X33628540Y-7475620D01*
X33657109Y-7476340D01*
X33685261Y-7476948D01*
X33712997Y-7477446D01*
X33740315Y-7477834D01*
X33767217Y-7478110D01*
X33793701Y-7478276D01*
X33819769Y-7478332D01*
X33853696Y-7477826D01*
X33886478Y-7476309D01*
X33918115Y-7473781D01*
X33948607Y-7470241D01*
X33977955Y-7465690D01*
X34006157Y-7460128D01*
X34033215Y-7453554D01*
X34059127Y-7445969D01*
X34083895Y-7437373D01*
X34107518Y-7427766D01*
X34129996Y-7417147D01*
X34151329Y-7405517D01*
X34171517Y-7392875D01*
X34190560Y-7379223D01*
X34208459Y-7364558D01*
X34225212Y-7348883D01*
X34240888Y-7332129D01*
X34255552Y-7314231D01*
X34269205Y-7295188D01*
X34281846Y-7275000D01*
X34293476Y-7253666D01*
X34304095Y-7231188D01*
X34313703Y-7207566D01*
X34322299Y-7182798D01*
X34329884Y-7156885D01*
X34336457Y-7129828D01*
X34342020Y-7101625D01*
X34346570Y-7072278D01*
X34350110Y-7041786D01*
X34352638Y-7010149D01*
X34354155Y-6977367D01*
X34354661Y-6943440D01*
X34354661Y-6043161D01*
X34354138Y-6006852D01*
X34352570Y-5971811D01*
X34349956Y-5938037D01*
X34346296Y-5905530D01*
X34341590Y-5874290D01*
X34335839Y-5844316D01*
X34329042Y-5815610D01*
X34321200Y-5788171D01*
X34312312Y-5761999D01*
X34302378Y-5737094D01*
X34291398Y-5713456D01*
X34279373Y-5691085D01*
X34266302Y-5669981D01*
X34252186Y-5650143D01*
X34237024Y-5631573D01*
X34220816Y-5614270D01*
X34203456Y-5598062D01*
X34184836Y-5582900D01*
X34164957Y-5568784D01*
X34143818Y-5555713D01*
X34121421Y-5543688D01*
X34097763Y-5532708D01*
X34072847Y-5522775D01*
X34046671Y-5513886D01*
X34019235Y-5506044D01*
X33990541Y-5499247D01*
X33960587Y-5493496D01*
X33929373Y-5488790D01*
X33896900Y-5485131D01*
X33863168Y-5482517D01*
X33828176Y-5480948D01*
X33791925Y-5480425D01*
X32778806Y-5480425D01*
X32778806Y-5874145D01*
X33679085Y-5874145D01*
X33699552Y-5874805D01*
X33727776Y-5878271D01*
X33753030Y-5884708D01*
X33775312Y-5894116D01*
X33794624Y-5906495D01*
X33810964Y-5921845D01*
X33824333Y-5940167D01*
X33834732Y-5961459D01*
X33842159Y-5985722D01*
X33846616Y-6012956D01*
X33847936Y-6032762D01*
X33848101Y-6043161D01*
X33848101Y-6943440D01*
X33847171Y-6963087D01*
X33843599Y-6984931D01*
X33837348Y-7004886D01*
X33828418Y-7022953D01*
X33816809Y-7039130D01*
X33809999Y-7046510D01*
X33794973Y-7059293D01*
X33775575Y-7070864D01*
X33757348Y-7077916D01*
X33737645Y-7082324D01*
X33716464Y-7084087D01*
X33712791Y-7084124D01*
X33690231Y-7084072D01*
X33666881Y-7083918D01*
X33646819Y-7083710D01*
X33626209Y-7083431D01*
X33605050Y-7083080D01*
X33583342Y-7082658D01*
X33561229Y-7082176D01*
X33538854Y-7081647D01*
X33516216Y-7081070D01*
X33493316Y-7080445D01*
X33470153Y-7079772D01*
X33446728Y-7079052D01*
X33437285Y-7078750D01*
X33413447Y-7077834D01*
X33389562Y-7076919D01*
X33365629Y-7076003D01*
X33341649Y-7075087D01*
X33317620Y-7074171D01*
X33293544Y-7073255D01*
X33283900Y-7072889D01*
X33263895Y-7072072D01*
X33242471Y-7071087D01*
X33219626Y-7069935D01*
X33195362Y-7068614D01*
X33169679Y-7067126D01*
X33149484Y-7065899D01*
X33128491Y-7064579D01*
X33106700Y-7063163D01*
X33084110Y-7061653D01*
X33060592Y-7060071D01*
X33036019Y-7058436D01*
X33010389Y-7056750D01*
X32983703Y-7055013D01*
X32955961Y-7053224D01*
X32927163Y-7051384D01*
X32907377Y-7050128D01*
X32887122Y-7048850D01*
X32866398Y-7047548D01*
X32845204Y-7046224D01*
X32823541Y-7044877D01*
X32801408Y-7043507D01*
X32778806Y-7042114D01*
X32778806Y-7421667D01*
G37*
G36*
X31296741Y-5480425D02*
G01*
X30790669Y-5480425D01*
X30790669Y-6915596D01*
X30791192Y-6951847D01*
X30792761Y-6986839D01*
X30795375Y-7020571D01*
X30799035Y-7053044D01*
X30803740Y-7084257D01*
X30809491Y-7114211D01*
X30816288Y-7142906D01*
X30824131Y-7170341D01*
X30833019Y-7196517D01*
X30842953Y-7221434D01*
X30853932Y-7245091D01*
X30865957Y-7267489D01*
X30879028Y-7288627D01*
X30893145Y-7308507D01*
X30908307Y-7327126D01*
X30924514Y-7344487D01*
X30941818Y-7360694D01*
X30960388Y-7375857D01*
X30980225Y-7389973D01*
X31001329Y-7403044D01*
X31023700Y-7415069D01*
X31047338Y-7426048D01*
X31072243Y-7435982D01*
X31098415Y-7444870D01*
X31125855Y-7452713D01*
X31154561Y-7459510D01*
X31184534Y-7465261D01*
X31215774Y-7469966D01*
X31248281Y-7473626D01*
X31282055Y-7476240D01*
X31317097Y-7477809D01*
X31353405Y-7478332D01*
X32000160Y-7478332D01*
X32036470Y-7477809D01*
X32071517Y-7476240D01*
X32105301Y-7473626D01*
X32137821Y-7469966D01*
X32169079Y-7465261D01*
X32199073Y-7459510D01*
X32227804Y-7452713D01*
X32255272Y-7444870D01*
X32281476Y-7435982D01*
X32306418Y-7426048D01*
X32330096Y-7415069D01*
X32352511Y-7403044D01*
X32373663Y-7389973D01*
X32393551Y-7375857D01*
X32412177Y-7360694D01*
X32429539Y-7344487D01*
X32445688Y-7327126D01*
X32460794Y-7308507D01*
X32474859Y-7288627D01*
X32487882Y-7267489D01*
X32499864Y-7245091D01*
X32510803Y-7221434D01*
X32520701Y-7196517D01*
X32529556Y-7170341D01*
X32537370Y-7142906D01*
X32544142Y-7114211D01*
X32549872Y-7084257D01*
X32554561Y-7053044D01*
X32558207Y-7020571D01*
X32560812Y-6986839D01*
X32562375Y-6951847D01*
X32562895Y-6915596D01*
X32562895Y-5480425D01*
X32056824Y-5480425D01*
X32056824Y-6915596D01*
X32056164Y-6936004D01*
X32052698Y-6964147D01*
X32046261Y-6989327D01*
X32036853Y-7011545D01*
X32024474Y-7030801D01*
X32009123Y-7047094D01*
X31990802Y-7060425D01*
X31969510Y-7070793D01*
X31945247Y-7078199D01*
X31918013Y-7082643D01*
X31898207Y-7083959D01*
X31887808Y-7084124D01*
X31465757Y-7084124D01*
X31445290Y-7083465D01*
X31417065Y-7080009D01*
X31391812Y-7073591D01*
X31369530Y-7064210D01*
X31350218Y-7051866D01*
X31333878Y-7036561D01*
X31320508Y-7018293D01*
X31310110Y-6997062D01*
X31302683Y-6972869D01*
X31298226Y-6945714D01*
X31296906Y-6925965D01*
X31296741Y-6915596D01*
X31296741Y-5480425D01*
G37*
G36*
X30548869Y-6662072D02*
G01*
X30548869Y-6268353D01*
X29395554Y-6268353D01*
X29395554Y-6662072D01*
X30548869Y-6662072D01*
G37*
G36*
X27588157Y-7450000D02*
G01*
X29149357Y-7450000D01*
X29149357Y-5480425D01*
X27588157Y-5480425D01*
X27588157Y-5874145D01*
X28643286Y-5874145D01*
X28643286Y-6254187D01*
X27812861Y-6254187D01*
X27812861Y-6647906D01*
X28643286Y-6647906D01*
X28643286Y-7056280D01*
X27588157Y-7056280D01*
X27588157Y-7450000D01*
G37*
G36*
X27430376Y-7042114D02*
G01*
X27382685Y-7044699D01*
X27335967Y-7047201D01*
X27290220Y-7049622D01*
X27245446Y-7051960D01*
X27201644Y-7054216D01*
X27158815Y-7056391D01*
X27116957Y-7058483D01*
X27076072Y-7060493D01*
X27036158Y-7062421D01*
X26997217Y-7064268D01*
X26959249Y-7066032D01*
X26922252Y-7067714D01*
X26886228Y-7069314D01*
X26851175Y-7070832D01*
X26817095Y-7072267D01*
X26783988Y-7073621D01*
X26751852Y-7074893D01*
X26720689Y-7076083D01*
X26690497Y-7077190D01*
X26661278Y-7078216D01*
X26633032Y-7079160D01*
X26605757Y-7080021D01*
X26579455Y-7080801D01*
X26554125Y-7081498D01*
X26529767Y-7082113D01*
X26506381Y-7082647D01*
X26483967Y-7083098D01*
X26462526Y-7083467D01*
X26442057Y-7083754D01*
X26404035Y-7084083D01*
X26386482Y-7084124D01*
X26363230Y-7082801D01*
X26341832Y-7078834D01*
X26322288Y-7072223D01*
X26304600Y-7062966D01*
X26288766Y-7051065D01*
X26283900Y-7046510D01*
X26270952Y-7031278D01*
X26260682Y-7014156D01*
X26253091Y-6995145D01*
X26248180Y-6974245D01*
X26245947Y-6951456D01*
X26245798Y-6943440D01*
X26245798Y-6690404D01*
X26893042Y-6690404D01*
X26929352Y-6689883D01*
X26964399Y-6688321D01*
X26998183Y-6685716D01*
X27030703Y-6682069D01*
X27061961Y-6677381D01*
X27091955Y-6671651D01*
X27120686Y-6664879D01*
X27148154Y-6657065D01*
X27174358Y-6648209D01*
X27199300Y-6638312D01*
X27222978Y-6627372D01*
X27245393Y-6615391D01*
X27266545Y-6602368D01*
X27286433Y-6588303D01*
X27305059Y-6573196D01*
X27322421Y-6557048D01*
X27338570Y-6539685D01*
X27353676Y-6521060D01*
X27367741Y-6501171D01*
X27380764Y-6480020D01*
X27392746Y-6457605D01*
X27403685Y-6433926D01*
X27413583Y-6408985D01*
X27422438Y-6382780D01*
X27430252Y-6355313D01*
X27437024Y-6326582D01*
X27442754Y-6296587D01*
X27447443Y-6265330D01*
X27451089Y-6232810D01*
X27453694Y-6199026D01*
X27455257Y-6163979D01*
X27455778Y-6127669D01*
X27455778Y-6043161D01*
X27455257Y-6006852D01*
X27453694Y-5971811D01*
X27451089Y-5938037D01*
X27447443Y-5905530D01*
X27442754Y-5874290D01*
X27437024Y-5844316D01*
X27430252Y-5815610D01*
X27422438Y-5788171D01*
X27413583Y-5761999D01*
X27403685Y-5737094D01*
X27392746Y-5713456D01*
X27380764Y-5691085D01*
X27367741Y-5669981D01*
X27353676Y-5650143D01*
X27338570Y-5631573D01*
X27322421Y-5614270D01*
X27305059Y-5598062D01*
X27286433Y-5582900D01*
X27266545Y-5568784D01*
X27245393Y-5555713D01*
X27222978Y-5543688D01*
X27199300Y-5532708D01*
X27174358Y-5522775D01*
X27148154Y-5513886D01*
X27120686Y-5506044D01*
X27091955Y-5499247D01*
X27061961Y-5493496D01*
X27030703Y-5488790D01*
X26998183Y-5485131D01*
X26964399Y-5482517D01*
X26929352Y-5480948D01*
X26893042Y-5480425D01*
X25905324Y-5480425D01*
X25905324Y-5874145D01*
X26780690Y-5874145D01*
X26801098Y-5874805D01*
X26829241Y-5878271D01*
X26854421Y-5884708D01*
X26876639Y-5894116D01*
X26895895Y-5906495D01*
X26912188Y-5921845D01*
X26925519Y-5940167D01*
X26935887Y-5961459D01*
X26943293Y-5985722D01*
X26947737Y-6012956D01*
X26949053Y-6032762D01*
X26949218Y-6043161D01*
X26949218Y-6099337D01*
X26948560Y-6119803D01*
X26945103Y-6148028D01*
X26938685Y-6173281D01*
X26929304Y-6195563D01*
X26916961Y-6214875D01*
X26901655Y-6231215D01*
X26883387Y-6244585D01*
X26862156Y-6254983D01*
X26837963Y-6262411D01*
X26810808Y-6266867D01*
X26791059Y-6268188D01*
X26780690Y-6268353D01*
X26274131Y-6268353D01*
X26240263Y-6268858D01*
X26207536Y-6270375D01*
X26175951Y-6272904D01*
X26145506Y-6276443D01*
X26116203Y-6280994D01*
X26088041Y-6286556D01*
X26061019Y-6293130D01*
X26035139Y-6300715D01*
X26010400Y-6309311D01*
X25986802Y-6318919D01*
X25964345Y-6329537D01*
X25943029Y-6341168D01*
X25922854Y-6353809D01*
X25903820Y-6367462D01*
X25885928Y-6382126D01*
X25869176Y-6397801D01*
X25853501Y-6414553D01*
X25838836Y-6432446D01*
X25825184Y-6451479D01*
X25812542Y-6471654D01*
X25800912Y-6492970D01*
X25790293Y-6515427D01*
X25780686Y-6539025D01*
X25772089Y-6563764D01*
X25764505Y-6589645D01*
X25757931Y-6616666D01*
X25752369Y-6644828D01*
X25747818Y-6674132D01*
X25744278Y-6704576D01*
X25741750Y-6736162D01*
X25740233Y-6768888D01*
X25739727Y-6802756D01*
X25739727Y-6943440D01*
X25740233Y-6977367D01*
X25741750Y-7010149D01*
X25744278Y-7041786D01*
X25747818Y-7072278D01*
X25752369Y-7101625D01*
X25757931Y-7129828D01*
X25764505Y-7156885D01*
X25772089Y-7182798D01*
X25780686Y-7207566D01*
X25790293Y-7231188D01*
X25800912Y-7253666D01*
X25812542Y-7275000D01*
X25825184Y-7295188D01*
X25838836Y-7314231D01*
X25853501Y-7332129D01*
X25869176Y-7348883D01*
X25885928Y-7364558D01*
X25903820Y-7379223D01*
X25922854Y-7392875D01*
X25943029Y-7405517D01*
X25964345Y-7417147D01*
X25986802Y-7427766D01*
X26010400Y-7437373D01*
X26035139Y-7445969D01*
X26061019Y-7453554D01*
X26088041Y-7460128D01*
X26116203Y-7465690D01*
X26145506Y-7470241D01*
X26175951Y-7473781D01*
X26207536Y-7476309D01*
X26240263Y-7477826D01*
X26274131Y-7478332D01*
X26301204Y-7478280D01*
X26328570Y-7478126D01*
X26356228Y-7477868D01*
X26384177Y-7477507D01*
X26412419Y-7477044D01*
X26440952Y-7476477D01*
X26469778Y-7475807D01*
X26498895Y-7475034D01*
X26518469Y-7474462D01*
X26538172Y-7473844D01*
X26558006Y-7473180D01*
X26577969Y-7472470D01*
X26836866Y-7461235D01*
X26872844Y-7459420D01*
X26908971Y-7457518D01*
X26945247Y-7455527D01*
X26981672Y-7453449D01*
X27018245Y-7451284D01*
X27054967Y-7449030D01*
X27091839Y-7446689D01*
X27128858Y-7444260D01*
X27166027Y-7441743D01*
X27203345Y-7439138D01*
X27240811Y-7436446D01*
X27278427Y-7433666D01*
X27316191Y-7430798D01*
X27354104Y-7427842D01*
X27392166Y-7424799D01*
X27430376Y-7421667D01*
X27430376Y-7042114D01*
G37*
G36*
X25495484Y-7450000D02*
G01*
X24989413Y-7450000D01*
X24989413Y-6887264D01*
X24313838Y-6887264D01*
X24277529Y-6886743D01*
X24242488Y-6885180D01*
X24208714Y-6882576D01*
X24176207Y-6878929D01*
X24144967Y-6874241D01*
X24114993Y-6868511D01*
X24086287Y-6861739D01*
X24058848Y-6853925D01*
X24032676Y-6845069D01*
X24007771Y-6835172D01*
X23984133Y-6824232D01*
X23961761Y-6812251D01*
X23940657Y-6799228D01*
X23920820Y-6785163D01*
X23902250Y-6770056D01*
X23884947Y-6753907D01*
X23868739Y-6736545D01*
X23853577Y-6717920D01*
X23839461Y-6698031D01*
X23826390Y-6676879D01*
X23814365Y-6654464D01*
X23803385Y-6630786D01*
X23793451Y-6605845D01*
X23784563Y-6579640D01*
X23776721Y-6552172D01*
X23769924Y-6523441D01*
X23764173Y-6493447D01*
X23759467Y-6462190D01*
X23755808Y-6429669D01*
X23753193Y-6395886D01*
X23751625Y-6360839D01*
X23751102Y-6324528D01*
X24257662Y-6324528D01*
X24257827Y-6334927D01*
X24259147Y-6354733D01*
X24263604Y-6381968D01*
X24271031Y-6406231D01*
X24281430Y-6427523D01*
X24294799Y-6445844D01*
X24311139Y-6461194D01*
X24330451Y-6473573D01*
X24352733Y-6482981D01*
X24377987Y-6489418D01*
X24406211Y-6492884D01*
X24426678Y-6493545D01*
X24989413Y-6493545D01*
X24989413Y-5874145D01*
X24426678Y-5874145D01*
X24416279Y-5874310D01*
X24396473Y-5875630D01*
X24369239Y-5880087D01*
X24344976Y-5887514D01*
X24323684Y-5897913D01*
X24305363Y-5911282D01*
X24290012Y-5927622D01*
X24277633Y-5946934D01*
X24268225Y-5969216D01*
X24261788Y-5994470D01*
X24258322Y-6022694D01*
X24257662Y-6043161D01*
X24257662Y-6324528D01*
X23751102Y-6324528D01*
X23751102Y-6043161D01*
X23751625Y-6006852D01*
X23753193Y-5971811D01*
X23755808Y-5938037D01*
X23759467Y-5905530D01*
X23764173Y-5874290D01*
X23769924Y-5844316D01*
X23776721Y-5815610D01*
X23784563Y-5788171D01*
X23793451Y-5761999D01*
X23803385Y-5737094D01*
X23814365Y-5713456D01*
X23826390Y-5691085D01*
X23839461Y-5669981D01*
X23853577Y-5650143D01*
X23868739Y-5631573D01*
X23884947Y-5614270D01*
X23902250Y-5598062D01*
X23920820Y-5582900D01*
X23940657Y-5568784D01*
X23961761Y-5555713D01*
X23984133Y-5543688D01*
X24007771Y-5532708D01*
X24032676Y-5522775D01*
X24058848Y-5513886D01*
X24086287Y-5506044D01*
X24114993Y-5499247D01*
X24144967Y-5493496D01*
X24176207Y-5488790D01*
X24208714Y-5485131D01*
X24242488Y-5482517D01*
X24277529Y-5480948D01*
X24313838Y-5480425D01*
X25495484Y-5480425D01*
X25495484Y-7450000D01*
G37*
G36*
X22580202Y-7478332D02*
G01*
X22609671Y-7478276D01*
X22639337Y-7478110D01*
X22669201Y-7477834D01*
X22699263Y-7477446D01*
X22729522Y-7476948D01*
X22759978Y-7476340D01*
X22790632Y-7475620D01*
X22821483Y-7474790D01*
X22852532Y-7473849D01*
X22883779Y-7472798D01*
X22915222Y-7471636D01*
X22946864Y-7470363D01*
X22978703Y-7468980D01*
X23010739Y-7467486D01*
X23042973Y-7465881D01*
X23075404Y-7464166D01*
X23108033Y-7462339D01*
X23140859Y-7460403D01*
X23173883Y-7458355D01*
X23207105Y-7456197D01*
X23240523Y-7453928D01*
X23274140Y-7451549D01*
X23307953Y-7449059D01*
X23341965Y-7446458D01*
X23376174Y-7443747D01*
X23410580Y-7440924D01*
X23445184Y-7437992D01*
X23479985Y-7434948D01*
X23514984Y-7431794D01*
X23550180Y-7428529D01*
X23585574Y-7425154D01*
X23621165Y-7421667D01*
X23621165Y-7042114D01*
X23582607Y-7044699D01*
X23544665Y-7047201D01*
X23507339Y-7049622D01*
X23470627Y-7051960D01*
X23434531Y-7054216D01*
X23399051Y-7056391D01*
X23364186Y-7058483D01*
X23329936Y-7060493D01*
X23296301Y-7062421D01*
X23263282Y-7064268D01*
X23230879Y-7066032D01*
X23199090Y-7067714D01*
X23167917Y-7069314D01*
X23137360Y-7070832D01*
X23107418Y-7072267D01*
X23078091Y-7073621D01*
X23049379Y-7074893D01*
X23021283Y-7076083D01*
X22993803Y-7077190D01*
X22966937Y-7078216D01*
X22940688Y-7079160D01*
X22915053Y-7080021D01*
X22890034Y-7080801D01*
X22865630Y-7081498D01*
X22841842Y-7082113D01*
X22818669Y-7082647D01*
X22796111Y-7083098D01*
X22774169Y-7083467D01*
X22752842Y-7083754D01*
X22732130Y-7083960D01*
X22712034Y-7084083D01*
X22692554Y-7084124D01*
X22669301Y-7082801D01*
X22647903Y-7078834D01*
X22628360Y-7072223D01*
X22610671Y-7062966D01*
X22594837Y-7051065D01*
X22589972Y-7046510D01*
X22577023Y-7031278D01*
X22566753Y-7014156D01*
X22559163Y-6995145D01*
X22554251Y-6974245D01*
X22552018Y-6951456D01*
X22551870Y-6943440D01*
X22551870Y-6831088D01*
X22552530Y-6810621D01*
X22555996Y-6782397D01*
X22562433Y-6757144D01*
X22571841Y-6734861D01*
X22584220Y-6715550D01*
X22599570Y-6699209D01*
X22617892Y-6685840D01*
X22639184Y-6675442D01*
X22663447Y-6668014D01*
X22690681Y-6663558D01*
X22710487Y-6662237D01*
X22720886Y-6662072D01*
X23311465Y-6662072D01*
X23311465Y-6268353D01*
X22777062Y-6268353D01*
X22756595Y-6267692D01*
X22728370Y-6264226D01*
X22703117Y-6257789D01*
X22680835Y-6248381D01*
X22661523Y-6236002D01*
X22645183Y-6220652D01*
X22631813Y-6202331D01*
X22621415Y-6181039D01*
X22613987Y-6156776D01*
X22609531Y-6129542D01*
X22608211Y-6109735D01*
X22608046Y-6099337D01*
X22608046Y-6043161D01*
X22608706Y-6022694D01*
X22612172Y-5994470D01*
X22618609Y-5969216D01*
X22628017Y-5946934D01*
X22640396Y-5927622D01*
X22655746Y-5911282D01*
X22674067Y-5897913D01*
X22695359Y-5887514D01*
X22719623Y-5880087D01*
X22746857Y-5875630D01*
X22766663Y-5874310D01*
X22777062Y-5874145D01*
X23592833Y-5874145D01*
X23592833Y-5480425D01*
X22636378Y-5480425D01*
X22602451Y-5480916D01*
X22569669Y-5482387D01*
X22538032Y-5484839D01*
X22507540Y-5488271D01*
X22478192Y-5492685D01*
X22449990Y-5498079D01*
X22422932Y-5504454D01*
X22397020Y-5511810D01*
X22372252Y-5520147D01*
X22348629Y-5529465D01*
X22326151Y-5539763D01*
X22304818Y-5551042D01*
X22284630Y-5563302D01*
X22265587Y-5576542D01*
X22247688Y-5590764D01*
X22230935Y-5605966D01*
X22215259Y-5622109D01*
X22200595Y-5639275D01*
X22186942Y-5657463D01*
X22174301Y-5676674D01*
X22162671Y-5696908D01*
X22152052Y-5718165D01*
X22142444Y-5740445D01*
X22133848Y-5763747D01*
X22126263Y-5788072D01*
X22119690Y-5813420D01*
X22114127Y-5839790D01*
X22109576Y-5867184D01*
X22106037Y-5895600D01*
X22103508Y-5925039D01*
X22101992Y-5955500D01*
X22101486Y-5986985D01*
X22101789Y-6007805D01*
X22102699Y-6028132D01*
X22104216Y-6047967D01*
X22107630Y-6076797D01*
X22112408Y-6104519D01*
X22118552Y-6131133D01*
X22126061Y-6156640D01*
X22134935Y-6181039D01*
X22145175Y-6204330D01*
X22156780Y-6226514D01*
X22169750Y-6247590D01*
X22179155Y-6261025D01*
X22194060Y-6280255D01*
X22209832Y-6298377D01*
X22226472Y-6315392D01*
X22243979Y-6331299D01*
X22262353Y-6346098D01*
X22281594Y-6359789D01*
X22301702Y-6372373D01*
X22322678Y-6383849D01*
X22344521Y-6394217D01*
X22367232Y-6403478D01*
X22382854Y-6409036D01*
X22354970Y-6417493D01*
X22328227Y-6427355D01*
X22302626Y-6438620D01*
X22278165Y-6451290D01*
X22254846Y-6465365D01*
X22232667Y-6480844D01*
X22211630Y-6497727D01*
X22191734Y-6516015D01*
X22172978Y-6535707D01*
X22155364Y-6556803D01*
X22138891Y-6579304D01*
X22123559Y-6603210D01*
X22109368Y-6628519D01*
X22096319Y-6655233D01*
X22084410Y-6683352D01*
X22073642Y-6712875D01*
X22067002Y-6735063D01*
X22061247Y-6758151D01*
X22056377Y-6782140D01*
X22052393Y-6807030D01*
X22049294Y-6832821D01*
X22047551Y-6852755D01*
X22046306Y-6873195D01*
X22045559Y-6894142D01*
X22045310Y-6915596D01*
X22045310Y-6943440D01*
X22045816Y-6977367D01*
X22047333Y-7010149D01*
X22049861Y-7041786D01*
X22053401Y-7072278D01*
X22057951Y-7101625D01*
X22063514Y-7129828D01*
X22070087Y-7156885D01*
X22077672Y-7182798D01*
X22086268Y-7207566D01*
X22095876Y-7231188D01*
X22106495Y-7253666D01*
X22118125Y-7275000D01*
X22130766Y-7295188D01*
X22144419Y-7314231D01*
X22159083Y-7332129D01*
X22174759Y-7348883D01*
X22191512Y-7364558D01*
X22209411Y-7379223D01*
X22228454Y-7392875D01*
X22248642Y-7405517D01*
X22269975Y-7417147D01*
X22292453Y-7427766D01*
X22316076Y-7437373D01*
X22340844Y-7445969D01*
X22366756Y-7453554D01*
X22393814Y-7460128D01*
X22422016Y-7465690D01*
X22451364Y-7470241D01*
X22481856Y-7473781D01*
X22513493Y-7476309D01*
X22546275Y-7477826D01*
X22580202Y-7478332D01*
G37*
G36*
X20393740Y-6099337D02*
G01*
X20394532Y-6129003D01*
X20396907Y-6158161D01*
X20400867Y-6186812D01*
X20406410Y-6214955D01*
X20413537Y-6242591D01*
X20422248Y-6269719D01*
X20432542Y-6296339D01*
X20444420Y-6322452D01*
X20457882Y-6348058D01*
X20472928Y-6373156D01*
X20489557Y-6397746D01*
X20507771Y-6421829D01*
X20527568Y-6445404D01*
X20548949Y-6468471D01*
X20571913Y-6491031D01*
X20596461Y-6513084D01*
X20612146Y-6526403D01*
X20628182Y-6539737D01*
X20644570Y-6553086D01*
X20661308Y-6566451D01*
X20678397Y-6579831D01*
X20695838Y-6593226D01*
X20713629Y-6606637D01*
X20731772Y-6620062D01*
X21336517Y-7056280D01*
X20393740Y-7056280D01*
X20393740Y-7450000D01*
X21913419Y-7450000D01*
X21913419Y-6915596D01*
X20900300Y-6183845D01*
X20900300Y-6043161D01*
X20900960Y-6022694D01*
X20904426Y-5994470D01*
X20910863Y-5969216D01*
X20920271Y-5946934D01*
X20932650Y-5927622D01*
X20948000Y-5911282D01*
X20966321Y-5897913D01*
X20987613Y-5887514D01*
X21011877Y-5880087D01*
X21039111Y-5875630D01*
X21058917Y-5874310D01*
X21069316Y-5874145D01*
X21857243Y-5874145D01*
X21857243Y-5480425D01*
X20956475Y-5480425D01*
X20920224Y-5480948D01*
X20885233Y-5482517D01*
X20851501Y-5485131D01*
X20819028Y-5488790D01*
X20787814Y-5493496D01*
X20757860Y-5499247D01*
X20729165Y-5506044D01*
X20701730Y-5513886D01*
X20675554Y-5522775D01*
X20650638Y-5532708D01*
X20626980Y-5543688D01*
X20604583Y-5555713D01*
X20583444Y-5568784D01*
X20563565Y-5582900D01*
X20544945Y-5598062D01*
X20527585Y-5614270D01*
X20511377Y-5631573D01*
X20496215Y-5650143D01*
X20482099Y-5669981D01*
X20469028Y-5691085D01*
X20457003Y-5713456D01*
X20446023Y-5737094D01*
X20436089Y-5761999D01*
X20427201Y-5788171D01*
X20419359Y-5815610D01*
X20412562Y-5844316D01*
X20406811Y-5874290D01*
X20402105Y-5905530D01*
X20398445Y-5938037D01*
X20395831Y-5971811D01*
X20394263Y-6006852D01*
X20393740Y-6043161D01*
X20393740Y-6099337D01*
G37*
G36*
X20208604Y-7042114D02*
G01*
X20160913Y-7044699D01*
X20114194Y-7047201D01*
X20068448Y-7049622D01*
X20023674Y-7051960D01*
X19979872Y-7054216D01*
X19937042Y-7056391D01*
X19895184Y-7058483D01*
X19854299Y-7060493D01*
X19814386Y-7062421D01*
X19775445Y-7064268D01*
X19737476Y-7066032D01*
X19700479Y-7067714D01*
X19664455Y-7069314D01*
X19629403Y-7070832D01*
X19595323Y-7072267D01*
X19562215Y-7073621D01*
X19530080Y-7074893D01*
X19498916Y-7076083D01*
X19468725Y-7077190D01*
X19439506Y-7078216D01*
X19411259Y-7079160D01*
X19383985Y-7080021D01*
X19357682Y-7080801D01*
X19332352Y-7081498D01*
X19307994Y-7082113D01*
X19284608Y-7082647D01*
X19262195Y-7083098D01*
X19240753Y-7083467D01*
X19220284Y-7083754D01*
X19182262Y-7084083D01*
X19164710Y-7084124D01*
X19141457Y-7082801D01*
X19120059Y-7078834D01*
X19100516Y-7072223D01*
X19082827Y-7062966D01*
X19066994Y-7051065D01*
X19062128Y-7046510D01*
X19049179Y-7031278D01*
X19038910Y-7014156D01*
X19031319Y-6995145D01*
X19026407Y-6974245D01*
X19024175Y-6951456D01*
X19024026Y-6943440D01*
X19024026Y-6690404D01*
X19671270Y-6690404D01*
X19707580Y-6689883D01*
X19742627Y-6688321D01*
X19776410Y-6685716D01*
X19808931Y-6682069D01*
X19840188Y-6677381D01*
X19870182Y-6671651D01*
X19898913Y-6664879D01*
X19926381Y-6657065D01*
X19952586Y-6648209D01*
X19977527Y-6638312D01*
X20001205Y-6627372D01*
X20023620Y-6615391D01*
X20044772Y-6602368D01*
X20064661Y-6588303D01*
X20083286Y-6573196D01*
X20100648Y-6557048D01*
X20116797Y-6539685D01*
X20131904Y-6521060D01*
X20145969Y-6501171D01*
X20158992Y-6480020D01*
X20170973Y-6457605D01*
X20181913Y-6433926D01*
X20191810Y-6408985D01*
X20200666Y-6382780D01*
X20208480Y-6355313D01*
X20215252Y-6326582D01*
X20220982Y-6296587D01*
X20225670Y-6265330D01*
X20229317Y-6232810D01*
X20231921Y-6199026D01*
X20233484Y-6163979D01*
X20234005Y-6127669D01*
X20234005Y-6043161D01*
X20233484Y-6006852D01*
X20231921Y-5971811D01*
X20229317Y-5938037D01*
X20225670Y-5905530D01*
X20220982Y-5874290D01*
X20215252Y-5844316D01*
X20208480Y-5815610D01*
X20200666Y-5788171D01*
X20191810Y-5761999D01*
X20181913Y-5737094D01*
X20170973Y-5713456D01*
X20158992Y-5691085D01*
X20145969Y-5669981D01*
X20131904Y-5650143D01*
X20116797Y-5631573D01*
X20100648Y-5614270D01*
X20083286Y-5598062D01*
X20064661Y-5582900D01*
X20044772Y-5568784D01*
X20023620Y-5555713D01*
X20001205Y-5543688D01*
X19977527Y-5532708D01*
X19952586Y-5522775D01*
X19926381Y-5513886D01*
X19898913Y-5506044D01*
X19870182Y-5499247D01*
X19840188Y-5493496D01*
X19808931Y-5488790D01*
X19776410Y-5485131D01*
X19742627Y-5482517D01*
X19707580Y-5480948D01*
X19671270Y-5480425D01*
X18683551Y-5480425D01*
X18683551Y-5874145D01*
X19558918Y-5874145D01*
X19579325Y-5874805D01*
X19607468Y-5878271D01*
X19632649Y-5884708D01*
X19654867Y-5894116D01*
X19674122Y-5906495D01*
X19690415Y-5921845D01*
X19703746Y-5940167D01*
X19714115Y-5961459D01*
X19721521Y-5985722D01*
X19725964Y-6012956D01*
X19727281Y-6032762D01*
X19727445Y-6043161D01*
X19727445Y-6099337D01*
X19726787Y-6119803D01*
X19723331Y-6148028D01*
X19716912Y-6173281D01*
X19707531Y-6195563D01*
X19695188Y-6214875D01*
X19679882Y-6231215D01*
X19661614Y-6244585D01*
X19640384Y-6254983D01*
X19616191Y-6262411D01*
X19589036Y-6266867D01*
X19569286Y-6268188D01*
X19558918Y-6268353D01*
X19052358Y-6268353D01*
X19018490Y-6268858D01*
X18985764Y-6270375D01*
X18954178Y-6272904D01*
X18923734Y-6276443D01*
X18894430Y-6280994D01*
X18866268Y-6286556D01*
X18839247Y-6293130D01*
X18813367Y-6300715D01*
X18788627Y-6309311D01*
X18765029Y-6318919D01*
X18742572Y-6329537D01*
X18721256Y-6341168D01*
X18701082Y-6353809D01*
X18682048Y-6367462D01*
X18664155Y-6382126D01*
X18647404Y-6397801D01*
X18631728Y-6414553D01*
X18617064Y-6432446D01*
X18603411Y-6451479D01*
X18590770Y-6471654D01*
X18579140Y-6492970D01*
X18568521Y-6515427D01*
X18558913Y-6539025D01*
X18550317Y-6563764D01*
X18542732Y-6589645D01*
X18536159Y-6616666D01*
X18530596Y-6644828D01*
X18526045Y-6674132D01*
X18522506Y-6704576D01*
X18519977Y-6736162D01*
X18518460Y-6768888D01*
X18517955Y-6802756D01*
X18517955Y-6943440D01*
X18518460Y-6977367D01*
X18519977Y-7010149D01*
X18522506Y-7041786D01*
X18526045Y-7072278D01*
X18530596Y-7101625D01*
X18536159Y-7129828D01*
X18542732Y-7156885D01*
X18550317Y-7182798D01*
X18558913Y-7207566D01*
X18568521Y-7231188D01*
X18579140Y-7253666D01*
X18590770Y-7275000D01*
X18603411Y-7295188D01*
X18617064Y-7314231D01*
X18631728Y-7332129D01*
X18647404Y-7348883D01*
X18664155Y-7364558D01*
X18682048Y-7379223D01*
X18701082Y-7392875D01*
X18721256Y-7405517D01*
X18742572Y-7417147D01*
X18765029Y-7427766D01*
X18788627Y-7437373D01*
X18813367Y-7445969D01*
X18839247Y-7453554D01*
X18866268Y-7460128D01*
X18894430Y-7465690D01*
X18923734Y-7470241D01*
X18954178Y-7473781D01*
X18985764Y-7476309D01*
X19018490Y-7477826D01*
X19052358Y-7478332D01*
X19079432Y-7478280D01*
X19106798Y-7478126D01*
X19134455Y-7477868D01*
X19162405Y-7477507D01*
X19190646Y-7477044D01*
X19219180Y-7476477D01*
X19248005Y-7475807D01*
X19277123Y-7475034D01*
X19296696Y-7474462D01*
X19316400Y-7473844D01*
X19336233Y-7473180D01*
X19356196Y-7472470D01*
X19615094Y-7461235D01*
X19651072Y-7459420D01*
X19687199Y-7457518D01*
X19723475Y-7455527D01*
X19759899Y-7453449D01*
X19796473Y-7451284D01*
X19833195Y-7449030D01*
X19870066Y-7446689D01*
X19907086Y-7444260D01*
X19944255Y-7441743D01*
X19981572Y-7439138D01*
X20019039Y-7436446D01*
X20056654Y-7433666D01*
X20094418Y-7430798D01*
X20132331Y-7427842D01*
X20170393Y-7424799D01*
X20208604Y-7421667D01*
X20208604Y-7042114D01*
G37*
G36*
X17345589Y-7478332D02*
G01*
X17375058Y-7478276D01*
X17404725Y-7478110D01*
X17434588Y-7477834D01*
X17464650Y-7477446D01*
X17494909Y-7476948D01*
X17525365Y-7476340D01*
X17556019Y-7475620D01*
X17586871Y-7474790D01*
X17617919Y-7473849D01*
X17649166Y-7472798D01*
X17680610Y-7471636D01*
X17712251Y-7470363D01*
X17744090Y-7468980D01*
X17776126Y-7467486D01*
X17808360Y-7465881D01*
X17840792Y-7464166D01*
X17873420Y-7462339D01*
X17906247Y-7460403D01*
X17939271Y-7458355D01*
X17972492Y-7456197D01*
X18005911Y-7453928D01*
X18039527Y-7451549D01*
X18073341Y-7449059D01*
X18107352Y-7446458D01*
X18141561Y-7443747D01*
X18175967Y-7440924D01*
X18210571Y-7437992D01*
X18245372Y-7434948D01*
X18280371Y-7431794D01*
X18315567Y-7428529D01*
X18350961Y-7425154D01*
X18386552Y-7421667D01*
X18386552Y-7042114D01*
X18347995Y-7044699D01*
X18310053Y-7047201D01*
X18272726Y-7049622D01*
X18236015Y-7051960D01*
X18199919Y-7054216D01*
X18164438Y-7056391D01*
X18129573Y-7058483D01*
X18095323Y-7060493D01*
X18061689Y-7062421D01*
X18028670Y-7064268D01*
X17996266Y-7066032D01*
X17964478Y-7067714D01*
X17933305Y-7069314D01*
X17902747Y-7070832D01*
X17872805Y-7072267D01*
X17843478Y-7073621D01*
X17814767Y-7074893D01*
X17786671Y-7076083D01*
X17759190Y-7077190D01*
X17732325Y-7078216D01*
X17706075Y-7079160D01*
X17680440Y-7080021D01*
X17655421Y-7080801D01*
X17631017Y-7081498D01*
X17607229Y-7082113D01*
X17584056Y-7082647D01*
X17561498Y-7083098D01*
X17539556Y-7083467D01*
X17518229Y-7083754D01*
X17497518Y-7083960D01*
X17477422Y-7084083D01*
X17457941Y-7084124D01*
X17434688Y-7082801D01*
X17413290Y-7078834D01*
X17393747Y-7072223D01*
X17376058Y-7062966D01*
X17360225Y-7051065D01*
X17355359Y-7046510D01*
X17342410Y-7031278D01*
X17332141Y-7014156D01*
X17324550Y-6995145D01*
X17319638Y-6974245D01*
X17317406Y-6951456D01*
X17317257Y-6943440D01*
X17317257Y-6831088D01*
X17317917Y-6810621D01*
X17321383Y-6782397D01*
X17327820Y-6757144D01*
X17337229Y-6734861D01*
X17349608Y-6715550D01*
X17364958Y-6699209D01*
X17383279Y-6685840D01*
X17404571Y-6675442D01*
X17428834Y-6668014D01*
X17456068Y-6663558D01*
X17475875Y-6662237D01*
X17486273Y-6662072D01*
X18076852Y-6662072D01*
X18076852Y-6268353D01*
X17542449Y-6268353D01*
X17521982Y-6267692D01*
X17493758Y-6264226D01*
X17468504Y-6257789D01*
X17446222Y-6248381D01*
X17426911Y-6236002D01*
X17410570Y-6220652D01*
X17397201Y-6202331D01*
X17386802Y-6181039D01*
X17379375Y-6156776D01*
X17374918Y-6129542D01*
X17373598Y-6109735D01*
X17373433Y-6099337D01*
X17373433Y-6043161D01*
X17374093Y-6022694D01*
X17377559Y-5994470D01*
X17383996Y-5969216D01*
X17393404Y-5946934D01*
X17405784Y-5927622D01*
X17421134Y-5911282D01*
X17439455Y-5897913D01*
X17460747Y-5887514D01*
X17485010Y-5880087D01*
X17512244Y-5875630D01*
X17532050Y-5874310D01*
X17542449Y-5874145D01*
X18358220Y-5874145D01*
X18358220Y-5480425D01*
X17401765Y-5480425D01*
X17367838Y-5480916D01*
X17335056Y-5482387D01*
X17303419Y-5484839D01*
X17272927Y-5488271D01*
X17243580Y-5492685D01*
X17215377Y-5498079D01*
X17188320Y-5504454D01*
X17162407Y-5511810D01*
X17137639Y-5520147D01*
X17114016Y-5529465D01*
X17091538Y-5539763D01*
X17070205Y-5551042D01*
X17050017Y-5563302D01*
X17030974Y-5576542D01*
X17013075Y-5590764D01*
X16996322Y-5605966D01*
X16980646Y-5622109D01*
X16965982Y-5639275D01*
X16952330Y-5657463D01*
X16939688Y-5676674D01*
X16928058Y-5696908D01*
X16917439Y-5718165D01*
X16907832Y-5740445D01*
X16899235Y-5763747D01*
X16891650Y-5788072D01*
X16885077Y-5813420D01*
X16879515Y-5839790D01*
X16874964Y-5867184D01*
X16871424Y-5895600D01*
X16868896Y-5925039D01*
X16867379Y-5955500D01*
X16866873Y-5986985D01*
X16867177Y-6007805D01*
X16868087Y-6028132D01*
X16869604Y-6047967D01*
X16873017Y-6076797D01*
X16877795Y-6104519D01*
X16883939Y-6131133D01*
X16891448Y-6156640D01*
X16900322Y-6181039D01*
X16910562Y-6204330D01*
X16922167Y-6226514D01*
X16935137Y-6247590D01*
X16944542Y-6261025D01*
X16959447Y-6280255D01*
X16975220Y-6298377D01*
X16991859Y-6315392D01*
X17009366Y-6331299D01*
X17027740Y-6346098D01*
X17046981Y-6359789D01*
X17067090Y-6372373D01*
X17088066Y-6383849D01*
X17109909Y-6394217D01*
X17132619Y-6403478D01*
X17148241Y-6409036D01*
X17120357Y-6417493D01*
X17093614Y-6427355D01*
X17068013Y-6438620D01*
X17043552Y-6451290D01*
X17020233Y-6465365D01*
X16998054Y-6480844D01*
X16977017Y-6497727D01*
X16957121Y-6516015D01*
X16938366Y-6535707D01*
X16920752Y-6556803D01*
X16904279Y-6579304D01*
X16888947Y-6603210D01*
X16874756Y-6628519D01*
X16861706Y-6655233D01*
X16849797Y-6683352D01*
X16839029Y-6712875D01*
X16832389Y-6735063D01*
X16826634Y-6758151D01*
X16821765Y-6782140D01*
X16817780Y-6807030D01*
X16814682Y-6832821D01*
X16812938Y-6852755D01*
X16811693Y-6873195D01*
X16810946Y-6894142D01*
X16810697Y-6915596D01*
X16810697Y-6943440D01*
X16811203Y-6977367D01*
X16812720Y-7010149D01*
X16815248Y-7041786D01*
X16818788Y-7072278D01*
X16823339Y-7101625D01*
X16828901Y-7129828D01*
X16835475Y-7156885D01*
X16843059Y-7182798D01*
X16851656Y-7207566D01*
X16861263Y-7231188D01*
X16871882Y-7253666D01*
X16883512Y-7275000D01*
X16896154Y-7295188D01*
X16909806Y-7314231D01*
X16924471Y-7332129D01*
X16940146Y-7348883D01*
X16956900Y-7364558D01*
X16974798Y-7379223D01*
X16993841Y-7392875D01*
X17014029Y-7405517D01*
X17035363Y-7417147D01*
X17057841Y-7427766D01*
X17081463Y-7437373D01*
X17106231Y-7445969D01*
X17132144Y-7453554D01*
X17159201Y-7460128D01*
X17187404Y-7465690D01*
X17216751Y-7470241D01*
X17247243Y-7473781D01*
X17278880Y-7476309D01*
X17311662Y-7477826D01*
X17345589Y-7478332D01*
G37*
D12*
%TO.C,HOLE\u002A\u002A*%
X86449210Y-15440000D02*
G75*
G03*
X84649210Y-15440000I-900000J0D01*
G01*
X84649210Y-15440000D02*
G75*
G03*
X86449210Y-15440000I900000J0D01*
G01*
X15330000Y-15440000D02*
G75*
G03*
X13530000Y-15440000I-900000J0D01*
G01*
X13530000Y-15440000D02*
G75*
G03*
X15330000Y-15440000I900000J0D01*
G01*
X15330000Y1180000D02*
G75*
G03*
X13530000Y1180000I-900000J0D01*
G01*
X13530000Y1180000D02*
G75*
G03*
X15330000Y1180000I900000J0D01*
G01*
X86449210Y1180000D02*
G75*
G03*
X84649210Y1180000I-900000J0D01*
G01*
X84649210Y1180000D02*
G75*
G03*
X86449210Y1180000I900000J0D01*
G01*
D13*
%TO.C,J2*%
X15741265Y360000D02*
X15741265Y3020000D01*
X81841265Y360000D02*
X15741265Y360000D01*
X81841265Y360000D02*
X81841265Y3020000D01*
X83111265Y360000D02*
X84441265Y360000D01*
X84441265Y360000D02*
X84441265Y1690000D01*
X81841265Y3020000D02*
X15741265Y3020000D01*
%TO.C,J4*%
X15741265Y-17275663D02*
X15741265Y-14615663D01*
X81841265Y-17275663D02*
X15741265Y-17275663D01*
X81841265Y-17275663D02*
X81841265Y-14615663D01*
X83111265Y-17275663D02*
X84441265Y-17275663D01*
X84441265Y-17275663D02*
X84441265Y-15945663D01*
X81841265Y-14615663D02*
X15741265Y-14615663D01*
%TD*%
%LPC*%
D14*
%TO.C,HOLE\u002A\u002A*%
X85549210Y-15440000D03*
%TD*%
%TO.C,HOLE\u002A\u002A*%
X14430000Y-15440000D03*
%TD*%
D15*
%TO.C,J3*%
X11809210Y1664337D03*
X9269210Y1664337D03*
X6729210Y1664337D03*
D16*
X4189210Y1664337D03*
%TD*%
D17*
%TO.C,USB1*%
X2008210Y-11457831D03*
X2008210Y-2807831D03*
D18*
X6208210Y-11457831D03*
X6208210Y-2807831D03*
D19*
X5708210Y-10022831D03*
X5708210Y-4242831D03*
%TD*%
D14*
%TO.C,HOLE\u002A\u002A*%
X14430000Y1180000D03*
%TD*%
D15*
%TO.C,J1*%
X11819210Y-15945663D03*
X9279210Y-15945663D03*
D16*
X6739210Y-15945663D03*
%TD*%
D14*
%TO.C,HOLE\u002A\u002A*%
X85549210Y1180000D03*
%TD*%
D16*
%TO.C,J2*%
X83111265Y1690000D03*
D15*
X80571265Y1690000D03*
X78031265Y1690000D03*
X75491265Y1690000D03*
X72951265Y1690000D03*
X70411265Y1690000D03*
X67871265Y1690000D03*
X65331265Y1690000D03*
X62791265Y1690000D03*
X60251265Y1690000D03*
X57711265Y1690000D03*
X55171265Y1690000D03*
X52631265Y1690000D03*
X50091265Y1690000D03*
X47551265Y1690000D03*
X45011265Y1690000D03*
X42471265Y1690000D03*
X39931265Y1690000D03*
X37391265Y1690000D03*
X34851265Y1690000D03*
X32311265Y1690000D03*
X29771265Y1690000D03*
X27231265Y1690000D03*
X24691265Y1690000D03*
X22151265Y1690000D03*
X19611265Y1690000D03*
X17071265Y1690000D03*
%TD*%
D16*
%TO.C,J4*%
X83111265Y-15945663D03*
D15*
X80571265Y-15945663D03*
X78031265Y-15945663D03*
X75491265Y-15945663D03*
X72951265Y-15945663D03*
X70411265Y-15945663D03*
X67871265Y-15945663D03*
X65331265Y-15945663D03*
X62791265Y-15945663D03*
X60251265Y-15945663D03*
X57711265Y-15945663D03*
X55171265Y-15945663D03*
X52631265Y-15945663D03*
X50091265Y-15945663D03*
X47551265Y-15945663D03*
X45011265Y-15945663D03*
X42471265Y-15945663D03*
X39931265Y-15945663D03*
X37391265Y-15945663D03*
X34851265Y-15945663D03*
X32311265Y-15945663D03*
X29771265Y-15945663D03*
X27231265Y-15945663D03*
X24691265Y-15945663D03*
X22151265Y-15945663D03*
X19611265Y-15945663D03*
X17071265Y-15945663D03*
%TD*%
%LPD*%
M02*
