M48
; DRILL file {KiCad 7.0.11} date Sat Apr 20 17:50:29 2024
; FORMAT={-:-/ absolute / metric / decimal}
; #@! TF.CreationDate,2024-04-20T17:50:29+08:00
; #@! TF.GenerationSoftware,Kicad,Pcbnew,7.0.11
; #@! TF.FileFunction,MixedPlating,1,2
FMAT,2
METRIC
; #@! TA.AperFunction,Plated,PTH,ViaDrill
T1C0.300
; #@! TA.AperFunction,Plated,PTH,ViaDrill
T2C0.400
; #@! TA.AperFunction,Plated,PTH,ComponentDrill
T3C0.600
; #@! TA.AperFunction,Plated,PTH,ComponentDrill
T4C1.000
; #@! TA.AperFunction,Plated,PTH,ComponentDrill
T5C1.200
; #@! TA.AperFunction,NonPlated,NPTH,ComponentDrill
T6C0.650
%
G90
G05
T1
X6.149Y-6.386
X6.152Y-7.383
X6.96Y-1.14
X8.06Y-3.51
X8.969Y-5.896
X8.974Y-2.261
X10.501Y-6.941
X10.501Y-9.78
X10.552Y-0.682
X10.901Y-13.24
X13.844Y-10.915
X13.844Y-12.621
X14.191Y-8.211
X14.869Y-1.956
X14.889Y-7.396
X14.891Y-11.486
X15.45Y-10.715
X15.581Y-5.01
X17.2Y-10.726
X18.149Y-10.636
X19.129Y-10.036
X19.35Y-2.565
X20.669Y-2.606
X20.691Y-7.48
X20.91Y-1.42
X21.421Y-5.6
X22.0Y-2.78
X22.911Y-5.27
X23.325Y-2.965
X23.741Y-7.167
X24.066Y-2.319
X24.07Y-1.42
X24.345Y-3.825
X24.579Y-7.106
X25.049Y-7.555
X25.42Y-13.86
X25.629Y-1.42
X25.78Y-2.319
X26.331Y-6.465
X26.575Y-8.69
X26.782Y-1.869
X27.309Y-4.399
X27.325Y-6.39
X27.351Y-11.11
X29.025Y-8.115
X29.72Y-1.869
X29.725Y-4.115
X29.725Y-6.39
X29.771Y-14.21
X30.771Y-6.48
X32.021Y-1.4
X32.021Y-6.52
X33.581Y-1.4
X37.611Y-4.01
X38.779Y-2.646
X39.43Y-6.45
X40.04Y-4.94
X40.13Y-11.96
X40.131Y-10.65
X40.39Y-9.01
X41.52Y-5.725
X42.791Y-12.46
X43.43Y-8.82
X44.01Y-12.546
X44.066Y-9.28
X44.12Y-6.45
X46.62Y-4.83
X46.831Y-9.929
X48.49Y-4.83
X49.611Y-5.725
X52.791Y-11.19
X53.411Y-8.52
X54.111Y-10.81
X54.57Y-4.81
X55.0Y-8.85
X56.131Y-5.701
X57.76Y-5.7
X58.28Y-9.41
X59.24Y-2.065
X60.001Y-2.065
X60.861Y-2.065
X61.871Y-2.07
X63.59Y-13.81
X64.16Y-12.58
X64.16Y-13.25
X64.27Y-1.71
X64.86Y-1.72
X66.611Y-12.58
X68.73Y-13.13
X68.73Y-13.805
X68.73Y-14.48
X69.109Y-10.535
X69.11Y-11.743
X69.121Y-11.135
X69.351Y-4.0
X69.58Y-13.125
X69.58Y-13.8
X69.58Y-14.475
X69.608Y-10.085
X70.11Y-3.38
X70.45Y-5.29
X70.46Y-6.62
X70.48Y-7.576
X71.07Y-1.7
X71.35Y-12.17
X71.357Y-4.99
X71.373Y-6.62
X71.754Y-2.646
X71.84Y-4.09
X72.286Y-6.62
X72.294Y-4.99
X72.74Y-11.97
X72.75Y-4.09
X73.199Y-6.62
X73.232Y-4.99
X73.4Y-12.64
X73.5Y-9.16
X73.66Y-7.58
X74.05Y-13.3
X74.112Y-6.62
X74.17Y-4.99
X75.025Y-6.62
X75.1Y-4.1
X75.107Y-4.99
X75.73Y-1.87
X75.938Y-6.62
X76.045Y-4.99
X76.2Y-12.14
X76.51Y-1.87
X76.851Y-6.62
X76.86Y-7.6
X76.982Y-4.99
X77.17Y-4.1
X77.275Y-12.14
X77.275Y-13.14
X77.764Y-6.62
X77.764Y-7.57
X77.92Y-4.99
X78.35Y-12.14
X78.35Y-13.14
X78.677Y-6.62
X78.677Y-7.57
X78.84Y-4.73
X79.425Y-12.14
X79.425Y-13.14
X79.59Y-1.13
X79.59Y-2.13
X79.59Y-3.06
X79.59Y-3.99
X79.59Y-6.62
X79.59Y-7.57
X80.5Y-0.13
X80.5Y-1.13
X80.5Y-2.13
X80.5Y-3.06
X80.5Y-6.16
X80.5Y-7.13
X80.5Y-8.12
X80.5Y-9.12
X80.5Y-10.12
X80.5Y-11.13
X80.5Y-12.12
X80.5Y-13.13
X80.5Y-14.13
X81.47Y-0.13
X81.47Y-1.13
X81.47Y-2.13
X81.47Y-6.16
X81.47Y-7.13
X81.47Y-8.13
X81.47Y-9.13
X81.47Y-10.13
X81.47Y-11.13
X81.47Y-12.13
X81.47Y-13.13
X81.47Y-14.13
X81.58Y-5.38
X82.37Y-1.89
X82.38Y-0.13
X82.38Y-1.13
X82.44Y-5.16
X82.44Y-6.16
X82.44Y-7.13
X82.44Y-8.13
X82.44Y-9.13
X82.44Y-10.13
X82.44Y-11.13
X82.44Y-12.13
X82.44Y-13.13
X82.44Y-14.13
X82.58Y-4.34
X83.43Y-0.13
X83.43Y-1.13
X83.43Y-4.24
X83.43Y-5.16
X83.43Y-6.157
X83.43Y-7.153
X83.43Y-8.15
X83.43Y-9.147
X83.43Y-10.143
X83.43Y-11.14
X83.43Y-12.137
X83.43Y-13.133
X83.43Y-14.13
T2
X8.05Y-4.733
X8.05Y-9.555
X10.499Y-3.036
X17.075Y-2.49
X18.761Y-14.189
X23.321Y-0.63
X28.625Y-13.315
X29.15Y-0.636
X63.101Y-7.13
X64.131Y-6.1
X64.131Y-8.19
X65.281Y-4.94
X65.281Y-7.13
X65.281Y-9.32
X66.421Y-6.1
X66.421Y-8.19
X67.471Y-7.13
X78.249Y-0.632
T4
X4.189Y1.664
X6.729Y1.664
X6.739Y-15.946
X9.269Y1.664
X9.279Y-15.946
X11.809Y1.664
X11.819Y-15.946
X17.071Y1.69
X17.071Y-15.946
X19.611Y1.69
X19.611Y-15.946
X22.151Y1.69
X22.151Y-15.946
X24.691Y1.69
X24.691Y-15.946
X27.231Y1.69
X27.231Y-15.946
X29.771Y1.69
X29.771Y-15.946
X32.311Y1.69
X32.311Y-15.946
X34.851Y1.69
X34.851Y-15.946
X37.391Y1.69
X37.391Y-15.946
X39.931Y1.69
X39.931Y-15.946
X42.471Y1.69
X42.471Y-15.946
X45.011Y1.69
X45.011Y-15.946
X47.551Y1.69
X47.551Y-15.946
X50.091Y1.69
X50.091Y-15.946
X52.631Y1.69
X52.631Y-15.946
X55.171Y1.69
X55.171Y-15.946
X57.711Y1.69
X57.711Y-15.946
X60.251Y1.69
X60.251Y-15.946
X62.791Y1.69
X62.791Y-15.946
X65.331Y1.69
X65.331Y-15.946
X67.871Y1.69
X67.871Y-15.946
X70.411Y1.69
X70.411Y-15.946
X72.951Y1.69
X72.951Y-15.946
X75.491Y1.69
X75.491Y-15.946
X78.031Y1.69
X78.031Y-15.946
X80.571Y1.69
X80.571Y-15.946
X83.111Y1.69
X83.111Y-15.946
T5
X14.43Y1.18
X14.43Y-15.44
X85.549Y1.18
X85.549Y-15.44
T6
X5.708Y-4.243
X5.708Y-10.023
T3
G00X2.458Y-2.808
M15
G01X1.558Y-2.808
M16
G05
G00X2.458Y-11.458
M15
G01X1.558Y-11.458
M16
G05
G00X6.808Y-2.808
M15
G01X5.608Y-2.808
M16
G05
G00X6.808Y-11.458
M15
G01X5.608Y-11.458
M16
G05
M30
