%TF.GenerationSoftware,KiCad,Pcbnew,7.0.11*%
%TF.CreationDate,2024-04-20T17:13:45+08:00*%
%TF.ProjectId,UINIO-MCU-ESP32S3,55494e49-4f2d-44d4-9355-2d4553503332,Version 3.5.0*%
%TF.SameCoordinates,PX629df6ePY56b2a99*%
%TF.FileFunction,Paste,Top*%
%TF.FilePolarity,Positive*%
%FSLAX46Y46*%
G04 Gerber Fmt 4.6, Leading zero omitted, Abs format (unit mm)*
G04 Created by KiCad (PCBNEW 7.0.11) date 2024-04-20 17:13:45*
%MOMM*%
%LPD*%
G01*
G04 APERTURE LIST*
G04 Aperture macros list*
%AMRoundRect*
0 Rectangle with rounded corners*
0 $1 Rounding radius*
0 $2 $3 $4 $5 $6 $7 $8 $9 X,Y pos of 4 corners*
0 Add a 4 corners polygon primitive as box body*
4,1,4,$2,$3,$4,$5,$6,$7,$8,$9,$2,$3,0*
0 Add four circle primitives for the rounded corners*
1,1,$1+$1,$2,$3*
1,1,$1+$1,$4,$5*
1,1,$1+$1,$6,$7*
1,1,$1+$1,$8,$9*
0 Add four rect primitives between the rounded corners*
20,1,$1+$1,$2,$3,$4,$5,0*
20,1,$1+$1,$4,$5,$6,$7,0*
20,1,$1+$1,$6,$7,$8,$9,0*
20,1,$1+$1,$8,$9,$2,$3,0*%
%AMRotRect*
0 Rectangle, with rotation*
0 The origin of the aperture is its center*
0 $1 length*
0 $2 width*
0 $3 Rotation angle, in degrees counterclockwise*
0 Add horizontal line*
21,1,$1,$2,0,0,$3*%
G04 Aperture macros list end*
%ADD10C,0.120000*%
%ADD11RoundRect,0.140000X0.140000X0.170000X-0.140000X0.170000X-0.140000X-0.170000X0.140000X-0.170000X0*%
%ADD12RoundRect,0.140000X-0.140000X-0.170000X0.140000X-0.170000X0.140000X0.170000X-0.140000X0.170000X0*%
%ADD13RoundRect,0.135000X0.135000X0.185000X-0.135000X0.185000X-0.135000X-0.185000X0.135000X-0.185000X0*%
%ADD14RoundRect,0.218750X0.218750X0.256250X-0.218750X0.256250X-0.218750X-0.256250X0.218750X-0.256250X0*%
%ADD15RoundRect,0.140000X0.170000X-0.140000X0.170000X0.140000X-0.170000X0.140000X-0.170000X-0.140000X0*%
%ADD16RoundRect,0.135000X0.185000X-0.135000X0.185000X0.135000X-0.185000X0.135000X-0.185000X-0.135000X0*%
%ADD17R,2.268000X1.710000*%
%ADD18R,1.200000X0.650000*%
%ADD19RoundRect,0.140000X-0.170000X0.140000X-0.170000X-0.140000X0.170000X-0.140000X0.170000X0.140000X0*%
%ADD20RoundRect,0.135000X-0.135000X-0.185000X0.135000X-0.185000X0.135000X0.185000X-0.135000X0.185000X0*%
%ADD21R,0.250000X0.750000*%
%ADD22R,0.750000X0.250000*%
%ADD23R,1.700000X1.700000*%
%ADD24R,1.400000X1.200000*%
%ADD25RotRect,0.200000X0.900000X135.000000*%
%ADD26RotRect,0.200000X0.900000X225.000000*%
%ADD27RotRect,0.200000X0.900000X315.000000*%
%ADD28RotRect,0.200000X0.900000X45.000000*%
%ADD29RotRect,4.000000X4.000000X225.000000*%
%ADD30R,1.150000X0.600000*%
%ADD31R,1.150000X0.300000*%
%ADD32R,0.750000X0.200000*%
%ADD33R,0.665000X0.200000*%
%ADD34R,0.200000X0.665000*%
%ADD35O,0.630000X1.865000*%
%ADD36O,0.630000X2.250000*%
%ADD37R,0.600000X1.000000*%
%ADD38R,0.420000X0.700000*%
G04 APERTURE END LIST*
%TO.C,L1*%
D10*
X86683210Y-1747831D02*
X86683210Y-3257831D01*
X86583210Y-3357831D01*
X86035210Y-3357831D01*
X85935210Y-3257831D01*
X85935210Y-2876831D01*
X85835210Y-2776831D01*
X85263210Y-2776831D01*
X85163210Y-2876831D01*
X85163210Y-3257831D01*
X85063210Y-3357831D01*
X84515210Y-3357831D01*
X84415210Y-3257831D01*
X84415210Y-1747831D01*
X84515210Y-1647831D01*
X86583210Y-1647831D01*
X86683210Y-1747831D01*
G36*
X86683210Y-1747831D02*
G01*
X86683210Y-3257831D01*
X86583210Y-3357831D01*
X86035210Y-3357831D01*
X85935210Y-3257831D01*
X85935210Y-2876831D01*
X85835210Y-2776831D01*
X85263210Y-2776831D01*
X85163210Y-2876831D01*
X85163210Y-3257831D01*
X85063210Y-3357831D01*
X84515210Y-3357831D01*
X84415210Y-3257831D01*
X84415210Y-1747831D01*
X84515210Y-1647831D01*
X86583210Y-1647831D01*
X86683210Y-1747831D01*
G37*
X85163210Y-11007831D02*
X85163210Y-11388831D01*
X85263210Y-11488831D01*
X85835210Y-11488831D01*
X85935210Y-11388831D01*
X85935210Y-11007831D01*
X86035210Y-10907831D01*
X86583210Y-10907831D01*
X86683210Y-11007831D01*
X86683210Y-12517831D01*
X86583210Y-12617831D01*
X84515210Y-12617831D01*
X84415210Y-12517831D01*
X84415210Y-11007831D01*
X84515210Y-10907831D01*
X85063210Y-10907831D01*
X85163210Y-11007831D01*
G36*
X85163210Y-11007831D02*
G01*
X85163210Y-11388831D01*
X85263210Y-11488831D01*
X85835210Y-11488831D01*
X85935210Y-11388831D01*
X85935210Y-11007831D01*
X86035210Y-10907831D01*
X86583210Y-10907831D01*
X86683210Y-11007831D01*
X86683210Y-12517831D01*
X86583210Y-12617831D01*
X84515210Y-12617831D01*
X84415210Y-12517831D01*
X84415210Y-11007831D01*
X84515210Y-10907831D01*
X85063210Y-10907831D01*
X85163210Y-11007831D01*
G37*
%TO.C,U6*%
X28406265Y-9580663D02*
X27656265Y-9580663D01*
X27656265Y-9330663D01*
X28406265Y-9330663D01*
X28406265Y-9580663D01*
G36*
X28406265Y-9580663D02*
G01*
X27656265Y-9580663D01*
X27656265Y-9330663D01*
X28406265Y-9330663D01*
X28406265Y-9580663D01*
G37*
X28406265Y-9080663D02*
X27656265Y-9080663D01*
X27656265Y-8830663D01*
X28406265Y-8830663D01*
X28406265Y-9080663D01*
G36*
X28406265Y-9080663D02*
G01*
X27656265Y-9080663D01*
X27656265Y-8830663D01*
X28406265Y-8830663D01*
X28406265Y-9080663D01*
G37*
X28406265Y-8580663D02*
X27656265Y-8580663D01*
X27656265Y-8330663D01*
X28406265Y-8330663D01*
X28406265Y-8580663D01*
G36*
X28406265Y-8580663D02*
G01*
X27656265Y-8580663D01*
X27656265Y-8330663D01*
X28406265Y-8330663D01*
X28406265Y-8580663D01*
G37*
X28406265Y-8080663D02*
X27656265Y-8080663D01*
X27656265Y-7830663D01*
X28406265Y-7830663D01*
X28406265Y-8080663D01*
G36*
X28406265Y-8080663D02*
G01*
X27656265Y-8080663D01*
X27656265Y-7830663D01*
X28406265Y-7830663D01*
X28406265Y-8080663D01*
G37*
X27261265Y-9385663D02*
X25901265Y-9385663D01*
X25901265Y-8025663D01*
X27261265Y-8025663D01*
X27261265Y-9385663D01*
G36*
X27261265Y-9385663D02*
G01*
X25901265Y-9385663D01*
X25901265Y-8025663D01*
X27261265Y-8025663D01*
X27261265Y-9385663D01*
G37*
X27455265Y-10530663D02*
X27205265Y-10530663D01*
X27205265Y-9780663D01*
X27455265Y-9780663D01*
X27455265Y-10530663D01*
G36*
X27455265Y-10530663D02*
G01*
X27205265Y-10530663D01*
X27205265Y-9780663D01*
X27455265Y-9780663D01*
X27455265Y-10530663D01*
G37*
X27454265Y-7630663D02*
X27204265Y-7630663D01*
X27204265Y-6880663D01*
X27454265Y-6880663D01*
X27454265Y-7630663D01*
G36*
X27454265Y-7630663D02*
G01*
X27204265Y-7630663D01*
X27204265Y-6880663D01*
X27454265Y-6880663D01*
X27454265Y-7630663D01*
G37*
X26955265Y-10530663D02*
X26705265Y-10530663D01*
X26705265Y-9780663D01*
X26955265Y-9780663D01*
X26955265Y-10530663D01*
G36*
X26955265Y-10530663D02*
G01*
X26705265Y-10530663D01*
X26705265Y-9780663D01*
X26955265Y-9780663D01*
X26955265Y-10530663D01*
G37*
X26955265Y-7630663D02*
X26705265Y-7630663D01*
X26705265Y-6880663D01*
X26955265Y-6880663D01*
X26955265Y-7630663D01*
G36*
X26955265Y-7630663D02*
G01*
X26705265Y-7630663D01*
X26705265Y-6880663D01*
X26955265Y-6880663D01*
X26955265Y-7630663D01*
G37*
X26455265Y-10530663D02*
X26205265Y-10530663D01*
X26205265Y-9780663D01*
X26455265Y-9780663D01*
X26455265Y-10530663D01*
G36*
X26455265Y-10530663D02*
G01*
X26205265Y-10530663D01*
X26205265Y-9780663D01*
X26455265Y-9780663D01*
X26455265Y-10530663D01*
G37*
X26454265Y-7630663D02*
X26204265Y-7630663D01*
X26204265Y-6880663D01*
X26454265Y-6880663D01*
X26454265Y-7630663D01*
G36*
X26454265Y-7630663D02*
G01*
X26204265Y-7630663D01*
X26204265Y-6880663D01*
X26454265Y-6880663D01*
X26454265Y-7630663D01*
G37*
X25955265Y-10530663D02*
X25705265Y-10530663D01*
X25705265Y-9780663D01*
X25955265Y-9780663D01*
X25955265Y-10530663D01*
G36*
X25955265Y-10530663D02*
G01*
X25705265Y-10530663D01*
X25705265Y-9780663D01*
X25955265Y-9780663D01*
X25955265Y-10530663D01*
G37*
X25955265Y-7630663D02*
X25705265Y-7630663D01*
X25705265Y-6880663D01*
X25955265Y-6880663D01*
X25955265Y-7630663D01*
G36*
X25955265Y-7630663D02*
G01*
X25705265Y-7630663D01*
X25705265Y-6880663D01*
X25955265Y-6880663D01*
X25955265Y-7630663D01*
G37*
X25506265Y-9580663D02*
X24756265Y-9580663D01*
X24756265Y-9330663D01*
X25506265Y-9330663D01*
X25506265Y-9580663D01*
G36*
X25506265Y-9580663D02*
G01*
X24756265Y-9580663D01*
X24756265Y-9330663D01*
X25506265Y-9330663D01*
X25506265Y-9580663D01*
G37*
X25506265Y-9080663D02*
X24756265Y-9080663D01*
X24756265Y-8830663D01*
X25506265Y-8830663D01*
X25506265Y-9080663D01*
G36*
X25506265Y-9080663D02*
G01*
X24756265Y-9080663D01*
X24756265Y-8830663D01*
X25506265Y-8830663D01*
X25506265Y-9080663D01*
G37*
X25506265Y-8580663D02*
X24756265Y-8580663D01*
X24756265Y-8330663D01*
X25506265Y-8330663D01*
X25506265Y-8580663D01*
G36*
X25506265Y-8580663D02*
G01*
X24756265Y-8580663D01*
X24756265Y-8330663D01*
X25506265Y-8330663D01*
X25506265Y-8580663D01*
G37*
X25506265Y-8080663D02*
X24756265Y-8080663D01*
X24756265Y-7830663D01*
X25506265Y-7830663D01*
X25506265Y-8080663D01*
G36*
X25506265Y-8080663D02*
G01*
X24756265Y-8080663D01*
X24756265Y-7830663D01*
X25506265Y-7830663D01*
X25506265Y-8080663D01*
G37*
%TO.C,USB1*%
X7545210Y-4232831D02*
X6395210Y-4232831D01*
X6395210Y-3632831D01*
X7545210Y-3632831D01*
X7545210Y-4232831D01*
G36*
X7545210Y-4232831D02*
G01*
X6395210Y-4232831D01*
X6395210Y-3632831D01*
X7545210Y-3632831D01*
X7545210Y-4232831D01*
G37*
X7545210Y-5032831D02*
X6395210Y-5032831D01*
X6395210Y-4432831D01*
X7545210Y-4432831D01*
X7545210Y-5032831D01*
G36*
X7545210Y-5032831D02*
G01*
X6395210Y-5032831D01*
X6395210Y-4432831D01*
X7545210Y-4432831D01*
X7545210Y-5032831D01*
G37*
X7545210Y-5532831D02*
X6395210Y-5532831D01*
X6395210Y-5232831D01*
X7545210Y-5232831D01*
X7545210Y-5532831D01*
G36*
X7545210Y-5532831D02*
G01*
X6395210Y-5532831D01*
X6395210Y-5232831D01*
X7545210Y-5232831D01*
X7545210Y-5532831D01*
G37*
X7545210Y-6032831D02*
X6395210Y-6032831D01*
X6395210Y-5732831D01*
X7545210Y-5732831D01*
X7545210Y-6032831D01*
G36*
X7545210Y-6032831D02*
G01*
X6395210Y-6032831D01*
X6395210Y-5732831D01*
X7545210Y-5732831D01*
X7545210Y-6032831D01*
G37*
X7545210Y-6532831D02*
X6395210Y-6532831D01*
X6395210Y-6232831D01*
X7545210Y-6232831D01*
X7545210Y-6532831D01*
G36*
X7545210Y-6532831D02*
G01*
X6395210Y-6532831D01*
X6395210Y-6232831D01*
X7545210Y-6232831D01*
X7545210Y-6532831D01*
G37*
X7545210Y-7032831D02*
X6395210Y-7032831D01*
X6395210Y-6732831D01*
X7545210Y-6732831D01*
X7545210Y-7032831D01*
G36*
X7545210Y-7032831D02*
G01*
X6395210Y-7032831D01*
X6395210Y-6732831D01*
X7545210Y-6732831D01*
X7545210Y-7032831D01*
G37*
X7545210Y-7532831D02*
X6395210Y-7532831D01*
X6395210Y-7232831D01*
X7545210Y-7232831D01*
X7545210Y-7532831D01*
G36*
X7545210Y-7532831D02*
G01*
X6395210Y-7532831D01*
X6395210Y-7232831D01*
X7545210Y-7232831D01*
X7545210Y-7532831D01*
G37*
X7545210Y-8032831D02*
X6395210Y-8032831D01*
X6395210Y-7732831D01*
X7545210Y-7732831D01*
X7545210Y-8032831D01*
G36*
X7545210Y-8032831D02*
G01*
X6395210Y-8032831D01*
X6395210Y-7732831D01*
X7545210Y-7732831D01*
X7545210Y-8032831D01*
G37*
X7545210Y-8532831D02*
X6395210Y-8532831D01*
X6395210Y-8232831D01*
X7545210Y-8232831D01*
X7545210Y-8532831D01*
G36*
X7545210Y-8532831D02*
G01*
X6395210Y-8532831D01*
X6395210Y-8232831D01*
X7545210Y-8232831D01*
X7545210Y-8532831D01*
G37*
X7545210Y-9032831D02*
X6395210Y-9032831D01*
X6395210Y-8732831D01*
X7545210Y-8732831D01*
X7545210Y-9032831D01*
G36*
X7545210Y-9032831D02*
G01*
X6395210Y-9032831D01*
X6395210Y-8732831D01*
X7545210Y-8732831D01*
X7545210Y-9032831D01*
G37*
X7545210Y-9832831D02*
X6395210Y-9832831D01*
X6395210Y-9232831D01*
X7545210Y-9232831D01*
X7545210Y-9832831D01*
G36*
X7545210Y-9832831D02*
G01*
X6395210Y-9832831D01*
X6395210Y-9232831D01*
X7545210Y-9232831D01*
X7545210Y-9832831D01*
G37*
X7545210Y-10632831D02*
X6395210Y-10632831D01*
X6395210Y-10032831D01*
X7545210Y-10032831D01*
X7545210Y-10632831D01*
G36*
X7545210Y-10632831D02*
G01*
X6395210Y-10632831D01*
X6395210Y-10032831D01*
X7545210Y-10032831D01*
X7545210Y-10632831D01*
G37*
X6855210Y-2317831D02*
X6949210Y-2345831D01*
X7035210Y-2391831D01*
X7111210Y-2453831D01*
X7173210Y-2529831D01*
X7220210Y-2616831D01*
X7248210Y-2709831D01*
X7258210Y-2807831D01*
X7248210Y-2905831D01*
X7220210Y-2998831D01*
X7173210Y-3085831D01*
X7111210Y-3161831D01*
X7035210Y-3223831D01*
X6949210Y-3269831D01*
X6855210Y-3297831D01*
X6758210Y-3307831D01*
X5658210Y-3307831D01*
X5560210Y-3297831D01*
X5466210Y-3269831D01*
X5380210Y-3223831D01*
X5304210Y-3161831D01*
X5242210Y-3085831D01*
X5196210Y-2998831D01*
X5167210Y-2905831D01*
X5158210Y-2807831D01*
X5167210Y-2709831D01*
X5196210Y-2616831D01*
X5242210Y-2529831D01*
X5304210Y-2453831D01*
X5380210Y-2391831D01*
X5466210Y-2345831D01*
X5560210Y-2317831D01*
X5658210Y-2307831D01*
X6758210Y-2307831D01*
X6855210Y-2317831D01*
G36*
X6855210Y-2317831D02*
G01*
X6949210Y-2345831D01*
X7035210Y-2391831D01*
X7111210Y-2453831D01*
X7173210Y-2529831D01*
X7220210Y-2616831D01*
X7248210Y-2709831D01*
X7258210Y-2807831D01*
X7248210Y-2905831D01*
X7220210Y-2998831D01*
X7173210Y-3085831D01*
X7111210Y-3161831D01*
X7035210Y-3223831D01*
X6949210Y-3269831D01*
X6855210Y-3297831D01*
X6758210Y-3307831D01*
X5658210Y-3307831D01*
X5560210Y-3297831D01*
X5466210Y-3269831D01*
X5380210Y-3223831D01*
X5304210Y-3161831D01*
X5242210Y-3085831D01*
X5196210Y-2998831D01*
X5167210Y-2905831D01*
X5158210Y-2807831D01*
X5167210Y-2709831D01*
X5196210Y-2616831D01*
X5242210Y-2529831D01*
X5304210Y-2453831D01*
X5380210Y-2391831D01*
X5466210Y-2345831D01*
X5560210Y-2317831D01*
X5658210Y-2307831D01*
X6758210Y-2307831D01*
X6855210Y-2317831D01*
G37*
X2555210Y-2317831D02*
X2649210Y-2345831D01*
X2735210Y-2391831D01*
X2811210Y-2453831D01*
X2873210Y-2529831D01*
X2920210Y-2616831D01*
X2948210Y-2709831D01*
X2958210Y-2807831D01*
X2948210Y-2905831D01*
X2920210Y-2998831D01*
X2873210Y-3085831D01*
X2811210Y-3161831D01*
X2735210Y-3223831D01*
X2649210Y-3269831D01*
X2555210Y-3297831D01*
X2458210Y-3307831D01*
X1558210Y-3307831D01*
X1460210Y-3297831D01*
X1366210Y-3269831D01*
X1280210Y-3223831D01*
X1204210Y-3161831D01*
X1142210Y-3085831D01*
X1096210Y-2998831D01*
X1067210Y-2905831D01*
X1058210Y-2807831D01*
X1067210Y-2709831D01*
X1096210Y-2616831D01*
X1142210Y-2529831D01*
X1204210Y-2453831D01*
X1280210Y-2391831D01*
X1366210Y-2345831D01*
X1460210Y-2317831D01*
X1558210Y-2307831D01*
X2458210Y-2307831D01*
X2555210Y-2317831D01*
G36*
X2555210Y-2317831D02*
G01*
X2649210Y-2345831D01*
X2735210Y-2391831D01*
X2811210Y-2453831D01*
X2873210Y-2529831D01*
X2920210Y-2616831D01*
X2948210Y-2709831D01*
X2958210Y-2807831D01*
X2948210Y-2905831D01*
X2920210Y-2998831D01*
X2873210Y-3085831D01*
X2811210Y-3161831D01*
X2735210Y-3223831D01*
X2649210Y-3269831D01*
X2555210Y-3297831D01*
X2458210Y-3307831D01*
X1558210Y-3307831D01*
X1460210Y-3297831D01*
X1366210Y-3269831D01*
X1280210Y-3223831D01*
X1204210Y-3161831D01*
X1142210Y-3085831D01*
X1096210Y-2998831D01*
X1067210Y-2905831D01*
X1058210Y-2807831D01*
X1067210Y-2709831D01*
X1096210Y-2616831D01*
X1142210Y-2529831D01*
X1204210Y-2453831D01*
X1280210Y-2391831D01*
X1366210Y-2345831D01*
X1460210Y-2317831D01*
X1558210Y-2307831D01*
X2458210Y-2307831D01*
X2555210Y-2317831D01*
G37*
X6855210Y-10967831D02*
X6949210Y-10995831D01*
X7035210Y-11041831D01*
X7111210Y-11103831D01*
X7173210Y-11179831D01*
X7220210Y-11266831D01*
X7248210Y-11359831D01*
X7258210Y-11457831D01*
X7248210Y-11555831D01*
X7220210Y-11648831D01*
X7173210Y-11735831D01*
X7111210Y-11811831D01*
X7035210Y-11873831D01*
X6949210Y-11919831D01*
X6855210Y-11947831D01*
X6758210Y-11957831D01*
X5658210Y-11957831D01*
X5560210Y-11947831D01*
X5466210Y-11919831D01*
X5380210Y-11873831D01*
X5304210Y-11811831D01*
X5242210Y-11735831D01*
X5196210Y-11648831D01*
X5167210Y-11555831D01*
X5158210Y-11457831D01*
X5167210Y-11359831D01*
X5196210Y-11266831D01*
X5242210Y-11179831D01*
X5304210Y-11103831D01*
X5380210Y-11041831D01*
X5466210Y-10995831D01*
X5560210Y-10967831D01*
X5658210Y-10957831D01*
X6758210Y-10957831D01*
X6855210Y-10967831D01*
G36*
X6855210Y-10967831D02*
G01*
X6949210Y-10995831D01*
X7035210Y-11041831D01*
X7111210Y-11103831D01*
X7173210Y-11179831D01*
X7220210Y-11266831D01*
X7248210Y-11359831D01*
X7258210Y-11457831D01*
X7248210Y-11555831D01*
X7220210Y-11648831D01*
X7173210Y-11735831D01*
X7111210Y-11811831D01*
X7035210Y-11873831D01*
X6949210Y-11919831D01*
X6855210Y-11947831D01*
X6758210Y-11957831D01*
X5658210Y-11957831D01*
X5560210Y-11947831D01*
X5466210Y-11919831D01*
X5380210Y-11873831D01*
X5304210Y-11811831D01*
X5242210Y-11735831D01*
X5196210Y-11648831D01*
X5167210Y-11555831D01*
X5158210Y-11457831D01*
X5167210Y-11359831D01*
X5196210Y-11266831D01*
X5242210Y-11179831D01*
X5304210Y-11103831D01*
X5380210Y-11041831D01*
X5466210Y-10995831D01*
X5560210Y-10967831D01*
X5658210Y-10957831D01*
X6758210Y-10957831D01*
X6855210Y-10967831D01*
G37*
X2555210Y-10967831D02*
X2649210Y-10995831D01*
X2735210Y-11041831D01*
X2811210Y-11103831D01*
X2873210Y-11179831D01*
X2920210Y-11266831D01*
X2948210Y-11359831D01*
X2958210Y-11457831D01*
X2948210Y-11555831D01*
X2920210Y-11648831D01*
X2873210Y-11735831D01*
X2811210Y-11811831D01*
X2735210Y-11873831D01*
X2649210Y-11919831D01*
X2555210Y-11947831D01*
X2458210Y-11957831D01*
X1558210Y-11957831D01*
X1460210Y-11947831D01*
X1366210Y-11919831D01*
X1280210Y-11873831D01*
X1204210Y-11811831D01*
X1142210Y-11735831D01*
X1096210Y-11648831D01*
X1067210Y-11555831D01*
X1058210Y-11457831D01*
X1067210Y-11359831D01*
X1096210Y-11266831D01*
X1142210Y-11179831D01*
X1204210Y-11103831D01*
X1280210Y-11041831D01*
X1366210Y-10995831D01*
X1460210Y-10967831D01*
X1558210Y-10957831D01*
X2458210Y-10957831D01*
X2555210Y-10967831D01*
G36*
X2555210Y-10967831D02*
G01*
X2649210Y-10995831D01*
X2735210Y-11041831D01*
X2811210Y-11103831D01*
X2873210Y-11179831D01*
X2920210Y-11266831D01*
X2948210Y-11359831D01*
X2958210Y-11457831D01*
X2948210Y-11555831D01*
X2920210Y-11648831D01*
X2873210Y-11735831D01*
X2811210Y-11811831D01*
X2735210Y-11873831D01*
X2649210Y-11919831D01*
X2555210Y-11947831D01*
X2458210Y-11957831D01*
X1558210Y-11957831D01*
X1460210Y-11947831D01*
X1366210Y-11919831D01*
X1280210Y-11873831D01*
X1204210Y-11811831D01*
X1142210Y-11735831D01*
X1096210Y-11648831D01*
X1067210Y-11555831D01*
X1058210Y-11457831D01*
X1067210Y-11359831D01*
X1096210Y-11266831D01*
X1142210Y-11179831D01*
X1204210Y-11103831D01*
X1280210Y-11041831D01*
X1366210Y-10995831D01*
X1460210Y-10967831D01*
X1558210Y-10957831D01*
X2458210Y-10957831D01*
X2555210Y-10967831D01*
G37*
%TD*%
D11*
%TO.C,C15*%
X79239210Y-9145663D03*
X78279210Y-9145663D03*
%TD*%
%TO.C,C12*%
X61819210Y-2865663D03*
X60859210Y-2865663D03*
%TD*%
D12*
%TO.C,C14*%
X23029210Y-8440000D03*
X23989210Y-8440000D03*
%TD*%
D13*
%TO.C,R9*%
X27391265Y-3410000D03*
X26371265Y-3410000D03*
%TD*%
D14*
%TO.C,D1*%
X13844210Y-10195663D03*
X12269210Y-10195663D03*
%TD*%
D12*
%TO.C,C9*%
X75520000Y-7580000D03*
X74560000Y-7580000D03*
%TD*%
%TO.C,C10*%
X72760000Y-7580000D03*
X71800000Y-7580000D03*
%TD*%
D15*
%TO.C,C19*%
X70159210Y-11495664D03*
X70159210Y-10535664D03*
%TD*%
D16*
%TO.C,R7*%
X16789210Y-4997163D03*
X16789210Y-3977163D03*
%TD*%
D17*
%TO.C,L1*%
X85549210Y-2502831D03*
X85549210Y-11762831D03*
%TD*%
D18*
%TO.C,SW1*%
X33340000Y-8685000D03*
X37640000Y-8685000D03*
X33340000Y-10835000D03*
X37640000Y-10835000D03*
%TD*%
D11*
%TO.C,C1*%
X13199210Y-7795663D03*
X12239210Y-7795663D03*
%TD*%
D19*
%TO.C,C4*%
X76149605Y-3150000D03*
X76149605Y-4110000D03*
%TD*%
D20*
%TO.C,R2*%
X11996710Y-12585663D03*
X13016710Y-12585663D03*
%TD*%
D21*
%TO.C,U6*%
X27329265Y-7255663D03*
X26830265Y-7255663D03*
X26329265Y-7255663D03*
X25830265Y-7255663D03*
D22*
X25131265Y-7955663D03*
X25131265Y-8455663D03*
X25131265Y-8955663D03*
X25131265Y-9455663D03*
D21*
X25831265Y-10155663D03*
X26331265Y-10155663D03*
X26831265Y-10155663D03*
X27330265Y-10155663D03*
D22*
X28031265Y-9455663D03*
X28031265Y-8955663D03*
X28031265Y-8455663D03*
X28031265Y-7955663D03*
D23*
X26581265Y-8705663D03*
%TD*%
D15*
%TO.C,C20*%
X58290000Y-7612831D03*
X58290000Y-6652831D03*
%TD*%
D11*
%TO.C,C2*%
X13199210Y-3025663D03*
X12239210Y-3025663D03*
%TD*%
D20*
%TO.C,R3*%
X11996710Y-11525663D03*
X13016710Y-11525663D03*
%TD*%
D19*
%TO.C,C3*%
X74090000Y-4110000D03*
X74090000Y-3150000D03*
%TD*%
%TO.C,C6*%
X78209210Y-3150000D03*
X78209210Y-4110000D03*
%TD*%
D12*
%TO.C,C13*%
X23059210Y-10160000D03*
X24019210Y-10160000D03*
%TD*%
%TO.C,C16*%
X79249210Y-10845663D03*
X78289210Y-10845663D03*
%TD*%
D24*
%TO.C,Y1*%
X76849210Y-9145663D03*
X74649210Y-9145663D03*
X74649210Y-10845663D03*
X76849210Y-10845663D03*
%TD*%
D15*
%TO.C,C18*%
X59350000Y-7612831D03*
X59350000Y-6652831D03*
%TD*%
D25*
%TO.C,U5*%
X69600328Y-6496435D03*
X69317486Y-6213592D03*
X69034643Y-5930749D03*
X68751800Y-5647907D03*
X68468958Y-5365064D03*
X68186115Y-5082221D03*
X67903272Y-4799379D03*
X67620429Y-4516536D03*
X67337587Y-4233693D03*
X67054744Y-3950850D03*
X66771901Y-3668008D03*
X66489059Y-3385165D03*
X66206216Y-3102322D03*
X65923373Y-2819480D03*
D26*
X64650581Y-2819480D03*
X64367738Y-3102322D03*
X64084895Y-3385165D03*
X63802053Y-3668008D03*
X63519210Y-3950850D03*
X63236367Y-4233693D03*
X62953525Y-4516536D03*
X62670682Y-4799379D03*
X62387839Y-5082221D03*
X62104996Y-5365064D03*
X61822154Y-5647907D03*
X61539311Y-5930749D03*
X61256468Y-6213592D03*
X60973626Y-6496435D03*
D27*
X60973626Y-7769227D03*
X61256468Y-8052070D03*
X61539311Y-8334913D03*
X61822154Y-8617755D03*
X62104996Y-8900598D03*
X62387839Y-9183441D03*
X62670682Y-9466283D03*
X62953525Y-9749126D03*
X63236367Y-10031969D03*
X63519210Y-10314812D03*
X63802053Y-10597654D03*
X64084895Y-10880497D03*
X64367738Y-11163340D03*
X64650581Y-11446182D03*
D28*
X65923373Y-11446182D03*
X66206216Y-11163340D03*
X66489059Y-10880497D03*
X66771901Y-10597654D03*
X67054744Y-10314812D03*
X67337587Y-10031969D03*
X67620429Y-9749126D03*
X67903272Y-9466283D03*
X68186115Y-9183441D03*
X68468958Y-8900598D03*
X68751800Y-8617755D03*
X69034643Y-8334913D03*
X69317486Y-8052070D03*
X69600328Y-7769227D03*
D29*
X65286977Y-7132831D03*
%TD*%
D13*
%TO.C,R4*%
X77229210Y-1900000D03*
X78249210Y-1900000D03*
%TD*%
D16*
%TO.C,R8*%
X20669210Y-4997163D03*
X20669210Y-3977163D03*
%TD*%
D11*
%TO.C,C17*%
X27341265Y-5300000D03*
X26381265Y-5300000D03*
%TD*%
D30*
%TO.C,USB1*%
X6970210Y-3932831D03*
X6970210Y-4732831D03*
D31*
X6970210Y-5882831D03*
X6970210Y-6882831D03*
X6970210Y-7382831D03*
X6970210Y-8382831D03*
D30*
X6970210Y-10332831D03*
X6970210Y-9532831D03*
D31*
X6970210Y-8882831D03*
X6970210Y-7882831D03*
X6970210Y-6382831D03*
X6970210Y-5382831D03*
%TD*%
D32*
%TO.C,U4*%
X17586905Y-9005805D03*
D33*
X17543905Y-9405805D03*
D34*
X17751905Y-10037805D03*
X18151905Y-10037805D03*
X18551905Y-10037805D03*
D33*
X18759905Y-9405805D03*
X18759905Y-9005805D03*
D34*
X18551905Y-8373805D03*
X18151905Y-8373805D03*
X17751905Y-8373805D03*
%TD*%
D12*
%TO.C,C7*%
X74999210Y-1870000D03*
X74039210Y-1870000D03*
%TD*%
D18*
%TO.C,SW2*%
X37641265Y-5585000D03*
X33341265Y-5585000D03*
X37641265Y-3435000D03*
X33341265Y-3435000D03*
%TD*%
D35*
%TO.C,U3*%
X49606265Y-9792000D03*
X50876265Y-9792000D03*
X52146265Y-9792000D03*
X53416265Y-9792000D03*
X53416265Y-4428000D03*
X52146265Y-4428000D03*
X50876265Y-4428000D03*
X49606265Y-4428000D03*
%TD*%
D16*
%TO.C,R6*%
X71349210Y-11505664D03*
X71349210Y-10485664D03*
%TD*%
D13*
%TO.C,R1*%
X13249210Y-1945663D03*
X12229210Y-1945663D03*
%TD*%
%TO.C,R5*%
X18679210Y-11520663D03*
X17659210Y-11520663D03*
%TD*%
D36*
%TO.C,U2*%
X41526265Y-10650000D03*
X42796265Y-10650000D03*
X44066265Y-10650000D03*
X45336265Y-10650000D03*
X45336265Y-3590000D03*
X44066265Y-3590000D03*
X42796265Y-3590000D03*
X41526265Y-3590000D03*
%TD*%
D37*
%TO.C,U1*%
X12239210Y-6705663D03*
X13189210Y-6705663D03*
X14139210Y-6705663D03*
X14139210Y-4105663D03*
X12239210Y-4105663D03*
%TD*%
D38*
%TO.C,U7*%
X19360960Y-3603663D03*
X18710960Y-3603663D03*
X18060960Y-3603663D03*
X18060960Y-5443663D03*
X18710960Y-5443663D03*
X19360960Y-5443663D03*
%TD*%
D11*
%TO.C,C11*%
X18629210Y-7390805D03*
X17669210Y-7390805D03*
%TD*%
M02*
