%TF.GenerationSoftware,KiCad,Pcbnew,7.0.10*%
%TF.CreationDate,2024-01-31T15:31:13+08:00*%
%TF.ProjectId,UINIO-MCU-ESP32S3,55494e49-4f2d-44d4-9355-2d4553503332,Version 3.2.1*%
%TF.SameCoordinates,PX629df6ePY56b2a99*%
%TF.FileFunction,Soldermask,Top*%
%TF.FilePolarity,Negative*%
%FSLAX46Y46*%
G04 Gerber Fmt 4.6, Leading zero omitted, Abs format (unit mm)*
G04 Created by KiCad (PCBNEW 7.0.10) date 2024-01-31 15:31:13*
%MOMM*%
%LPD*%
G01*
G04 APERTURE LIST*
G04 Aperture macros list*
%AMRoundRect*
0 Rectangle with rounded corners*
0 $1 Rounding radius*
0 $2 $3 $4 $5 $6 $7 $8 $9 X,Y pos of 4 corners*
0 Add a 4 corners polygon primitive as box body*
4,1,4,$2,$3,$4,$5,$6,$7,$8,$9,$2,$3,0*
0 Add four circle primitives for the rounded corners*
1,1,$1+$1,$2,$3*
1,1,$1+$1,$4,$5*
1,1,$1+$1,$6,$7*
1,1,$1+$1,$8,$9*
0 Add four rect primitives between the rounded corners*
20,1,$1+$1,$2,$3,$4,$5,0*
20,1,$1+$1,$4,$5,$6,$7,0*
20,1,$1+$1,$6,$7,$8,$9,0*
20,1,$1+$1,$8,$9,$2,$3,0*%
%AMRotRect*
0 Rectangle, with rotation*
0 The origin of the aperture is its center*
0 $1 length*
0 $2 width*
0 $3 Rotation angle, in degrees counterclockwise*
0 Add horizontal line*
21,1,$1,$2,0,0,$3*%
G04 Aperture macros list end*
%ADD10RoundRect,0.140000X0.140000X0.170000X-0.140000X0.170000X-0.140000X-0.170000X0.140000X-0.170000X0*%
%ADD11RoundRect,0.140000X-0.140000X-0.170000X0.140000X-0.170000X0.140000X0.170000X-0.140000X0.170000X0*%
%ADD12RoundRect,0.135000X0.135000X0.185000X-0.135000X0.185000X-0.135000X-0.185000X0.135000X-0.185000X0*%
%ADD13RoundRect,0.218750X0.218750X0.256250X-0.218750X0.256250X-0.218750X-0.256250X0.218750X-0.256250X0*%
%ADD14RoundRect,0.140000X0.170000X-0.140000X0.170000X0.140000X-0.170000X0.140000X-0.170000X-0.140000X0*%
%ADD15RoundRect,0.135000X0.185000X-0.135000X0.185000X0.135000X-0.185000X0.135000X-0.185000X-0.135000X0*%
%ADD16R,1.200000X0.650000*%
%ADD17RoundRect,0.140000X-0.170000X0.140000X-0.170000X-0.140000X0.170000X-0.140000X0.170000X0.140000X0*%
%ADD18RoundRect,0.135000X-0.135000X-0.185000X0.135000X-0.185000X0.135000X0.185000X-0.135000X0.185000X0*%
%ADD19R,0.250000X0.750000*%
%ADD20R,0.750000X0.250000*%
%ADD21R,1.700000X1.700000*%
%ADD22R,1.400000X1.200000*%
%ADD23RoundRect,0.147500X0.147500X0.172500X-0.147500X0.172500X-0.147500X-0.172500X0.147500X-0.172500X0*%
%ADD24C,1.200000*%
%ADD25RotRect,0.200000X0.900000X135.000000*%
%ADD26RotRect,0.200000X0.900000X225.000000*%
%ADD27RotRect,0.200000X0.900000X315.000000*%
%ADD28RotRect,0.200000X0.900000X45.000000*%
%ADD29RotRect,4.000000X4.000000X225.000000*%
%ADD30O,1.700000X1.700000*%
%ADD31C,0.650000*%
%ADD32O,2.100000X1.000000*%
%ADD33O,1.900000X1.000000*%
%ADD34R,1.150000X0.600000*%
%ADD35R,1.150000X0.300000*%
%ADD36R,0.750000X0.200000*%
%ADD37R,0.665000X0.200000*%
%ADD38R,0.200000X0.665000*%
%ADD39O,0.630000X1.865000*%
%ADD40O,0.630000X2.250000*%
%ADD41R,0.600000X1.000000*%
%ADD42R,0.420000X0.700000*%
G04 APERTURE END LIST*
D10*
%TO.C,C15*%
X79239210Y-9405663D03*
X78279210Y-9405663D03*
%TD*%
%TO.C,C12*%
X61819210Y-2865663D03*
X60859210Y-2865663D03*
%TD*%
D11*
%TO.C,C14*%
X23029210Y-8440000D03*
X23989210Y-8440000D03*
%TD*%
D12*
%TO.C,R9*%
X27391265Y-3410000D03*
X26371265Y-3410000D03*
%TD*%
D13*
%TO.C,D1*%
X13844210Y-10195663D03*
X12269210Y-10195663D03*
%TD*%
D14*
%TO.C,C9*%
X75939210Y-7575663D03*
X75939210Y-6615663D03*
%TD*%
%TO.C,C10*%
X74099210Y-7575663D03*
X74099210Y-6615663D03*
%TD*%
%TO.C,C19*%
X70479210Y-11295663D03*
X70479210Y-10335663D03*
%TD*%
D15*
%TO.C,R7*%
X16789210Y-4997163D03*
X16789210Y-3977163D03*
%TD*%
D16*
%TO.C,SW1*%
X33340000Y-8685000D03*
X37640000Y-8685000D03*
X33340000Y-10835000D03*
X37640000Y-10835000D03*
%TD*%
D10*
%TO.C,C1*%
X13199210Y-7795663D03*
X12239210Y-7795663D03*
%TD*%
D17*
%TO.C,C4*%
X75930000Y-4020000D03*
X75930000Y-4980000D03*
%TD*%
D18*
%TO.C,R2*%
X11996710Y-12585663D03*
X13016710Y-12585663D03*
%TD*%
D19*
%TO.C,U6*%
X27329265Y-7255663D03*
X26830265Y-7255663D03*
X26329265Y-7255663D03*
X25830265Y-7255663D03*
D20*
X25131265Y-7955663D03*
X25131265Y-8455663D03*
X25131265Y-8955663D03*
X25131265Y-9455663D03*
D19*
X25831265Y-10155663D03*
X26331265Y-10155663D03*
X26831265Y-10155663D03*
X27330265Y-10155663D03*
D20*
X28031265Y-9455663D03*
X28031265Y-8955663D03*
X28031265Y-8455663D03*
X28031265Y-7955663D03*
D21*
X26581265Y-8705663D03*
%TD*%
D14*
%TO.C,C20*%
X56891265Y-7615663D03*
X56891265Y-6655663D03*
%TD*%
D10*
%TO.C,C2*%
X13199210Y-3025663D03*
X12239210Y-3025663D03*
%TD*%
D18*
%TO.C,R3*%
X11996710Y-11525663D03*
X13016710Y-11525663D03*
%TD*%
D17*
%TO.C,C3*%
X74090000Y-4020000D03*
X74090000Y-4980000D03*
%TD*%
%TO.C,C6*%
X77780000Y-4020000D03*
X77780000Y-4980000D03*
%TD*%
D11*
%TO.C,C13*%
X23059210Y-10160000D03*
X24019210Y-10160000D03*
%TD*%
%TO.C,C16*%
X78289210Y-11095663D03*
X79249210Y-11095663D03*
%TD*%
D22*
%TO.C,Y1*%
X76849210Y-9145663D03*
X74649210Y-9145663D03*
X74649210Y-10845663D03*
X76849210Y-10845663D03*
%TD*%
D14*
%TO.C,C5*%
X82270000Y-4840000D03*
X82270000Y-5800000D03*
%TD*%
%TO.C,C18*%
X58061265Y-7615663D03*
X58061265Y-6655663D03*
%TD*%
D23*
%TO.C,L1*%
X80395000Y-5800000D03*
X81365000Y-5800000D03*
%TD*%
D24*
%TO.C,HOLE\u002A\u002A*%
X85549210Y-15945663D03*
%TD*%
D17*
%TO.C,C8*%
X79490000Y-6760000D03*
X79490000Y-5800000D03*
%TD*%
D25*
%TO.C,U5*%
X69600328Y-6496435D03*
X69317486Y-6213592D03*
X69034643Y-5930749D03*
X68751800Y-5647907D03*
X68468958Y-5365064D03*
X68186115Y-5082221D03*
X67903272Y-4799379D03*
X67620429Y-4516536D03*
X67337587Y-4233693D03*
X67054744Y-3950850D03*
X66771901Y-3668008D03*
X66489059Y-3385165D03*
X66206216Y-3102322D03*
X65923373Y-2819480D03*
D26*
X64650581Y-2819480D03*
X64367738Y-3102322D03*
X64084895Y-3385165D03*
X63802053Y-3668008D03*
X63519210Y-3950850D03*
X63236367Y-4233693D03*
X62953525Y-4516536D03*
X62670682Y-4799379D03*
X62387839Y-5082221D03*
X62104996Y-5365064D03*
X61822154Y-5647907D03*
X61539311Y-5930749D03*
X61256468Y-6213592D03*
X60973626Y-6496435D03*
D27*
X60973626Y-7769227D03*
X61256468Y-8052070D03*
X61539311Y-8334913D03*
X61822154Y-8617755D03*
X62104996Y-8900598D03*
X62387839Y-9183441D03*
X62670682Y-9466283D03*
X62953525Y-9749126D03*
X63236367Y-10031969D03*
X63519210Y-10314812D03*
X63802053Y-10597654D03*
X64084895Y-10880497D03*
X64367738Y-11163340D03*
X64650581Y-11446182D03*
D28*
X65923373Y-11446182D03*
X66206216Y-11163340D03*
X66489059Y-10880497D03*
X66771901Y-10597654D03*
X67054744Y-10314812D03*
X67337587Y-10031969D03*
X67620429Y-9749126D03*
X67903272Y-9466283D03*
X68186115Y-9183441D03*
X68468958Y-8900598D03*
X68751800Y-8617755D03*
X69034643Y-8334913D03*
X69317486Y-8052070D03*
X69600328Y-7769227D03*
D29*
X65286977Y-7132831D03*
%TD*%
D12*
%TO.C,R4*%
X78249210Y-2665663D03*
X77229210Y-2665663D03*
%TD*%
D24*
%TO.C,HOLE\u002A\u002A*%
X14416265Y-15945663D03*
%TD*%
D21*
%TO.C,J3*%
X4189210Y1664337D03*
D30*
X6729210Y1664337D03*
X9269210Y1664337D03*
X11809210Y1664337D03*
%TD*%
D15*
%TO.C,R8*%
X20669210Y-4997163D03*
X20669210Y-3977163D03*
%TD*%
D10*
%TO.C,C17*%
X27341265Y-5300000D03*
X26381265Y-5300000D03*
%TD*%
D31*
%TO.C,USB1*%
X5708210Y-4242831D03*
X5708210Y-10022831D03*
D32*
X6208210Y-2807831D03*
X6208210Y-11457831D03*
D33*
X2008210Y-2807831D03*
X2008210Y-11457831D03*
D34*
X6970210Y-3932831D03*
X6970210Y-4732831D03*
D35*
X6970210Y-5882831D03*
X6970210Y-6882831D03*
X6970210Y-7382831D03*
X6970210Y-8382831D03*
D34*
X6970210Y-10332831D03*
X6970210Y-9532831D03*
D35*
X6970210Y-8882831D03*
X6970210Y-7882831D03*
X6970210Y-6382831D03*
X6970210Y-5382831D03*
%TD*%
D36*
%TO.C,U4*%
X17586905Y-9005805D03*
D37*
X17543905Y-9405805D03*
D38*
X17751905Y-10037805D03*
X18151905Y-10037805D03*
X18551905Y-10037805D03*
D37*
X18759905Y-9405805D03*
X18759905Y-9005805D03*
D38*
X18551905Y-8373805D03*
X18151905Y-8373805D03*
X17751905Y-8373805D03*
%TD*%
D11*
%TO.C,C7*%
X74039210Y-2635663D03*
X74999210Y-2635663D03*
%TD*%
D16*
%TO.C,SW2*%
X37641265Y-5585000D03*
X33341265Y-5585000D03*
X37641265Y-3435000D03*
X33341265Y-3435000D03*
%TD*%
D39*
%TO.C,U3*%
X49606265Y-9792000D03*
X50876265Y-9792000D03*
X52146265Y-9792000D03*
X53416265Y-9792000D03*
X53416265Y-4428000D03*
X52146265Y-4428000D03*
X50876265Y-4428000D03*
X49606265Y-4428000D03*
%TD*%
D15*
%TO.C,R6*%
X71669210Y-11305663D03*
X71669210Y-10285663D03*
%TD*%
D24*
%TO.C,HOLE\u002A\u002A*%
X14416265Y1664337D03*
%TD*%
D21*
%TO.C,J1*%
X6739210Y-15945663D03*
D30*
X9279210Y-15945663D03*
X11819210Y-15945663D03*
%TD*%
D12*
%TO.C,R1*%
X13249210Y-1945663D03*
X12229210Y-1945663D03*
%TD*%
%TO.C,R5*%
X18679210Y-11520663D03*
X17659210Y-11520663D03*
%TD*%
D40*
%TO.C,U2*%
X41526265Y-10650000D03*
X42796265Y-10650000D03*
X44066265Y-10650000D03*
X45336265Y-10650000D03*
X45336265Y-3590000D03*
X44066265Y-3590000D03*
X42796265Y-3590000D03*
X41526265Y-3590000D03*
%TD*%
D24*
%TO.C,HOLE\u002A\u002A*%
X85549210Y1664337D03*
%TD*%
D41*
%TO.C,U1*%
X12239210Y-6705663D03*
X13189210Y-6705663D03*
X14139210Y-6705663D03*
X14139210Y-4105663D03*
X12239210Y-4105663D03*
%TD*%
D42*
%TO.C,U7*%
X19360960Y-3603663D03*
X18710960Y-3603663D03*
X18060960Y-3603663D03*
X18060960Y-5443663D03*
X18710960Y-5443663D03*
X19360960Y-5443663D03*
%TD*%
D10*
%TO.C,C11*%
X18629210Y-7390805D03*
X17669210Y-7390805D03*
%TD*%
D21*
%TO.C,J2*%
X83111265Y1664337D03*
D30*
X80571265Y1664337D03*
X78031265Y1664337D03*
X75491265Y1664337D03*
X72951265Y1664337D03*
X70411265Y1664337D03*
X67871265Y1664337D03*
X65331265Y1664337D03*
X62791265Y1664337D03*
X60251265Y1664337D03*
X57711265Y1664337D03*
X55171265Y1664337D03*
X52631265Y1664337D03*
X50091265Y1664337D03*
X47551265Y1664337D03*
X45011265Y1664337D03*
X42471265Y1664337D03*
X39931265Y1664337D03*
X37391265Y1664337D03*
X34851265Y1664337D03*
X32311265Y1664337D03*
X29771265Y1664337D03*
X27231265Y1664337D03*
X24691265Y1664337D03*
X22151265Y1664337D03*
X19611265Y1664337D03*
X17071265Y1664337D03*
%TD*%
D21*
%TO.C,J4*%
X83111265Y-15945663D03*
D30*
X80571265Y-15945663D03*
X78031265Y-15945663D03*
X75491265Y-15945663D03*
X72951265Y-15945663D03*
X70411265Y-15945663D03*
X67871265Y-15945663D03*
X65331265Y-15945663D03*
X62791265Y-15945663D03*
X60251265Y-15945663D03*
X57711265Y-15945663D03*
X55171265Y-15945663D03*
X52631265Y-15945663D03*
X50091265Y-15945663D03*
X47551265Y-15945663D03*
X45011265Y-15945663D03*
X42471265Y-15945663D03*
X39931265Y-15945663D03*
X37391265Y-15945663D03*
X34851265Y-15945663D03*
X32311265Y-15945663D03*
X29771265Y-15945663D03*
X27231265Y-15945663D03*
X24691265Y-15945663D03*
X22151265Y-15945663D03*
X19611265Y-15945663D03*
X17071265Y-15945663D03*
%TD*%
M02*
