M48
; DRILL file {KiCad 7.0.5} date Thu Jul  6 11:03:35 2023
; FORMAT={-:-/ absolute / metric / decimal}
; #@! TF.CreationDate,2023-07-06T11:03:35+08:00
; #@! TF.GenerationSoftware,Kicad,Pcbnew,7.0.5
; #@! TF.FileFunction,MixedPlating,1,2
FMAT,2
METRIC
; #@! TA.AperFunction,Plated,PTH,ViaDrill
T1C0.300
; #@! TA.AperFunction,Plated,PTH,ComponentDrill
T2C0.300
; #@! TA.AperFunction,Plated,PTH,ViaDrill
T3C0.400
; #@! TA.AperFunction,Plated,PTH,ComponentDrill
T4C0.600
; #@! TA.AperFunction,Plated,PTH,ComponentDrill
T5C1.000
; #@! TA.AperFunction,Plated,PTH,ComponentDrill
T6C1.200
; #@! TA.AperFunction,NonPlated,NPTH,ComponentDrill
T7C0.650
%
G90
G05
T1
X6.149Y-6.386
X6.152Y-7.383
X6.96Y-1.14
X8.06Y-3.51
X8.969Y-5.896
X8.974Y-2.261
X10.501Y-6.941
X10.501Y-9.78
X10.699Y-0.536
X10.901Y-13.24
X13.844Y-10.915
X13.844Y-12.621
X14.191Y-8.211
X14.869Y-1.956
X14.889Y-7.396
X14.891Y-11.486
X15.45Y-10.715
X15.581Y-5.01
X17.2Y-10.726
X18.149Y-10.636
X19.129Y-10.036
X19.35Y-2.565
X20.42Y-0.63
X20.669Y-2.606
X20.691Y-7.48
X21.421Y-5.6
X22.0Y-2.78
X22.911Y-5.27
X23.325Y-2.965
X23.741Y-7.167
X24.066Y-2.319
X24.07Y-1.42
X24.345Y-3.825
X24.579Y-7.106
X25.049Y-7.555
X25.42Y-13.86
X25.629Y-1.42
X25.78Y-2.319
X26.331Y-6.465
X26.575Y-8.69
X26.782Y-1.869
X27.309Y-4.399
X27.325Y-6.39
X27.351Y-11.11
X29.025Y-8.115
X29.72Y-1.869
X29.725Y-4.115
X29.725Y-6.39
X29.771Y-14.21
X30.771Y-6.48
X32.021Y-1.4
X32.021Y-6.52
X33.581Y-1.4
X37.611Y-4.01
X38.779Y-2.646
X39.43Y-6.45
X40.04Y-4.94
X40.13Y-11.96
X40.131Y-10.65
X40.39Y-9.01
X41.52Y-5.725
X42.791Y-12.46
X43.43Y-8.82
X44.01Y-12.546
X44.066Y-9.28
X44.12Y-6.45
X46.62Y-4.83
X46.831Y-9.929
X48.49Y-4.83
X49.611Y-5.725
X52.791Y-11.19
X53.411Y-8.52
X54.111Y-11.19
X54.57Y-4.81
X55.0Y-8.85
X55.24Y-5.725
X56.881Y-5.25
X58.253Y-8.843
X60.861Y-2.065
X61.871Y-2.07
X64.16Y-12.58
X66.611Y-12.58
X69.109Y-10.535
X69.11Y-11.743
X69.121Y-11.135
X69.351Y-4.0
X69.615Y-10.085
X70.11Y-3.38
X70.45Y-5.29
X70.46Y-6.62
X70.48Y-7.576
X71.24Y-9.856
X71.357Y-4.99
X71.37Y-6.62
X71.661Y-12.47
X71.754Y-2.646
X72.28Y-3.36
X72.28Y-4.99
X72.28Y-6.62
X73.19Y-1.82
X73.19Y-3.36
X73.19Y-4.99
X73.19Y-6.62
X73.31Y-8.39
X73.311Y-12.05
X74.35Y-13.81
X75.01Y-4.99
X75.01Y-6.62
X75.62Y-12.17
X76.695Y-12.17
X76.695Y-13.17
X76.85Y-4.99
X77.14Y-6.62
X77.14Y-7.57
X77.77Y-12.17
X77.77Y-13.17
X78.067Y-6.62
X78.067Y-7.57
X78.07Y-8.49
X78.845Y-12.17
X78.845Y-13.17
X78.993Y-4.99
X78.993Y-7.57
X78.997Y-8.49
X79.91Y-4.99
X79.92Y-0.16
X79.92Y-1.16
X79.92Y-2.16
X79.92Y-3.16
X79.92Y-4.16
X79.92Y-7.15
X79.92Y-8.15
X79.92Y-9.15
X79.92Y-10.15
X79.92Y-11.16
X79.92Y-12.15
X79.92Y-13.16
X79.92Y-14.16
X80.88Y-4.99
X80.89Y-0.16
X80.89Y-1.16
X80.89Y-2.16
X80.89Y-3.16
X80.89Y-4.16
X80.89Y-7.16
X80.89Y-8.16
X80.89Y-9.16
X80.89Y-10.16
X80.89Y-11.16
X80.89Y-12.16
X80.89Y-13.16
X80.89Y-14.16
X81.8Y-0.16
X81.8Y-1.16
X81.8Y-2.16
X81.8Y-3.16
X81.8Y-4.16
X81.86Y-7.16
X81.86Y-8.16
X81.86Y-9.16
X81.86Y-10.16
X81.86Y-11.16
X81.86Y-12.16
X81.86Y-13.16
X81.86Y-14.16
X82.83Y-0.16
X82.83Y-1.16
X82.83Y-2.16
X82.83Y-3.16
X82.83Y-4.16
X82.83Y-5.03
X82.83Y-7.16
X82.83Y-8.16
X82.83Y-9.16
X82.83Y-10.16
X82.83Y-11.16
X82.83Y-12.16
X82.83Y-13.16
X82.83Y-14.16
X83.8Y-0.16
X83.8Y-1.16
X83.8Y-2.16
X83.8Y-7.16
X83.8Y-8.16
X83.8Y-9.16
X83.8Y-10.16
X83.8Y-11.16
X83.8Y-12.16
X83.8Y-13.16
X83.8Y-14.16
X84.77Y-0.16
X84.77Y-1.16
X84.77Y-4.16
X84.77Y-5.16
X84.77Y-6.16
X84.77Y-7.16
X84.77Y-8.16
X84.77Y-9.16
X84.77Y-10.16
X84.77Y-11.16
X84.77Y-12.16
X84.77Y-13.16
X84.77Y-14.16
T2
X85.466Y-0.51
T3
X8.05Y-4.733
X8.05Y-9.555
X10.499Y-3.036
X17.075Y-2.49
X17.088Y-0.164
X18.761Y-14.189
X23.321Y-0.63
X28.625Y-13.315
X28.801Y-0.636
X63.101Y-7.13
X64.131Y-6.1
X64.131Y-8.19
X65.281Y-4.94
X65.281Y-7.13
X65.281Y-9.32
X66.421Y-6.1
X66.421Y-8.19
X67.471Y-7.13
X78.251Y-0.63
T5
X4.189Y1.664
X6.729Y1.664
X6.739Y-15.946
X9.269Y1.664
X9.279Y-15.946
X11.809Y1.664
X11.819Y-15.946
X17.071Y1.664
X17.071Y-15.946
X19.611Y1.664
X19.611Y-15.946
X22.151Y1.664
X22.151Y-15.946
X24.691Y1.664
X24.691Y-15.946
X27.231Y1.664
X27.231Y-15.946
X29.771Y1.664
X29.771Y-15.946
X32.311Y1.664
X32.311Y-15.946
X34.851Y1.664
X34.851Y-15.946
X37.391Y1.664
X37.391Y-15.946
X39.931Y1.664
X39.931Y-15.946
X42.471Y1.664
X42.471Y-15.946
X45.011Y1.664
X45.011Y-15.946
X47.551Y1.664
X47.551Y-15.946
X50.091Y1.664
X50.091Y-15.946
X52.631Y1.664
X52.631Y-15.946
X55.171Y1.664
X55.171Y-15.946
X57.711Y1.664
X57.711Y-15.946
X60.251Y1.664
X60.251Y-15.946
X62.791Y1.664
X62.791Y-15.946
X65.331Y1.664
X65.331Y-15.946
X67.871Y1.664
X67.871Y-15.946
X70.411Y1.664
X70.411Y-15.946
X72.951Y1.664
X72.951Y-15.946
X75.491Y1.664
X75.491Y-15.946
X78.031Y1.664
X78.031Y-15.946
X80.571Y1.664
X80.571Y-15.946
X83.111Y1.664
X83.111Y-15.946
T6
X14.416Y1.664
X14.416Y-15.946
X85.549Y1.664
X85.549Y-15.946
T7
X5.708Y-4.243
X5.708Y-10.023
T4
G00X2.458Y-2.808
M15
G01X1.558Y-2.808
M16
G05
G00X2.458Y-11.458
M15
G01X1.558Y-11.458
M16
G05
G00X6.808Y-2.808
M15
G01X5.608Y-2.808
M16
G05
G00X6.808Y-11.458
M15
G01X5.608Y-11.458
M16
G05
T0
M30
