%TF.GenerationSoftware,KiCad,Pcbnew,7.0.10*%
%TF.CreationDate,2024-01-31T16:58:02+08:00*%
%TF.ProjectId,UINIO-MCU-ESP32S3,55494e49-4f2d-44d4-9355-2d4553503332,Version 3.2.1*%
%TF.SameCoordinates,PX629df6ePY56b2a99*%
%TF.FileFunction,Legend,Bot*%
%TF.FilePolarity,Positive*%
%FSLAX46Y46*%
G04 Gerber Fmt 4.6, Leading zero omitted, Abs format (unit mm)*
G04 Created by KiCad (PCBNEW 7.0.10) date 2024-01-31 16:58:02*
%MOMM*%
%LPD*%
G01*
G04 APERTURE LIST*
%ADD10C,0.187500*%
%ADD11C,0.300000*%
%ADD12C,0.100000*%
%ADD13C,0.120000*%
%ADD14C,1.200000*%
%ADD15R,1.700000X1.700000*%
%ADD16O,1.700000X1.700000*%
%ADD17C,0.650000*%
%ADD18O,2.100000X1.000000*%
%ADD19O,1.900000X1.000000*%
G04 APERTURE END LIST*
D10*
G36*
X46149309Y-5480425D02*
G01*
X45643237Y-5480425D01*
X45643237Y-6915596D01*
X45643760Y-6951847D01*
X45645329Y-6986839D01*
X45647943Y-7020571D01*
X45651603Y-7053044D01*
X45656308Y-7084257D01*
X45662059Y-7114211D01*
X45668856Y-7142906D01*
X45676699Y-7170341D01*
X45685587Y-7196517D01*
X45695521Y-7221434D01*
X45706500Y-7245091D01*
X45718525Y-7267489D01*
X45731596Y-7288627D01*
X45745712Y-7308507D01*
X45760875Y-7327126D01*
X45777082Y-7344487D01*
X45794386Y-7360694D01*
X45812956Y-7375857D01*
X45832793Y-7389973D01*
X45853897Y-7403044D01*
X45876268Y-7415069D01*
X45899906Y-7426048D01*
X45924811Y-7435982D01*
X45950983Y-7444870D01*
X45978422Y-7452713D01*
X46007129Y-7459510D01*
X46037102Y-7465261D01*
X46068342Y-7469966D01*
X46100849Y-7473626D01*
X46134623Y-7476240D01*
X46169665Y-7477809D01*
X46205973Y-7478332D01*
X46852728Y-7478332D01*
X46889038Y-7477809D01*
X46924085Y-7476240D01*
X46957869Y-7473626D01*
X46990389Y-7469966D01*
X47021647Y-7465261D01*
X47051641Y-7459510D01*
X47080372Y-7452713D01*
X47107840Y-7444870D01*
X47134044Y-7435982D01*
X47158986Y-7426048D01*
X47182664Y-7415069D01*
X47205079Y-7403044D01*
X47226231Y-7389973D01*
X47246119Y-7375857D01*
X47264745Y-7360694D01*
X47282107Y-7344487D01*
X47298256Y-7327126D01*
X47313362Y-7308507D01*
X47327427Y-7288627D01*
X47340450Y-7267489D01*
X47352432Y-7245091D01*
X47363371Y-7221434D01*
X47373269Y-7196517D01*
X47382124Y-7170341D01*
X47389938Y-7142906D01*
X47396710Y-7114211D01*
X47402440Y-7084257D01*
X47407129Y-7053044D01*
X47410775Y-7020571D01*
X47413380Y-6986839D01*
X47414943Y-6951847D01*
X47415463Y-6915596D01*
X47415463Y-5480425D01*
X46909392Y-5480425D01*
X46909392Y-6915596D01*
X46908732Y-6936004D01*
X46905266Y-6964147D01*
X46898829Y-6989327D01*
X46889421Y-7011545D01*
X46877042Y-7030801D01*
X46861691Y-7047094D01*
X46843370Y-7060425D01*
X46822078Y-7070793D01*
X46797815Y-7078199D01*
X46770581Y-7082643D01*
X46750775Y-7083959D01*
X46740376Y-7084124D01*
X46318325Y-7084124D01*
X46297858Y-7083465D01*
X46269633Y-7080009D01*
X46244380Y-7073591D01*
X46222098Y-7064210D01*
X46202786Y-7051866D01*
X46186446Y-7036561D01*
X46173076Y-7018293D01*
X46162678Y-6997062D01*
X46155251Y-6972869D01*
X46150794Y-6945714D01*
X46149474Y-6925965D01*
X46149309Y-6915596D01*
X46149309Y-5480425D01*
G37*
G36*
X44388806Y-7450000D02*
G01*
X45401437Y-7450000D01*
X45401437Y-7056280D01*
X45148401Y-7056280D01*
X45148401Y-5874145D01*
X45401437Y-5874145D01*
X45401437Y-5480425D01*
X44388806Y-5480425D01*
X44388806Y-5874145D01*
X44641842Y-5874145D01*
X44641842Y-7056280D01*
X44388806Y-7056280D01*
X44388806Y-7450000D01*
G37*
G36*
X42426559Y-7450000D02*
G01*
X42960962Y-7450000D01*
X43636538Y-6268353D01*
X43636538Y-7450000D01*
X44142609Y-7450000D01*
X44142609Y-5480425D01*
X43608206Y-5480425D01*
X42933119Y-6662072D01*
X42933119Y-5480425D01*
X42426559Y-5480425D01*
X42426559Y-7450000D01*
G37*
G36*
X41170662Y-7450000D02*
G01*
X42183293Y-7450000D01*
X42183293Y-7056280D01*
X41930258Y-7056280D01*
X41930258Y-5874145D01*
X42183293Y-5874145D01*
X42183293Y-5480425D01*
X41170662Y-5480425D01*
X41170662Y-5874145D01*
X41423698Y-5874145D01*
X41423698Y-7056280D01*
X41170662Y-7056280D01*
X41170662Y-7450000D01*
G37*
G36*
X40454645Y-5452616D02*
G01*
X40489637Y-5454184D01*
X40523369Y-5456799D01*
X40555842Y-5460458D01*
X40587055Y-5465164D01*
X40617010Y-5470915D01*
X40645704Y-5477712D01*
X40673140Y-5485554D01*
X40699316Y-5494442D01*
X40724232Y-5504376D01*
X40747889Y-5515356D01*
X40770287Y-5527381D01*
X40791426Y-5540452D01*
X40811305Y-5554568D01*
X40829924Y-5569730D01*
X40847285Y-5585938D01*
X40863493Y-5603298D01*
X40878655Y-5621918D01*
X40892771Y-5641797D01*
X40905842Y-5662936D01*
X40917867Y-5685333D01*
X40928847Y-5708991D01*
X40938780Y-5733907D01*
X40947669Y-5760083D01*
X40955511Y-5787519D01*
X40962308Y-5816213D01*
X40968059Y-5846167D01*
X40972765Y-5877381D01*
X40976424Y-5909854D01*
X40979039Y-5943586D01*
X40980607Y-5978578D01*
X40981130Y-6014829D01*
X40981130Y-6915596D01*
X40980607Y-6951847D01*
X40979039Y-6986839D01*
X40976424Y-7020571D01*
X40972765Y-7053044D01*
X40968059Y-7084257D01*
X40962308Y-7114211D01*
X40955511Y-7142906D01*
X40947669Y-7170341D01*
X40938780Y-7196517D01*
X40928847Y-7221434D01*
X40917867Y-7245091D01*
X40905842Y-7267489D01*
X40892771Y-7288627D01*
X40878655Y-7308507D01*
X40863493Y-7327126D01*
X40847285Y-7344487D01*
X40829924Y-7360694D01*
X40811305Y-7375857D01*
X40791426Y-7389973D01*
X40770287Y-7403044D01*
X40747889Y-7415069D01*
X40724232Y-7426048D01*
X40699316Y-7435982D01*
X40673140Y-7444870D01*
X40645704Y-7452713D01*
X40617010Y-7459510D01*
X40587055Y-7465261D01*
X40555842Y-7469966D01*
X40523369Y-7473626D01*
X40489637Y-7476240D01*
X40454645Y-7477809D01*
X40418394Y-7478332D01*
X39714975Y-7478332D01*
X39678667Y-7477809D01*
X39643626Y-7476240D01*
X39609851Y-7473626D01*
X39577344Y-7469966D01*
X39546104Y-7465261D01*
X39516131Y-7459510D01*
X39487425Y-7452713D01*
X39459985Y-7444870D01*
X39433813Y-7435982D01*
X39408908Y-7426048D01*
X39385270Y-7415069D01*
X39362899Y-7403044D01*
X39341795Y-7389973D01*
X39321958Y-7375857D01*
X39303388Y-7360694D01*
X39286085Y-7344487D01*
X39269877Y-7327126D01*
X39254715Y-7308507D01*
X39240598Y-7288627D01*
X39227527Y-7267489D01*
X39215502Y-7245091D01*
X39204523Y-7221434D01*
X39194589Y-7196517D01*
X39185701Y-7170341D01*
X39177858Y-7142906D01*
X39171061Y-7114211D01*
X39165310Y-7084257D01*
X39160605Y-7053044D01*
X39156945Y-7020571D01*
X39154331Y-6986839D01*
X39152762Y-6951847D01*
X39152239Y-6915596D01*
X39658311Y-6915596D01*
X39658476Y-6925965D01*
X39659796Y-6945714D01*
X39664253Y-6972869D01*
X39671680Y-6997062D01*
X39682079Y-7018293D01*
X39695448Y-7036561D01*
X39711788Y-7051866D01*
X39731100Y-7064210D01*
X39753382Y-7073591D01*
X39778636Y-7080009D01*
X39806860Y-7083465D01*
X39827327Y-7084124D01*
X40305554Y-7084124D01*
X40315953Y-7083959D01*
X40335759Y-7082643D01*
X40362993Y-7078199D01*
X40387256Y-7070793D01*
X40408548Y-7060425D01*
X40426869Y-7047094D01*
X40442219Y-7030801D01*
X40454599Y-7011545D01*
X40464007Y-6989327D01*
X40470444Y-6964147D01*
X40473910Y-6936004D01*
X40474570Y-6915596D01*
X40474570Y-6014829D01*
X40474405Y-6004460D01*
X40473085Y-5984711D01*
X40468628Y-5957555D01*
X40461201Y-5933363D01*
X40450802Y-5912132D01*
X40437433Y-5893864D01*
X40421092Y-5878558D01*
X40401781Y-5866215D01*
X40379499Y-5856834D01*
X40354245Y-5850415D01*
X40326021Y-5846959D01*
X40305554Y-5846301D01*
X39827327Y-5846301D01*
X39816928Y-5846466D01*
X39797122Y-5847782D01*
X39769888Y-5852226D01*
X39745625Y-5859632D01*
X39724333Y-5870000D01*
X39706011Y-5883331D01*
X39690661Y-5899624D01*
X39678282Y-5918880D01*
X39668874Y-5941098D01*
X39662437Y-5966278D01*
X39658971Y-5994421D01*
X39658311Y-6014829D01*
X39658311Y-6915596D01*
X39152239Y-6915596D01*
X39152239Y-6014829D01*
X39152762Y-5978578D01*
X39154331Y-5943586D01*
X39156945Y-5909854D01*
X39160605Y-5877381D01*
X39165310Y-5846167D01*
X39171061Y-5816213D01*
X39177858Y-5787519D01*
X39185701Y-5760083D01*
X39194589Y-5733907D01*
X39204523Y-5708991D01*
X39215502Y-5685333D01*
X39227527Y-5662936D01*
X39240598Y-5641797D01*
X39254715Y-5621918D01*
X39269877Y-5603298D01*
X39286085Y-5585938D01*
X39303388Y-5569730D01*
X39321958Y-5554568D01*
X39341795Y-5540452D01*
X39362899Y-5527381D01*
X39385270Y-5515356D01*
X39408908Y-5504376D01*
X39433813Y-5494442D01*
X39459985Y-5485554D01*
X39487425Y-5477712D01*
X39516131Y-5470915D01*
X39546104Y-5465164D01*
X39577344Y-5460458D01*
X39609851Y-5456799D01*
X39643626Y-5454184D01*
X39678667Y-5452616D01*
X39714975Y-5452093D01*
X40418394Y-5452093D01*
X40454645Y-5452616D01*
G37*
G36*
X38965149Y-6662072D02*
G01*
X38965149Y-6268353D01*
X37811835Y-6268353D01*
X37811835Y-6662072D01*
X38965149Y-6662072D01*
G37*
G36*
X35877431Y-6352861D02*
G01*
X36271639Y-7056280D01*
X36665359Y-7056280D01*
X37059567Y-6352861D01*
X37059567Y-7450000D01*
X37565638Y-7450000D01*
X37565638Y-5480425D01*
X37031235Y-5480425D01*
X36468499Y-6521388D01*
X35905764Y-5480425D01*
X35371360Y-5480425D01*
X35371360Y-7450000D01*
X35877431Y-7450000D01*
X35877431Y-6352861D01*
G37*
G36*
X33527815Y-7421667D02*
G01*
X33566808Y-7425154D01*
X33605383Y-7428529D01*
X33643542Y-7431794D01*
X33681284Y-7434948D01*
X33718608Y-7437992D01*
X33755516Y-7440924D01*
X33792007Y-7443747D01*
X33828081Y-7446458D01*
X33863738Y-7449059D01*
X33898978Y-7451549D01*
X33933802Y-7453928D01*
X33968208Y-7456197D01*
X34002197Y-7458355D01*
X34035770Y-7460403D01*
X34068925Y-7462339D01*
X34101664Y-7464166D01*
X34133985Y-7465881D01*
X34165890Y-7467486D01*
X34197378Y-7468980D01*
X34228449Y-7470363D01*
X34259103Y-7471636D01*
X34289340Y-7472798D01*
X34319160Y-7473849D01*
X34348563Y-7474790D01*
X34377549Y-7475620D01*
X34406118Y-7476340D01*
X34434270Y-7476948D01*
X34462006Y-7477446D01*
X34489324Y-7477834D01*
X34516226Y-7478110D01*
X34542710Y-7478276D01*
X34568778Y-7478332D01*
X34602705Y-7477826D01*
X34635487Y-7476309D01*
X34667124Y-7473781D01*
X34697616Y-7470241D01*
X34726964Y-7465690D01*
X34755166Y-7460128D01*
X34782224Y-7453554D01*
X34808136Y-7445969D01*
X34832904Y-7437373D01*
X34856527Y-7427766D01*
X34879005Y-7417147D01*
X34900338Y-7405517D01*
X34920526Y-7392875D01*
X34939569Y-7379223D01*
X34957468Y-7364558D01*
X34974221Y-7348883D01*
X34989897Y-7332129D01*
X35004561Y-7314231D01*
X35018214Y-7295188D01*
X35030855Y-7275000D01*
X35042485Y-7253666D01*
X35053104Y-7231188D01*
X35062712Y-7207566D01*
X35071308Y-7182798D01*
X35078893Y-7156885D01*
X35085466Y-7129828D01*
X35091029Y-7101625D01*
X35095579Y-7072278D01*
X35099119Y-7041786D01*
X35101647Y-7010149D01*
X35103164Y-6977367D01*
X35103670Y-6943440D01*
X35103670Y-6043161D01*
X35103147Y-6006852D01*
X35101579Y-5971811D01*
X35098965Y-5938037D01*
X35095305Y-5905530D01*
X35090599Y-5874290D01*
X35084848Y-5844316D01*
X35078051Y-5815610D01*
X35070209Y-5788171D01*
X35061321Y-5761999D01*
X35051387Y-5737094D01*
X35040407Y-5713456D01*
X35028382Y-5691085D01*
X35015311Y-5669981D01*
X35001195Y-5650143D01*
X34986033Y-5631573D01*
X34969825Y-5614270D01*
X34952465Y-5598062D01*
X34933845Y-5582900D01*
X34913966Y-5568784D01*
X34892827Y-5555713D01*
X34870430Y-5543688D01*
X34846772Y-5532708D01*
X34821856Y-5522775D01*
X34795680Y-5513886D01*
X34768244Y-5506044D01*
X34739550Y-5499247D01*
X34709596Y-5493496D01*
X34678382Y-5488790D01*
X34645909Y-5485131D01*
X34612177Y-5482517D01*
X34577185Y-5480948D01*
X34540934Y-5480425D01*
X33527815Y-5480425D01*
X33527815Y-5874145D01*
X34428094Y-5874145D01*
X34448561Y-5874805D01*
X34476785Y-5878271D01*
X34502039Y-5884708D01*
X34524321Y-5894116D01*
X34543633Y-5906495D01*
X34559973Y-5921845D01*
X34573342Y-5940167D01*
X34583741Y-5961459D01*
X34591168Y-5985722D01*
X34595625Y-6012956D01*
X34596945Y-6032762D01*
X34597110Y-6043161D01*
X34597110Y-6943440D01*
X34596180Y-6963087D01*
X34592608Y-6984931D01*
X34586357Y-7004886D01*
X34577427Y-7022953D01*
X34565818Y-7039130D01*
X34559008Y-7046510D01*
X34543982Y-7059293D01*
X34524584Y-7070864D01*
X34506357Y-7077916D01*
X34486654Y-7082324D01*
X34465473Y-7084087D01*
X34461800Y-7084124D01*
X34439240Y-7084072D01*
X34415890Y-7083918D01*
X34395828Y-7083710D01*
X34375218Y-7083431D01*
X34354059Y-7083080D01*
X34332351Y-7082658D01*
X34310238Y-7082176D01*
X34287863Y-7081647D01*
X34265225Y-7081070D01*
X34242325Y-7080445D01*
X34219162Y-7079772D01*
X34195737Y-7079052D01*
X34186294Y-7078750D01*
X34162456Y-7077834D01*
X34138571Y-7076919D01*
X34114638Y-7076003D01*
X34090658Y-7075087D01*
X34066629Y-7074171D01*
X34042553Y-7073255D01*
X34032909Y-7072889D01*
X34012904Y-7072072D01*
X33991480Y-7071087D01*
X33968635Y-7069935D01*
X33944371Y-7068614D01*
X33918688Y-7067126D01*
X33898493Y-7065899D01*
X33877500Y-7064579D01*
X33855709Y-7063163D01*
X33833119Y-7061653D01*
X33809601Y-7060071D01*
X33785028Y-7058436D01*
X33759398Y-7056750D01*
X33732712Y-7055013D01*
X33704970Y-7053224D01*
X33676172Y-7051384D01*
X33656386Y-7050128D01*
X33636131Y-7048850D01*
X33615407Y-7047548D01*
X33594213Y-7046224D01*
X33572550Y-7044877D01*
X33550417Y-7043507D01*
X33527815Y-7042114D01*
X33527815Y-7421667D01*
G37*
G36*
X32045750Y-5480425D02*
G01*
X31539678Y-5480425D01*
X31539678Y-6915596D01*
X31540201Y-6951847D01*
X31541770Y-6986839D01*
X31544384Y-7020571D01*
X31548044Y-7053044D01*
X31552749Y-7084257D01*
X31558500Y-7114211D01*
X31565297Y-7142906D01*
X31573140Y-7170341D01*
X31582028Y-7196517D01*
X31591962Y-7221434D01*
X31602941Y-7245091D01*
X31614966Y-7267489D01*
X31628037Y-7288627D01*
X31642154Y-7308507D01*
X31657316Y-7327126D01*
X31673523Y-7344487D01*
X31690827Y-7360694D01*
X31709397Y-7375857D01*
X31729234Y-7389973D01*
X31750338Y-7403044D01*
X31772709Y-7415069D01*
X31796347Y-7426048D01*
X31821252Y-7435982D01*
X31847424Y-7444870D01*
X31874864Y-7452713D01*
X31903570Y-7459510D01*
X31933543Y-7465261D01*
X31964783Y-7469966D01*
X31997290Y-7473626D01*
X32031064Y-7476240D01*
X32066106Y-7477809D01*
X32102414Y-7478332D01*
X32749169Y-7478332D01*
X32785479Y-7477809D01*
X32820526Y-7476240D01*
X32854310Y-7473626D01*
X32886830Y-7469966D01*
X32918088Y-7465261D01*
X32948082Y-7459510D01*
X32976813Y-7452713D01*
X33004281Y-7444870D01*
X33030485Y-7435982D01*
X33055427Y-7426048D01*
X33079105Y-7415069D01*
X33101520Y-7403044D01*
X33122672Y-7389973D01*
X33142560Y-7375857D01*
X33161186Y-7360694D01*
X33178548Y-7344487D01*
X33194697Y-7327126D01*
X33209803Y-7308507D01*
X33223868Y-7288627D01*
X33236891Y-7267489D01*
X33248873Y-7245091D01*
X33259812Y-7221434D01*
X33269710Y-7196517D01*
X33278565Y-7170341D01*
X33286379Y-7142906D01*
X33293151Y-7114211D01*
X33298881Y-7084257D01*
X33303570Y-7053044D01*
X33307216Y-7020571D01*
X33309821Y-6986839D01*
X33311384Y-6951847D01*
X33311904Y-6915596D01*
X33311904Y-5480425D01*
X32805833Y-5480425D01*
X32805833Y-6915596D01*
X32805173Y-6936004D01*
X32801707Y-6964147D01*
X32795270Y-6989327D01*
X32785862Y-7011545D01*
X32773483Y-7030801D01*
X32758132Y-7047094D01*
X32739811Y-7060425D01*
X32718519Y-7070793D01*
X32694256Y-7078199D01*
X32667022Y-7082643D01*
X32647216Y-7083959D01*
X32636817Y-7084124D01*
X32214766Y-7084124D01*
X32194299Y-7083465D01*
X32166074Y-7080009D01*
X32140821Y-7073591D01*
X32118539Y-7064210D01*
X32099227Y-7051866D01*
X32082887Y-7036561D01*
X32069517Y-7018293D01*
X32059119Y-6997062D01*
X32051692Y-6972869D01*
X32047235Y-6945714D01*
X32045915Y-6925965D01*
X32045750Y-6915596D01*
X32045750Y-5480425D01*
G37*
G36*
X31297878Y-6662072D02*
G01*
X31297878Y-6268353D01*
X30144563Y-6268353D01*
X30144563Y-6662072D01*
X31297878Y-6662072D01*
G37*
G36*
X28337166Y-7450000D02*
G01*
X29898366Y-7450000D01*
X29898366Y-5480425D01*
X28337166Y-5480425D01*
X28337166Y-5874145D01*
X29392295Y-5874145D01*
X29392295Y-6254187D01*
X28561870Y-6254187D01*
X28561870Y-6647906D01*
X29392295Y-6647906D01*
X29392295Y-7056280D01*
X28337166Y-7056280D01*
X28337166Y-7450000D01*
G37*
G36*
X28179385Y-7042114D02*
G01*
X28131694Y-7044699D01*
X28084976Y-7047201D01*
X28039229Y-7049622D01*
X27994455Y-7051960D01*
X27950653Y-7054216D01*
X27907824Y-7056391D01*
X27865966Y-7058483D01*
X27825081Y-7060493D01*
X27785167Y-7062421D01*
X27746226Y-7064268D01*
X27708258Y-7066032D01*
X27671261Y-7067714D01*
X27635237Y-7069314D01*
X27600184Y-7070832D01*
X27566104Y-7072267D01*
X27532997Y-7073621D01*
X27500861Y-7074893D01*
X27469698Y-7076083D01*
X27439506Y-7077190D01*
X27410287Y-7078216D01*
X27382041Y-7079160D01*
X27354766Y-7080021D01*
X27328464Y-7080801D01*
X27303134Y-7081498D01*
X27278776Y-7082113D01*
X27255390Y-7082647D01*
X27232976Y-7083098D01*
X27211535Y-7083467D01*
X27191066Y-7083754D01*
X27153044Y-7084083D01*
X27135491Y-7084124D01*
X27112239Y-7082801D01*
X27090841Y-7078834D01*
X27071297Y-7072223D01*
X27053609Y-7062966D01*
X27037775Y-7051065D01*
X27032909Y-7046510D01*
X27019961Y-7031278D01*
X27009691Y-7014156D01*
X27002100Y-6995145D01*
X26997189Y-6974245D01*
X26994956Y-6951456D01*
X26994807Y-6943440D01*
X26994807Y-6690404D01*
X27642051Y-6690404D01*
X27678361Y-6689883D01*
X27713408Y-6688321D01*
X27747192Y-6685716D01*
X27779712Y-6682069D01*
X27810970Y-6677381D01*
X27840964Y-6671651D01*
X27869695Y-6664879D01*
X27897163Y-6657065D01*
X27923367Y-6648209D01*
X27948309Y-6638312D01*
X27971987Y-6627372D01*
X27994402Y-6615391D01*
X28015554Y-6602368D01*
X28035442Y-6588303D01*
X28054068Y-6573196D01*
X28071430Y-6557048D01*
X28087579Y-6539685D01*
X28102685Y-6521060D01*
X28116750Y-6501171D01*
X28129773Y-6480020D01*
X28141755Y-6457605D01*
X28152694Y-6433926D01*
X28162592Y-6408985D01*
X28171447Y-6382780D01*
X28179261Y-6355313D01*
X28186033Y-6326582D01*
X28191763Y-6296587D01*
X28196452Y-6265330D01*
X28200098Y-6232810D01*
X28202703Y-6199026D01*
X28204266Y-6163979D01*
X28204787Y-6127669D01*
X28204787Y-6043161D01*
X28204266Y-6006852D01*
X28202703Y-5971811D01*
X28200098Y-5938037D01*
X28196452Y-5905530D01*
X28191763Y-5874290D01*
X28186033Y-5844316D01*
X28179261Y-5815610D01*
X28171447Y-5788171D01*
X28162592Y-5761999D01*
X28152694Y-5737094D01*
X28141755Y-5713456D01*
X28129773Y-5691085D01*
X28116750Y-5669981D01*
X28102685Y-5650143D01*
X28087579Y-5631573D01*
X28071430Y-5614270D01*
X28054068Y-5598062D01*
X28035442Y-5582900D01*
X28015554Y-5568784D01*
X27994402Y-5555713D01*
X27971987Y-5543688D01*
X27948309Y-5532708D01*
X27923367Y-5522775D01*
X27897163Y-5513886D01*
X27869695Y-5506044D01*
X27840964Y-5499247D01*
X27810970Y-5493496D01*
X27779712Y-5488790D01*
X27747192Y-5485131D01*
X27713408Y-5482517D01*
X27678361Y-5480948D01*
X27642051Y-5480425D01*
X26654333Y-5480425D01*
X26654333Y-5874145D01*
X27529699Y-5874145D01*
X27550107Y-5874805D01*
X27578250Y-5878271D01*
X27603430Y-5884708D01*
X27625648Y-5894116D01*
X27644904Y-5906495D01*
X27661197Y-5921845D01*
X27674528Y-5940167D01*
X27684896Y-5961459D01*
X27692302Y-5985722D01*
X27696746Y-6012956D01*
X27698062Y-6032762D01*
X27698227Y-6043161D01*
X27698227Y-6099337D01*
X27697569Y-6119803D01*
X27694112Y-6148028D01*
X27687694Y-6173281D01*
X27678313Y-6195563D01*
X27665970Y-6214875D01*
X27650664Y-6231215D01*
X27632396Y-6244585D01*
X27611165Y-6254983D01*
X27586972Y-6262411D01*
X27559817Y-6266867D01*
X27540068Y-6268188D01*
X27529699Y-6268353D01*
X27023140Y-6268353D01*
X26989272Y-6268858D01*
X26956545Y-6270375D01*
X26924960Y-6272904D01*
X26894515Y-6276443D01*
X26865212Y-6280994D01*
X26837050Y-6286556D01*
X26810028Y-6293130D01*
X26784148Y-6300715D01*
X26759409Y-6309311D01*
X26735811Y-6318919D01*
X26713354Y-6329537D01*
X26692038Y-6341168D01*
X26671863Y-6353809D01*
X26652829Y-6367462D01*
X26634937Y-6382126D01*
X26618185Y-6397801D01*
X26602510Y-6414553D01*
X26587845Y-6432446D01*
X26574193Y-6451479D01*
X26561551Y-6471654D01*
X26549921Y-6492970D01*
X26539302Y-6515427D01*
X26529695Y-6539025D01*
X26521098Y-6563764D01*
X26513514Y-6589645D01*
X26506940Y-6616666D01*
X26501378Y-6644828D01*
X26496827Y-6674132D01*
X26493287Y-6704576D01*
X26490759Y-6736162D01*
X26489242Y-6768888D01*
X26488736Y-6802756D01*
X26488736Y-6943440D01*
X26489242Y-6977367D01*
X26490759Y-7010149D01*
X26493287Y-7041786D01*
X26496827Y-7072278D01*
X26501378Y-7101625D01*
X26506940Y-7129828D01*
X26513514Y-7156885D01*
X26521098Y-7182798D01*
X26529695Y-7207566D01*
X26539302Y-7231188D01*
X26549921Y-7253666D01*
X26561551Y-7275000D01*
X26574193Y-7295188D01*
X26587845Y-7314231D01*
X26602510Y-7332129D01*
X26618185Y-7348883D01*
X26634937Y-7364558D01*
X26652829Y-7379223D01*
X26671863Y-7392875D01*
X26692038Y-7405517D01*
X26713354Y-7417147D01*
X26735811Y-7427766D01*
X26759409Y-7437373D01*
X26784148Y-7445969D01*
X26810028Y-7453554D01*
X26837050Y-7460128D01*
X26865212Y-7465690D01*
X26894515Y-7470241D01*
X26924960Y-7473781D01*
X26956545Y-7476309D01*
X26989272Y-7477826D01*
X27023140Y-7478332D01*
X27050213Y-7478280D01*
X27077579Y-7478126D01*
X27105237Y-7477868D01*
X27133186Y-7477507D01*
X27161428Y-7477044D01*
X27189961Y-7476477D01*
X27218787Y-7475807D01*
X27247904Y-7475034D01*
X27267478Y-7474462D01*
X27287181Y-7473844D01*
X27307015Y-7473180D01*
X27326978Y-7472470D01*
X27585875Y-7461235D01*
X27621853Y-7459420D01*
X27657980Y-7457518D01*
X27694256Y-7455527D01*
X27730681Y-7453449D01*
X27767254Y-7451284D01*
X27803976Y-7449030D01*
X27840848Y-7446689D01*
X27877867Y-7444260D01*
X27915036Y-7441743D01*
X27952354Y-7439138D01*
X27989820Y-7436446D01*
X28027436Y-7433666D01*
X28065200Y-7430798D01*
X28103113Y-7427842D01*
X28141175Y-7424799D01*
X28179385Y-7421667D01*
X28179385Y-7042114D01*
G37*
G36*
X26244493Y-7450000D02*
G01*
X25738422Y-7450000D01*
X25738422Y-6887264D01*
X25062847Y-6887264D01*
X25026538Y-6886743D01*
X24991497Y-6885180D01*
X24957723Y-6882576D01*
X24925216Y-6878929D01*
X24893976Y-6874241D01*
X24864002Y-6868511D01*
X24835296Y-6861739D01*
X24807857Y-6853925D01*
X24781685Y-6845069D01*
X24756780Y-6835172D01*
X24733142Y-6824232D01*
X24710770Y-6812251D01*
X24689666Y-6799228D01*
X24669829Y-6785163D01*
X24651259Y-6770056D01*
X24633956Y-6753907D01*
X24617748Y-6736545D01*
X24602586Y-6717920D01*
X24588470Y-6698031D01*
X24575399Y-6676879D01*
X24563374Y-6654464D01*
X24552394Y-6630786D01*
X24542460Y-6605845D01*
X24533572Y-6579640D01*
X24525730Y-6552172D01*
X24518933Y-6523441D01*
X24513182Y-6493447D01*
X24508476Y-6462190D01*
X24504817Y-6429669D01*
X24502202Y-6395886D01*
X24500634Y-6360839D01*
X24500111Y-6324528D01*
X25006671Y-6324528D01*
X25006836Y-6334927D01*
X25008156Y-6354733D01*
X25012613Y-6381968D01*
X25020040Y-6406231D01*
X25030439Y-6427523D01*
X25043808Y-6445844D01*
X25060148Y-6461194D01*
X25079460Y-6473573D01*
X25101742Y-6482981D01*
X25126996Y-6489418D01*
X25155220Y-6492884D01*
X25175687Y-6493545D01*
X25738422Y-6493545D01*
X25738422Y-5874145D01*
X25175687Y-5874145D01*
X25165288Y-5874310D01*
X25145482Y-5875630D01*
X25118248Y-5880087D01*
X25093985Y-5887514D01*
X25072693Y-5897913D01*
X25054372Y-5911282D01*
X25039021Y-5927622D01*
X25026642Y-5946934D01*
X25017234Y-5969216D01*
X25010797Y-5994470D01*
X25007331Y-6022694D01*
X25006671Y-6043161D01*
X25006671Y-6324528D01*
X24500111Y-6324528D01*
X24500111Y-6043161D01*
X24500634Y-6006852D01*
X24502202Y-5971811D01*
X24504817Y-5938037D01*
X24508476Y-5905530D01*
X24513182Y-5874290D01*
X24518933Y-5844316D01*
X24525730Y-5815610D01*
X24533572Y-5788171D01*
X24542460Y-5761999D01*
X24552394Y-5737094D01*
X24563374Y-5713456D01*
X24575399Y-5691085D01*
X24588470Y-5669981D01*
X24602586Y-5650143D01*
X24617748Y-5631573D01*
X24633956Y-5614270D01*
X24651259Y-5598062D01*
X24669829Y-5582900D01*
X24689666Y-5568784D01*
X24710770Y-5555713D01*
X24733142Y-5543688D01*
X24756780Y-5532708D01*
X24781685Y-5522775D01*
X24807857Y-5513886D01*
X24835296Y-5506044D01*
X24864002Y-5499247D01*
X24893976Y-5493496D01*
X24925216Y-5488790D01*
X24957723Y-5485131D01*
X24991497Y-5482517D01*
X25026538Y-5480948D01*
X25062847Y-5480425D01*
X26244493Y-5480425D01*
X26244493Y-7450000D01*
G37*
G36*
X23329211Y-7478332D02*
G01*
X23358680Y-7478276D01*
X23388346Y-7478110D01*
X23418210Y-7477834D01*
X23448272Y-7477446D01*
X23478531Y-7476948D01*
X23508987Y-7476340D01*
X23539641Y-7475620D01*
X23570492Y-7474790D01*
X23601541Y-7473849D01*
X23632788Y-7472798D01*
X23664231Y-7471636D01*
X23695873Y-7470363D01*
X23727712Y-7468980D01*
X23759748Y-7467486D01*
X23791982Y-7465881D01*
X23824413Y-7464166D01*
X23857042Y-7462339D01*
X23889868Y-7460403D01*
X23922892Y-7458355D01*
X23956114Y-7456197D01*
X23989532Y-7453928D01*
X24023149Y-7451549D01*
X24056962Y-7449059D01*
X24090974Y-7446458D01*
X24125183Y-7443747D01*
X24159589Y-7440924D01*
X24194193Y-7437992D01*
X24228994Y-7434948D01*
X24263993Y-7431794D01*
X24299189Y-7428529D01*
X24334583Y-7425154D01*
X24370174Y-7421667D01*
X24370174Y-7042114D01*
X24331616Y-7044699D01*
X24293674Y-7047201D01*
X24256348Y-7049622D01*
X24219636Y-7051960D01*
X24183540Y-7054216D01*
X24148060Y-7056391D01*
X24113195Y-7058483D01*
X24078945Y-7060493D01*
X24045310Y-7062421D01*
X24012291Y-7064268D01*
X23979888Y-7066032D01*
X23948099Y-7067714D01*
X23916926Y-7069314D01*
X23886369Y-7070832D01*
X23856427Y-7072267D01*
X23827100Y-7073621D01*
X23798388Y-7074893D01*
X23770292Y-7076083D01*
X23742812Y-7077190D01*
X23715946Y-7078216D01*
X23689697Y-7079160D01*
X23664062Y-7080021D01*
X23639043Y-7080801D01*
X23614639Y-7081498D01*
X23590851Y-7082113D01*
X23567678Y-7082647D01*
X23545120Y-7083098D01*
X23523178Y-7083467D01*
X23501851Y-7083754D01*
X23481139Y-7083960D01*
X23461043Y-7084083D01*
X23441563Y-7084124D01*
X23418310Y-7082801D01*
X23396912Y-7078834D01*
X23377369Y-7072223D01*
X23359680Y-7062966D01*
X23343846Y-7051065D01*
X23338981Y-7046510D01*
X23326032Y-7031278D01*
X23315762Y-7014156D01*
X23308172Y-6995145D01*
X23303260Y-6974245D01*
X23301027Y-6951456D01*
X23300879Y-6943440D01*
X23300879Y-6831088D01*
X23301539Y-6810621D01*
X23305005Y-6782397D01*
X23311442Y-6757144D01*
X23320850Y-6734861D01*
X23333229Y-6715550D01*
X23348579Y-6699209D01*
X23366901Y-6685840D01*
X23388193Y-6675442D01*
X23412456Y-6668014D01*
X23439690Y-6663558D01*
X23459496Y-6662237D01*
X23469895Y-6662072D01*
X24060474Y-6662072D01*
X24060474Y-6268353D01*
X23526071Y-6268353D01*
X23505604Y-6267692D01*
X23477379Y-6264226D01*
X23452126Y-6257789D01*
X23429844Y-6248381D01*
X23410532Y-6236002D01*
X23394192Y-6220652D01*
X23380822Y-6202331D01*
X23370424Y-6181039D01*
X23362996Y-6156776D01*
X23358540Y-6129542D01*
X23357220Y-6109735D01*
X23357055Y-6099337D01*
X23357055Y-6043161D01*
X23357715Y-6022694D01*
X23361181Y-5994470D01*
X23367618Y-5969216D01*
X23377026Y-5946934D01*
X23389405Y-5927622D01*
X23404755Y-5911282D01*
X23423076Y-5897913D01*
X23444368Y-5887514D01*
X23468632Y-5880087D01*
X23495866Y-5875630D01*
X23515672Y-5874310D01*
X23526071Y-5874145D01*
X24341842Y-5874145D01*
X24341842Y-5480425D01*
X23385387Y-5480425D01*
X23351460Y-5480916D01*
X23318678Y-5482387D01*
X23287041Y-5484839D01*
X23256549Y-5488271D01*
X23227201Y-5492685D01*
X23198999Y-5498079D01*
X23171941Y-5504454D01*
X23146029Y-5511810D01*
X23121261Y-5520147D01*
X23097638Y-5529465D01*
X23075160Y-5539763D01*
X23053827Y-5551042D01*
X23033639Y-5563302D01*
X23014596Y-5576542D01*
X22996697Y-5590764D01*
X22979944Y-5605966D01*
X22964268Y-5622109D01*
X22949604Y-5639275D01*
X22935951Y-5657463D01*
X22923310Y-5676674D01*
X22911680Y-5696908D01*
X22901061Y-5718165D01*
X22891453Y-5740445D01*
X22882857Y-5763747D01*
X22875272Y-5788072D01*
X22868699Y-5813420D01*
X22863136Y-5839790D01*
X22858585Y-5867184D01*
X22855046Y-5895600D01*
X22852517Y-5925039D01*
X22851001Y-5955500D01*
X22850495Y-5986985D01*
X22850798Y-6007805D01*
X22851708Y-6028132D01*
X22853225Y-6047967D01*
X22856639Y-6076797D01*
X22861417Y-6104519D01*
X22867561Y-6131133D01*
X22875070Y-6156640D01*
X22883944Y-6181039D01*
X22894184Y-6204330D01*
X22905789Y-6226514D01*
X22918759Y-6247590D01*
X22928164Y-6261025D01*
X22943069Y-6280255D01*
X22958841Y-6298377D01*
X22975481Y-6315392D01*
X22992988Y-6331299D01*
X23011362Y-6346098D01*
X23030603Y-6359789D01*
X23050711Y-6372373D01*
X23071687Y-6383849D01*
X23093530Y-6394217D01*
X23116241Y-6403478D01*
X23131863Y-6409036D01*
X23103979Y-6417493D01*
X23077236Y-6427355D01*
X23051635Y-6438620D01*
X23027174Y-6451290D01*
X23003855Y-6465365D01*
X22981676Y-6480844D01*
X22960639Y-6497727D01*
X22940743Y-6516015D01*
X22921987Y-6535707D01*
X22904373Y-6556803D01*
X22887900Y-6579304D01*
X22872568Y-6603210D01*
X22858377Y-6628519D01*
X22845328Y-6655233D01*
X22833419Y-6683352D01*
X22822651Y-6712875D01*
X22816011Y-6735063D01*
X22810256Y-6758151D01*
X22805386Y-6782140D01*
X22801402Y-6807030D01*
X22798303Y-6832821D01*
X22796560Y-6852755D01*
X22795315Y-6873195D01*
X22794568Y-6894142D01*
X22794319Y-6915596D01*
X22794319Y-6943440D01*
X22794825Y-6977367D01*
X22796342Y-7010149D01*
X22798870Y-7041786D01*
X22802410Y-7072278D01*
X22806960Y-7101625D01*
X22812523Y-7129828D01*
X22819096Y-7156885D01*
X22826681Y-7182798D01*
X22835277Y-7207566D01*
X22844885Y-7231188D01*
X22855504Y-7253666D01*
X22867134Y-7275000D01*
X22879775Y-7295188D01*
X22893428Y-7314231D01*
X22908092Y-7332129D01*
X22923768Y-7348883D01*
X22940521Y-7364558D01*
X22958420Y-7379223D01*
X22977463Y-7392875D01*
X22997651Y-7405517D01*
X23018984Y-7417147D01*
X23041462Y-7427766D01*
X23065085Y-7437373D01*
X23089853Y-7445969D01*
X23115765Y-7453554D01*
X23142823Y-7460128D01*
X23171025Y-7465690D01*
X23200373Y-7470241D01*
X23230865Y-7473781D01*
X23262502Y-7476309D01*
X23295284Y-7477826D01*
X23329211Y-7478332D01*
G37*
G36*
X21142749Y-6099337D02*
G01*
X21143541Y-6129003D01*
X21145916Y-6158161D01*
X21149876Y-6186812D01*
X21155419Y-6214955D01*
X21162546Y-6242591D01*
X21171257Y-6269719D01*
X21181551Y-6296339D01*
X21193429Y-6322452D01*
X21206891Y-6348058D01*
X21221937Y-6373156D01*
X21238566Y-6397746D01*
X21256780Y-6421829D01*
X21276577Y-6445404D01*
X21297958Y-6468471D01*
X21320922Y-6491031D01*
X21345470Y-6513084D01*
X21361155Y-6526403D01*
X21377191Y-6539737D01*
X21393579Y-6553086D01*
X21410317Y-6566451D01*
X21427406Y-6579831D01*
X21444847Y-6593226D01*
X21462638Y-6606637D01*
X21480781Y-6620062D01*
X22085526Y-7056280D01*
X21142749Y-7056280D01*
X21142749Y-7450000D01*
X22662428Y-7450000D01*
X22662428Y-6915596D01*
X21649309Y-6183845D01*
X21649309Y-6043161D01*
X21649969Y-6022694D01*
X21653435Y-5994470D01*
X21659872Y-5969216D01*
X21669280Y-5946934D01*
X21681659Y-5927622D01*
X21697009Y-5911282D01*
X21715330Y-5897913D01*
X21736622Y-5887514D01*
X21760886Y-5880087D01*
X21788120Y-5875630D01*
X21807926Y-5874310D01*
X21818325Y-5874145D01*
X22606252Y-5874145D01*
X22606252Y-5480425D01*
X21705484Y-5480425D01*
X21669233Y-5480948D01*
X21634242Y-5482517D01*
X21600510Y-5485131D01*
X21568037Y-5488790D01*
X21536823Y-5493496D01*
X21506869Y-5499247D01*
X21478174Y-5506044D01*
X21450739Y-5513886D01*
X21424563Y-5522775D01*
X21399647Y-5532708D01*
X21375989Y-5543688D01*
X21353592Y-5555713D01*
X21332453Y-5568784D01*
X21312574Y-5582900D01*
X21293954Y-5598062D01*
X21276594Y-5614270D01*
X21260386Y-5631573D01*
X21245224Y-5650143D01*
X21231108Y-5669981D01*
X21218037Y-5691085D01*
X21206012Y-5713456D01*
X21195032Y-5737094D01*
X21185098Y-5761999D01*
X21176210Y-5788171D01*
X21168368Y-5815610D01*
X21161571Y-5844316D01*
X21155820Y-5874290D01*
X21151114Y-5905530D01*
X21147454Y-5938037D01*
X21144840Y-5971811D01*
X21143272Y-6006852D01*
X21142749Y-6043161D01*
X21142749Y-6099337D01*
G37*
G36*
X20957613Y-7042114D02*
G01*
X20909922Y-7044699D01*
X20863203Y-7047201D01*
X20817457Y-7049622D01*
X20772683Y-7051960D01*
X20728881Y-7054216D01*
X20686051Y-7056391D01*
X20644193Y-7058483D01*
X20603308Y-7060493D01*
X20563395Y-7062421D01*
X20524454Y-7064268D01*
X20486485Y-7066032D01*
X20449488Y-7067714D01*
X20413464Y-7069314D01*
X20378412Y-7070832D01*
X20344332Y-7072267D01*
X20311224Y-7073621D01*
X20279089Y-7074893D01*
X20247925Y-7076083D01*
X20217734Y-7077190D01*
X20188515Y-7078216D01*
X20160268Y-7079160D01*
X20132994Y-7080021D01*
X20106691Y-7080801D01*
X20081361Y-7081498D01*
X20057003Y-7082113D01*
X20033617Y-7082647D01*
X20011204Y-7083098D01*
X19989762Y-7083467D01*
X19969293Y-7083754D01*
X19931271Y-7084083D01*
X19913719Y-7084124D01*
X19890466Y-7082801D01*
X19869068Y-7078834D01*
X19849525Y-7072223D01*
X19831836Y-7062966D01*
X19816003Y-7051065D01*
X19811137Y-7046510D01*
X19798188Y-7031278D01*
X19787919Y-7014156D01*
X19780328Y-6995145D01*
X19775416Y-6974245D01*
X19773184Y-6951456D01*
X19773035Y-6943440D01*
X19773035Y-6690404D01*
X20420279Y-6690404D01*
X20456589Y-6689883D01*
X20491636Y-6688321D01*
X20525419Y-6685716D01*
X20557940Y-6682069D01*
X20589197Y-6677381D01*
X20619191Y-6671651D01*
X20647922Y-6664879D01*
X20675390Y-6657065D01*
X20701595Y-6648209D01*
X20726536Y-6638312D01*
X20750214Y-6627372D01*
X20772629Y-6615391D01*
X20793781Y-6602368D01*
X20813670Y-6588303D01*
X20832295Y-6573196D01*
X20849657Y-6557048D01*
X20865806Y-6539685D01*
X20880913Y-6521060D01*
X20894978Y-6501171D01*
X20908001Y-6480020D01*
X20919982Y-6457605D01*
X20930922Y-6433926D01*
X20940819Y-6408985D01*
X20949675Y-6382780D01*
X20957489Y-6355313D01*
X20964261Y-6326582D01*
X20969991Y-6296587D01*
X20974679Y-6265330D01*
X20978326Y-6232810D01*
X20980930Y-6199026D01*
X20982493Y-6163979D01*
X20983014Y-6127669D01*
X20983014Y-6043161D01*
X20982493Y-6006852D01*
X20980930Y-5971811D01*
X20978326Y-5938037D01*
X20974679Y-5905530D01*
X20969991Y-5874290D01*
X20964261Y-5844316D01*
X20957489Y-5815610D01*
X20949675Y-5788171D01*
X20940819Y-5761999D01*
X20930922Y-5737094D01*
X20919982Y-5713456D01*
X20908001Y-5691085D01*
X20894978Y-5669981D01*
X20880913Y-5650143D01*
X20865806Y-5631573D01*
X20849657Y-5614270D01*
X20832295Y-5598062D01*
X20813670Y-5582900D01*
X20793781Y-5568784D01*
X20772629Y-5555713D01*
X20750214Y-5543688D01*
X20726536Y-5532708D01*
X20701595Y-5522775D01*
X20675390Y-5513886D01*
X20647922Y-5506044D01*
X20619191Y-5499247D01*
X20589197Y-5493496D01*
X20557940Y-5488790D01*
X20525419Y-5485131D01*
X20491636Y-5482517D01*
X20456589Y-5480948D01*
X20420279Y-5480425D01*
X19432560Y-5480425D01*
X19432560Y-5874145D01*
X20307927Y-5874145D01*
X20328334Y-5874805D01*
X20356477Y-5878271D01*
X20381658Y-5884708D01*
X20403876Y-5894116D01*
X20423131Y-5906495D01*
X20439424Y-5921845D01*
X20452755Y-5940167D01*
X20463124Y-5961459D01*
X20470530Y-5985722D01*
X20474973Y-6012956D01*
X20476290Y-6032762D01*
X20476454Y-6043161D01*
X20476454Y-6099337D01*
X20475796Y-6119803D01*
X20472340Y-6148028D01*
X20465921Y-6173281D01*
X20456540Y-6195563D01*
X20444197Y-6214875D01*
X20428891Y-6231215D01*
X20410623Y-6244585D01*
X20389393Y-6254983D01*
X20365200Y-6262411D01*
X20338045Y-6266867D01*
X20318295Y-6268188D01*
X20307927Y-6268353D01*
X19801367Y-6268353D01*
X19767499Y-6268858D01*
X19734773Y-6270375D01*
X19703187Y-6272904D01*
X19672743Y-6276443D01*
X19643439Y-6280994D01*
X19615277Y-6286556D01*
X19588256Y-6293130D01*
X19562376Y-6300715D01*
X19537636Y-6309311D01*
X19514038Y-6318919D01*
X19491581Y-6329537D01*
X19470265Y-6341168D01*
X19450091Y-6353809D01*
X19431057Y-6367462D01*
X19413164Y-6382126D01*
X19396413Y-6397801D01*
X19380737Y-6414553D01*
X19366073Y-6432446D01*
X19352420Y-6451479D01*
X19339779Y-6471654D01*
X19328149Y-6492970D01*
X19317530Y-6515427D01*
X19307922Y-6539025D01*
X19299326Y-6563764D01*
X19291741Y-6589645D01*
X19285168Y-6616666D01*
X19279605Y-6644828D01*
X19275054Y-6674132D01*
X19271515Y-6704576D01*
X19268986Y-6736162D01*
X19267469Y-6768888D01*
X19266964Y-6802756D01*
X19266964Y-6943440D01*
X19267469Y-6977367D01*
X19268986Y-7010149D01*
X19271515Y-7041786D01*
X19275054Y-7072278D01*
X19279605Y-7101625D01*
X19285168Y-7129828D01*
X19291741Y-7156885D01*
X19299326Y-7182798D01*
X19307922Y-7207566D01*
X19317530Y-7231188D01*
X19328149Y-7253666D01*
X19339779Y-7275000D01*
X19352420Y-7295188D01*
X19366073Y-7314231D01*
X19380737Y-7332129D01*
X19396413Y-7348883D01*
X19413164Y-7364558D01*
X19431057Y-7379223D01*
X19450091Y-7392875D01*
X19470265Y-7405517D01*
X19491581Y-7417147D01*
X19514038Y-7427766D01*
X19537636Y-7437373D01*
X19562376Y-7445969D01*
X19588256Y-7453554D01*
X19615277Y-7460128D01*
X19643439Y-7465690D01*
X19672743Y-7470241D01*
X19703187Y-7473781D01*
X19734773Y-7476309D01*
X19767499Y-7477826D01*
X19801367Y-7478332D01*
X19828441Y-7478280D01*
X19855807Y-7478126D01*
X19883464Y-7477868D01*
X19911414Y-7477507D01*
X19939655Y-7477044D01*
X19968189Y-7476477D01*
X19997014Y-7475807D01*
X20026132Y-7475034D01*
X20045705Y-7474462D01*
X20065409Y-7473844D01*
X20085242Y-7473180D01*
X20105205Y-7472470D01*
X20364103Y-7461235D01*
X20400081Y-7459420D01*
X20436208Y-7457518D01*
X20472484Y-7455527D01*
X20508908Y-7453449D01*
X20545482Y-7451284D01*
X20582204Y-7449030D01*
X20619075Y-7446689D01*
X20656095Y-7444260D01*
X20693264Y-7441743D01*
X20730581Y-7439138D01*
X20768048Y-7436446D01*
X20805663Y-7433666D01*
X20843427Y-7430798D01*
X20881340Y-7427842D01*
X20919402Y-7424799D01*
X20957613Y-7421667D01*
X20957613Y-7042114D01*
G37*
G36*
X18094598Y-7478332D02*
G01*
X18124067Y-7478276D01*
X18153734Y-7478110D01*
X18183597Y-7477834D01*
X18213659Y-7477446D01*
X18243918Y-7476948D01*
X18274374Y-7476340D01*
X18305028Y-7475620D01*
X18335880Y-7474790D01*
X18366928Y-7473849D01*
X18398175Y-7472798D01*
X18429619Y-7471636D01*
X18461260Y-7470363D01*
X18493099Y-7468980D01*
X18525135Y-7467486D01*
X18557369Y-7465881D01*
X18589801Y-7464166D01*
X18622429Y-7462339D01*
X18655256Y-7460403D01*
X18688280Y-7458355D01*
X18721501Y-7456197D01*
X18754920Y-7453928D01*
X18788536Y-7451549D01*
X18822350Y-7449059D01*
X18856361Y-7446458D01*
X18890570Y-7443747D01*
X18924976Y-7440924D01*
X18959580Y-7437992D01*
X18994381Y-7434948D01*
X19029380Y-7431794D01*
X19064576Y-7428529D01*
X19099970Y-7425154D01*
X19135561Y-7421667D01*
X19135561Y-7042114D01*
X19097004Y-7044699D01*
X19059062Y-7047201D01*
X19021735Y-7049622D01*
X18985024Y-7051960D01*
X18948928Y-7054216D01*
X18913447Y-7056391D01*
X18878582Y-7058483D01*
X18844332Y-7060493D01*
X18810698Y-7062421D01*
X18777679Y-7064268D01*
X18745275Y-7066032D01*
X18713487Y-7067714D01*
X18682314Y-7069314D01*
X18651756Y-7070832D01*
X18621814Y-7072267D01*
X18592487Y-7073621D01*
X18563776Y-7074893D01*
X18535680Y-7076083D01*
X18508199Y-7077190D01*
X18481334Y-7078216D01*
X18455084Y-7079160D01*
X18429449Y-7080021D01*
X18404430Y-7080801D01*
X18380026Y-7081498D01*
X18356238Y-7082113D01*
X18333065Y-7082647D01*
X18310507Y-7083098D01*
X18288565Y-7083467D01*
X18267238Y-7083754D01*
X18246527Y-7083960D01*
X18226431Y-7084083D01*
X18206950Y-7084124D01*
X18183697Y-7082801D01*
X18162299Y-7078834D01*
X18142756Y-7072223D01*
X18125067Y-7062966D01*
X18109234Y-7051065D01*
X18104368Y-7046510D01*
X18091419Y-7031278D01*
X18081150Y-7014156D01*
X18073559Y-6995145D01*
X18068647Y-6974245D01*
X18066415Y-6951456D01*
X18066266Y-6943440D01*
X18066266Y-6831088D01*
X18066926Y-6810621D01*
X18070392Y-6782397D01*
X18076829Y-6757144D01*
X18086238Y-6734861D01*
X18098617Y-6715550D01*
X18113967Y-6699209D01*
X18132288Y-6685840D01*
X18153580Y-6675442D01*
X18177843Y-6668014D01*
X18205077Y-6663558D01*
X18224884Y-6662237D01*
X18235282Y-6662072D01*
X18825861Y-6662072D01*
X18825861Y-6268353D01*
X18291458Y-6268353D01*
X18270991Y-6267692D01*
X18242767Y-6264226D01*
X18217513Y-6257789D01*
X18195231Y-6248381D01*
X18175920Y-6236002D01*
X18159579Y-6220652D01*
X18146210Y-6202331D01*
X18135811Y-6181039D01*
X18128384Y-6156776D01*
X18123927Y-6129542D01*
X18122607Y-6109735D01*
X18122442Y-6099337D01*
X18122442Y-6043161D01*
X18123102Y-6022694D01*
X18126568Y-5994470D01*
X18133005Y-5969216D01*
X18142413Y-5946934D01*
X18154793Y-5927622D01*
X18170143Y-5911282D01*
X18188464Y-5897913D01*
X18209756Y-5887514D01*
X18234019Y-5880087D01*
X18261253Y-5875630D01*
X18281059Y-5874310D01*
X18291458Y-5874145D01*
X19107229Y-5874145D01*
X19107229Y-5480425D01*
X18150774Y-5480425D01*
X18116847Y-5480916D01*
X18084065Y-5482387D01*
X18052428Y-5484839D01*
X18021936Y-5488271D01*
X17992589Y-5492685D01*
X17964386Y-5498079D01*
X17937329Y-5504454D01*
X17911416Y-5511810D01*
X17886648Y-5520147D01*
X17863025Y-5529465D01*
X17840547Y-5539763D01*
X17819214Y-5551042D01*
X17799026Y-5563302D01*
X17779983Y-5576542D01*
X17762084Y-5590764D01*
X17745331Y-5605966D01*
X17729655Y-5622109D01*
X17714991Y-5639275D01*
X17701339Y-5657463D01*
X17688697Y-5676674D01*
X17677067Y-5696908D01*
X17666448Y-5718165D01*
X17656841Y-5740445D01*
X17648244Y-5763747D01*
X17640659Y-5788072D01*
X17634086Y-5813420D01*
X17628524Y-5839790D01*
X17623973Y-5867184D01*
X17620433Y-5895600D01*
X17617905Y-5925039D01*
X17616388Y-5955500D01*
X17615882Y-5986985D01*
X17616186Y-6007805D01*
X17617096Y-6028132D01*
X17618613Y-6047967D01*
X17622026Y-6076797D01*
X17626804Y-6104519D01*
X17632948Y-6131133D01*
X17640457Y-6156640D01*
X17649331Y-6181039D01*
X17659571Y-6204330D01*
X17671176Y-6226514D01*
X17684146Y-6247590D01*
X17693551Y-6261025D01*
X17708456Y-6280255D01*
X17724229Y-6298377D01*
X17740868Y-6315392D01*
X17758375Y-6331299D01*
X17776749Y-6346098D01*
X17795990Y-6359789D01*
X17816099Y-6372373D01*
X17837075Y-6383849D01*
X17858918Y-6394217D01*
X17881628Y-6403478D01*
X17897250Y-6409036D01*
X17869366Y-6417493D01*
X17842623Y-6427355D01*
X17817022Y-6438620D01*
X17792561Y-6451290D01*
X17769242Y-6465365D01*
X17747063Y-6480844D01*
X17726026Y-6497727D01*
X17706130Y-6516015D01*
X17687375Y-6535707D01*
X17669761Y-6556803D01*
X17653288Y-6579304D01*
X17637956Y-6603210D01*
X17623765Y-6628519D01*
X17610715Y-6655233D01*
X17598806Y-6683352D01*
X17588038Y-6712875D01*
X17581398Y-6735063D01*
X17575643Y-6758151D01*
X17570774Y-6782140D01*
X17566789Y-6807030D01*
X17563691Y-6832821D01*
X17561947Y-6852755D01*
X17560702Y-6873195D01*
X17559955Y-6894142D01*
X17559706Y-6915596D01*
X17559706Y-6943440D01*
X17560212Y-6977367D01*
X17561729Y-7010149D01*
X17564257Y-7041786D01*
X17567797Y-7072278D01*
X17572348Y-7101625D01*
X17577910Y-7129828D01*
X17584484Y-7156885D01*
X17592068Y-7182798D01*
X17600665Y-7207566D01*
X17610272Y-7231188D01*
X17620891Y-7253666D01*
X17632521Y-7275000D01*
X17645163Y-7295188D01*
X17658815Y-7314231D01*
X17673480Y-7332129D01*
X17689155Y-7348883D01*
X17705909Y-7364558D01*
X17723807Y-7379223D01*
X17742850Y-7392875D01*
X17763038Y-7405517D01*
X17784372Y-7417147D01*
X17806850Y-7427766D01*
X17830472Y-7437373D01*
X17855240Y-7445969D01*
X17881153Y-7453554D01*
X17908210Y-7460128D01*
X17936413Y-7465690D01*
X17965760Y-7470241D01*
X17996252Y-7473781D01*
X18027889Y-7476309D01*
X18060671Y-7477826D01*
X18094598Y-7478332D01*
G37*
G36*
X38370785Y-9111699D02*
G01*
X38012114Y-8077819D01*
X37600687Y-8077819D01*
X38159759Y-9555000D01*
X38581810Y-9555000D01*
X39141249Y-8077819D01*
X38729455Y-8077819D01*
X38370785Y-9111699D01*
G37*
G36*
X37290109Y-8415957D02*
G01*
X37309090Y-8417009D01*
X37327535Y-8418762D01*
X37345445Y-8421217D01*
X37362821Y-8424372D01*
X37379660Y-8428229D01*
X37395965Y-8432787D01*
X37411734Y-8438046D01*
X37426969Y-8444007D01*
X37441668Y-8450669D01*
X37455831Y-8458032D01*
X37469460Y-8466096D01*
X37482553Y-8474862D01*
X37495111Y-8484329D01*
X37507134Y-8494497D01*
X37518621Y-8505366D01*
X37529491Y-8516809D01*
X37539659Y-8528790D01*
X37549125Y-8541310D01*
X37557891Y-8554367D01*
X37565955Y-8567963D01*
X37573318Y-8582096D01*
X37579980Y-8596768D01*
X37585941Y-8611978D01*
X37591200Y-8627726D01*
X37595758Y-8644012D01*
X37599615Y-8660836D01*
X37602771Y-8678198D01*
X37605225Y-8696099D01*
X37606978Y-8714537D01*
X37608030Y-8733513D01*
X37608381Y-8753028D01*
X37608381Y-9259710D01*
X37608043Y-9277396D01*
X37607030Y-9294640D01*
X37605341Y-9311445D01*
X37602977Y-9327808D01*
X37599937Y-9343730D01*
X37596222Y-9359212D01*
X37591831Y-9374253D01*
X37586765Y-9388853D01*
X37581023Y-9403013D01*
X37574606Y-9416731D01*
X37567514Y-9430009D01*
X37559746Y-9442846D01*
X37551302Y-9455243D01*
X37542183Y-9467198D01*
X37532389Y-9478713D01*
X37521919Y-9489787D01*
X37510845Y-9500257D01*
X37499330Y-9510051D01*
X37487374Y-9519170D01*
X37474978Y-9527614D01*
X37462141Y-9535382D01*
X37448863Y-9542474D01*
X37435145Y-9548892D01*
X37420985Y-9554633D01*
X37406385Y-9559699D01*
X37391344Y-9564090D01*
X37375862Y-9567805D01*
X37359940Y-9570845D01*
X37343576Y-9573209D01*
X37326772Y-9574898D01*
X37309527Y-9575911D01*
X37291842Y-9576249D01*
X37271046Y-9576207D01*
X37250102Y-9576083D01*
X37229011Y-9575875D01*
X37207773Y-9575585D01*
X37186387Y-9575211D01*
X37164854Y-9574755D01*
X37143173Y-9574215D01*
X37121345Y-9573592D01*
X37099370Y-9572887D01*
X37077247Y-9572098D01*
X37054977Y-9571227D01*
X37032559Y-9570272D01*
X37009994Y-9569235D01*
X36987281Y-9568114D01*
X36964422Y-9566911D01*
X36941414Y-9565624D01*
X36918260Y-9564254D01*
X36894958Y-9562802D01*
X36871508Y-9561266D01*
X36847911Y-9559648D01*
X36824167Y-9557946D01*
X36800275Y-9556162D01*
X36776236Y-9554294D01*
X36752050Y-9552343D01*
X36727716Y-9550310D01*
X36703235Y-9548193D01*
X36678606Y-9545994D01*
X36653830Y-9543711D01*
X36628906Y-9541345D01*
X36603835Y-9538897D01*
X36578617Y-9536365D01*
X36553251Y-9533750D01*
X36553251Y-9269968D01*
X36578249Y-9271929D01*
X36602868Y-9273828D01*
X36627107Y-9275664D01*
X36650968Y-9277438D01*
X36674449Y-9279150D01*
X36697550Y-9280800D01*
X36720273Y-9282388D01*
X36742616Y-9283913D01*
X36764580Y-9285376D01*
X36786165Y-9286776D01*
X36807370Y-9288115D01*
X36828196Y-9289391D01*
X36848643Y-9290605D01*
X36868711Y-9291757D01*
X36888400Y-9292846D01*
X36907709Y-9293873D01*
X36926639Y-9294838D01*
X36945190Y-9295741D01*
X36963361Y-9296581D01*
X36981153Y-9297360D01*
X36998566Y-9298075D01*
X37015600Y-9298729D01*
X37032255Y-9299321D01*
X37048530Y-9299850D01*
X37064426Y-9300317D01*
X37079943Y-9300721D01*
X37095081Y-9301064D01*
X37109839Y-9301344D01*
X37138218Y-9301717D01*
X37165080Y-9301842D01*
X37174675Y-9301332D01*
X37190685Y-9297845D01*
X37205072Y-9291054D01*
X37217836Y-9280959D01*
X37225058Y-9272617D01*
X37233088Y-9258703D01*
X37237757Y-9243109D01*
X37239085Y-9227836D01*
X37239085Y-9143572D01*
X36510753Y-9143572D01*
X36510753Y-8879790D01*
X36880048Y-8879790D01*
X37239085Y-8879790D01*
X37239085Y-8763653D01*
X37239003Y-8758468D01*
X37237019Y-8739377D01*
X37232391Y-8722920D01*
X37225118Y-8709095D01*
X37215200Y-8697904D01*
X37202638Y-8689346D01*
X37187431Y-8683421D01*
X37169580Y-8680129D01*
X37154455Y-8679389D01*
X36964678Y-8679389D01*
X36959472Y-8679471D01*
X36940298Y-8681446D01*
X36923768Y-8686054D01*
X36909884Y-8693296D01*
X36898644Y-8703170D01*
X36890049Y-8715678D01*
X36884098Y-8730819D01*
X36880792Y-8748594D01*
X36880048Y-8763653D01*
X36880048Y-8879790D01*
X36510753Y-8879790D01*
X36510753Y-8753028D01*
X36511104Y-8733513D01*
X36512156Y-8714537D01*
X36513909Y-8696099D01*
X36516363Y-8678198D01*
X36519519Y-8660836D01*
X36523376Y-8644012D01*
X36527934Y-8627726D01*
X36533193Y-8611978D01*
X36539154Y-8596768D01*
X36545815Y-8582096D01*
X36553178Y-8567963D01*
X36561243Y-8554367D01*
X36570008Y-8541310D01*
X36579475Y-8528790D01*
X36589643Y-8516809D01*
X36600512Y-8505366D01*
X36612000Y-8494497D01*
X36624023Y-8484329D01*
X36636581Y-8474862D01*
X36649674Y-8466096D01*
X36663302Y-8458032D01*
X36677466Y-8450669D01*
X36692165Y-8444007D01*
X36707399Y-8438046D01*
X36723169Y-8432787D01*
X36739473Y-8428229D01*
X36756313Y-8424372D01*
X36773688Y-8421217D01*
X36791599Y-8418762D01*
X36810044Y-8417009D01*
X36829025Y-8415957D01*
X36848541Y-8415607D01*
X37270593Y-8415607D01*
X37290109Y-8415957D01*
G37*
G36*
X35684602Y-8742404D02*
G01*
X35701258Y-8742651D01*
X35717981Y-8743394D01*
X35734769Y-8744632D01*
X35751623Y-8746365D01*
X35768544Y-8748593D01*
X35785529Y-8751317D01*
X35802581Y-8754535D01*
X35819699Y-8758249D01*
X35836882Y-8762458D01*
X35854131Y-8767162D01*
X35871446Y-8772361D01*
X35888827Y-8778055D01*
X35906274Y-8784245D01*
X35923786Y-8790930D01*
X35941364Y-8798110D01*
X35959009Y-8805785D01*
X35959009Y-9555000D01*
X36328304Y-9555000D01*
X36328304Y-8436489D01*
X36001140Y-8436489D01*
X35980258Y-8573876D01*
X35968884Y-8564139D01*
X35957479Y-8554711D01*
X35934571Y-8536782D01*
X35911534Y-8520089D01*
X35888369Y-8504633D01*
X35865075Y-8490414D01*
X35841652Y-8477431D01*
X35818100Y-8465684D01*
X35794419Y-8455174D01*
X35770610Y-8445900D01*
X35746672Y-8437863D01*
X35722605Y-8431063D01*
X35698409Y-8425498D01*
X35674085Y-8421171D01*
X35649631Y-8418080D01*
X35625049Y-8416225D01*
X35600338Y-8415607D01*
X35505450Y-8415607D01*
X35505450Y-8742404D01*
X35684602Y-8742404D01*
G37*
G36*
X35404699Y-9259710D02*
G01*
X35378109Y-9261648D01*
X35351873Y-9263525D01*
X35325991Y-9265341D01*
X35300463Y-9267094D01*
X35275289Y-9268787D01*
X35250470Y-9270417D01*
X35226005Y-9271987D01*
X35201894Y-9273494D01*
X35178137Y-9274940D01*
X35154735Y-9276325D01*
X35131686Y-9277648D01*
X35108992Y-9278910D01*
X35086652Y-9280110D01*
X35064666Y-9281248D01*
X35043035Y-9282325D01*
X35021757Y-9283340D01*
X35000834Y-9284294D01*
X34980265Y-9285187D01*
X34960050Y-9286017D01*
X34940190Y-9286787D01*
X34920683Y-9287494D01*
X34901531Y-9288140D01*
X34882733Y-9288725D01*
X34864289Y-9289248D01*
X34846200Y-9289710D01*
X34828464Y-9290110D01*
X34811083Y-9290448D01*
X34794056Y-9290725D01*
X34777383Y-9290940D01*
X34761065Y-9291094D01*
X34745100Y-9291186D01*
X34729490Y-9291217D01*
X34714378Y-9289912D01*
X34698909Y-9285324D01*
X34685063Y-9277431D01*
X34676734Y-9270334D01*
X34666462Y-9257541D01*
X34659552Y-9243068D01*
X34656232Y-9228791D01*
X34655484Y-9217212D01*
X34655484Y-9143572D01*
X35109410Y-9143572D01*
X35127095Y-9143235D01*
X35144340Y-9142221D01*
X35161144Y-9140533D01*
X35177508Y-9138169D01*
X35193430Y-9135129D01*
X35208912Y-9131414D01*
X35223953Y-9127023D01*
X35238553Y-9121957D01*
X35252713Y-9116215D01*
X35266431Y-9109798D01*
X35279709Y-9102706D01*
X35292546Y-9094938D01*
X35304942Y-9086494D01*
X35316898Y-9077375D01*
X35328413Y-9067580D01*
X35339487Y-9057110D01*
X35349957Y-9046037D01*
X35359751Y-9034522D01*
X35368870Y-9022566D01*
X35377314Y-9010170D01*
X35385082Y-8997333D01*
X35392174Y-8984055D01*
X35398591Y-8970337D01*
X35404333Y-8956177D01*
X35409399Y-8941577D01*
X35413790Y-8926536D01*
X35417505Y-8911054D01*
X35420545Y-8895132D01*
X35422909Y-8878768D01*
X35424598Y-8861964D01*
X35425611Y-8844719D01*
X35425949Y-8827034D01*
X35425949Y-8753028D01*
X35425611Y-8735344D01*
X35424598Y-8718103D01*
X35422909Y-8701306D01*
X35420545Y-8684953D01*
X35417505Y-8669043D01*
X35413790Y-8653577D01*
X35409399Y-8638555D01*
X35404333Y-8623976D01*
X35398591Y-8609841D01*
X35392174Y-8596150D01*
X35385082Y-8582902D01*
X35377314Y-8570098D01*
X35368870Y-8557737D01*
X35359751Y-8545820D01*
X35349957Y-8534347D01*
X35339487Y-8523318D01*
X35328413Y-8512803D01*
X35316898Y-8502967D01*
X35304942Y-8493810D01*
X35292546Y-8485330D01*
X35279709Y-8477529D01*
X35266431Y-8470407D01*
X35252713Y-8463962D01*
X35238553Y-8458196D01*
X35223953Y-8453109D01*
X35208912Y-8448700D01*
X35193430Y-8444969D01*
X35177508Y-8441916D01*
X35161144Y-8439542D01*
X35144340Y-8437846D01*
X35127095Y-8436829D01*
X35109410Y-8436489D01*
X34391702Y-8436489D01*
X34391702Y-8710896D01*
X34982648Y-8710896D01*
X34997921Y-8712224D01*
X35013515Y-8716893D01*
X35027429Y-8724924D01*
X35035771Y-8732145D01*
X35045865Y-8744761D01*
X35052656Y-8759116D01*
X35056144Y-8775210D01*
X35056653Y-8784902D01*
X35055348Y-8800014D01*
X35050760Y-8815483D01*
X35042867Y-8829329D01*
X35035771Y-8837658D01*
X35022978Y-8847753D01*
X35008504Y-8854544D01*
X34992349Y-8858031D01*
X34982648Y-8858541D01*
X34602728Y-8858541D01*
X34585044Y-8858880D01*
X34567803Y-8859898D01*
X34551006Y-8861594D01*
X34534653Y-8863968D01*
X34518743Y-8867020D01*
X34503277Y-8870751D01*
X34488255Y-8875161D01*
X34473676Y-8880248D01*
X34459541Y-8886014D01*
X34445850Y-8892458D01*
X34432602Y-8899581D01*
X34419798Y-8907382D01*
X34407437Y-8915861D01*
X34395520Y-8925019D01*
X34384047Y-8934855D01*
X34373018Y-8945369D01*
X34362503Y-8956399D01*
X34352667Y-8967872D01*
X34343510Y-8979789D01*
X34335030Y-8992149D01*
X34327229Y-9004954D01*
X34320107Y-9018201D01*
X34313662Y-9031893D01*
X34307896Y-9046028D01*
X34302809Y-9060607D01*
X34298400Y-9075629D01*
X34294669Y-9091095D01*
X34291616Y-9107005D01*
X34289242Y-9123358D01*
X34287546Y-9140155D01*
X34286528Y-9157396D01*
X34286189Y-9175080D01*
X34286189Y-9259710D01*
X34286528Y-9277396D01*
X34287546Y-9294640D01*
X34289242Y-9311445D01*
X34291616Y-9327808D01*
X34294669Y-9343730D01*
X34298400Y-9359212D01*
X34302809Y-9374253D01*
X34307896Y-9388853D01*
X34313662Y-9403013D01*
X34320107Y-9416731D01*
X34327229Y-9430009D01*
X34335030Y-9442846D01*
X34343510Y-9455243D01*
X34352667Y-9467198D01*
X34362503Y-9478713D01*
X34373018Y-9489787D01*
X34384047Y-9500257D01*
X34395520Y-9510051D01*
X34407437Y-9519170D01*
X34419798Y-9527614D01*
X34432602Y-9535382D01*
X34445850Y-9542474D01*
X34459541Y-9548892D01*
X34473676Y-9554633D01*
X34488255Y-9559699D01*
X34503277Y-9564090D01*
X34518743Y-9567805D01*
X34534653Y-9570845D01*
X34551006Y-9573209D01*
X34567803Y-9574898D01*
X34585044Y-9575911D01*
X34602728Y-9576249D01*
X34626137Y-9576207D01*
X34649653Y-9576083D01*
X34673275Y-9575875D01*
X34697004Y-9575585D01*
X34720839Y-9575211D01*
X34744781Y-9574755D01*
X34768830Y-9574215D01*
X34792986Y-9573592D01*
X34817248Y-9572887D01*
X34841616Y-9572098D01*
X34866091Y-9571227D01*
X34890673Y-9570272D01*
X34915362Y-9569235D01*
X34940157Y-9568114D01*
X34965058Y-9566911D01*
X34990067Y-9565624D01*
X35015182Y-9564254D01*
X35040403Y-9562802D01*
X35065731Y-9561266D01*
X35091166Y-9559648D01*
X35116707Y-9557946D01*
X35142355Y-9556162D01*
X35168110Y-9554294D01*
X35193971Y-9552343D01*
X35219939Y-9550310D01*
X35246014Y-9548193D01*
X35272195Y-9545994D01*
X35298482Y-9543711D01*
X35324877Y-9541345D01*
X35351378Y-9538897D01*
X35377985Y-9536365D01*
X35404699Y-9533750D01*
X35404699Y-9259710D01*
G37*
G36*
X33701106Y-8478621D02*
G01*
X33701106Y-9555000D01*
X34070401Y-9555000D01*
X34070401Y-8763653D01*
X34228670Y-8763653D01*
X34228670Y-8478621D01*
X33701106Y-8478621D01*
G37*
G36*
X34070401Y-8056570D02*
G01*
X33701106Y-8056570D01*
X33701106Y-8352226D01*
X34070401Y-8352226D01*
X34070401Y-8056570D01*
G37*
G36*
X33197087Y-8415957D02*
G01*
X33216068Y-8417009D01*
X33234513Y-8418762D01*
X33252424Y-8421217D01*
X33269799Y-8424372D01*
X33286639Y-8428229D01*
X33302943Y-8432787D01*
X33318713Y-8438046D01*
X33333947Y-8444007D01*
X33348646Y-8450669D01*
X33362810Y-8458032D01*
X33376438Y-8466096D01*
X33389531Y-8474862D01*
X33402089Y-8484329D01*
X33414112Y-8494497D01*
X33425600Y-8505366D01*
X33436469Y-8516809D01*
X33446637Y-8528790D01*
X33456104Y-8541310D01*
X33464869Y-8554367D01*
X33472934Y-8567963D01*
X33480297Y-8582096D01*
X33486958Y-8596768D01*
X33492919Y-8611978D01*
X33498178Y-8627726D01*
X33502736Y-8644012D01*
X33506593Y-8660836D01*
X33509749Y-8678198D01*
X33512203Y-8696099D01*
X33513956Y-8714537D01*
X33515008Y-8733513D01*
X33515359Y-8753028D01*
X33515359Y-9238461D01*
X33515008Y-9257977D01*
X33513956Y-9276958D01*
X33512203Y-9295403D01*
X33509749Y-9313314D01*
X33506593Y-9330689D01*
X33502736Y-9347529D01*
X33498178Y-9363833D01*
X33492919Y-9379603D01*
X33486958Y-9394837D01*
X33480297Y-9409536D01*
X33472934Y-9423699D01*
X33464869Y-9437328D01*
X33456104Y-9450421D01*
X33446637Y-9462979D01*
X33436469Y-9475002D01*
X33425600Y-9486489D01*
X33414112Y-9497359D01*
X33402089Y-9507527D01*
X33389531Y-9516994D01*
X33376438Y-9525759D01*
X33362810Y-9533823D01*
X33348646Y-9541186D01*
X33333947Y-9547848D01*
X33318713Y-9553809D01*
X33302943Y-9559068D01*
X33286639Y-9563626D01*
X33269799Y-9567483D01*
X33252424Y-9570639D01*
X33234513Y-9573093D01*
X33216068Y-9574846D01*
X33197087Y-9575898D01*
X33177571Y-9576249D01*
X32692138Y-9576249D01*
X32672624Y-9575898D01*
X32653647Y-9574846D01*
X32635209Y-9573093D01*
X32617308Y-9570639D01*
X32599946Y-9567483D01*
X32583122Y-9563626D01*
X32566836Y-9559068D01*
X32551088Y-9553809D01*
X32535878Y-9547848D01*
X32521207Y-9541186D01*
X32507073Y-9533823D01*
X32493477Y-9525759D01*
X32480420Y-9516994D01*
X32467901Y-9507527D01*
X32455919Y-9497359D01*
X32444476Y-9486489D01*
X32433607Y-9475002D01*
X32423439Y-9462979D01*
X32413972Y-9450421D01*
X32405206Y-9437328D01*
X32397142Y-9423699D01*
X32389779Y-9409536D01*
X32383117Y-9394837D01*
X32377157Y-9379603D01*
X32371897Y-9363833D01*
X32367339Y-9347529D01*
X32363482Y-9330689D01*
X32360327Y-9313314D01*
X32357872Y-9295403D01*
X32356119Y-9276958D01*
X32355067Y-9257977D01*
X32354717Y-9238461D01*
X32354717Y-9206953D01*
X32724012Y-9206953D01*
X32724094Y-9212138D01*
X32726069Y-9231229D01*
X32730677Y-9247686D01*
X32737919Y-9261511D01*
X32747794Y-9272702D01*
X32760301Y-9281260D01*
X32775443Y-9287185D01*
X32793217Y-9290477D01*
X32808276Y-9291217D01*
X33061434Y-9291217D01*
X33066640Y-9291135D01*
X33085814Y-9289160D01*
X33102344Y-9284552D01*
X33116228Y-9277310D01*
X33127468Y-9267436D01*
X33136063Y-9254928D01*
X33142014Y-9239787D01*
X33145320Y-9222012D01*
X33146064Y-9206953D01*
X33146064Y-8784902D01*
X33145981Y-8779695D01*
X33143998Y-8760521D01*
X33139369Y-8743992D01*
X33132096Y-8730107D01*
X33122179Y-8718867D01*
X33109617Y-8710272D01*
X33094410Y-8704321D01*
X33076558Y-8701015D01*
X33061434Y-8700272D01*
X32808276Y-8700272D01*
X32803092Y-8700354D01*
X32784001Y-8702338D01*
X32767543Y-8706966D01*
X32753718Y-8714239D01*
X32742527Y-8724157D01*
X32733969Y-8736719D01*
X32728044Y-8751926D01*
X32724753Y-8769777D01*
X32724012Y-8784902D01*
X32724012Y-9206953D01*
X32354717Y-9206953D01*
X32354717Y-8753028D01*
X32355067Y-8733513D01*
X32356119Y-8714537D01*
X32357872Y-8696099D01*
X32360327Y-8678198D01*
X32363482Y-8660836D01*
X32367339Y-8644012D01*
X32371897Y-8627726D01*
X32377157Y-8611978D01*
X32383117Y-8596768D01*
X32389779Y-8582096D01*
X32397142Y-8567963D01*
X32405206Y-8554367D01*
X32413972Y-8541310D01*
X32423439Y-8528790D01*
X32433607Y-8516809D01*
X32444476Y-8505366D01*
X32455919Y-8494497D01*
X32467901Y-8484329D01*
X32480420Y-8474862D01*
X32493477Y-8466096D01*
X32507073Y-8458032D01*
X32521207Y-8450669D01*
X32535878Y-8444007D01*
X32551088Y-8438046D01*
X32566836Y-8432787D01*
X32583122Y-8428229D01*
X32599946Y-8424372D01*
X32617308Y-8421217D01*
X32635209Y-8418762D01*
X32653647Y-8417009D01*
X32672624Y-8415957D01*
X32692138Y-8415607D01*
X33177571Y-8415607D01*
X33197087Y-8415957D01*
G37*
G36*
X31549815Y-8721521D02*
G01*
X31571027Y-8721891D01*
X31592761Y-8723002D01*
X31607540Y-8724154D01*
X31622551Y-8725635D01*
X31637794Y-8727446D01*
X31653268Y-8729585D01*
X31668975Y-8732054D01*
X31684913Y-8734852D01*
X31701083Y-8737979D01*
X31717485Y-8741435D01*
X31734119Y-8745220D01*
X31750984Y-8749334D01*
X31768082Y-8753778D01*
X31785411Y-8758551D01*
X31802972Y-8763653D01*
X31802972Y-9555000D01*
X32172267Y-9555000D01*
X32172267Y-8436489D01*
X31845104Y-8436489D01*
X31824221Y-8542002D01*
X31811791Y-8533987D01*
X31799320Y-8526243D01*
X31780539Y-8515137D01*
X31761668Y-8504643D01*
X31742706Y-8494761D01*
X31723654Y-8485491D01*
X31704513Y-8476832D01*
X31685281Y-8468785D01*
X31665958Y-8461350D01*
X31646546Y-8454527D01*
X31627044Y-8448316D01*
X31620523Y-8446381D01*
X31601232Y-8440881D01*
X31582514Y-8435923D01*
X31564369Y-8431505D01*
X31546798Y-8427628D01*
X31529799Y-8424292D01*
X31513374Y-8421497D01*
X31497522Y-8419243D01*
X31482243Y-8417530D01*
X31467538Y-8416358D01*
X31448821Y-8415637D01*
X31444302Y-8415607D01*
X31349413Y-8415607D01*
X31331685Y-8415944D01*
X31314403Y-8416958D01*
X31297567Y-8418646D01*
X31281178Y-8421010D01*
X31265235Y-8424050D01*
X31249739Y-8427765D01*
X31234690Y-8432156D01*
X31220087Y-8437222D01*
X31205930Y-8442964D01*
X31192220Y-8449381D01*
X31178957Y-8456473D01*
X31166140Y-8464241D01*
X31153769Y-8472685D01*
X31141845Y-8481804D01*
X31130368Y-8491599D01*
X31119337Y-8502069D01*
X31108867Y-8513100D01*
X31099072Y-8524577D01*
X31089953Y-8536501D01*
X31081509Y-8548872D01*
X31073741Y-8561689D01*
X31066649Y-8574952D01*
X31060232Y-8588662D01*
X31054490Y-8602819D01*
X31049424Y-8617422D01*
X31045033Y-8632471D01*
X31041318Y-8647967D01*
X31038278Y-8663910D01*
X31035914Y-8680299D01*
X31034226Y-8697135D01*
X31033212Y-8714417D01*
X31032875Y-8732145D01*
X31032875Y-9555000D01*
X31402170Y-9555000D01*
X31402170Y-8795160D01*
X31403498Y-8780070D01*
X31408167Y-8764682D01*
X31416198Y-8750974D01*
X31423419Y-8742770D01*
X31436006Y-8732498D01*
X31450274Y-8725588D01*
X31466222Y-8722040D01*
X31475809Y-8721521D01*
X31549815Y-8721521D01*
G37*
G36*
X29502937Y-9576249D02*
G01*
X29525039Y-9576207D01*
X29547289Y-9576083D01*
X29569687Y-9575875D01*
X29592233Y-9575585D01*
X29614927Y-9575211D01*
X29637769Y-9574755D01*
X29660760Y-9574215D01*
X29683898Y-9573592D01*
X29707185Y-9572887D01*
X29730620Y-9572098D01*
X29754203Y-9571227D01*
X29777934Y-9570272D01*
X29801813Y-9569235D01*
X29825840Y-9568114D01*
X29850016Y-9566911D01*
X29874339Y-9565624D01*
X29898811Y-9564254D01*
X29923431Y-9562802D01*
X29948198Y-9561266D01*
X29973114Y-9559648D01*
X29998179Y-9557946D01*
X30023391Y-9556162D01*
X30048751Y-9554294D01*
X30074260Y-9552343D01*
X30099916Y-9550310D01*
X30125721Y-9548193D01*
X30151674Y-9545994D01*
X30177775Y-9543711D01*
X30204024Y-9541345D01*
X30230421Y-9538897D01*
X30256966Y-9536365D01*
X30283660Y-9533750D01*
X30283660Y-9249085D01*
X30254742Y-9251024D01*
X30226285Y-9252901D01*
X30198290Y-9254716D01*
X30170756Y-9256470D01*
X30143685Y-9258162D01*
X30117074Y-9259793D01*
X30090925Y-9261362D01*
X30065238Y-9262870D01*
X30040012Y-9264316D01*
X30015248Y-9265701D01*
X29990945Y-9267024D01*
X29967104Y-9268285D01*
X29943724Y-9269485D01*
X29920806Y-9270624D01*
X29898349Y-9271700D01*
X29876354Y-9272716D01*
X29854821Y-9273670D01*
X29833749Y-9274562D01*
X29813138Y-9275393D01*
X29792989Y-9276162D01*
X29773302Y-9276870D01*
X29754076Y-9277516D01*
X29735311Y-9278100D01*
X29717009Y-9278623D01*
X29699167Y-9279085D01*
X29681788Y-9279485D01*
X29664869Y-9279823D01*
X29648413Y-9280100D01*
X29632417Y-9280316D01*
X29616884Y-9280470D01*
X29601812Y-9280562D01*
X29587201Y-9280593D01*
X29569762Y-9279601D01*
X29553713Y-9276626D01*
X29539056Y-9271667D01*
X29525789Y-9264725D01*
X29513914Y-9255799D01*
X29510265Y-9252383D01*
X29500553Y-9240958D01*
X29492851Y-9228117D01*
X29487158Y-9213859D01*
X29483474Y-9198184D01*
X29481800Y-9181092D01*
X29481688Y-9175080D01*
X29481688Y-9090816D01*
X29482183Y-9075466D01*
X29484783Y-9054298D01*
X29489611Y-9035358D01*
X29496667Y-9018646D01*
X29505951Y-9004162D01*
X29517464Y-8991907D01*
X29531205Y-8981880D01*
X29547174Y-8974081D01*
X29565371Y-8968510D01*
X29585797Y-8965168D01*
X29600651Y-8964178D01*
X29608450Y-8964054D01*
X30051385Y-8964054D01*
X30051385Y-8668764D01*
X29650582Y-8668764D01*
X29635232Y-8668269D01*
X29614064Y-8665670D01*
X29595124Y-8660842D01*
X29578412Y-8653786D01*
X29563928Y-8644501D01*
X29551673Y-8632989D01*
X29541646Y-8619248D01*
X29533847Y-8603279D01*
X29528277Y-8585082D01*
X29524934Y-8564656D01*
X29523944Y-8549801D01*
X29523820Y-8542002D01*
X29523820Y-8499870D01*
X29524315Y-8484520D01*
X29526915Y-8463352D01*
X29531743Y-8444412D01*
X29538799Y-8427700D01*
X29548083Y-8413217D01*
X29559596Y-8400961D01*
X29573337Y-8390934D01*
X29589306Y-8383135D01*
X29607503Y-8377565D01*
X29627928Y-8374222D01*
X29642783Y-8373232D01*
X29650582Y-8373108D01*
X30262411Y-8373108D01*
X30262411Y-8077819D01*
X29545069Y-8077819D01*
X29519624Y-8078187D01*
X29495038Y-8079290D01*
X29471310Y-8081129D01*
X29448441Y-8083703D01*
X29426430Y-8087014D01*
X29405278Y-8091059D01*
X29384985Y-8095841D01*
X29365551Y-8101358D01*
X29346975Y-8107610D01*
X29329258Y-8114598D01*
X29312399Y-8122322D01*
X29296400Y-8130781D01*
X29281258Y-8139976D01*
X29266976Y-8149907D01*
X29253552Y-8160573D01*
X29240987Y-8171974D01*
X29229230Y-8184082D01*
X29218232Y-8196956D01*
X29207993Y-8210597D01*
X29198512Y-8225006D01*
X29189789Y-8240181D01*
X29181825Y-8256124D01*
X29174619Y-8272833D01*
X29168172Y-8290310D01*
X29162483Y-8308554D01*
X29157553Y-8327565D01*
X29153382Y-8347343D01*
X29149968Y-8367888D01*
X29147314Y-8389200D01*
X29145417Y-8411279D01*
X29144280Y-8434125D01*
X29143900Y-8457739D01*
X29144128Y-8473353D01*
X29144811Y-8488599D01*
X29145948Y-8503475D01*
X29148508Y-8525098D01*
X29152092Y-8545889D01*
X29156700Y-8565850D01*
X29162332Y-8584980D01*
X29168987Y-8603279D01*
X29176667Y-8620748D01*
X29185371Y-8637385D01*
X29195098Y-8653192D01*
X29202152Y-8663269D01*
X29213331Y-8677691D01*
X29225160Y-8691283D01*
X29237640Y-8704044D01*
X29250770Y-8715974D01*
X29264551Y-8727073D01*
X29278981Y-8737342D01*
X29294063Y-8746780D01*
X29309795Y-8755387D01*
X29326177Y-8763163D01*
X29343210Y-8770108D01*
X29354926Y-8774277D01*
X29334013Y-8780620D01*
X29313956Y-8788016D01*
X29294755Y-8796465D01*
X29276410Y-8805968D01*
X29258920Y-8816524D01*
X29242286Y-8828133D01*
X29226508Y-8840795D01*
X29211586Y-8854511D01*
X29197520Y-8869280D01*
X29184309Y-8885102D01*
X29171954Y-8901978D01*
X29160455Y-8919907D01*
X29149812Y-8938889D01*
X29140025Y-8958925D01*
X29131093Y-8980014D01*
X29123018Y-9002156D01*
X29118037Y-9018797D01*
X29113721Y-9036113D01*
X29110069Y-9054105D01*
X29107081Y-9072773D01*
X29104757Y-9092115D01*
X29103449Y-9107066D01*
X29102516Y-9122396D01*
X29101955Y-9138107D01*
X29101769Y-9154197D01*
X29101769Y-9175080D01*
X29102148Y-9200525D01*
X29103285Y-9225111D01*
X29105182Y-9248839D01*
X29107836Y-9271708D01*
X29111250Y-9293719D01*
X29115421Y-9314871D01*
X29120351Y-9335164D01*
X29126040Y-9354598D01*
X29132487Y-9373174D01*
X29139693Y-9390891D01*
X29147657Y-9407750D01*
X29156380Y-9423750D01*
X29165861Y-9438891D01*
X29176100Y-9453173D01*
X29187098Y-9466597D01*
X29198855Y-9479162D01*
X29211420Y-9490919D01*
X29224844Y-9501917D01*
X29239126Y-9512156D01*
X29254268Y-9521637D01*
X29270267Y-9530360D01*
X29287126Y-9538324D01*
X29304843Y-9545530D01*
X29323419Y-9551977D01*
X29342853Y-9557666D01*
X29363147Y-9562596D01*
X29384298Y-9566768D01*
X29406309Y-9570181D01*
X29429178Y-9572835D01*
X29452906Y-9574732D01*
X29477492Y-9575869D01*
X29502937Y-9576249D01*
G37*
G36*
X28981601Y-9238461D02*
G01*
X28601681Y-9238461D01*
X28601681Y-9555000D01*
X28981601Y-9555000D01*
X28981601Y-9238461D01*
G37*
G36*
X27358974Y-8542002D02*
G01*
X27359568Y-8564252D01*
X27361349Y-8586121D01*
X27364319Y-8607609D01*
X27368476Y-8628716D01*
X27373821Y-8649443D01*
X27380354Y-8669789D01*
X27388075Y-8689754D01*
X27396984Y-8709339D01*
X27407080Y-8728543D01*
X27418365Y-8747367D01*
X27430837Y-8765809D01*
X27444497Y-8783871D01*
X27459345Y-8801553D01*
X27475380Y-8818853D01*
X27492604Y-8835773D01*
X27511015Y-8852313D01*
X27522779Y-8862302D01*
X27534806Y-8872303D01*
X27547096Y-8882315D01*
X27559650Y-8892338D01*
X27572467Y-8902373D01*
X27585547Y-8912419D01*
X27598891Y-8922477D01*
X27612498Y-8932547D01*
X28066057Y-9259710D01*
X27358974Y-9259710D01*
X27358974Y-9555000D01*
X28498733Y-9555000D01*
X28498733Y-9154197D01*
X27738893Y-8605383D01*
X27738893Y-8499870D01*
X27739389Y-8484520D01*
X27741988Y-8463352D01*
X27746816Y-8444412D01*
X27753872Y-8427700D01*
X27763156Y-8413217D01*
X27774669Y-8400961D01*
X27788410Y-8390934D01*
X27804379Y-8383135D01*
X27822576Y-8377565D01*
X27843002Y-8374222D01*
X27857857Y-8373232D01*
X27865655Y-8373108D01*
X28456601Y-8373108D01*
X28456601Y-8077819D01*
X27781025Y-8077819D01*
X27753837Y-8078211D01*
X27727593Y-8079387D01*
X27702294Y-8081348D01*
X27677940Y-8084093D01*
X27654529Y-8087622D01*
X27632064Y-8091935D01*
X27610543Y-8097033D01*
X27589966Y-8102915D01*
X27570334Y-8109581D01*
X27551647Y-8117031D01*
X27533904Y-8125266D01*
X27517106Y-8134285D01*
X27501252Y-8144088D01*
X27486343Y-8154675D01*
X27472378Y-8166047D01*
X27459357Y-8178203D01*
X27447202Y-8191180D01*
X27435830Y-8205107D01*
X27425243Y-8219985D01*
X27415440Y-8235813D01*
X27406421Y-8252592D01*
X27398186Y-8270320D01*
X27390736Y-8288999D01*
X27384070Y-8308628D01*
X27378188Y-8329208D01*
X27373090Y-8350737D01*
X27368777Y-8373217D01*
X27365248Y-8396647D01*
X27362503Y-8421028D01*
X27360542Y-8446358D01*
X27359366Y-8472639D01*
X27358974Y-8499870D01*
X27358974Y-8542002D01*
G37*
G36*
X27239173Y-9238461D02*
G01*
X26859253Y-9238461D01*
X26859253Y-9555000D01*
X27239173Y-9555000D01*
X27239173Y-9238461D01*
G37*
G36*
X26450390Y-9555000D02*
G01*
X26450390Y-8404982D01*
X26692923Y-8489246D01*
X26798436Y-8246713D01*
X26407892Y-8077819D01*
X26070471Y-8077819D01*
X26070471Y-9555000D01*
X26450390Y-9555000D01*
G37*
D11*
G36*
X55552893Y-7049387D02*
G01*
X55588435Y-7057589D01*
X55625173Y-7075530D01*
X55653367Y-7102016D01*
X55673018Y-7137045D01*
X55682587Y-7171220D01*
X55686688Y-7210863D01*
X55686859Y-7221628D01*
X55686859Y-8234552D01*
X55684125Y-8275356D01*
X55675923Y-8310719D01*
X55657981Y-8347273D01*
X55631495Y-8375325D01*
X55596466Y-8394877D01*
X55562291Y-8404398D01*
X55522648Y-8408478D01*
X55511883Y-8408648D01*
X54904305Y-8408648D01*
X54863501Y-8405928D01*
X54828138Y-8397767D01*
X54791584Y-8379916D01*
X54763532Y-8353563D01*
X54743980Y-8318710D01*
X54734459Y-8284707D01*
X54730378Y-8245263D01*
X54730208Y-8234552D01*
X54730208Y-7221628D01*
X54732929Y-7180618D01*
X54741089Y-7145076D01*
X54758941Y-7108338D01*
X54785294Y-7080144D01*
X54820147Y-7060494D01*
X54854150Y-7050925D01*
X54893594Y-7046824D01*
X54904305Y-7046653D01*
X55511883Y-7046653D01*
X55552893Y-7049387D01*
G37*
G36*
X63094846Y-6213761D02*
G01*
X63139333Y-6221018D01*
X63178967Y-6233112D01*
X63213749Y-6250044D01*
X63243677Y-6271814D01*
X63268751Y-6298421D01*
X63288973Y-6329866D01*
X63304341Y-6366149D01*
X63314857Y-6407270D01*
X63320519Y-6453228D01*
X63321597Y-6486555D01*
X63321597Y-8107937D01*
X63319170Y-8157120D01*
X63311891Y-8201466D01*
X63299758Y-8240974D01*
X63282772Y-8275645D01*
X63260932Y-8305477D01*
X63234240Y-8330472D01*
X63202694Y-8350629D01*
X63166295Y-8365949D01*
X63125043Y-8376430D01*
X63078938Y-8382074D01*
X63045505Y-8383150D01*
X62184695Y-8383150D01*
X62135355Y-8380731D01*
X62090867Y-8373474D01*
X62051233Y-8361380D01*
X62016452Y-8344448D01*
X61986524Y-8322678D01*
X61961449Y-8296070D01*
X61941228Y-8264625D01*
X61925859Y-8228342D01*
X61915344Y-8187222D01*
X61909682Y-8141263D01*
X61908603Y-8107937D01*
X61908603Y-6486555D01*
X61911030Y-6437371D01*
X61918310Y-6393026D01*
X61930443Y-6353518D01*
X61947429Y-6318847D01*
X61969268Y-6289015D01*
X61995961Y-6264020D01*
X62027506Y-6243862D01*
X62063905Y-6228543D01*
X62105157Y-6218061D01*
X62151262Y-6212417D01*
X62184695Y-6211342D01*
X63045505Y-6211342D01*
X63094846Y-6213761D01*
G37*
G36*
X75376358Y-9663283D02*
G01*
X48606153Y-9663283D01*
X48606153Y-9098000D01*
X49120439Y-9098000D01*
X50063021Y-9098000D01*
X50063021Y-7246248D01*
X50067228Y-7208278D01*
X50079851Y-7174601D01*
X50100888Y-7145217D01*
X50106105Y-7139856D01*
X50134630Y-7117599D01*
X50167448Y-7103586D01*
X50204560Y-7097815D01*
X50212497Y-7097651D01*
X50237996Y-7097651D01*
X50280964Y-7098477D01*
X50325786Y-7100958D01*
X50372463Y-7105093D01*
X50420995Y-7110881D01*
X50471382Y-7118323D01*
X50523623Y-7127419D01*
X50559481Y-7134401D01*
X50596163Y-7142119D01*
X50633670Y-7150572D01*
X50672001Y-7159760D01*
X50711156Y-7169682D01*
X50751135Y-7180340D01*
X50791939Y-7191733D01*
X50791939Y-9098000D01*
X51734521Y-9098000D01*
X51734521Y-7246248D01*
X51738643Y-7208278D01*
X51751007Y-7174601D01*
X51771615Y-7145217D01*
X51776726Y-7139856D01*
X51805337Y-7117599D01*
X51838413Y-7103586D01*
X51875954Y-7097815D01*
X51883998Y-7097651D01*
X51909497Y-7097651D01*
X51952464Y-7098477D01*
X51997287Y-7100958D01*
X52043964Y-7105093D01*
X52092496Y-7110881D01*
X52142882Y-7118323D01*
X52195123Y-7127419D01*
X52230981Y-7134401D01*
X52267663Y-7142119D01*
X52305170Y-7150572D01*
X52343501Y-7159760D01*
X52382656Y-7169682D01*
X52422636Y-7180340D01*
X52463439Y-7191733D01*
X52463439Y-9098000D01*
X53406021Y-9098000D01*
X53406021Y-8310170D01*
X53787626Y-8310170D01*
X53788499Y-8358427D01*
X53791116Y-8405379D01*
X53795478Y-8451025D01*
X53801585Y-8495367D01*
X53809437Y-8538403D01*
X53819033Y-8580134D01*
X53830374Y-8620560D01*
X53843460Y-8659681D01*
X53858291Y-8697497D01*
X53874867Y-8734007D01*
X53893187Y-8769213D01*
X53913253Y-8803113D01*
X53935063Y-8835708D01*
X53958618Y-8866998D01*
X53983917Y-8896982D01*
X54010962Y-8925662D01*
X54039535Y-8952706D01*
X54069420Y-8978006D01*
X54100617Y-9001561D01*
X54133126Y-9023371D01*
X54166947Y-9043436D01*
X54202081Y-9061757D01*
X54238526Y-9078333D01*
X54276283Y-9093163D01*
X54315352Y-9106250D01*
X54355734Y-9117591D01*
X54397427Y-9127187D01*
X54440433Y-9135039D01*
X54484750Y-9141146D01*
X54530380Y-9145508D01*
X54577321Y-9148125D01*
X54625575Y-9148997D01*
X55790613Y-9148997D01*
X55838870Y-9148125D01*
X55885822Y-9145508D01*
X55931469Y-9141146D01*
X55975810Y-9135039D01*
X56018847Y-9127187D01*
X56060578Y-9117591D01*
X56101004Y-9106250D01*
X56140125Y-9093163D01*
X56177940Y-9078333D01*
X56214451Y-9061757D01*
X56249656Y-9043436D01*
X56283556Y-9023371D01*
X56316151Y-9001561D01*
X56347441Y-8978006D01*
X56377426Y-8952706D01*
X56406105Y-8925662D01*
X56433150Y-8896982D01*
X56458449Y-8866998D01*
X56482004Y-8835708D01*
X56503814Y-8803113D01*
X56523880Y-8769213D01*
X56542200Y-8734007D01*
X56558776Y-8697497D01*
X56573607Y-8659681D01*
X56586693Y-8620560D01*
X56598034Y-8580134D01*
X56607631Y-8538403D01*
X56615482Y-8495367D01*
X56621589Y-8451025D01*
X56625951Y-8405379D01*
X56628568Y-8358427D01*
X56629441Y-8310170D01*
X56629441Y-7145131D01*
X56628568Y-7096878D01*
X56625951Y-7049936D01*
X56621589Y-7004307D01*
X56615482Y-6959989D01*
X56607631Y-6916984D01*
X56598034Y-6875290D01*
X56586693Y-6834909D01*
X56573607Y-6795840D01*
X56558776Y-6758082D01*
X56542200Y-6721637D01*
X56523880Y-6686504D01*
X56503814Y-6652683D01*
X56482004Y-6620174D01*
X56458449Y-6588977D01*
X56433150Y-6559092D01*
X56406105Y-6530519D01*
X56377426Y-6503474D01*
X56347441Y-6478174D01*
X56316151Y-6454619D01*
X56283556Y-6432809D01*
X56249656Y-6412744D01*
X56214451Y-6394424D01*
X56177940Y-6377848D01*
X56140125Y-6363017D01*
X56123040Y-6357302D01*
X56913446Y-6357302D01*
X56913446Y-7097651D01*
X58283356Y-7097651D01*
X58324366Y-7100371D01*
X58359907Y-7108532D01*
X58396645Y-7126383D01*
X58424840Y-7152736D01*
X58444490Y-7187589D01*
X58454059Y-7221592D01*
X58458160Y-7261036D01*
X58458331Y-7271747D01*
X58458331Y-8259172D01*
X58454210Y-8297606D01*
X58441845Y-8331575D01*
X58421237Y-8361078D01*
X58416126Y-8366443D01*
X58387137Y-8388700D01*
X58354027Y-8402713D01*
X58316796Y-8408484D01*
X58308855Y-8408648D01*
X58250132Y-8408343D01*
X58187611Y-8407426D01*
X58121291Y-8405897D01*
X58051172Y-8403758D01*
X58014688Y-8402458D01*
X57977255Y-8401006D01*
X57938872Y-8399402D01*
X57899539Y-8397644D01*
X57859256Y-8395733D01*
X57818024Y-8393670D01*
X57775842Y-8391454D01*
X57732710Y-8389085D01*
X57688629Y-8386563D01*
X57643598Y-8383888D01*
X57597617Y-8381060D01*
X57550687Y-8378080D01*
X57502807Y-8374947D01*
X57453977Y-8371661D01*
X57404197Y-8368222D01*
X57353468Y-8364630D01*
X57301789Y-8360885D01*
X57249161Y-8356988D01*
X57195583Y-8352937D01*
X57141055Y-8348734D01*
X57085577Y-8344378D01*
X57029150Y-8339869D01*
X56971773Y-8335208D01*
X56913446Y-8330393D01*
X56913446Y-9044364D01*
X56974040Y-9050801D01*
X57034151Y-9057034D01*
X57093779Y-9063063D01*
X57152925Y-9068887D01*
X57211588Y-9074507D01*
X57269769Y-9079923D01*
X57327467Y-9085134D01*
X57384682Y-9090141D01*
X57441415Y-9094944D01*
X57497666Y-9099542D01*
X57553433Y-9103935D01*
X57608719Y-9108125D01*
X57663521Y-9112110D01*
X57717841Y-9115891D01*
X57771679Y-9119467D01*
X57825034Y-9122839D01*
X57877906Y-9126007D01*
X57930296Y-9128970D01*
X57982203Y-9131729D01*
X58033628Y-9134283D01*
X58084570Y-9136633D01*
X58135030Y-9138779D01*
X58185007Y-9140721D01*
X58234501Y-9142458D01*
X58283513Y-9143991D01*
X58332042Y-9145319D01*
X58380089Y-9146443D01*
X58427653Y-9147363D01*
X58474734Y-9148078D01*
X58521333Y-9148589D01*
X58567450Y-9148895D01*
X58613083Y-9148997D01*
X58656944Y-9148152D01*
X58699719Y-9145618D01*
X58741409Y-9141393D01*
X58782014Y-9135479D01*
X58821533Y-9127874D01*
X58859967Y-9118580D01*
X58897316Y-9107596D01*
X58933579Y-9094922D01*
X58968757Y-9080558D01*
X59002849Y-9064505D01*
X59035856Y-9046761D01*
X59067778Y-9027328D01*
X59098615Y-9006205D01*
X59128366Y-8983392D01*
X59157031Y-8958889D01*
X59184612Y-8932696D01*
X59210804Y-8905116D01*
X59235307Y-8876450D01*
X59258120Y-8846699D01*
X59279244Y-8815862D01*
X59298677Y-8783941D01*
X59316420Y-8750933D01*
X59332474Y-8716841D01*
X59346838Y-8681663D01*
X59359512Y-8645400D01*
X59370496Y-8608051D01*
X59379790Y-8569617D01*
X59387394Y-8530098D01*
X59393309Y-8489494D01*
X59397533Y-8447804D01*
X59400068Y-8405028D01*
X59400913Y-8361168D01*
X59400913Y-8282033D01*
X59692832Y-8282033D01*
X59692832Y-9098000D01*
X60660913Y-9098000D01*
X60660913Y-8282033D01*
X59692832Y-8282033D01*
X59400913Y-8282033D01*
X59400913Y-8107937D01*
X60941402Y-8107937D01*
X60942374Y-8174607D01*
X60945290Y-8238990D01*
X60950150Y-8301085D01*
X60956954Y-8360893D01*
X60965702Y-8418413D01*
X60976394Y-8473646D01*
X60989030Y-8526591D01*
X61003610Y-8577249D01*
X61020135Y-8625620D01*
X61038603Y-8671703D01*
X61059015Y-8715498D01*
X61081371Y-8757006D01*
X61105671Y-8796226D01*
X61131916Y-8833159D01*
X61160104Y-8867805D01*
X61190236Y-8900163D01*
X61222491Y-8930295D01*
X61257047Y-8958483D01*
X61293905Y-8984728D01*
X61333063Y-9009028D01*
X61374523Y-9031384D01*
X61418284Y-9051796D01*
X61464347Y-9070265D01*
X61512710Y-9086789D01*
X61563375Y-9101369D01*
X61616341Y-9114005D01*
X61671608Y-9124697D01*
X61729176Y-9133445D01*
X61789046Y-9140249D01*
X61851217Y-9145109D01*
X61915689Y-9148025D01*
X61982462Y-9148997D01*
X63248617Y-9148997D01*
X63315288Y-9148025D01*
X63379670Y-9145109D01*
X63441766Y-9140249D01*
X63501574Y-9133445D01*
X63559094Y-9124697D01*
X63614327Y-9114005D01*
X63667272Y-9101369D01*
X63717930Y-9086789D01*
X63766300Y-9070265D01*
X63812383Y-9051796D01*
X63856179Y-9031384D01*
X63897687Y-9009028D01*
X63936907Y-8984728D01*
X63973840Y-8958483D01*
X64008485Y-8930295D01*
X64040843Y-8900163D01*
X64070976Y-8867805D01*
X64099164Y-8833159D01*
X64125408Y-8796226D01*
X64149709Y-8757006D01*
X64172065Y-8715498D01*
X64192477Y-8671703D01*
X64210945Y-8625620D01*
X64227469Y-8577249D01*
X64242050Y-8526591D01*
X64254686Y-8473646D01*
X64265378Y-8418413D01*
X64274126Y-8360893D01*
X64280930Y-8301085D01*
X64285790Y-8238990D01*
X64288706Y-8174607D01*
X64289678Y-8107937D01*
X64289678Y-6486555D01*
X64288706Y-6419888D01*
X64285790Y-6355516D01*
X64280930Y-6293438D01*
X64274126Y-6233654D01*
X64265378Y-6176164D01*
X64254686Y-6120969D01*
X64242050Y-6068069D01*
X64227469Y-6017462D01*
X64210945Y-5969150D01*
X64192477Y-5923133D01*
X64172065Y-5879409D01*
X64149709Y-5837980D01*
X64125408Y-5798846D01*
X64099164Y-5762006D01*
X64070976Y-5727460D01*
X64040843Y-5695208D01*
X64008485Y-5664969D01*
X63973840Y-5636681D01*
X63936907Y-5610344D01*
X63897687Y-5585958D01*
X63856179Y-5563523D01*
X63812383Y-5543039D01*
X63766300Y-5524505D01*
X63717930Y-5507923D01*
X63678354Y-5496492D01*
X64574563Y-5496492D01*
X64574563Y-6261461D01*
X65030027Y-6261461D01*
X65030027Y-8333031D01*
X64574563Y-8333031D01*
X64574563Y-9098000D01*
X66453572Y-9098000D01*
X66734060Y-9098000D01*
X67676642Y-9098000D01*
X67676642Y-7246248D01*
X67680764Y-7208278D01*
X67693129Y-7174601D01*
X67713737Y-7145217D01*
X67718848Y-7139856D01*
X67747372Y-7117599D01*
X67780191Y-7103586D01*
X67817302Y-7097815D01*
X67825240Y-7097651D01*
X68002853Y-7097651D01*
X68052768Y-7098477D01*
X68103595Y-7100958D01*
X68155334Y-7105093D01*
X68190334Y-7108768D01*
X68225738Y-7113178D01*
X68261548Y-7118323D01*
X68297763Y-7124203D01*
X68334383Y-7130818D01*
X68371409Y-7138168D01*
X68408840Y-7146254D01*
X68446676Y-7155074D01*
X68484918Y-7164629D01*
X68523565Y-7174919D01*
X68562617Y-7185945D01*
X68582295Y-7191733D01*
X68582295Y-9098000D01*
X69524877Y-9098000D01*
X69524877Y-6458418D01*
X69965393Y-6458418D01*
X69965393Y-9098000D01*
X70907975Y-9098000D01*
X70907975Y-7198767D01*
X71287822Y-7198767D01*
X71287822Y-6458418D01*
X69965393Y-6458418D01*
X69524877Y-6458418D01*
X69524877Y-6357302D01*
X68688687Y-6357302D01*
X68642086Y-6592068D01*
X68602925Y-6567212D01*
X68562930Y-6543423D01*
X68522101Y-6520700D01*
X68480436Y-6499043D01*
X68437938Y-6478453D01*
X68394604Y-6458930D01*
X68350436Y-6440473D01*
X68305433Y-6423082D01*
X68259596Y-6406758D01*
X68212924Y-6391501D01*
X68181346Y-6381921D01*
X68134223Y-6368565D01*
X68088476Y-6356522D01*
X68044104Y-6345793D01*
X68001108Y-6336378D01*
X67959488Y-6328276D01*
X67919243Y-6321488D01*
X67880374Y-6316014D01*
X67842880Y-6311854D01*
X67806762Y-6309008D01*
X67760745Y-6307256D01*
X67749622Y-6307183D01*
X67521890Y-6307183D01*
X67477926Y-6308028D01*
X67435062Y-6310563D01*
X67393296Y-6314787D01*
X67352630Y-6320702D01*
X67313063Y-6328306D01*
X67274594Y-6337600D01*
X67237225Y-6348584D01*
X67200955Y-6361258D01*
X67165784Y-6375622D01*
X67131712Y-6391676D01*
X67098739Y-6409419D01*
X67066866Y-6428853D01*
X67036091Y-6449976D01*
X67006416Y-6472789D01*
X66977839Y-6497292D01*
X66950362Y-6523484D01*
X66924169Y-6550962D01*
X66899666Y-6579538D01*
X66876853Y-6609214D01*
X66855730Y-6639988D01*
X66836297Y-6671862D01*
X66818553Y-6704835D01*
X66802500Y-6738907D01*
X66788136Y-6774078D01*
X66775462Y-6810348D01*
X66764478Y-6847717D01*
X66755184Y-6886185D01*
X66747579Y-6925752D01*
X66741665Y-6966419D01*
X66737440Y-7008184D01*
X66734905Y-7051049D01*
X66734060Y-7095013D01*
X66734060Y-9098000D01*
X66453572Y-9098000D01*
X66453572Y-8333031D01*
X65998108Y-8333031D01*
X65998108Y-6261461D01*
X66453572Y-6261461D01*
X66453572Y-5496492D01*
X64574563Y-5496492D01*
X63678354Y-5496492D01*
X63667272Y-5493291D01*
X63614327Y-5480610D01*
X63559094Y-5469880D01*
X63501574Y-5461101D01*
X63441766Y-5454273D01*
X63379670Y-5449396D01*
X63315288Y-5446470D01*
X63248617Y-5445494D01*
X69965393Y-5445494D01*
X69965393Y-6211342D01*
X70907975Y-6211342D01*
X70907975Y-5496492D01*
X71615791Y-5496492D01*
X71615791Y-8107937D01*
X71616763Y-8174607D01*
X71619679Y-8238990D01*
X71624539Y-8301085D01*
X71631343Y-8360893D01*
X71640091Y-8418413D01*
X71650783Y-8473646D01*
X71663420Y-8526591D01*
X71678000Y-8577249D01*
X71694524Y-8625620D01*
X71712992Y-8671703D01*
X71733404Y-8715498D01*
X71755761Y-8757006D01*
X71780061Y-8796226D01*
X71806305Y-8833159D01*
X71834493Y-8867805D01*
X71864626Y-8900163D01*
X71896881Y-8930295D01*
X71931437Y-8958483D01*
X71968294Y-8984728D01*
X72007453Y-9009028D01*
X72048913Y-9031384D01*
X72092674Y-9051796D01*
X72138736Y-9070265D01*
X72187100Y-9086789D01*
X72237764Y-9101369D01*
X72290730Y-9114005D01*
X72345997Y-9124697D01*
X72403566Y-9133445D01*
X72463435Y-9140249D01*
X72525606Y-9145109D01*
X72590078Y-9148025D01*
X72656852Y-9148997D01*
X73821011Y-9148997D01*
X73887784Y-9148025D01*
X73952256Y-9145109D01*
X74014427Y-9140249D01*
X74074297Y-9133445D01*
X74131865Y-9124697D01*
X74187132Y-9114005D01*
X74240098Y-9101369D01*
X74290763Y-9086789D01*
X74339127Y-9070265D01*
X74385189Y-9051796D01*
X74428950Y-9031384D01*
X74470410Y-9009028D01*
X74509569Y-8984728D01*
X74546426Y-8958483D01*
X74580982Y-8930295D01*
X74613237Y-8900163D01*
X74643369Y-8867805D01*
X74671558Y-8833159D01*
X74697802Y-8796226D01*
X74722102Y-8757006D01*
X74744458Y-8715498D01*
X74764871Y-8671703D01*
X74783339Y-8625620D01*
X74799863Y-8577249D01*
X74814443Y-8526591D01*
X74827079Y-8473646D01*
X74837771Y-8418413D01*
X74846519Y-8360893D01*
X74853324Y-8301085D01*
X74858184Y-8238990D01*
X74861100Y-8174607D01*
X74862072Y-8107937D01*
X74862072Y-5496492D01*
X73894870Y-5496492D01*
X73894870Y-8107937D01*
X73892443Y-8157120D01*
X73885164Y-8201466D01*
X73873031Y-8240974D01*
X73856044Y-8275645D01*
X73834205Y-8305477D01*
X73807513Y-8330472D01*
X73775967Y-8350629D01*
X73739568Y-8365949D01*
X73698316Y-8376430D01*
X73652211Y-8382074D01*
X73618778Y-8383150D01*
X72859085Y-8383150D01*
X72809744Y-8380731D01*
X72765257Y-8373474D01*
X72725622Y-8361380D01*
X72690841Y-8344448D01*
X72660913Y-8322678D01*
X72635839Y-8296070D01*
X72615617Y-8264625D01*
X72600249Y-8228342D01*
X72589733Y-8187222D01*
X72584071Y-8141263D01*
X72582993Y-8107937D01*
X72582993Y-5496492D01*
X71615791Y-5496492D01*
X70907975Y-5496492D01*
X70907975Y-5445494D01*
X69965393Y-5445494D01*
X63248617Y-5445494D01*
X61982462Y-5445494D01*
X61915689Y-5446470D01*
X61851217Y-5449396D01*
X61789046Y-5454273D01*
X61729176Y-5461101D01*
X61671608Y-5469880D01*
X61616341Y-5480610D01*
X61563375Y-5493291D01*
X61512710Y-5507923D01*
X61464347Y-5524505D01*
X61418284Y-5543039D01*
X61374523Y-5563523D01*
X61333063Y-5585958D01*
X61293905Y-5610344D01*
X61257047Y-5636681D01*
X61222491Y-5664969D01*
X61190236Y-5695208D01*
X61160104Y-5727460D01*
X61131916Y-5762006D01*
X61105671Y-5798846D01*
X61081371Y-5837980D01*
X61059015Y-5879409D01*
X61038603Y-5923133D01*
X61020135Y-5969150D01*
X61003610Y-6017462D01*
X60989030Y-6068069D01*
X60976394Y-6120969D01*
X60965702Y-6176164D01*
X60956954Y-6233654D01*
X60950150Y-6293438D01*
X60945290Y-6355516D01*
X60942374Y-6419888D01*
X60941402Y-6486555D01*
X60941402Y-8107937D01*
X59400913Y-8107937D01*
X59400913Y-7196129D01*
X59400041Y-7147876D01*
X59397424Y-7100934D01*
X59393062Y-7055305D01*
X59386955Y-7010987D01*
X59379103Y-6967982D01*
X59369507Y-6926288D01*
X59358165Y-6885907D01*
X59345079Y-6846838D01*
X59330248Y-6809080D01*
X59313673Y-6772635D01*
X59295352Y-6737502D01*
X59275287Y-6703681D01*
X59253477Y-6671172D01*
X59229922Y-6639975D01*
X59204622Y-6610090D01*
X59177578Y-6581517D01*
X59148898Y-6554366D01*
X59118913Y-6528966D01*
X59087624Y-6505319D01*
X59055029Y-6483423D01*
X59021129Y-6463278D01*
X58985923Y-6444886D01*
X58949413Y-6428245D01*
X58911597Y-6413355D01*
X58872476Y-6400218D01*
X58832050Y-6388832D01*
X58790319Y-6379198D01*
X58747283Y-6371315D01*
X58702941Y-6365184D01*
X58657294Y-6360805D01*
X58610343Y-6358178D01*
X58562086Y-6357302D01*
X56913446Y-6357302D01*
X56123040Y-6357302D01*
X56101004Y-6349931D01*
X56060578Y-6338590D01*
X56018847Y-6328993D01*
X55975810Y-6321142D01*
X55931469Y-6315035D01*
X55885822Y-6310673D01*
X55838870Y-6308055D01*
X55790613Y-6307183D01*
X54625575Y-6307183D01*
X54577321Y-6308055D01*
X54530380Y-6310673D01*
X54484750Y-6315035D01*
X54440433Y-6321142D01*
X54397427Y-6328993D01*
X54355734Y-6338590D01*
X54315352Y-6349931D01*
X54276283Y-6363017D01*
X54238526Y-6377848D01*
X54202081Y-6394424D01*
X54166947Y-6412744D01*
X54133126Y-6432809D01*
X54100617Y-6454619D01*
X54069420Y-6478174D01*
X54039535Y-6503474D01*
X54010962Y-6530519D01*
X53983917Y-6559092D01*
X53958618Y-6588977D01*
X53935063Y-6620174D01*
X53913253Y-6652683D01*
X53893187Y-6686504D01*
X53874867Y-6721637D01*
X53858291Y-6758082D01*
X53843460Y-6795840D01*
X53830374Y-6834909D01*
X53819033Y-6875290D01*
X53809437Y-6916984D01*
X53801585Y-6959989D01*
X53795478Y-7004307D01*
X53791116Y-7049936D01*
X53788499Y-7096878D01*
X53787626Y-7145131D01*
X53787626Y-8234552D01*
X53787626Y-8310170D01*
X53406021Y-8310170D01*
X53406021Y-6357302D01*
X52569832Y-6357302D01*
X52523230Y-6592068D01*
X52484070Y-6567212D01*
X52444075Y-6543423D01*
X52403245Y-6520700D01*
X52361581Y-6499043D01*
X52319082Y-6478453D01*
X52275749Y-6458930D01*
X52231581Y-6440473D01*
X52186578Y-6423082D01*
X52140741Y-6406758D01*
X52094069Y-6391501D01*
X52062490Y-6381921D01*
X52015368Y-6368565D01*
X51969620Y-6356522D01*
X51925249Y-6345793D01*
X51882253Y-6336378D01*
X51840632Y-6328276D01*
X51800388Y-6321488D01*
X51761518Y-6316014D01*
X51724025Y-6311854D01*
X51687907Y-6309008D01*
X51641889Y-6307256D01*
X51630767Y-6307183D01*
X51579769Y-6307183D01*
X51527603Y-6308327D01*
X51477059Y-6311758D01*
X51428135Y-6317477D01*
X51380833Y-6325483D01*
X51335152Y-6335777D01*
X51291092Y-6348358D01*
X51248653Y-6363226D01*
X51207836Y-6380383D01*
X51168639Y-6399826D01*
X51131064Y-6421557D01*
X51095110Y-6445576D01*
X51060777Y-6471882D01*
X51028065Y-6500476D01*
X50996975Y-6531357D01*
X50967505Y-6564525D01*
X50939657Y-6599981D01*
X50898905Y-6573562D01*
X50857101Y-6548379D01*
X50814247Y-6524432D01*
X50770342Y-6501722D01*
X50725386Y-6480249D01*
X50679378Y-6460012D01*
X50632320Y-6441011D01*
X50584210Y-6423247D01*
X50535050Y-6406720D01*
X50484839Y-6391428D01*
X50450781Y-6381921D01*
X50416609Y-6372871D01*
X50366215Y-6360390D01*
X50316856Y-6349223D01*
X50268533Y-6339370D01*
X50221245Y-6330831D01*
X50174993Y-6323605D01*
X50129777Y-6317693D01*
X50085596Y-6313095D01*
X50042450Y-6309811D01*
X50000341Y-6307840D01*
X49959266Y-6307183D01*
X49908268Y-6307183D01*
X49864408Y-6308028D01*
X49821632Y-6310563D01*
X49779942Y-6314787D01*
X49739338Y-6320702D01*
X49699819Y-6328306D01*
X49661385Y-6337600D01*
X49624036Y-6348584D01*
X49587773Y-6361258D01*
X49552595Y-6375622D01*
X49518503Y-6391676D01*
X49485495Y-6409419D01*
X49453574Y-6428853D01*
X49422737Y-6449976D01*
X49392986Y-6472789D01*
X49364320Y-6497292D01*
X49336740Y-6523484D01*
X49310547Y-6550962D01*
X49286044Y-6579538D01*
X49263231Y-6609214D01*
X49242108Y-6639988D01*
X49222675Y-6671862D01*
X49204931Y-6704835D01*
X49188878Y-6738907D01*
X49174514Y-6774078D01*
X49161840Y-6810348D01*
X49150856Y-6847717D01*
X49141562Y-6886185D01*
X49133958Y-6925752D01*
X49128043Y-6966419D01*
X49123818Y-7008184D01*
X49121284Y-7051049D01*
X49120439Y-7095013D01*
X49120439Y-9098000D01*
X48606153Y-9098000D01*
X48606153Y-4931208D01*
X75376358Y-4931208D01*
X75376358Y-9663283D01*
G37*
D12*
%TO.C,HOLE\u002A\u002A*%
X86449210Y-15945663D02*
G75*
G03*
X84649210Y-15945663I-900000J0D01*
G01*
X84649210Y-15945663D02*
G75*
G03*
X86449210Y-15945663I900000J0D01*
G01*
X15316265Y-15945663D02*
G75*
G03*
X13516265Y-15945663I-900000J0D01*
G01*
X13516265Y-15945663D02*
G75*
G03*
X15316265Y-15945663I900000J0D01*
G01*
X15316265Y1664337D02*
G75*
G03*
X13516265Y1664337I-900000J0D01*
G01*
X13516265Y1664337D02*
G75*
G03*
X15316265Y1664337I900000J0D01*
G01*
X86449210Y1664337D02*
G75*
G03*
X84649210Y1664337I-900000J0D01*
G01*
X84649210Y1664337D02*
G75*
G03*
X86449210Y1664337I900000J0D01*
G01*
D13*
%TO.C,J2*%
X15741265Y334337D02*
X15741265Y2994337D01*
X81841265Y334337D02*
X15741265Y334337D01*
X81841265Y334337D02*
X81841265Y2994337D01*
X83111265Y334337D02*
X84441265Y334337D01*
X84441265Y334337D02*
X84441265Y1664337D01*
X81841265Y2994337D02*
X15741265Y2994337D01*
%TO.C,J4*%
X15741265Y-17275663D02*
X15741265Y-14615663D01*
X81841265Y-17275663D02*
X15741265Y-17275663D01*
X81841265Y-17275663D02*
X81841265Y-14615663D01*
X83111265Y-17275663D02*
X84441265Y-17275663D01*
X84441265Y-17275663D02*
X84441265Y-15945663D01*
X81841265Y-14615663D02*
X15741265Y-14615663D01*
%TD*%
%LPC*%
D14*
%TO.C,HOLE\u002A\u002A*%
X85549210Y-15945663D03*
%TD*%
%TO.C,HOLE\u002A\u002A*%
X14416265Y-15945663D03*
%TD*%
D15*
%TO.C,J3*%
X4189210Y1664337D03*
D16*
X6729210Y1664337D03*
X9269210Y1664337D03*
X11809210Y1664337D03*
%TD*%
D17*
%TO.C,USB1*%
X5708210Y-4242831D03*
X5708210Y-10022831D03*
D18*
X6208210Y-2807831D03*
X6208210Y-11457831D03*
D19*
X2008210Y-2807831D03*
X2008210Y-11457831D03*
%TD*%
D14*
%TO.C,HOLE\u002A\u002A*%
X14416265Y1664337D03*
%TD*%
D15*
%TO.C,J1*%
X6739210Y-15945663D03*
D16*
X9279210Y-15945663D03*
X11819210Y-15945663D03*
%TD*%
D14*
%TO.C,HOLE\u002A\u002A*%
X85549210Y1664337D03*
%TD*%
D15*
%TO.C,J2*%
X83111265Y1664337D03*
D16*
X80571265Y1664337D03*
X78031265Y1664337D03*
X75491265Y1664337D03*
X72951265Y1664337D03*
X70411265Y1664337D03*
X67871265Y1664337D03*
X65331265Y1664337D03*
X62791265Y1664337D03*
X60251265Y1664337D03*
X57711265Y1664337D03*
X55171265Y1664337D03*
X52631265Y1664337D03*
X50091265Y1664337D03*
X47551265Y1664337D03*
X45011265Y1664337D03*
X42471265Y1664337D03*
X39931265Y1664337D03*
X37391265Y1664337D03*
X34851265Y1664337D03*
X32311265Y1664337D03*
X29771265Y1664337D03*
X27231265Y1664337D03*
X24691265Y1664337D03*
X22151265Y1664337D03*
X19611265Y1664337D03*
X17071265Y1664337D03*
%TD*%
D15*
%TO.C,J4*%
X83111265Y-15945663D03*
D16*
X80571265Y-15945663D03*
X78031265Y-15945663D03*
X75491265Y-15945663D03*
X72951265Y-15945663D03*
X70411265Y-15945663D03*
X67871265Y-15945663D03*
X65331265Y-15945663D03*
X62791265Y-15945663D03*
X60251265Y-15945663D03*
X57711265Y-15945663D03*
X55171265Y-15945663D03*
X52631265Y-15945663D03*
X50091265Y-15945663D03*
X47551265Y-15945663D03*
X45011265Y-15945663D03*
X42471265Y-15945663D03*
X39931265Y-15945663D03*
X37391265Y-15945663D03*
X34851265Y-15945663D03*
X32311265Y-15945663D03*
X29771265Y-15945663D03*
X27231265Y-15945663D03*
X24691265Y-15945663D03*
X22151265Y-15945663D03*
X19611265Y-15945663D03*
X17071265Y-15945663D03*
%TD*%
%LPD*%
M02*
