%TF.GenerationSoftware,KiCad,Pcbnew,7.0.11*%
%TF.CreationDate,2024-03-05T16:09:25+08:00*%
%TF.ProjectId,UINIO-MCU-ESP32S3,55494e49-4f2d-44d4-9355-2d4553503332,Version 3.3.0*%
%TF.SameCoordinates,PX629df6ePY56b2a99*%
%TF.FileFunction,Legend,Bot*%
%TF.FilePolarity,Positive*%
%FSLAX46Y46*%
G04 Gerber Fmt 4.6, Leading zero omitted, Abs format (unit mm)*
G04 Created by KiCad (PCBNEW 7.0.11) date 2024-03-05 16:09:25*
%MOMM*%
%LPD*%
G01*
G04 APERTURE LIST*
%ADD10C,0.300000*%
%ADD11C,0.187500*%
%ADD12C,0.100000*%
%ADD13C,0.120000*%
%ADD14C,1.200000*%
%ADD15R,1.700000X1.700000*%
%ADD16O,1.700000X1.700000*%
%ADD17C,0.650000*%
%ADD18O,2.100000X1.000000*%
%ADD19O,1.900000X1.000000*%
G04 APERTURE END LIST*
D10*
G36*
X54792893Y-7049387D02*
G01*
X54828435Y-7057589D01*
X54865173Y-7075530D01*
X54893367Y-7102016D01*
X54913018Y-7137045D01*
X54922587Y-7171220D01*
X54926688Y-7210863D01*
X54926859Y-7221628D01*
X54926859Y-8234552D01*
X54924125Y-8275356D01*
X54915923Y-8310719D01*
X54897981Y-8347273D01*
X54871495Y-8375325D01*
X54836466Y-8394877D01*
X54802291Y-8404398D01*
X54762648Y-8408478D01*
X54751883Y-8408648D01*
X54144305Y-8408648D01*
X54103501Y-8405928D01*
X54068138Y-8397767D01*
X54031584Y-8379916D01*
X54003532Y-8353563D01*
X53983980Y-8318710D01*
X53974459Y-8284707D01*
X53970378Y-8245263D01*
X53970208Y-8234552D01*
X53970208Y-7221628D01*
X53972929Y-7180618D01*
X53981089Y-7145076D01*
X53998941Y-7108338D01*
X54025294Y-7080144D01*
X54060147Y-7060494D01*
X54094150Y-7050925D01*
X54133594Y-7046824D01*
X54144305Y-7046653D01*
X54751883Y-7046653D01*
X54792893Y-7049387D01*
G37*
G36*
X62334846Y-6213761D02*
G01*
X62379333Y-6221018D01*
X62418967Y-6233112D01*
X62453749Y-6250044D01*
X62483677Y-6271814D01*
X62508751Y-6298421D01*
X62528973Y-6329866D01*
X62544341Y-6366149D01*
X62554857Y-6407270D01*
X62560519Y-6453228D01*
X62561597Y-6486555D01*
X62561597Y-8107937D01*
X62559170Y-8157120D01*
X62551891Y-8201466D01*
X62539758Y-8240974D01*
X62522772Y-8275645D01*
X62500932Y-8305477D01*
X62474240Y-8330472D01*
X62442694Y-8350629D01*
X62406295Y-8365949D01*
X62365043Y-8376430D01*
X62318938Y-8382074D01*
X62285505Y-8383150D01*
X61424695Y-8383150D01*
X61375355Y-8380731D01*
X61330867Y-8373474D01*
X61291233Y-8361380D01*
X61256452Y-8344448D01*
X61226524Y-8322678D01*
X61201449Y-8296070D01*
X61181228Y-8264625D01*
X61165859Y-8228342D01*
X61155344Y-8187222D01*
X61149682Y-8141263D01*
X61148603Y-8107937D01*
X61148603Y-6486555D01*
X61151030Y-6437371D01*
X61158310Y-6393026D01*
X61170443Y-6353518D01*
X61187429Y-6318847D01*
X61209268Y-6289015D01*
X61235961Y-6264020D01*
X61267506Y-6243862D01*
X61303905Y-6228543D01*
X61345157Y-6218061D01*
X61391262Y-6212417D01*
X61424695Y-6211342D01*
X62285505Y-6211342D01*
X62334846Y-6213761D01*
G37*
G36*
X74616358Y-9663283D02*
G01*
X47846153Y-9663283D01*
X47846153Y-9098000D01*
X48360439Y-9098000D01*
X49303021Y-9098000D01*
X49303021Y-7246248D01*
X49307228Y-7208278D01*
X49319851Y-7174601D01*
X49340888Y-7145217D01*
X49346105Y-7139856D01*
X49374630Y-7117599D01*
X49407448Y-7103586D01*
X49444560Y-7097815D01*
X49452497Y-7097651D01*
X49477996Y-7097651D01*
X49520964Y-7098477D01*
X49565786Y-7100958D01*
X49612463Y-7105093D01*
X49660995Y-7110881D01*
X49711382Y-7118323D01*
X49763623Y-7127419D01*
X49799481Y-7134401D01*
X49836163Y-7142119D01*
X49873670Y-7150572D01*
X49912001Y-7159760D01*
X49951156Y-7169682D01*
X49991135Y-7180340D01*
X50031939Y-7191733D01*
X50031939Y-9098000D01*
X50974521Y-9098000D01*
X50974521Y-7246248D01*
X50978643Y-7208278D01*
X50991007Y-7174601D01*
X51011615Y-7145217D01*
X51016726Y-7139856D01*
X51045337Y-7117599D01*
X51078413Y-7103586D01*
X51115954Y-7097815D01*
X51123998Y-7097651D01*
X51149497Y-7097651D01*
X51192464Y-7098477D01*
X51237287Y-7100958D01*
X51283964Y-7105093D01*
X51332496Y-7110881D01*
X51382882Y-7118323D01*
X51435123Y-7127419D01*
X51470981Y-7134401D01*
X51507663Y-7142119D01*
X51545170Y-7150572D01*
X51583501Y-7159760D01*
X51622656Y-7169682D01*
X51662636Y-7180340D01*
X51703439Y-7191733D01*
X51703439Y-9098000D01*
X52646021Y-9098000D01*
X52646021Y-8310170D01*
X53027626Y-8310170D01*
X53028499Y-8358427D01*
X53031116Y-8405379D01*
X53035478Y-8451025D01*
X53041585Y-8495367D01*
X53049437Y-8538403D01*
X53059033Y-8580134D01*
X53070374Y-8620560D01*
X53083460Y-8659681D01*
X53098291Y-8697497D01*
X53114867Y-8734007D01*
X53133187Y-8769213D01*
X53153253Y-8803113D01*
X53175063Y-8835708D01*
X53198618Y-8866998D01*
X53223917Y-8896982D01*
X53250962Y-8925662D01*
X53279535Y-8952706D01*
X53309420Y-8978006D01*
X53340617Y-9001561D01*
X53373126Y-9023371D01*
X53406947Y-9043436D01*
X53442081Y-9061757D01*
X53478526Y-9078333D01*
X53516283Y-9093163D01*
X53555352Y-9106250D01*
X53595734Y-9117591D01*
X53637427Y-9127187D01*
X53680433Y-9135039D01*
X53724750Y-9141146D01*
X53770380Y-9145508D01*
X53817321Y-9148125D01*
X53865575Y-9148997D01*
X55030613Y-9148997D01*
X55078870Y-9148125D01*
X55125822Y-9145508D01*
X55171469Y-9141146D01*
X55215810Y-9135039D01*
X55258847Y-9127187D01*
X55300578Y-9117591D01*
X55341004Y-9106250D01*
X55380125Y-9093163D01*
X55417940Y-9078333D01*
X55454451Y-9061757D01*
X55489656Y-9043436D01*
X55523556Y-9023371D01*
X55556151Y-9001561D01*
X55587441Y-8978006D01*
X55617426Y-8952706D01*
X55646105Y-8925662D01*
X55673150Y-8896982D01*
X55698449Y-8866998D01*
X55722004Y-8835708D01*
X55743814Y-8803113D01*
X55763880Y-8769213D01*
X55782200Y-8734007D01*
X55798776Y-8697497D01*
X55813607Y-8659681D01*
X55826693Y-8620560D01*
X55838034Y-8580134D01*
X55847631Y-8538403D01*
X55855482Y-8495367D01*
X55861589Y-8451025D01*
X55865951Y-8405379D01*
X55868568Y-8358427D01*
X55869441Y-8310170D01*
X55869441Y-7145131D01*
X55868568Y-7096878D01*
X55865951Y-7049936D01*
X55861589Y-7004307D01*
X55855482Y-6959989D01*
X55847631Y-6916984D01*
X55838034Y-6875290D01*
X55826693Y-6834909D01*
X55813607Y-6795840D01*
X55798776Y-6758082D01*
X55782200Y-6721637D01*
X55763880Y-6686504D01*
X55743814Y-6652683D01*
X55722004Y-6620174D01*
X55698449Y-6588977D01*
X55673150Y-6559092D01*
X55646105Y-6530519D01*
X55617426Y-6503474D01*
X55587441Y-6478174D01*
X55556151Y-6454619D01*
X55523556Y-6432809D01*
X55489656Y-6412744D01*
X55454451Y-6394424D01*
X55417940Y-6377848D01*
X55380125Y-6363017D01*
X55363040Y-6357302D01*
X56153446Y-6357302D01*
X56153446Y-7097651D01*
X57523356Y-7097651D01*
X57564366Y-7100371D01*
X57599907Y-7108532D01*
X57636645Y-7126383D01*
X57664840Y-7152736D01*
X57684490Y-7187589D01*
X57694059Y-7221592D01*
X57698160Y-7261036D01*
X57698331Y-7271747D01*
X57698331Y-8259172D01*
X57694210Y-8297606D01*
X57681845Y-8331575D01*
X57661237Y-8361078D01*
X57656126Y-8366443D01*
X57627137Y-8388700D01*
X57594027Y-8402713D01*
X57556796Y-8408484D01*
X57548855Y-8408648D01*
X57490132Y-8408343D01*
X57427611Y-8407426D01*
X57361291Y-8405897D01*
X57291172Y-8403758D01*
X57254688Y-8402458D01*
X57217255Y-8401006D01*
X57178872Y-8399402D01*
X57139539Y-8397644D01*
X57099256Y-8395733D01*
X57058024Y-8393670D01*
X57015842Y-8391454D01*
X56972710Y-8389085D01*
X56928629Y-8386563D01*
X56883598Y-8383888D01*
X56837617Y-8381060D01*
X56790687Y-8378080D01*
X56742807Y-8374947D01*
X56693977Y-8371661D01*
X56644197Y-8368222D01*
X56593468Y-8364630D01*
X56541789Y-8360885D01*
X56489161Y-8356988D01*
X56435583Y-8352937D01*
X56381055Y-8348734D01*
X56325577Y-8344378D01*
X56269150Y-8339869D01*
X56211773Y-8335208D01*
X56153446Y-8330393D01*
X56153446Y-9044364D01*
X56214040Y-9050801D01*
X56274151Y-9057034D01*
X56333779Y-9063063D01*
X56392925Y-9068887D01*
X56451588Y-9074507D01*
X56509769Y-9079923D01*
X56567467Y-9085134D01*
X56624682Y-9090141D01*
X56681415Y-9094944D01*
X56737666Y-9099542D01*
X56793433Y-9103935D01*
X56848719Y-9108125D01*
X56903521Y-9112110D01*
X56957841Y-9115891D01*
X57011679Y-9119467D01*
X57065034Y-9122839D01*
X57117906Y-9126007D01*
X57170296Y-9128970D01*
X57222203Y-9131729D01*
X57273628Y-9134283D01*
X57324570Y-9136633D01*
X57375030Y-9138779D01*
X57425007Y-9140721D01*
X57474501Y-9142458D01*
X57523513Y-9143991D01*
X57572042Y-9145319D01*
X57620089Y-9146443D01*
X57667653Y-9147363D01*
X57714734Y-9148078D01*
X57761333Y-9148589D01*
X57807450Y-9148895D01*
X57853083Y-9148997D01*
X57896944Y-9148152D01*
X57939719Y-9145618D01*
X57981409Y-9141393D01*
X58022014Y-9135479D01*
X58061533Y-9127874D01*
X58099967Y-9118580D01*
X58137316Y-9107596D01*
X58173579Y-9094922D01*
X58208757Y-9080558D01*
X58242849Y-9064505D01*
X58275856Y-9046761D01*
X58307778Y-9027328D01*
X58338615Y-9006205D01*
X58368366Y-8983392D01*
X58397031Y-8958889D01*
X58424612Y-8932696D01*
X58450804Y-8905116D01*
X58475307Y-8876450D01*
X58498120Y-8846699D01*
X58519244Y-8815862D01*
X58538677Y-8783941D01*
X58556420Y-8750933D01*
X58572474Y-8716841D01*
X58586838Y-8681663D01*
X58599512Y-8645400D01*
X58610496Y-8608051D01*
X58619790Y-8569617D01*
X58627394Y-8530098D01*
X58633309Y-8489494D01*
X58637533Y-8447804D01*
X58640068Y-8405028D01*
X58640913Y-8361168D01*
X58640913Y-8282033D01*
X58932832Y-8282033D01*
X58932832Y-9098000D01*
X59900913Y-9098000D01*
X59900913Y-8282033D01*
X58932832Y-8282033D01*
X58640913Y-8282033D01*
X58640913Y-8107937D01*
X60181402Y-8107937D01*
X60182374Y-8174607D01*
X60185290Y-8238990D01*
X60190150Y-8301085D01*
X60196954Y-8360893D01*
X60205702Y-8418413D01*
X60216394Y-8473646D01*
X60229030Y-8526591D01*
X60243610Y-8577249D01*
X60260135Y-8625620D01*
X60278603Y-8671703D01*
X60299015Y-8715498D01*
X60321371Y-8757006D01*
X60345671Y-8796226D01*
X60371916Y-8833159D01*
X60400104Y-8867805D01*
X60430236Y-8900163D01*
X60462491Y-8930295D01*
X60497047Y-8958483D01*
X60533905Y-8984728D01*
X60573063Y-9009028D01*
X60614523Y-9031384D01*
X60658284Y-9051796D01*
X60704347Y-9070265D01*
X60752710Y-9086789D01*
X60803375Y-9101369D01*
X60856341Y-9114005D01*
X60911608Y-9124697D01*
X60969176Y-9133445D01*
X61029046Y-9140249D01*
X61091217Y-9145109D01*
X61155689Y-9148025D01*
X61222462Y-9148997D01*
X62488617Y-9148997D01*
X62555288Y-9148025D01*
X62619670Y-9145109D01*
X62681766Y-9140249D01*
X62741574Y-9133445D01*
X62799094Y-9124697D01*
X62854327Y-9114005D01*
X62907272Y-9101369D01*
X62957930Y-9086789D01*
X63006300Y-9070265D01*
X63052383Y-9051796D01*
X63096179Y-9031384D01*
X63137687Y-9009028D01*
X63176907Y-8984728D01*
X63213840Y-8958483D01*
X63248485Y-8930295D01*
X63280843Y-8900163D01*
X63310976Y-8867805D01*
X63339164Y-8833159D01*
X63365408Y-8796226D01*
X63389709Y-8757006D01*
X63412065Y-8715498D01*
X63432477Y-8671703D01*
X63450945Y-8625620D01*
X63467469Y-8577249D01*
X63482050Y-8526591D01*
X63494686Y-8473646D01*
X63505378Y-8418413D01*
X63514126Y-8360893D01*
X63520930Y-8301085D01*
X63525790Y-8238990D01*
X63528706Y-8174607D01*
X63529678Y-8107937D01*
X63529678Y-6486555D01*
X63528706Y-6419888D01*
X63525790Y-6355516D01*
X63520930Y-6293438D01*
X63514126Y-6233654D01*
X63505378Y-6176164D01*
X63494686Y-6120969D01*
X63482050Y-6068069D01*
X63467469Y-6017462D01*
X63450945Y-5969150D01*
X63432477Y-5923133D01*
X63412065Y-5879409D01*
X63389709Y-5837980D01*
X63365408Y-5798846D01*
X63339164Y-5762006D01*
X63310976Y-5727460D01*
X63280843Y-5695208D01*
X63248485Y-5664969D01*
X63213840Y-5636681D01*
X63176907Y-5610344D01*
X63137687Y-5585958D01*
X63096179Y-5563523D01*
X63052383Y-5543039D01*
X63006300Y-5524505D01*
X62957930Y-5507923D01*
X62918354Y-5496492D01*
X63814563Y-5496492D01*
X63814563Y-6261461D01*
X64270027Y-6261461D01*
X64270027Y-8333031D01*
X63814563Y-8333031D01*
X63814563Y-9098000D01*
X65693572Y-9098000D01*
X65974060Y-9098000D01*
X66916642Y-9098000D01*
X66916642Y-7246248D01*
X66920764Y-7208278D01*
X66933129Y-7174601D01*
X66953737Y-7145217D01*
X66958848Y-7139856D01*
X66987372Y-7117599D01*
X67020191Y-7103586D01*
X67057302Y-7097815D01*
X67065240Y-7097651D01*
X67242853Y-7097651D01*
X67292768Y-7098477D01*
X67343595Y-7100958D01*
X67395334Y-7105093D01*
X67430334Y-7108768D01*
X67465738Y-7113178D01*
X67501548Y-7118323D01*
X67537763Y-7124203D01*
X67574383Y-7130818D01*
X67611409Y-7138168D01*
X67648840Y-7146254D01*
X67686676Y-7155074D01*
X67724918Y-7164629D01*
X67763565Y-7174919D01*
X67802617Y-7185945D01*
X67822295Y-7191733D01*
X67822295Y-9098000D01*
X68764877Y-9098000D01*
X68764877Y-6458418D01*
X69205393Y-6458418D01*
X69205393Y-9098000D01*
X70147975Y-9098000D01*
X70147975Y-7198767D01*
X70527822Y-7198767D01*
X70527822Y-6458418D01*
X69205393Y-6458418D01*
X68764877Y-6458418D01*
X68764877Y-6357302D01*
X67928687Y-6357302D01*
X67882086Y-6592068D01*
X67842925Y-6567212D01*
X67802930Y-6543423D01*
X67762101Y-6520700D01*
X67720436Y-6499043D01*
X67677938Y-6478453D01*
X67634604Y-6458930D01*
X67590436Y-6440473D01*
X67545433Y-6423082D01*
X67499596Y-6406758D01*
X67452924Y-6391501D01*
X67421346Y-6381921D01*
X67374223Y-6368565D01*
X67328476Y-6356522D01*
X67284104Y-6345793D01*
X67241108Y-6336378D01*
X67199488Y-6328276D01*
X67159243Y-6321488D01*
X67120374Y-6316014D01*
X67082880Y-6311854D01*
X67046762Y-6309008D01*
X67000745Y-6307256D01*
X66989622Y-6307183D01*
X66761890Y-6307183D01*
X66717926Y-6308028D01*
X66675062Y-6310563D01*
X66633296Y-6314787D01*
X66592630Y-6320702D01*
X66553063Y-6328306D01*
X66514594Y-6337600D01*
X66477225Y-6348584D01*
X66440955Y-6361258D01*
X66405784Y-6375622D01*
X66371712Y-6391676D01*
X66338739Y-6409419D01*
X66306866Y-6428853D01*
X66276091Y-6449976D01*
X66246416Y-6472789D01*
X66217839Y-6497292D01*
X66190362Y-6523484D01*
X66164169Y-6550962D01*
X66139666Y-6579538D01*
X66116853Y-6609214D01*
X66095730Y-6639988D01*
X66076297Y-6671862D01*
X66058553Y-6704835D01*
X66042500Y-6738907D01*
X66028136Y-6774078D01*
X66015462Y-6810348D01*
X66004478Y-6847717D01*
X65995184Y-6886185D01*
X65987579Y-6925752D01*
X65981665Y-6966419D01*
X65977440Y-7008184D01*
X65974905Y-7051049D01*
X65974060Y-7095013D01*
X65974060Y-9098000D01*
X65693572Y-9098000D01*
X65693572Y-8333031D01*
X65238108Y-8333031D01*
X65238108Y-6261461D01*
X65693572Y-6261461D01*
X65693572Y-5496492D01*
X63814563Y-5496492D01*
X62918354Y-5496492D01*
X62907272Y-5493291D01*
X62854327Y-5480610D01*
X62799094Y-5469880D01*
X62741574Y-5461101D01*
X62681766Y-5454273D01*
X62619670Y-5449396D01*
X62555288Y-5446470D01*
X62488617Y-5445494D01*
X69205393Y-5445494D01*
X69205393Y-6211342D01*
X70147975Y-6211342D01*
X70147975Y-5496492D01*
X70855791Y-5496492D01*
X70855791Y-8107937D01*
X70856763Y-8174607D01*
X70859679Y-8238990D01*
X70864539Y-8301085D01*
X70871343Y-8360893D01*
X70880091Y-8418413D01*
X70890783Y-8473646D01*
X70903420Y-8526591D01*
X70918000Y-8577249D01*
X70934524Y-8625620D01*
X70952992Y-8671703D01*
X70973404Y-8715498D01*
X70995761Y-8757006D01*
X71020061Y-8796226D01*
X71046305Y-8833159D01*
X71074493Y-8867805D01*
X71104626Y-8900163D01*
X71136881Y-8930295D01*
X71171437Y-8958483D01*
X71208294Y-8984728D01*
X71247453Y-9009028D01*
X71288913Y-9031384D01*
X71332674Y-9051796D01*
X71378736Y-9070265D01*
X71427100Y-9086789D01*
X71477764Y-9101369D01*
X71530730Y-9114005D01*
X71585997Y-9124697D01*
X71643566Y-9133445D01*
X71703435Y-9140249D01*
X71765606Y-9145109D01*
X71830078Y-9148025D01*
X71896852Y-9148997D01*
X73061011Y-9148997D01*
X73127784Y-9148025D01*
X73192256Y-9145109D01*
X73254427Y-9140249D01*
X73314297Y-9133445D01*
X73371865Y-9124697D01*
X73427132Y-9114005D01*
X73480098Y-9101369D01*
X73530763Y-9086789D01*
X73579127Y-9070265D01*
X73625189Y-9051796D01*
X73668950Y-9031384D01*
X73710410Y-9009028D01*
X73749569Y-8984728D01*
X73786426Y-8958483D01*
X73820982Y-8930295D01*
X73853237Y-8900163D01*
X73883369Y-8867805D01*
X73911558Y-8833159D01*
X73937802Y-8796226D01*
X73962102Y-8757006D01*
X73984458Y-8715498D01*
X74004871Y-8671703D01*
X74023339Y-8625620D01*
X74039863Y-8577249D01*
X74054443Y-8526591D01*
X74067079Y-8473646D01*
X74077771Y-8418413D01*
X74086519Y-8360893D01*
X74093324Y-8301085D01*
X74098184Y-8238990D01*
X74101100Y-8174607D01*
X74102072Y-8107937D01*
X74102072Y-5496492D01*
X73134870Y-5496492D01*
X73134870Y-8107937D01*
X73132443Y-8157120D01*
X73125164Y-8201466D01*
X73113031Y-8240974D01*
X73096044Y-8275645D01*
X73074205Y-8305477D01*
X73047513Y-8330472D01*
X73015967Y-8350629D01*
X72979568Y-8365949D01*
X72938316Y-8376430D01*
X72892211Y-8382074D01*
X72858778Y-8383150D01*
X72099085Y-8383150D01*
X72049744Y-8380731D01*
X72005257Y-8373474D01*
X71965622Y-8361380D01*
X71930841Y-8344448D01*
X71900913Y-8322678D01*
X71875839Y-8296070D01*
X71855617Y-8264625D01*
X71840249Y-8228342D01*
X71829733Y-8187222D01*
X71824071Y-8141263D01*
X71822993Y-8107937D01*
X71822993Y-5496492D01*
X70855791Y-5496492D01*
X70147975Y-5496492D01*
X70147975Y-5445494D01*
X69205393Y-5445494D01*
X62488617Y-5445494D01*
X61222462Y-5445494D01*
X61155689Y-5446470D01*
X61091217Y-5449396D01*
X61029046Y-5454273D01*
X60969176Y-5461101D01*
X60911608Y-5469880D01*
X60856341Y-5480610D01*
X60803375Y-5493291D01*
X60752710Y-5507923D01*
X60704347Y-5524505D01*
X60658284Y-5543039D01*
X60614523Y-5563523D01*
X60573063Y-5585958D01*
X60533905Y-5610344D01*
X60497047Y-5636681D01*
X60462491Y-5664969D01*
X60430236Y-5695208D01*
X60400104Y-5727460D01*
X60371916Y-5762006D01*
X60345671Y-5798846D01*
X60321371Y-5837980D01*
X60299015Y-5879409D01*
X60278603Y-5923133D01*
X60260135Y-5969150D01*
X60243610Y-6017462D01*
X60229030Y-6068069D01*
X60216394Y-6120969D01*
X60205702Y-6176164D01*
X60196954Y-6233654D01*
X60190150Y-6293438D01*
X60185290Y-6355516D01*
X60182374Y-6419888D01*
X60181402Y-6486555D01*
X60181402Y-8107937D01*
X58640913Y-8107937D01*
X58640913Y-7196129D01*
X58640041Y-7147876D01*
X58637424Y-7100934D01*
X58633062Y-7055305D01*
X58626955Y-7010987D01*
X58619103Y-6967982D01*
X58609507Y-6926288D01*
X58598165Y-6885907D01*
X58585079Y-6846838D01*
X58570248Y-6809080D01*
X58553673Y-6772635D01*
X58535352Y-6737502D01*
X58515287Y-6703681D01*
X58493477Y-6671172D01*
X58469922Y-6639975D01*
X58444622Y-6610090D01*
X58417578Y-6581517D01*
X58388898Y-6554366D01*
X58358913Y-6528966D01*
X58327624Y-6505319D01*
X58295029Y-6483423D01*
X58261129Y-6463278D01*
X58225923Y-6444886D01*
X58189413Y-6428245D01*
X58151597Y-6413355D01*
X58112476Y-6400218D01*
X58072050Y-6388832D01*
X58030319Y-6379198D01*
X57987283Y-6371315D01*
X57942941Y-6365184D01*
X57897294Y-6360805D01*
X57850343Y-6358178D01*
X57802086Y-6357302D01*
X56153446Y-6357302D01*
X55363040Y-6357302D01*
X55341004Y-6349931D01*
X55300578Y-6338590D01*
X55258847Y-6328993D01*
X55215810Y-6321142D01*
X55171469Y-6315035D01*
X55125822Y-6310673D01*
X55078870Y-6308055D01*
X55030613Y-6307183D01*
X53865575Y-6307183D01*
X53817321Y-6308055D01*
X53770380Y-6310673D01*
X53724750Y-6315035D01*
X53680433Y-6321142D01*
X53637427Y-6328993D01*
X53595734Y-6338590D01*
X53555352Y-6349931D01*
X53516283Y-6363017D01*
X53478526Y-6377848D01*
X53442081Y-6394424D01*
X53406947Y-6412744D01*
X53373126Y-6432809D01*
X53340617Y-6454619D01*
X53309420Y-6478174D01*
X53279535Y-6503474D01*
X53250962Y-6530519D01*
X53223917Y-6559092D01*
X53198618Y-6588977D01*
X53175063Y-6620174D01*
X53153253Y-6652683D01*
X53133187Y-6686504D01*
X53114867Y-6721637D01*
X53098291Y-6758082D01*
X53083460Y-6795840D01*
X53070374Y-6834909D01*
X53059033Y-6875290D01*
X53049437Y-6916984D01*
X53041585Y-6959989D01*
X53035478Y-7004307D01*
X53031116Y-7049936D01*
X53028499Y-7096878D01*
X53027626Y-7145131D01*
X53027626Y-8234552D01*
X53027626Y-8310170D01*
X52646021Y-8310170D01*
X52646021Y-6357302D01*
X51809832Y-6357302D01*
X51763230Y-6592068D01*
X51724070Y-6567212D01*
X51684075Y-6543423D01*
X51643245Y-6520700D01*
X51601581Y-6499043D01*
X51559082Y-6478453D01*
X51515749Y-6458930D01*
X51471581Y-6440473D01*
X51426578Y-6423082D01*
X51380741Y-6406758D01*
X51334069Y-6391501D01*
X51302490Y-6381921D01*
X51255368Y-6368565D01*
X51209620Y-6356522D01*
X51165249Y-6345793D01*
X51122253Y-6336378D01*
X51080632Y-6328276D01*
X51040388Y-6321488D01*
X51001518Y-6316014D01*
X50964025Y-6311854D01*
X50927907Y-6309008D01*
X50881889Y-6307256D01*
X50870767Y-6307183D01*
X50819769Y-6307183D01*
X50767603Y-6308327D01*
X50717059Y-6311758D01*
X50668135Y-6317477D01*
X50620833Y-6325483D01*
X50575152Y-6335777D01*
X50531092Y-6348358D01*
X50488653Y-6363226D01*
X50447836Y-6380383D01*
X50408639Y-6399826D01*
X50371064Y-6421557D01*
X50335110Y-6445576D01*
X50300777Y-6471882D01*
X50268065Y-6500476D01*
X50236975Y-6531357D01*
X50207505Y-6564525D01*
X50179657Y-6599981D01*
X50138905Y-6573562D01*
X50097101Y-6548379D01*
X50054247Y-6524432D01*
X50010342Y-6501722D01*
X49965386Y-6480249D01*
X49919378Y-6460012D01*
X49872320Y-6441011D01*
X49824210Y-6423247D01*
X49775050Y-6406720D01*
X49724839Y-6391428D01*
X49690781Y-6381921D01*
X49656609Y-6372871D01*
X49606215Y-6360390D01*
X49556856Y-6349223D01*
X49508533Y-6339370D01*
X49461245Y-6330831D01*
X49414993Y-6323605D01*
X49369777Y-6317693D01*
X49325596Y-6313095D01*
X49282450Y-6309811D01*
X49240341Y-6307840D01*
X49199266Y-6307183D01*
X49148268Y-6307183D01*
X49104408Y-6308028D01*
X49061632Y-6310563D01*
X49019942Y-6314787D01*
X48979338Y-6320702D01*
X48939819Y-6328306D01*
X48901385Y-6337600D01*
X48864036Y-6348584D01*
X48827773Y-6361258D01*
X48792595Y-6375622D01*
X48758503Y-6391676D01*
X48725495Y-6409419D01*
X48693574Y-6428853D01*
X48662737Y-6449976D01*
X48632986Y-6472789D01*
X48604320Y-6497292D01*
X48576740Y-6523484D01*
X48550547Y-6550962D01*
X48526044Y-6579538D01*
X48503231Y-6609214D01*
X48482108Y-6639988D01*
X48462675Y-6671862D01*
X48444931Y-6704835D01*
X48428878Y-6738907D01*
X48414514Y-6774078D01*
X48401840Y-6810348D01*
X48390856Y-6847717D01*
X48381562Y-6886185D01*
X48373958Y-6925752D01*
X48368043Y-6966419D01*
X48363818Y-7008184D01*
X48361284Y-7051049D01*
X48360439Y-7095013D01*
X48360439Y-9098000D01*
X47846153Y-9098000D01*
X47846153Y-4931208D01*
X74616358Y-4931208D01*
X74616358Y-9663283D01*
G37*
D11*
G36*
X37910471Y-9191699D02*
G01*
X37551800Y-8157819D01*
X37140373Y-8157819D01*
X37699445Y-9635000D01*
X38121496Y-9635000D01*
X38680935Y-8157819D01*
X38269141Y-8157819D01*
X37910471Y-9191699D01*
G37*
G36*
X36829795Y-8495957D02*
G01*
X36848776Y-8497009D01*
X36867221Y-8498762D01*
X36885131Y-8501217D01*
X36902507Y-8504372D01*
X36919346Y-8508229D01*
X36935651Y-8512787D01*
X36951420Y-8518046D01*
X36966655Y-8524007D01*
X36981354Y-8530669D01*
X36995517Y-8538032D01*
X37009146Y-8546096D01*
X37022239Y-8554862D01*
X37034797Y-8564329D01*
X37046820Y-8574497D01*
X37058307Y-8585366D01*
X37069177Y-8596809D01*
X37079345Y-8608790D01*
X37088811Y-8621310D01*
X37097577Y-8634367D01*
X37105641Y-8647963D01*
X37113004Y-8662096D01*
X37119666Y-8676768D01*
X37125627Y-8691978D01*
X37130886Y-8707726D01*
X37135444Y-8724012D01*
X37139301Y-8740836D01*
X37142457Y-8758198D01*
X37144911Y-8776099D01*
X37146664Y-8794537D01*
X37147716Y-8813513D01*
X37148067Y-8833028D01*
X37148067Y-9339710D01*
X37147729Y-9357396D01*
X37146716Y-9374640D01*
X37145027Y-9391445D01*
X37142663Y-9407808D01*
X37139623Y-9423730D01*
X37135908Y-9439212D01*
X37131517Y-9454253D01*
X37126451Y-9468853D01*
X37120709Y-9483013D01*
X37114292Y-9496731D01*
X37107200Y-9510009D01*
X37099432Y-9522846D01*
X37090988Y-9535243D01*
X37081869Y-9547198D01*
X37072075Y-9558713D01*
X37061605Y-9569787D01*
X37050531Y-9580257D01*
X37039016Y-9590051D01*
X37027060Y-9599170D01*
X37014664Y-9607614D01*
X37001827Y-9615382D01*
X36988549Y-9622474D01*
X36974831Y-9628892D01*
X36960671Y-9634633D01*
X36946071Y-9639699D01*
X36931030Y-9644090D01*
X36915548Y-9647805D01*
X36899626Y-9650845D01*
X36883262Y-9653209D01*
X36866458Y-9654898D01*
X36849213Y-9655911D01*
X36831528Y-9656249D01*
X36810732Y-9656207D01*
X36789788Y-9656083D01*
X36768697Y-9655875D01*
X36747459Y-9655585D01*
X36726073Y-9655211D01*
X36704540Y-9654755D01*
X36682859Y-9654215D01*
X36661031Y-9653592D01*
X36639056Y-9652887D01*
X36616933Y-9652098D01*
X36594663Y-9651227D01*
X36572245Y-9650272D01*
X36549680Y-9649235D01*
X36526967Y-9648114D01*
X36504108Y-9646911D01*
X36481100Y-9645624D01*
X36457946Y-9644254D01*
X36434644Y-9642802D01*
X36411194Y-9641266D01*
X36387597Y-9639648D01*
X36363853Y-9637946D01*
X36339961Y-9636162D01*
X36315922Y-9634294D01*
X36291736Y-9632343D01*
X36267402Y-9630310D01*
X36242921Y-9628193D01*
X36218292Y-9625994D01*
X36193516Y-9623711D01*
X36168592Y-9621345D01*
X36143521Y-9618897D01*
X36118303Y-9616365D01*
X36092937Y-9613750D01*
X36092937Y-9349968D01*
X36117935Y-9351929D01*
X36142554Y-9353828D01*
X36166793Y-9355664D01*
X36190654Y-9357438D01*
X36214135Y-9359150D01*
X36237236Y-9360800D01*
X36259959Y-9362388D01*
X36282302Y-9363913D01*
X36304266Y-9365376D01*
X36325851Y-9366776D01*
X36347056Y-9368115D01*
X36367882Y-9369391D01*
X36388329Y-9370605D01*
X36408397Y-9371757D01*
X36428086Y-9372846D01*
X36447395Y-9373873D01*
X36466325Y-9374838D01*
X36484876Y-9375741D01*
X36503047Y-9376581D01*
X36520839Y-9377360D01*
X36538252Y-9378075D01*
X36555286Y-9378729D01*
X36571941Y-9379321D01*
X36588216Y-9379850D01*
X36604112Y-9380317D01*
X36619629Y-9380721D01*
X36634767Y-9381064D01*
X36649525Y-9381344D01*
X36677904Y-9381717D01*
X36704766Y-9381842D01*
X36714361Y-9381332D01*
X36730371Y-9377845D01*
X36744758Y-9371054D01*
X36757522Y-9360959D01*
X36764744Y-9352617D01*
X36772774Y-9338703D01*
X36777443Y-9323109D01*
X36778771Y-9307836D01*
X36778771Y-9223572D01*
X36050439Y-9223572D01*
X36050439Y-8959790D01*
X36419734Y-8959790D01*
X36778771Y-8959790D01*
X36778771Y-8843653D01*
X36778689Y-8838468D01*
X36776705Y-8819377D01*
X36772077Y-8802920D01*
X36764804Y-8789095D01*
X36754886Y-8777904D01*
X36742324Y-8769346D01*
X36727117Y-8763421D01*
X36709266Y-8760129D01*
X36694141Y-8759389D01*
X36504364Y-8759389D01*
X36499158Y-8759471D01*
X36479984Y-8761446D01*
X36463454Y-8766054D01*
X36449570Y-8773296D01*
X36438330Y-8783170D01*
X36429735Y-8795678D01*
X36423784Y-8810819D01*
X36420478Y-8828594D01*
X36419734Y-8843653D01*
X36419734Y-8959790D01*
X36050439Y-8959790D01*
X36050439Y-8833028D01*
X36050790Y-8813513D01*
X36051842Y-8794537D01*
X36053595Y-8776099D01*
X36056049Y-8758198D01*
X36059205Y-8740836D01*
X36063062Y-8724012D01*
X36067620Y-8707726D01*
X36072879Y-8691978D01*
X36078840Y-8676768D01*
X36085501Y-8662096D01*
X36092864Y-8647963D01*
X36100929Y-8634367D01*
X36109694Y-8621310D01*
X36119161Y-8608790D01*
X36129329Y-8596809D01*
X36140198Y-8585366D01*
X36151686Y-8574497D01*
X36163709Y-8564329D01*
X36176267Y-8554862D01*
X36189360Y-8546096D01*
X36202988Y-8538032D01*
X36217152Y-8530669D01*
X36231851Y-8524007D01*
X36247085Y-8518046D01*
X36262855Y-8512787D01*
X36279159Y-8508229D01*
X36295999Y-8504372D01*
X36313374Y-8501217D01*
X36331285Y-8498762D01*
X36349730Y-8497009D01*
X36368711Y-8495957D01*
X36388227Y-8495607D01*
X36810279Y-8495607D01*
X36829795Y-8495957D01*
G37*
G36*
X35224288Y-8822404D02*
G01*
X35240944Y-8822651D01*
X35257667Y-8823394D01*
X35274455Y-8824632D01*
X35291309Y-8826365D01*
X35308230Y-8828593D01*
X35325215Y-8831317D01*
X35342267Y-8834535D01*
X35359385Y-8838249D01*
X35376568Y-8842458D01*
X35393817Y-8847162D01*
X35411132Y-8852361D01*
X35428513Y-8858055D01*
X35445960Y-8864245D01*
X35463472Y-8870930D01*
X35481050Y-8878110D01*
X35498695Y-8885785D01*
X35498695Y-9635000D01*
X35867990Y-9635000D01*
X35867990Y-8516489D01*
X35540826Y-8516489D01*
X35519944Y-8653876D01*
X35508570Y-8644139D01*
X35497165Y-8634711D01*
X35474257Y-8616782D01*
X35451220Y-8600089D01*
X35428055Y-8584633D01*
X35404761Y-8570414D01*
X35381338Y-8557431D01*
X35357786Y-8545684D01*
X35334105Y-8535174D01*
X35310296Y-8525900D01*
X35286358Y-8517863D01*
X35262291Y-8511063D01*
X35238095Y-8505498D01*
X35213771Y-8501171D01*
X35189317Y-8498080D01*
X35164735Y-8496225D01*
X35140024Y-8495607D01*
X35045136Y-8495607D01*
X35045136Y-8822404D01*
X35224288Y-8822404D01*
G37*
G36*
X34944385Y-9339710D02*
G01*
X34917795Y-9341648D01*
X34891559Y-9343525D01*
X34865677Y-9345341D01*
X34840149Y-9347094D01*
X34814975Y-9348787D01*
X34790156Y-9350417D01*
X34765691Y-9351987D01*
X34741580Y-9353494D01*
X34717823Y-9354940D01*
X34694421Y-9356325D01*
X34671372Y-9357648D01*
X34648678Y-9358910D01*
X34626338Y-9360110D01*
X34604352Y-9361248D01*
X34582721Y-9362325D01*
X34561443Y-9363340D01*
X34540520Y-9364294D01*
X34519951Y-9365187D01*
X34499736Y-9366017D01*
X34479876Y-9366787D01*
X34460369Y-9367494D01*
X34441217Y-9368140D01*
X34422419Y-9368725D01*
X34403975Y-9369248D01*
X34385886Y-9369710D01*
X34368150Y-9370110D01*
X34350769Y-9370448D01*
X34333742Y-9370725D01*
X34317069Y-9370940D01*
X34300751Y-9371094D01*
X34284786Y-9371186D01*
X34269176Y-9371217D01*
X34254064Y-9369912D01*
X34238595Y-9365324D01*
X34224749Y-9357431D01*
X34216420Y-9350334D01*
X34206148Y-9337541D01*
X34199238Y-9323068D01*
X34195918Y-9308791D01*
X34195170Y-9297212D01*
X34195170Y-9223572D01*
X34649096Y-9223572D01*
X34666781Y-9223235D01*
X34684026Y-9222221D01*
X34700830Y-9220533D01*
X34717194Y-9218169D01*
X34733116Y-9215129D01*
X34748598Y-9211414D01*
X34763639Y-9207023D01*
X34778239Y-9201957D01*
X34792399Y-9196215D01*
X34806117Y-9189798D01*
X34819395Y-9182706D01*
X34832232Y-9174938D01*
X34844628Y-9166494D01*
X34856584Y-9157375D01*
X34868099Y-9147580D01*
X34879173Y-9137110D01*
X34889643Y-9126037D01*
X34899437Y-9114522D01*
X34908556Y-9102566D01*
X34917000Y-9090170D01*
X34924768Y-9077333D01*
X34931860Y-9064055D01*
X34938277Y-9050337D01*
X34944019Y-9036177D01*
X34949085Y-9021577D01*
X34953476Y-9006536D01*
X34957191Y-8991054D01*
X34960231Y-8975132D01*
X34962595Y-8958768D01*
X34964284Y-8941964D01*
X34965297Y-8924719D01*
X34965635Y-8907034D01*
X34965635Y-8833028D01*
X34965297Y-8815344D01*
X34964284Y-8798103D01*
X34962595Y-8781306D01*
X34960231Y-8764953D01*
X34957191Y-8749043D01*
X34953476Y-8733577D01*
X34949085Y-8718555D01*
X34944019Y-8703976D01*
X34938277Y-8689841D01*
X34931860Y-8676150D01*
X34924768Y-8662902D01*
X34917000Y-8650098D01*
X34908556Y-8637737D01*
X34899437Y-8625820D01*
X34889643Y-8614347D01*
X34879173Y-8603318D01*
X34868099Y-8592803D01*
X34856584Y-8582967D01*
X34844628Y-8573810D01*
X34832232Y-8565330D01*
X34819395Y-8557529D01*
X34806117Y-8550407D01*
X34792399Y-8543962D01*
X34778239Y-8538196D01*
X34763639Y-8533109D01*
X34748598Y-8528700D01*
X34733116Y-8524969D01*
X34717194Y-8521916D01*
X34700830Y-8519542D01*
X34684026Y-8517846D01*
X34666781Y-8516829D01*
X34649096Y-8516489D01*
X33931388Y-8516489D01*
X33931388Y-8790896D01*
X34522334Y-8790896D01*
X34537607Y-8792224D01*
X34553201Y-8796893D01*
X34567115Y-8804924D01*
X34575457Y-8812145D01*
X34585551Y-8824761D01*
X34592342Y-8839116D01*
X34595830Y-8855210D01*
X34596339Y-8864902D01*
X34595034Y-8880014D01*
X34590446Y-8895483D01*
X34582553Y-8909329D01*
X34575457Y-8917658D01*
X34562664Y-8927753D01*
X34548190Y-8934544D01*
X34532035Y-8938031D01*
X34522334Y-8938541D01*
X34142414Y-8938541D01*
X34124730Y-8938880D01*
X34107489Y-8939898D01*
X34090692Y-8941594D01*
X34074339Y-8943968D01*
X34058429Y-8947020D01*
X34042963Y-8950751D01*
X34027941Y-8955161D01*
X34013362Y-8960248D01*
X33999227Y-8966014D01*
X33985536Y-8972458D01*
X33972288Y-8979581D01*
X33959484Y-8987382D01*
X33947123Y-8995861D01*
X33935206Y-9005019D01*
X33923733Y-9014855D01*
X33912704Y-9025369D01*
X33902189Y-9036399D01*
X33892353Y-9047872D01*
X33883196Y-9059789D01*
X33874716Y-9072149D01*
X33866915Y-9084954D01*
X33859793Y-9098201D01*
X33853348Y-9111893D01*
X33847582Y-9126028D01*
X33842495Y-9140607D01*
X33838086Y-9155629D01*
X33834355Y-9171095D01*
X33831302Y-9187005D01*
X33828928Y-9203358D01*
X33827232Y-9220155D01*
X33826214Y-9237396D01*
X33825875Y-9255080D01*
X33825875Y-9339710D01*
X33826214Y-9357396D01*
X33827232Y-9374640D01*
X33828928Y-9391445D01*
X33831302Y-9407808D01*
X33834355Y-9423730D01*
X33838086Y-9439212D01*
X33842495Y-9454253D01*
X33847582Y-9468853D01*
X33853348Y-9483013D01*
X33859793Y-9496731D01*
X33866915Y-9510009D01*
X33874716Y-9522846D01*
X33883196Y-9535243D01*
X33892353Y-9547198D01*
X33902189Y-9558713D01*
X33912704Y-9569787D01*
X33923733Y-9580257D01*
X33935206Y-9590051D01*
X33947123Y-9599170D01*
X33959484Y-9607614D01*
X33972288Y-9615382D01*
X33985536Y-9622474D01*
X33999227Y-9628892D01*
X34013362Y-9634633D01*
X34027941Y-9639699D01*
X34042963Y-9644090D01*
X34058429Y-9647805D01*
X34074339Y-9650845D01*
X34090692Y-9653209D01*
X34107489Y-9654898D01*
X34124730Y-9655911D01*
X34142414Y-9656249D01*
X34165823Y-9656207D01*
X34189339Y-9656083D01*
X34212961Y-9655875D01*
X34236690Y-9655585D01*
X34260525Y-9655211D01*
X34284467Y-9654755D01*
X34308516Y-9654215D01*
X34332672Y-9653592D01*
X34356934Y-9652887D01*
X34381302Y-9652098D01*
X34405777Y-9651227D01*
X34430359Y-9650272D01*
X34455048Y-9649235D01*
X34479843Y-9648114D01*
X34504744Y-9646911D01*
X34529753Y-9645624D01*
X34554868Y-9644254D01*
X34580089Y-9642802D01*
X34605417Y-9641266D01*
X34630852Y-9639648D01*
X34656393Y-9637946D01*
X34682041Y-9636162D01*
X34707796Y-9634294D01*
X34733657Y-9632343D01*
X34759625Y-9630310D01*
X34785700Y-9628193D01*
X34811881Y-9625994D01*
X34838168Y-9623711D01*
X34864563Y-9621345D01*
X34891064Y-9618897D01*
X34917671Y-9616365D01*
X34944385Y-9613750D01*
X34944385Y-9339710D01*
G37*
G36*
X33240792Y-8558621D02*
G01*
X33240792Y-9635000D01*
X33610087Y-9635000D01*
X33610087Y-8843653D01*
X33768356Y-8843653D01*
X33768356Y-8558621D01*
X33240792Y-8558621D01*
G37*
G36*
X33610087Y-8136570D02*
G01*
X33240792Y-8136570D01*
X33240792Y-8432226D01*
X33610087Y-8432226D01*
X33610087Y-8136570D01*
G37*
G36*
X32736773Y-8495957D02*
G01*
X32755754Y-8497009D01*
X32774199Y-8498762D01*
X32792110Y-8501217D01*
X32809485Y-8504372D01*
X32826325Y-8508229D01*
X32842629Y-8512787D01*
X32858399Y-8518046D01*
X32873633Y-8524007D01*
X32888332Y-8530669D01*
X32902496Y-8538032D01*
X32916124Y-8546096D01*
X32929217Y-8554862D01*
X32941775Y-8564329D01*
X32953798Y-8574497D01*
X32965286Y-8585366D01*
X32976155Y-8596809D01*
X32986323Y-8608790D01*
X32995790Y-8621310D01*
X33004555Y-8634367D01*
X33012620Y-8647963D01*
X33019983Y-8662096D01*
X33026644Y-8676768D01*
X33032605Y-8691978D01*
X33037864Y-8707726D01*
X33042422Y-8724012D01*
X33046279Y-8740836D01*
X33049435Y-8758198D01*
X33051889Y-8776099D01*
X33053642Y-8794537D01*
X33054694Y-8813513D01*
X33055045Y-8833028D01*
X33055045Y-9318461D01*
X33054694Y-9337977D01*
X33053642Y-9356958D01*
X33051889Y-9375403D01*
X33049435Y-9393314D01*
X33046279Y-9410689D01*
X33042422Y-9427529D01*
X33037864Y-9443833D01*
X33032605Y-9459603D01*
X33026644Y-9474837D01*
X33019983Y-9489536D01*
X33012620Y-9503699D01*
X33004555Y-9517328D01*
X32995790Y-9530421D01*
X32986323Y-9542979D01*
X32976155Y-9555002D01*
X32965286Y-9566489D01*
X32953798Y-9577359D01*
X32941775Y-9587527D01*
X32929217Y-9596994D01*
X32916124Y-9605759D01*
X32902496Y-9613823D01*
X32888332Y-9621186D01*
X32873633Y-9627848D01*
X32858399Y-9633809D01*
X32842629Y-9639068D01*
X32826325Y-9643626D01*
X32809485Y-9647483D01*
X32792110Y-9650639D01*
X32774199Y-9653093D01*
X32755754Y-9654846D01*
X32736773Y-9655898D01*
X32717257Y-9656249D01*
X32231824Y-9656249D01*
X32212310Y-9655898D01*
X32193333Y-9654846D01*
X32174895Y-9653093D01*
X32156994Y-9650639D01*
X32139632Y-9647483D01*
X32122808Y-9643626D01*
X32106522Y-9639068D01*
X32090774Y-9633809D01*
X32075564Y-9627848D01*
X32060893Y-9621186D01*
X32046759Y-9613823D01*
X32033163Y-9605759D01*
X32020106Y-9596994D01*
X32007587Y-9587527D01*
X31995605Y-9577359D01*
X31984162Y-9566489D01*
X31973293Y-9555002D01*
X31963125Y-9542979D01*
X31953658Y-9530421D01*
X31944892Y-9517328D01*
X31936828Y-9503699D01*
X31929465Y-9489536D01*
X31922803Y-9474837D01*
X31916843Y-9459603D01*
X31911583Y-9443833D01*
X31907025Y-9427529D01*
X31903168Y-9410689D01*
X31900013Y-9393314D01*
X31897558Y-9375403D01*
X31895805Y-9356958D01*
X31894753Y-9337977D01*
X31894403Y-9318461D01*
X31894403Y-9286953D01*
X32263698Y-9286953D01*
X32263780Y-9292138D01*
X32265755Y-9311229D01*
X32270363Y-9327686D01*
X32277605Y-9341511D01*
X32287480Y-9352702D01*
X32299987Y-9361260D01*
X32315129Y-9367185D01*
X32332903Y-9370477D01*
X32347962Y-9371217D01*
X32601120Y-9371217D01*
X32606326Y-9371135D01*
X32625500Y-9369160D01*
X32642030Y-9364552D01*
X32655914Y-9357310D01*
X32667154Y-9347436D01*
X32675749Y-9334928D01*
X32681700Y-9319787D01*
X32685006Y-9302012D01*
X32685750Y-9286953D01*
X32685750Y-8864902D01*
X32685667Y-8859695D01*
X32683684Y-8840521D01*
X32679055Y-8823992D01*
X32671782Y-8810107D01*
X32661865Y-8798867D01*
X32649303Y-8790272D01*
X32634096Y-8784321D01*
X32616244Y-8781015D01*
X32601120Y-8780272D01*
X32347962Y-8780272D01*
X32342778Y-8780354D01*
X32323687Y-8782338D01*
X32307229Y-8786966D01*
X32293404Y-8794239D01*
X32282213Y-8804157D01*
X32273655Y-8816719D01*
X32267730Y-8831926D01*
X32264439Y-8849777D01*
X32263698Y-8864902D01*
X32263698Y-9286953D01*
X31894403Y-9286953D01*
X31894403Y-8833028D01*
X31894753Y-8813513D01*
X31895805Y-8794537D01*
X31897558Y-8776099D01*
X31900013Y-8758198D01*
X31903168Y-8740836D01*
X31907025Y-8724012D01*
X31911583Y-8707726D01*
X31916843Y-8691978D01*
X31922803Y-8676768D01*
X31929465Y-8662096D01*
X31936828Y-8647963D01*
X31944892Y-8634367D01*
X31953658Y-8621310D01*
X31963125Y-8608790D01*
X31973293Y-8596809D01*
X31984162Y-8585366D01*
X31995605Y-8574497D01*
X32007587Y-8564329D01*
X32020106Y-8554862D01*
X32033163Y-8546096D01*
X32046759Y-8538032D01*
X32060893Y-8530669D01*
X32075564Y-8524007D01*
X32090774Y-8518046D01*
X32106522Y-8512787D01*
X32122808Y-8508229D01*
X32139632Y-8504372D01*
X32156994Y-8501217D01*
X32174895Y-8498762D01*
X32193333Y-8497009D01*
X32212310Y-8495957D01*
X32231824Y-8495607D01*
X32717257Y-8495607D01*
X32736773Y-8495957D01*
G37*
G36*
X31089501Y-8801521D02*
G01*
X31110713Y-8801891D01*
X31132447Y-8803002D01*
X31147226Y-8804154D01*
X31162237Y-8805635D01*
X31177480Y-8807446D01*
X31192954Y-8809585D01*
X31208661Y-8812054D01*
X31224599Y-8814852D01*
X31240769Y-8817979D01*
X31257171Y-8821435D01*
X31273805Y-8825220D01*
X31290670Y-8829334D01*
X31307768Y-8833778D01*
X31325097Y-8838551D01*
X31342658Y-8843653D01*
X31342658Y-9635000D01*
X31711953Y-9635000D01*
X31711953Y-8516489D01*
X31384790Y-8516489D01*
X31363907Y-8622002D01*
X31351477Y-8613987D01*
X31339006Y-8606243D01*
X31320225Y-8595137D01*
X31301354Y-8584643D01*
X31282392Y-8574761D01*
X31263340Y-8565491D01*
X31244199Y-8556832D01*
X31224967Y-8548785D01*
X31205644Y-8541350D01*
X31186232Y-8534527D01*
X31166730Y-8528316D01*
X31160209Y-8526381D01*
X31140918Y-8520881D01*
X31122200Y-8515923D01*
X31104055Y-8511505D01*
X31086484Y-8507628D01*
X31069485Y-8504292D01*
X31053060Y-8501497D01*
X31037208Y-8499243D01*
X31021929Y-8497530D01*
X31007224Y-8496358D01*
X30988507Y-8495637D01*
X30983988Y-8495607D01*
X30889099Y-8495607D01*
X30871371Y-8495944D01*
X30854089Y-8496958D01*
X30837253Y-8498646D01*
X30820864Y-8501010D01*
X30804921Y-8504050D01*
X30789425Y-8507765D01*
X30774376Y-8512156D01*
X30759773Y-8517222D01*
X30745616Y-8522964D01*
X30731906Y-8529381D01*
X30718643Y-8536473D01*
X30705826Y-8544241D01*
X30693455Y-8552685D01*
X30681531Y-8561804D01*
X30670054Y-8571599D01*
X30659023Y-8582069D01*
X30648553Y-8593100D01*
X30638758Y-8604577D01*
X30629639Y-8616501D01*
X30621195Y-8628872D01*
X30613427Y-8641689D01*
X30606335Y-8654952D01*
X30599918Y-8668662D01*
X30594176Y-8682819D01*
X30589110Y-8697422D01*
X30584719Y-8712471D01*
X30581004Y-8727967D01*
X30577964Y-8743910D01*
X30575600Y-8760299D01*
X30573912Y-8777135D01*
X30572898Y-8794417D01*
X30572561Y-8812145D01*
X30572561Y-9635000D01*
X30941856Y-9635000D01*
X30941856Y-8875160D01*
X30943184Y-8860070D01*
X30947853Y-8844682D01*
X30955884Y-8830974D01*
X30963105Y-8822770D01*
X30975692Y-8812498D01*
X30989960Y-8805588D01*
X31005908Y-8802040D01*
X31015495Y-8801521D01*
X31089501Y-8801521D01*
G37*
G36*
X29042623Y-9656249D02*
G01*
X29064725Y-9656207D01*
X29086975Y-9656083D01*
X29109373Y-9655875D01*
X29131919Y-9655585D01*
X29154613Y-9655211D01*
X29177455Y-9654755D01*
X29200446Y-9654215D01*
X29223584Y-9653592D01*
X29246871Y-9652887D01*
X29270306Y-9652098D01*
X29293889Y-9651227D01*
X29317620Y-9650272D01*
X29341499Y-9649235D01*
X29365526Y-9648114D01*
X29389702Y-9646911D01*
X29414025Y-9645624D01*
X29438497Y-9644254D01*
X29463117Y-9642802D01*
X29487884Y-9641266D01*
X29512800Y-9639648D01*
X29537865Y-9637946D01*
X29563077Y-9636162D01*
X29588437Y-9634294D01*
X29613946Y-9632343D01*
X29639602Y-9630310D01*
X29665407Y-9628193D01*
X29691360Y-9625994D01*
X29717461Y-9623711D01*
X29743710Y-9621345D01*
X29770107Y-9618897D01*
X29796652Y-9616365D01*
X29823346Y-9613750D01*
X29823346Y-9329085D01*
X29794428Y-9331024D01*
X29765971Y-9332901D01*
X29737976Y-9334716D01*
X29710442Y-9336470D01*
X29683371Y-9338162D01*
X29656760Y-9339793D01*
X29630611Y-9341362D01*
X29604924Y-9342870D01*
X29579698Y-9344316D01*
X29554934Y-9345701D01*
X29530631Y-9347024D01*
X29506790Y-9348285D01*
X29483410Y-9349485D01*
X29460492Y-9350624D01*
X29438035Y-9351700D01*
X29416040Y-9352716D01*
X29394507Y-9353670D01*
X29373435Y-9354562D01*
X29352824Y-9355393D01*
X29332675Y-9356162D01*
X29312988Y-9356870D01*
X29293762Y-9357516D01*
X29274997Y-9358100D01*
X29256695Y-9358623D01*
X29238853Y-9359085D01*
X29221474Y-9359485D01*
X29204555Y-9359823D01*
X29188099Y-9360100D01*
X29172103Y-9360316D01*
X29156570Y-9360470D01*
X29141498Y-9360562D01*
X29126887Y-9360593D01*
X29109448Y-9359601D01*
X29093399Y-9356626D01*
X29078742Y-9351667D01*
X29065475Y-9344725D01*
X29053600Y-9335799D01*
X29049951Y-9332383D01*
X29040239Y-9320958D01*
X29032537Y-9308117D01*
X29026844Y-9293859D01*
X29023160Y-9278184D01*
X29021486Y-9261092D01*
X29021374Y-9255080D01*
X29021374Y-9170816D01*
X29021869Y-9155466D01*
X29024469Y-9134298D01*
X29029297Y-9115358D01*
X29036353Y-9098646D01*
X29045637Y-9084162D01*
X29057150Y-9071907D01*
X29070891Y-9061880D01*
X29086860Y-9054081D01*
X29105057Y-9048510D01*
X29125483Y-9045168D01*
X29140337Y-9044178D01*
X29148136Y-9044054D01*
X29591071Y-9044054D01*
X29591071Y-8748764D01*
X29190268Y-8748764D01*
X29174918Y-8748269D01*
X29153750Y-8745670D01*
X29134810Y-8740842D01*
X29118098Y-8733786D01*
X29103614Y-8724501D01*
X29091359Y-8712989D01*
X29081332Y-8699248D01*
X29073533Y-8683279D01*
X29067963Y-8665082D01*
X29064620Y-8644656D01*
X29063630Y-8629801D01*
X29063506Y-8622002D01*
X29063506Y-8579870D01*
X29064001Y-8564520D01*
X29066601Y-8543352D01*
X29071429Y-8524412D01*
X29078485Y-8507700D01*
X29087769Y-8493217D01*
X29099282Y-8480961D01*
X29113023Y-8470934D01*
X29128992Y-8463135D01*
X29147189Y-8457565D01*
X29167614Y-8454222D01*
X29182469Y-8453232D01*
X29190268Y-8453108D01*
X29802097Y-8453108D01*
X29802097Y-8157819D01*
X29084755Y-8157819D01*
X29059310Y-8158187D01*
X29034724Y-8159290D01*
X29010996Y-8161129D01*
X28988127Y-8163703D01*
X28966116Y-8167014D01*
X28944964Y-8171059D01*
X28924671Y-8175841D01*
X28905237Y-8181358D01*
X28886661Y-8187610D01*
X28868944Y-8194598D01*
X28852085Y-8202322D01*
X28836086Y-8210781D01*
X28820944Y-8219976D01*
X28806662Y-8229907D01*
X28793238Y-8240573D01*
X28780673Y-8251974D01*
X28768916Y-8264082D01*
X28757918Y-8276956D01*
X28747679Y-8290597D01*
X28738198Y-8305006D01*
X28729475Y-8320181D01*
X28721511Y-8336124D01*
X28714305Y-8352833D01*
X28707858Y-8370310D01*
X28702169Y-8388554D01*
X28697239Y-8407565D01*
X28693068Y-8427343D01*
X28689654Y-8447888D01*
X28687000Y-8469200D01*
X28685103Y-8491279D01*
X28683966Y-8514125D01*
X28683586Y-8537739D01*
X28683814Y-8553353D01*
X28684497Y-8568599D01*
X28685634Y-8583475D01*
X28688194Y-8605098D01*
X28691778Y-8625889D01*
X28696386Y-8645850D01*
X28702018Y-8664980D01*
X28708673Y-8683279D01*
X28716353Y-8700748D01*
X28725057Y-8717385D01*
X28734784Y-8733192D01*
X28741838Y-8743269D01*
X28753017Y-8757691D01*
X28764846Y-8771283D01*
X28777326Y-8784044D01*
X28790456Y-8795974D01*
X28804237Y-8807073D01*
X28818667Y-8817342D01*
X28833749Y-8826780D01*
X28849481Y-8835387D01*
X28865863Y-8843163D01*
X28882896Y-8850108D01*
X28894612Y-8854277D01*
X28873699Y-8860620D01*
X28853642Y-8868016D01*
X28834441Y-8876465D01*
X28816096Y-8885968D01*
X28798606Y-8896524D01*
X28781972Y-8908133D01*
X28766194Y-8920795D01*
X28751272Y-8934511D01*
X28737206Y-8949280D01*
X28723995Y-8965102D01*
X28711640Y-8981978D01*
X28700141Y-8999907D01*
X28689498Y-9018889D01*
X28679711Y-9038925D01*
X28670779Y-9060014D01*
X28662704Y-9082156D01*
X28657723Y-9098797D01*
X28653407Y-9116113D01*
X28649755Y-9134105D01*
X28646767Y-9152773D01*
X28644443Y-9172115D01*
X28643135Y-9187066D01*
X28642202Y-9202396D01*
X28641641Y-9218107D01*
X28641455Y-9234197D01*
X28641455Y-9255080D01*
X28641834Y-9280525D01*
X28642971Y-9305111D01*
X28644868Y-9328839D01*
X28647522Y-9351708D01*
X28650936Y-9373719D01*
X28655107Y-9394871D01*
X28660037Y-9415164D01*
X28665726Y-9434598D01*
X28672173Y-9453174D01*
X28679379Y-9470891D01*
X28687343Y-9487750D01*
X28696066Y-9503750D01*
X28705547Y-9518891D01*
X28715786Y-9533173D01*
X28726784Y-9546597D01*
X28738541Y-9559162D01*
X28751106Y-9570919D01*
X28764530Y-9581917D01*
X28778812Y-9592156D01*
X28793954Y-9601637D01*
X28809953Y-9610360D01*
X28826812Y-9618324D01*
X28844529Y-9625530D01*
X28863105Y-9631977D01*
X28882539Y-9637666D01*
X28902833Y-9642596D01*
X28923984Y-9646768D01*
X28945995Y-9650181D01*
X28968864Y-9652835D01*
X28992592Y-9654732D01*
X29017178Y-9655869D01*
X29042623Y-9656249D01*
G37*
G36*
X28521287Y-9318461D02*
G01*
X28141367Y-9318461D01*
X28141367Y-9635000D01*
X28521287Y-9635000D01*
X28521287Y-9318461D01*
G37*
G36*
X27257697Y-9656249D02*
G01*
X27279798Y-9656207D01*
X27302048Y-9656083D01*
X27324446Y-9655875D01*
X27346992Y-9655585D01*
X27369686Y-9655211D01*
X27392529Y-9654755D01*
X27415519Y-9654215D01*
X27438658Y-9653592D01*
X27461944Y-9652887D01*
X27485379Y-9652098D01*
X27508962Y-9651227D01*
X27532693Y-9650272D01*
X27556572Y-9649235D01*
X27580600Y-9648114D01*
X27604775Y-9646911D01*
X27629098Y-9645624D01*
X27653570Y-9644254D01*
X27678190Y-9642802D01*
X27702958Y-9641266D01*
X27727874Y-9639648D01*
X27752938Y-9637946D01*
X27778150Y-9636162D01*
X27803510Y-9634294D01*
X27829019Y-9632343D01*
X27854675Y-9630310D01*
X27880480Y-9628193D01*
X27906433Y-9625994D01*
X27932534Y-9623711D01*
X27958783Y-9621345D01*
X27985180Y-9618897D01*
X28011725Y-9616365D01*
X28038419Y-9613750D01*
X28038419Y-9329085D01*
X28009501Y-9331024D01*
X27981044Y-9332901D01*
X27953049Y-9334716D01*
X27925516Y-9336470D01*
X27898444Y-9338162D01*
X27871833Y-9339793D01*
X27845684Y-9341362D01*
X27819997Y-9342870D01*
X27794771Y-9344316D01*
X27770007Y-9345701D01*
X27745704Y-9347024D01*
X27721863Y-9348285D01*
X27698483Y-9349485D01*
X27675565Y-9350624D01*
X27653109Y-9351700D01*
X27631113Y-9352716D01*
X27609580Y-9353670D01*
X27588508Y-9354562D01*
X27567897Y-9355393D01*
X27547748Y-9356162D01*
X27528061Y-9356870D01*
X27508835Y-9357516D01*
X27490071Y-9358100D01*
X27471768Y-9358623D01*
X27453927Y-9359085D01*
X27436547Y-9359485D01*
X27419629Y-9359823D01*
X27403172Y-9360100D01*
X27387177Y-9360316D01*
X27371643Y-9360470D01*
X27356571Y-9360562D01*
X27341960Y-9360593D01*
X27324521Y-9359601D01*
X27308472Y-9356626D01*
X27293815Y-9351667D01*
X27280549Y-9344725D01*
X27268673Y-9335799D01*
X27265024Y-9332383D01*
X27255312Y-9320958D01*
X27247610Y-9308117D01*
X27241917Y-9293859D01*
X27238234Y-9278184D01*
X27236559Y-9261092D01*
X27236448Y-9255080D01*
X27236448Y-9170816D01*
X27236943Y-9155466D01*
X27239542Y-9134298D01*
X27244370Y-9115358D01*
X27251426Y-9098646D01*
X27260711Y-9084162D01*
X27272223Y-9071907D01*
X27285964Y-9061880D01*
X27301933Y-9054081D01*
X27320130Y-9048510D01*
X27340556Y-9045168D01*
X27355411Y-9044178D01*
X27363210Y-9044054D01*
X27806144Y-9044054D01*
X27806144Y-8748764D01*
X27405341Y-8748764D01*
X27389991Y-8748269D01*
X27368823Y-8745670D01*
X27349883Y-8740842D01*
X27333171Y-8733786D01*
X27318688Y-8724501D01*
X27306432Y-8712989D01*
X27296405Y-8699248D01*
X27288607Y-8683279D01*
X27283036Y-8665082D01*
X27279694Y-8644656D01*
X27278703Y-8629801D01*
X27278579Y-8622002D01*
X27278579Y-8579870D01*
X27279075Y-8564520D01*
X27281674Y-8543352D01*
X27286502Y-8524412D01*
X27293558Y-8507700D01*
X27302842Y-8493217D01*
X27314355Y-8480961D01*
X27328096Y-8470934D01*
X27344065Y-8463135D01*
X27362262Y-8457565D01*
X27382688Y-8454222D01*
X27397543Y-8453232D01*
X27405341Y-8453108D01*
X28017170Y-8453108D01*
X28017170Y-8157819D01*
X27299829Y-8157819D01*
X27274383Y-8158187D01*
X27249797Y-8159290D01*
X27226069Y-8161129D01*
X27203200Y-8163703D01*
X27181190Y-8167014D01*
X27160038Y-8171059D01*
X27139745Y-8175841D01*
X27120310Y-8181358D01*
X27101734Y-8187610D01*
X27084017Y-8194598D01*
X27067159Y-8202322D01*
X27051159Y-8210781D01*
X27036018Y-8219976D01*
X27021735Y-8229907D01*
X27008311Y-8240573D01*
X26995746Y-8251974D01*
X26983990Y-8264082D01*
X26972992Y-8276956D01*
X26962752Y-8290597D01*
X26953271Y-8305006D01*
X26944548Y-8320181D01*
X26936584Y-8336124D01*
X26929378Y-8352833D01*
X26922931Y-8370310D01*
X26917243Y-8388554D01*
X26912312Y-8407565D01*
X26908141Y-8427343D01*
X26904728Y-8447888D01*
X26902073Y-8469200D01*
X26900177Y-8491279D01*
X26899039Y-8514125D01*
X26898660Y-8537739D01*
X26898887Y-8553353D01*
X26899570Y-8568599D01*
X26900708Y-8583475D01*
X26903267Y-8605098D01*
X26906851Y-8625889D01*
X26911459Y-8645850D01*
X26917091Y-8664980D01*
X26923747Y-8683279D01*
X26931426Y-8700748D01*
X26940130Y-8717385D01*
X26949858Y-8733192D01*
X26956912Y-8743269D01*
X26968090Y-8757691D01*
X26979920Y-8771283D01*
X26992399Y-8784044D01*
X27005529Y-8795974D01*
X27019310Y-8807073D01*
X27033741Y-8817342D01*
X27048822Y-8826780D01*
X27064554Y-8835387D01*
X27080936Y-8843163D01*
X27097969Y-8850108D01*
X27109686Y-8854277D01*
X27088773Y-8860620D01*
X27068716Y-8868016D01*
X27049514Y-8876465D01*
X27031169Y-8885968D01*
X27013679Y-8896524D01*
X26997046Y-8908133D01*
X26981268Y-8920795D01*
X26966345Y-8934511D01*
X26952279Y-8949280D01*
X26939069Y-8965102D01*
X26926714Y-8981978D01*
X26915215Y-8999907D01*
X26904572Y-9018889D01*
X26894784Y-9038925D01*
X26885853Y-9060014D01*
X26877777Y-9082156D01*
X26872797Y-9098797D01*
X26868480Y-9116113D01*
X26864828Y-9134105D01*
X26861840Y-9152773D01*
X26859516Y-9172115D01*
X26858209Y-9187066D01*
X26857275Y-9202396D01*
X26856715Y-9218107D01*
X26856528Y-9234197D01*
X26856528Y-9255080D01*
X26856907Y-9280525D01*
X26858045Y-9305111D01*
X26859941Y-9328839D01*
X26862596Y-9351708D01*
X26866009Y-9373719D01*
X26870181Y-9394871D01*
X26875111Y-9415164D01*
X26880799Y-9434598D01*
X26887247Y-9453174D01*
X26894452Y-9470891D01*
X26902416Y-9487750D01*
X26911139Y-9503750D01*
X26920620Y-9518891D01*
X26930860Y-9533173D01*
X26941858Y-9546597D01*
X26953614Y-9559162D01*
X26966179Y-9570919D01*
X26979603Y-9581917D01*
X26993886Y-9592156D01*
X27009027Y-9601637D01*
X27025027Y-9610360D01*
X27041885Y-9618324D01*
X27059602Y-9625530D01*
X27078178Y-9631977D01*
X27097613Y-9637666D01*
X27117906Y-9642596D01*
X27139058Y-9646768D01*
X27161068Y-9650181D01*
X27183937Y-9652835D01*
X27207665Y-9654732D01*
X27232252Y-9655869D01*
X27257697Y-9656249D01*
G37*
G36*
X26736360Y-9318461D02*
G01*
X26356441Y-9318461D01*
X26356441Y-9635000D01*
X26736360Y-9635000D01*
X26736360Y-9318461D01*
G37*
G36*
X25816497Y-8136962D02*
G01*
X25842741Y-8138138D01*
X25868040Y-8140099D01*
X25892394Y-8142844D01*
X25915805Y-8146373D01*
X25938270Y-8150686D01*
X25959791Y-8155784D01*
X25980368Y-8161666D01*
X26000000Y-8168332D01*
X26018687Y-8175782D01*
X26036430Y-8184017D01*
X26053228Y-8193036D01*
X26069082Y-8202839D01*
X26083991Y-8213426D01*
X26097956Y-8224798D01*
X26110976Y-8236953D01*
X26123132Y-8249974D01*
X26134504Y-8263938D01*
X26145091Y-8278848D01*
X26154894Y-8294702D01*
X26163913Y-8311500D01*
X26172148Y-8329243D01*
X26179598Y-8347930D01*
X26186264Y-8367562D01*
X26192146Y-8388139D01*
X26197244Y-8409660D01*
X26201557Y-8432125D01*
X26205086Y-8455536D01*
X26207831Y-8479890D01*
X26209792Y-8505189D01*
X26210968Y-8531433D01*
X26211360Y-8558621D01*
X26211360Y-9234197D01*
X26210968Y-9261385D01*
X26209792Y-9287629D01*
X26207831Y-9312928D01*
X26205086Y-9337283D01*
X26201557Y-9360693D01*
X26197244Y-9383158D01*
X26192146Y-9404679D01*
X26186264Y-9425256D01*
X26179598Y-9444888D01*
X26172148Y-9463575D01*
X26163913Y-9481318D01*
X26154894Y-9498117D01*
X26145091Y-9513970D01*
X26134504Y-9528880D01*
X26123132Y-9542845D01*
X26110976Y-9555865D01*
X26097956Y-9568021D01*
X26083991Y-9579392D01*
X26069082Y-9589980D01*
X26053228Y-9599783D01*
X26036430Y-9608802D01*
X26018687Y-9617036D01*
X26000000Y-9624487D01*
X25980368Y-9631153D01*
X25959791Y-9637035D01*
X25938270Y-9642132D01*
X25915805Y-9646446D01*
X25892394Y-9649975D01*
X25868040Y-9652720D01*
X25842741Y-9654680D01*
X25816497Y-9655857D01*
X25789309Y-9656249D01*
X25388140Y-9656249D01*
X25360909Y-9655857D01*
X25334628Y-9654680D01*
X25309297Y-9652720D01*
X25284917Y-9649975D01*
X25261487Y-9646446D01*
X25239007Y-9642132D01*
X25217477Y-9637035D01*
X25196898Y-9631153D01*
X25177269Y-9624487D01*
X25158590Y-9617036D01*
X25140861Y-9608802D01*
X25124083Y-9599783D01*
X25108255Y-9589980D01*
X25093377Y-9579392D01*
X25079449Y-9568021D01*
X25066472Y-9555865D01*
X25054316Y-9542845D01*
X25042945Y-9528880D01*
X25032357Y-9513970D01*
X25022554Y-9498117D01*
X25013535Y-9481318D01*
X25005301Y-9463575D01*
X24997850Y-9444888D01*
X24991184Y-9425256D01*
X24985302Y-9404679D01*
X24980205Y-9383158D01*
X24975891Y-9360693D01*
X24972362Y-9337283D01*
X24969617Y-9312928D01*
X24967657Y-9287629D01*
X24966480Y-9261385D01*
X24966088Y-9234197D01*
X25346008Y-9234197D01*
X25346132Y-9241973D01*
X25347122Y-9256785D01*
X25350464Y-9277152D01*
X25356035Y-9295296D01*
X25363834Y-9311219D01*
X25373861Y-9324920D01*
X25386116Y-9336400D01*
X25400600Y-9345657D01*
X25417312Y-9352693D01*
X25436252Y-9357507D01*
X25457420Y-9360099D01*
X25472770Y-9360593D01*
X25704679Y-9360593D01*
X25712477Y-9360469D01*
X25727332Y-9359482D01*
X25747758Y-9356149D01*
X25765955Y-9350595D01*
X25781924Y-9342818D01*
X25795665Y-9332820D01*
X25807178Y-9320600D01*
X25816462Y-9306159D01*
X25823518Y-9289495D01*
X25828346Y-9270610D01*
X25830945Y-9249503D01*
X25831441Y-9234197D01*
X25831441Y-8558621D01*
X25831317Y-8550845D01*
X25830326Y-8536033D01*
X25826984Y-8515666D01*
X25821413Y-8497522D01*
X25813615Y-8481599D01*
X25803588Y-8467898D01*
X25791332Y-8456419D01*
X25776849Y-8447161D01*
X25760137Y-8440125D01*
X25741197Y-8435311D01*
X25720029Y-8432719D01*
X25704679Y-8432226D01*
X25472770Y-8432226D01*
X25464971Y-8432349D01*
X25450116Y-8433336D01*
X25429691Y-8436669D01*
X25411493Y-8442224D01*
X25395524Y-8450000D01*
X25381784Y-8459998D01*
X25370271Y-8472218D01*
X25360987Y-8486660D01*
X25353931Y-8503323D01*
X25349103Y-8522208D01*
X25346503Y-8543316D01*
X25346008Y-8558621D01*
X25346008Y-9234197D01*
X24966088Y-9234197D01*
X24966088Y-8558621D01*
X24966480Y-8531433D01*
X24967657Y-8505189D01*
X24969617Y-8479890D01*
X24972362Y-8455536D01*
X24975891Y-8432125D01*
X24980205Y-8409660D01*
X24985302Y-8388139D01*
X24991184Y-8367562D01*
X24997850Y-8347930D01*
X25005301Y-8329243D01*
X25013535Y-8311500D01*
X25022554Y-8294702D01*
X25032357Y-8278848D01*
X25042945Y-8263938D01*
X25054316Y-8249974D01*
X25066472Y-8236953D01*
X25079449Y-8224798D01*
X25093377Y-8213426D01*
X25108255Y-8202839D01*
X25124083Y-8193036D01*
X25140861Y-8184017D01*
X25158590Y-8175782D01*
X25177269Y-8168332D01*
X25196898Y-8161666D01*
X25217477Y-8155784D01*
X25239007Y-8150686D01*
X25261487Y-8146373D01*
X25284917Y-8142844D01*
X25309297Y-8140099D01*
X25334628Y-8138138D01*
X25360909Y-8136962D01*
X25388140Y-8136570D01*
X25789309Y-8136570D01*
X25816497Y-8136962D01*
G37*
G36*
X45389309Y-5480425D02*
G01*
X44883237Y-5480425D01*
X44883237Y-6915596D01*
X44883760Y-6951847D01*
X44885329Y-6986839D01*
X44887943Y-7020571D01*
X44891603Y-7053044D01*
X44896308Y-7084257D01*
X44902059Y-7114211D01*
X44908856Y-7142906D01*
X44916699Y-7170341D01*
X44925587Y-7196517D01*
X44935521Y-7221434D01*
X44946500Y-7245091D01*
X44958525Y-7267489D01*
X44971596Y-7288627D01*
X44985712Y-7308507D01*
X45000875Y-7327126D01*
X45017082Y-7344487D01*
X45034386Y-7360694D01*
X45052956Y-7375857D01*
X45072793Y-7389973D01*
X45093897Y-7403044D01*
X45116268Y-7415069D01*
X45139906Y-7426048D01*
X45164811Y-7435982D01*
X45190983Y-7444870D01*
X45218422Y-7452713D01*
X45247129Y-7459510D01*
X45277102Y-7465261D01*
X45308342Y-7469966D01*
X45340849Y-7473626D01*
X45374623Y-7476240D01*
X45409665Y-7477809D01*
X45445973Y-7478332D01*
X46092728Y-7478332D01*
X46129038Y-7477809D01*
X46164085Y-7476240D01*
X46197869Y-7473626D01*
X46230389Y-7469966D01*
X46261647Y-7465261D01*
X46291641Y-7459510D01*
X46320372Y-7452713D01*
X46347840Y-7444870D01*
X46374044Y-7435982D01*
X46398986Y-7426048D01*
X46422664Y-7415069D01*
X46445079Y-7403044D01*
X46466231Y-7389973D01*
X46486119Y-7375857D01*
X46504745Y-7360694D01*
X46522107Y-7344487D01*
X46538256Y-7327126D01*
X46553362Y-7308507D01*
X46567427Y-7288627D01*
X46580450Y-7267489D01*
X46592432Y-7245091D01*
X46603371Y-7221434D01*
X46613269Y-7196517D01*
X46622124Y-7170341D01*
X46629938Y-7142906D01*
X46636710Y-7114211D01*
X46642440Y-7084257D01*
X46647129Y-7053044D01*
X46650775Y-7020571D01*
X46653380Y-6986839D01*
X46654943Y-6951847D01*
X46655463Y-6915596D01*
X46655463Y-5480425D01*
X46149392Y-5480425D01*
X46149392Y-6915596D01*
X46148732Y-6936004D01*
X46145266Y-6964147D01*
X46138829Y-6989327D01*
X46129421Y-7011545D01*
X46117042Y-7030801D01*
X46101691Y-7047094D01*
X46083370Y-7060425D01*
X46062078Y-7070793D01*
X46037815Y-7078199D01*
X46010581Y-7082643D01*
X45990775Y-7083959D01*
X45980376Y-7084124D01*
X45558325Y-7084124D01*
X45537858Y-7083465D01*
X45509633Y-7080009D01*
X45484380Y-7073591D01*
X45462098Y-7064210D01*
X45442786Y-7051866D01*
X45426446Y-7036561D01*
X45413076Y-7018293D01*
X45402678Y-6997062D01*
X45395251Y-6972869D01*
X45390794Y-6945714D01*
X45389474Y-6925965D01*
X45389309Y-6915596D01*
X45389309Y-5480425D01*
G37*
G36*
X43628806Y-7450000D02*
G01*
X44641437Y-7450000D01*
X44641437Y-7056280D01*
X44388401Y-7056280D01*
X44388401Y-5874145D01*
X44641437Y-5874145D01*
X44641437Y-5480425D01*
X43628806Y-5480425D01*
X43628806Y-5874145D01*
X43881842Y-5874145D01*
X43881842Y-7056280D01*
X43628806Y-7056280D01*
X43628806Y-7450000D01*
G37*
G36*
X41666559Y-7450000D02*
G01*
X42200962Y-7450000D01*
X42876538Y-6268353D01*
X42876538Y-7450000D01*
X43382609Y-7450000D01*
X43382609Y-5480425D01*
X42848206Y-5480425D01*
X42173119Y-6662072D01*
X42173119Y-5480425D01*
X41666559Y-5480425D01*
X41666559Y-7450000D01*
G37*
G36*
X40410662Y-7450000D02*
G01*
X41423293Y-7450000D01*
X41423293Y-7056280D01*
X41170258Y-7056280D01*
X41170258Y-5874145D01*
X41423293Y-5874145D01*
X41423293Y-5480425D01*
X40410662Y-5480425D01*
X40410662Y-5874145D01*
X40663698Y-5874145D01*
X40663698Y-7056280D01*
X40410662Y-7056280D01*
X40410662Y-7450000D01*
G37*
G36*
X39694645Y-5452616D02*
G01*
X39729637Y-5454184D01*
X39763369Y-5456799D01*
X39795842Y-5460458D01*
X39827055Y-5465164D01*
X39857010Y-5470915D01*
X39885704Y-5477712D01*
X39913140Y-5485554D01*
X39939316Y-5494442D01*
X39964232Y-5504376D01*
X39987889Y-5515356D01*
X40010287Y-5527381D01*
X40031426Y-5540452D01*
X40051305Y-5554568D01*
X40069924Y-5569730D01*
X40087285Y-5585938D01*
X40103493Y-5603298D01*
X40118655Y-5621918D01*
X40132771Y-5641797D01*
X40145842Y-5662936D01*
X40157867Y-5685333D01*
X40168847Y-5708991D01*
X40178780Y-5733907D01*
X40187669Y-5760083D01*
X40195511Y-5787519D01*
X40202308Y-5816213D01*
X40208059Y-5846167D01*
X40212765Y-5877381D01*
X40216424Y-5909854D01*
X40219039Y-5943586D01*
X40220607Y-5978578D01*
X40221130Y-6014829D01*
X40221130Y-6915596D01*
X40220607Y-6951847D01*
X40219039Y-6986839D01*
X40216424Y-7020571D01*
X40212765Y-7053044D01*
X40208059Y-7084257D01*
X40202308Y-7114211D01*
X40195511Y-7142906D01*
X40187669Y-7170341D01*
X40178780Y-7196517D01*
X40168847Y-7221434D01*
X40157867Y-7245091D01*
X40145842Y-7267489D01*
X40132771Y-7288627D01*
X40118655Y-7308507D01*
X40103493Y-7327126D01*
X40087285Y-7344487D01*
X40069924Y-7360694D01*
X40051305Y-7375857D01*
X40031426Y-7389973D01*
X40010287Y-7403044D01*
X39987889Y-7415069D01*
X39964232Y-7426048D01*
X39939316Y-7435982D01*
X39913140Y-7444870D01*
X39885704Y-7452713D01*
X39857010Y-7459510D01*
X39827055Y-7465261D01*
X39795842Y-7469966D01*
X39763369Y-7473626D01*
X39729637Y-7476240D01*
X39694645Y-7477809D01*
X39658394Y-7478332D01*
X38954975Y-7478332D01*
X38918667Y-7477809D01*
X38883626Y-7476240D01*
X38849851Y-7473626D01*
X38817344Y-7469966D01*
X38786104Y-7465261D01*
X38756131Y-7459510D01*
X38727425Y-7452713D01*
X38699985Y-7444870D01*
X38673813Y-7435982D01*
X38648908Y-7426048D01*
X38625270Y-7415069D01*
X38602899Y-7403044D01*
X38581795Y-7389973D01*
X38561958Y-7375857D01*
X38543388Y-7360694D01*
X38526085Y-7344487D01*
X38509877Y-7327126D01*
X38494715Y-7308507D01*
X38480598Y-7288627D01*
X38467527Y-7267489D01*
X38455502Y-7245091D01*
X38444523Y-7221434D01*
X38434589Y-7196517D01*
X38425701Y-7170341D01*
X38417858Y-7142906D01*
X38411061Y-7114211D01*
X38405310Y-7084257D01*
X38400605Y-7053044D01*
X38396945Y-7020571D01*
X38394331Y-6986839D01*
X38392762Y-6951847D01*
X38392239Y-6915596D01*
X38898311Y-6915596D01*
X38898476Y-6925965D01*
X38899796Y-6945714D01*
X38904253Y-6972869D01*
X38911680Y-6997062D01*
X38922079Y-7018293D01*
X38935448Y-7036561D01*
X38951788Y-7051866D01*
X38971100Y-7064210D01*
X38993382Y-7073591D01*
X39018636Y-7080009D01*
X39046860Y-7083465D01*
X39067327Y-7084124D01*
X39545554Y-7084124D01*
X39555953Y-7083959D01*
X39575759Y-7082643D01*
X39602993Y-7078199D01*
X39627256Y-7070793D01*
X39648548Y-7060425D01*
X39666869Y-7047094D01*
X39682219Y-7030801D01*
X39694599Y-7011545D01*
X39704007Y-6989327D01*
X39710444Y-6964147D01*
X39713910Y-6936004D01*
X39714570Y-6915596D01*
X39714570Y-6014829D01*
X39714405Y-6004460D01*
X39713085Y-5984711D01*
X39708628Y-5957555D01*
X39701201Y-5933363D01*
X39690802Y-5912132D01*
X39677433Y-5893864D01*
X39661092Y-5878558D01*
X39641781Y-5866215D01*
X39619499Y-5856834D01*
X39594245Y-5850415D01*
X39566021Y-5846959D01*
X39545554Y-5846301D01*
X39067327Y-5846301D01*
X39056928Y-5846466D01*
X39037122Y-5847782D01*
X39009888Y-5852226D01*
X38985625Y-5859632D01*
X38964333Y-5870000D01*
X38946011Y-5883331D01*
X38930661Y-5899624D01*
X38918282Y-5918880D01*
X38908874Y-5941098D01*
X38902437Y-5966278D01*
X38898971Y-5994421D01*
X38898311Y-6014829D01*
X38898311Y-6915596D01*
X38392239Y-6915596D01*
X38392239Y-6014829D01*
X38392762Y-5978578D01*
X38394331Y-5943586D01*
X38396945Y-5909854D01*
X38400605Y-5877381D01*
X38405310Y-5846167D01*
X38411061Y-5816213D01*
X38417858Y-5787519D01*
X38425701Y-5760083D01*
X38434589Y-5733907D01*
X38444523Y-5708991D01*
X38455502Y-5685333D01*
X38467527Y-5662936D01*
X38480598Y-5641797D01*
X38494715Y-5621918D01*
X38509877Y-5603298D01*
X38526085Y-5585938D01*
X38543388Y-5569730D01*
X38561958Y-5554568D01*
X38581795Y-5540452D01*
X38602899Y-5527381D01*
X38625270Y-5515356D01*
X38648908Y-5504376D01*
X38673813Y-5494442D01*
X38699985Y-5485554D01*
X38727425Y-5477712D01*
X38756131Y-5470915D01*
X38786104Y-5465164D01*
X38817344Y-5460458D01*
X38849851Y-5456799D01*
X38883626Y-5454184D01*
X38918667Y-5452616D01*
X38954975Y-5452093D01*
X39658394Y-5452093D01*
X39694645Y-5452616D01*
G37*
G36*
X38205149Y-6662072D02*
G01*
X38205149Y-6268353D01*
X37051835Y-6268353D01*
X37051835Y-6662072D01*
X38205149Y-6662072D01*
G37*
G36*
X35117431Y-6352861D02*
G01*
X35511639Y-7056280D01*
X35905359Y-7056280D01*
X36299567Y-6352861D01*
X36299567Y-7450000D01*
X36805638Y-7450000D01*
X36805638Y-5480425D01*
X36271235Y-5480425D01*
X35708499Y-6521388D01*
X35145764Y-5480425D01*
X34611360Y-5480425D01*
X34611360Y-7450000D01*
X35117431Y-7450000D01*
X35117431Y-6352861D01*
G37*
G36*
X32767815Y-7421667D02*
G01*
X32806808Y-7425154D01*
X32845383Y-7428529D01*
X32883542Y-7431794D01*
X32921284Y-7434948D01*
X32958608Y-7437992D01*
X32995516Y-7440924D01*
X33032007Y-7443747D01*
X33068081Y-7446458D01*
X33103738Y-7449059D01*
X33138978Y-7451549D01*
X33173802Y-7453928D01*
X33208208Y-7456197D01*
X33242197Y-7458355D01*
X33275770Y-7460403D01*
X33308925Y-7462339D01*
X33341664Y-7464166D01*
X33373985Y-7465881D01*
X33405890Y-7467486D01*
X33437378Y-7468980D01*
X33468449Y-7470363D01*
X33499103Y-7471636D01*
X33529340Y-7472798D01*
X33559160Y-7473849D01*
X33588563Y-7474790D01*
X33617549Y-7475620D01*
X33646118Y-7476340D01*
X33674270Y-7476948D01*
X33702006Y-7477446D01*
X33729324Y-7477834D01*
X33756226Y-7478110D01*
X33782710Y-7478276D01*
X33808778Y-7478332D01*
X33842705Y-7477826D01*
X33875487Y-7476309D01*
X33907124Y-7473781D01*
X33937616Y-7470241D01*
X33966964Y-7465690D01*
X33995166Y-7460128D01*
X34022224Y-7453554D01*
X34048136Y-7445969D01*
X34072904Y-7437373D01*
X34096527Y-7427766D01*
X34119005Y-7417147D01*
X34140338Y-7405517D01*
X34160526Y-7392875D01*
X34179569Y-7379223D01*
X34197468Y-7364558D01*
X34214221Y-7348883D01*
X34229897Y-7332129D01*
X34244561Y-7314231D01*
X34258214Y-7295188D01*
X34270855Y-7275000D01*
X34282485Y-7253666D01*
X34293104Y-7231188D01*
X34302712Y-7207566D01*
X34311308Y-7182798D01*
X34318893Y-7156885D01*
X34325466Y-7129828D01*
X34331029Y-7101625D01*
X34335579Y-7072278D01*
X34339119Y-7041786D01*
X34341647Y-7010149D01*
X34343164Y-6977367D01*
X34343670Y-6943440D01*
X34343670Y-6043161D01*
X34343147Y-6006852D01*
X34341579Y-5971811D01*
X34338965Y-5938037D01*
X34335305Y-5905530D01*
X34330599Y-5874290D01*
X34324848Y-5844316D01*
X34318051Y-5815610D01*
X34310209Y-5788171D01*
X34301321Y-5761999D01*
X34291387Y-5737094D01*
X34280407Y-5713456D01*
X34268382Y-5691085D01*
X34255311Y-5669981D01*
X34241195Y-5650143D01*
X34226033Y-5631573D01*
X34209825Y-5614270D01*
X34192465Y-5598062D01*
X34173845Y-5582900D01*
X34153966Y-5568784D01*
X34132827Y-5555713D01*
X34110430Y-5543688D01*
X34086772Y-5532708D01*
X34061856Y-5522775D01*
X34035680Y-5513886D01*
X34008244Y-5506044D01*
X33979550Y-5499247D01*
X33949596Y-5493496D01*
X33918382Y-5488790D01*
X33885909Y-5485131D01*
X33852177Y-5482517D01*
X33817185Y-5480948D01*
X33780934Y-5480425D01*
X32767815Y-5480425D01*
X32767815Y-5874145D01*
X33668094Y-5874145D01*
X33688561Y-5874805D01*
X33716785Y-5878271D01*
X33742039Y-5884708D01*
X33764321Y-5894116D01*
X33783633Y-5906495D01*
X33799973Y-5921845D01*
X33813342Y-5940167D01*
X33823741Y-5961459D01*
X33831168Y-5985722D01*
X33835625Y-6012956D01*
X33836945Y-6032762D01*
X33837110Y-6043161D01*
X33837110Y-6943440D01*
X33836180Y-6963087D01*
X33832608Y-6984931D01*
X33826357Y-7004886D01*
X33817427Y-7022953D01*
X33805818Y-7039130D01*
X33799008Y-7046510D01*
X33783982Y-7059293D01*
X33764584Y-7070864D01*
X33746357Y-7077916D01*
X33726654Y-7082324D01*
X33705473Y-7084087D01*
X33701800Y-7084124D01*
X33679240Y-7084072D01*
X33655890Y-7083918D01*
X33635828Y-7083710D01*
X33615218Y-7083431D01*
X33594059Y-7083080D01*
X33572351Y-7082658D01*
X33550238Y-7082176D01*
X33527863Y-7081647D01*
X33505225Y-7081070D01*
X33482325Y-7080445D01*
X33459162Y-7079772D01*
X33435737Y-7079052D01*
X33426294Y-7078750D01*
X33402456Y-7077834D01*
X33378571Y-7076919D01*
X33354638Y-7076003D01*
X33330658Y-7075087D01*
X33306629Y-7074171D01*
X33282553Y-7073255D01*
X33272909Y-7072889D01*
X33252904Y-7072072D01*
X33231480Y-7071087D01*
X33208635Y-7069935D01*
X33184371Y-7068614D01*
X33158688Y-7067126D01*
X33138493Y-7065899D01*
X33117500Y-7064579D01*
X33095709Y-7063163D01*
X33073119Y-7061653D01*
X33049601Y-7060071D01*
X33025028Y-7058436D01*
X32999398Y-7056750D01*
X32972712Y-7055013D01*
X32944970Y-7053224D01*
X32916172Y-7051384D01*
X32896386Y-7050128D01*
X32876131Y-7048850D01*
X32855407Y-7047548D01*
X32834213Y-7046224D01*
X32812550Y-7044877D01*
X32790417Y-7043507D01*
X32767815Y-7042114D01*
X32767815Y-7421667D01*
G37*
G36*
X31285750Y-5480425D02*
G01*
X30779678Y-5480425D01*
X30779678Y-6915596D01*
X30780201Y-6951847D01*
X30781770Y-6986839D01*
X30784384Y-7020571D01*
X30788044Y-7053044D01*
X30792749Y-7084257D01*
X30798500Y-7114211D01*
X30805297Y-7142906D01*
X30813140Y-7170341D01*
X30822028Y-7196517D01*
X30831962Y-7221434D01*
X30842941Y-7245091D01*
X30854966Y-7267489D01*
X30868037Y-7288627D01*
X30882154Y-7308507D01*
X30897316Y-7327126D01*
X30913523Y-7344487D01*
X30930827Y-7360694D01*
X30949397Y-7375857D01*
X30969234Y-7389973D01*
X30990338Y-7403044D01*
X31012709Y-7415069D01*
X31036347Y-7426048D01*
X31061252Y-7435982D01*
X31087424Y-7444870D01*
X31114864Y-7452713D01*
X31143570Y-7459510D01*
X31173543Y-7465261D01*
X31204783Y-7469966D01*
X31237290Y-7473626D01*
X31271064Y-7476240D01*
X31306106Y-7477809D01*
X31342414Y-7478332D01*
X31989169Y-7478332D01*
X32025479Y-7477809D01*
X32060526Y-7476240D01*
X32094310Y-7473626D01*
X32126830Y-7469966D01*
X32158088Y-7465261D01*
X32188082Y-7459510D01*
X32216813Y-7452713D01*
X32244281Y-7444870D01*
X32270485Y-7435982D01*
X32295427Y-7426048D01*
X32319105Y-7415069D01*
X32341520Y-7403044D01*
X32362672Y-7389973D01*
X32382560Y-7375857D01*
X32401186Y-7360694D01*
X32418548Y-7344487D01*
X32434697Y-7327126D01*
X32449803Y-7308507D01*
X32463868Y-7288627D01*
X32476891Y-7267489D01*
X32488873Y-7245091D01*
X32499812Y-7221434D01*
X32509710Y-7196517D01*
X32518565Y-7170341D01*
X32526379Y-7142906D01*
X32533151Y-7114211D01*
X32538881Y-7084257D01*
X32543570Y-7053044D01*
X32547216Y-7020571D01*
X32549821Y-6986839D01*
X32551384Y-6951847D01*
X32551904Y-6915596D01*
X32551904Y-5480425D01*
X32045833Y-5480425D01*
X32045833Y-6915596D01*
X32045173Y-6936004D01*
X32041707Y-6964147D01*
X32035270Y-6989327D01*
X32025862Y-7011545D01*
X32013483Y-7030801D01*
X31998132Y-7047094D01*
X31979811Y-7060425D01*
X31958519Y-7070793D01*
X31934256Y-7078199D01*
X31907022Y-7082643D01*
X31887216Y-7083959D01*
X31876817Y-7084124D01*
X31454766Y-7084124D01*
X31434299Y-7083465D01*
X31406074Y-7080009D01*
X31380821Y-7073591D01*
X31358539Y-7064210D01*
X31339227Y-7051866D01*
X31322887Y-7036561D01*
X31309517Y-7018293D01*
X31299119Y-6997062D01*
X31291692Y-6972869D01*
X31287235Y-6945714D01*
X31285915Y-6925965D01*
X31285750Y-6915596D01*
X31285750Y-5480425D01*
G37*
G36*
X30537878Y-6662072D02*
G01*
X30537878Y-6268353D01*
X29384563Y-6268353D01*
X29384563Y-6662072D01*
X30537878Y-6662072D01*
G37*
G36*
X27577166Y-7450000D02*
G01*
X29138366Y-7450000D01*
X29138366Y-5480425D01*
X27577166Y-5480425D01*
X27577166Y-5874145D01*
X28632295Y-5874145D01*
X28632295Y-6254187D01*
X27801870Y-6254187D01*
X27801870Y-6647906D01*
X28632295Y-6647906D01*
X28632295Y-7056280D01*
X27577166Y-7056280D01*
X27577166Y-7450000D01*
G37*
G36*
X27419385Y-7042114D02*
G01*
X27371694Y-7044699D01*
X27324976Y-7047201D01*
X27279229Y-7049622D01*
X27234455Y-7051960D01*
X27190653Y-7054216D01*
X27147824Y-7056391D01*
X27105966Y-7058483D01*
X27065081Y-7060493D01*
X27025167Y-7062421D01*
X26986226Y-7064268D01*
X26948258Y-7066032D01*
X26911261Y-7067714D01*
X26875237Y-7069314D01*
X26840184Y-7070832D01*
X26806104Y-7072267D01*
X26772997Y-7073621D01*
X26740861Y-7074893D01*
X26709698Y-7076083D01*
X26679506Y-7077190D01*
X26650287Y-7078216D01*
X26622041Y-7079160D01*
X26594766Y-7080021D01*
X26568464Y-7080801D01*
X26543134Y-7081498D01*
X26518776Y-7082113D01*
X26495390Y-7082647D01*
X26472976Y-7083098D01*
X26451535Y-7083467D01*
X26431066Y-7083754D01*
X26393044Y-7084083D01*
X26375491Y-7084124D01*
X26352239Y-7082801D01*
X26330841Y-7078834D01*
X26311297Y-7072223D01*
X26293609Y-7062966D01*
X26277775Y-7051065D01*
X26272909Y-7046510D01*
X26259961Y-7031278D01*
X26249691Y-7014156D01*
X26242100Y-6995145D01*
X26237189Y-6974245D01*
X26234956Y-6951456D01*
X26234807Y-6943440D01*
X26234807Y-6690404D01*
X26882051Y-6690404D01*
X26918361Y-6689883D01*
X26953408Y-6688321D01*
X26987192Y-6685716D01*
X27019712Y-6682069D01*
X27050970Y-6677381D01*
X27080964Y-6671651D01*
X27109695Y-6664879D01*
X27137163Y-6657065D01*
X27163367Y-6648209D01*
X27188309Y-6638312D01*
X27211987Y-6627372D01*
X27234402Y-6615391D01*
X27255554Y-6602368D01*
X27275442Y-6588303D01*
X27294068Y-6573196D01*
X27311430Y-6557048D01*
X27327579Y-6539685D01*
X27342685Y-6521060D01*
X27356750Y-6501171D01*
X27369773Y-6480020D01*
X27381755Y-6457605D01*
X27392694Y-6433926D01*
X27402592Y-6408985D01*
X27411447Y-6382780D01*
X27419261Y-6355313D01*
X27426033Y-6326582D01*
X27431763Y-6296587D01*
X27436452Y-6265330D01*
X27440098Y-6232810D01*
X27442703Y-6199026D01*
X27444266Y-6163979D01*
X27444787Y-6127669D01*
X27444787Y-6043161D01*
X27444266Y-6006852D01*
X27442703Y-5971811D01*
X27440098Y-5938037D01*
X27436452Y-5905530D01*
X27431763Y-5874290D01*
X27426033Y-5844316D01*
X27419261Y-5815610D01*
X27411447Y-5788171D01*
X27402592Y-5761999D01*
X27392694Y-5737094D01*
X27381755Y-5713456D01*
X27369773Y-5691085D01*
X27356750Y-5669981D01*
X27342685Y-5650143D01*
X27327579Y-5631573D01*
X27311430Y-5614270D01*
X27294068Y-5598062D01*
X27275442Y-5582900D01*
X27255554Y-5568784D01*
X27234402Y-5555713D01*
X27211987Y-5543688D01*
X27188309Y-5532708D01*
X27163367Y-5522775D01*
X27137163Y-5513886D01*
X27109695Y-5506044D01*
X27080964Y-5499247D01*
X27050970Y-5493496D01*
X27019712Y-5488790D01*
X26987192Y-5485131D01*
X26953408Y-5482517D01*
X26918361Y-5480948D01*
X26882051Y-5480425D01*
X25894333Y-5480425D01*
X25894333Y-5874145D01*
X26769699Y-5874145D01*
X26790107Y-5874805D01*
X26818250Y-5878271D01*
X26843430Y-5884708D01*
X26865648Y-5894116D01*
X26884904Y-5906495D01*
X26901197Y-5921845D01*
X26914528Y-5940167D01*
X26924896Y-5961459D01*
X26932302Y-5985722D01*
X26936746Y-6012956D01*
X26938062Y-6032762D01*
X26938227Y-6043161D01*
X26938227Y-6099337D01*
X26937569Y-6119803D01*
X26934112Y-6148028D01*
X26927694Y-6173281D01*
X26918313Y-6195563D01*
X26905970Y-6214875D01*
X26890664Y-6231215D01*
X26872396Y-6244585D01*
X26851165Y-6254983D01*
X26826972Y-6262411D01*
X26799817Y-6266867D01*
X26780068Y-6268188D01*
X26769699Y-6268353D01*
X26263140Y-6268353D01*
X26229272Y-6268858D01*
X26196545Y-6270375D01*
X26164960Y-6272904D01*
X26134515Y-6276443D01*
X26105212Y-6280994D01*
X26077050Y-6286556D01*
X26050028Y-6293130D01*
X26024148Y-6300715D01*
X25999409Y-6309311D01*
X25975811Y-6318919D01*
X25953354Y-6329537D01*
X25932038Y-6341168D01*
X25911863Y-6353809D01*
X25892829Y-6367462D01*
X25874937Y-6382126D01*
X25858185Y-6397801D01*
X25842510Y-6414553D01*
X25827845Y-6432446D01*
X25814193Y-6451479D01*
X25801551Y-6471654D01*
X25789921Y-6492970D01*
X25779302Y-6515427D01*
X25769695Y-6539025D01*
X25761098Y-6563764D01*
X25753514Y-6589645D01*
X25746940Y-6616666D01*
X25741378Y-6644828D01*
X25736827Y-6674132D01*
X25733287Y-6704576D01*
X25730759Y-6736162D01*
X25729242Y-6768888D01*
X25728736Y-6802756D01*
X25728736Y-6943440D01*
X25729242Y-6977367D01*
X25730759Y-7010149D01*
X25733287Y-7041786D01*
X25736827Y-7072278D01*
X25741378Y-7101625D01*
X25746940Y-7129828D01*
X25753514Y-7156885D01*
X25761098Y-7182798D01*
X25769695Y-7207566D01*
X25779302Y-7231188D01*
X25789921Y-7253666D01*
X25801551Y-7275000D01*
X25814193Y-7295188D01*
X25827845Y-7314231D01*
X25842510Y-7332129D01*
X25858185Y-7348883D01*
X25874937Y-7364558D01*
X25892829Y-7379223D01*
X25911863Y-7392875D01*
X25932038Y-7405517D01*
X25953354Y-7417147D01*
X25975811Y-7427766D01*
X25999409Y-7437373D01*
X26024148Y-7445969D01*
X26050028Y-7453554D01*
X26077050Y-7460128D01*
X26105212Y-7465690D01*
X26134515Y-7470241D01*
X26164960Y-7473781D01*
X26196545Y-7476309D01*
X26229272Y-7477826D01*
X26263140Y-7478332D01*
X26290213Y-7478280D01*
X26317579Y-7478126D01*
X26345237Y-7477868D01*
X26373186Y-7477507D01*
X26401428Y-7477044D01*
X26429961Y-7476477D01*
X26458787Y-7475807D01*
X26487904Y-7475034D01*
X26507478Y-7474462D01*
X26527181Y-7473844D01*
X26547015Y-7473180D01*
X26566978Y-7472470D01*
X26825875Y-7461235D01*
X26861853Y-7459420D01*
X26897980Y-7457518D01*
X26934256Y-7455527D01*
X26970681Y-7453449D01*
X27007254Y-7451284D01*
X27043976Y-7449030D01*
X27080848Y-7446689D01*
X27117867Y-7444260D01*
X27155036Y-7441743D01*
X27192354Y-7439138D01*
X27229820Y-7436446D01*
X27267436Y-7433666D01*
X27305200Y-7430798D01*
X27343113Y-7427842D01*
X27381175Y-7424799D01*
X27419385Y-7421667D01*
X27419385Y-7042114D01*
G37*
G36*
X25484493Y-7450000D02*
G01*
X24978422Y-7450000D01*
X24978422Y-6887264D01*
X24302847Y-6887264D01*
X24266538Y-6886743D01*
X24231497Y-6885180D01*
X24197723Y-6882576D01*
X24165216Y-6878929D01*
X24133976Y-6874241D01*
X24104002Y-6868511D01*
X24075296Y-6861739D01*
X24047857Y-6853925D01*
X24021685Y-6845069D01*
X23996780Y-6835172D01*
X23973142Y-6824232D01*
X23950770Y-6812251D01*
X23929666Y-6799228D01*
X23909829Y-6785163D01*
X23891259Y-6770056D01*
X23873956Y-6753907D01*
X23857748Y-6736545D01*
X23842586Y-6717920D01*
X23828470Y-6698031D01*
X23815399Y-6676879D01*
X23803374Y-6654464D01*
X23792394Y-6630786D01*
X23782460Y-6605845D01*
X23773572Y-6579640D01*
X23765730Y-6552172D01*
X23758933Y-6523441D01*
X23753182Y-6493447D01*
X23748476Y-6462190D01*
X23744817Y-6429669D01*
X23742202Y-6395886D01*
X23740634Y-6360839D01*
X23740111Y-6324528D01*
X24246671Y-6324528D01*
X24246836Y-6334927D01*
X24248156Y-6354733D01*
X24252613Y-6381968D01*
X24260040Y-6406231D01*
X24270439Y-6427523D01*
X24283808Y-6445844D01*
X24300148Y-6461194D01*
X24319460Y-6473573D01*
X24341742Y-6482981D01*
X24366996Y-6489418D01*
X24395220Y-6492884D01*
X24415687Y-6493545D01*
X24978422Y-6493545D01*
X24978422Y-5874145D01*
X24415687Y-5874145D01*
X24405288Y-5874310D01*
X24385482Y-5875630D01*
X24358248Y-5880087D01*
X24333985Y-5887514D01*
X24312693Y-5897913D01*
X24294372Y-5911282D01*
X24279021Y-5927622D01*
X24266642Y-5946934D01*
X24257234Y-5969216D01*
X24250797Y-5994470D01*
X24247331Y-6022694D01*
X24246671Y-6043161D01*
X24246671Y-6324528D01*
X23740111Y-6324528D01*
X23740111Y-6043161D01*
X23740634Y-6006852D01*
X23742202Y-5971811D01*
X23744817Y-5938037D01*
X23748476Y-5905530D01*
X23753182Y-5874290D01*
X23758933Y-5844316D01*
X23765730Y-5815610D01*
X23773572Y-5788171D01*
X23782460Y-5761999D01*
X23792394Y-5737094D01*
X23803374Y-5713456D01*
X23815399Y-5691085D01*
X23828470Y-5669981D01*
X23842586Y-5650143D01*
X23857748Y-5631573D01*
X23873956Y-5614270D01*
X23891259Y-5598062D01*
X23909829Y-5582900D01*
X23929666Y-5568784D01*
X23950770Y-5555713D01*
X23973142Y-5543688D01*
X23996780Y-5532708D01*
X24021685Y-5522775D01*
X24047857Y-5513886D01*
X24075296Y-5506044D01*
X24104002Y-5499247D01*
X24133976Y-5493496D01*
X24165216Y-5488790D01*
X24197723Y-5485131D01*
X24231497Y-5482517D01*
X24266538Y-5480948D01*
X24302847Y-5480425D01*
X25484493Y-5480425D01*
X25484493Y-7450000D01*
G37*
G36*
X22569211Y-7478332D02*
G01*
X22598680Y-7478276D01*
X22628346Y-7478110D01*
X22658210Y-7477834D01*
X22688272Y-7477446D01*
X22718531Y-7476948D01*
X22748987Y-7476340D01*
X22779641Y-7475620D01*
X22810492Y-7474790D01*
X22841541Y-7473849D01*
X22872788Y-7472798D01*
X22904231Y-7471636D01*
X22935873Y-7470363D01*
X22967712Y-7468980D01*
X22999748Y-7467486D01*
X23031982Y-7465881D01*
X23064413Y-7464166D01*
X23097042Y-7462339D01*
X23129868Y-7460403D01*
X23162892Y-7458355D01*
X23196114Y-7456197D01*
X23229532Y-7453928D01*
X23263149Y-7451549D01*
X23296962Y-7449059D01*
X23330974Y-7446458D01*
X23365183Y-7443747D01*
X23399589Y-7440924D01*
X23434193Y-7437992D01*
X23468994Y-7434948D01*
X23503993Y-7431794D01*
X23539189Y-7428529D01*
X23574583Y-7425154D01*
X23610174Y-7421667D01*
X23610174Y-7042114D01*
X23571616Y-7044699D01*
X23533674Y-7047201D01*
X23496348Y-7049622D01*
X23459636Y-7051960D01*
X23423540Y-7054216D01*
X23388060Y-7056391D01*
X23353195Y-7058483D01*
X23318945Y-7060493D01*
X23285310Y-7062421D01*
X23252291Y-7064268D01*
X23219888Y-7066032D01*
X23188099Y-7067714D01*
X23156926Y-7069314D01*
X23126369Y-7070832D01*
X23096427Y-7072267D01*
X23067100Y-7073621D01*
X23038388Y-7074893D01*
X23010292Y-7076083D01*
X22982812Y-7077190D01*
X22955946Y-7078216D01*
X22929697Y-7079160D01*
X22904062Y-7080021D01*
X22879043Y-7080801D01*
X22854639Y-7081498D01*
X22830851Y-7082113D01*
X22807678Y-7082647D01*
X22785120Y-7083098D01*
X22763178Y-7083467D01*
X22741851Y-7083754D01*
X22721139Y-7083960D01*
X22701043Y-7084083D01*
X22681563Y-7084124D01*
X22658310Y-7082801D01*
X22636912Y-7078834D01*
X22617369Y-7072223D01*
X22599680Y-7062966D01*
X22583846Y-7051065D01*
X22578981Y-7046510D01*
X22566032Y-7031278D01*
X22555762Y-7014156D01*
X22548172Y-6995145D01*
X22543260Y-6974245D01*
X22541027Y-6951456D01*
X22540879Y-6943440D01*
X22540879Y-6831088D01*
X22541539Y-6810621D01*
X22545005Y-6782397D01*
X22551442Y-6757144D01*
X22560850Y-6734861D01*
X22573229Y-6715550D01*
X22588579Y-6699209D01*
X22606901Y-6685840D01*
X22628193Y-6675442D01*
X22652456Y-6668014D01*
X22679690Y-6663558D01*
X22699496Y-6662237D01*
X22709895Y-6662072D01*
X23300474Y-6662072D01*
X23300474Y-6268353D01*
X22766071Y-6268353D01*
X22745604Y-6267692D01*
X22717379Y-6264226D01*
X22692126Y-6257789D01*
X22669844Y-6248381D01*
X22650532Y-6236002D01*
X22634192Y-6220652D01*
X22620822Y-6202331D01*
X22610424Y-6181039D01*
X22602996Y-6156776D01*
X22598540Y-6129542D01*
X22597220Y-6109735D01*
X22597055Y-6099337D01*
X22597055Y-6043161D01*
X22597715Y-6022694D01*
X22601181Y-5994470D01*
X22607618Y-5969216D01*
X22617026Y-5946934D01*
X22629405Y-5927622D01*
X22644755Y-5911282D01*
X22663076Y-5897913D01*
X22684368Y-5887514D01*
X22708632Y-5880087D01*
X22735866Y-5875630D01*
X22755672Y-5874310D01*
X22766071Y-5874145D01*
X23581842Y-5874145D01*
X23581842Y-5480425D01*
X22625387Y-5480425D01*
X22591460Y-5480916D01*
X22558678Y-5482387D01*
X22527041Y-5484839D01*
X22496549Y-5488271D01*
X22467201Y-5492685D01*
X22438999Y-5498079D01*
X22411941Y-5504454D01*
X22386029Y-5511810D01*
X22361261Y-5520147D01*
X22337638Y-5529465D01*
X22315160Y-5539763D01*
X22293827Y-5551042D01*
X22273639Y-5563302D01*
X22254596Y-5576542D01*
X22236697Y-5590764D01*
X22219944Y-5605966D01*
X22204268Y-5622109D01*
X22189604Y-5639275D01*
X22175951Y-5657463D01*
X22163310Y-5676674D01*
X22151680Y-5696908D01*
X22141061Y-5718165D01*
X22131453Y-5740445D01*
X22122857Y-5763747D01*
X22115272Y-5788072D01*
X22108699Y-5813420D01*
X22103136Y-5839790D01*
X22098585Y-5867184D01*
X22095046Y-5895600D01*
X22092517Y-5925039D01*
X22091001Y-5955500D01*
X22090495Y-5986985D01*
X22090798Y-6007805D01*
X22091708Y-6028132D01*
X22093225Y-6047967D01*
X22096639Y-6076797D01*
X22101417Y-6104519D01*
X22107561Y-6131133D01*
X22115070Y-6156640D01*
X22123944Y-6181039D01*
X22134184Y-6204330D01*
X22145789Y-6226514D01*
X22158759Y-6247590D01*
X22168164Y-6261025D01*
X22183069Y-6280255D01*
X22198841Y-6298377D01*
X22215481Y-6315392D01*
X22232988Y-6331299D01*
X22251362Y-6346098D01*
X22270603Y-6359789D01*
X22290711Y-6372373D01*
X22311687Y-6383849D01*
X22333530Y-6394217D01*
X22356241Y-6403478D01*
X22371863Y-6409036D01*
X22343979Y-6417493D01*
X22317236Y-6427355D01*
X22291635Y-6438620D01*
X22267174Y-6451290D01*
X22243855Y-6465365D01*
X22221676Y-6480844D01*
X22200639Y-6497727D01*
X22180743Y-6516015D01*
X22161987Y-6535707D01*
X22144373Y-6556803D01*
X22127900Y-6579304D01*
X22112568Y-6603210D01*
X22098377Y-6628519D01*
X22085328Y-6655233D01*
X22073419Y-6683352D01*
X22062651Y-6712875D01*
X22056011Y-6735063D01*
X22050256Y-6758151D01*
X22045386Y-6782140D01*
X22041402Y-6807030D01*
X22038303Y-6832821D01*
X22036560Y-6852755D01*
X22035315Y-6873195D01*
X22034568Y-6894142D01*
X22034319Y-6915596D01*
X22034319Y-6943440D01*
X22034825Y-6977367D01*
X22036342Y-7010149D01*
X22038870Y-7041786D01*
X22042410Y-7072278D01*
X22046960Y-7101625D01*
X22052523Y-7129828D01*
X22059096Y-7156885D01*
X22066681Y-7182798D01*
X22075277Y-7207566D01*
X22084885Y-7231188D01*
X22095504Y-7253666D01*
X22107134Y-7275000D01*
X22119775Y-7295188D01*
X22133428Y-7314231D01*
X22148092Y-7332129D01*
X22163768Y-7348883D01*
X22180521Y-7364558D01*
X22198420Y-7379223D01*
X22217463Y-7392875D01*
X22237651Y-7405517D01*
X22258984Y-7417147D01*
X22281462Y-7427766D01*
X22305085Y-7437373D01*
X22329853Y-7445969D01*
X22355765Y-7453554D01*
X22382823Y-7460128D01*
X22411025Y-7465690D01*
X22440373Y-7470241D01*
X22470865Y-7473781D01*
X22502502Y-7476309D01*
X22535284Y-7477826D01*
X22569211Y-7478332D01*
G37*
G36*
X20382749Y-6099337D02*
G01*
X20383541Y-6129003D01*
X20385916Y-6158161D01*
X20389876Y-6186812D01*
X20395419Y-6214955D01*
X20402546Y-6242591D01*
X20411257Y-6269719D01*
X20421551Y-6296339D01*
X20433429Y-6322452D01*
X20446891Y-6348058D01*
X20461937Y-6373156D01*
X20478566Y-6397746D01*
X20496780Y-6421829D01*
X20516577Y-6445404D01*
X20537958Y-6468471D01*
X20560922Y-6491031D01*
X20585470Y-6513084D01*
X20601155Y-6526403D01*
X20617191Y-6539737D01*
X20633579Y-6553086D01*
X20650317Y-6566451D01*
X20667406Y-6579831D01*
X20684847Y-6593226D01*
X20702638Y-6606637D01*
X20720781Y-6620062D01*
X21325526Y-7056280D01*
X20382749Y-7056280D01*
X20382749Y-7450000D01*
X21902428Y-7450000D01*
X21902428Y-6915596D01*
X20889309Y-6183845D01*
X20889309Y-6043161D01*
X20889969Y-6022694D01*
X20893435Y-5994470D01*
X20899872Y-5969216D01*
X20909280Y-5946934D01*
X20921659Y-5927622D01*
X20937009Y-5911282D01*
X20955330Y-5897913D01*
X20976622Y-5887514D01*
X21000886Y-5880087D01*
X21028120Y-5875630D01*
X21047926Y-5874310D01*
X21058325Y-5874145D01*
X21846252Y-5874145D01*
X21846252Y-5480425D01*
X20945484Y-5480425D01*
X20909233Y-5480948D01*
X20874242Y-5482517D01*
X20840510Y-5485131D01*
X20808037Y-5488790D01*
X20776823Y-5493496D01*
X20746869Y-5499247D01*
X20718174Y-5506044D01*
X20690739Y-5513886D01*
X20664563Y-5522775D01*
X20639647Y-5532708D01*
X20615989Y-5543688D01*
X20593592Y-5555713D01*
X20572453Y-5568784D01*
X20552574Y-5582900D01*
X20533954Y-5598062D01*
X20516594Y-5614270D01*
X20500386Y-5631573D01*
X20485224Y-5650143D01*
X20471108Y-5669981D01*
X20458037Y-5691085D01*
X20446012Y-5713456D01*
X20435032Y-5737094D01*
X20425098Y-5761999D01*
X20416210Y-5788171D01*
X20408368Y-5815610D01*
X20401571Y-5844316D01*
X20395820Y-5874290D01*
X20391114Y-5905530D01*
X20387454Y-5938037D01*
X20384840Y-5971811D01*
X20383272Y-6006852D01*
X20382749Y-6043161D01*
X20382749Y-6099337D01*
G37*
G36*
X20197613Y-7042114D02*
G01*
X20149922Y-7044699D01*
X20103203Y-7047201D01*
X20057457Y-7049622D01*
X20012683Y-7051960D01*
X19968881Y-7054216D01*
X19926051Y-7056391D01*
X19884193Y-7058483D01*
X19843308Y-7060493D01*
X19803395Y-7062421D01*
X19764454Y-7064268D01*
X19726485Y-7066032D01*
X19689488Y-7067714D01*
X19653464Y-7069314D01*
X19618412Y-7070832D01*
X19584332Y-7072267D01*
X19551224Y-7073621D01*
X19519089Y-7074893D01*
X19487925Y-7076083D01*
X19457734Y-7077190D01*
X19428515Y-7078216D01*
X19400268Y-7079160D01*
X19372994Y-7080021D01*
X19346691Y-7080801D01*
X19321361Y-7081498D01*
X19297003Y-7082113D01*
X19273617Y-7082647D01*
X19251204Y-7083098D01*
X19229762Y-7083467D01*
X19209293Y-7083754D01*
X19171271Y-7084083D01*
X19153719Y-7084124D01*
X19130466Y-7082801D01*
X19109068Y-7078834D01*
X19089525Y-7072223D01*
X19071836Y-7062966D01*
X19056003Y-7051065D01*
X19051137Y-7046510D01*
X19038188Y-7031278D01*
X19027919Y-7014156D01*
X19020328Y-6995145D01*
X19015416Y-6974245D01*
X19013184Y-6951456D01*
X19013035Y-6943440D01*
X19013035Y-6690404D01*
X19660279Y-6690404D01*
X19696589Y-6689883D01*
X19731636Y-6688321D01*
X19765419Y-6685716D01*
X19797940Y-6682069D01*
X19829197Y-6677381D01*
X19859191Y-6671651D01*
X19887922Y-6664879D01*
X19915390Y-6657065D01*
X19941595Y-6648209D01*
X19966536Y-6638312D01*
X19990214Y-6627372D01*
X20012629Y-6615391D01*
X20033781Y-6602368D01*
X20053670Y-6588303D01*
X20072295Y-6573196D01*
X20089657Y-6557048D01*
X20105806Y-6539685D01*
X20120913Y-6521060D01*
X20134978Y-6501171D01*
X20148001Y-6480020D01*
X20159982Y-6457605D01*
X20170922Y-6433926D01*
X20180819Y-6408985D01*
X20189675Y-6382780D01*
X20197489Y-6355313D01*
X20204261Y-6326582D01*
X20209991Y-6296587D01*
X20214679Y-6265330D01*
X20218326Y-6232810D01*
X20220930Y-6199026D01*
X20222493Y-6163979D01*
X20223014Y-6127669D01*
X20223014Y-6043161D01*
X20222493Y-6006852D01*
X20220930Y-5971811D01*
X20218326Y-5938037D01*
X20214679Y-5905530D01*
X20209991Y-5874290D01*
X20204261Y-5844316D01*
X20197489Y-5815610D01*
X20189675Y-5788171D01*
X20180819Y-5761999D01*
X20170922Y-5737094D01*
X20159982Y-5713456D01*
X20148001Y-5691085D01*
X20134978Y-5669981D01*
X20120913Y-5650143D01*
X20105806Y-5631573D01*
X20089657Y-5614270D01*
X20072295Y-5598062D01*
X20053670Y-5582900D01*
X20033781Y-5568784D01*
X20012629Y-5555713D01*
X19990214Y-5543688D01*
X19966536Y-5532708D01*
X19941595Y-5522775D01*
X19915390Y-5513886D01*
X19887922Y-5506044D01*
X19859191Y-5499247D01*
X19829197Y-5493496D01*
X19797940Y-5488790D01*
X19765419Y-5485131D01*
X19731636Y-5482517D01*
X19696589Y-5480948D01*
X19660279Y-5480425D01*
X18672560Y-5480425D01*
X18672560Y-5874145D01*
X19547927Y-5874145D01*
X19568334Y-5874805D01*
X19596477Y-5878271D01*
X19621658Y-5884708D01*
X19643876Y-5894116D01*
X19663131Y-5906495D01*
X19679424Y-5921845D01*
X19692755Y-5940167D01*
X19703124Y-5961459D01*
X19710530Y-5985722D01*
X19714973Y-6012956D01*
X19716290Y-6032762D01*
X19716454Y-6043161D01*
X19716454Y-6099337D01*
X19715796Y-6119803D01*
X19712340Y-6148028D01*
X19705921Y-6173281D01*
X19696540Y-6195563D01*
X19684197Y-6214875D01*
X19668891Y-6231215D01*
X19650623Y-6244585D01*
X19629393Y-6254983D01*
X19605200Y-6262411D01*
X19578045Y-6266867D01*
X19558295Y-6268188D01*
X19547927Y-6268353D01*
X19041367Y-6268353D01*
X19007499Y-6268858D01*
X18974773Y-6270375D01*
X18943187Y-6272904D01*
X18912743Y-6276443D01*
X18883439Y-6280994D01*
X18855277Y-6286556D01*
X18828256Y-6293130D01*
X18802376Y-6300715D01*
X18777636Y-6309311D01*
X18754038Y-6318919D01*
X18731581Y-6329537D01*
X18710265Y-6341168D01*
X18690091Y-6353809D01*
X18671057Y-6367462D01*
X18653164Y-6382126D01*
X18636413Y-6397801D01*
X18620737Y-6414553D01*
X18606073Y-6432446D01*
X18592420Y-6451479D01*
X18579779Y-6471654D01*
X18568149Y-6492970D01*
X18557530Y-6515427D01*
X18547922Y-6539025D01*
X18539326Y-6563764D01*
X18531741Y-6589645D01*
X18525168Y-6616666D01*
X18519605Y-6644828D01*
X18515054Y-6674132D01*
X18511515Y-6704576D01*
X18508986Y-6736162D01*
X18507469Y-6768888D01*
X18506964Y-6802756D01*
X18506964Y-6943440D01*
X18507469Y-6977367D01*
X18508986Y-7010149D01*
X18511515Y-7041786D01*
X18515054Y-7072278D01*
X18519605Y-7101625D01*
X18525168Y-7129828D01*
X18531741Y-7156885D01*
X18539326Y-7182798D01*
X18547922Y-7207566D01*
X18557530Y-7231188D01*
X18568149Y-7253666D01*
X18579779Y-7275000D01*
X18592420Y-7295188D01*
X18606073Y-7314231D01*
X18620737Y-7332129D01*
X18636413Y-7348883D01*
X18653164Y-7364558D01*
X18671057Y-7379223D01*
X18690091Y-7392875D01*
X18710265Y-7405517D01*
X18731581Y-7417147D01*
X18754038Y-7427766D01*
X18777636Y-7437373D01*
X18802376Y-7445969D01*
X18828256Y-7453554D01*
X18855277Y-7460128D01*
X18883439Y-7465690D01*
X18912743Y-7470241D01*
X18943187Y-7473781D01*
X18974773Y-7476309D01*
X19007499Y-7477826D01*
X19041367Y-7478332D01*
X19068441Y-7478280D01*
X19095807Y-7478126D01*
X19123464Y-7477868D01*
X19151414Y-7477507D01*
X19179655Y-7477044D01*
X19208189Y-7476477D01*
X19237014Y-7475807D01*
X19266132Y-7475034D01*
X19285705Y-7474462D01*
X19305409Y-7473844D01*
X19325242Y-7473180D01*
X19345205Y-7472470D01*
X19604103Y-7461235D01*
X19640081Y-7459420D01*
X19676208Y-7457518D01*
X19712484Y-7455527D01*
X19748908Y-7453449D01*
X19785482Y-7451284D01*
X19822204Y-7449030D01*
X19859075Y-7446689D01*
X19896095Y-7444260D01*
X19933264Y-7441743D01*
X19970581Y-7439138D01*
X20008048Y-7436446D01*
X20045663Y-7433666D01*
X20083427Y-7430798D01*
X20121340Y-7427842D01*
X20159402Y-7424799D01*
X20197613Y-7421667D01*
X20197613Y-7042114D01*
G37*
G36*
X17334598Y-7478332D02*
G01*
X17364067Y-7478276D01*
X17393734Y-7478110D01*
X17423597Y-7477834D01*
X17453659Y-7477446D01*
X17483918Y-7476948D01*
X17514374Y-7476340D01*
X17545028Y-7475620D01*
X17575880Y-7474790D01*
X17606928Y-7473849D01*
X17638175Y-7472798D01*
X17669619Y-7471636D01*
X17701260Y-7470363D01*
X17733099Y-7468980D01*
X17765135Y-7467486D01*
X17797369Y-7465881D01*
X17829801Y-7464166D01*
X17862429Y-7462339D01*
X17895256Y-7460403D01*
X17928280Y-7458355D01*
X17961501Y-7456197D01*
X17994920Y-7453928D01*
X18028536Y-7451549D01*
X18062350Y-7449059D01*
X18096361Y-7446458D01*
X18130570Y-7443747D01*
X18164976Y-7440924D01*
X18199580Y-7437992D01*
X18234381Y-7434948D01*
X18269380Y-7431794D01*
X18304576Y-7428529D01*
X18339970Y-7425154D01*
X18375561Y-7421667D01*
X18375561Y-7042114D01*
X18337004Y-7044699D01*
X18299062Y-7047201D01*
X18261735Y-7049622D01*
X18225024Y-7051960D01*
X18188928Y-7054216D01*
X18153447Y-7056391D01*
X18118582Y-7058483D01*
X18084332Y-7060493D01*
X18050698Y-7062421D01*
X18017679Y-7064268D01*
X17985275Y-7066032D01*
X17953487Y-7067714D01*
X17922314Y-7069314D01*
X17891756Y-7070832D01*
X17861814Y-7072267D01*
X17832487Y-7073621D01*
X17803776Y-7074893D01*
X17775680Y-7076083D01*
X17748199Y-7077190D01*
X17721334Y-7078216D01*
X17695084Y-7079160D01*
X17669449Y-7080021D01*
X17644430Y-7080801D01*
X17620026Y-7081498D01*
X17596238Y-7082113D01*
X17573065Y-7082647D01*
X17550507Y-7083098D01*
X17528565Y-7083467D01*
X17507238Y-7083754D01*
X17486527Y-7083960D01*
X17466431Y-7084083D01*
X17446950Y-7084124D01*
X17423697Y-7082801D01*
X17402299Y-7078834D01*
X17382756Y-7072223D01*
X17365067Y-7062966D01*
X17349234Y-7051065D01*
X17344368Y-7046510D01*
X17331419Y-7031278D01*
X17321150Y-7014156D01*
X17313559Y-6995145D01*
X17308647Y-6974245D01*
X17306415Y-6951456D01*
X17306266Y-6943440D01*
X17306266Y-6831088D01*
X17306926Y-6810621D01*
X17310392Y-6782397D01*
X17316829Y-6757144D01*
X17326238Y-6734861D01*
X17338617Y-6715550D01*
X17353967Y-6699209D01*
X17372288Y-6685840D01*
X17393580Y-6675442D01*
X17417843Y-6668014D01*
X17445077Y-6663558D01*
X17464884Y-6662237D01*
X17475282Y-6662072D01*
X18065861Y-6662072D01*
X18065861Y-6268353D01*
X17531458Y-6268353D01*
X17510991Y-6267692D01*
X17482767Y-6264226D01*
X17457513Y-6257789D01*
X17435231Y-6248381D01*
X17415920Y-6236002D01*
X17399579Y-6220652D01*
X17386210Y-6202331D01*
X17375811Y-6181039D01*
X17368384Y-6156776D01*
X17363927Y-6129542D01*
X17362607Y-6109735D01*
X17362442Y-6099337D01*
X17362442Y-6043161D01*
X17363102Y-6022694D01*
X17366568Y-5994470D01*
X17373005Y-5969216D01*
X17382413Y-5946934D01*
X17394793Y-5927622D01*
X17410143Y-5911282D01*
X17428464Y-5897913D01*
X17449756Y-5887514D01*
X17474019Y-5880087D01*
X17501253Y-5875630D01*
X17521059Y-5874310D01*
X17531458Y-5874145D01*
X18347229Y-5874145D01*
X18347229Y-5480425D01*
X17390774Y-5480425D01*
X17356847Y-5480916D01*
X17324065Y-5482387D01*
X17292428Y-5484839D01*
X17261936Y-5488271D01*
X17232589Y-5492685D01*
X17204386Y-5498079D01*
X17177329Y-5504454D01*
X17151416Y-5511810D01*
X17126648Y-5520147D01*
X17103025Y-5529465D01*
X17080547Y-5539763D01*
X17059214Y-5551042D01*
X17039026Y-5563302D01*
X17019983Y-5576542D01*
X17002084Y-5590764D01*
X16985331Y-5605966D01*
X16969655Y-5622109D01*
X16954991Y-5639275D01*
X16941339Y-5657463D01*
X16928697Y-5676674D01*
X16917067Y-5696908D01*
X16906448Y-5718165D01*
X16896841Y-5740445D01*
X16888244Y-5763747D01*
X16880659Y-5788072D01*
X16874086Y-5813420D01*
X16868524Y-5839790D01*
X16863973Y-5867184D01*
X16860433Y-5895600D01*
X16857905Y-5925039D01*
X16856388Y-5955500D01*
X16855882Y-5986985D01*
X16856186Y-6007805D01*
X16857096Y-6028132D01*
X16858613Y-6047967D01*
X16862026Y-6076797D01*
X16866804Y-6104519D01*
X16872948Y-6131133D01*
X16880457Y-6156640D01*
X16889331Y-6181039D01*
X16899571Y-6204330D01*
X16911176Y-6226514D01*
X16924146Y-6247590D01*
X16933551Y-6261025D01*
X16948456Y-6280255D01*
X16964229Y-6298377D01*
X16980868Y-6315392D01*
X16998375Y-6331299D01*
X17016749Y-6346098D01*
X17035990Y-6359789D01*
X17056099Y-6372373D01*
X17077075Y-6383849D01*
X17098918Y-6394217D01*
X17121628Y-6403478D01*
X17137250Y-6409036D01*
X17109366Y-6417493D01*
X17082623Y-6427355D01*
X17057022Y-6438620D01*
X17032561Y-6451290D01*
X17009242Y-6465365D01*
X16987063Y-6480844D01*
X16966026Y-6497727D01*
X16946130Y-6516015D01*
X16927375Y-6535707D01*
X16909761Y-6556803D01*
X16893288Y-6579304D01*
X16877956Y-6603210D01*
X16863765Y-6628519D01*
X16850715Y-6655233D01*
X16838806Y-6683352D01*
X16828038Y-6712875D01*
X16821398Y-6735063D01*
X16815643Y-6758151D01*
X16810774Y-6782140D01*
X16806789Y-6807030D01*
X16803691Y-6832821D01*
X16801947Y-6852755D01*
X16800702Y-6873195D01*
X16799955Y-6894142D01*
X16799706Y-6915596D01*
X16799706Y-6943440D01*
X16800212Y-6977367D01*
X16801729Y-7010149D01*
X16804257Y-7041786D01*
X16807797Y-7072278D01*
X16812348Y-7101625D01*
X16817910Y-7129828D01*
X16824484Y-7156885D01*
X16832068Y-7182798D01*
X16840665Y-7207566D01*
X16850272Y-7231188D01*
X16860891Y-7253666D01*
X16872521Y-7275000D01*
X16885163Y-7295188D01*
X16898815Y-7314231D01*
X16913480Y-7332129D01*
X16929155Y-7348883D01*
X16945909Y-7364558D01*
X16963807Y-7379223D01*
X16982850Y-7392875D01*
X17003038Y-7405517D01*
X17024372Y-7417147D01*
X17046850Y-7427766D01*
X17070472Y-7437373D01*
X17095240Y-7445969D01*
X17121153Y-7453554D01*
X17148210Y-7460128D01*
X17176413Y-7465690D01*
X17205760Y-7470241D01*
X17236252Y-7473781D01*
X17267889Y-7476309D01*
X17300671Y-7477826D01*
X17334598Y-7478332D01*
G37*
D12*
%TO.C,HOLE\u002A\u002A*%
X86449210Y-15945663D02*
G75*
G03*
X84649210Y-15945663I-900000J0D01*
G01*
X84649210Y-15945663D02*
G75*
G03*
X86449210Y-15945663I900000J0D01*
G01*
X15330000Y-15945663D02*
G75*
G03*
X13530000Y-15945663I-900000J0D01*
G01*
X13530000Y-15945663D02*
G75*
G03*
X15330000Y-15945663I900000J0D01*
G01*
X15330000Y1664337D02*
G75*
G03*
X13530000Y1664337I-900000J0D01*
G01*
X13530000Y1664337D02*
G75*
G03*
X15330000Y1664337I900000J0D01*
G01*
X86449210Y1664337D02*
G75*
G03*
X84649210Y1664337I-900000J0D01*
G01*
X84649210Y1664337D02*
G75*
G03*
X86449210Y1664337I900000J0D01*
G01*
D13*
%TO.C,J2*%
X15741265Y360000D02*
X15741265Y3020000D01*
X81841265Y360000D02*
X15741265Y360000D01*
X81841265Y360000D02*
X81841265Y3020000D01*
X83111265Y360000D02*
X84441265Y360000D01*
X84441265Y360000D02*
X84441265Y1690000D01*
X81841265Y3020000D02*
X15741265Y3020000D01*
%TO.C,J4*%
X15741265Y-17275663D02*
X15741265Y-14615663D01*
X81841265Y-17275663D02*
X15741265Y-17275663D01*
X81841265Y-17275663D02*
X81841265Y-14615663D01*
X83111265Y-17275663D02*
X84441265Y-17275663D01*
X84441265Y-17275663D02*
X84441265Y-15945663D01*
X81841265Y-14615663D02*
X15741265Y-14615663D01*
%TD*%
%LPC*%
D14*
%TO.C,HOLE\u002A\u002A*%
X85549210Y-15945663D03*
%TD*%
%TO.C,HOLE\u002A\u002A*%
X14430000Y-15945663D03*
%TD*%
D15*
%TO.C,J3*%
X4189210Y1664337D03*
D16*
X6729210Y1664337D03*
X9269210Y1664337D03*
X11809210Y1664337D03*
%TD*%
D17*
%TO.C,USB1*%
X5708210Y-4242831D03*
X5708210Y-10022831D03*
D18*
X6208210Y-2807831D03*
X6208210Y-11457831D03*
D19*
X2008210Y-2807831D03*
X2008210Y-11457831D03*
%TD*%
D14*
%TO.C,HOLE\u002A\u002A*%
X14430000Y1664337D03*
%TD*%
D15*
%TO.C,J1*%
X6739210Y-15945663D03*
D16*
X9279210Y-15945663D03*
X11819210Y-15945663D03*
%TD*%
D14*
%TO.C,HOLE\u002A\u002A*%
X85549210Y1664337D03*
%TD*%
D15*
%TO.C,J2*%
X83111265Y1690000D03*
D16*
X80571265Y1690000D03*
X78031265Y1690000D03*
X75491265Y1690000D03*
X72951265Y1690000D03*
X70411265Y1690000D03*
X67871265Y1690000D03*
X65331265Y1690000D03*
X62791265Y1690000D03*
X60251265Y1690000D03*
X57711265Y1690000D03*
X55171265Y1690000D03*
X52631265Y1690000D03*
X50091265Y1690000D03*
X47551265Y1690000D03*
X45011265Y1690000D03*
X42471265Y1690000D03*
X39931265Y1690000D03*
X37391265Y1690000D03*
X34851265Y1690000D03*
X32311265Y1690000D03*
X29771265Y1690000D03*
X27231265Y1690000D03*
X24691265Y1690000D03*
X22151265Y1690000D03*
X19611265Y1690000D03*
X17071265Y1690000D03*
%TD*%
D15*
%TO.C,J4*%
X83111265Y-15945663D03*
D16*
X80571265Y-15945663D03*
X78031265Y-15945663D03*
X75491265Y-15945663D03*
X72951265Y-15945663D03*
X70411265Y-15945663D03*
X67871265Y-15945663D03*
X65331265Y-15945663D03*
X62791265Y-15945663D03*
X60251265Y-15945663D03*
X57711265Y-15945663D03*
X55171265Y-15945663D03*
X52631265Y-15945663D03*
X50091265Y-15945663D03*
X47551265Y-15945663D03*
X45011265Y-15945663D03*
X42471265Y-15945663D03*
X39931265Y-15945663D03*
X37391265Y-15945663D03*
X34851265Y-15945663D03*
X32311265Y-15945663D03*
X29771265Y-15945663D03*
X27231265Y-15945663D03*
X24691265Y-15945663D03*
X22151265Y-15945663D03*
X19611265Y-15945663D03*
X17071265Y-15945663D03*
%TD*%
%LPD*%
M02*
