%TF.GenerationSoftware,KiCad,Pcbnew,7.0.9*%
%TF.CreationDate,2024-01-10T12:03:28+08:00*%
%TF.ProjectId,UINIO-MCU-ESP32S3,55494e49-4f2d-44d4-9355-2d4553503332,Version 3.1.1*%
%TF.SameCoordinates,PX629df6ePY56b2a99*%
%TF.FileFunction,Legend,Bot*%
%TF.FilePolarity,Positive*%
%FSLAX46Y46*%
G04 Gerber Fmt 4.6, Leading zero omitted, Abs format (unit mm)*
G04 Created by KiCad (PCBNEW 7.0.9) date 2024-01-10 12:03:28*
%MOMM*%
%LPD*%
G01*
G04 APERTURE LIST*
%ADD10C,0.312500*%
%ADD11C,0.375000*%
%ADD12C,0.300000*%
%ADD13C,0.100000*%
%ADD14C,0.120000*%
%ADD15C,1.200000*%
%ADD16R,1.700000X1.700000*%
%ADD17O,1.700000X1.700000*%
%ADD18C,0.650000*%
%ADD19O,2.100000X1.000000*%
%ADD20O,1.900000X1.000000*%
G04 APERTURE END LIST*
D10*
G36*
X43320760Y-4806595D02*
G01*
X42612260Y-4806595D01*
X42612260Y-6815835D01*
X42612992Y-6866586D01*
X42615188Y-6915574D01*
X42618848Y-6962800D01*
X42623972Y-7008262D01*
X42630560Y-7051960D01*
X42638611Y-7093896D01*
X42648127Y-7134069D01*
X42659106Y-7172478D01*
X42671550Y-7209125D01*
X42685457Y-7244008D01*
X42700828Y-7277128D01*
X42717663Y-7308485D01*
X42735963Y-7338079D01*
X42755726Y-7365909D01*
X42776953Y-7391977D01*
X42799644Y-7416281D01*
X42823868Y-7438972D01*
X42849866Y-7460199D01*
X42877638Y-7479962D01*
X42907184Y-7498262D01*
X42938503Y-7515097D01*
X42971597Y-7530468D01*
X43006464Y-7544375D01*
X43043105Y-7556819D01*
X43081520Y-7567798D01*
X43121708Y-7577314D01*
X43163671Y-7585365D01*
X43207407Y-7591953D01*
X43252917Y-7597077D01*
X43300201Y-7600737D01*
X43349259Y-7602933D01*
X43400090Y-7603665D01*
X44305547Y-7603665D01*
X44356381Y-7602933D01*
X44405447Y-7600737D01*
X44452744Y-7597077D01*
X44498273Y-7591953D01*
X44542034Y-7585365D01*
X44584025Y-7577314D01*
X44624249Y-7567798D01*
X44662704Y-7556819D01*
X44699390Y-7544375D01*
X44734308Y-7530468D01*
X44767457Y-7515097D01*
X44798838Y-7498262D01*
X44828451Y-7479962D01*
X44856295Y-7460199D01*
X44882371Y-7438972D01*
X44906678Y-7416281D01*
X44929286Y-7391977D01*
X44950435Y-7365909D01*
X44970126Y-7338079D01*
X44988359Y-7308485D01*
X45005132Y-7277128D01*
X45020448Y-7244008D01*
X45034304Y-7209125D01*
X45046702Y-7172478D01*
X45057642Y-7134069D01*
X45067122Y-7093896D01*
X45075145Y-7051960D01*
X45081708Y-7008262D01*
X45086813Y-6962800D01*
X45090460Y-6915574D01*
X45092648Y-6866586D01*
X45093377Y-6815835D01*
X45093377Y-4806595D01*
X44384877Y-4806595D01*
X44384877Y-6815835D01*
X44383953Y-6844405D01*
X44379100Y-6883805D01*
X44370088Y-6919058D01*
X44356917Y-6950163D01*
X44339586Y-6977121D01*
X44318096Y-6999931D01*
X44292447Y-7018595D01*
X44262638Y-7033110D01*
X44228670Y-7043479D01*
X44190542Y-7049700D01*
X44162813Y-7051543D01*
X44148255Y-7051773D01*
X43557383Y-7051773D01*
X43528729Y-7050852D01*
X43489215Y-7046013D01*
X43453860Y-7037027D01*
X43422665Y-7023894D01*
X43395629Y-7006613D01*
X43372752Y-6985185D01*
X43354035Y-6959610D01*
X43339477Y-6929887D01*
X43329079Y-6896017D01*
X43322840Y-6858000D01*
X43320991Y-6830351D01*
X43320760Y-6815835D01*
X43320760Y-4806595D01*
G37*
G36*
X40856057Y-7564000D02*
G01*
X42273740Y-7564000D01*
X42273740Y-7012792D01*
X41919490Y-7012792D01*
X41919490Y-5357803D01*
X42273740Y-5357803D01*
X42273740Y-4806595D01*
X40856057Y-4806595D01*
X40856057Y-5357803D01*
X41210307Y-5357803D01*
X41210307Y-7012792D01*
X40856057Y-7012792D01*
X40856057Y-7564000D01*
G37*
G36*
X38108911Y-7564000D02*
G01*
X38857076Y-7564000D01*
X39802882Y-5909694D01*
X39802882Y-7564000D01*
X40511381Y-7564000D01*
X40511381Y-4806595D01*
X39763217Y-4806595D01*
X38818094Y-6460901D01*
X38818094Y-4806595D01*
X38108911Y-4806595D01*
X38108911Y-7564000D01*
G37*
G36*
X36350655Y-7564000D02*
G01*
X37768339Y-7564000D01*
X37768339Y-7012792D01*
X37414089Y-7012792D01*
X37414089Y-5357803D01*
X37768339Y-5357803D01*
X37768339Y-4806595D01*
X36350655Y-4806595D01*
X36350655Y-5357803D01*
X36704905Y-5357803D01*
X36704905Y-7012792D01*
X36350655Y-7012792D01*
X36350655Y-7564000D01*
G37*
G36*
X35348232Y-4767662D02*
G01*
X35397220Y-4769858D01*
X35444445Y-4773518D01*
X35489907Y-4778642D01*
X35533606Y-4785230D01*
X35575542Y-4793281D01*
X35615714Y-4802797D01*
X35654124Y-4813776D01*
X35690770Y-4826220D01*
X35725653Y-4840127D01*
X35758773Y-4855498D01*
X35790130Y-4872333D01*
X35819724Y-4890633D01*
X35847555Y-4910396D01*
X35873622Y-4931623D01*
X35897927Y-4954314D01*
X35920618Y-4978618D01*
X35941845Y-5004686D01*
X35961608Y-5032516D01*
X35979907Y-5062110D01*
X35996742Y-5093467D01*
X36012114Y-5126587D01*
X36026021Y-5161470D01*
X36038464Y-5198117D01*
X36049444Y-5236526D01*
X36058959Y-5276699D01*
X36067011Y-5318635D01*
X36073599Y-5362333D01*
X36078722Y-5407795D01*
X36082382Y-5455021D01*
X36084578Y-5504009D01*
X36085310Y-5554760D01*
X36085310Y-6815835D01*
X36084578Y-6866586D01*
X36082382Y-6915574D01*
X36078722Y-6962800D01*
X36073599Y-7008262D01*
X36067011Y-7051960D01*
X36058959Y-7093896D01*
X36049444Y-7134069D01*
X36038464Y-7172478D01*
X36026021Y-7209125D01*
X36012114Y-7244008D01*
X35996742Y-7277128D01*
X35979907Y-7308485D01*
X35961608Y-7338079D01*
X35941845Y-7365909D01*
X35920618Y-7391977D01*
X35897927Y-7416281D01*
X35873622Y-7438972D01*
X35847555Y-7460199D01*
X35819724Y-7479962D01*
X35790130Y-7498262D01*
X35758773Y-7515097D01*
X35725653Y-7530468D01*
X35690770Y-7544375D01*
X35654124Y-7556819D01*
X35615714Y-7567798D01*
X35575542Y-7577314D01*
X35533606Y-7585365D01*
X35489907Y-7591953D01*
X35444445Y-7597077D01*
X35397220Y-7600737D01*
X35348232Y-7602933D01*
X35297480Y-7603665D01*
X34312693Y-7603665D01*
X34261862Y-7602933D01*
X34212804Y-7600737D01*
X34165520Y-7597077D01*
X34120010Y-7591953D01*
X34076274Y-7585365D01*
X34034311Y-7577314D01*
X33994123Y-7567798D01*
X33955708Y-7556819D01*
X33919067Y-7544375D01*
X33884200Y-7530468D01*
X33851106Y-7515097D01*
X33819787Y-7498262D01*
X33790241Y-7479962D01*
X33762469Y-7460199D01*
X33736471Y-7438972D01*
X33712247Y-7416281D01*
X33689556Y-7391977D01*
X33668329Y-7365909D01*
X33648566Y-7338079D01*
X33630266Y-7308485D01*
X33613431Y-7277128D01*
X33598060Y-7244008D01*
X33584153Y-7209125D01*
X33571709Y-7172478D01*
X33560730Y-7134069D01*
X33551214Y-7093896D01*
X33543163Y-7051960D01*
X33536575Y-7008262D01*
X33531451Y-6962800D01*
X33527791Y-6915574D01*
X33525595Y-6866586D01*
X33524863Y-6815835D01*
X34233363Y-6815835D01*
X34233594Y-6830351D01*
X34235443Y-6858000D01*
X34241682Y-6896017D01*
X34252080Y-6929887D01*
X34266638Y-6959610D01*
X34285355Y-6985185D01*
X34308232Y-7006613D01*
X34335268Y-7023894D01*
X34366463Y-7037027D01*
X34401818Y-7046013D01*
X34441332Y-7050852D01*
X34469986Y-7051773D01*
X35139504Y-7051773D01*
X35154062Y-7051543D01*
X35181791Y-7049700D01*
X35219919Y-7043479D01*
X35253887Y-7033110D01*
X35283696Y-7018595D01*
X35309345Y-6999931D01*
X35330835Y-6977121D01*
X35348166Y-6950163D01*
X35361338Y-6919058D01*
X35370350Y-6883805D01*
X35375202Y-6844405D01*
X35376127Y-6815835D01*
X35376127Y-5554760D01*
X35375895Y-5540244D01*
X35374047Y-5512595D01*
X35367808Y-5474578D01*
X35357409Y-5440708D01*
X35342851Y-5410985D01*
X35324134Y-5385410D01*
X35301258Y-5363982D01*
X35274222Y-5346701D01*
X35243026Y-5333568D01*
X35207672Y-5324582D01*
X35168158Y-5319743D01*
X35139504Y-5318822D01*
X34469986Y-5318822D01*
X34455428Y-5319052D01*
X34427699Y-5320895D01*
X34389571Y-5327116D01*
X34355603Y-5337485D01*
X34325794Y-5352000D01*
X34300144Y-5370664D01*
X34278654Y-5393474D01*
X34261323Y-5420432D01*
X34248152Y-5451537D01*
X34239140Y-5486790D01*
X34234287Y-5526189D01*
X34233363Y-5554760D01*
X34233363Y-6815835D01*
X33524863Y-6815835D01*
X33524863Y-5554760D01*
X33525595Y-5504009D01*
X33527791Y-5455021D01*
X33531451Y-5407795D01*
X33536575Y-5362333D01*
X33543163Y-5318635D01*
X33551214Y-5276699D01*
X33560730Y-5236526D01*
X33571709Y-5198117D01*
X33584153Y-5161470D01*
X33598060Y-5126587D01*
X33613431Y-5093467D01*
X33630266Y-5062110D01*
X33648566Y-5032516D01*
X33668329Y-5004686D01*
X33689556Y-4978618D01*
X33712247Y-4954314D01*
X33736471Y-4931623D01*
X33762469Y-4910396D01*
X33790241Y-4890633D01*
X33819787Y-4872333D01*
X33851106Y-4855498D01*
X33884200Y-4840127D01*
X33919067Y-4826220D01*
X33955708Y-4813776D01*
X33994123Y-4802797D01*
X34034311Y-4793281D01*
X34076274Y-4785230D01*
X34120010Y-4778642D01*
X34165520Y-4773518D01*
X34212804Y-4769858D01*
X34261862Y-4767662D01*
X34312693Y-4766930D01*
X35297480Y-4766930D01*
X35348232Y-4767662D01*
G37*
G36*
X33262937Y-6460901D02*
G01*
X33262937Y-5909694D01*
X31648297Y-5909694D01*
X31648297Y-6460901D01*
X33262937Y-6460901D01*
G37*
G36*
X28940132Y-6028005D02*
G01*
X29492023Y-7012792D01*
X30043230Y-7012792D01*
X30595122Y-6028005D01*
X30595122Y-7564000D01*
X31303621Y-7564000D01*
X31303621Y-4806595D01*
X30555457Y-4806595D01*
X29767627Y-6263944D01*
X28979797Y-4806595D01*
X28231632Y-4806595D01*
X28231632Y-7564000D01*
X28940132Y-7564000D01*
X28940132Y-6028005D01*
G37*
G36*
X25650669Y-7524334D02*
G01*
X25705259Y-7529215D01*
X25759265Y-7533941D01*
X25812687Y-7538512D01*
X25865525Y-7542927D01*
X25917780Y-7547188D01*
X25969451Y-7551294D01*
X26020538Y-7555245D01*
X26071042Y-7559041D01*
X26120962Y-7562682D01*
X26170298Y-7566169D01*
X26219050Y-7569500D01*
X26267219Y-7572676D01*
X26314804Y-7575698D01*
X26361806Y-7578564D01*
X26408223Y-7581275D01*
X26454057Y-7583832D01*
X26499308Y-7586234D01*
X26543974Y-7588480D01*
X26588057Y-7590572D01*
X26631556Y-7592509D01*
X26674472Y-7594291D01*
X26716804Y-7595917D01*
X26758552Y-7597389D01*
X26799716Y-7598706D01*
X26840297Y-7599868D01*
X26880294Y-7600876D01*
X26919707Y-7601728D01*
X26958536Y-7602425D01*
X26996782Y-7602967D01*
X27034444Y-7603355D01*
X27071523Y-7603587D01*
X27108018Y-7603665D01*
X27155515Y-7602957D01*
X27201410Y-7600833D01*
X27245702Y-7597293D01*
X27288391Y-7592338D01*
X27329477Y-7585966D01*
X27368961Y-7578179D01*
X27406841Y-7568976D01*
X27443119Y-7558357D01*
X27477794Y-7546323D01*
X27510866Y-7532872D01*
X27542335Y-7518006D01*
X27572201Y-7501724D01*
X27600465Y-7484026D01*
X27627125Y-7464912D01*
X27652183Y-7444382D01*
X27675638Y-7422436D01*
X27697584Y-7398981D01*
X27718113Y-7373924D01*
X27737227Y-7347263D01*
X27754925Y-7319000D01*
X27771208Y-7289133D01*
X27786074Y-7257664D01*
X27799524Y-7224592D01*
X27811559Y-7189917D01*
X27822178Y-7153639D01*
X27831381Y-7115759D01*
X27839168Y-7076276D01*
X27845539Y-7035189D01*
X27850495Y-6992500D01*
X27854035Y-6948208D01*
X27856158Y-6902314D01*
X27856866Y-6854816D01*
X27856866Y-5594425D01*
X27856134Y-5543594D01*
X27853938Y-5494536D01*
X27850279Y-5447252D01*
X27845155Y-5401742D01*
X27838567Y-5358006D01*
X27830515Y-5316043D01*
X27821000Y-5275855D01*
X27810020Y-5237440D01*
X27797577Y-5200799D01*
X27783670Y-5165932D01*
X27768298Y-5132838D01*
X27751463Y-5101519D01*
X27733164Y-5071973D01*
X27713401Y-5044201D01*
X27692174Y-5018203D01*
X27669483Y-4993979D01*
X27645179Y-4971288D01*
X27619111Y-4950061D01*
X27591280Y-4930298D01*
X27561687Y-4911998D01*
X27530330Y-4895163D01*
X27497209Y-4879792D01*
X27462326Y-4865885D01*
X27425680Y-4853441D01*
X27387270Y-4842462D01*
X27347098Y-4832946D01*
X27305162Y-4824895D01*
X27261463Y-4818307D01*
X27216001Y-4813183D01*
X27168776Y-4809523D01*
X27119788Y-4807327D01*
X27069036Y-4806595D01*
X25650669Y-4806595D01*
X25650669Y-5357803D01*
X26911060Y-5357803D01*
X26939714Y-5358727D01*
X26979228Y-5363580D01*
X27014583Y-5372592D01*
X27045778Y-5385763D01*
X27072814Y-5403094D01*
X27095690Y-5424584D01*
X27114408Y-5450233D01*
X27128965Y-5480042D01*
X27139364Y-5514011D01*
X27145603Y-5552138D01*
X27147452Y-5579867D01*
X27147683Y-5594425D01*
X27147683Y-6854816D01*
X27146380Y-6882321D01*
X27141379Y-6912904D01*
X27132628Y-6940841D01*
X27120126Y-6966134D01*
X27103873Y-6988782D01*
X27094340Y-6999115D01*
X27073303Y-7017010D01*
X27046146Y-7033209D01*
X27020629Y-7043083D01*
X26993044Y-7049254D01*
X26963391Y-7051722D01*
X26958248Y-7051773D01*
X26926664Y-7051701D01*
X26893974Y-7051485D01*
X26865887Y-7051194D01*
X26837033Y-7050804D01*
X26807410Y-7050313D01*
X26777020Y-7049722D01*
X26746061Y-7049047D01*
X26714736Y-7048306D01*
X26683043Y-7047498D01*
X26650983Y-7046623D01*
X26618555Y-7045681D01*
X26585760Y-7044673D01*
X26572540Y-7044251D01*
X26539167Y-7042968D01*
X26505728Y-7041686D01*
X26472222Y-7040404D01*
X26438649Y-7039122D01*
X26405009Y-7037839D01*
X26371303Y-7036557D01*
X26357801Y-7036044D01*
X26329794Y-7034901D01*
X26299800Y-7033522D01*
X26267818Y-7031909D01*
X26233848Y-7030060D01*
X26197891Y-7027977D01*
X26169619Y-7026259D01*
X26140229Y-7024410D01*
X26109721Y-7022429D01*
X26078094Y-7020315D01*
X26045170Y-7018099D01*
X26010767Y-7015811D01*
X25974885Y-7013451D01*
X25937525Y-7011018D01*
X25898686Y-7008514D01*
X25858369Y-7005937D01*
X25830669Y-7004180D01*
X25802312Y-7002390D01*
X25773298Y-7000568D01*
X25743626Y-6998714D01*
X25713298Y-6996828D01*
X25682312Y-6994910D01*
X25650669Y-6992960D01*
X25650669Y-7524334D01*
G37*
G36*
X23575778Y-4806595D02*
G01*
X22867278Y-4806595D01*
X22867278Y-6815835D01*
X22868010Y-6866586D01*
X22870206Y-6915574D01*
X22873866Y-6962800D01*
X22878989Y-7008262D01*
X22885577Y-7051960D01*
X22893629Y-7093896D01*
X22903144Y-7134069D01*
X22914124Y-7172478D01*
X22926567Y-7209125D01*
X22940474Y-7244008D01*
X22955846Y-7277128D01*
X22972681Y-7308485D01*
X22990980Y-7338079D01*
X23010743Y-7365909D01*
X23031970Y-7391977D01*
X23054661Y-7416281D01*
X23078885Y-7438972D01*
X23104883Y-7460199D01*
X23132655Y-7479962D01*
X23162201Y-7498262D01*
X23193521Y-7515097D01*
X23226614Y-7530468D01*
X23261481Y-7544375D01*
X23298122Y-7556819D01*
X23336537Y-7567798D01*
X23376726Y-7577314D01*
X23418688Y-7585365D01*
X23462424Y-7591953D01*
X23507935Y-7597077D01*
X23555218Y-7600737D01*
X23604276Y-7602933D01*
X23655108Y-7603665D01*
X24560565Y-7603665D01*
X24611399Y-7602933D01*
X24660465Y-7600737D01*
X24707762Y-7597077D01*
X24753291Y-7591953D01*
X24797051Y-7585365D01*
X24839043Y-7577314D01*
X24879266Y-7567798D01*
X24917721Y-7556819D01*
X24954407Y-7544375D01*
X24989325Y-7530468D01*
X25022475Y-7515097D01*
X25053856Y-7498262D01*
X25083468Y-7479962D01*
X25111313Y-7460199D01*
X25137388Y-7438972D01*
X25161695Y-7416281D01*
X25184303Y-7391977D01*
X25205453Y-7365909D01*
X25225144Y-7338079D01*
X25243376Y-7308485D01*
X25260150Y-7277128D01*
X25275465Y-7244008D01*
X25289322Y-7209125D01*
X25301720Y-7172478D01*
X25312659Y-7134069D01*
X25322140Y-7093896D01*
X25330162Y-7051960D01*
X25336726Y-7008262D01*
X25341831Y-6962800D01*
X25345477Y-6915574D01*
X25347665Y-6866586D01*
X25348394Y-6815835D01*
X25348394Y-4806595D01*
X24639895Y-4806595D01*
X24639895Y-6815835D01*
X24638971Y-6844405D01*
X24634118Y-6883805D01*
X24625106Y-6919058D01*
X24611935Y-6950163D01*
X24594604Y-6977121D01*
X24573114Y-6999931D01*
X24547464Y-7018595D01*
X24517655Y-7033110D01*
X24483687Y-7043479D01*
X24445559Y-7049700D01*
X24417830Y-7051543D01*
X24403272Y-7051773D01*
X23812400Y-7051773D01*
X23783747Y-7050852D01*
X23744232Y-7046013D01*
X23708878Y-7037027D01*
X23677682Y-7023894D01*
X23650646Y-7006613D01*
X23627770Y-6985185D01*
X23609053Y-6959610D01*
X23594495Y-6929887D01*
X23584096Y-6896017D01*
X23577857Y-6858000D01*
X23576009Y-6830351D01*
X23575778Y-6815835D01*
X23575778Y-4806595D01*
G37*
G36*
X22528757Y-6460901D02*
G01*
X22528757Y-5909694D01*
X20914117Y-5909694D01*
X20914117Y-6460901D01*
X22528757Y-6460901D01*
G37*
G36*
X18383761Y-7564000D02*
G01*
X20569441Y-7564000D01*
X20569441Y-4806595D01*
X18383761Y-4806595D01*
X18383761Y-5357803D01*
X19860942Y-5357803D01*
X19860942Y-5889861D01*
X18698346Y-5889861D01*
X18698346Y-6441069D01*
X19860942Y-6441069D01*
X19860942Y-7012792D01*
X18383761Y-7012792D01*
X18383761Y-7564000D01*
G37*
G36*
X18162868Y-6992960D02*
G01*
X18096100Y-6996578D01*
X18030694Y-7000082D01*
X17966649Y-7003470D01*
X17903966Y-7006744D01*
X17842643Y-7009903D01*
X17782681Y-7012947D01*
X17724080Y-7015876D01*
X17666841Y-7018691D01*
X17610962Y-7021390D01*
X17556445Y-7023975D01*
X17503289Y-7026444D01*
X17451494Y-7028799D01*
X17401059Y-7031039D01*
X17351986Y-7033164D01*
X17304274Y-7035175D01*
X17257923Y-7037070D01*
X17212934Y-7038850D01*
X17169305Y-7040516D01*
X17127037Y-7042067D01*
X17086131Y-7043503D01*
X17046585Y-7044824D01*
X17008401Y-7046030D01*
X16971577Y-7047121D01*
X16936115Y-7048098D01*
X16902014Y-7048959D01*
X16869274Y-7049706D01*
X16837895Y-7050338D01*
X16807877Y-7050854D01*
X16779220Y-7051256D01*
X16725990Y-7051716D01*
X16701416Y-7051773D01*
X16668862Y-7049922D01*
X16638905Y-7044368D01*
X16611545Y-7035112D01*
X16586781Y-7022153D01*
X16564613Y-7005491D01*
X16557801Y-6999115D01*
X16539673Y-6977789D01*
X16525296Y-6953818D01*
X16514669Y-6927203D01*
X16507793Y-6897943D01*
X16504667Y-6866039D01*
X16504459Y-6854816D01*
X16504459Y-6500566D01*
X17410600Y-6500566D01*
X17461434Y-6499837D01*
X17510500Y-6497649D01*
X17557797Y-6494002D01*
X17603326Y-6488897D01*
X17647086Y-6482334D01*
X17689078Y-6474312D01*
X17729301Y-6464831D01*
X17767756Y-6453891D01*
X17804442Y-6441493D01*
X17839360Y-6427637D01*
X17872510Y-6412322D01*
X17903891Y-6395548D01*
X17933503Y-6377315D01*
X17961347Y-6357625D01*
X17987423Y-6336475D01*
X18011730Y-6313867D01*
X18034338Y-6289560D01*
X18055488Y-6263484D01*
X18075179Y-6235640D01*
X18093411Y-6206028D01*
X18110185Y-6174647D01*
X18125500Y-6141497D01*
X18139357Y-6106579D01*
X18151755Y-6069893D01*
X18162694Y-6031438D01*
X18172175Y-5991214D01*
X18180197Y-5949223D01*
X18186761Y-5905462D01*
X18191866Y-5859934D01*
X18195512Y-5812636D01*
X18197700Y-5763571D01*
X18198429Y-5712736D01*
X18198429Y-5594425D01*
X18197700Y-5543594D01*
X18195512Y-5494536D01*
X18191866Y-5447252D01*
X18186761Y-5401742D01*
X18180197Y-5358006D01*
X18172175Y-5316043D01*
X18162694Y-5275855D01*
X18151755Y-5237440D01*
X18139357Y-5200799D01*
X18125500Y-5165932D01*
X18110185Y-5132838D01*
X18093411Y-5101519D01*
X18075179Y-5071973D01*
X18055488Y-5044201D01*
X18034338Y-5018203D01*
X18011730Y-4993979D01*
X17987423Y-4971288D01*
X17961347Y-4950061D01*
X17933503Y-4930298D01*
X17903891Y-4911998D01*
X17872510Y-4895163D01*
X17839360Y-4879792D01*
X17804442Y-4865885D01*
X17767756Y-4853441D01*
X17729301Y-4842462D01*
X17689078Y-4832946D01*
X17647086Y-4824895D01*
X17603326Y-4818307D01*
X17557797Y-4813183D01*
X17510500Y-4809523D01*
X17461434Y-4807327D01*
X17410600Y-4806595D01*
X16027794Y-4806595D01*
X16027794Y-5357803D01*
X17253307Y-5357803D01*
X17281878Y-5358727D01*
X17321278Y-5363580D01*
X17356530Y-5372592D01*
X17387636Y-5385763D01*
X17414593Y-5403094D01*
X17437404Y-5424584D01*
X17456067Y-5450233D01*
X17470583Y-5480042D01*
X17480951Y-5514011D01*
X17487172Y-5552138D01*
X17489015Y-5579867D01*
X17489246Y-5594425D01*
X17489246Y-5673071D01*
X17488324Y-5701725D01*
X17483486Y-5741239D01*
X17474500Y-5776594D01*
X17461366Y-5807789D01*
X17444086Y-5834825D01*
X17422658Y-5857702D01*
X17397082Y-5876419D01*
X17367360Y-5890977D01*
X17333490Y-5901375D01*
X17295472Y-5907614D01*
X17267823Y-5909463D01*
X17253307Y-5909694D01*
X16544124Y-5909694D01*
X16496709Y-5910402D01*
X16450892Y-5912526D01*
X16406672Y-5916065D01*
X16364050Y-5921021D01*
X16323025Y-5927392D01*
X16283598Y-5935179D01*
X16245768Y-5944382D01*
X16209535Y-5955001D01*
X16174901Y-5967036D01*
X16141863Y-5980486D01*
X16110424Y-5995352D01*
X16080581Y-6011635D01*
X16052337Y-6029333D01*
X16025689Y-6048447D01*
X16000639Y-6068976D01*
X15977187Y-6090922D01*
X15955242Y-6114374D01*
X15934712Y-6139424D01*
X15915598Y-6166071D01*
X15897900Y-6194316D01*
X15881618Y-6224158D01*
X15866751Y-6255598D01*
X15853301Y-6288635D01*
X15841266Y-6323270D01*
X15830647Y-6359503D01*
X15821444Y-6397332D01*
X15813657Y-6436760D01*
X15807286Y-6477784D01*
X15802330Y-6520407D01*
X15798791Y-6564626D01*
X15796667Y-6610444D01*
X15795959Y-6657859D01*
X15795959Y-6854816D01*
X15796667Y-6902314D01*
X15798791Y-6948208D01*
X15802330Y-6992500D01*
X15807286Y-7035189D01*
X15813657Y-7076276D01*
X15821444Y-7115759D01*
X15830647Y-7153639D01*
X15841266Y-7189917D01*
X15853301Y-7224592D01*
X15866751Y-7257664D01*
X15881618Y-7289133D01*
X15897900Y-7319000D01*
X15915598Y-7347263D01*
X15934712Y-7373924D01*
X15955242Y-7398981D01*
X15977187Y-7422436D01*
X16000639Y-7444382D01*
X16025689Y-7464912D01*
X16052337Y-7484026D01*
X16080581Y-7501724D01*
X16110424Y-7518006D01*
X16141863Y-7532872D01*
X16174901Y-7546323D01*
X16209535Y-7558357D01*
X16245768Y-7568976D01*
X16283598Y-7578179D01*
X16323025Y-7585966D01*
X16364050Y-7592338D01*
X16406672Y-7597293D01*
X16450892Y-7600833D01*
X16496709Y-7602957D01*
X16544124Y-7603665D01*
X16582027Y-7603592D01*
X16620339Y-7603376D01*
X16659060Y-7603015D01*
X16698189Y-7602510D01*
X16737727Y-7601861D01*
X16777674Y-7601068D01*
X16818030Y-7600130D01*
X16858794Y-7599048D01*
X16886197Y-7598247D01*
X16913782Y-7597381D01*
X16941549Y-7596452D01*
X16969497Y-7595458D01*
X17331953Y-7579729D01*
X17382323Y-7577188D01*
X17432901Y-7574525D01*
X17483687Y-7571739D01*
X17534681Y-7568829D01*
X17585884Y-7565797D01*
X17637295Y-7562642D01*
X17688915Y-7559365D01*
X17740743Y-7555964D01*
X17792779Y-7552440D01*
X17845024Y-7548794D01*
X17897477Y-7545025D01*
X17950138Y-7541132D01*
X18003008Y-7537117D01*
X18056086Y-7532979D01*
X18109373Y-7528718D01*
X18162868Y-7524334D01*
X18162868Y-6992960D01*
G37*
G36*
X15454019Y-7564000D02*
G01*
X14745519Y-7564000D01*
X14745519Y-6776170D01*
X13799713Y-6776170D01*
X13748882Y-6775440D01*
X13699824Y-6773253D01*
X13652540Y-6769606D01*
X13607030Y-6764501D01*
X13563294Y-6757937D01*
X13521331Y-6749915D01*
X13481143Y-6740434D01*
X13442728Y-6729495D01*
X13406087Y-6717097D01*
X13371220Y-6703240D01*
X13338126Y-6687925D01*
X13306807Y-6671151D01*
X13277261Y-6652919D01*
X13249489Y-6633228D01*
X13223491Y-6612079D01*
X13199267Y-6589471D01*
X13176576Y-6565163D01*
X13155349Y-6539088D01*
X13135586Y-6511244D01*
X13117287Y-6481631D01*
X13100451Y-6450250D01*
X13085080Y-6417101D01*
X13071173Y-6382183D01*
X13058729Y-6345496D01*
X13047750Y-6307041D01*
X13038234Y-6266818D01*
X13030183Y-6224826D01*
X13023595Y-6181066D01*
X13018471Y-6135537D01*
X13014812Y-6088240D01*
X13012616Y-6039174D01*
X13011884Y-5988340D01*
X13721067Y-5988340D01*
X13721298Y-6002898D01*
X13723147Y-6030627D01*
X13729386Y-6068755D01*
X13739784Y-6102723D01*
X13754342Y-6132532D01*
X13773059Y-6158181D01*
X13795936Y-6179671D01*
X13822972Y-6197002D01*
X13854167Y-6210174D01*
X13889522Y-6219186D01*
X13929036Y-6224038D01*
X13957690Y-6224963D01*
X14745519Y-6224963D01*
X14745519Y-5357803D01*
X13957690Y-5357803D01*
X13943132Y-5358034D01*
X13915403Y-5359882D01*
X13877275Y-5366121D01*
X13843307Y-5376520D01*
X13813498Y-5391078D01*
X13787848Y-5409795D01*
X13766358Y-5432672D01*
X13749027Y-5459708D01*
X13735856Y-5490903D01*
X13726844Y-5526258D01*
X13721991Y-5565772D01*
X13721067Y-5594425D01*
X13721067Y-5988340D01*
X13011884Y-5988340D01*
X13011884Y-5594425D01*
X13012616Y-5543594D01*
X13014812Y-5494536D01*
X13018471Y-5447252D01*
X13023595Y-5401742D01*
X13030183Y-5358006D01*
X13038234Y-5316043D01*
X13047750Y-5275855D01*
X13058729Y-5237440D01*
X13071173Y-5200799D01*
X13085080Y-5165932D01*
X13100451Y-5132838D01*
X13117287Y-5101519D01*
X13135586Y-5071973D01*
X13155349Y-5044201D01*
X13176576Y-5018203D01*
X13199267Y-4993979D01*
X13223491Y-4971288D01*
X13249489Y-4950061D01*
X13277261Y-4930298D01*
X13306807Y-4911998D01*
X13338126Y-4895163D01*
X13371220Y-4879792D01*
X13406087Y-4865885D01*
X13442728Y-4853441D01*
X13481143Y-4842462D01*
X13521331Y-4832946D01*
X13563294Y-4824895D01*
X13607030Y-4818307D01*
X13652540Y-4813183D01*
X13699824Y-4809523D01*
X13748882Y-4807327D01*
X13799713Y-4806595D01*
X15454019Y-4806595D01*
X15454019Y-7564000D01*
G37*
G36*
X11372623Y-7603665D02*
G01*
X11413880Y-7603587D01*
X11455413Y-7603355D01*
X11497222Y-7602967D01*
X11539308Y-7602425D01*
X11581671Y-7601728D01*
X11624310Y-7600876D01*
X11667225Y-7599868D01*
X11710417Y-7598706D01*
X11753886Y-7597389D01*
X11797631Y-7595917D01*
X11841652Y-7594291D01*
X11885950Y-7592509D01*
X11930524Y-7590572D01*
X11975375Y-7588480D01*
X12020503Y-7586234D01*
X12065907Y-7583832D01*
X12111587Y-7581275D01*
X12157544Y-7578564D01*
X12203777Y-7575698D01*
X12250287Y-7572676D01*
X12297073Y-7569500D01*
X12344136Y-7566169D01*
X12391476Y-7562682D01*
X12439091Y-7559041D01*
X12486984Y-7555245D01*
X12535153Y-7551294D01*
X12583598Y-7547188D01*
X12632320Y-7542927D01*
X12681318Y-7538512D01*
X12730593Y-7533941D01*
X12780144Y-7529215D01*
X12829972Y-7524334D01*
X12829972Y-6992960D01*
X12775991Y-6996578D01*
X12722872Y-7000082D01*
X12670615Y-7003470D01*
X12619219Y-7006744D01*
X12568685Y-7009903D01*
X12519012Y-7012947D01*
X12470201Y-7015876D01*
X12422251Y-7018691D01*
X12375163Y-7021390D01*
X12328936Y-7023975D01*
X12283571Y-7026444D01*
X12239067Y-7028799D01*
X12195425Y-7031039D01*
X12152645Y-7033164D01*
X12110726Y-7035175D01*
X12069668Y-7037070D01*
X12029472Y-7038850D01*
X11990138Y-7040516D01*
X11951665Y-7042067D01*
X11914053Y-7043503D01*
X11877303Y-7044824D01*
X11841415Y-7046030D01*
X11806388Y-7047121D01*
X11772223Y-7048098D01*
X11738919Y-7048959D01*
X11706477Y-7049706D01*
X11674896Y-7050338D01*
X11644177Y-7050854D01*
X11614320Y-7051256D01*
X11585323Y-7051544D01*
X11557189Y-7051716D01*
X11529916Y-7051773D01*
X11497362Y-7049922D01*
X11467405Y-7044368D01*
X11440044Y-7035112D01*
X11415280Y-7022153D01*
X11393113Y-7005491D01*
X11386301Y-6999115D01*
X11368173Y-6977789D01*
X11353795Y-6953818D01*
X11343168Y-6927203D01*
X11336292Y-6897943D01*
X11333167Y-6866039D01*
X11332958Y-6854816D01*
X11332958Y-6697524D01*
X11333883Y-6668870D01*
X11338735Y-6629356D01*
X11347747Y-6594001D01*
X11360919Y-6562806D01*
X11378249Y-6535770D01*
X11399739Y-6512893D01*
X11425389Y-6494176D01*
X11455198Y-6479618D01*
X11489166Y-6469220D01*
X11527294Y-6462981D01*
X11555023Y-6461132D01*
X11569581Y-6460901D01*
X12396392Y-6460901D01*
X12396392Y-5909694D01*
X11648227Y-5909694D01*
X11619573Y-5908770D01*
X11580059Y-5903917D01*
X11544705Y-5894905D01*
X11513509Y-5881734D01*
X11486473Y-5864403D01*
X11463597Y-5842913D01*
X11444880Y-5817263D01*
X11430322Y-5787454D01*
X11419923Y-5753486D01*
X11413684Y-5715358D01*
X11411836Y-5687629D01*
X11411605Y-5673071D01*
X11411605Y-5594425D01*
X11412529Y-5565772D01*
X11417381Y-5526258D01*
X11426393Y-5490903D01*
X11439565Y-5459708D01*
X11456896Y-5432672D01*
X11478386Y-5409795D01*
X11504035Y-5391078D01*
X11533844Y-5376520D01*
X11567812Y-5366121D01*
X11605940Y-5359882D01*
X11633669Y-5358034D01*
X11648227Y-5357803D01*
X12790307Y-5357803D01*
X12790307Y-4806595D01*
X11451270Y-4806595D01*
X11403772Y-4807282D01*
X11357877Y-4809342D01*
X11313585Y-4812774D01*
X11270896Y-4817580D01*
X11229810Y-4823759D01*
X11190327Y-4831311D01*
X11152446Y-4840236D01*
X11116168Y-4850535D01*
X11081494Y-4862206D01*
X11048422Y-4875251D01*
X11016952Y-4889668D01*
X10987086Y-4905459D01*
X10958823Y-4922623D01*
X10932162Y-4941160D01*
X10907104Y-4961070D01*
X10883649Y-4982353D01*
X10861704Y-5004953D01*
X10841174Y-5028985D01*
X10822060Y-5054449D01*
X10804362Y-5081344D01*
X10788080Y-5109672D01*
X10773213Y-5139431D01*
X10759763Y-5170623D01*
X10747728Y-5203246D01*
X10737109Y-5237301D01*
X10727906Y-5272788D01*
X10720119Y-5309707D01*
X10713748Y-5348057D01*
X10708792Y-5387840D01*
X10705253Y-5429054D01*
X10703129Y-5471701D01*
X10702421Y-5515779D01*
X10702846Y-5544927D01*
X10704120Y-5573385D01*
X10706244Y-5601154D01*
X10711022Y-5641516D01*
X10717712Y-5680327D01*
X10726313Y-5717587D01*
X10736826Y-5753296D01*
X10749250Y-5787455D01*
X10763586Y-5820063D01*
X10779832Y-5851120D01*
X10797991Y-5880626D01*
X10811158Y-5899436D01*
X10832025Y-5926357D01*
X10854106Y-5951728D01*
X10877401Y-5975549D01*
X10901911Y-5997818D01*
X10927635Y-6018537D01*
X10954572Y-6037705D01*
X10982724Y-6055322D01*
X11012090Y-6071389D01*
X11042671Y-6085904D01*
X11074465Y-6098869D01*
X11096336Y-6106651D01*
X11057299Y-6118491D01*
X11019859Y-6132297D01*
X10984017Y-6148069D01*
X10949772Y-6165807D01*
X10917125Y-6185511D01*
X10886075Y-6207182D01*
X10856623Y-6230818D01*
X10828768Y-6256421D01*
X10802511Y-6283990D01*
X10777851Y-6313525D01*
X10754789Y-6345026D01*
X10733324Y-6378494D01*
X10713457Y-6413927D01*
X10695187Y-6451327D01*
X10678515Y-6490693D01*
X10663440Y-6532025D01*
X10654143Y-6563088D01*
X10646086Y-6595412D01*
X10639269Y-6628997D01*
X10633691Y-6663842D01*
X10629353Y-6699949D01*
X10626912Y-6727857D01*
X10625169Y-6756473D01*
X10624123Y-6785800D01*
X10623775Y-6815835D01*
X10623775Y-6854816D01*
X10624483Y-6902314D01*
X10626606Y-6948208D01*
X10630146Y-6992500D01*
X10635102Y-7035189D01*
X10641473Y-7076276D01*
X10649260Y-7115759D01*
X10658463Y-7153639D01*
X10669082Y-7189917D01*
X10681117Y-7224592D01*
X10694567Y-7257664D01*
X10709433Y-7289133D01*
X10725716Y-7319000D01*
X10743414Y-7347263D01*
X10762528Y-7373924D01*
X10783057Y-7398981D01*
X10805003Y-7422436D01*
X10828458Y-7444382D01*
X10853516Y-7464912D01*
X10880176Y-7484026D01*
X10908440Y-7501724D01*
X10938306Y-7518006D01*
X10969775Y-7532872D01*
X11002847Y-7546323D01*
X11037522Y-7558357D01*
X11073800Y-7568976D01*
X11111680Y-7578179D01*
X11151164Y-7585966D01*
X11192250Y-7592338D01*
X11234939Y-7597293D01*
X11279231Y-7600833D01*
X11325126Y-7602957D01*
X11372623Y-7603665D01*
G37*
G36*
X8311577Y-5673071D02*
G01*
X8312685Y-5714604D01*
X8316011Y-5755425D01*
X8321554Y-5795537D01*
X8329315Y-5834937D01*
X8339292Y-5873627D01*
X8351487Y-5911607D01*
X8365900Y-5948875D01*
X8382529Y-5985434D01*
X8401376Y-6021281D01*
X8422440Y-6056418D01*
X8445721Y-6090845D01*
X8471220Y-6124560D01*
X8498936Y-6157566D01*
X8528869Y-6189860D01*
X8561019Y-6221444D01*
X8595387Y-6252318D01*
X8617346Y-6270964D01*
X8639796Y-6289632D01*
X8662738Y-6308321D01*
X8686172Y-6327032D01*
X8710097Y-6345764D01*
X8734514Y-6364517D01*
X8759422Y-6383291D01*
X8784822Y-6402087D01*
X9631465Y-7012792D01*
X8311577Y-7012792D01*
X8311577Y-7564000D01*
X10439127Y-7564000D01*
X10439127Y-6815835D01*
X9020760Y-5791383D01*
X9020760Y-5594425D01*
X9021684Y-5565772D01*
X9026537Y-5526258D01*
X9035549Y-5490903D01*
X9048720Y-5459708D01*
X9066051Y-5432672D01*
X9087541Y-5409795D01*
X9113191Y-5391078D01*
X9143000Y-5376520D01*
X9176968Y-5366121D01*
X9215096Y-5359882D01*
X9242825Y-5358034D01*
X9257383Y-5357803D01*
X10360481Y-5357803D01*
X10360481Y-4806595D01*
X9099406Y-4806595D01*
X9048655Y-4807327D01*
X8999667Y-4809523D01*
X8952442Y-4813183D01*
X8906980Y-4818307D01*
X8863281Y-4824895D01*
X8821345Y-4832946D01*
X8781172Y-4842462D01*
X8742763Y-4853441D01*
X8706117Y-4865885D01*
X8671233Y-4879792D01*
X8638113Y-4895163D01*
X8606756Y-4911998D01*
X8577162Y-4930298D01*
X8549332Y-4950061D01*
X8523264Y-4971288D01*
X8498960Y-4993979D01*
X8476269Y-5018203D01*
X8455042Y-5044201D01*
X8435279Y-5071973D01*
X8416980Y-5101519D01*
X8400144Y-5132838D01*
X8384773Y-5165932D01*
X8370866Y-5200799D01*
X8358422Y-5237440D01*
X8347443Y-5275855D01*
X8337927Y-5316043D01*
X8329876Y-5358006D01*
X8323288Y-5401742D01*
X8318164Y-5447252D01*
X8314504Y-5494536D01*
X8312309Y-5543594D01*
X8311577Y-5594425D01*
X8311577Y-5673071D01*
G37*
G36*
X8052386Y-6992960D02*
G01*
X7985619Y-6996578D01*
X7920213Y-7000082D01*
X7856168Y-7003470D01*
X7793484Y-7006744D01*
X7732161Y-7009903D01*
X7672200Y-7012947D01*
X7613599Y-7015876D01*
X7556359Y-7018691D01*
X7500481Y-7021390D01*
X7445964Y-7023975D01*
X7392807Y-7026444D01*
X7341012Y-7028799D01*
X7290578Y-7031039D01*
X7241505Y-7033164D01*
X7193793Y-7035175D01*
X7147442Y-7037070D01*
X7102452Y-7038850D01*
X7058823Y-7040516D01*
X7016556Y-7042067D01*
X6975649Y-7043503D01*
X6936104Y-7044824D01*
X6897919Y-7046030D01*
X6861096Y-7047121D01*
X6825634Y-7048098D01*
X6791532Y-7048959D01*
X6758792Y-7049706D01*
X6727413Y-7050338D01*
X6697395Y-7050854D01*
X6668739Y-7051256D01*
X6615508Y-7051716D01*
X6590935Y-7051773D01*
X6558381Y-7049922D01*
X6528424Y-7044368D01*
X6501063Y-7035112D01*
X6476299Y-7022153D01*
X6454132Y-7005491D01*
X6447320Y-6999115D01*
X6429192Y-6977789D01*
X6414814Y-6953818D01*
X6404187Y-6927203D01*
X6397311Y-6897943D01*
X6394186Y-6866039D01*
X6393977Y-6854816D01*
X6393977Y-6500566D01*
X7300118Y-6500566D01*
X7350952Y-6499837D01*
X7400018Y-6497649D01*
X7447315Y-6494002D01*
X7492844Y-6488897D01*
X7536604Y-6482334D01*
X7578596Y-6474312D01*
X7618820Y-6464831D01*
X7657274Y-6453891D01*
X7693961Y-6441493D01*
X7728879Y-6427637D01*
X7762028Y-6412322D01*
X7793409Y-6395548D01*
X7823022Y-6377315D01*
X7850866Y-6357625D01*
X7876942Y-6336475D01*
X7901249Y-6313867D01*
X7923857Y-6289560D01*
X7945006Y-6263484D01*
X7964697Y-6235640D01*
X7982930Y-6206028D01*
X7999703Y-6174647D01*
X8015018Y-6141497D01*
X8028875Y-6106579D01*
X8041273Y-6069893D01*
X8052212Y-6031438D01*
X8061693Y-5991214D01*
X8069716Y-5949223D01*
X8076279Y-5905462D01*
X8081384Y-5859934D01*
X8085031Y-5812636D01*
X8087219Y-5763571D01*
X8087948Y-5712736D01*
X8087948Y-5594425D01*
X8087219Y-5543594D01*
X8085031Y-5494536D01*
X8081384Y-5447252D01*
X8076279Y-5401742D01*
X8069716Y-5358006D01*
X8061693Y-5316043D01*
X8052212Y-5275855D01*
X8041273Y-5237440D01*
X8028875Y-5200799D01*
X8015018Y-5165932D01*
X7999703Y-5132838D01*
X7982930Y-5101519D01*
X7964697Y-5071973D01*
X7945006Y-5044201D01*
X7923857Y-5018203D01*
X7901249Y-4993979D01*
X7876942Y-4971288D01*
X7850866Y-4950061D01*
X7823022Y-4930298D01*
X7793409Y-4911998D01*
X7762028Y-4895163D01*
X7728879Y-4879792D01*
X7693961Y-4865885D01*
X7657274Y-4853441D01*
X7618820Y-4842462D01*
X7578596Y-4832946D01*
X7536604Y-4824895D01*
X7492844Y-4818307D01*
X7447315Y-4813183D01*
X7400018Y-4809523D01*
X7350952Y-4807327D01*
X7300118Y-4806595D01*
X5917313Y-4806595D01*
X5917313Y-5357803D01*
X7142826Y-5357803D01*
X7171396Y-5358727D01*
X7210796Y-5363580D01*
X7246049Y-5372592D01*
X7277154Y-5385763D01*
X7304112Y-5403094D01*
X7326922Y-5424584D01*
X7345585Y-5450233D01*
X7360101Y-5480042D01*
X7370470Y-5514011D01*
X7376691Y-5552138D01*
X7378534Y-5579867D01*
X7378764Y-5594425D01*
X7378764Y-5673071D01*
X7377843Y-5701725D01*
X7373004Y-5741239D01*
X7364018Y-5776594D01*
X7350885Y-5807789D01*
X7333604Y-5834825D01*
X7312176Y-5857702D01*
X7286601Y-5876419D01*
X7256878Y-5890977D01*
X7223008Y-5901375D01*
X7184991Y-5907614D01*
X7157341Y-5909463D01*
X7142826Y-5909694D01*
X6433642Y-5909694D01*
X6386227Y-5910402D01*
X6340410Y-5912526D01*
X6296190Y-5916065D01*
X6253568Y-5921021D01*
X6212543Y-5927392D01*
X6173116Y-5935179D01*
X6135286Y-5944382D01*
X6099054Y-5955001D01*
X6064419Y-5967036D01*
X6031382Y-5980486D01*
X5999942Y-5995352D01*
X5970100Y-6011635D01*
X5941855Y-6029333D01*
X5915208Y-6048447D01*
X5890158Y-6068976D01*
X5866706Y-6090922D01*
X5844760Y-6114374D01*
X5824230Y-6139424D01*
X5805116Y-6166071D01*
X5787418Y-6194316D01*
X5771136Y-6224158D01*
X5756270Y-6255598D01*
X5742819Y-6288635D01*
X5730785Y-6323270D01*
X5720166Y-6359503D01*
X5710963Y-6397332D01*
X5703176Y-6436760D01*
X5696804Y-6477784D01*
X5691849Y-6520407D01*
X5688309Y-6564626D01*
X5686185Y-6610444D01*
X5685478Y-6657859D01*
X5685478Y-6854816D01*
X5686185Y-6902314D01*
X5688309Y-6948208D01*
X5691849Y-6992500D01*
X5696804Y-7035189D01*
X5703176Y-7076276D01*
X5710963Y-7115759D01*
X5720166Y-7153639D01*
X5730785Y-7189917D01*
X5742819Y-7224592D01*
X5756270Y-7257664D01*
X5771136Y-7289133D01*
X5787418Y-7319000D01*
X5805116Y-7347263D01*
X5824230Y-7373924D01*
X5844760Y-7398981D01*
X5866706Y-7422436D01*
X5890158Y-7444382D01*
X5915208Y-7464912D01*
X5941855Y-7484026D01*
X5970100Y-7501724D01*
X5999942Y-7518006D01*
X6031382Y-7532872D01*
X6064419Y-7546323D01*
X6099054Y-7558357D01*
X6135286Y-7568976D01*
X6173116Y-7578179D01*
X6212543Y-7585966D01*
X6253568Y-7592338D01*
X6296190Y-7597293D01*
X6340410Y-7600833D01*
X6386227Y-7602957D01*
X6433642Y-7603665D01*
X6471545Y-7603592D01*
X6509857Y-7603376D01*
X6548578Y-7603015D01*
X6587708Y-7602510D01*
X6627246Y-7601861D01*
X6667193Y-7601068D01*
X6707548Y-7600130D01*
X6748312Y-7599048D01*
X6775716Y-7598247D01*
X6803301Y-7597381D01*
X6831067Y-7596452D01*
X6859016Y-7595458D01*
X7221472Y-7579729D01*
X7271841Y-7577188D01*
X7322419Y-7574525D01*
X7373205Y-7571739D01*
X7424200Y-7568829D01*
X7475402Y-7565797D01*
X7526814Y-7562642D01*
X7578433Y-7559365D01*
X7630261Y-7555964D01*
X7682298Y-7552440D01*
X7734542Y-7548794D01*
X7786995Y-7545025D01*
X7839657Y-7541132D01*
X7892526Y-7537117D01*
X7945605Y-7532979D01*
X7998891Y-7528718D01*
X8052386Y-7524334D01*
X8052386Y-6992960D01*
G37*
G36*
X4044166Y-7603665D02*
G01*
X4085422Y-7603587D01*
X4126955Y-7603355D01*
X4168765Y-7602967D01*
X4210851Y-7602425D01*
X4253213Y-7601728D01*
X4295852Y-7600876D01*
X4338768Y-7599868D01*
X4381960Y-7598706D01*
X4425428Y-7597389D01*
X4469173Y-7595917D01*
X4513194Y-7594291D01*
X4557492Y-7592509D01*
X4602067Y-7590572D01*
X4646918Y-7588480D01*
X4692045Y-7586234D01*
X4737449Y-7583832D01*
X4783129Y-7581275D01*
X4829086Y-7578564D01*
X4875320Y-7575698D01*
X4921829Y-7572676D01*
X4968616Y-7569500D01*
X5015679Y-7566169D01*
X5063018Y-7562682D01*
X5110634Y-7559041D01*
X5158526Y-7555245D01*
X5206695Y-7551294D01*
X5255140Y-7547188D01*
X5303862Y-7542927D01*
X5352860Y-7538512D01*
X5402135Y-7533941D01*
X5451686Y-7529215D01*
X5501514Y-7524334D01*
X5501514Y-6992960D01*
X5447533Y-6996578D01*
X5394414Y-7000082D01*
X5342157Y-7003470D01*
X5290761Y-7006744D01*
X5240227Y-7009903D01*
X5190554Y-7012947D01*
X5141743Y-7015876D01*
X5093793Y-7018691D01*
X5046705Y-7021390D01*
X5000478Y-7023975D01*
X4955113Y-7026444D01*
X4910609Y-7028799D01*
X4866967Y-7031039D01*
X4824187Y-7033164D01*
X4782268Y-7035175D01*
X4741210Y-7037070D01*
X4701014Y-7038850D01*
X4661680Y-7040516D01*
X4623207Y-7042067D01*
X4585595Y-7043503D01*
X4548846Y-7044824D01*
X4512957Y-7046030D01*
X4477930Y-7047121D01*
X4443765Y-7048098D01*
X4410461Y-7048959D01*
X4378019Y-7049706D01*
X4346439Y-7050338D01*
X4315719Y-7050854D01*
X4285862Y-7051256D01*
X4256866Y-7051544D01*
X4228731Y-7051716D01*
X4201458Y-7051773D01*
X4168904Y-7049922D01*
X4138947Y-7044368D01*
X4111587Y-7035112D01*
X4086823Y-7022153D01*
X4064655Y-7005491D01*
X4057843Y-6999115D01*
X4039715Y-6977789D01*
X4025338Y-6953818D01*
X4014711Y-6927203D01*
X4007834Y-6897943D01*
X4004709Y-6866039D01*
X4004501Y-6854816D01*
X4004501Y-6697524D01*
X4005425Y-6668870D01*
X4010277Y-6629356D01*
X4019289Y-6594001D01*
X4032461Y-6562806D01*
X4049792Y-6535770D01*
X4071282Y-6512893D01*
X4096931Y-6494176D01*
X4126740Y-6479618D01*
X4160708Y-6469220D01*
X4198836Y-6462981D01*
X4226565Y-6461132D01*
X4241123Y-6460901D01*
X5067934Y-6460901D01*
X5067934Y-5909694D01*
X4319769Y-5909694D01*
X4291116Y-5908770D01*
X4251602Y-5903917D01*
X4216247Y-5894905D01*
X4185052Y-5881734D01*
X4158016Y-5864403D01*
X4135139Y-5842913D01*
X4116422Y-5817263D01*
X4101864Y-5787454D01*
X4091466Y-5753486D01*
X4085226Y-5715358D01*
X4083378Y-5687629D01*
X4083147Y-5673071D01*
X4083147Y-5594425D01*
X4084071Y-5565772D01*
X4088924Y-5526258D01*
X4097936Y-5490903D01*
X4111107Y-5459708D01*
X4128438Y-5432672D01*
X4149928Y-5409795D01*
X4175577Y-5391078D01*
X4205386Y-5376520D01*
X4239355Y-5366121D01*
X4277482Y-5359882D01*
X4305211Y-5358034D01*
X4319769Y-5357803D01*
X5461849Y-5357803D01*
X5461849Y-4806595D01*
X4122812Y-4806595D01*
X4075314Y-4807282D01*
X4029419Y-4809342D01*
X3985128Y-4812774D01*
X3942438Y-4817580D01*
X3901352Y-4823759D01*
X3861869Y-4831311D01*
X3823988Y-4840236D01*
X3787711Y-4850535D01*
X3753036Y-4862206D01*
X3719964Y-4875251D01*
X3688495Y-4889668D01*
X3658628Y-4905459D01*
X3630365Y-4922623D01*
X3603704Y-4941160D01*
X3578646Y-4961070D01*
X3555191Y-4982353D01*
X3533246Y-5004953D01*
X3512716Y-5028985D01*
X3493602Y-5054449D01*
X3475904Y-5081344D01*
X3459622Y-5109672D01*
X3444755Y-5139431D01*
X3431305Y-5170623D01*
X3419270Y-5203246D01*
X3408651Y-5237301D01*
X3399448Y-5272788D01*
X3391661Y-5309707D01*
X3385290Y-5348057D01*
X3380335Y-5387840D01*
X3376795Y-5429054D01*
X3374671Y-5471701D01*
X3373963Y-5515779D01*
X3374388Y-5544927D01*
X3375662Y-5573385D01*
X3377786Y-5601154D01*
X3382564Y-5641516D01*
X3389254Y-5680327D01*
X3397856Y-5717587D01*
X3408368Y-5753296D01*
X3420792Y-5787455D01*
X3435128Y-5820063D01*
X3451375Y-5851120D01*
X3469533Y-5880626D01*
X3482700Y-5899436D01*
X3503567Y-5926357D01*
X3525648Y-5951728D01*
X3548944Y-5975549D01*
X3573453Y-5997818D01*
X3599177Y-6018537D01*
X3626115Y-6037705D01*
X3654267Y-6055322D01*
X3683633Y-6071389D01*
X3714213Y-6085904D01*
X3746007Y-6098869D01*
X3767878Y-6106651D01*
X3728841Y-6118491D01*
X3691401Y-6132297D01*
X3655559Y-6148069D01*
X3621314Y-6165807D01*
X3588667Y-6185511D01*
X3557617Y-6207182D01*
X3528165Y-6230818D01*
X3500310Y-6256421D01*
X3474053Y-6283990D01*
X3449393Y-6313525D01*
X3426331Y-6345026D01*
X3404866Y-6378494D01*
X3384999Y-6413927D01*
X3366729Y-6451327D01*
X3350057Y-6490693D01*
X3334982Y-6532025D01*
X3325686Y-6563088D01*
X3317629Y-6595412D01*
X3310811Y-6628997D01*
X3305233Y-6663842D01*
X3300895Y-6699949D01*
X3298455Y-6727857D01*
X3296711Y-6756473D01*
X3295666Y-6785800D01*
X3295317Y-6815835D01*
X3295317Y-6854816D01*
X3296025Y-6902314D01*
X3298149Y-6948208D01*
X3301688Y-6992500D01*
X3306644Y-7035189D01*
X3313015Y-7076276D01*
X3320802Y-7115759D01*
X3330005Y-7153639D01*
X3340624Y-7189917D01*
X3352659Y-7224592D01*
X3366109Y-7257664D01*
X3380976Y-7289133D01*
X3397258Y-7319000D01*
X3414956Y-7347263D01*
X3434070Y-7373924D01*
X3454600Y-7398981D01*
X3476545Y-7422436D01*
X3500000Y-7444382D01*
X3525058Y-7464912D01*
X3551719Y-7484026D01*
X3579982Y-7501724D01*
X3609848Y-7518006D01*
X3641318Y-7532872D01*
X3674390Y-7546323D01*
X3709064Y-7558357D01*
X3745342Y-7568976D01*
X3783223Y-7578179D01*
X3822706Y-7585966D01*
X3863792Y-7592338D01*
X3906481Y-7597293D01*
X3950773Y-7600833D01*
X3996668Y-7602957D01*
X4044166Y-7603665D01*
G37*
D11*
G36*
X29902034Y-9771699D02*
G01*
X29543363Y-8737819D01*
X29131936Y-8737819D01*
X29691008Y-10215000D01*
X30113059Y-10215000D01*
X30672498Y-8737819D01*
X30260704Y-8737819D01*
X29902034Y-9771699D01*
G37*
G36*
X28821358Y-9075957D02*
G01*
X28840339Y-9077009D01*
X28858784Y-9078762D01*
X28876694Y-9081217D01*
X28894070Y-9084372D01*
X28910909Y-9088229D01*
X28927214Y-9092787D01*
X28942983Y-9098046D01*
X28958218Y-9104007D01*
X28972917Y-9110669D01*
X28987080Y-9118032D01*
X29000709Y-9126096D01*
X29013802Y-9134862D01*
X29026360Y-9144329D01*
X29038383Y-9154497D01*
X29049870Y-9165366D01*
X29060740Y-9176809D01*
X29070908Y-9188790D01*
X29080374Y-9201310D01*
X29089140Y-9214367D01*
X29097204Y-9227963D01*
X29104567Y-9242096D01*
X29111229Y-9256768D01*
X29117190Y-9271978D01*
X29122449Y-9287726D01*
X29127007Y-9304012D01*
X29130864Y-9320836D01*
X29134020Y-9338198D01*
X29136474Y-9356099D01*
X29138227Y-9374537D01*
X29139279Y-9393513D01*
X29139630Y-9413028D01*
X29139630Y-9919710D01*
X29139292Y-9937396D01*
X29138279Y-9954640D01*
X29136590Y-9971445D01*
X29134226Y-9987808D01*
X29131186Y-10003730D01*
X29127471Y-10019212D01*
X29123080Y-10034253D01*
X29118014Y-10048853D01*
X29112272Y-10063013D01*
X29105855Y-10076731D01*
X29098763Y-10090009D01*
X29090995Y-10102846D01*
X29082551Y-10115243D01*
X29073432Y-10127198D01*
X29063638Y-10138713D01*
X29053168Y-10149787D01*
X29042094Y-10160257D01*
X29030579Y-10170051D01*
X29018623Y-10179170D01*
X29006227Y-10187614D01*
X28993390Y-10195382D01*
X28980112Y-10202474D01*
X28966394Y-10208892D01*
X28952234Y-10214633D01*
X28937634Y-10219699D01*
X28922593Y-10224090D01*
X28907111Y-10227805D01*
X28891189Y-10230845D01*
X28874825Y-10233209D01*
X28858021Y-10234898D01*
X28840776Y-10235911D01*
X28823091Y-10236249D01*
X28802295Y-10236207D01*
X28781351Y-10236083D01*
X28760260Y-10235875D01*
X28739022Y-10235585D01*
X28717636Y-10235211D01*
X28696103Y-10234755D01*
X28674422Y-10234215D01*
X28652594Y-10233592D01*
X28630619Y-10232887D01*
X28608496Y-10232098D01*
X28586226Y-10231227D01*
X28563808Y-10230272D01*
X28541243Y-10229235D01*
X28518530Y-10228114D01*
X28495671Y-10226911D01*
X28472663Y-10225624D01*
X28449509Y-10224254D01*
X28426207Y-10222802D01*
X28402757Y-10221266D01*
X28379160Y-10219648D01*
X28355416Y-10217946D01*
X28331524Y-10216162D01*
X28307485Y-10214294D01*
X28283299Y-10212343D01*
X28258965Y-10210310D01*
X28234484Y-10208193D01*
X28209855Y-10205994D01*
X28185079Y-10203711D01*
X28160155Y-10201345D01*
X28135084Y-10198897D01*
X28109866Y-10196365D01*
X28084500Y-10193750D01*
X28084500Y-9929968D01*
X28109498Y-9931929D01*
X28134117Y-9933828D01*
X28158356Y-9935664D01*
X28182217Y-9937438D01*
X28205698Y-9939150D01*
X28228799Y-9940800D01*
X28251522Y-9942388D01*
X28273865Y-9943913D01*
X28295829Y-9945376D01*
X28317414Y-9946776D01*
X28338619Y-9948115D01*
X28359445Y-9949391D01*
X28379892Y-9950605D01*
X28399960Y-9951757D01*
X28419649Y-9952846D01*
X28438958Y-9953873D01*
X28457888Y-9954838D01*
X28476439Y-9955741D01*
X28494610Y-9956581D01*
X28512402Y-9957360D01*
X28529815Y-9958075D01*
X28546849Y-9958729D01*
X28563504Y-9959321D01*
X28579779Y-9959850D01*
X28595675Y-9960317D01*
X28611192Y-9960721D01*
X28626330Y-9961064D01*
X28641088Y-9961344D01*
X28669467Y-9961717D01*
X28696329Y-9961842D01*
X28705924Y-9961332D01*
X28721934Y-9957845D01*
X28736321Y-9951054D01*
X28749085Y-9940959D01*
X28756307Y-9932617D01*
X28764337Y-9918703D01*
X28769006Y-9903109D01*
X28770334Y-9887836D01*
X28770334Y-9803572D01*
X28042002Y-9803572D01*
X28042002Y-9539790D01*
X28411297Y-9539790D01*
X28770334Y-9539790D01*
X28770334Y-9423653D01*
X28770252Y-9418468D01*
X28768268Y-9399377D01*
X28763640Y-9382920D01*
X28756367Y-9369095D01*
X28746449Y-9357904D01*
X28733887Y-9349346D01*
X28718680Y-9343421D01*
X28700829Y-9340129D01*
X28685704Y-9339389D01*
X28495927Y-9339389D01*
X28490721Y-9339471D01*
X28471547Y-9341446D01*
X28455017Y-9346054D01*
X28441133Y-9353296D01*
X28429893Y-9363170D01*
X28421298Y-9375678D01*
X28415347Y-9390819D01*
X28412041Y-9408594D01*
X28411297Y-9423653D01*
X28411297Y-9539790D01*
X28042002Y-9539790D01*
X28042002Y-9413028D01*
X28042353Y-9393513D01*
X28043405Y-9374537D01*
X28045158Y-9356099D01*
X28047612Y-9338198D01*
X28050768Y-9320836D01*
X28054625Y-9304012D01*
X28059183Y-9287726D01*
X28064442Y-9271978D01*
X28070403Y-9256768D01*
X28077064Y-9242096D01*
X28084427Y-9227963D01*
X28092492Y-9214367D01*
X28101257Y-9201310D01*
X28110724Y-9188790D01*
X28120892Y-9176809D01*
X28131761Y-9165366D01*
X28143249Y-9154497D01*
X28155272Y-9144329D01*
X28167830Y-9134862D01*
X28180923Y-9126096D01*
X28194551Y-9118032D01*
X28208715Y-9110669D01*
X28223414Y-9104007D01*
X28238648Y-9098046D01*
X28254418Y-9092787D01*
X28270722Y-9088229D01*
X28287562Y-9084372D01*
X28304937Y-9081217D01*
X28322848Y-9078762D01*
X28341293Y-9077009D01*
X28360274Y-9075957D01*
X28379790Y-9075607D01*
X28801842Y-9075607D01*
X28821358Y-9075957D01*
G37*
G36*
X27215851Y-9402404D02*
G01*
X27232507Y-9402651D01*
X27249230Y-9403394D01*
X27266018Y-9404632D01*
X27282872Y-9406365D01*
X27299793Y-9408593D01*
X27316778Y-9411317D01*
X27333830Y-9414535D01*
X27350948Y-9418249D01*
X27368131Y-9422458D01*
X27385380Y-9427162D01*
X27402695Y-9432361D01*
X27420076Y-9438055D01*
X27437523Y-9444245D01*
X27455035Y-9450930D01*
X27472613Y-9458110D01*
X27490258Y-9465785D01*
X27490258Y-10215000D01*
X27859553Y-10215000D01*
X27859553Y-9096489D01*
X27532389Y-9096489D01*
X27511507Y-9233876D01*
X27500133Y-9224139D01*
X27488728Y-9214711D01*
X27465820Y-9196782D01*
X27442783Y-9180089D01*
X27419618Y-9164633D01*
X27396324Y-9150414D01*
X27372901Y-9137431D01*
X27349349Y-9125684D01*
X27325668Y-9115174D01*
X27301859Y-9105900D01*
X27277921Y-9097863D01*
X27253854Y-9091063D01*
X27229658Y-9085498D01*
X27205334Y-9081171D01*
X27180880Y-9078080D01*
X27156298Y-9076225D01*
X27131587Y-9075607D01*
X27036699Y-9075607D01*
X27036699Y-9402404D01*
X27215851Y-9402404D01*
G37*
G36*
X26935948Y-9919710D02*
G01*
X26909358Y-9921648D01*
X26883122Y-9923525D01*
X26857240Y-9925341D01*
X26831712Y-9927094D01*
X26806538Y-9928787D01*
X26781719Y-9930417D01*
X26757254Y-9931987D01*
X26733143Y-9933494D01*
X26709386Y-9934940D01*
X26685984Y-9936325D01*
X26662935Y-9937648D01*
X26640241Y-9938910D01*
X26617901Y-9940110D01*
X26595915Y-9941248D01*
X26574284Y-9942325D01*
X26553006Y-9943340D01*
X26532083Y-9944294D01*
X26511514Y-9945187D01*
X26491299Y-9946017D01*
X26471439Y-9946787D01*
X26451932Y-9947494D01*
X26432780Y-9948140D01*
X26413982Y-9948725D01*
X26395538Y-9949248D01*
X26377449Y-9949710D01*
X26359713Y-9950110D01*
X26342332Y-9950448D01*
X26325305Y-9950725D01*
X26308632Y-9950940D01*
X26292314Y-9951094D01*
X26276349Y-9951186D01*
X26260739Y-9951217D01*
X26245627Y-9949912D01*
X26230158Y-9945324D01*
X26216312Y-9937431D01*
X26207983Y-9930334D01*
X26197711Y-9917541D01*
X26190801Y-9903068D01*
X26187481Y-9888791D01*
X26186733Y-9877212D01*
X26186733Y-9803572D01*
X26640659Y-9803572D01*
X26658344Y-9803235D01*
X26675589Y-9802221D01*
X26692393Y-9800533D01*
X26708757Y-9798169D01*
X26724679Y-9795129D01*
X26740161Y-9791414D01*
X26755202Y-9787023D01*
X26769802Y-9781957D01*
X26783962Y-9776215D01*
X26797680Y-9769798D01*
X26810958Y-9762706D01*
X26823795Y-9754938D01*
X26836191Y-9746494D01*
X26848147Y-9737375D01*
X26859662Y-9727580D01*
X26870736Y-9717110D01*
X26881206Y-9706037D01*
X26891000Y-9694522D01*
X26900119Y-9682566D01*
X26908563Y-9670170D01*
X26916331Y-9657333D01*
X26923423Y-9644055D01*
X26929840Y-9630337D01*
X26935582Y-9616177D01*
X26940648Y-9601577D01*
X26945039Y-9586536D01*
X26948754Y-9571054D01*
X26951794Y-9555132D01*
X26954158Y-9538768D01*
X26955847Y-9521964D01*
X26956860Y-9504719D01*
X26957198Y-9487034D01*
X26957198Y-9413028D01*
X26956860Y-9395344D01*
X26955847Y-9378103D01*
X26954158Y-9361306D01*
X26951794Y-9344953D01*
X26948754Y-9329043D01*
X26945039Y-9313577D01*
X26940648Y-9298555D01*
X26935582Y-9283976D01*
X26929840Y-9269841D01*
X26923423Y-9256150D01*
X26916331Y-9242902D01*
X26908563Y-9230098D01*
X26900119Y-9217737D01*
X26891000Y-9205820D01*
X26881206Y-9194347D01*
X26870736Y-9183318D01*
X26859662Y-9172803D01*
X26848147Y-9162967D01*
X26836191Y-9153810D01*
X26823795Y-9145330D01*
X26810958Y-9137529D01*
X26797680Y-9130407D01*
X26783962Y-9123962D01*
X26769802Y-9118196D01*
X26755202Y-9113109D01*
X26740161Y-9108700D01*
X26724679Y-9104969D01*
X26708757Y-9101916D01*
X26692393Y-9099542D01*
X26675589Y-9097846D01*
X26658344Y-9096829D01*
X26640659Y-9096489D01*
X25922951Y-9096489D01*
X25922951Y-9370896D01*
X26513897Y-9370896D01*
X26529170Y-9372224D01*
X26544764Y-9376893D01*
X26558678Y-9384924D01*
X26567020Y-9392145D01*
X26577114Y-9404761D01*
X26583905Y-9419116D01*
X26587393Y-9435210D01*
X26587902Y-9444902D01*
X26586597Y-9460014D01*
X26582009Y-9475483D01*
X26574116Y-9489329D01*
X26567020Y-9497658D01*
X26554227Y-9507753D01*
X26539753Y-9514544D01*
X26523598Y-9518031D01*
X26513897Y-9518541D01*
X26133977Y-9518541D01*
X26116293Y-9518880D01*
X26099052Y-9519898D01*
X26082255Y-9521594D01*
X26065902Y-9523968D01*
X26049992Y-9527020D01*
X26034526Y-9530751D01*
X26019504Y-9535161D01*
X26004925Y-9540248D01*
X25990790Y-9546014D01*
X25977099Y-9552458D01*
X25963851Y-9559581D01*
X25951047Y-9567382D01*
X25938686Y-9575861D01*
X25926769Y-9585019D01*
X25915296Y-9594855D01*
X25904267Y-9605369D01*
X25893752Y-9616399D01*
X25883916Y-9627872D01*
X25874759Y-9639789D01*
X25866279Y-9652149D01*
X25858478Y-9664954D01*
X25851356Y-9678201D01*
X25844911Y-9691893D01*
X25839145Y-9706028D01*
X25834058Y-9720607D01*
X25829649Y-9735629D01*
X25825918Y-9751095D01*
X25822865Y-9767005D01*
X25820491Y-9783358D01*
X25818795Y-9800155D01*
X25817777Y-9817396D01*
X25817438Y-9835080D01*
X25817438Y-9919710D01*
X25817777Y-9937396D01*
X25818795Y-9954640D01*
X25820491Y-9971445D01*
X25822865Y-9987808D01*
X25825918Y-10003730D01*
X25829649Y-10019212D01*
X25834058Y-10034253D01*
X25839145Y-10048853D01*
X25844911Y-10063013D01*
X25851356Y-10076731D01*
X25858478Y-10090009D01*
X25866279Y-10102846D01*
X25874759Y-10115243D01*
X25883916Y-10127198D01*
X25893752Y-10138713D01*
X25904267Y-10149787D01*
X25915296Y-10160257D01*
X25926769Y-10170051D01*
X25938686Y-10179170D01*
X25951047Y-10187614D01*
X25963851Y-10195382D01*
X25977099Y-10202474D01*
X25990790Y-10208892D01*
X26004925Y-10214633D01*
X26019504Y-10219699D01*
X26034526Y-10224090D01*
X26049992Y-10227805D01*
X26065902Y-10230845D01*
X26082255Y-10233209D01*
X26099052Y-10234898D01*
X26116293Y-10235911D01*
X26133977Y-10236249D01*
X26157386Y-10236207D01*
X26180902Y-10236083D01*
X26204524Y-10235875D01*
X26228253Y-10235585D01*
X26252088Y-10235211D01*
X26276030Y-10234755D01*
X26300079Y-10234215D01*
X26324235Y-10233592D01*
X26348497Y-10232887D01*
X26372865Y-10232098D01*
X26397340Y-10231227D01*
X26421922Y-10230272D01*
X26446611Y-10229235D01*
X26471406Y-10228114D01*
X26496307Y-10226911D01*
X26521316Y-10225624D01*
X26546431Y-10224254D01*
X26571652Y-10222802D01*
X26596980Y-10221266D01*
X26622415Y-10219648D01*
X26647956Y-10217946D01*
X26673604Y-10216162D01*
X26699359Y-10214294D01*
X26725220Y-10212343D01*
X26751188Y-10210310D01*
X26777263Y-10208193D01*
X26803444Y-10205994D01*
X26829731Y-10203711D01*
X26856126Y-10201345D01*
X26882627Y-10198897D01*
X26909234Y-10196365D01*
X26935948Y-10193750D01*
X26935948Y-9919710D01*
G37*
G36*
X25232355Y-9138621D02*
G01*
X25232355Y-10215000D01*
X25601650Y-10215000D01*
X25601650Y-9423653D01*
X25759919Y-9423653D01*
X25759919Y-9138621D01*
X25232355Y-9138621D01*
G37*
G36*
X25601650Y-8716570D02*
G01*
X25232355Y-8716570D01*
X25232355Y-9012226D01*
X25601650Y-9012226D01*
X25601650Y-8716570D01*
G37*
G36*
X24728336Y-9075957D02*
G01*
X24747317Y-9077009D01*
X24765762Y-9078762D01*
X24783673Y-9081217D01*
X24801048Y-9084372D01*
X24817888Y-9088229D01*
X24834192Y-9092787D01*
X24849962Y-9098046D01*
X24865196Y-9104007D01*
X24879895Y-9110669D01*
X24894059Y-9118032D01*
X24907687Y-9126096D01*
X24920780Y-9134862D01*
X24933338Y-9144329D01*
X24945361Y-9154497D01*
X24956849Y-9165366D01*
X24967718Y-9176809D01*
X24977886Y-9188790D01*
X24987353Y-9201310D01*
X24996118Y-9214367D01*
X25004183Y-9227963D01*
X25011546Y-9242096D01*
X25018207Y-9256768D01*
X25024168Y-9271978D01*
X25029427Y-9287726D01*
X25033985Y-9304012D01*
X25037842Y-9320836D01*
X25040998Y-9338198D01*
X25043452Y-9356099D01*
X25045205Y-9374537D01*
X25046257Y-9393513D01*
X25046608Y-9413028D01*
X25046608Y-9898461D01*
X25046257Y-9917977D01*
X25045205Y-9936958D01*
X25043452Y-9955403D01*
X25040998Y-9973314D01*
X25037842Y-9990689D01*
X25033985Y-10007529D01*
X25029427Y-10023833D01*
X25024168Y-10039603D01*
X25018207Y-10054837D01*
X25011546Y-10069536D01*
X25004183Y-10083699D01*
X24996118Y-10097328D01*
X24987353Y-10110421D01*
X24977886Y-10122979D01*
X24967718Y-10135002D01*
X24956849Y-10146489D01*
X24945361Y-10157359D01*
X24933338Y-10167527D01*
X24920780Y-10176994D01*
X24907687Y-10185759D01*
X24894059Y-10193823D01*
X24879895Y-10201186D01*
X24865196Y-10207848D01*
X24849962Y-10213809D01*
X24834192Y-10219068D01*
X24817888Y-10223626D01*
X24801048Y-10227483D01*
X24783673Y-10230639D01*
X24765762Y-10233093D01*
X24747317Y-10234846D01*
X24728336Y-10235898D01*
X24708820Y-10236249D01*
X24223387Y-10236249D01*
X24203873Y-10235898D01*
X24184896Y-10234846D01*
X24166458Y-10233093D01*
X24148557Y-10230639D01*
X24131195Y-10227483D01*
X24114371Y-10223626D01*
X24098085Y-10219068D01*
X24082337Y-10213809D01*
X24067127Y-10207848D01*
X24052456Y-10201186D01*
X24038322Y-10193823D01*
X24024726Y-10185759D01*
X24011669Y-10176994D01*
X23999150Y-10167527D01*
X23987168Y-10157359D01*
X23975725Y-10146489D01*
X23964856Y-10135002D01*
X23954688Y-10122979D01*
X23945221Y-10110421D01*
X23936455Y-10097328D01*
X23928391Y-10083699D01*
X23921028Y-10069536D01*
X23914366Y-10054837D01*
X23908406Y-10039603D01*
X23903146Y-10023833D01*
X23898588Y-10007529D01*
X23894731Y-9990689D01*
X23891576Y-9973314D01*
X23889121Y-9955403D01*
X23887368Y-9936958D01*
X23886316Y-9917977D01*
X23885966Y-9898461D01*
X23885966Y-9866953D01*
X24255261Y-9866953D01*
X24255343Y-9872138D01*
X24257318Y-9891229D01*
X24261926Y-9907686D01*
X24269168Y-9921511D01*
X24279043Y-9932702D01*
X24291550Y-9941260D01*
X24306692Y-9947185D01*
X24324466Y-9950477D01*
X24339525Y-9951217D01*
X24592683Y-9951217D01*
X24597889Y-9951135D01*
X24617063Y-9949160D01*
X24633593Y-9944552D01*
X24647477Y-9937310D01*
X24658717Y-9927436D01*
X24667312Y-9914928D01*
X24673263Y-9899787D01*
X24676569Y-9882012D01*
X24677313Y-9866953D01*
X24677313Y-9444902D01*
X24677230Y-9439695D01*
X24675247Y-9420521D01*
X24670618Y-9403992D01*
X24663345Y-9390107D01*
X24653428Y-9378867D01*
X24640866Y-9370272D01*
X24625659Y-9364321D01*
X24607807Y-9361015D01*
X24592683Y-9360272D01*
X24339525Y-9360272D01*
X24334341Y-9360354D01*
X24315250Y-9362338D01*
X24298792Y-9366966D01*
X24284967Y-9374239D01*
X24273776Y-9384157D01*
X24265218Y-9396719D01*
X24259293Y-9411926D01*
X24256002Y-9429777D01*
X24255261Y-9444902D01*
X24255261Y-9866953D01*
X23885966Y-9866953D01*
X23885966Y-9413028D01*
X23886316Y-9393513D01*
X23887368Y-9374537D01*
X23889121Y-9356099D01*
X23891576Y-9338198D01*
X23894731Y-9320836D01*
X23898588Y-9304012D01*
X23903146Y-9287726D01*
X23908406Y-9271978D01*
X23914366Y-9256768D01*
X23921028Y-9242096D01*
X23928391Y-9227963D01*
X23936455Y-9214367D01*
X23945221Y-9201310D01*
X23954688Y-9188790D01*
X23964856Y-9176809D01*
X23975725Y-9165366D01*
X23987168Y-9154497D01*
X23999150Y-9144329D01*
X24011669Y-9134862D01*
X24024726Y-9126096D01*
X24038322Y-9118032D01*
X24052456Y-9110669D01*
X24067127Y-9104007D01*
X24082337Y-9098046D01*
X24098085Y-9092787D01*
X24114371Y-9088229D01*
X24131195Y-9084372D01*
X24148557Y-9081217D01*
X24166458Y-9078762D01*
X24184896Y-9077009D01*
X24203873Y-9075957D01*
X24223387Y-9075607D01*
X24708820Y-9075607D01*
X24728336Y-9075957D01*
G37*
G36*
X23081064Y-9381521D02*
G01*
X23102276Y-9381891D01*
X23124010Y-9383002D01*
X23138789Y-9384154D01*
X23153800Y-9385635D01*
X23169043Y-9387446D01*
X23184517Y-9389585D01*
X23200224Y-9392054D01*
X23216162Y-9394852D01*
X23232332Y-9397979D01*
X23248734Y-9401435D01*
X23265368Y-9405220D01*
X23282233Y-9409334D01*
X23299331Y-9413778D01*
X23316660Y-9418551D01*
X23334221Y-9423653D01*
X23334221Y-10215000D01*
X23703516Y-10215000D01*
X23703516Y-9096489D01*
X23376353Y-9096489D01*
X23355470Y-9202002D01*
X23343040Y-9193987D01*
X23330569Y-9186243D01*
X23311788Y-9175137D01*
X23292917Y-9164643D01*
X23273955Y-9154761D01*
X23254903Y-9145491D01*
X23235762Y-9136832D01*
X23216530Y-9128785D01*
X23197207Y-9121350D01*
X23177795Y-9114527D01*
X23158293Y-9108316D01*
X23151772Y-9106381D01*
X23132481Y-9100881D01*
X23113763Y-9095923D01*
X23095618Y-9091505D01*
X23078047Y-9087628D01*
X23061048Y-9084292D01*
X23044623Y-9081497D01*
X23028771Y-9079243D01*
X23013492Y-9077530D01*
X22998787Y-9076358D01*
X22980070Y-9075637D01*
X22975551Y-9075607D01*
X22880662Y-9075607D01*
X22862934Y-9075944D01*
X22845652Y-9076958D01*
X22828816Y-9078646D01*
X22812427Y-9081010D01*
X22796484Y-9084050D01*
X22780988Y-9087765D01*
X22765939Y-9092156D01*
X22751336Y-9097222D01*
X22737179Y-9102964D01*
X22723469Y-9109381D01*
X22710206Y-9116473D01*
X22697389Y-9124241D01*
X22685018Y-9132685D01*
X22673094Y-9141804D01*
X22661617Y-9151599D01*
X22650586Y-9162069D01*
X22640116Y-9173100D01*
X22630321Y-9184577D01*
X22621202Y-9196501D01*
X22612758Y-9208872D01*
X22604990Y-9221689D01*
X22597898Y-9234952D01*
X22591481Y-9248662D01*
X22585739Y-9262819D01*
X22580673Y-9277422D01*
X22576282Y-9292471D01*
X22572567Y-9307967D01*
X22569527Y-9323910D01*
X22567163Y-9340299D01*
X22565475Y-9357135D01*
X22564461Y-9374417D01*
X22564124Y-9392145D01*
X22564124Y-10215000D01*
X22933419Y-10215000D01*
X22933419Y-9455160D01*
X22934747Y-9440070D01*
X22939416Y-9424682D01*
X22947447Y-9410974D01*
X22954668Y-9402770D01*
X22967255Y-9392498D01*
X22981523Y-9385588D01*
X22997471Y-9382040D01*
X23007058Y-9381521D01*
X23081064Y-9381521D01*
G37*
G36*
X21034186Y-10236249D02*
G01*
X21056288Y-10236207D01*
X21078538Y-10236083D01*
X21100936Y-10235875D01*
X21123482Y-10235585D01*
X21146176Y-10235211D01*
X21169018Y-10234755D01*
X21192009Y-10234215D01*
X21215147Y-10233592D01*
X21238434Y-10232887D01*
X21261869Y-10232098D01*
X21285452Y-10231227D01*
X21309183Y-10230272D01*
X21333062Y-10229235D01*
X21357089Y-10228114D01*
X21381265Y-10226911D01*
X21405588Y-10225624D01*
X21430060Y-10224254D01*
X21454680Y-10222802D01*
X21479447Y-10221266D01*
X21504363Y-10219648D01*
X21529428Y-10217946D01*
X21554640Y-10216162D01*
X21580000Y-10214294D01*
X21605509Y-10212343D01*
X21631165Y-10210310D01*
X21656970Y-10208193D01*
X21682923Y-10205994D01*
X21709024Y-10203711D01*
X21735273Y-10201345D01*
X21761670Y-10198897D01*
X21788215Y-10196365D01*
X21814909Y-10193750D01*
X21814909Y-9909085D01*
X21785991Y-9911024D01*
X21757534Y-9912901D01*
X21729539Y-9914716D01*
X21702005Y-9916470D01*
X21674934Y-9918162D01*
X21648323Y-9919793D01*
X21622174Y-9921362D01*
X21596487Y-9922870D01*
X21571261Y-9924316D01*
X21546497Y-9925701D01*
X21522194Y-9927024D01*
X21498353Y-9928285D01*
X21474973Y-9929485D01*
X21452055Y-9930624D01*
X21429598Y-9931700D01*
X21407603Y-9932716D01*
X21386070Y-9933670D01*
X21364998Y-9934562D01*
X21344387Y-9935393D01*
X21324238Y-9936162D01*
X21304551Y-9936870D01*
X21285325Y-9937516D01*
X21266560Y-9938100D01*
X21248258Y-9938623D01*
X21230416Y-9939085D01*
X21213037Y-9939485D01*
X21196118Y-9939823D01*
X21179662Y-9940100D01*
X21163666Y-9940316D01*
X21148133Y-9940470D01*
X21133061Y-9940562D01*
X21118450Y-9940593D01*
X21101011Y-9939601D01*
X21084962Y-9936626D01*
X21070305Y-9931667D01*
X21057038Y-9924725D01*
X21045163Y-9915799D01*
X21041514Y-9912383D01*
X21031802Y-9900958D01*
X21024100Y-9888117D01*
X21018407Y-9873859D01*
X21014723Y-9858184D01*
X21013049Y-9841092D01*
X21012937Y-9835080D01*
X21012937Y-9750816D01*
X21013432Y-9735466D01*
X21016032Y-9714298D01*
X21020860Y-9695358D01*
X21027916Y-9678646D01*
X21037200Y-9664162D01*
X21048713Y-9651907D01*
X21062454Y-9641880D01*
X21078423Y-9634081D01*
X21096620Y-9628510D01*
X21117046Y-9625168D01*
X21131900Y-9624178D01*
X21139699Y-9624054D01*
X21582634Y-9624054D01*
X21582634Y-9328764D01*
X21181831Y-9328764D01*
X21166481Y-9328269D01*
X21145313Y-9325670D01*
X21126373Y-9320842D01*
X21109661Y-9313786D01*
X21095177Y-9304501D01*
X21082922Y-9292989D01*
X21072895Y-9279248D01*
X21065096Y-9263279D01*
X21059526Y-9245082D01*
X21056183Y-9224656D01*
X21055193Y-9209801D01*
X21055069Y-9202002D01*
X21055069Y-9159870D01*
X21055564Y-9144520D01*
X21058164Y-9123352D01*
X21062992Y-9104412D01*
X21070048Y-9087700D01*
X21079332Y-9073217D01*
X21090845Y-9060961D01*
X21104586Y-9050934D01*
X21120555Y-9043135D01*
X21138752Y-9037565D01*
X21159177Y-9034222D01*
X21174032Y-9033232D01*
X21181831Y-9033108D01*
X21793660Y-9033108D01*
X21793660Y-8737819D01*
X21076318Y-8737819D01*
X21050873Y-8738187D01*
X21026287Y-8739290D01*
X21002559Y-8741129D01*
X20979690Y-8743703D01*
X20957679Y-8747014D01*
X20936527Y-8751059D01*
X20916234Y-8755841D01*
X20896800Y-8761358D01*
X20878224Y-8767610D01*
X20860507Y-8774598D01*
X20843648Y-8782322D01*
X20827649Y-8790781D01*
X20812507Y-8799976D01*
X20798225Y-8809907D01*
X20784801Y-8820573D01*
X20772236Y-8831974D01*
X20760479Y-8844082D01*
X20749481Y-8856956D01*
X20739242Y-8870597D01*
X20729761Y-8885006D01*
X20721038Y-8900181D01*
X20713074Y-8916124D01*
X20705868Y-8932833D01*
X20699421Y-8950310D01*
X20693732Y-8968554D01*
X20688802Y-8987565D01*
X20684631Y-9007343D01*
X20681217Y-9027888D01*
X20678563Y-9049200D01*
X20676666Y-9071279D01*
X20675529Y-9094125D01*
X20675149Y-9117739D01*
X20675377Y-9133353D01*
X20676060Y-9148599D01*
X20677197Y-9163475D01*
X20679757Y-9185098D01*
X20683341Y-9205889D01*
X20687949Y-9225850D01*
X20693581Y-9244980D01*
X20700236Y-9263279D01*
X20707916Y-9280748D01*
X20716620Y-9297385D01*
X20726347Y-9313192D01*
X20733401Y-9323269D01*
X20744580Y-9337691D01*
X20756409Y-9351283D01*
X20768889Y-9364044D01*
X20782019Y-9375974D01*
X20795800Y-9387073D01*
X20810230Y-9397342D01*
X20825312Y-9406780D01*
X20841044Y-9415387D01*
X20857426Y-9423163D01*
X20874459Y-9430108D01*
X20886175Y-9434277D01*
X20865262Y-9440620D01*
X20845205Y-9448016D01*
X20826004Y-9456465D01*
X20807659Y-9465968D01*
X20790169Y-9476524D01*
X20773535Y-9488133D01*
X20757757Y-9500795D01*
X20742835Y-9514511D01*
X20728769Y-9529280D01*
X20715558Y-9545102D01*
X20703203Y-9561978D01*
X20691704Y-9579907D01*
X20681061Y-9598889D01*
X20671274Y-9618925D01*
X20662342Y-9640014D01*
X20654267Y-9662156D01*
X20649286Y-9678797D01*
X20644970Y-9696113D01*
X20641318Y-9714105D01*
X20638330Y-9732773D01*
X20636006Y-9752115D01*
X20634698Y-9767066D01*
X20633765Y-9782396D01*
X20633204Y-9798107D01*
X20633018Y-9814197D01*
X20633018Y-9835080D01*
X20633397Y-9860525D01*
X20634534Y-9885111D01*
X20636431Y-9908839D01*
X20639085Y-9931708D01*
X20642499Y-9953719D01*
X20646670Y-9974871D01*
X20651600Y-9995164D01*
X20657289Y-10014598D01*
X20663736Y-10033174D01*
X20670942Y-10050891D01*
X20678906Y-10067750D01*
X20687629Y-10083750D01*
X20697110Y-10098891D01*
X20707349Y-10113173D01*
X20718347Y-10126597D01*
X20730104Y-10139162D01*
X20742669Y-10150919D01*
X20756093Y-10161917D01*
X20770375Y-10172156D01*
X20785517Y-10181637D01*
X20801516Y-10190360D01*
X20818375Y-10198324D01*
X20836092Y-10205530D01*
X20854668Y-10211977D01*
X20874102Y-10217666D01*
X20894396Y-10222596D01*
X20915547Y-10226768D01*
X20937558Y-10230181D01*
X20960427Y-10232835D01*
X20984155Y-10234732D01*
X21008741Y-10235869D01*
X21034186Y-10236249D01*
G37*
G36*
X20512850Y-9898461D02*
G01*
X20132930Y-9898461D01*
X20132930Y-10215000D01*
X20512850Y-10215000D01*
X20512850Y-9898461D01*
G37*
G36*
X19724068Y-10215000D02*
G01*
X19724068Y-9064982D01*
X19966601Y-9149246D01*
X20072114Y-8906713D01*
X19681570Y-8737819D01*
X19344148Y-8737819D01*
X19344148Y-10215000D01*
X19724068Y-10215000D01*
G37*
G36*
X19158768Y-9898461D02*
G01*
X18778848Y-9898461D01*
X18778848Y-10215000D01*
X19158768Y-10215000D01*
X19158768Y-9898461D01*
G37*
G36*
X18369985Y-10215000D02*
G01*
X18369985Y-9064982D01*
X18612519Y-9149246D01*
X18718031Y-8906713D01*
X18327487Y-8737819D01*
X17990066Y-8737819D01*
X17990066Y-10215000D01*
X18369985Y-10215000D01*
G37*
D12*
G36*
X57489156Y-7004704D02*
G01*
X57538520Y-7016096D01*
X57589545Y-7041015D01*
X57628703Y-7077800D01*
X57655996Y-7126452D01*
X57669286Y-7173917D01*
X57674982Y-7228977D01*
X57675219Y-7243928D01*
X57675219Y-8650767D01*
X57671422Y-8707439D01*
X57660030Y-8756555D01*
X57635111Y-8807323D01*
X57598326Y-8846285D01*
X57549674Y-8873441D01*
X57502209Y-8886664D01*
X57447149Y-8892331D01*
X57432198Y-8892568D01*
X56588339Y-8892568D01*
X56531667Y-8888789D01*
X56482551Y-8877455D01*
X56431782Y-8852661D01*
X56392820Y-8816060D01*
X56365665Y-8767653D01*
X56352442Y-8720426D01*
X56346774Y-8665644D01*
X56346538Y-8650767D01*
X56346538Y-7243928D01*
X56350316Y-7186970D01*
X56361651Y-7137606D01*
X56386445Y-7086581D01*
X56423045Y-7047423D01*
X56471453Y-7020130D01*
X56518679Y-7006840D01*
X56573462Y-7001144D01*
X56588339Y-7000907D01*
X57432198Y-7000907D01*
X57489156Y-7004704D01*
G37*
G36*
X67964090Y-5844113D02*
G01*
X68025878Y-5854191D01*
X68080926Y-5870989D01*
X68129233Y-5894506D01*
X68170800Y-5924741D01*
X68205626Y-5961696D01*
X68233711Y-6005370D01*
X68255056Y-6055763D01*
X68269661Y-6112875D01*
X68277525Y-6176706D01*
X68279023Y-6222993D01*
X68279023Y-8474912D01*
X68275652Y-8543223D01*
X68265541Y-8604814D01*
X68248690Y-8659687D01*
X68225098Y-8707840D01*
X68194766Y-8749274D01*
X68157693Y-8783989D01*
X68113880Y-8811985D01*
X68063326Y-8833262D01*
X68006031Y-8847820D01*
X67941996Y-8855659D01*
X67895561Y-8857152D01*
X66699993Y-8857152D01*
X66631464Y-8853793D01*
X66569676Y-8843714D01*
X66514628Y-8826917D01*
X66466321Y-8803400D01*
X66424754Y-8773164D01*
X66389928Y-8736209D01*
X66361843Y-8692535D01*
X66340498Y-8642142D01*
X66325893Y-8585030D01*
X66318029Y-8521199D01*
X66316531Y-8474912D01*
X66316531Y-6222993D01*
X66319902Y-6154683D01*
X66330012Y-6093091D01*
X66346864Y-6038219D01*
X66370455Y-5990066D01*
X66400788Y-5948631D01*
X66437861Y-5913916D01*
X66481674Y-5885920D01*
X66532228Y-5864643D01*
X66589523Y-5850085D01*
X66653558Y-5842246D01*
X66699993Y-5840753D01*
X67895561Y-5840753D01*
X67964090Y-5844113D01*
G37*
G36*
X85021745Y-10635116D02*
G01*
X47840905Y-10635116D01*
X47840905Y-9850000D01*
X48555191Y-9850000D01*
X49864333Y-9850000D01*
X49864333Y-7278122D01*
X49870177Y-7225386D01*
X49887708Y-7178612D01*
X49916926Y-7137802D01*
X49924173Y-7130355D01*
X49963790Y-7099443D01*
X50009371Y-7079980D01*
X50060915Y-7071966D01*
X50071939Y-7071737D01*
X50107355Y-7071737D01*
X50167032Y-7072886D01*
X50229285Y-7076331D01*
X50294115Y-7082073D01*
X50361520Y-7090113D01*
X50431501Y-7100449D01*
X50504059Y-7113082D01*
X50553861Y-7122780D01*
X50604809Y-7133499D01*
X50656901Y-7145239D01*
X50710138Y-7158000D01*
X50764521Y-7171781D01*
X50820048Y-7186584D01*
X50876720Y-7202407D01*
X50876720Y-9850000D01*
X52185861Y-9850000D01*
X52185861Y-7278122D01*
X52191586Y-7225386D01*
X52208759Y-7178612D01*
X52237381Y-7137802D01*
X52244480Y-7130355D01*
X52284217Y-7099443D01*
X52330155Y-7079980D01*
X52382296Y-7071966D01*
X52393468Y-7071737D01*
X52428883Y-7071737D01*
X52488560Y-7072886D01*
X52550814Y-7076331D01*
X52615643Y-7082073D01*
X52683048Y-7090113D01*
X52753029Y-7100449D01*
X52825587Y-7113082D01*
X52875389Y-7122780D01*
X52926337Y-7133499D01*
X52978429Y-7145239D01*
X53031667Y-7158000D01*
X53086049Y-7171781D01*
X53141576Y-7186584D01*
X53198248Y-7202407D01*
X53198248Y-9850000D01*
X54507390Y-9850000D01*
X54507390Y-8755792D01*
X55037397Y-8755792D01*
X55038608Y-8822815D01*
X55042243Y-8888026D01*
X55048302Y-8951424D01*
X55056783Y-9013010D01*
X55067688Y-9072783D01*
X55081017Y-9130742D01*
X55096769Y-9186890D01*
X55114944Y-9241224D01*
X55135542Y-9293746D01*
X55158564Y-9344455D01*
X55184009Y-9393351D01*
X55211878Y-9440435D01*
X55242169Y-9485706D01*
X55274885Y-9529164D01*
X55310023Y-9570809D01*
X55347585Y-9610642D01*
X55387270Y-9648203D01*
X55428777Y-9683342D01*
X55472106Y-9716057D01*
X55517257Y-9746349D01*
X55564231Y-9774217D01*
X55613027Y-9799663D01*
X55663646Y-9822684D01*
X55716086Y-9843283D01*
X55770349Y-9861458D01*
X55826435Y-9877210D01*
X55884342Y-9890538D01*
X55944072Y-9901443D01*
X56005624Y-9909925D01*
X56068998Y-9915983D01*
X56134195Y-9919618D01*
X56201214Y-9920830D01*
X57819323Y-9920830D01*
X57886346Y-9919618D01*
X57951557Y-9915983D01*
X58014955Y-9909925D01*
X58076541Y-9901443D01*
X58136314Y-9890538D01*
X58194274Y-9877210D01*
X58250421Y-9861458D01*
X58304755Y-9843283D01*
X58357277Y-9822684D01*
X58407986Y-9799663D01*
X58456882Y-9774217D01*
X58503966Y-9746349D01*
X58549237Y-9716057D01*
X58592695Y-9683342D01*
X58634340Y-9648203D01*
X58674173Y-9610642D01*
X58711734Y-9570809D01*
X58746873Y-9529164D01*
X58779588Y-9485706D01*
X58809880Y-9440435D01*
X58837748Y-9393351D01*
X58863194Y-9344455D01*
X58886215Y-9293746D01*
X58906814Y-9241224D01*
X58924989Y-9186890D01*
X58940741Y-9130742D01*
X58954069Y-9072783D01*
X58964974Y-9013010D01*
X58973456Y-8951424D01*
X58979514Y-8888026D01*
X58983149Y-8822815D01*
X58984361Y-8755792D01*
X58984361Y-7137683D01*
X58983149Y-7070664D01*
X58979514Y-7005467D01*
X58973456Y-6942093D01*
X58964974Y-6880541D01*
X58954069Y-6820811D01*
X58940741Y-6762903D01*
X58924989Y-6706818D01*
X58906814Y-6652555D01*
X58886215Y-6600115D01*
X58863194Y-6549496D01*
X58837748Y-6500700D01*
X58809880Y-6453726D01*
X58779588Y-6408575D01*
X58746873Y-6365246D01*
X58711734Y-6323739D01*
X58674173Y-6284054D01*
X58634340Y-6246492D01*
X58592695Y-6211354D01*
X58549237Y-6178638D01*
X58503966Y-6148346D01*
X58456882Y-6120478D01*
X58407986Y-6095033D01*
X58357277Y-6072011D01*
X58304755Y-6051413D01*
X58281024Y-6043475D01*
X59378813Y-6043475D01*
X59378813Y-7071737D01*
X61281465Y-7071737D01*
X61338423Y-7075515D01*
X61387787Y-7086850D01*
X61438812Y-7111644D01*
X61477971Y-7148244D01*
X61505263Y-7196652D01*
X61518553Y-7243878D01*
X61524249Y-7298661D01*
X61524487Y-7313538D01*
X61524487Y-8684961D01*
X61518762Y-8738342D01*
X61501589Y-8785520D01*
X61472967Y-8826498D01*
X61465868Y-8833949D01*
X61425606Y-8864861D01*
X61379620Y-8884324D01*
X61327909Y-8892339D01*
X61316880Y-8892568D01*
X61235321Y-8892143D01*
X61148486Y-8890869D01*
X61056375Y-8888746D01*
X60958988Y-8885775D01*
X60908316Y-8883970D01*
X60856325Y-8881953D01*
X60803015Y-8879725D01*
X60748386Y-8877283D01*
X60692438Y-8874630D01*
X60635171Y-8871764D01*
X60576585Y-8868686D01*
X60516680Y-8865396D01*
X60455455Y-8861893D01*
X60392912Y-8858178D01*
X60329050Y-8854251D01*
X60263869Y-8850111D01*
X60197369Y-8845759D01*
X60129550Y-8841195D01*
X60060412Y-8836419D01*
X59989955Y-8831431D01*
X59918178Y-8826230D01*
X59845083Y-8820816D01*
X59770669Y-8815191D01*
X59694936Y-8809353D01*
X59617884Y-8803303D01*
X59539513Y-8797041D01*
X59459822Y-8790566D01*
X59378813Y-8783879D01*
X59378813Y-9775505D01*
X59462971Y-9784446D01*
X59546458Y-9793103D01*
X59629275Y-9801477D01*
X59711422Y-9809566D01*
X59792899Y-9817371D01*
X59873705Y-9824893D01*
X59953842Y-9832131D01*
X60033308Y-9839085D01*
X60112103Y-9845755D01*
X60190229Y-9852141D01*
X60267684Y-9858244D01*
X60344469Y-9864063D01*
X60420584Y-9869597D01*
X60496029Y-9874848D01*
X60570803Y-9879815D01*
X60644907Y-9884499D01*
X60718341Y-9888898D01*
X60791105Y-9893014D01*
X60863198Y-9896846D01*
X60934621Y-9900394D01*
X61005374Y-9903658D01*
X61075457Y-9906638D01*
X61144869Y-9909335D01*
X61213611Y-9911747D01*
X61281683Y-9913876D01*
X61349085Y-9915721D01*
X61415816Y-9917282D01*
X61481878Y-9918559D01*
X61547269Y-9919553D01*
X61611989Y-9920262D01*
X61676040Y-9920688D01*
X61739420Y-9920830D01*
X61800338Y-9919656D01*
X61859748Y-9916136D01*
X61917651Y-9910268D01*
X61974046Y-9902054D01*
X62028934Y-9891492D01*
X62082314Y-9878584D01*
X62134187Y-9863328D01*
X62184553Y-9845725D01*
X62233411Y-9825776D01*
X62280762Y-9803479D01*
X62326605Y-9778835D01*
X62370941Y-9751844D01*
X62413769Y-9722507D01*
X62455090Y-9690822D01*
X62494903Y-9656790D01*
X62533210Y-9620411D01*
X62569588Y-9582105D01*
X62603620Y-9542292D01*
X62635305Y-9500971D01*
X62664643Y-9458142D01*
X62691633Y-9413807D01*
X62716277Y-9367963D01*
X62738574Y-9320613D01*
X62758524Y-9271755D01*
X62776126Y-9221389D01*
X62791382Y-9169516D01*
X62804290Y-9116136D01*
X62814852Y-9061248D01*
X62823067Y-9004852D01*
X62828934Y-8946950D01*
X62832455Y-8887540D01*
X62833628Y-8826622D01*
X62833628Y-8716713D01*
X63239071Y-8716713D01*
X63239071Y-9850000D01*
X64583628Y-9850000D01*
X64583628Y-8716713D01*
X63239071Y-8716713D01*
X62833628Y-8716713D01*
X62833628Y-8474912D01*
X64973196Y-8474912D01*
X64974546Y-8567510D01*
X64978596Y-8656930D01*
X64985346Y-8743174D01*
X64994796Y-8826240D01*
X65006946Y-8906130D01*
X65021796Y-8982842D01*
X65039346Y-9056377D01*
X65059596Y-9126735D01*
X65082547Y-9193916D01*
X65108197Y-9257920D01*
X65136547Y-9318747D01*
X65167598Y-9376397D01*
X65201348Y-9430870D01*
X65237798Y-9482166D01*
X65276949Y-9530285D01*
X65318799Y-9575226D01*
X65363598Y-9617077D01*
X65411592Y-9656227D01*
X65462783Y-9692678D01*
X65517170Y-9726428D01*
X65574753Y-9757478D01*
X65635533Y-9785829D01*
X65699508Y-9811479D01*
X65766680Y-9834429D01*
X65837047Y-9854679D01*
X65910611Y-9872229D01*
X65987371Y-9887080D01*
X66067327Y-9899230D01*
X66150480Y-9908680D01*
X66236828Y-9915430D01*
X66326373Y-9919480D01*
X66419113Y-9920830D01*
X68177662Y-9920830D01*
X68270259Y-9919480D01*
X68359680Y-9915430D01*
X68445923Y-9908680D01*
X68528990Y-9899230D01*
X68608879Y-9887080D01*
X68685591Y-9872229D01*
X68759127Y-9854679D01*
X68829485Y-9834429D01*
X68896666Y-9811479D01*
X68960670Y-9785829D01*
X69021497Y-9757478D01*
X69079147Y-9726428D01*
X69133620Y-9692678D01*
X69184915Y-9656227D01*
X69233034Y-9617077D01*
X69277976Y-9575226D01*
X69319826Y-9530285D01*
X69358977Y-9482166D01*
X69395427Y-9430870D01*
X69429177Y-9376397D01*
X69460228Y-9318747D01*
X69488578Y-9257920D01*
X69514228Y-9193916D01*
X69537178Y-9126735D01*
X69557429Y-9056377D01*
X69574979Y-8982842D01*
X69589829Y-8906130D01*
X69601979Y-8826240D01*
X69611429Y-8743174D01*
X69618179Y-8656930D01*
X69622229Y-8567510D01*
X69623579Y-8474912D01*
X69623579Y-6222993D01*
X69622229Y-6130400D01*
X69618179Y-6040994D01*
X69611429Y-5954775D01*
X69601979Y-5871741D01*
X69589829Y-5791895D01*
X69574979Y-5715235D01*
X69557429Y-5641762D01*
X69537178Y-5571475D01*
X69514228Y-5504375D01*
X69488578Y-5440462D01*
X69460228Y-5379735D01*
X69429177Y-5322195D01*
X69395427Y-5267841D01*
X69358977Y-5216675D01*
X69319826Y-5168694D01*
X69277976Y-5123900D01*
X69233034Y-5081902D01*
X69184915Y-5042613D01*
X69133620Y-5006034D01*
X69079147Y-4972165D01*
X69021497Y-4941004D01*
X68960670Y-4912554D01*
X68896666Y-4886813D01*
X68829485Y-4863782D01*
X68774520Y-4847906D01*
X70019253Y-4847906D01*
X70019253Y-5910362D01*
X70651842Y-5910362D01*
X70651842Y-8787543D01*
X70019253Y-8787543D01*
X70019253Y-9850000D01*
X72628988Y-9850000D01*
X73018555Y-9850000D01*
X74327697Y-9850000D01*
X74327697Y-7278122D01*
X74333421Y-7225386D01*
X74350594Y-7178612D01*
X74379217Y-7137802D01*
X74386315Y-7130355D01*
X74425933Y-7099443D01*
X74471514Y-7079980D01*
X74523058Y-7071966D01*
X74534082Y-7071737D01*
X74780767Y-7071737D01*
X74850094Y-7072886D01*
X74920687Y-7076331D01*
X74992546Y-7082073D01*
X75041156Y-7087178D01*
X75090329Y-7093303D01*
X75140065Y-7100449D01*
X75190364Y-7108616D01*
X75241226Y-7117803D01*
X75292650Y-7128012D01*
X75344638Y-7139241D01*
X75397188Y-7151492D01*
X75450301Y-7164763D01*
X75503978Y-7179055D01*
X75558217Y-7194368D01*
X75585547Y-7202407D01*
X75585547Y-9850000D01*
X76894689Y-9850000D01*
X76894689Y-6183914D01*
X77506517Y-6183914D01*
X77506517Y-9850000D01*
X78815659Y-9850000D01*
X78815659Y-7212177D01*
X79343224Y-7212177D01*
X79343224Y-6183914D01*
X77506517Y-6183914D01*
X76894689Y-6183914D01*
X76894689Y-6043475D01*
X75733314Y-6043475D01*
X75668590Y-6369539D01*
X75614201Y-6335017D01*
X75558652Y-6301976D01*
X75501944Y-6270417D01*
X75444077Y-6240338D01*
X75385051Y-6211741D01*
X75324866Y-6184625D01*
X75263521Y-6158990D01*
X75201017Y-6134837D01*
X75137355Y-6112164D01*
X75072532Y-6090973D01*
X75028674Y-6077669D01*
X74963225Y-6059118D01*
X74899688Y-6042392D01*
X74838060Y-6027490D01*
X74778344Y-6014414D01*
X74720538Y-6003162D01*
X74664642Y-5993734D01*
X74610657Y-5986131D01*
X74558582Y-5980353D01*
X74508418Y-5976400D01*
X74444505Y-5973967D01*
X74429057Y-5973866D01*
X74112763Y-5973866D01*
X74051702Y-5975039D01*
X73992168Y-5978560D01*
X73934160Y-5984427D01*
X73877679Y-5992642D01*
X73822725Y-6003203D01*
X73769296Y-6016112D01*
X73717395Y-6031368D01*
X73667020Y-6048970D01*
X73618171Y-6068920D01*
X73570849Y-6091217D01*
X73525054Y-6115860D01*
X73480785Y-6142851D01*
X73438042Y-6172189D01*
X73396826Y-6203874D01*
X73357137Y-6237905D01*
X73318974Y-6274284D01*
X73282595Y-6312447D01*
X73248563Y-6352137D01*
X73216878Y-6393353D01*
X73187540Y-6436095D01*
X73160550Y-6480364D01*
X73135906Y-6526160D01*
X73113609Y-6573482D01*
X73093660Y-6622330D01*
X73076057Y-6672705D01*
X73060801Y-6724607D01*
X73047893Y-6778035D01*
X73037331Y-6832990D01*
X73029117Y-6889471D01*
X73023249Y-6947479D01*
X73019728Y-7007013D01*
X73018555Y-7068073D01*
X73018555Y-9850000D01*
X72628988Y-9850000D01*
X72628988Y-8787543D01*
X71996399Y-8787543D01*
X71996399Y-5910362D01*
X72628988Y-5910362D01*
X72628988Y-4847906D01*
X70019253Y-4847906D01*
X68774520Y-4847906D01*
X68759127Y-4843460D01*
X68685591Y-4825848D01*
X68608879Y-4810945D01*
X68528990Y-4798752D01*
X68445923Y-4789269D01*
X68359680Y-4782495D01*
X68270259Y-4778430D01*
X68177662Y-4777076D01*
X77506517Y-4777076D01*
X77506517Y-5840753D01*
X78815659Y-5840753D01*
X78815659Y-4847906D01*
X79798736Y-4847906D01*
X79798736Y-8474912D01*
X79800086Y-8567510D01*
X79804136Y-8656930D01*
X79810887Y-8743174D01*
X79820337Y-8826240D01*
X79832487Y-8906130D01*
X79847337Y-8982842D01*
X79864887Y-9056377D01*
X79885137Y-9126735D01*
X79908088Y-9193916D01*
X79933738Y-9257920D01*
X79962088Y-9318747D01*
X79993138Y-9376397D01*
X80026889Y-9430870D01*
X80063339Y-9482166D01*
X80102490Y-9530285D01*
X80144340Y-9575226D01*
X80189139Y-9617077D01*
X80237133Y-9656227D01*
X80288324Y-9692678D01*
X80342711Y-9726428D01*
X80400294Y-9757478D01*
X80461073Y-9785829D01*
X80525049Y-9811479D01*
X80592220Y-9834429D01*
X80662588Y-9854679D01*
X80736152Y-9872229D01*
X80812912Y-9887080D01*
X80892868Y-9899230D01*
X80976020Y-9908680D01*
X81062369Y-9915430D01*
X81151913Y-9919480D01*
X81244654Y-9920830D01*
X82861542Y-9920830D01*
X82954282Y-9919480D01*
X83043827Y-9915430D01*
X83130175Y-9908680D01*
X83213328Y-9899230D01*
X83293284Y-9887080D01*
X83370044Y-9872229D01*
X83443608Y-9854679D01*
X83513975Y-9834429D01*
X83581147Y-9811479D01*
X83645122Y-9785829D01*
X83705902Y-9757478D01*
X83763485Y-9726428D01*
X83817872Y-9692678D01*
X83869063Y-9656227D01*
X83917057Y-9617077D01*
X83961856Y-9575226D01*
X84003706Y-9530285D01*
X84042857Y-9482166D01*
X84079307Y-9430870D01*
X84113057Y-9376397D01*
X84144108Y-9318747D01*
X84172458Y-9257920D01*
X84198108Y-9193916D01*
X84221058Y-9126735D01*
X84241309Y-9056377D01*
X84258859Y-8982842D01*
X84273709Y-8906130D01*
X84285859Y-8826240D01*
X84295309Y-8743174D01*
X84302059Y-8656930D01*
X84306109Y-8567510D01*
X84307459Y-8474912D01*
X84307459Y-4847906D01*
X82964124Y-4847906D01*
X82964124Y-8474912D01*
X82960753Y-8543223D01*
X82950643Y-8604814D01*
X82933791Y-8659687D01*
X82910199Y-8707840D01*
X82879867Y-8749274D01*
X82842794Y-8783989D01*
X82798981Y-8811985D01*
X82748427Y-8833262D01*
X82691132Y-8847820D01*
X82627097Y-8855659D01*
X82580662Y-8857152D01*
X81525533Y-8857152D01*
X81457005Y-8853793D01*
X81395216Y-8843714D01*
X81340169Y-8826917D01*
X81291862Y-8803400D01*
X81250295Y-8773164D01*
X81215469Y-8736209D01*
X81187383Y-8692535D01*
X81166038Y-8642142D01*
X81151434Y-8585030D01*
X81143570Y-8521199D01*
X81142072Y-8474912D01*
X81142072Y-4847906D01*
X79798736Y-4847906D01*
X78815659Y-4847906D01*
X78815659Y-4777076D01*
X77506517Y-4777076D01*
X68177662Y-4777076D01*
X66419113Y-4777076D01*
X66326373Y-4778430D01*
X66236828Y-4782495D01*
X66150480Y-4789269D01*
X66067327Y-4798752D01*
X65987371Y-4810945D01*
X65910611Y-4825848D01*
X65837047Y-4843460D01*
X65766680Y-4863782D01*
X65699508Y-4886813D01*
X65635533Y-4912554D01*
X65574753Y-4941004D01*
X65517170Y-4972165D01*
X65462783Y-5006034D01*
X65411592Y-5042613D01*
X65363598Y-5081902D01*
X65318799Y-5123900D01*
X65276949Y-5168694D01*
X65237798Y-5216675D01*
X65201348Y-5267841D01*
X65167598Y-5322195D01*
X65136547Y-5379735D01*
X65108197Y-5440462D01*
X65082547Y-5504375D01*
X65059596Y-5571475D01*
X65039346Y-5641762D01*
X65021796Y-5715235D01*
X65006946Y-5791895D01*
X64994796Y-5871741D01*
X64985346Y-5954775D01*
X64978596Y-6040994D01*
X64974546Y-6130400D01*
X64973196Y-6222993D01*
X64973196Y-8474912D01*
X62833628Y-8474912D01*
X62833628Y-7208513D01*
X62832417Y-7141494D01*
X62828782Y-7076298D01*
X62822723Y-7012923D01*
X62814241Y-6951371D01*
X62803336Y-6891641D01*
X62790008Y-6833734D01*
X62774256Y-6777649D01*
X62756081Y-6723386D01*
X62735483Y-6670945D01*
X62712461Y-6620327D01*
X62687016Y-6571531D01*
X62659147Y-6524557D01*
X62628855Y-6479405D01*
X62596140Y-6436076D01*
X62561002Y-6394569D01*
X62523440Y-6354884D01*
X62483607Y-6317175D01*
X62441962Y-6281898D01*
X62398504Y-6249054D01*
X62353233Y-6218643D01*
X62306150Y-6190664D01*
X62257253Y-6165119D01*
X62206544Y-6142007D01*
X62154023Y-6121327D01*
X62099688Y-6103080D01*
X62043541Y-6087267D01*
X61985581Y-6073886D01*
X61925808Y-6062938D01*
X61864223Y-6054423D01*
X61800824Y-6048341D01*
X61735614Y-6044691D01*
X61668590Y-6043475D01*
X59378813Y-6043475D01*
X58281024Y-6043475D01*
X58250421Y-6033238D01*
X58194274Y-6017486D01*
X58136314Y-6004157D01*
X58076541Y-5993252D01*
X58014955Y-5984771D01*
X57951557Y-5978712D01*
X57886346Y-5975077D01*
X57819323Y-5973866D01*
X56201214Y-5973866D01*
X56134195Y-5975077D01*
X56068998Y-5978712D01*
X56005624Y-5984771D01*
X55944072Y-5993252D01*
X55884342Y-6004157D01*
X55826435Y-6017486D01*
X55770349Y-6033238D01*
X55716086Y-6051413D01*
X55663646Y-6072011D01*
X55613027Y-6095033D01*
X55564231Y-6120478D01*
X55517257Y-6148346D01*
X55472106Y-6178638D01*
X55428777Y-6211354D01*
X55387270Y-6246492D01*
X55347585Y-6284054D01*
X55310023Y-6323739D01*
X55274885Y-6365246D01*
X55242169Y-6408575D01*
X55211878Y-6453726D01*
X55184009Y-6500700D01*
X55158564Y-6549496D01*
X55135542Y-6600115D01*
X55114944Y-6652555D01*
X55096769Y-6706818D01*
X55081017Y-6762903D01*
X55067688Y-6820811D01*
X55056783Y-6880541D01*
X55048302Y-6942093D01*
X55042243Y-7005467D01*
X55038608Y-7070664D01*
X55037397Y-7137683D01*
X55037397Y-8650767D01*
X55037397Y-8755792D01*
X54507390Y-8755792D01*
X54507390Y-6043475D01*
X53346015Y-6043475D01*
X53281290Y-6369539D01*
X53226901Y-6335017D01*
X53171353Y-6301976D01*
X53114645Y-6270417D01*
X53056778Y-6240338D01*
X52997752Y-6211741D01*
X52937566Y-6184625D01*
X52876222Y-6158990D01*
X52813718Y-6134837D01*
X52750055Y-6112164D01*
X52685233Y-6090973D01*
X52641374Y-6077669D01*
X52575926Y-6059118D01*
X52512388Y-6042392D01*
X52450761Y-6027490D01*
X52391044Y-6014414D01*
X52333238Y-6003162D01*
X52277343Y-5993734D01*
X52223358Y-5986131D01*
X52171283Y-5980353D01*
X52121119Y-5976400D01*
X52057206Y-5973967D01*
X52041758Y-5973866D01*
X51970928Y-5973866D01*
X51898475Y-5975454D01*
X51828275Y-5980220D01*
X51760325Y-5988162D01*
X51694628Y-5999282D01*
X51631182Y-6013579D01*
X51569988Y-6031053D01*
X51511045Y-6051704D01*
X51454354Y-6075532D01*
X51399915Y-6102537D01*
X51347727Y-6132719D01*
X51297791Y-6166078D01*
X51250106Y-6202614D01*
X51204673Y-6242328D01*
X51161492Y-6285218D01*
X51120562Y-6331285D01*
X51081884Y-6380530D01*
X51025283Y-6343836D01*
X50967223Y-6308860D01*
X50907703Y-6275601D01*
X50846724Y-6244059D01*
X50784284Y-6214235D01*
X50720385Y-6186128D01*
X50655026Y-6159738D01*
X50588208Y-6135066D01*
X50519930Y-6112111D01*
X50450192Y-6090873D01*
X50402889Y-6077669D01*
X50355428Y-6065099D01*
X50285436Y-6047764D01*
X50216882Y-6032255D01*
X50149767Y-6018570D01*
X50084090Y-6006709D01*
X50019851Y-5996674D01*
X49957050Y-5988463D01*
X49895688Y-5982077D01*
X49835763Y-5977515D01*
X49777277Y-5974778D01*
X49720230Y-5973866D01*
X49649399Y-5973866D01*
X49588482Y-5975039D01*
X49529072Y-5978560D01*
X49471169Y-5984427D01*
X49414774Y-5992642D01*
X49359886Y-6003203D01*
X49306505Y-6016112D01*
X49254632Y-6031368D01*
X49204267Y-6048970D01*
X49155409Y-6068920D01*
X49108058Y-6091217D01*
X49062215Y-6115860D01*
X49017879Y-6142851D01*
X48975051Y-6172189D01*
X48933730Y-6203874D01*
X48893916Y-6237905D01*
X48855610Y-6274284D01*
X48819231Y-6312447D01*
X48785199Y-6352137D01*
X48753515Y-6393353D01*
X48724177Y-6436095D01*
X48697186Y-6480364D01*
X48672542Y-6526160D01*
X48650246Y-6573482D01*
X48630296Y-6622330D01*
X48612693Y-6672705D01*
X48597438Y-6724607D01*
X48584529Y-6778035D01*
X48573968Y-6832990D01*
X48565753Y-6889471D01*
X48559885Y-6947479D01*
X48556365Y-7007013D01*
X48555191Y-7068073D01*
X48555191Y-9850000D01*
X47840905Y-9850000D01*
X47840905Y-4062790D01*
X85021745Y-4062790D01*
X85021745Y-10635116D01*
G37*
D13*
%TO.C,HOLE\u002A\u002A*%
X86449210Y-15945663D02*
G75*
G03*
X86449210Y-15945663I-900000J0D01*
G01*
X15316265Y-15945663D02*
G75*
G03*
X15316265Y-15945663I-900000J0D01*
G01*
X15316265Y1664337D02*
G75*
G03*
X15316265Y1664337I-900000J0D01*
G01*
X86449210Y1664337D02*
G75*
G03*
X86449210Y1664337I-900000J0D01*
G01*
D14*
%TO.C,J2*%
X15741265Y334337D02*
X15741265Y2994337D01*
X81841265Y334337D02*
X15741265Y334337D01*
X81841265Y334337D02*
X81841265Y2994337D01*
X83111265Y334337D02*
X84441265Y334337D01*
X84441265Y334337D02*
X84441265Y1664337D01*
X81841265Y2994337D02*
X15741265Y2994337D01*
%TO.C,J4*%
X15741265Y-17275663D02*
X15741265Y-14615663D01*
X81841265Y-17275663D02*
X15741265Y-17275663D01*
X81841265Y-17275663D02*
X81841265Y-14615663D01*
X83111265Y-17275663D02*
X84441265Y-17275663D01*
X84441265Y-17275663D02*
X84441265Y-15945663D01*
X81841265Y-14615663D02*
X15741265Y-14615663D01*
%TD*%
%LPC*%
D15*
%TO.C,HOLE\u002A\u002A*%
X85549210Y-15945663D03*
%TD*%
%TO.C,HOLE\u002A\u002A*%
X14416265Y-15945663D03*
%TD*%
D16*
%TO.C,J3*%
X4189210Y1664337D03*
D17*
X6729210Y1664337D03*
X9269210Y1664337D03*
X11809210Y1664337D03*
%TD*%
D18*
%TO.C,USB1*%
X5708210Y-4242831D03*
X5708210Y-10022831D03*
D19*
X6208210Y-2807831D03*
X6208210Y-11457831D03*
D20*
X2008210Y-2807831D03*
X2008210Y-11457831D03*
%TD*%
D15*
%TO.C,HOLE\u002A\u002A*%
X14416265Y1664337D03*
%TD*%
D16*
%TO.C,J1*%
X6739210Y-15945663D03*
D17*
X9279210Y-15945663D03*
X11819210Y-15945663D03*
%TD*%
D15*
%TO.C,HOLE\u002A\u002A*%
X85549210Y1664337D03*
%TD*%
D16*
%TO.C,J2*%
X83111265Y1664337D03*
D17*
X80571265Y1664337D03*
X78031265Y1664337D03*
X75491265Y1664337D03*
X72951265Y1664337D03*
X70411265Y1664337D03*
X67871265Y1664337D03*
X65331265Y1664337D03*
X62791265Y1664337D03*
X60251265Y1664337D03*
X57711265Y1664337D03*
X55171265Y1664337D03*
X52631265Y1664337D03*
X50091265Y1664337D03*
X47551265Y1664337D03*
X45011265Y1664337D03*
X42471265Y1664337D03*
X39931265Y1664337D03*
X37391265Y1664337D03*
X34851265Y1664337D03*
X32311265Y1664337D03*
X29771265Y1664337D03*
X27231265Y1664337D03*
X24691265Y1664337D03*
X22151265Y1664337D03*
X19611265Y1664337D03*
X17071265Y1664337D03*
%TD*%
D16*
%TO.C,J4*%
X83111265Y-15945663D03*
D17*
X80571265Y-15945663D03*
X78031265Y-15945663D03*
X75491265Y-15945663D03*
X72951265Y-15945663D03*
X70411265Y-15945663D03*
X67871265Y-15945663D03*
X65331265Y-15945663D03*
X62791265Y-15945663D03*
X60251265Y-15945663D03*
X57711265Y-15945663D03*
X55171265Y-15945663D03*
X52631265Y-15945663D03*
X50091265Y-15945663D03*
X47551265Y-15945663D03*
X45011265Y-15945663D03*
X42471265Y-15945663D03*
X39931265Y-15945663D03*
X37391265Y-15945663D03*
X34851265Y-15945663D03*
X32311265Y-15945663D03*
X29771265Y-15945663D03*
X27231265Y-15945663D03*
X24691265Y-15945663D03*
X22151265Y-15945663D03*
X19611265Y-15945663D03*
X17071265Y-15945663D03*
%TD*%
%LPD*%
M02*
