%TF.GenerationSoftware,KiCad,Pcbnew,7.0.7*%
%TF.CreationDate,2023-08-30T19:21:35+08:00*%
%TF.ProjectId,UINIO-MCU-ESP32S3,55494e49-4f2d-44d4-9355-2d4553503332,Version 3.1.0*%
%TF.SameCoordinates,PX629df6ePY56b2a99*%
%TF.FileFunction,Copper,L2,Bot*%
%TF.FilePolarity,Positive*%
%FSLAX46Y46*%
G04 Gerber Fmt 4.6, Leading zero omitted, Abs format (unit mm)*
G04 Created by KiCad (PCBNEW 7.0.7) date 2023-08-30 19:21:35*
%MOMM*%
%LPD*%
G01*
G04 APERTURE LIST*
%TA.AperFunction,ComponentPad*%
%ADD10C,1.200000*%
%TD*%
%TA.AperFunction,ComponentPad*%
%ADD11R,1.700000X1.700000*%
%TD*%
%TA.AperFunction,ComponentPad*%
%ADD12O,1.700000X1.700000*%
%TD*%
%TA.AperFunction,ComponentPad*%
%ADD13O,2.100000X1.000000*%
%TD*%
%TA.AperFunction,ComponentPad*%
%ADD14O,1.900000X1.000000*%
%TD*%
%TA.AperFunction,ComponentPad*%
%ADD15R,0.500000X0.900000*%
%TD*%
%TA.AperFunction,ViaPad*%
%ADD16C,0.500000*%
%TD*%
%TA.AperFunction,ViaPad*%
%ADD17C,0.700000*%
%TD*%
%TA.AperFunction,ViaPad*%
%ADD18C,0.900000*%
%TD*%
%TA.AperFunction,Conductor*%
%ADD19C,0.300000*%
%TD*%
%TA.AperFunction,Conductor*%
%ADD20C,0.200000*%
%TD*%
%TA.AperFunction,Conductor*%
%ADD21C,0.500000*%
%TD*%
%TA.AperFunction,Conductor*%
%ADD22C,0.400000*%
%TD*%
%TA.AperFunction,Conductor*%
%ADD23C,0.600000*%
%TD*%
G04 APERTURE END LIST*
D10*
%TO.P,HOLE\u002A\u002A,*%
%TO.N,*%
X85549210Y-15945663D03*
%TD*%
%TO.P,HOLE\u002A\u002A,*%
%TO.N,*%
X14416265Y-15945663D03*
%TD*%
D11*
%TO.P,J3,1,Pin_1*%
%TO.N,/DTR*%
X4189210Y1664337D03*
D12*
%TO.P,J3,2,Pin_2*%
%TO.N,/U0TXD*%
X6729210Y1664337D03*
%TO.P,J3,3,Pin_3*%
%TO.N,/U0RXD*%
X9269210Y1664337D03*
%TO.P,J3,4,Pin_4*%
%TO.N,/RTS*%
X11809210Y1664337D03*
%TD*%
D13*
%TO.P,USB1,13,GND*%
%TO.N,GND*%
X6208210Y-2807831D03*
%TO.P,USB1,14,GND*%
X6208210Y-11457831D03*
D14*
%TO.P,USB1,15,GND*%
X2008210Y-2807831D03*
%TO.P,USB1,16,GND*%
X2008210Y-11457831D03*
%TD*%
D10*
%TO.P,HOLE\u002A\u002A,*%
%TO.N,*%
X14416265Y1664337D03*
%TD*%
D11*
%TO.P,J1,1,Pin_1*%
%TO.N,GND*%
X6739210Y-15945663D03*
D12*
%TO.P,J1,2,Pin_2*%
%TO.N,Net-(J1-Pin_2)*%
X9279210Y-15945663D03*
%TO.P,J1,3,Pin_3*%
%TO.N,Net-(J1-Pin_3)*%
X11819210Y-15945663D03*
%TD*%
D15*
%TO.P,AE1,2,PCB_Trace*%
%TO.N,GND*%
X85466265Y-510000D03*
%TD*%
D10*
%TO.P,HOLE\u002A\u002A,*%
%TO.N,*%
X85549210Y1664337D03*
%TD*%
D11*
%TO.P,J2,1,Pin_1*%
%TO.N,GND*%
X83111265Y1664337D03*
D12*
%TO.P,J2,2,Pin_2*%
%TO.N,/VDD_3.3V*%
X80571265Y1664337D03*
%TO.P,J2,3,Pin_3*%
%TO.N,/GPIO0*%
X78031265Y1664337D03*
%TO.P,J2,4,Pin_4*%
%TO.N,/GPIO1*%
X75491265Y1664337D03*
%TO.P,J2,5,Pin_5*%
%TO.N,/GPIO2*%
X72951265Y1664337D03*
%TO.P,J2,6,Pin_6*%
%TO.N,/GPIO3*%
X70411265Y1664337D03*
%TO.P,J2,7,Pin_7*%
%TO.N,/GPIO4*%
X67871265Y1664337D03*
%TO.P,J2,8,Pin_8*%
%TO.N,/GPIO5*%
X65331265Y1664337D03*
%TO.P,J2,9,Pin_9*%
%TO.N,/GPIO6*%
X62791265Y1664337D03*
%TO.P,J2,10,Pin_10*%
%TO.N,/GPIO7*%
X60251265Y1664337D03*
%TO.P,J2,11,Pin_11*%
%TO.N,/GPIO8*%
X57711265Y1664337D03*
%TO.P,J2,12,Pin_12*%
%TO.N,/GPIO9*%
X55171265Y1664337D03*
%TO.P,J2,13,Pin_13*%
%TO.N,/GPIO10*%
X52631265Y1664337D03*
%TO.P,J2,14,Pin_14*%
%TO.N,/GPIO11*%
X50091265Y1664337D03*
%TO.P,J2,15,Pin_15*%
%TO.N,/GPIO12*%
X47551265Y1664337D03*
%TO.P,J2,16,Pin_16*%
%TO.N,/GPIO13*%
X45011265Y1664337D03*
%TO.P,J2,17,Pin_17*%
%TO.N,/GPIO14*%
X42471265Y1664337D03*
%TO.P,J2,18,Pin_18*%
%TO.N,/GPIO15*%
X39931265Y1664337D03*
%TO.P,J2,19,Pin_19*%
%TO.N,/GPIO16*%
X37391265Y1664337D03*
%TO.P,J2,20,Pin_20*%
%TO.N,/GPIO17*%
X34851265Y1664337D03*
%TO.P,J2,21,Pin_21*%
%TO.N,/GPIO18*%
X32311265Y1664337D03*
%TO.P,J2,22,Pin_22*%
%TO.N,/GPIO19{slash}ESP32_USB_D-*%
X29771265Y1664337D03*
%TO.P,J2,23,Pin_23*%
%TO.N,/GPIO20{slash}ESP32_USB_D+*%
X27231265Y1664337D03*
%TO.P,J2,24,Pin_24*%
%TO.N,/GPIO21*%
X24691265Y1664337D03*
%TO.P,J2,25,Pin_25*%
%TO.N,/SPICS1{slash}GPIO26*%
X22151265Y1664337D03*
%TO.P,J2,26,Pin_26*%
%TO.N,/VDD_3.3V*%
X19611265Y1664337D03*
%TO.P,J2,27,Pin_27*%
%TO.N,GND*%
X17071265Y1664337D03*
%TD*%
D11*
%TO.P,J4,1,Pin_1*%
%TO.N,GND*%
X83111265Y-15945663D03*
D12*
%TO.P,J4,2,Pin_2*%
%TO.N,/VDD_3.3V*%
X80571265Y-15945663D03*
%TO.P,J4,3,Pin_3*%
%TO.N,/GPIO46*%
X78031265Y-15945663D03*
%TO.P,J4,4,Pin_4*%
%TO.N,/GPIO45*%
X75491265Y-15945663D03*
%TO.P,J4,5,Pin_5*%
%TO.N,/GPIO42*%
X72951265Y-15945663D03*
%TO.P,J4,6,Pin_6*%
%TO.N,/GPIO41*%
X70411265Y-15945663D03*
%TO.P,J4,7,Pin_7*%
%TO.N,/GPIO40*%
X67871265Y-15945663D03*
%TO.P,J4,8,Pin_8*%
%TO.N,/GPIO39*%
X65331265Y-15945663D03*
%TO.P,J4,9,Pin_9*%
%TO.N,/GPIO38*%
X62791265Y-15945663D03*
%TO.P,J4,10,Pin_10*%
%TO.N,/GPIO37*%
X60251265Y-15945663D03*
%TO.P,J4,11,Pin_11*%
%TO.N,/GPIO36*%
X57711265Y-15945663D03*
%TO.P,J4,12,Pin_12*%
%TO.N,/GPIO35*%
X55171265Y-15945663D03*
%TO.P,J4,13,Pin_13*%
%TO.N,/GPIO34*%
X52631265Y-15945663D03*
%TO.P,J4,14,Pin_14*%
%TO.N,/GPIO33*%
X50091265Y-15945663D03*
%TO.P,J4,15,Pin_15*%
%TO.N,/SPICLK_P{slash}GPIO47*%
X47551265Y-15945663D03*
%TO.P,J4,16,Pin_16*%
%TO.N,/SPICLK_N{slash}GPIO48*%
X45011265Y-15945663D03*
%TO.P,J4,17,Pin_17*%
%TO.N,/SPID{slash}GPIO32*%
X42471265Y-15945663D03*
%TO.P,J4,18,Pin_18*%
%TO.N,/SPIQ{slash}GPIO31*%
X39931265Y-15945663D03*
%TO.P,J4,19,Pin_19*%
%TO.N,/SPICLK{slash}GPIO30*%
X37391265Y-15945663D03*
%TO.P,J4,20,Pin_20*%
%TO.N,/SPICS0{slash}GPIO29*%
X34851265Y-15945663D03*
%TO.P,J4,21,Pin_21*%
%TO.N,/SPIWP{slash}GPIO28*%
X32311265Y-15945663D03*
%TO.P,J4,22,Pin_22*%
%TO.N,/SPIHD{slash}GPIO27*%
X29771265Y-15945663D03*
%TO.P,J4,23,Pin_23*%
%TO.N,/VDD_SPI{slash}GPIO11*%
X27231265Y-15945663D03*
%TO.P,J4,24,Pin_24*%
%TO.N,/VDD_3.3V*%
X24691265Y-15945663D03*
%TO.P,J4,25,Pin_25*%
%TO.N,GND*%
X22151265Y-15945663D03*
%TO.P,J4,26,Pin_26*%
%TO.N,/VDD_5V*%
X19611265Y-15945663D03*
%TO.P,J4,27,Pin_27*%
%TO.N,GND*%
X17071265Y-15945663D03*
%TD*%
D16*
%TO.N,GND*%
X24066076Y-2319500D03*
X81860000Y-7160000D03*
X66611265Y-12580000D03*
X76850000Y-4990000D03*
X8060000Y-3510000D03*
X84770000Y-12160000D03*
X83800000Y-11160000D03*
X75620000Y-12170000D03*
X72280000Y-3360000D03*
X83800000Y-8160000D03*
X82830000Y-12160000D03*
X82830000Y-4160000D03*
X81860000Y-9160000D03*
X81860000Y-8160000D03*
X84770000Y-7160000D03*
X73190000Y-3360000D03*
X82830000Y-160000D03*
X77140000Y-7570000D03*
D17*
X10501265Y-6941265D03*
D16*
X80890000Y-4160000D03*
D18*
X64131265Y-6100000D03*
D16*
X73190000Y-6620000D03*
X29725000Y-4115000D03*
D17*
X53411265Y-8520000D03*
D16*
X83800000Y-10160000D03*
X79920000Y-2160000D03*
X13844210Y-10915000D03*
X78845000Y-12170000D03*
X78070000Y-8490000D03*
X83800000Y-7160000D03*
D17*
X73310000Y-8390000D03*
D16*
X84770000Y-1160000D03*
X75010000Y-6620000D03*
X64160000Y-12580000D03*
X40130000Y-11960000D03*
X80890000Y-1160000D03*
X76695000Y-12170000D03*
X78066666Y-6620000D03*
X81800000Y-2160000D03*
X79920000Y-13160000D03*
D17*
X60861265Y-2065163D03*
D16*
X80890000Y-160000D03*
X80890000Y-9160000D03*
D18*
X65281265Y-9320000D03*
D16*
X81800000Y-1160000D03*
X33581265Y-1400000D03*
X84770000Y-10160000D03*
X78993332Y-4990000D03*
X48490000Y-4830000D03*
X81860000Y-14160000D03*
X73190000Y-1820000D03*
X79920000Y-14160000D03*
D18*
X28625000Y-13315000D03*
D16*
X46620000Y-4830000D03*
X82830000Y-1160000D03*
X26575000Y-8690000D03*
X84770000Y-6160000D03*
X29725000Y-6390000D03*
D17*
X40040000Y-4940000D03*
D16*
X40390000Y-9010000D03*
D17*
X55000000Y-8850000D03*
D16*
X81860000Y-10160000D03*
X79920000Y-12150000D03*
X79920000Y-9150000D03*
X77140000Y-6620000D03*
X81800000Y-3160000D03*
X58253148Y-8843372D03*
X80890000Y-2160000D03*
D18*
X17075000Y-2490000D03*
D16*
X82830000Y-14160000D03*
X77770000Y-12170000D03*
X82830000Y-2160000D03*
X20420000Y-630000D03*
X84770000Y-160000D03*
X78993332Y-7570000D03*
X79920000Y-11160000D03*
X83800000Y-1160000D03*
D18*
X67471265Y-7130000D03*
D16*
X80890000Y-3160000D03*
X22000000Y-2780000D03*
X79910000Y-4990000D03*
X76695000Y-13170000D03*
D18*
X66421265Y-8190000D03*
D17*
X24345000Y-3825000D03*
D16*
X25780000Y-2319500D03*
X81800000Y-160000D03*
X80890000Y-14160000D03*
X78845000Y-13170000D03*
X79920000Y-4160000D03*
D18*
X65281265Y-4940000D03*
D16*
X82830000Y-11160000D03*
X80880000Y-4990000D03*
X80890000Y-8160000D03*
X79920000Y-3160000D03*
X13844210Y-12620790D03*
D17*
X22911265Y-5270000D03*
X20691265Y-7480000D03*
D16*
X84770000Y-11160000D03*
X43430000Y-8820000D03*
X80890000Y-7160000D03*
X75010000Y-4990000D03*
X10901265Y-13240000D03*
X70450000Y-5290000D03*
X79920000Y-10150000D03*
X77770000Y-13170000D03*
X80890000Y-10160000D03*
X27325000Y-6390000D03*
X80890000Y-11160000D03*
X71356666Y-4990000D03*
D18*
X63101265Y-7130000D03*
D16*
X84770000Y-4160000D03*
X80890000Y-13160000D03*
X82830000Y-7160000D03*
X79920000Y-1160000D03*
D18*
X18761265Y-14189500D03*
D16*
X79920000Y-7150000D03*
X72280000Y-4990000D03*
X78996666Y-8490000D03*
X71370000Y-6620000D03*
D18*
X65281265Y-7130000D03*
D17*
X54570000Y-4810000D03*
D16*
X84770000Y-14160000D03*
X78066666Y-7570000D03*
X84770000Y-13160000D03*
X82830000Y-9160000D03*
D17*
X73311265Y-12050000D03*
X56881265Y-5250000D03*
D16*
X79920000Y-160000D03*
X44010000Y-12546163D03*
X82830000Y-13160000D03*
D18*
X17087764Y-164500D03*
D16*
X83800000Y-12160000D03*
X70460000Y-6620000D03*
X29720000Y-1869500D03*
X83800000Y-2160000D03*
D17*
X46830632Y-9929368D03*
D16*
X83800000Y-14160000D03*
X84770000Y-5160000D03*
X83800000Y-13160000D03*
X80890000Y-12160000D03*
X26781765Y-1869500D03*
X82830000Y-8160000D03*
X81860000Y-12160000D03*
X72280000Y-6620000D03*
X19350000Y-2565000D03*
D18*
X64131265Y-8190000D03*
D16*
X10501265Y-9780000D03*
X84770000Y-9160000D03*
D18*
X66421265Y-6100000D03*
D16*
X73190000Y-4990000D03*
X83800000Y-9160000D03*
X79920000Y-8150000D03*
X82830000Y-5030000D03*
X83800000Y-160000D03*
X24070000Y-1420500D03*
X82830000Y-3160000D03*
X81860000Y-13160000D03*
X25420000Y-13860000D03*
X84770000Y-8160000D03*
X81800000Y-4160000D03*
X81860000Y-11160000D03*
X82830000Y-10160000D03*
D18*
%TO.N,/VDD_5V*%
X8049710Y-4732831D03*
D17*
X30771265Y-6480000D03*
X26331265Y-6465163D03*
D18*
X8049710Y-9555163D03*
D17*
%TO.N,/VDD_3.3V*%
X23325000Y-2965000D03*
D18*
X78251265Y-630000D03*
D17*
X23740829Y-7166932D03*
X70480000Y-7575663D03*
X61871265Y-2070000D03*
D18*
X23321265Y-630000D03*
D17*
X14891265Y-11485663D03*
D16*
X29025500Y-8115000D03*
D18*
X10499210Y-3035663D03*
D17*
X27308549Y-4398549D03*
X70110000Y-3380000D03*
X71661265Y-12470000D03*
D18*
X28801265Y-635663D03*
D17*
X14889210Y-7395663D03*
D16*
%TO.N,/CHIP_PU*%
X21421265Y-5600000D03*
X71754044Y-2645663D03*
X25628909Y-1420500D03*
X38779210Y-2645663D03*
X32021265Y-1400000D03*
X32021265Y-6520000D03*
D17*
%TO.N,/VDD_SPI{slash}GPIO11*%
X49611265Y-5725000D03*
X41520000Y-5725000D03*
X55240000Y-5725000D03*
D16*
%TO.N,Net-(J1-Pin_2)*%
X14191265Y-8211163D03*
%TO.N,/GPIO0*%
X37611265Y-4010000D03*
X69351265Y-4000000D03*
%TO.N,/GPIO19{slash}ESP32_USB_D-*%
X18149210Y-10635663D03*
%TO.N,/GPIO20{slash}ESP32_USB_D+*%
X19129210Y-10035663D03*
%TO.N,/DTR*%
X6960000Y-1140000D03*
X17200000Y-10726163D03*
X15581265Y-5010000D03*
X15450287Y-10714713D03*
X27351265Y-11110000D03*
%TO.N,/U0RXD*%
X69615318Y-10085163D03*
X24579210Y-7105663D03*
%TO.N,/U0TXD*%
X25049210Y-7555163D03*
X69109210Y-10535163D03*
%TO.N,/RTS*%
X20669210Y-2605663D03*
%TO.N,/GPIO45*%
X74350000Y-13810500D03*
X71240000Y-9856453D03*
%TO.N,/GPIO42*%
X69121186Y-11134546D03*
%TO.N,/GPIO41*%
X69110449Y-11742592D03*
%TO.N,/SPID{slash}GPIO32*%
X54111265Y-11190000D03*
%TO.N,/SPIQ{slash}GPIO31*%
X42791265Y-12460000D03*
%TO.N,/SPICLK{slash}GPIO30*%
X52791265Y-11190000D03*
%TO.N,/SPICS0{slash}GPIO29*%
X40131265Y-10650000D03*
%TO.N,/SPIWP{slash}GPIO28*%
X44066265Y-9280000D03*
%TO.N,/SPIHD{slash}GPIO27*%
X29771265Y-14210000D03*
X44120000Y-6450500D03*
X39430000Y-6450000D03*
%TO.N,Net-(USB1-CC1)*%
X14869210Y-1955663D03*
X10699210Y-535663D03*
X8974210Y-2260663D03*
X8969210Y-5895663D03*
%TO.N,/USB_Data-*%
X6149210Y-6385663D03*
X6152042Y-7382831D03*
%TD*%
D19*
%TO.N,GND*%
X29725000Y-1874500D02*
X29725000Y-4115000D01*
D20*
X48490000Y-4830000D02*
X46620000Y-4830000D01*
D21*
X17075000Y-177264D02*
X17075000Y-2490000D01*
D19*
X24345000Y-3825000D02*
X22911265Y-5258735D01*
D20*
X13844210Y-12620790D02*
X13844210Y-10915000D01*
D19*
X73190000Y-1820000D02*
X73190000Y-3360000D01*
D21*
X75620000Y-12170000D02*
X79900000Y-12170000D01*
D19*
X24345000Y-3825000D02*
X24345000Y-3754500D01*
D22*
X17087764Y-152764D02*
X17075000Y-165528D01*
D19*
X24345000Y-3754500D02*
X25780000Y-2319500D01*
X22911265Y-5270000D02*
X20701265Y-7480000D01*
X73310000Y-8390000D02*
X73311265Y-8391265D01*
D21*
X79920000Y-8500000D02*
X79920000Y-8150000D01*
X18761265Y-14189500D02*
X18761765Y-14190000D01*
D19*
X29725000Y-6390000D02*
X27325000Y-6390000D01*
D21*
X66611265Y-12580000D02*
X61989776Y-12580000D01*
D20*
X70750000Y-4990000D02*
X70450000Y-5290000D01*
X73190000Y-4990000D02*
X70750000Y-4990000D01*
D19*
X43451265Y-8820000D02*
X43731265Y-8540000D01*
D22*
X17075000Y-2465000D02*
X17100000Y-2490000D01*
D21*
X18761265Y-14190000D02*
X17071265Y-15880000D01*
X79900000Y-12170000D02*
X79920000Y-12150000D01*
D19*
X20701265Y-7480000D02*
X20691265Y-7480000D01*
D21*
X6208210Y-11457831D02*
X6208210Y-15414663D01*
X17087764Y-164500D02*
X17075000Y-177264D01*
D19*
X24066076Y-2319500D02*
X24066076Y-1424424D01*
X73311265Y-8391265D02*
X73311265Y-12050000D01*
X26331765Y-2319500D02*
X25780000Y-2319500D01*
X45441264Y-8540000D02*
X46830632Y-9929368D01*
D21*
X79910000Y-8490000D02*
X79920000Y-8500000D01*
D19*
X29720000Y-1869500D02*
X29725000Y-1874500D01*
X24066076Y-1424424D02*
X24070000Y-1420500D01*
D22*
X17075000Y-165528D02*
X17075000Y-765000D01*
D21*
X61989776Y-12580000D02*
X58253148Y-8843372D01*
X79920000Y-12150000D02*
X79920000Y-8500000D01*
X18761765Y-14190000D02*
X20395602Y-14190000D01*
D19*
X26781765Y-1869500D02*
X26331765Y-2319500D01*
D21*
X78070000Y-8490000D02*
X79910000Y-8490000D01*
X20395602Y-14190000D02*
X22151265Y-15945663D01*
D23*
X65281265Y-4940000D02*
X40040000Y-4940000D01*
D21*
X18761265Y-14189500D02*
X18761265Y-14190000D01*
D19*
X43731265Y-8540000D02*
X45441264Y-8540000D01*
X22911265Y-5258735D02*
X22911265Y-5270000D01*
D21*
%TO.N,/VDD_5V*%
X27306428Y-5490000D02*
X26331265Y-6465163D01*
X8049710Y-9555163D02*
X8049710Y-4732831D01*
X29781265Y-5490000D02*
X27306428Y-5490000D01*
X30771265Y-6480000D02*
X29781265Y-5490000D01*
D19*
%TO.N,/VDD_3.3V*%
X27308549Y-4398549D02*
X27307098Y-4400000D01*
D20*
X29025500Y-11614500D02*
X24694337Y-15945663D01*
D21*
X63711265Y-640000D02*
X78241265Y-640000D01*
X28805602Y-640000D02*
X63711265Y-640000D01*
D19*
X78241265Y-640000D02*
X78251265Y-630000D01*
X71661265Y-12470000D02*
X73501265Y-14310000D01*
X14889210Y-7395663D02*
X13949210Y-7395663D01*
X14891265Y-7397718D02*
X14889210Y-7395663D01*
X23321265Y-2961265D02*
X23325000Y-2965000D01*
X14891265Y-11485663D02*
X14891265Y-11500000D01*
D21*
X21905602Y-630000D02*
X19611265Y1664337D01*
D19*
X70480000Y-11300000D02*
X71650000Y-12470000D01*
X23743068Y-7166932D02*
X23740829Y-7166932D01*
X69255663Y-7575663D02*
X70480000Y-7575663D01*
X70110000Y-3380000D02*
X70110000Y-4290000D01*
X70480000Y-7575663D02*
X70480000Y-11300000D01*
X14891265Y-11500000D02*
X16881265Y-13490000D01*
X22235602Y-13490000D02*
X24691265Y-15945663D01*
X78266928Y-640000D02*
X80571265Y1664337D01*
X14891265Y-11485663D02*
X14891265Y-7397718D01*
X71650000Y-12470000D02*
X71661265Y-12470000D01*
X78261265Y-640000D02*
X78266928Y-640000D01*
X23321265Y-630000D02*
X23321265Y-2961265D01*
X13949210Y-7395663D02*
X10499210Y-3945663D01*
D21*
X23321265Y-630000D02*
X21905602Y-630000D01*
D19*
X27307098Y-4400000D02*
X26510000Y-4400000D01*
X28801265Y-635663D02*
X28805602Y-640000D01*
X16881265Y-13490000D02*
X22235602Y-13490000D01*
X73501265Y-14310000D02*
X78935602Y-14310000D01*
X68410000Y-5990000D02*
X68410000Y-6730000D01*
X63711265Y-640000D02*
X61871265Y-640000D01*
X61871265Y-640000D02*
X61871265Y-2070000D01*
X78935602Y-14310000D02*
X80571265Y-15945663D01*
X10499210Y-3945663D02*
X10499210Y-3035663D01*
X70110000Y-4290000D02*
X68410000Y-5990000D01*
X26510000Y-4400000D02*
X23743068Y-7166932D01*
X78251265Y-630000D02*
X78261265Y-640000D01*
D20*
X29025500Y-8115000D02*
X29025500Y-11614500D01*
D19*
X68410000Y-6730000D02*
X69255663Y-7575663D01*
D20*
%TO.N,/CHIP_PU*%
X32021265Y-1400000D02*
X32021265Y-6520000D01*
X38779210Y-2645663D02*
X71754044Y-2645663D01*
X25628909Y-1438909D02*
X21467818Y-5600000D01*
X21467818Y-5600000D02*
X21421265Y-5600000D01*
X25628909Y-1420500D02*
X25628909Y-1438909D01*
D19*
%TO.N,/VDD_SPI{slash}GPIO11*%
X41520000Y-5725000D02*
X55240000Y-5725000D01*
D20*
%TO.N,Net-(J1-Pin_2)*%
X14191265Y-8211163D02*
X14191265Y-8220000D01*
X9279210Y-13132055D02*
X9279210Y-15945663D01*
X14191265Y-8220000D02*
X9279210Y-13132055D01*
%TO.N,/GPIO0*%
X37621265Y-4000000D02*
X37611265Y-4010000D01*
X69351265Y-4000000D02*
X37621265Y-4000000D01*
%TO.N,/GPIO19{slash}ESP32_USB_D-*%
X28070000Y-1890000D02*
X28070000Y-36928D01*
X28070000Y-36928D02*
X29771265Y1664337D01*
X18149210Y-10635663D02*
X19324337Y-10635663D01*
X19324337Y-10635663D02*
X28070000Y-1890000D01*
%TO.N,/GPIO20{slash}ESP32_USB_D+*%
X19500073Y-10035663D02*
X27231265Y-2304471D01*
X19129210Y-10035663D02*
X19500073Y-10035663D01*
X27231265Y-2304471D02*
X27231265Y1664337D01*
%TO.N,/DTR*%
X15450287Y-10719022D02*
X17696265Y-12965000D01*
X6960000Y-1140000D02*
X6960000Y-1100000D01*
X16711265Y-6140000D02*
X15581265Y-5010000D01*
X16711265Y-10237428D02*
X16711265Y-6140000D01*
X6960000Y-1100000D02*
X4195663Y1664337D01*
X15450287Y-10714713D02*
X15450287Y-10719022D01*
X17200000Y-10726163D02*
X16711265Y-10237428D01*
X25496265Y-12965000D02*
X27351265Y-11110000D01*
X17696265Y-12965000D02*
X25496265Y-12965000D01*
%TO.N,/U0RXD*%
X24579210Y-7105663D02*
X20509210Y-11175663D01*
X16971192Y-11175663D02*
X15969210Y-10173681D01*
X20509210Y-11175663D02*
X16971192Y-11175663D01*
X15969210Y-7151399D02*
X9269210Y-451399D01*
X24579210Y-7105663D02*
X58426928Y-7105663D01*
X61406428Y-10085163D02*
X69615318Y-10085163D01*
X58426928Y-7105663D02*
X61406428Y-10085163D01*
X15969210Y-10173681D02*
X15969210Y-7151399D01*
X9269210Y-451399D02*
X9269210Y1664337D01*
%TO.N,/U0TXD*%
X25049210Y-7555163D02*
X58236428Y-7555163D01*
X15669210Y-7275663D02*
X6729210Y1664337D01*
X25049210Y-7555163D02*
X21128710Y-11475663D01*
X21128710Y-11475663D02*
X16846928Y-11475663D01*
X61216428Y-10535163D02*
X69109210Y-10535163D01*
X58236428Y-7555163D02*
X61216428Y-10535163D01*
X16846928Y-11475663D02*
X15669210Y-10297945D01*
X15669210Y-10297945D02*
X15669210Y-7275663D01*
%TO.N,/RTS*%
X13000000Y485000D02*
X17578547Y485000D01*
X11820663Y1664337D02*
X13000000Y485000D01*
X17578547Y485000D02*
X20669210Y-2605663D01*
%TO.N,/GPIO45*%
X73710500Y-13810500D02*
X74350000Y-13810500D01*
X72530000Y-12630000D02*
X73710500Y-13810500D01*
X72530000Y-11146453D02*
X72530000Y-12630000D01*
X71240000Y-9856453D02*
X72530000Y-11146453D01*
%TO.N,/GPIO42*%
X72951265Y-14947718D02*
X72951265Y-15945663D01*
X69121186Y-11134546D02*
X69138093Y-11134546D01*
X69138093Y-11134546D02*
X72951265Y-14947718D01*
%TO.N,/GPIO41*%
X69110449Y-11742592D02*
X70411265Y-13043408D01*
X70411265Y-13043408D02*
X70411265Y-15945663D01*
%TO.N,/SPID{slash}GPIO32*%
X44116928Y-14300000D02*
X42471265Y-15945663D01*
X54111265Y-11190000D02*
X51001265Y-14300000D01*
X51001265Y-14300000D02*
X44116928Y-14300000D01*
%TO.N,/SPIQ{slash}GPIO31*%
X42791265Y-13085663D02*
X39931265Y-15945663D01*
X42791265Y-12460000D02*
X42791265Y-13085663D01*
%TO.N,/SPICLK{slash}GPIO30*%
X52121265Y-11860000D02*
X41476928Y-11860000D01*
X41476928Y-11860000D02*
X37391265Y-15945663D01*
X52791265Y-11190000D02*
X52121265Y-11860000D01*
%TO.N,/SPICS0{slash}GPIO29*%
X38416928Y-12380000D02*
X34851265Y-15945663D01*
X40131265Y-10650000D02*
X38416928Y-12364337D01*
X38416928Y-12364337D02*
X38416928Y-12380000D01*
%TO.N,/SPIWP{slash}GPIO28*%
X43360000Y-9990000D02*
X38266928Y-9990000D01*
X44066265Y-9283735D02*
X43360000Y-9990000D01*
X38266928Y-9990000D02*
X32311265Y-15945663D01*
X44066265Y-9280000D02*
X44066265Y-9283735D01*
%TO.N,/SPIHD{slash}GPIO27*%
X44120000Y-6450500D02*
X44119500Y-6450000D01*
X39430000Y-6450000D02*
X44119500Y-6450000D01*
X29771265Y-15945663D02*
X29771265Y-14210000D01*
%TO.N,Net-(USB1-CC1)*%
X8974210Y-2260663D02*
X8969210Y-2265663D01*
X8969210Y-2265663D02*
X8969210Y-5895663D01*
X14869210Y-1155663D02*
X14249210Y-535663D01*
X14249210Y-535663D02*
X10699210Y-535663D01*
X14869210Y-1955663D02*
X14869210Y-1155663D01*
%TO.N,/USB_Data-*%
X6149210Y-6385663D02*
X6149210Y-7379999D01*
X6149210Y-7379999D02*
X6152042Y-7382831D01*
%TD*%
%TA.AperFunction,Conductor*%
%TO.N,GND*%
G36*
X2760544Y2732181D02*
G01*
X2814497Y2687786D01*
X2835883Y2621270D01*
X2835212Y2604855D01*
X2830710Y2562992D01*
X2830710Y765683D01*
X2837221Y705135D01*
X2837221Y705133D01*
X2871725Y612628D01*
X2888321Y568133D01*
X2975949Y451076D01*
X3093006Y363448D01*
X3206021Y321295D01*
X3224673Y314338D01*
X3230009Y312348D01*
X3256947Y309452D01*
X3290555Y305838D01*
X3290572Y305837D01*
X3762939Y305837D01*
X3786990Y303482D01*
X3790086Y302870D01*
X3900882Y289093D01*
X4085295Y266161D01*
X4092924Y264721D01*
X4371306Y193924D01*
X4378260Y191712D01*
X4663759Y82003D01*
X4669849Y79277D01*
X4963530Y-71744D01*
X4968749Y-74758D01*
X5074969Y-143185D01*
X5254001Y-258517D01*
X5274529Y-275078D01*
X6153417Y-1153966D01*
X6186902Y-1215289D01*
X6193877Y-1247781D01*
X6194582Y-1250655D01*
X6197419Y-1262230D01*
X6199021Y-1268032D01*
X6201472Y-1276912D01*
X6205659Y-1290581D01*
X6241075Y-1395671D01*
X6241301Y-1396277D01*
X6244216Y-1404089D01*
X6263030Y-1445478D01*
X6265109Y-1450660D01*
X6272289Y-1471179D01*
X6272290Y-1471183D01*
X6363228Y-1615908D01*
X6421890Y-1674570D01*
X6455375Y-1735893D01*
X6458209Y-1762251D01*
X6458210Y-2383831D01*
X6438526Y-2450870D01*
X6385722Y-2496625D01*
X6334210Y-2507831D01*
X6082210Y-2507831D01*
X6015171Y-2488146D01*
X5969416Y-2435342D01*
X5958210Y-2383831D01*
X5958210Y-1807831D01*
X5607497Y-1807831D01*
X5455871Y-1823249D01*
X5261828Y-1884130D01*
X5261818Y-1884135D01*
X5083994Y-1982836D01*
X5083993Y-1982836D01*
X4929679Y-2115309D01*
X4929678Y-2115310D01*
X4805191Y-2276135D01*
X4715621Y-2458737D01*
X4689964Y-2557831D01*
X5203231Y-2557831D01*
X5270270Y-2577516D01*
X5316025Y-2630320D01*
X5325969Y-2699478D01*
X5322497Y-2715765D01*
X5304315Y-2779668D01*
X5304314Y-2779668D01*
X5314663Y-2891348D01*
X5317095Y-2899894D01*
X5316509Y-2969761D01*
X5278244Y-3028221D01*
X5214447Y-3056712D01*
X5197829Y-3057831D01*
X4684844Y-3057831D01*
X4685141Y-3059777D01*
X4685143Y-3059783D01*
X4755772Y-3250488D01*
X4755775Y-3250495D01*
X4863359Y-3423098D01*
X5003474Y-3570499D01*
X5003476Y-3570500D01*
X5170406Y-3686688D01*
X5250092Y-3720883D01*
X5303936Y-3765409D01*
X5325160Y-3831977D01*
X5307025Y-3899452D01*
X5302498Y-3906342D01*
X5237238Y-3998794D01*
X5188864Y-4134905D01*
X5188864Y-4134908D01*
X5182507Y-4227854D01*
X5179006Y-4279030D01*
X5197441Y-4367744D01*
X5208396Y-4420465D01*
X5208397Y-4420467D01*
X5274855Y-4548724D01*
X5274859Y-4548730D01*
X5334998Y-4613123D01*
X5373455Y-4654300D01*
X5496882Y-4729357D01*
X5635982Y-4768331D01*
X5635983Y-4768331D01*
X5744160Y-4768331D01*
X5755712Y-4766742D01*
X5851321Y-4753602D01*
X5983819Y-4696050D01*
X6095875Y-4604885D01*
X6179181Y-4486868D01*
X6205352Y-4413228D01*
X6227555Y-4350756D01*
X6227555Y-4350754D01*
X6227556Y-4350752D01*
X6237414Y-4206632D01*
X6208024Y-4065197D01*
X6141564Y-3936936D01*
X6141561Y-3936933D01*
X6141560Y-3936931D01*
X6042965Y-3831362D01*
X6017781Y-3816047D01*
X5970729Y-3764395D01*
X5958210Y-3710099D01*
X5958210Y-3231831D01*
X5977895Y-3164792D01*
X6030699Y-3119037D01*
X6082210Y-3107831D01*
X6334210Y-3107831D01*
X6401249Y-3127516D01*
X6447004Y-3180320D01*
X6458210Y-3231831D01*
X6458210Y-3807831D01*
X6808923Y-3807831D01*
X6960548Y-3792412D01*
X7154591Y-3731531D01*
X7154601Y-3731526D01*
X7332425Y-3632825D01*
X7332426Y-3632825D01*
X7486740Y-3500352D01*
X7486741Y-3500351D01*
X7611228Y-3339526D01*
X7700798Y-3156924D01*
X7726456Y-3057831D01*
X7213189Y-3057831D01*
X7146150Y-3038146D01*
X7100395Y-2985342D01*
X7090451Y-2916184D01*
X7093923Y-2899897D01*
X7112104Y-2835993D01*
X7112105Y-2835991D01*
X7110207Y-2815507D01*
X7101756Y-2724310D01*
X7101754Y-2724306D01*
X7099325Y-2715768D01*
X7099911Y-2645901D01*
X7138176Y-2587441D01*
X7201973Y-2558950D01*
X7218591Y-2557831D01*
X7731576Y-2557831D01*
X7731278Y-2555884D01*
X7731276Y-2555878D01*
X7660647Y-2365173D01*
X7660644Y-2365166D01*
X7553060Y-2192563D01*
X7412945Y-2045162D01*
X7412943Y-2045161D01*
X7344799Y-1997731D01*
X7301020Y-1943277D01*
X7293632Y-1873799D01*
X7324979Y-1811356D01*
X7349665Y-1790962D01*
X7435909Y-1736771D01*
X7556771Y-1615909D01*
X7647709Y-1471183D01*
X7704162Y-1309850D01*
X7707873Y-1276912D01*
X7723299Y-1140003D01*
X7723299Y-1139996D01*
X7704163Y-970155D01*
X7704162Y-970150D01*
X7694609Y-942850D01*
X7647709Y-808817D01*
X7556771Y-664091D01*
X7435909Y-543229D01*
X7435908Y-543228D01*
X7382119Y-509430D01*
X7291183Y-452291D01*
X7266894Y-443791D01*
X7246196Y-434337D01*
X7233979Y-427336D01*
X7233973Y-427333D01*
X7150050Y-394049D01*
X7129174Y-385668D01*
X7090403Y-360908D01*
X7061267Y-333496D01*
X7025469Y-302789D01*
X7025468Y-302788D01*
X7021025Y-298977D01*
X7021087Y-298904D01*
X7010719Y-290170D01*
X6680901Y39648D01*
X6647416Y100971D01*
X6652400Y170663D01*
X6694272Y226596D01*
X6759736Y251013D01*
X6781593Y250644D01*
X7015601Y225930D01*
X7188885Y209506D01*
X7219240Y202708D01*
X7253270Y190437D01*
X7296652Y174794D01*
X7331542Y155379D01*
X7533741Y-4645D01*
X7545997Y-13864D01*
X7552576Y-19578D01*
X8846411Y-1313413D01*
X8879896Y-1374736D01*
X8874912Y-1444428D01*
X8833040Y-1500361D01*
X8799685Y-1518135D01*
X8643029Y-1572952D01*
X8498301Y-1663891D01*
X8377438Y-1784754D01*
X8286501Y-1929479D01*
X8230047Y-2090813D01*
X8230046Y-2090818D01*
X8210911Y-2260659D01*
X8210911Y-2260666D01*
X8230046Y-2430505D01*
X8230046Y-2430507D01*
X8273321Y-2554180D01*
X8274285Y-2557177D01*
X8281207Y-2580731D01*
X8281208Y-2580736D01*
X8300936Y-2623909D01*
X8324946Y-2676454D01*
X8337908Y-2701857D01*
X8341627Y-2709146D01*
X8355011Y-2759157D01*
X8355813Y-2774814D01*
X8355877Y-2775513D01*
X8360181Y-2822190D01*
X8359838Y-2822221D01*
X8360709Y-2833600D01*
X8360709Y-3663510D01*
X8341024Y-3730549D01*
X8288220Y-3776304D01*
X8224555Y-3786913D01*
X8049710Y-3769693D01*
X7861808Y-3788199D01*
X7681131Y-3843008D01*
X7514624Y-3932007D01*
X7514617Y-3932011D01*
X7368668Y-4051789D01*
X7248890Y-4197738D01*
X7248886Y-4197745D01*
X7159887Y-4364252D01*
X7105078Y-4544929D01*
X7086786Y-4730661D01*
X7086572Y-4732831D01*
X7088618Y-4753601D01*
X7105078Y-4920732D01*
X7159887Y-5101410D01*
X7162485Y-5107682D01*
X7163958Y-5111608D01*
X7164780Y-5114049D01*
X7229273Y-5268182D01*
X7262426Y-5354858D01*
X7264606Y-5361730D01*
X7273357Y-5396134D01*
X7276524Y-5413935D01*
X7282915Y-5475684D01*
X7283233Y-5480892D01*
X7286084Y-5631099D01*
X7289480Y-5681100D01*
X7289553Y-5681542D01*
X7291210Y-5701745D01*
X7291210Y-8615439D01*
X7289591Y-8635410D01*
X7286084Y-8656898D01*
X7286083Y-8656898D01*
X7283233Y-8807099D01*
X7282915Y-8812307D01*
X7276524Y-8874054D01*
X7273357Y-8891855D01*
X7264605Y-8926263D01*
X7262425Y-8933134D01*
X7229273Y-9019810D01*
X7164778Y-9173946D01*
X7164776Y-9173952D01*
X7163194Y-9178393D01*
X7162070Y-9181314D01*
X7159885Y-9186589D01*
X7158056Y-9192617D01*
X7157139Y-9195400D01*
X7146090Y-9226437D01*
X7146086Y-9226454D01*
X7145845Y-9228108D01*
X7141809Y-9246173D01*
X7105077Y-9367264D01*
X7086572Y-9555163D01*
X7105078Y-9743064D01*
X7159887Y-9923741D01*
X7248886Y-10090248D01*
X7248890Y-10090255D01*
X7368668Y-10236204D01*
X7514617Y-10355982D01*
X7514624Y-10355986D01*
X7641846Y-10423987D01*
X7681133Y-10444986D01*
X7861811Y-10499795D01*
X8049710Y-10518301D01*
X8237609Y-10499795D01*
X8418287Y-10444986D01*
X8584801Y-10355983D01*
X8730751Y-10236204D01*
X8850530Y-10090254D01*
X8939533Y-9923740D01*
X8994342Y-9743062D01*
X9012848Y-9555163D01*
X8994342Y-9367264D01*
X8939533Y-9186586D01*
X8939530Y-9186581D01*
X8936934Y-9180312D01*
X8935456Y-9176369D01*
X8934635Y-9173933D01*
X8870147Y-9019809D01*
X8836988Y-8933126D01*
X8834807Y-8926251D01*
X8826056Y-8891841D01*
X8822893Y-8874064D01*
X8816502Y-8812306D01*
X8816185Y-8807107D01*
X8813336Y-8656898D01*
X8813336Y-8656899D01*
X8813302Y-8656408D01*
X8809940Y-8606898D01*
X8809940Y-8606892D01*
X8809937Y-8606882D01*
X8809867Y-8606456D01*
X8808209Y-8586259D01*
X8808209Y-6779576D01*
X8827894Y-6712538D01*
X8880698Y-6666783D01*
X8946092Y-6656357D01*
X8969210Y-6658962D01*
X8969210Y-6658961D01*
X8969211Y-6658962D01*
X8969214Y-6658962D01*
X9139054Y-6639826D01*
X9139057Y-6639825D01*
X9139060Y-6639825D01*
X9300393Y-6583372D01*
X9445119Y-6492434D01*
X9565981Y-6371572D01*
X9656919Y-6226846D01*
X9713372Y-6065513D01*
X9713373Y-6065507D01*
X9732509Y-5895666D01*
X9732509Y-5895659D01*
X9713373Y-5725820D01*
X9713372Y-5725818D01*
X9713372Y-5725813D01*
X9668201Y-5596723D01*
X9667324Y-5594014D01*
X9661213Y-5573545D01*
X9618523Y-5481177D01*
X9617236Y-5478584D01*
X9612341Y-5468721D01*
X9597300Y-5440241D01*
X9583140Y-5389203D01*
X9582535Y-5378277D01*
X9578663Y-5337692D01*
X9578662Y-5337690D01*
X9577990Y-5330641D01*
X9577710Y-5324750D01*
X9577710Y-3850788D01*
X9597395Y-3783749D01*
X9650199Y-3737994D01*
X9719357Y-3728050D01*
X9782913Y-3757075D01*
X9811269Y-3792712D01*
X9813542Y-3797000D01*
X9823163Y-3820840D01*
X9823772Y-3822960D01*
X9828285Y-3848472D01*
X9836215Y-3960910D01*
X9840134Y-3997617D01*
X9840387Y-3998893D01*
X9842692Y-4019104D01*
X9843647Y-4049490D01*
X9843648Y-4049497D01*
X9849674Y-4070240D01*
X9853617Y-4089281D01*
X9856326Y-4110716D01*
X9856327Y-4110720D01*
X9856328Y-4110727D01*
X9872494Y-4151560D01*
X9874444Y-4156485D01*
X9876335Y-4162011D01*
X9890064Y-4209261D01*
X9901060Y-4227854D01*
X9909620Y-4245328D01*
X9917573Y-4265417D01*
X9946499Y-4305228D01*
X9949700Y-4310100D01*
X9968082Y-4341183D01*
X9973741Y-4350753D01*
X9974757Y-4352470D01*
X9974761Y-4352474D01*
X9990031Y-4367744D01*
X10002669Y-4382540D01*
X10014299Y-4398548D01*
X10015369Y-4400020D01*
X10053282Y-4431384D01*
X10057593Y-4435306D01*
X11741103Y-6118816D01*
X13422490Y-7800203D01*
X13432640Y-7812871D01*
X13432816Y-7812727D01*
X13437788Y-7818737D01*
X13437793Y-7818742D01*
X13437794Y-7818743D01*
X13440864Y-7821626D01*
X13442543Y-7824483D01*
X13442762Y-7824748D01*
X13442719Y-7824783D01*
X13476259Y-7881864D01*
X13473467Y-7951678D01*
X13472633Y-7954069D01*
X13438154Y-8049599D01*
X13432765Y-8066185D01*
X13430188Y-8075154D01*
X13423411Y-8098741D01*
X13397146Y-8146615D01*
X13396154Y-8147737D01*
X13394863Y-8149198D01*
X13381340Y-8165726D01*
X13366879Y-8183400D01*
X13362732Y-8187982D01*
X8880011Y-12670704D01*
X8873908Y-12676055D01*
X8845223Y-12698067D01*
X8820732Y-12729984D01*
X8747686Y-12825178D01*
X8747685Y-12825180D01*
X8689771Y-12965000D01*
X8686373Y-12973202D01*
X8686371Y-12973208D01*
X8670167Y-13096296D01*
X8670165Y-13096309D01*
X8665460Y-13132054D01*
X8670178Y-13167900D01*
X8670709Y-13176000D01*
X8670709Y-14170413D01*
X8668544Y-14193484D01*
X8667952Y-14196609D01*
X8638127Y-14452749D01*
X8627183Y-14491149D01*
X8592178Y-14565633D01*
X8575518Y-14591906D01*
X8464611Y-14726042D01*
X8273001Y-14962901D01*
X8215533Y-15002641D01*
X8145704Y-15005003D01*
X8085682Y-14969238D01*
X8060414Y-14928246D01*
X8032564Y-14853576D01*
X8032560Y-14853569D01*
X7946400Y-14738475D01*
X7946397Y-14738472D01*
X7831303Y-14652312D01*
X7831296Y-14652308D01*
X7696589Y-14602066D01*
X7696582Y-14602064D01*
X7637054Y-14595663D01*
X6989210Y-14595663D01*
X6989210Y-15333361D01*
X6969525Y-15400400D01*
X6916721Y-15446155D01*
X6847565Y-15456099D01*
X6774976Y-15445663D01*
X6774973Y-15445663D01*
X6703447Y-15445663D01*
X6703443Y-15445663D01*
X6630855Y-15456099D01*
X6561697Y-15446155D01*
X6508894Y-15400399D01*
X6489210Y-15333361D01*
X6489210Y-14595663D01*
X5841365Y-14595663D01*
X5781837Y-14602064D01*
X5781830Y-14602066D01*
X5647123Y-14652308D01*
X5647116Y-14652312D01*
X5532022Y-14738472D01*
X5532019Y-14738475D01*
X5445859Y-14853569D01*
X5445855Y-14853576D01*
X5395613Y-14988283D01*
X5395611Y-14988290D01*
X5389210Y-15047818D01*
X5389210Y-15695663D01*
X6125863Y-15695663D01*
X6192902Y-15715348D01*
X6238657Y-15768152D01*
X6248601Y-15837310D01*
X6244841Y-15854596D01*
X6239210Y-15873774D01*
X6239210Y-16017551D01*
X6244841Y-16036730D01*
X6244840Y-16106599D01*
X6207065Y-16165377D01*
X6143509Y-16194401D01*
X6125863Y-16195663D01*
X5389210Y-16195663D01*
X5389210Y-16843507D01*
X5395526Y-16902244D01*
X5383121Y-16971004D01*
X5335511Y-17022141D01*
X5272237Y-17039500D01*
X3011745Y-17039500D01*
X3008268Y-17039402D01*
X2705636Y-17022404D01*
X2698722Y-17021625D01*
X2401618Y-16971142D01*
X2394835Y-16969594D01*
X2105248Y-16886163D01*
X2098680Y-16883865D01*
X1855012Y-16782934D01*
X1820258Y-16768538D01*
X1813993Y-16765520D01*
X1550231Y-16619744D01*
X1544339Y-16616042D01*
X1298564Y-16441654D01*
X1293124Y-16437316D01*
X1068414Y-16236503D01*
X1063494Y-16231583D01*
X862680Y-16006873D01*
X858342Y-16001433D01*
X781176Y-15892679D01*
X683951Y-15755653D01*
X680263Y-15749787D01*
X534474Y-15486004D01*
X531457Y-15479739D01*
X416127Y-15201312D01*
X413829Y-15194745D01*
X406590Y-15169618D01*
X330396Y-14905152D01*
X328852Y-14898386D01*
X321012Y-14852244D01*
X278367Y-14601268D01*
X277590Y-14594372D01*
X269229Y-14445516D01*
X260598Y-14291855D01*
X260500Y-14288378D01*
X260500Y-11707831D01*
X584844Y-11707831D01*
X585141Y-11709777D01*
X585143Y-11709783D01*
X655772Y-11900488D01*
X655775Y-11900495D01*
X763359Y-12073098D01*
X903474Y-12220499D01*
X903476Y-12220500D01*
X1070405Y-12336687D01*
X1257302Y-12416890D01*
X1456520Y-12457831D01*
X1758210Y-12457831D01*
X1758210Y-11881831D01*
X1777895Y-11814792D01*
X1830699Y-11769037D01*
X1882210Y-11757831D01*
X2134210Y-11757831D01*
X2201249Y-11777516D01*
X2247004Y-11830320D01*
X2258210Y-11881831D01*
X2258209Y-12457831D01*
X2508923Y-12457831D01*
X2660548Y-12442412D01*
X2854591Y-12381531D01*
X2854601Y-12381526D01*
X3032425Y-12282825D01*
X3032426Y-12282825D01*
X3186740Y-12150352D01*
X3186741Y-12150351D01*
X3311228Y-11989526D01*
X3400798Y-11806924D01*
X3426456Y-11707831D01*
X4684844Y-11707831D01*
X4685141Y-11709777D01*
X4685143Y-11709783D01*
X4755772Y-11900488D01*
X4755775Y-11900495D01*
X4863359Y-12073098D01*
X5003474Y-12220499D01*
X5003476Y-12220500D01*
X5170405Y-12336687D01*
X5357302Y-12416890D01*
X5556520Y-12457831D01*
X5958210Y-12457831D01*
X5958210Y-11881831D01*
X5977895Y-11814792D01*
X6030699Y-11769037D01*
X6082210Y-11757831D01*
X6334210Y-11757831D01*
X6401249Y-11777516D01*
X6447004Y-11830320D01*
X6458210Y-11881831D01*
X6458210Y-12457831D01*
X6808923Y-12457831D01*
X6960548Y-12442412D01*
X7154591Y-12381531D01*
X7154601Y-12381526D01*
X7332425Y-12282825D01*
X7332426Y-12282825D01*
X7486740Y-12150352D01*
X7486741Y-12150351D01*
X7611228Y-11989526D01*
X7700798Y-11806924D01*
X7726456Y-11707831D01*
X7213189Y-11707831D01*
X7146150Y-11688146D01*
X7100395Y-11635342D01*
X7090451Y-11566184D01*
X7093923Y-11549897D01*
X7112104Y-11485993D01*
X7112105Y-11485991D01*
X7106289Y-11423226D01*
X7101756Y-11374310D01*
X7101754Y-11374306D01*
X7099325Y-11365768D01*
X7099911Y-11295901D01*
X7138176Y-11237441D01*
X7201973Y-11208950D01*
X7218591Y-11207831D01*
X7731576Y-11207831D01*
X7731278Y-11205884D01*
X7731276Y-11205878D01*
X7660647Y-11015173D01*
X7660644Y-11015166D01*
X7553060Y-10842563D01*
X7412945Y-10695162D01*
X7412943Y-10695161D01*
X7246014Y-10578974D01*
X7059117Y-10498771D01*
X6859900Y-10457831D01*
X6458210Y-10457831D01*
X6458210Y-11033831D01*
X6438525Y-11100870D01*
X6385721Y-11146625D01*
X6334210Y-11157831D01*
X6082210Y-11157831D01*
X6015171Y-11138146D01*
X5969416Y-11085342D01*
X5958210Y-11033831D01*
X5958209Y-10555856D01*
X5977893Y-10488817D01*
X6003951Y-10459671D01*
X6095875Y-10384885D01*
X6179181Y-10266868D01*
X6227556Y-10130752D01*
X6237414Y-9986632D01*
X6208024Y-9845197D01*
X6141564Y-9716936D01*
X6141561Y-9716933D01*
X6141560Y-9716931D01*
X6042964Y-9611361D01*
X5919540Y-9536306D01*
X5919539Y-9536305D01*
X5919538Y-9536305D01*
X5780438Y-9497331D01*
X5672261Y-9497331D01*
X5672260Y-9497331D01*
X5565099Y-9512060D01*
X5432599Y-9569612D01*
X5432599Y-9569613D01*
X5320548Y-9660774D01*
X5320543Y-9660779D01*
X5237238Y-9778794D01*
X5188864Y-9914905D01*
X5188864Y-9914908D01*
X5179395Y-10053348D01*
X5179006Y-10059030D01*
X5193910Y-10130752D01*
X5208396Y-10200465D01*
X5208397Y-10200467D01*
X5274855Y-10328724D01*
X5274859Y-10328730D01*
X5288398Y-10343227D01*
X5319769Y-10405658D01*
X5312407Y-10475139D01*
X5268649Y-10529609D01*
X5257951Y-10536281D01*
X5083994Y-10632835D01*
X5083993Y-10632836D01*
X4929679Y-10765309D01*
X4929678Y-10765310D01*
X4805191Y-10926135D01*
X4715621Y-11108737D01*
X4689964Y-11207831D01*
X5203231Y-11207831D01*
X5270270Y-11227516D01*
X5316025Y-11280320D01*
X5325969Y-11349478D01*
X5322497Y-11365765D01*
X5304315Y-11429668D01*
X5304314Y-11429668D01*
X5314663Y-11541348D01*
X5317095Y-11549894D01*
X5316509Y-11619761D01*
X5278244Y-11678221D01*
X5214447Y-11706712D01*
X5197829Y-11707831D01*
X4684844Y-11707831D01*
X3426456Y-11707831D01*
X2863189Y-11707831D01*
X2796150Y-11688146D01*
X2750395Y-11635342D01*
X2740451Y-11566184D01*
X2743923Y-11549897D01*
X2762104Y-11485993D01*
X2762105Y-11485991D01*
X2756289Y-11423226D01*
X2751756Y-11374310D01*
X2751754Y-11374306D01*
X2749325Y-11365768D01*
X2749911Y-11295901D01*
X2788176Y-11237441D01*
X2851973Y-11208950D01*
X2868591Y-11207831D01*
X3431576Y-11207831D01*
X3431278Y-11205884D01*
X3431276Y-11205878D01*
X3360647Y-11015173D01*
X3360644Y-11015166D01*
X3253060Y-10842563D01*
X3112945Y-10695162D01*
X3112943Y-10695161D01*
X2946014Y-10578974D01*
X2759117Y-10498771D01*
X2559900Y-10457831D01*
X2258210Y-10457831D01*
X2258210Y-11033831D01*
X2238525Y-11100870D01*
X2185721Y-11146625D01*
X2134210Y-11157831D01*
X1882210Y-11157831D01*
X1815171Y-11138146D01*
X1769416Y-11085342D01*
X1758210Y-11033831D01*
X1758210Y-10457831D01*
X1507497Y-10457831D01*
X1355871Y-10473249D01*
X1161828Y-10534130D01*
X1161818Y-10534135D01*
X983994Y-10632836D01*
X983993Y-10632836D01*
X829679Y-10765309D01*
X829678Y-10765310D01*
X705191Y-10926135D01*
X615621Y-11108737D01*
X589964Y-11207831D01*
X1153231Y-11207831D01*
X1220270Y-11227516D01*
X1266025Y-11280320D01*
X1275969Y-11349478D01*
X1272497Y-11365765D01*
X1254315Y-11429668D01*
X1254314Y-11429668D01*
X1264663Y-11541348D01*
X1267095Y-11549894D01*
X1266509Y-11619761D01*
X1228244Y-11678221D01*
X1164447Y-11706712D01*
X1147829Y-11707831D01*
X584844Y-11707831D01*
X260500Y-11707831D01*
X260500Y-6385666D01*
X5385911Y-6385666D01*
X5405047Y-6555510D01*
X5450200Y-6684553D01*
X5451087Y-6687291D01*
X5457205Y-6707779D01*
X5499889Y-6800134D01*
X5506064Y-6812577D01*
X5514571Y-6828688D01*
X5528470Y-6897161D01*
X5515029Y-6943619D01*
X5507013Y-6959096D01*
X5507012Y-6959098D01*
X5501568Y-6970199D01*
X5474261Y-7029665D01*
X5457487Y-7066194D01*
X5455453Y-7070848D01*
X5455453Y-7070849D01*
X5433801Y-7130034D01*
X5433797Y-7130046D01*
X5433260Y-7133689D01*
X5427634Y-7156524D01*
X5407879Y-7212984D01*
X5407878Y-7212987D01*
X5388743Y-7382827D01*
X5388743Y-7382834D01*
X5407878Y-7552675D01*
X5407879Y-7552680D01*
X5464333Y-7714014D01*
X5544682Y-7841889D01*
X5555271Y-7858740D01*
X5676133Y-7979602D01*
X5820859Y-8070540D01*
X5970901Y-8123042D01*
X5982192Y-8126993D01*
X5982197Y-8126994D01*
X6152038Y-8146130D01*
X6152042Y-8146130D01*
X6152046Y-8146130D01*
X6321886Y-8126994D01*
X6321889Y-8126993D01*
X6321892Y-8126993D01*
X6483225Y-8070540D01*
X6627951Y-7979602D01*
X6748813Y-7858740D01*
X6839751Y-7714014D01*
X6896204Y-7552681D01*
X6913836Y-7396188D01*
X6915341Y-7382834D01*
X6915341Y-7382827D01*
X6896205Y-7212988D01*
X6896205Y-7212986D01*
X6896204Y-7212984D01*
X6896204Y-7212981D01*
X6849243Y-7078776D01*
X6843403Y-7059409D01*
X6812766Y-6993598D01*
X6800104Y-6966398D01*
X6793130Y-6952548D01*
X6786818Y-6940852D01*
X6772301Y-6872507D01*
X6786293Y-6824051D01*
X6792338Y-6812605D01*
X6798517Y-6800158D01*
X6843307Y-6703249D01*
X6845486Y-6698282D01*
X6867423Y-6638443D01*
X6867934Y-6634977D01*
X6873564Y-6612117D01*
X6893372Y-6555513D01*
X6898182Y-6512824D01*
X6912509Y-6385666D01*
X6912509Y-6385659D01*
X6893373Y-6215818D01*
X6893372Y-6215813D01*
X6886709Y-6196771D01*
X6836919Y-6054480D01*
X6745981Y-5909754D01*
X6625119Y-5788892D01*
X6625118Y-5788891D01*
X6480393Y-5697954D01*
X6319059Y-5641500D01*
X6319054Y-5641499D01*
X6149214Y-5622364D01*
X6149206Y-5622364D01*
X5979365Y-5641499D01*
X5979360Y-5641500D01*
X5818026Y-5697954D01*
X5673301Y-5788891D01*
X5552438Y-5909754D01*
X5461501Y-6054479D01*
X5405047Y-6215813D01*
X5405046Y-6215818D01*
X5385911Y-6385659D01*
X5385911Y-6385666D01*
X260500Y-6385666D01*
X260500Y-3057831D01*
X584844Y-3057831D01*
X585141Y-3059777D01*
X585143Y-3059783D01*
X655772Y-3250488D01*
X655775Y-3250495D01*
X763359Y-3423098D01*
X903474Y-3570499D01*
X903476Y-3570500D01*
X1070405Y-3686687D01*
X1257302Y-3766890D01*
X1456520Y-3807831D01*
X1758210Y-3807831D01*
X1758210Y-3231831D01*
X1777895Y-3164792D01*
X1830699Y-3119037D01*
X1882210Y-3107831D01*
X2134210Y-3107831D01*
X2201249Y-3127516D01*
X2247004Y-3180320D01*
X2258210Y-3231831D01*
X2258209Y-3807830D01*
X2258210Y-3807831D01*
X2508923Y-3807831D01*
X2660548Y-3792412D01*
X2854591Y-3731531D01*
X2854601Y-3731526D01*
X3032425Y-3632825D01*
X3032426Y-3632825D01*
X3186740Y-3500352D01*
X3186741Y-3500351D01*
X3311228Y-3339526D01*
X3400798Y-3156924D01*
X3426456Y-3057831D01*
X2863189Y-3057831D01*
X2796150Y-3038146D01*
X2750395Y-2985342D01*
X2740451Y-2916184D01*
X2743923Y-2899897D01*
X2762104Y-2835993D01*
X2762105Y-2835991D01*
X2760207Y-2815507D01*
X2751756Y-2724310D01*
X2751754Y-2724306D01*
X2749325Y-2715768D01*
X2749911Y-2645901D01*
X2788176Y-2587441D01*
X2851973Y-2558950D01*
X2868591Y-2557831D01*
X3431576Y-2557831D01*
X3431278Y-2555884D01*
X3431276Y-2555878D01*
X3360647Y-2365173D01*
X3360644Y-2365166D01*
X3253060Y-2192563D01*
X3112945Y-2045162D01*
X3112943Y-2045161D01*
X2946014Y-1928974D01*
X2759117Y-1848771D01*
X2559900Y-1807831D01*
X2258210Y-1807831D01*
X2258210Y-2383831D01*
X2238525Y-2450870D01*
X2185721Y-2496625D01*
X2134210Y-2507831D01*
X1882210Y-2507831D01*
X1815171Y-2488146D01*
X1769416Y-2435342D01*
X1758210Y-2383831D01*
X1758210Y-1807831D01*
X1507497Y-1807831D01*
X1355871Y-1823249D01*
X1161828Y-1884130D01*
X1161818Y-1884135D01*
X983994Y-1982836D01*
X983993Y-1982836D01*
X829679Y-2115309D01*
X829678Y-2115310D01*
X705191Y-2276135D01*
X615621Y-2458737D01*
X589964Y-2557831D01*
X1153231Y-2557831D01*
X1220270Y-2577516D01*
X1266025Y-2630320D01*
X1275969Y-2699478D01*
X1272497Y-2715765D01*
X1254315Y-2779668D01*
X1254314Y-2779668D01*
X1264663Y-2891348D01*
X1267095Y-2899894D01*
X1266509Y-2969761D01*
X1228244Y-3028221D01*
X1164447Y-3056712D01*
X1147829Y-3057831D01*
X584844Y-3057831D01*
X260500Y-3057831D01*
X260500Y-34165D01*
X260501Y-34163D01*
X260500Y8273D01*
X260596Y11724D01*
X277585Y314396D01*
X278360Y321274D01*
X328841Y618424D01*
X330377Y625154D01*
X413812Y914784D01*
X416100Y921324D01*
X531433Y1199774D01*
X534440Y1206019D01*
X680223Y1469802D01*
X683920Y1475684D01*
X688091Y1481562D01*
X858315Y1721475D01*
X862650Y1726909D01*
X912596Y1782799D01*
X1063473Y1951633D01*
X1068382Y1956540D01*
X1111570Y1995135D01*
X1293108Y2157368D01*
X1298515Y2161680D01*
X1497833Y2303102D01*
X1544318Y2336083D01*
X1550210Y2339785D01*
X1573687Y2352760D01*
X1813976Y2485561D01*
X1820227Y2488572D01*
X2098672Y2603903D01*
X2105222Y2606195D01*
X2394819Y2689621D01*
X2401588Y2691167D01*
X2691155Y2740359D01*
X2760544Y2732181D01*
G37*
%TD.AperFunction*%
%TA.AperFunction,Conductor*%
G36*
X14152099Y-9222228D02*
G01*
X14208032Y-9264100D01*
X14232449Y-9329564D01*
X14232765Y-9338410D01*
X14232765Y-10734371D01*
X14230494Y-10757993D01*
X14227833Y-10771702D01*
X14227832Y-10771712D01*
X14223773Y-10854698D01*
X14214689Y-10895590D01*
X14210896Y-10904862D01*
X14208945Y-10909158D01*
X14165940Y-10995006D01*
X14106487Y-11125909D01*
X14103756Y-11131921D01*
X14102109Y-11135696D01*
X14102106Y-11135703D01*
X14102106Y-11135704D01*
X14080426Y-11195128D01*
X14080424Y-11195138D01*
X14079846Y-11199088D01*
X14075086Y-11219437D01*
X14046902Y-11306181D01*
X14046900Y-11306187D01*
X14028036Y-11485663D01*
X14046900Y-11665139D01*
X14098353Y-11823498D01*
X14102666Y-11836770D01*
X14192898Y-11993056D01*
X14209798Y-12011825D01*
X14313646Y-12127162D01*
X14313649Y-12127164D01*
X14313652Y-12127167D01*
X14459650Y-12233241D01*
X14548180Y-12272657D01*
X14553119Y-12275126D01*
X14585024Y-12292899D01*
X14717202Y-12343472D01*
X14769296Y-12362004D01*
X14800672Y-12373166D01*
X14805527Y-12375129D01*
X14815558Y-12379685D01*
X14834492Y-12390380D01*
X14837213Y-12392249D01*
X14840179Y-12394288D01*
X14847010Y-12399727D01*
X14915993Y-12463076D01*
X14954127Y-12495190D01*
X14953907Y-12495450D01*
X14963333Y-12503328D01*
X16354545Y-13894540D01*
X16364695Y-13907208D01*
X16364871Y-13907064D01*
X16369845Y-13913076D01*
X16422950Y-13962946D01*
X16444926Y-13984922D01*
X16450816Y-13989491D01*
X16455259Y-13993286D01*
X16491129Y-14026970D01*
X16491131Y-14026971D01*
X16491132Y-14026972D01*
X16510068Y-14037382D01*
X16526314Y-14048053D01*
X16543397Y-14061304D01*
X16543402Y-14061306D01*
X16588561Y-14080848D01*
X16593809Y-14083420D01*
X16625499Y-14100840D01*
X16636928Y-14107124D01*
X16653088Y-14111272D01*
X16657848Y-14112495D01*
X16676251Y-14118795D01*
X16696089Y-14127380D01*
X16733225Y-14133261D01*
X16744696Y-14135078D01*
X16750411Y-14136261D01*
X16798077Y-14148500D01*
X16819684Y-14148500D01*
X16839081Y-14150026D01*
X16860417Y-14153406D01*
X16909409Y-14148774D01*
X16915246Y-14148500D01*
X21911480Y-14148500D01*
X21978519Y-14168185D01*
X21999161Y-14184819D01*
X22364946Y-14550604D01*
X22398431Y-14611927D01*
X22401265Y-14638285D01*
X22401265Y-15333361D01*
X22381580Y-15400400D01*
X22328776Y-15446155D01*
X22259620Y-15456099D01*
X22187031Y-15445663D01*
X22187028Y-15445663D01*
X22115502Y-15445663D01*
X22115498Y-15445663D01*
X22042910Y-15456099D01*
X21973752Y-15446155D01*
X21920949Y-15400399D01*
X21901265Y-15333361D01*
X21901265Y-14615027D01*
X21901264Y-14615027D01*
X21687778Y-14672230D01*
X21687772Y-14672233D01*
X21473687Y-14772062D01*
X21473685Y-14772063D01*
X21280191Y-14907549D01*
X21280185Y-14907554D01*
X21113156Y-15074583D01*
X21113155Y-15074585D01*
X20986396Y-15255615D01*
X20931819Y-15299240D01*
X20862320Y-15306432D01*
X20799966Y-15274910D01*
X20781017Y-15252319D01*
X20686987Y-15108395D01*
X20686980Y-15108388D01*
X20686980Y-15108386D01*
X20534508Y-14942760D01*
X20534503Y-14942755D01*
X20356842Y-14804475D01*
X20356837Y-14804471D01*
X20158845Y-14697324D01*
X20158842Y-14697322D01*
X20158839Y-14697321D01*
X20158836Y-14697320D01*
X20158834Y-14697319D01*
X19945902Y-14624219D01*
X19723834Y-14587163D01*
X19498696Y-14587163D01*
X19276627Y-14624219D01*
X19063695Y-14697319D01*
X19063684Y-14697324D01*
X18865692Y-14804471D01*
X18865687Y-14804475D01*
X18688026Y-14942755D01*
X18688021Y-14942760D01*
X18535549Y-15108386D01*
X18535541Y-15108397D01*
X18441516Y-15252313D01*
X18388370Y-15297670D01*
X18319138Y-15307093D01*
X18255803Y-15277591D01*
X18236133Y-15255614D01*
X18109378Y-15074589D01*
X18109373Y-15074583D01*
X17942347Y-14907557D01*
X17748843Y-14772062D01*
X17534757Y-14672233D01*
X17534751Y-14672230D01*
X17321265Y-14615027D01*
X17321265Y-15333361D01*
X17301580Y-15400400D01*
X17248776Y-15446155D01*
X17179620Y-15456099D01*
X17107031Y-15445663D01*
X17107028Y-15445663D01*
X17035502Y-15445663D01*
X17035498Y-15445663D01*
X16962910Y-15456099D01*
X16893752Y-15446155D01*
X16840949Y-15400399D01*
X16821265Y-15333361D01*
X16821265Y-14615027D01*
X16821264Y-14615027D01*
X16607778Y-14672230D01*
X16607772Y-14672233D01*
X16393687Y-14772062D01*
X16393685Y-14772063D01*
X16200191Y-14907549D01*
X16200185Y-14907554D01*
X16033156Y-15074583D01*
X16033151Y-15074589D01*
X15897665Y-15268083D01*
X15897664Y-15268085D01*
X15797835Y-15482170D01*
X15797832Y-15482176D01*
X15738963Y-15701880D01*
X15702598Y-15761540D01*
X15639751Y-15792069D01*
X15570375Y-15783774D01*
X15516497Y-15739289D01*
X15499923Y-15703723D01*
X15488392Y-15663197D01*
X15468563Y-15581459D01*
X15463372Y-15570093D01*
X15456901Y-15552516D01*
X15456725Y-15551898D01*
X15454339Y-15543511D01*
X15423794Y-15482170D01*
X15416853Y-15468230D01*
X15380619Y-15388888D01*
X15375386Y-15381540D01*
X15365394Y-15364887D01*
X15362768Y-15359613D01*
X15310221Y-15290030D01*
X15257824Y-15216448D01*
X15257819Y-15216443D01*
X15253811Y-15212621D01*
X15240418Y-15197594D01*
X15238973Y-15195681D01*
X15238971Y-15195679D01*
X15238966Y-15195672D01*
X15208248Y-15167669D01*
X15172224Y-15134828D01*
X15104608Y-15070357D01*
X15102866Y-15069238D01*
X15091745Y-15060692D01*
X15091721Y-15060725D01*
X15087145Y-15057269D01*
X15049110Y-15033719D01*
X15007710Y-15008085D01*
X14947263Y-14969238D01*
X14926525Y-14955910D01*
X14921264Y-14953198D01*
X14921297Y-14953133D01*
X14917777Y-14951355D01*
X14917616Y-14951679D01*
X14912487Y-14949125D01*
X14912484Y-14949124D01*
X14912483Y-14949123D01*
X14822482Y-14914257D01*
X14742773Y-14882346D01*
X14729992Y-14877229D01*
X14729979Y-14877225D01*
X14729735Y-14877178D01*
X14724522Y-14875936D01*
X14720932Y-14874915D01*
X14720923Y-14874913D01*
X14720920Y-14874912D01*
X14623035Y-14856614D01*
X14570014Y-14846395D01*
X14522115Y-14837163D01*
X14522114Y-14837163D01*
X14518983Y-14837163D01*
X14313547Y-14837163D01*
X14313541Y-14837163D01*
X14264150Y-14846395D01*
X14258651Y-14847170D01*
X14205530Y-14852243D01*
X14205526Y-14852243D01*
X14205526Y-14852244D01*
X14190643Y-14856614D01*
X14160613Y-14865431D01*
X14154536Y-14866887D01*
X14111616Y-14874910D01*
X14111603Y-14874913D01*
X14061703Y-14894245D01*
X14056774Y-14895920D01*
X14002405Y-14911885D01*
X13963724Y-14931825D01*
X13957710Y-14934531D01*
X13920046Y-14949123D01*
X13920045Y-14949123D01*
X13871739Y-14979033D01*
X13867510Y-14981427D01*
X13814242Y-15008889D01*
X13782619Y-15033757D01*
X13776930Y-15037736D01*
X13745381Y-15057272D01*
X13700973Y-15097754D01*
X13697531Y-15100669D01*
X13647830Y-15139756D01*
X13623642Y-15167669D01*
X13618555Y-15172887D01*
X13593566Y-15195669D01*
X13555376Y-15246239D01*
X13552756Y-15249476D01*
X13509201Y-15299742D01*
X13492369Y-15328896D01*
X13488149Y-15335264D01*
X13469761Y-15359614D01*
X13469756Y-15359623D01*
X13440046Y-15419285D01*
X13438241Y-15422648D01*
X13403353Y-15483078D01*
X13393423Y-15511766D01*
X13390332Y-15519126D01*
X13378193Y-15543505D01*
X13378189Y-15543517D01*
X13367157Y-15582287D01*
X13329876Y-15641379D01*
X13266565Y-15670935D01*
X13197326Y-15661570D01*
X13144141Y-15616259D01*
X13127686Y-15578788D01*
X13108507Y-15503051D01*
X13108506Y-15503047D01*
X13018070Y-15296872D01*
X13014132Y-15290845D01*
X12934931Y-15169618D01*
X12894932Y-15108395D01*
X12894929Y-15108392D01*
X12894925Y-15108386D01*
X12742453Y-14942760D01*
X12742448Y-14942755D01*
X12564787Y-14804475D01*
X12564782Y-14804471D01*
X12366790Y-14697324D01*
X12366787Y-14697322D01*
X12366784Y-14697321D01*
X12366781Y-14697320D01*
X12366779Y-14697319D01*
X12153847Y-14624219D01*
X11931779Y-14587163D01*
X11706641Y-14587163D01*
X11484572Y-14624219D01*
X11271640Y-14697319D01*
X11271629Y-14697324D01*
X11073637Y-14804471D01*
X11073632Y-14804475D01*
X10895971Y-14942755D01*
X10895966Y-14942760D01*
X10743494Y-15108386D01*
X10743486Y-15108397D01*
X10653920Y-15245488D01*
X10600774Y-15290845D01*
X10531542Y-15300268D01*
X10468207Y-15270766D01*
X10440951Y-15236487D01*
X10327280Y-15025535D01*
X10327280Y-15025536D01*
X10317284Y-15008889D01*
X10314982Y-15005055D01*
X10300551Y-14983372D01*
X10286417Y-14964138D01*
X10214236Y-14874912D01*
X10093807Y-14726043D01*
X9982897Y-14591906D01*
X9966237Y-14565632D01*
X9931232Y-14491148D01*
X9920288Y-14452749D01*
X9890469Y-14196624D01*
X9888320Y-14181430D01*
X9887710Y-14172743D01*
X9887710Y-13435465D01*
X9907395Y-13368426D01*
X9924024Y-13347789D01*
X14021084Y-9250728D01*
X14082407Y-9217244D01*
X14152099Y-9222228D01*
G37*
%TD.AperFunction*%
%TA.AperFunction,Conductor*%
G36*
X83288777Y1164830D02*
G01*
X83341580Y1119075D01*
X83361265Y1052036D01*
X83361265Y314337D01*
X84009093Y314337D01*
X84009109Y314338D01*
X84068637Y320739D01*
X84068644Y320741D01*
X84203351Y370983D01*
X84203358Y370987D01*
X84318452Y457147D01*
X84318455Y457150D01*
X84404615Y572244D01*
X84404619Y572251D01*
X84454861Y706958D01*
X84454863Y706965D01*
X84461264Y766493D01*
X84461265Y766510D01*
X84461265Y893218D01*
X84480950Y960257D01*
X84533754Y1006012D01*
X84602912Y1015956D01*
X84666468Y986931D01*
X84686267Y965152D01*
X84707651Y935122D01*
X84707655Y935117D01*
X84711669Y931290D01*
X84725047Y916280D01*
X84726502Y914354D01*
X84726510Y914344D01*
X84793249Y853504D01*
X84860857Y789040D01*
X84860858Y789039D01*
X84860860Y789038D01*
X84860864Y789034D01*
X84862608Y787913D01*
X84873729Y779367D01*
X84873754Y779399D01*
X84878325Y775947D01*
X84878327Y775946D01*
X84878328Y775945D01*
X84957764Y726760D01*
X84973037Y716945D01*
X85018793Y664143D01*
X85030000Y612628D01*
X85030000Y-14890614D01*
X85010315Y-14957653D01*
X84962824Y-15000827D01*
X84947190Y-15008887D01*
X84947188Y-15008888D01*
X84915564Y-15033757D01*
X84909875Y-15037736D01*
X84878326Y-15057272D01*
X84833918Y-15097754D01*
X84830476Y-15100669D01*
X84780775Y-15139756D01*
X84756587Y-15167669D01*
X84751500Y-15172887D01*
X84726511Y-15195669D01*
X84688321Y-15246239D01*
X84685702Y-15249475D01*
X84678981Y-15257232D01*
X84620205Y-15295009D01*
X84550335Y-15295012D01*
X84491556Y-15257240D01*
X84462528Y-15193685D01*
X84461265Y-15176033D01*
X84461265Y-15047835D01*
X84461264Y-15047818D01*
X84454863Y-14988290D01*
X84454861Y-14988283D01*
X84404619Y-14853576D01*
X84404615Y-14853569D01*
X84318455Y-14738475D01*
X84318452Y-14738472D01*
X84203358Y-14652312D01*
X84203351Y-14652308D01*
X84068644Y-14602066D01*
X84068637Y-14602064D01*
X84009109Y-14595663D01*
X83361265Y-14595663D01*
X83361265Y-15333361D01*
X83341580Y-15400400D01*
X83288776Y-15446155D01*
X83219620Y-15456099D01*
X83147031Y-15445663D01*
X83147028Y-15445663D01*
X83075502Y-15445663D01*
X83075498Y-15445663D01*
X83002910Y-15456099D01*
X82933752Y-15446155D01*
X82880949Y-15400399D01*
X82861265Y-15333361D01*
X82861265Y-14595663D01*
X82213420Y-14595663D01*
X82153892Y-14602064D01*
X82153885Y-14602066D01*
X82019178Y-14652308D01*
X82019171Y-14652312D01*
X81904077Y-14738472D01*
X81904074Y-14738475D01*
X81817914Y-14853569D01*
X81817911Y-14853574D01*
X81771583Y-14977786D01*
X81729711Y-15033719D01*
X81664247Y-15058136D01*
X81595974Y-15043284D01*
X81564175Y-15018438D01*
X81494505Y-14942757D01*
X81316841Y-14804474D01*
X81316840Y-14804473D01*
X81316837Y-14804471D01*
X81118845Y-14697324D01*
X81118842Y-14697322D01*
X81118839Y-14697321D01*
X81118836Y-14697320D01*
X81118834Y-14697319D01*
X81063235Y-14678231D01*
X81056613Y-14675522D01*
X81052046Y-14673338D01*
X81046627Y-14670746D01*
X81037730Y-14666491D01*
X81037727Y-14666489D01*
X81037721Y-14666487D01*
X80992416Y-14652308D01*
X80939270Y-14635674D01*
X80905911Y-14624222D01*
X80905886Y-14624215D01*
X80903173Y-14623762D01*
X80894874Y-14621779D01*
X80675921Y-14553255D01*
X80655998Y-14547888D01*
X80645045Y-14545405D01*
X80634093Y-14542922D01*
X80613895Y-14539185D01*
X80322400Y-14497226D01*
X80322211Y-14497198D01*
X80156994Y-14472750D01*
X80128208Y-14464859D01*
X80043016Y-14430019D01*
X80011846Y-14411554D01*
X79806889Y-14245330D01*
X79790035Y-14232415D01*
X79783907Y-14227045D01*
X79462319Y-13905457D01*
X79452166Y-13892785D01*
X79451990Y-13892931D01*
X79447021Y-13886926D01*
X79447018Y-13886920D01*
X79421356Y-13862822D01*
X79393917Y-13837054D01*
X79371935Y-13815072D01*
X79366041Y-13810501D01*
X79361604Y-13806711D01*
X79325735Y-13773028D01*
X79325733Y-13773026D01*
X79306802Y-13762619D01*
X79290550Y-13751944D01*
X79273470Y-13738696D01*
X79273466Y-13738694D01*
X79228304Y-13719150D01*
X79223057Y-13716580D01*
X79179939Y-13692875D01*
X79179940Y-13692875D01*
X79159013Y-13687502D01*
X79140608Y-13681201D01*
X79120776Y-13672619D01*
X79072171Y-13664921D01*
X79066449Y-13663736D01*
X79029173Y-13654166D01*
X79018790Y-13651500D01*
X79018789Y-13651500D01*
X78997183Y-13651500D01*
X78977785Y-13649973D01*
X78969205Y-13648614D01*
X78956451Y-13646594D01*
X78956450Y-13646594D01*
X78907457Y-13651225D01*
X78901621Y-13651500D01*
X75185941Y-13651500D01*
X75118902Y-13631815D01*
X75073147Y-13579011D01*
X75068899Y-13568454D01*
X75065184Y-13557838D01*
X75037709Y-13479317D01*
X74946771Y-13334591D01*
X74825909Y-13213729D01*
X74825908Y-13213729D01*
X74825908Y-13213728D01*
X74681183Y-13122791D01*
X74519849Y-13066337D01*
X74519844Y-13066336D01*
X74350004Y-13047201D01*
X74349996Y-13047201D01*
X74180152Y-13066337D01*
X74051117Y-13111487D01*
X74048380Y-13112374D01*
X74027884Y-13118494D01*
X74004615Y-13129248D01*
X73935502Y-13139502D01*
X73871816Y-13110763D01*
X73864916Y-13104367D01*
X73174819Y-12414270D01*
X73141334Y-12352947D01*
X73138500Y-12326589D01*
X73138500Y-11190397D01*
X73139031Y-11182296D01*
X73141520Y-11163395D01*
X73143750Y-11146453D01*
X73138500Y-11106575D01*
X73138500Y-11106568D01*
X73122838Y-10987603D01*
X73067787Y-10854698D01*
X73061526Y-10839582D01*
X73061523Y-10839576D01*
X73015197Y-10779204D01*
X73009444Y-10771707D01*
X72988477Y-10744381D01*
X72988474Y-10744378D01*
X72963987Y-10712466D01*
X72963985Y-10712464D01*
X72963984Y-10712463D01*
X72941435Y-10695161D01*
X72935293Y-10690448D01*
X72929203Y-10685107D01*
X72061828Y-9817732D01*
X72046279Y-9798750D01*
X72039536Y-9788617D01*
X72039533Y-9788614D01*
X72032231Y-9780454D01*
X72006156Y-9734354D01*
X71996642Y-9703545D01*
X71992206Y-9690372D01*
X71981319Y-9660774D01*
X71955416Y-9590349D01*
X71954472Y-9587926D01*
X71953498Y-9585425D01*
X71953495Y-9585419D01*
X71953496Y-9585419D01*
X71935378Y-9546302D01*
X71933115Y-9540719D01*
X71931570Y-9536305D01*
X71927709Y-9525270D01*
X71836771Y-9380544D01*
X71715909Y-9259682D01*
X71715908Y-9259681D01*
X71571183Y-9168744D01*
X71409849Y-9112290D01*
X71409844Y-9112289D01*
X71248617Y-9094124D01*
X71184203Y-9067058D01*
X71144647Y-9009463D01*
X71138500Y-8970904D01*
X71138500Y-8326945D01*
X71140771Y-8303322D01*
X71143431Y-8289615D01*
X71147488Y-8206627D01*
X71156576Y-8165726D01*
X71160376Y-8156439D01*
X71162312Y-8152178D01*
X71205323Y-8066320D01*
X71267448Y-7929537D01*
X71269089Y-7925781D01*
X71277132Y-7903742D01*
X71290837Y-7866197D01*
X71290838Y-7866193D01*
X71291413Y-7862257D01*
X71296172Y-7841904D01*
X71324365Y-7755138D01*
X71343229Y-7575663D01*
X71324365Y-7396188D01*
X71268599Y-7224556D01*
X71178367Y-7068270D01*
X71111132Y-6993598D01*
X71057618Y-6934163D01*
X71057615Y-6934161D01*
X71057614Y-6934160D01*
X71057613Y-6934159D01*
X70911615Y-6828085D01*
X70911614Y-6828084D01*
X70746757Y-6754684D01*
X70746751Y-6754682D01*
X70607750Y-6725137D01*
X70570232Y-6717163D01*
X70389768Y-6717163D01*
X70352249Y-6725137D01*
X70213249Y-6754682D01*
X70213244Y-6754684D01*
X70160554Y-6778142D01*
X70152676Y-6781029D01*
X70122719Y-6789759D01*
X69989342Y-6850339D01*
X69903492Y-6893343D01*
X69899200Y-6895292D01*
X69889931Y-6899085D01*
X69849033Y-6908171D01*
X69766044Y-6912230D01*
X69718019Y-6916578D01*
X69717976Y-6916105D01*
X69706405Y-6917163D01*
X69579785Y-6917163D01*
X69512746Y-6897478D01*
X69492104Y-6880844D01*
X69104819Y-6493558D01*
X69071334Y-6432235D01*
X69068500Y-6405877D01*
X69068500Y-6314121D01*
X69088185Y-6247082D01*
X69104814Y-6226445D01*
X70514543Y-4816715D01*
X70527214Y-4806566D01*
X70527068Y-4806389D01*
X70533074Y-4801419D01*
X70533080Y-4801416D01*
X70582945Y-4748314D01*
X70604927Y-4726333D01*
X70609495Y-4720442D01*
X70613282Y-4716008D01*
X70646972Y-4680133D01*
X70657380Y-4661200D01*
X70668059Y-4644942D01*
X70681304Y-4627868D01*
X70700852Y-4582691D01*
X70703409Y-4577472D01*
X70727124Y-4534337D01*
X70732495Y-4513413D01*
X70738796Y-4495009D01*
X70747380Y-4475176D01*
X70755078Y-4426568D01*
X70756263Y-4420843D01*
X70756360Y-4420467D01*
X70768500Y-4373188D01*
X70768499Y-4351584D01*
X70770027Y-4332181D01*
X70773405Y-4310853D01*
X70773406Y-4310849D01*
X70768775Y-4261854D01*
X70768500Y-4256017D01*
X70768500Y-4131282D01*
X70770771Y-4107659D01*
X70773431Y-4093950D01*
X70775492Y-4051789D01*
X70777488Y-4010964D01*
X70786576Y-3970063D01*
X70790376Y-3960776D01*
X70792312Y-3956515D01*
X70835323Y-3870657D01*
X70897448Y-3733874D01*
X70899089Y-3730118D01*
X70908494Y-3704349D01*
X70920837Y-3670534D01*
X70920838Y-3670530D01*
X70921413Y-3666594D01*
X70926172Y-3646241D01*
X70954365Y-3559475D01*
X70973229Y-3380000D01*
X70973229Y-3379996D01*
X70973229Y-3378163D01*
X70973529Y-3377140D01*
X70973908Y-3373537D01*
X70974567Y-3373606D01*
X70992914Y-3311124D01*
X71045718Y-3265369D01*
X71097229Y-3254163D01*
X71200306Y-3254163D01*
X71224722Y-3256591D01*
X71236658Y-3258988D01*
X71247583Y-3259594D01*
X71298625Y-3273755D01*
X71327102Y-3288794D01*
X71339558Y-3294977D01*
X71436332Y-3339703D01*
X71441108Y-3341801D01*
X71441115Y-3341804D01*
X71501263Y-3363877D01*
X71503865Y-3364260D01*
X71504727Y-3364388D01*
X71527592Y-3370018D01*
X71584194Y-3389825D01*
X71584198Y-3389825D01*
X71584200Y-3389826D01*
X71754040Y-3408962D01*
X71754044Y-3408962D01*
X71754048Y-3408962D01*
X71923888Y-3389826D01*
X71923891Y-3389825D01*
X71923894Y-3389825D01*
X72085227Y-3333372D01*
X72229953Y-3242434D01*
X72350815Y-3121572D01*
X72441753Y-2976846D01*
X72498206Y-2815513D01*
X72501585Y-2785525D01*
X72517343Y-2645666D01*
X72517343Y-2645659D01*
X72498207Y-2475818D01*
X72498206Y-2475813D01*
X72484209Y-2435813D01*
X72441753Y-2314480D01*
X72350815Y-2169754D01*
X72229953Y-2048892D01*
X72229953Y-2048891D01*
X72229952Y-2048891D01*
X72085227Y-1957954D01*
X71923893Y-1901500D01*
X71923888Y-1901499D01*
X71754048Y-1882364D01*
X71754040Y-1882364D01*
X71584196Y-1901500D01*
X71455161Y-1946650D01*
X71452424Y-1947537D01*
X71431928Y-1953657D01*
X71372173Y-1981274D01*
X71339632Y-1996314D01*
X71327208Y-2002474D01*
X71315057Y-2008891D01*
X71298615Y-2017573D01*
X71247592Y-2031730D01*
X71238622Y-2032228D01*
X71236651Y-2032338D01*
X71215031Y-2034401D01*
X71189038Y-2036882D01*
X71183144Y-2037163D01*
X62842692Y-2037163D01*
X62775653Y-2017478D01*
X62729898Y-1964674D01*
X62719372Y-1926130D01*
X62715630Y-1890525D01*
X62659864Y-1718893D01*
X62659859Y-1718884D01*
X62658235Y-1715236D01*
X62657578Y-1713623D01*
X62621207Y-1633547D01*
X62596588Y-1579342D01*
X62595932Y-1578032D01*
X62583509Y-1509276D01*
X62610231Y-1444718D01*
X62667613Y-1404855D01*
X62706802Y-1398500D01*
X63622609Y-1398500D01*
X77315598Y-1398500D01*
X77334942Y-1400017D01*
X77357686Y-1403610D01*
X77510517Y-1405725D01*
X77514974Y-1405947D01*
X77525058Y-1406814D01*
X77586328Y-1412085D01*
X77594832Y-1413418D01*
X77633152Y-1422192D01*
X77640464Y-1424348D01*
X77658303Y-1430823D01*
X77721951Y-1453926D01*
X77872501Y-1516015D01*
X77873882Y-1516501D01*
X77877548Y-1517792D01*
X77880692Y-1518996D01*
X77882686Y-1519822D01*
X77882688Y-1519823D01*
X77887224Y-1521199D01*
X77923444Y-1533952D01*
X77925223Y-1534208D01*
X77943524Y-1538277D01*
X77999467Y-1555248D01*
X78063365Y-1574632D01*
X78077327Y-1576007D01*
X78251265Y-1593138D01*
X78439164Y-1574632D01*
X78619842Y-1519823D01*
X78786356Y-1430820D01*
X78932306Y-1311041D01*
X79052085Y-1165091D01*
X79141088Y-998577D01*
X79143976Y-989054D01*
X79153150Y-966838D01*
X79154257Y-964758D01*
X79218412Y-786699D01*
X79223855Y-769742D01*
X79260146Y-642580D01*
X79261220Y-639195D01*
X79274434Y-601410D01*
X79284794Y-579152D01*
X79290170Y-570077D01*
X79303900Y-551213D01*
X79381626Y-463200D01*
X79406364Y-432941D01*
X79406367Y-432934D01*
X79409405Y-429219D01*
X79413559Y-424627D01*
X79784350Y-53836D01*
X79803527Y-38894D01*
X79803269Y-38524D01*
X79806891Y-35992D01*
X79806890Y-35992D01*
X79806893Y-35991D01*
X80011853Y130239D01*
X80043004Y148694D01*
X80128216Y183542D01*
X80156982Y191427D01*
X80305811Y213448D01*
X80322401Y215902D01*
X80545506Y248018D01*
X80613947Y257870D01*
X80634245Y261630D01*
X80656147Y266604D01*
X80675968Y271948D01*
X80894877Y340459D01*
X80903191Y342442D01*
X80905900Y342893D01*
X80920101Y347769D01*
X80939325Y354368D01*
X81048534Y388545D01*
X81060157Y392754D01*
X81060166Y392758D01*
X81086500Y404617D01*
X81091794Y406712D01*
X81118839Y415995D01*
X81316841Y523148D01*
X81494505Y661431D01*
X81564173Y737111D01*
X81624058Y773100D01*
X81693896Y771000D01*
X81751512Y731477D01*
X81771583Y696460D01*
X81817910Y572251D01*
X81817914Y572244D01*
X81904074Y457150D01*
X81904077Y457147D01*
X82019171Y370987D01*
X82019178Y370983D01*
X82153885Y320741D01*
X82153892Y320739D01*
X82213420Y314338D01*
X82213437Y314337D01*
X82861265Y314337D01*
X82861265Y1052036D01*
X82880950Y1119075D01*
X82933754Y1164830D01*
X83002912Y1174774D01*
X83075502Y1164337D01*
X83075503Y1164337D01*
X83147027Y1164337D01*
X83147028Y1164337D01*
X83219618Y1174774D01*
X83288777Y1164830D01*
G37*
%TD.AperFunction*%
%TA.AperFunction,Conductor*%
G36*
X58000056Y-8183348D02*
G01*
X58020698Y-8199981D01*
X60755083Y-10934367D01*
X60760424Y-10940457D01*
X60782441Y-10969150D01*
X60791208Y-10975877D01*
X60813110Y-10992684D01*
X60813115Y-10992688D01*
X60848911Y-11020155D01*
X60867516Y-11034431D01*
X60909553Y-11066687D01*
X61057578Y-11128001D01*
X61176543Y-11143663D01*
X61176548Y-11143663D01*
X61178333Y-11143898D01*
X61178351Y-11143900D01*
X61199049Y-11146625D01*
X61216427Y-11148913D01*
X61216428Y-11148913D01*
X61216429Y-11148913D01*
X61226900Y-11147534D01*
X61252276Y-11144193D01*
X61260374Y-11143663D01*
X68248101Y-11143663D01*
X68315140Y-11163348D01*
X68360895Y-11216152D01*
X68371321Y-11253781D01*
X68377023Y-11304394D01*
X68377023Y-11304395D01*
X68404273Y-11382273D01*
X68407834Y-11452051D01*
X68404273Y-11464179D01*
X68366286Y-11572742D01*
X68366286Y-11572743D01*
X68347150Y-11742588D01*
X68347150Y-11742595D01*
X68366285Y-11912436D01*
X68366286Y-11912441D01*
X68422740Y-12073775D01*
X68456285Y-12127162D01*
X68513678Y-12218501D01*
X68634540Y-12339363D01*
X68779266Y-12430301D01*
X68809199Y-12440775D01*
X68813228Y-12442185D01*
X68831203Y-12450123D01*
X68848903Y-12459684D01*
X68848907Y-12459685D01*
X68848908Y-12459686D01*
X68944365Y-12494797D01*
X68944368Y-12494798D01*
X68957541Y-12499234D01*
X68988350Y-12508748D01*
X69034449Y-12534822D01*
X69042613Y-12542128D01*
X69079515Y-12572603D01*
X69083878Y-12576570D01*
X69436022Y-12928714D01*
X69766446Y-13259137D01*
X69799931Y-13320460D01*
X69802765Y-13346818D01*
X69802765Y-14170413D01*
X69800597Y-14193500D01*
X69800006Y-14196618D01*
X69770182Y-14452749D01*
X69759238Y-14491149D01*
X69724233Y-14565633D01*
X69707573Y-14591906D01*
X69613818Y-14705298D01*
X69596666Y-14726042D01*
X69404062Y-14964131D01*
X69391351Y-14981427D01*
X69389944Y-14983341D01*
X69389943Y-14983342D01*
X69386654Y-14988283D01*
X69375519Y-15005009D01*
X69363208Y-15025510D01*
X69260324Y-15216443D01*
X69249523Y-15236487D01*
X69200392Y-15286165D01*
X69132203Y-15301396D01*
X69066604Y-15277343D01*
X69036554Y-15245487D01*
X68964257Y-15134829D01*
X68946987Y-15108395D01*
X68946984Y-15108392D01*
X68946980Y-15108386D01*
X68794508Y-14942760D01*
X68794503Y-14942755D01*
X68616842Y-14804475D01*
X68616837Y-14804471D01*
X68418845Y-14697324D01*
X68418842Y-14697322D01*
X68418839Y-14697321D01*
X68418836Y-14697320D01*
X68418834Y-14697319D01*
X68205902Y-14624219D01*
X67983834Y-14587163D01*
X67758696Y-14587163D01*
X67536627Y-14624219D01*
X67323695Y-14697319D01*
X67323684Y-14697324D01*
X67125692Y-14804471D01*
X67125687Y-14804475D01*
X66948026Y-14942755D01*
X66948021Y-14942760D01*
X66795549Y-15108386D01*
X66795541Y-15108397D01*
X66705073Y-15246869D01*
X66651927Y-15292225D01*
X66582696Y-15301649D01*
X66519360Y-15272147D01*
X66497457Y-15246869D01*
X66424257Y-15134829D01*
X66406987Y-15108395D01*
X66406984Y-15108392D01*
X66406980Y-15108386D01*
X66254508Y-14942760D01*
X66254503Y-14942755D01*
X66076842Y-14804475D01*
X66076837Y-14804471D01*
X65878845Y-14697324D01*
X65878842Y-14697322D01*
X65878839Y-14697321D01*
X65878836Y-14697320D01*
X65878834Y-14697319D01*
X65665902Y-14624219D01*
X65443834Y-14587163D01*
X65218696Y-14587163D01*
X64996627Y-14624219D01*
X64783695Y-14697319D01*
X64783684Y-14697324D01*
X64585692Y-14804471D01*
X64585687Y-14804475D01*
X64408026Y-14942755D01*
X64408021Y-14942760D01*
X64255549Y-15108386D01*
X64255541Y-15108397D01*
X64165073Y-15246869D01*
X64111927Y-15292225D01*
X64042696Y-15301649D01*
X63979360Y-15272147D01*
X63957457Y-15246869D01*
X63884257Y-15134829D01*
X63866987Y-15108395D01*
X63866984Y-15108392D01*
X63866980Y-15108386D01*
X63714508Y-14942760D01*
X63714503Y-14942755D01*
X63536842Y-14804475D01*
X63536837Y-14804471D01*
X63338845Y-14697324D01*
X63338842Y-14697322D01*
X63338839Y-14697321D01*
X63338836Y-14697320D01*
X63338834Y-14697319D01*
X63125902Y-14624219D01*
X62903834Y-14587163D01*
X62678696Y-14587163D01*
X62456627Y-14624219D01*
X62243695Y-14697319D01*
X62243684Y-14697324D01*
X62045692Y-14804471D01*
X62045687Y-14804475D01*
X61868026Y-14942755D01*
X61868021Y-14942760D01*
X61715549Y-15108386D01*
X61715541Y-15108397D01*
X61625073Y-15246869D01*
X61571927Y-15292225D01*
X61502696Y-15301649D01*
X61439360Y-15272147D01*
X61417457Y-15246869D01*
X61344257Y-15134829D01*
X61326987Y-15108395D01*
X61326984Y-15108392D01*
X61326980Y-15108386D01*
X61174508Y-14942760D01*
X61174503Y-14942755D01*
X60996842Y-14804475D01*
X60996837Y-14804471D01*
X60798845Y-14697324D01*
X60798842Y-14697322D01*
X60798839Y-14697321D01*
X60798836Y-14697320D01*
X60798834Y-14697319D01*
X60585902Y-14624219D01*
X60363834Y-14587163D01*
X60138696Y-14587163D01*
X59916627Y-14624219D01*
X59703695Y-14697319D01*
X59703684Y-14697324D01*
X59505692Y-14804471D01*
X59505687Y-14804475D01*
X59328026Y-14942755D01*
X59328021Y-14942760D01*
X59175549Y-15108386D01*
X59175541Y-15108397D01*
X59085073Y-15246869D01*
X59031927Y-15292225D01*
X58962696Y-15301649D01*
X58899360Y-15272147D01*
X58877457Y-15246869D01*
X58804257Y-15134829D01*
X58786987Y-15108395D01*
X58786984Y-15108392D01*
X58786980Y-15108386D01*
X58634508Y-14942760D01*
X58634503Y-14942755D01*
X58456842Y-14804475D01*
X58456837Y-14804471D01*
X58258845Y-14697324D01*
X58258842Y-14697322D01*
X58258839Y-14697321D01*
X58258836Y-14697320D01*
X58258834Y-14697319D01*
X58045902Y-14624219D01*
X57823834Y-14587163D01*
X57598696Y-14587163D01*
X57376627Y-14624219D01*
X57163695Y-14697319D01*
X57163684Y-14697324D01*
X56965692Y-14804471D01*
X56965687Y-14804475D01*
X56788026Y-14942755D01*
X56788021Y-14942760D01*
X56635549Y-15108386D01*
X56635541Y-15108397D01*
X56545073Y-15246869D01*
X56491927Y-15292225D01*
X56422696Y-15301649D01*
X56359360Y-15272147D01*
X56337457Y-15246869D01*
X56264257Y-15134829D01*
X56246987Y-15108395D01*
X56246984Y-15108392D01*
X56246980Y-15108386D01*
X56094508Y-14942760D01*
X56094503Y-14942755D01*
X55916842Y-14804475D01*
X55916837Y-14804471D01*
X55718845Y-14697324D01*
X55718842Y-14697322D01*
X55718839Y-14697321D01*
X55718836Y-14697320D01*
X55718834Y-14697319D01*
X55505902Y-14624219D01*
X55283834Y-14587163D01*
X55058696Y-14587163D01*
X54836627Y-14624219D01*
X54623695Y-14697319D01*
X54623684Y-14697324D01*
X54425692Y-14804471D01*
X54425687Y-14804475D01*
X54248026Y-14942755D01*
X54248021Y-14942760D01*
X54095549Y-15108386D01*
X54095541Y-15108397D01*
X54005073Y-15246869D01*
X53951927Y-15292225D01*
X53882696Y-15301649D01*
X53819360Y-15272147D01*
X53797457Y-15246869D01*
X53724257Y-15134829D01*
X53706987Y-15108395D01*
X53706984Y-15108392D01*
X53706980Y-15108386D01*
X53554508Y-14942760D01*
X53554503Y-14942755D01*
X53376842Y-14804475D01*
X53376837Y-14804471D01*
X53178845Y-14697324D01*
X53178842Y-14697322D01*
X53178839Y-14697321D01*
X53178836Y-14697320D01*
X53178834Y-14697319D01*
X52965902Y-14624219D01*
X52743834Y-14587163D01*
X52518696Y-14587163D01*
X52296627Y-14624219D01*
X52083695Y-14697319D01*
X52083684Y-14697324D01*
X51885692Y-14804471D01*
X51885687Y-14804475D01*
X51708026Y-14942755D01*
X51708021Y-14942760D01*
X51555549Y-15108386D01*
X51555541Y-15108397D01*
X51465073Y-15246869D01*
X51411927Y-15292225D01*
X51342696Y-15301649D01*
X51279360Y-15272147D01*
X51257457Y-15246869D01*
X51184257Y-15134829D01*
X51166987Y-15108395D01*
X51166984Y-15108392D01*
X51166980Y-15108386D01*
X51141667Y-15080889D01*
X51110745Y-15018234D01*
X51118606Y-14948808D01*
X51162753Y-14894653D01*
X51185442Y-14882347D01*
X51308136Y-14831526D01*
X51308137Y-14831526D01*
X51308137Y-14831525D01*
X51308141Y-14831524D01*
X51403337Y-14758477D01*
X51403338Y-14758475D01*
X51411429Y-14752267D01*
X51411436Y-14752261D01*
X51435248Y-14733990D01*
X51435247Y-14733990D01*
X51435252Y-14733987D01*
X51457275Y-14705285D01*
X51462603Y-14699209D01*
X54149992Y-12011820D01*
X54168974Y-11996273D01*
X54179097Y-11989537D01*
X54187257Y-11982234D01*
X54233361Y-11956156D01*
X54264172Y-11946641D01*
X54270657Y-11944457D01*
X54277342Y-11942207D01*
X54377363Y-11905418D01*
X54382295Y-11903497D01*
X54382298Y-11903496D01*
X54412364Y-11889569D01*
X54421415Y-11885377D01*
X54426978Y-11883121D01*
X54442448Y-11877709D01*
X54587174Y-11786771D01*
X54708036Y-11665909D01*
X54798974Y-11521183D01*
X54855427Y-11359850D01*
X54856596Y-11349478D01*
X54874564Y-11190003D01*
X54874564Y-11189996D01*
X54855428Y-11020155D01*
X54855427Y-11020150D01*
X54846150Y-10993637D01*
X54798974Y-10858817D01*
X54708036Y-10714091D01*
X54587174Y-10593229D01*
X54587173Y-10593228D01*
X54442448Y-10502291D01*
X54281114Y-10445837D01*
X54281109Y-10445836D01*
X54111269Y-10426701D01*
X54111261Y-10426701D01*
X53941420Y-10445836D01*
X53941415Y-10445837D01*
X53780081Y-10502291D01*
X53635356Y-10593228D01*
X53538946Y-10689639D01*
X53477623Y-10723124D01*
X53407931Y-10718140D01*
X53363584Y-10689639D01*
X53267173Y-10593228D01*
X53122448Y-10502291D01*
X52961114Y-10445837D01*
X52961109Y-10445836D01*
X52791269Y-10426701D01*
X52791261Y-10426701D01*
X52621420Y-10445836D01*
X52621415Y-10445837D01*
X52460081Y-10502291D01*
X52315356Y-10593228D01*
X52194493Y-10714091D01*
X52103556Y-10858817D01*
X52103553Y-10858823D01*
X52091672Y-10892775D01*
X52083736Y-10910743D01*
X52074174Y-10928446D01*
X52074172Y-10928449D01*
X52039245Y-11023404D01*
X52034780Y-11036572D01*
X52025105Y-11067902D01*
X51999036Y-11113996D01*
X51991725Y-11122166D01*
X51961287Y-11159029D01*
X51957318Y-11163395D01*
X51905536Y-11215179D01*
X51844214Y-11248666D01*
X51817853Y-11251500D01*
X41520874Y-11251500D01*
X41512776Y-11250969D01*
X41480886Y-11246771D01*
X41476929Y-11246250D01*
X41476928Y-11246250D01*
X41471766Y-11246929D01*
X41441182Y-11250955D01*
X41441169Y-11250957D01*
X41437044Y-11251500D01*
X41437043Y-11251500D01*
X41346546Y-11263413D01*
X41346547Y-11263414D01*
X41318078Y-11267161D01*
X41318073Y-11267163D01*
X41170056Y-11328473D01*
X41170051Y-11328476D01*
X41105346Y-11378127D01*
X41074856Y-11401523D01*
X41074853Y-11401525D01*
X41068186Y-11406641D01*
X41042938Y-11426015D01*
X41020924Y-11454703D01*
X41015573Y-11460805D01*
X38216276Y-14260101D01*
X38198422Y-14274890D01*
X38195809Y-14276670D01*
X37993597Y-14436703D01*
X37958708Y-14456116D01*
X37881292Y-14484031D01*
X37850935Y-14490829D01*
X37677658Y-14507254D01*
X37436448Y-14532725D01*
X37367712Y-14520190D01*
X37316665Y-14472483D01*
X37299514Y-14404751D01*
X37321704Y-14338498D01*
X37335739Y-14321736D01*
X38816130Y-12841345D01*
X38822221Y-12836003D01*
X38850915Y-12813987D01*
X38875371Y-12782115D01*
X38875403Y-12782073D01*
X38875405Y-12782072D01*
X38924590Y-12717972D01*
X38929923Y-12711889D01*
X40169992Y-11471820D01*
X40188974Y-11456273D01*
X40199097Y-11449537D01*
X40207257Y-11442234D01*
X40253361Y-11416156D01*
X40284172Y-11406641D01*
X40290657Y-11404457D01*
X40297342Y-11402207D01*
X40397363Y-11365418D01*
X40402295Y-11363497D01*
X40402298Y-11363496D01*
X40432562Y-11349478D01*
X40441415Y-11345377D01*
X40446978Y-11343121D01*
X40462448Y-11337709D01*
X40607174Y-11246771D01*
X40728036Y-11125909D01*
X40818974Y-10981183D01*
X40875427Y-10819850D01*
X40875792Y-10816611D01*
X40887960Y-10708617D01*
X40915026Y-10644203D01*
X40972621Y-10604648D01*
X41011180Y-10598500D01*
X43316054Y-10598500D01*
X43324151Y-10599030D01*
X43341648Y-10601334D01*
X43359999Y-10603750D01*
X43360000Y-10603750D01*
X43360001Y-10603750D01*
X43395846Y-10599031D01*
X43397961Y-10598752D01*
X43397974Y-10598751D01*
X43399881Y-10598500D01*
X43399885Y-10598500D01*
X43481002Y-10587820D01*
X43499457Y-10585391D01*
X43518851Y-10582838D01*
X43518850Y-10582837D01*
X43666876Y-10521524D01*
X43762072Y-10448477D01*
X43762073Y-10448475D01*
X43770164Y-10442267D01*
X43770166Y-10442264D01*
X43793987Y-10423987D01*
X43816010Y-10395286D01*
X43821340Y-10389208D01*
X44107825Y-10102722D01*
X44126573Y-10087331D01*
X44137208Y-10080220D01*
X44147182Y-10071252D01*
X44192625Y-10045258D01*
X44222861Y-10035676D01*
X44234737Y-10031598D01*
X44333361Y-9995067D01*
X44338124Y-9993202D01*
X44338121Y-9993203D01*
X44376814Y-9975241D01*
X44382406Y-9972971D01*
X44397448Y-9967709D01*
X44542174Y-9876771D01*
X44663036Y-9755909D01*
X44753974Y-9611183D01*
X44810427Y-9449850D01*
X44810428Y-9449844D01*
X44829564Y-9280003D01*
X44829564Y-9279996D01*
X44810428Y-9110155D01*
X44810427Y-9110150D01*
X44785547Y-9039048D01*
X44753974Y-8948817D01*
X44663036Y-8804091D01*
X44542174Y-8683229D01*
X44542173Y-8683228D01*
X44397448Y-8592291D01*
X44236114Y-8535837D01*
X44236109Y-8535836D01*
X44066269Y-8516701D01*
X44066261Y-8516701D01*
X43896420Y-8535836D01*
X43896415Y-8535837D01*
X43735081Y-8592291D01*
X43590356Y-8683228D01*
X43469493Y-8804091D01*
X43378556Y-8948817D01*
X43378553Y-8948823D01*
X43366312Y-8983804D01*
X43358527Y-9001491D01*
X43348740Y-9019722D01*
X43348739Y-9019724D01*
X43331466Y-9067058D01*
X43313349Y-9116704D01*
X43310206Y-9126295D01*
X43308553Y-9131340D01*
X43299363Y-9162006D01*
X43273200Y-9208859D01*
X43268048Y-9214646D01*
X43238664Y-9250371D01*
X43234619Y-9254829D01*
X43144270Y-9345180D01*
X43082947Y-9378666D01*
X43056588Y-9381500D01*
X38310873Y-9381500D01*
X38302774Y-9380969D01*
X38266928Y-9376250D01*
X38266924Y-9376250D01*
X38230235Y-9381080D01*
X38230220Y-9381082D01*
X38227045Y-9381500D01*
X38227043Y-9381500D01*
X38108078Y-9397162D01*
X38108077Y-9397162D01*
X38014764Y-9435814D01*
X37963670Y-9456978D01*
X37960046Y-9458479D01*
X37960047Y-9458479D01*
X37916011Y-9480497D01*
X37896989Y-9506863D01*
X37896431Y-9507294D01*
X37866819Y-9530016D01*
X37866812Y-9530022D01*
X37864856Y-9531523D01*
X37864853Y-9531525D01*
X37858624Y-9536305D01*
X37832938Y-9556015D01*
X37810924Y-9584703D01*
X37805573Y-9590805D01*
X33136276Y-14260101D01*
X33118422Y-14274890D01*
X33115809Y-14276670D01*
X32913597Y-14436703D01*
X32878708Y-14456116D01*
X32801292Y-14484031D01*
X32770935Y-14490829D01*
X32597658Y-14507254D01*
X32293167Y-14539408D01*
X32269663Y-14542997D01*
X32269662Y-14542997D01*
X32256836Y-14545566D01*
X32244128Y-14548113D01*
X32244123Y-14548114D01*
X32244124Y-14548114D01*
X32220848Y-14553920D01*
X32002118Y-14619468D01*
X31994517Y-14621234D01*
X31976627Y-14624219D01*
X31910445Y-14646940D01*
X31844658Y-14666654D01*
X31835139Y-14669775D01*
X31832174Y-14670747D01*
X31824900Y-14673339D01*
X31798852Y-14684985D01*
X31793692Y-14687020D01*
X31778043Y-14692393D01*
X31763693Y-14697320D01*
X31763688Y-14697322D01*
X31565692Y-14804472D01*
X31565687Y-14804475D01*
X31388026Y-14942755D01*
X31388021Y-14942760D01*
X31235549Y-15108386D01*
X31235541Y-15108397D01*
X31145975Y-15245488D01*
X31092829Y-15290845D01*
X31023597Y-15300268D01*
X30960262Y-15270766D01*
X30933006Y-15236487D01*
X30819335Y-15025535D01*
X30819335Y-15025536D01*
X30809339Y-15008889D01*
X30807037Y-15005055D01*
X30792606Y-14983372D01*
X30778472Y-14964138D01*
X30706291Y-14874912D01*
X30585862Y-14726043D01*
X30497580Y-14619273D01*
X30470031Y-14555064D01*
X30476721Y-14497576D01*
X30489478Y-14462780D01*
X30489989Y-14459314D01*
X30495619Y-14436454D01*
X30515427Y-14379850D01*
X30520086Y-14338498D01*
X30534564Y-14210003D01*
X30534564Y-14209996D01*
X30515428Y-14040155D01*
X30515427Y-14040150D01*
X30510815Y-14026970D01*
X30458974Y-13878817D01*
X30368036Y-13734091D01*
X30247174Y-13613229D01*
X30247173Y-13613228D01*
X30102448Y-13522291D01*
X29941114Y-13465837D01*
X29941109Y-13465836D01*
X29771269Y-13446701D01*
X29771261Y-13446701D01*
X29601420Y-13465836D01*
X29601415Y-13465837D01*
X29440081Y-13522291D01*
X29295356Y-13613228D01*
X29174493Y-13734091D01*
X29083556Y-13878816D01*
X29027102Y-14040150D01*
X29027101Y-14040155D01*
X29007966Y-14209996D01*
X29007966Y-14210003D01*
X29027102Y-14379847D01*
X29068164Y-14497198D01*
X29071725Y-14566977D01*
X29046687Y-14617167D01*
X29000244Y-14673338D01*
X28956666Y-14726042D01*
X28764062Y-14964131D01*
X28751351Y-14981427D01*
X28749944Y-14983341D01*
X28749943Y-14983342D01*
X28746654Y-14988283D01*
X28735519Y-15005009D01*
X28723208Y-15025510D01*
X28620324Y-15216443D01*
X28609523Y-15236487D01*
X28560392Y-15286165D01*
X28492203Y-15301396D01*
X28426604Y-15277343D01*
X28396554Y-15245487D01*
X28324257Y-15134829D01*
X28306987Y-15108395D01*
X28306984Y-15108392D01*
X28306980Y-15108386D01*
X28154508Y-14942760D01*
X28154503Y-14942755D01*
X27976842Y-14804475D01*
X27976837Y-14804471D01*
X27778845Y-14697324D01*
X27778842Y-14697322D01*
X27778839Y-14697321D01*
X27778836Y-14697320D01*
X27778834Y-14697319D01*
X27565902Y-14624219D01*
X27343834Y-14587163D01*
X27212747Y-14587163D01*
X27145708Y-14567478D01*
X27099953Y-14514674D01*
X27090009Y-14445516D01*
X27119034Y-14381960D01*
X27125066Y-14375482D01*
X28256036Y-13244512D01*
X29424702Y-12075845D01*
X29430793Y-12070503D01*
X29459487Y-12048487D01*
X29477764Y-12024666D01*
X29477768Y-12024663D01*
X29483975Y-12016572D01*
X29483977Y-12016572D01*
X29553831Y-11925536D01*
X29557024Y-11921375D01*
X29618338Y-11773350D01*
X29634000Y-11654385D01*
X29634000Y-11654384D01*
X29634223Y-11652691D01*
X29634226Y-11652660D01*
X29636506Y-11635342D01*
X29639250Y-11614500D01*
X29634529Y-11578652D01*
X29633999Y-11570551D01*
X29633999Y-10130752D01*
X29633999Y-8668725D01*
X29636426Y-8644327D01*
X29638825Y-8632385D01*
X29639430Y-8621457D01*
X29653589Y-8570419D01*
X29668628Y-8541942D01*
X29674807Y-8529495D01*
X29719597Y-8432586D01*
X29721776Y-8427619D01*
X29743713Y-8367780D01*
X29744224Y-8364314D01*
X29749854Y-8341454D01*
X29769662Y-8284850D01*
X29769663Y-8284843D01*
X29770910Y-8273780D01*
X29797976Y-8209366D01*
X29855571Y-8169811D01*
X29894130Y-8163663D01*
X57933017Y-8163663D01*
X58000056Y-8183348D01*
G37*
%TD.AperFunction*%
%TA.AperFunction,Conductor*%
G36*
X27749998Y-11851526D02*
G01*
X27784376Y-11912353D01*
X27780411Y-11982110D01*
X27751289Y-12028160D01*
X25517602Y-14261847D01*
X25499696Y-14276672D01*
X25497270Y-14278322D01*
X25295272Y-14438000D01*
X25260206Y-14457453D01*
X25217268Y-14472840D01*
X25183234Y-14485036D01*
X25152804Y-14491779D01*
X24979223Y-14507805D01*
X24725310Y-14534164D01*
X24694840Y-14533562D01*
X24442400Y-14497226D01*
X24276994Y-14472750D01*
X24248208Y-14464859D01*
X24163016Y-14430019D01*
X24131846Y-14411554D01*
X23926889Y-14245330D01*
X23910035Y-14232415D01*
X23903907Y-14227045D01*
X23462043Y-13785181D01*
X23428558Y-13723858D01*
X23433542Y-13654166D01*
X23475414Y-13598233D01*
X23540878Y-13573816D01*
X23549724Y-13573500D01*
X25452319Y-13573500D01*
X25460416Y-13574030D01*
X25485792Y-13577371D01*
X25496264Y-13578750D01*
X25496265Y-13578750D01*
X25496266Y-13578750D01*
X25532111Y-13574031D01*
X25534226Y-13573752D01*
X25534239Y-13573751D01*
X25536146Y-13573500D01*
X25536150Y-13573500D01*
X25617267Y-13562820D01*
X25635722Y-13560391D01*
X25655116Y-13557838D01*
X25655115Y-13557837D01*
X25803141Y-13496524D01*
X25898337Y-13423477D01*
X25898338Y-13423475D01*
X25906429Y-13417267D01*
X25906436Y-13417261D01*
X25930248Y-13398990D01*
X25930247Y-13398990D01*
X25930252Y-13398987D01*
X25952275Y-13370285D01*
X25957603Y-13364209D01*
X27389992Y-11931820D01*
X27408974Y-11916273D01*
X27419097Y-11909537D01*
X27427257Y-11902234D01*
X27473361Y-11876156D01*
X27504172Y-11866641D01*
X27510657Y-11864457D01*
X27517342Y-11862207D01*
X27617353Y-11825422D01*
X27618231Y-11825079D01*
X27618581Y-11824942D01*
X27688192Y-11818941D01*
X27749998Y-11851526D01*
G37*
%TD.AperFunction*%
%TA.AperFunction,Conductor*%
G36*
X51739893Y-12488185D02*
G01*
X51785648Y-12540989D01*
X51795592Y-12610147D01*
X51766567Y-12673703D01*
X51760535Y-12680181D01*
X50785535Y-13655181D01*
X50724212Y-13688666D01*
X50697854Y-13691500D01*
X44160874Y-13691500D01*
X44152776Y-13690969D01*
X44127400Y-13687628D01*
X44116929Y-13686250D01*
X44116927Y-13686250D01*
X44079417Y-13691188D01*
X44079388Y-13691190D01*
X43977470Y-13704608D01*
X43958076Y-13707161D01*
X43810054Y-13768474D01*
X43810050Y-13768476D01*
X43730855Y-13829247D01*
X43682937Y-13866016D01*
X43660921Y-13894707D01*
X43655570Y-13900809D01*
X43296279Y-14260099D01*
X43278432Y-14274884D01*
X43275806Y-14276673D01*
X43073598Y-14436703D01*
X43038708Y-14456116D01*
X42992324Y-14472842D01*
X42961293Y-14484031D01*
X42930935Y-14490829D01*
X42757658Y-14507254D01*
X42516448Y-14532725D01*
X42447712Y-14520190D01*
X42396665Y-14472483D01*
X42379514Y-14404751D01*
X42401704Y-14338498D01*
X42415739Y-14321736D01*
X43190467Y-13547008D01*
X43196558Y-13541666D01*
X43225252Y-13519650D01*
X43244583Y-13494455D01*
X43244589Y-13494450D01*
X43249741Y-13487735D01*
X43249743Y-13487734D01*
X43322789Y-13392539D01*
X43384103Y-13244514D01*
X43388905Y-13208038D01*
X43399765Y-13125548D01*
X43399765Y-13125542D01*
X43402553Y-13104367D01*
X43405015Y-13085664D01*
X43405015Y-13085662D01*
X43400296Y-13049819D01*
X43399765Y-13041717D01*
X43399765Y-13013736D01*
X43402193Y-12989318D01*
X43404590Y-12977385D01*
X43405195Y-12966457D01*
X43419354Y-12915419D01*
X43434393Y-12886942D01*
X43440572Y-12874495D01*
X43485362Y-12777586D01*
X43487541Y-12772619D01*
X43509478Y-12712780D01*
X43509989Y-12709314D01*
X43515619Y-12686454D01*
X43535427Y-12629850D01*
X43537647Y-12610147D01*
X43541200Y-12578617D01*
X43568266Y-12514203D01*
X43625861Y-12474648D01*
X43664420Y-12468500D01*
X51672854Y-12468500D01*
X51739893Y-12488185D01*
G37*
%TD.AperFunction*%
%TA.AperFunction,Conductor*%
G36*
X28223909Y-8183348D02*
G01*
X28269664Y-8236152D01*
X28280090Y-8273779D01*
X28281337Y-8284847D01*
X28326490Y-8413890D01*
X28327377Y-8416628D01*
X28333495Y-8437116D01*
X28376179Y-8529471D01*
X28382354Y-8541914D01*
X28397408Y-8570423D01*
X28411567Y-8621448D01*
X28412175Y-8632389D01*
X28416719Y-8680026D01*
X28416999Y-8685916D01*
X28416999Y-11311088D01*
X28397314Y-11378127D01*
X28380680Y-11398769D01*
X28262033Y-11517416D01*
X28200710Y-11550901D01*
X28131018Y-11545917D01*
X28075085Y-11504045D01*
X28050668Y-11438581D01*
X28057311Y-11388780D01*
X28095425Y-11279857D01*
X28095428Y-11279844D01*
X28114564Y-11110003D01*
X28114564Y-11109996D01*
X28095428Y-10940155D01*
X28095427Y-10940150D01*
X28075512Y-10883237D01*
X28038974Y-10778817D01*
X27948036Y-10634091D01*
X27827174Y-10513229D01*
X27827173Y-10513228D01*
X27682448Y-10422291D01*
X27521114Y-10365837D01*
X27521109Y-10365836D01*
X27351269Y-10346701D01*
X27351261Y-10346701D01*
X27181420Y-10365836D01*
X27181415Y-10365837D01*
X27020081Y-10422291D01*
X26875356Y-10513228D01*
X26754493Y-10634091D01*
X26663556Y-10778817D01*
X26663553Y-10778823D01*
X26651672Y-10812775D01*
X26643736Y-10830743D01*
X26634174Y-10848446D01*
X26634172Y-10848449D01*
X26599245Y-10943404D01*
X26594780Y-10956572D01*
X26585105Y-10987902D01*
X26559036Y-11033996D01*
X26551725Y-11042166D01*
X26521282Y-11079035D01*
X26517311Y-11083403D01*
X25890933Y-11709783D01*
X25280535Y-12320181D01*
X25219212Y-12353666D01*
X25192854Y-12356500D01*
X17999676Y-12356500D01*
X17932637Y-12336815D01*
X17911995Y-12320181D01*
X17887658Y-12295844D01*
X17854173Y-12234521D01*
X17859157Y-12164829D01*
X17901029Y-12108896D01*
X17966493Y-12084479D01*
X17975339Y-12084163D01*
X21084764Y-12084163D01*
X21092861Y-12084693D01*
X21118237Y-12088034D01*
X21128709Y-12089413D01*
X21128710Y-12089413D01*
X21128711Y-12089413D01*
X21164556Y-12084694D01*
X21166663Y-12084416D01*
X21166688Y-12084414D01*
X21272302Y-12070510D01*
X21277386Y-12069840D01*
X21287561Y-12068501D01*
X21435581Y-12007189D01*
X21435582Y-12007189D01*
X21435582Y-12007188D01*
X21435586Y-12007187D01*
X21530782Y-11934140D01*
X21530783Y-11934138D01*
X21538874Y-11927930D01*
X21538881Y-11927924D01*
X21559060Y-11912441D01*
X21562697Y-11909650D01*
X21584720Y-11880948D01*
X21590048Y-11874872D01*
X25087937Y-8376983D01*
X25106919Y-8361436D01*
X25117042Y-8354700D01*
X25125202Y-8347397D01*
X25171306Y-8321319D01*
X25202117Y-8311804D01*
X25208602Y-8309620D01*
X25215287Y-8307370D01*
X25315308Y-8270581D01*
X25320234Y-8268662D01*
X25320237Y-8268661D01*
X25320236Y-8268661D01*
X25350073Y-8254841D01*
X25366697Y-8248547D01*
X25371331Y-8247164D01*
X25463705Y-8204470D01*
X25472746Y-8199982D01*
X25476151Y-8198292D01*
X25486575Y-8192787D01*
X25504629Y-8183252D01*
X25555666Y-8169094D01*
X25566595Y-8168488D01*
X25607180Y-8164616D01*
X25607181Y-8164615D01*
X25614233Y-8163943D01*
X25620124Y-8163663D01*
X28156870Y-8163663D01*
X28223909Y-8183348D01*
G37*
%TD.AperFunction*%
%TA.AperFunction,Conductor*%
G36*
X18422565Y993583D02*
G01*
X18441516Y970987D01*
X18535541Y827072D01*
X18535549Y827061D01*
X18685528Y664143D01*
X18688025Y661431D01*
X18865689Y523148D01*
X18865690Y523148D01*
X18865692Y523146D01*
X19063687Y415997D01*
X19063691Y415995D01*
X19106705Y401229D01*
X19114734Y397825D01*
X19132052Y388996D01*
X19478587Y270833D01*
X19491794Y266723D01*
X19505466Y262869D01*
X19518394Y259585D01*
X19745964Y208026D01*
X19783128Y199606D01*
X19933617Y159789D01*
X19958687Y150147D01*
X20060424Y97737D01*
X20084120Y81835D01*
X20222212Y-35991D01*
X20295043Y-98134D01*
X20321848Y-119484D01*
X20327056Y-124135D01*
X20832921Y-630000D01*
X21323798Y-1120877D01*
X21335580Y-1134510D01*
X21350064Y-1153966D01*
X21350133Y-1154058D01*
X21390614Y-1188025D01*
X21394588Y-1191667D01*
X21400502Y-1197581D01*
X21426497Y-1218135D01*
X21485962Y-1268032D01*
X21485963Y-1268032D01*
X21485965Y-1268034D01*
X21491998Y-1272002D01*
X21491972Y-1272041D01*
X21498529Y-1276218D01*
X21498555Y-1276178D01*
X21504693Y-1279964D01*
X21504697Y-1279967D01*
X21575054Y-1312775D01*
X21644414Y-1347609D01*
X21644420Y-1347610D01*
X21651208Y-1350082D01*
X21651191Y-1350128D01*
X21658518Y-1352674D01*
X21658534Y-1352629D01*
X21665388Y-1354899D01*
X21665396Y-1354903D01*
X21741450Y-1370607D01*
X21816946Y-1388500D01*
X21816947Y-1388500D01*
X21824120Y-1389339D01*
X21824114Y-1389386D01*
X21831845Y-1390177D01*
X21831850Y-1390130D01*
X21839040Y-1390759D01*
X21839044Y-1390758D01*
X21839045Y-1390759D01*
X21916683Y-1388500D01*
X22381548Y-1388500D01*
X22401519Y-1390119D01*
X22401875Y-1390177D01*
X22423003Y-1393625D01*
X22533807Y-1395726D01*
X22600460Y-1416678D01*
X22645206Y-1470340D01*
X22655148Y-1510980D01*
X22658270Y-1555246D01*
X22662414Y-1594059D01*
X22662765Y-1600646D01*
X22662765Y-2215321D01*
X22660549Y-2238659D01*
X22659009Y-2246698D01*
X22657801Y-2252999D01*
X22657444Y-2260663D01*
X22653804Y-2338768D01*
X22645201Y-2378716D01*
X22641221Y-2388748D01*
X22639233Y-2393235D01*
X22620917Y-2430505D01*
X22598082Y-2476969D01*
X22584152Y-2507831D01*
X22536869Y-2612583D01*
X22535137Y-2616588D01*
X22535136Y-2616592D01*
X22514134Y-2674459D01*
X22513532Y-2678574D01*
X22508771Y-2698928D01*
X22484115Y-2774813D01*
X22480635Y-2785525D01*
X22464731Y-2936842D01*
X22461771Y-2965000D01*
X22480635Y-3144476D01*
X22531108Y-3299816D01*
X22536401Y-3316107D01*
X22555869Y-3349826D01*
X22618678Y-3458616D01*
X22635150Y-3526516D01*
X22612297Y-3592543D01*
X22598971Y-3608296D01*
X21414541Y-4792726D01*
X21353218Y-4826211D01*
X21351178Y-4826637D01*
X21330371Y-4830798D01*
X21320367Y-4832799D01*
X21304663Y-4836455D01*
X21288676Y-4840711D01*
X21273800Y-4845156D01*
X21167176Y-4880564D01*
X21158084Y-4883938D01*
X21158085Y-4883938D01*
X21116574Y-4902759D01*
X21111449Y-4904813D01*
X21090082Y-4912290D01*
X20945356Y-5003228D01*
X20824493Y-5124091D01*
X20733556Y-5268816D01*
X20677102Y-5430150D01*
X20677101Y-5430155D01*
X20657966Y-5599996D01*
X20657966Y-5600003D01*
X20677101Y-5769844D01*
X20677102Y-5769849D01*
X20733556Y-5931183D01*
X20817961Y-6065513D01*
X20824494Y-6075909D01*
X20945356Y-6196771D01*
X21090082Y-6287709D01*
X21251414Y-6344161D01*
X21251415Y-6344162D01*
X21251420Y-6344163D01*
X21421261Y-6363299D01*
X21421265Y-6363299D01*
X21421269Y-6363299D01*
X21591109Y-6344163D01*
X21591112Y-6344162D01*
X21591115Y-6344162D01*
X21752448Y-6287709D01*
X21897174Y-6196771D01*
X22018036Y-6075909D01*
X22108974Y-5931183D01*
X22116921Y-5908468D01*
X22126641Y-5887312D01*
X22133144Y-5876077D01*
X22165650Y-5795125D01*
X22173120Y-5777247D01*
X22197580Y-5739711D01*
X22228818Y-5706793D01*
X22260340Y-5670283D01*
X22260341Y-5670280D01*
X22264188Y-5665825D01*
X22264197Y-5665833D01*
X22273242Y-5655123D01*
X25681672Y-2246693D01*
X25699492Y-2231929D01*
X25712090Y-2223339D01*
X25729464Y-2207432D01*
X25772245Y-2181851D01*
X25802487Y-2171272D01*
X25850839Y-2152860D01*
X25899190Y-2134450D01*
X25901251Y-2133633D01*
X25902533Y-2133126D01*
X25902534Y-2133126D01*
X25918856Y-2125513D01*
X25940737Y-2115307D01*
X25946459Y-2112978D01*
X25960092Y-2108209D01*
X26104818Y-2017271D01*
X26225680Y-1896409D01*
X26316618Y-1751683D01*
X26373071Y-1590350D01*
X26373072Y-1590345D01*
X26375545Y-1568397D01*
X26402611Y-1503983D01*
X26460206Y-1464428D01*
X26530043Y-1462290D01*
X26589949Y-1498247D01*
X26620905Y-1560885D01*
X26622765Y-1582280D01*
X26622765Y-2001059D01*
X26603080Y-2068098D01*
X26586446Y-2088740D01*
X19416418Y-9258767D01*
X19355095Y-9292252D01*
X19306011Y-9292000D01*
X19305980Y-9292280D01*
X19303374Y-9291986D01*
X19301137Y-9291975D01*
X19299055Y-9291499D01*
X19129214Y-9272364D01*
X19129206Y-9272364D01*
X18959365Y-9291499D01*
X18959360Y-9291500D01*
X18798026Y-9347954D01*
X18653301Y-9438891D01*
X18532438Y-9559754D01*
X18441500Y-9704480D01*
X18406558Y-9804341D01*
X18365836Y-9861117D01*
X18300883Y-9886865D01*
X18275633Y-9886607D01*
X18149214Y-9872364D01*
X18149206Y-9872364D01*
X17979365Y-9891499D01*
X17979360Y-9891500D01*
X17818025Y-9947954D01*
X17668562Y-10041869D01*
X17601325Y-10060869D01*
X17536623Y-10041872D01*
X17531186Y-10038456D01*
X17531183Y-10038454D01*
X17531179Y-10038452D01*
X17531174Y-10038450D01*
X17497219Y-10026568D01*
X17479247Y-10018630D01*
X17461554Y-10009073D01*
X17461549Y-10009071D01*
X17400956Y-9986782D01*
X17344834Y-9945163D01*
X17320122Y-9879810D01*
X17319765Y-9870406D01*
X17319765Y-6183944D01*
X17320296Y-6175843D01*
X17325015Y-6140000D01*
X17320475Y-6105514D01*
X17319765Y-6100122D01*
X17319765Y-6100115D01*
X17304103Y-5981150D01*
X17253566Y-5859143D01*
X17242791Y-5833129D01*
X17242790Y-5833128D01*
X17242789Y-5833125D01*
X17214631Y-5796429D01*
X17197481Y-5774078D01*
X17168790Y-5736687D01*
X17168786Y-5736682D01*
X17152509Y-5715471D01*
X17145252Y-5706013D01*
X17145250Y-5706012D01*
X17145250Y-5706011D01*
X17121282Y-5687620D01*
X17116558Y-5683995D01*
X17110468Y-5678654D01*
X16403094Y-4971279D01*
X16387544Y-4952297D01*
X16380801Y-4942164D01*
X16380798Y-4942161D01*
X16378054Y-4939095D01*
X16373496Y-4934001D01*
X16347421Y-4887901D01*
X16337907Y-4857092D01*
X16334845Y-4847999D01*
X16333471Y-4843918D01*
X16296681Y-4743896D01*
X16294763Y-4738972D01*
X16294760Y-4738966D01*
X16294761Y-4738966D01*
X16276643Y-4699849D01*
X16274380Y-4694266D01*
X16273102Y-4690616D01*
X16268974Y-4678817D01*
X16178036Y-4534091D01*
X16057174Y-4413229D01*
X16057173Y-4413228D01*
X15912448Y-4322291D01*
X15751114Y-4265837D01*
X15751109Y-4265836D01*
X15581269Y-4246701D01*
X15581261Y-4246701D01*
X15411420Y-4265836D01*
X15411415Y-4265837D01*
X15250081Y-4322291D01*
X15105356Y-4413228D01*
X14984493Y-4534091D01*
X14893556Y-4678816D01*
X14837102Y-4840150D01*
X14837101Y-4840154D01*
X14833670Y-4870612D01*
X14806603Y-4935026D01*
X14749008Y-4974581D01*
X14679171Y-4976718D01*
X14622769Y-4944409D01*
X11068146Y-1389786D01*
X11034661Y-1328463D01*
X11039645Y-1258771D01*
X11081517Y-1202838D01*
X11103801Y-1189547D01*
X11113705Y-1184970D01*
X11122746Y-1180482D01*
X11126151Y-1178792D01*
X11134737Y-1174257D01*
X11154629Y-1163752D01*
X11205666Y-1149594D01*
X11216595Y-1148988D01*
X11257180Y-1145116D01*
X11257181Y-1145115D01*
X11264233Y-1144443D01*
X11270124Y-1144163D01*
X13945799Y-1144163D01*
X14012838Y-1163848D01*
X14033480Y-1180482D01*
X14215176Y-1362178D01*
X14248661Y-1423501D01*
X14243677Y-1493193D01*
X14237146Y-1507760D01*
X14226235Y-1528424D01*
X14220045Y-1540850D01*
X14175071Y-1638166D01*
X14172900Y-1643116D01*
X14150995Y-1702879D01*
X14150994Y-1702883D01*
X14150480Y-1706369D01*
X14144851Y-1729215D01*
X14125047Y-1785813D01*
X14125047Y-1785814D01*
X14105911Y-1955659D01*
X14105911Y-1955666D01*
X14125046Y-2125507D01*
X14125047Y-2125512D01*
X14181501Y-2286846D01*
X14271773Y-2430513D01*
X14272439Y-2431572D01*
X14393301Y-2552434D01*
X14538027Y-2643372D01*
X14647442Y-2681658D01*
X14699360Y-2699825D01*
X14699365Y-2699826D01*
X14869206Y-2718962D01*
X14869210Y-2718962D01*
X14869214Y-2718962D01*
X15039054Y-2699826D01*
X15039057Y-2699825D01*
X15039060Y-2699825D01*
X15200393Y-2643372D01*
X15345119Y-2552434D01*
X15465981Y-2431572D01*
X15556919Y-2286846D01*
X15613372Y-2125513D01*
X15613373Y-2125507D01*
X15632509Y-1955666D01*
X15632509Y-1955659D01*
X15613373Y-1785820D01*
X15613372Y-1785814D01*
X15613372Y-1785813D01*
X15568201Y-1656723D01*
X15567324Y-1654014D01*
X15565921Y-1649315D01*
X15561214Y-1633547D01*
X15531775Y-1569850D01*
X15518523Y-1541177D01*
X15515730Y-1535550D01*
X15512341Y-1528721D01*
X15497300Y-1500241D01*
X15483140Y-1449203D01*
X15482535Y-1438277D01*
X15478663Y-1397692D01*
X15478662Y-1397690D01*
X15477990Y-1390641D01*
X15477710Y-1384750D01*
X15477710Y-1199607D01*
X15478241Y-1191506D01*
X15481655Y-1165579D01*
X15482960Y-1155663D01*
X15477710Y-1115785D01*
X15477710Y-1115778D01*
X15462048Y-996813D01*
X15400734Y-848788D01*
X15400733Y-848786D01*
X15368476Y-806749D01*
X15325217Y-750372D01*
X15303195Y-721674D01*
X15290047Y-711585D01*
X15274503Y-699658D01*
X15268413Y-694317D01*
X14909277Y-335181D01*
X14875792Y-273858D01*
X14880776Y-204166D01*
X14922648Y-148233D01*
X14988112Y-123816D01*
X14996958Y-123500D01*
X17275136Y-123500D01*
X17342175Y-143185D01*
X17362817Y-159819D01*
X19847377Y-2644379D01*
X19862927Y-2663362D01*
X19869669Y-2673494D01*
X19869672Y-2673497D01*
X19876975Y-2681658D01*
X19903050Y-2727758D01*
X19912564Y-2758565D01*
X19916868Y-2771346D01*
X19917003Y-2771747D01*
X19953795Y-2871772D01*
X19955708Y-2876683D01*
X19973831Y-2915814D01*
X19976093Y-2921392D01*
X19981499Y-2936842D01*
X19981500Y-2936843D01*
X19981501Y-2936846D01*
X20016002Y-2991753D01*
X20063480Y-3067315D01*
X20072439Y-3081572D01*
X20193301Y-3202434D01*
X20338027Y-3293372D01*
X20499359Y-3349825D01*
X20499360Y-3349825D01*
X20499365Y-3349826D01*
X20669206Y-3368962D01*
X20669210Y-3368962D01*
X20669214Y-3368962D01*
X20839054Y-3349826D01*
X20839057Y-3349825D01*
X20839060Y-3349825D01*
X21000393Y-3293372D01*
X21145119Y-3202434D01*
X21265981Y-3081572D01*
X21356919Y-2936846D01*
X21413372Y-2775513D01*
X21413451Y-2774813D01*
X21432509Y-2605666D01*
X21432509Y-2605659D01*
X21413373Y-2435818D01*
X21413372Y-2435813D01*
X21396903Y-2388748D01*
X21356919Y-2274480D01*
X21265981Y-2129754D01*
X21145119Y-2008892D01*
X21145119Y-2008891D01*
X21145118Y-2008891D01*
X21060406Y-1955663D01*
X21000393Y-1917954D01*
X21000389Y-1917952D01*
X21000384Y-1917950D01*
X20966429Y-1906068D01*
X20948457Y-1898130D01*
X20930765Y-1888574D01*
X20930764Y-1888573D01*
X20930761Y-1888572D01*
X20835291Y-1853455D01*
X20822112Y-1849017D01*
X20791305Y-1839503D01*
X20745205Y-1813428D01*
X20737042Y-1806124D01*
X20734196Y-1803774D01*
X20705596Y-1780156D01*
X20705594Y-1780155D01*
X20700156Y-1775664D01*
X20695791Y-1771695D01*
X18191786Y732310D01*
X18158301Y793633D01*
X18163285Y863325D01*
X18177893Y891116D01*
X18236134Y974290D01*
X18290712Y1017914D01*
X18360210Y1025106D01*
X18422565Y993583D01*
G37*
%TD.AperFunction*%
%TA.AperFunction,Conductor*%
G36*
X61102765Y-1418185D02*
G01*
X61148520Y-1470989D01*
X61158464Y-1540147D01*
X61146596Y-1578032D01*
X61145941Y-1579340D01*
X61088247Y-1706369D01*
X61083756Y-1716258D01*
X61082109Y-1720033D01*
X61082106Y-1720040D01*
X61082106Y-1720041D01*
X61060426Y-1779465D01*
X61060424Y-1779475D01*
X61059846Y-1783425D01*
X61055086Y-1803774D01*
X61027070Y-1890001D01*
X61026900Y-1890525D01*
X61023157Y-1926127D01*
X60996574Y-1990739D01*
X60939277Y-2030724D01*
X60899838Y-2037163D01*
X39332955Y-2037163D01*
X39308537Y-2034735D01*
X39296599Y-2032337D01*
X39296603Y-2032337D01*
X39285660Y-2031730D01*
X39234634Y-2017572D01*
X39206126Y-2002518D01*
X39193681Y-1996342D01*
X39135655Y-1969525D01*
X39096635Y-1951491D01*
X39094962Y-1950757D01*
X39091626Y-1949295D01*
X39091620Y-1949293D01*
X39091616Y-1949291D01*
X39031990Y-1927448D01*
X39028504Y-1926933D01*
X39005658Y-1921305D01*
X38949057Y-1901500D01*
X38779214Y-1882364D01*
X38779206Y-1882364D01*
X38609365Y-1901499D01*
X38609360Y-1901500D01*
X38448026Y-1957954D01*
X38303301Y-2048891D01*
X38182438Y-2169754D01*
X38091501Y-2314479D01*
X38035047Y-2475813D01*
X38035046Y-2475818D01*
X38015911Y-2645659D01*
X38015911Y-2645666D01*
X38035046Y-2815507D01*
X38035047Y-2815512D01*
X38091501Y-2976846D01*
X38182438Y-3121571D01*
X38239077Y-3178210D01*
X38272562Y-3239533D01*
X38267578Y-3309225D01*
X38225706Y-3365158D01*
X38160242Y-3389575D01*
X38128031Y-3387670D01*
X38122137Y-3386539D01*
X38122132Y-3386538D01*
X38122127Y-3386538D01*
X38101618Y-3385578D01*
X38052639Y-3372958D01*
X38022302Y-3358019D01*
X37925603Y-3314345D01*
X37921714Y-3312661D01*
X37864093Y-3291690D01*
X37864088Y-3291688D01*
X37864086Y-3291688D01*
X37864081Y-3291687D01*
X37864076Y-3291686D01*
X37860046Y-3291091D01*
X37837204Y-3285463D01*
X37781114Y-3265837D01*
X37611269Y-3246701D01*
X37611261Y-3246701D01*
X37441420Y-3265836D01*
X37441415Y-3265837D01*
X37280081Y-3322291D01*
X37135356Y-3413228D01*
X37014493Y-3534091D01*
X36923556Y-3678816D01*
X36867102Y-3840150D01*
X36867101Y-3840155D01*
X36847966Y-4009996D01*
X36847966Y-4010003D01*
X36867101Y-4179844D01*
X36867102Y-4179849D01*
X36923556Y-4341183D01*
X36982704Y-4435317D01*
X37014494Y-4485909D01*
X37135356Y-4606771D01*
X37280082Y-4697709D01*
X37427783Y-4749392D01*
X37441415Y-4754162D01*
X37441420Y-4754163D01*
X37611261Y-4773299D01*
X37611265Y-4773299D01*
X37611269Y-4773299D01*
X37781107Y-4754163D01*
X37781107Y-4754162D01*
X37781115Y-4754162D01*
X37902133Y-4711815D01*
X37927005Y-4703112D01*
X37931521Y-4701715D01*
X37937983Y-4699718D01*
X37938568Y-4699440D01*
X37940482Y-4698655D01*
X37942444Y-4697710D01*
X37942448Y-4697709D01*
X37942451Y-4697706D01*
X37945274Y-4696348D01*
X37946430Y-4695712D01*
X38032148Y-4655075D01*
X38049561Y-4646031D01*
X38079431Y-4629030D01*
X38132731Y-4613060D01*
X38131762Y-4613122D01*
X38157410Y-4610487D01*
X38173591Y-4608825D01*
X38179931Y-4608500D01*
X68560877Y-4608500D01*
X68627916Y-4628185D01*
X68673671Y-4680989D01*
X68683615Y-4750147D01*
X68654590Y-4813703D01*
X68648558Y-4820181D01*
X68005453Y-5463285D01*
X67992785Y-5473435D01*
X67992931Y-5473611D01*
X67986920Y-5478583D01*
X67937053Y-5531686D01*
X67915072Y-5553667D01*
X67910492Y-5559569D01*
X67906708Y-5563998D01*
X67873029Y-5599865D01*
X67873024Y-5599872D01*
X67862618Y-5618800D01*
X67851942Y-5635054D01*
X67838695Y-5652133D01*
X67819150Y-5697297D01*
X67816580Y-5702543D01*
X67792876Y-5745661D01*
X67787502Y-5766589D01*
X67781203Y-5784987D01*
X67772619Y-5804825D01*
X67764923Y-5853420D01*
X67763738Y-5859143D01*
X67751500Y-5906809D01*
X67751500Y-5928413D01*
X67749974Y-5947808D01*
X67746594Y-5969151D01*
X67751225Y-6018143D01*
X67751500Y-6023981D01*
X67751500Y-6643609D01*
X67749718Y-6659746D01*
X67749946Y-6659768D01*
X67749211Y-6667534D01*
X67751500Y-6740342D01*
X67751500Y-6771434D01*
X67752433Y-6778829D01*
X67752891Y-6784647D01*
X67754437Y-6833829D01*
X67754438Y-6833832D01*
X67760464Y-6854577D01*
X67764407Y-6873618D01*
X67767116Y-6895053D01*
X67767117Y-6895057D01*
X67767118Y-6895064D01*
X67782596Y-6934159D01*
X67785234Y-6940822D01*
X67787125Y-6946348D01*
X67800854Y-6993598D01*
X67811850Y-7012191D01*
X67820410Y-7029665D01*
X67828363Y-7049754D01*
X67857289Y-7089565D01*
X67860490Y-7094437D01*
X67880439Y-7128169D01*
X67881541Y-7130034D01*
X67885547Y-7136807D01*
X67885551Y-7136811D01*
X67900821Y-7152081D01*
X67913458Y-7166876D01*
X67926159Y-7184357D01*
X67960766Y-7212986D01*
X67964072Y-7215721D01*
X67968383Y-7219643D01*
X68462754Y-7714014D01*
X68728943Y-7980203D01*
X68739093Y-7992871D01*
X68739269Y-7992727D01*
X68744243Y-7998739D01*
X68797348Y-8048609D01*
X68819324Y-8070585D01*
X68825214Y-8075154D01*
X68829657Y-8078949D01*
X68865527Y-8112633D01*
X68865529Y-8112634D01*
X68865530Y-8112635D01*
X68884466Y-8123045D01*
X68900712Y-8133716D01*
X68917795Y-8146967D01*
X68958580Y-8164616D01*
X68962959Y-8166511D01*
X68968207Y-8169083D01*
X68994251Y-8183400D01*
X69011326Y-8192787D01*
X69027486Y-8196935D01*
X69032246Y-8198158D01*
X69050649Y-8204458D01*
X69070487Y-8213043D01*
X69107623Y-8218924D01*
X69119094Y-8220741D01*
X69124809Y-8221924D01*
X69172475Y-8234163D01*
X69194082Y-8234163D01*
X69213479Y-8235689D01*
X69234815Y-8239069D01*
X69283807Y-8234437D01*
X69289644Y-8234163D01*
X69697500Y-8234163D01*
X69764539Y-8253848D01*
X69810294Y-8306652D01*
X69821500Y-8358163D01*
X69821500Y-9206338D01*
X69801815Y-9273377D01*
X69749011Y-9319132D01*
X69683618Y-9329559D01*
X69648333Y-9325583D01*
X69615318Y-9321864D01*
X69615316Y-9321864D01*
X69615315Y-9321864D01*
X69615314Y-9321864D01*
X69445470Y-9341000D01*
X69316435Y-9386150D01*
X69313698Y-9387037D01*
X69293202Y-9393157D01*
X69233447Y-9420774D01*
X69200906Y-9435814D01*
X69188482Y-9441974D01*
X69174375Y-9449423D01*
X69159889Y-9457073D01*
X69108866Y-9471230D01*
X69099896Y-9471728D01*
X69097925Y-9471838D01*
X69076305Y-9473901D01*
X69050312Y-9476382D01*
X69044418Y-9476663D01*
X61709839Y-9476663D01*
X61642800Y-9456978D01*
X61622158Y-9440344D01*
X58888282Y-6706468D01*
X58882929Y-6700365D01*
X58870796Y-6684553D01*
X58860915Y-6671676D01*
X58860913Y-6671674D01*
X58860912Y-6671673D01*
X58829003Y-6647189D01*
X58829002Y-6647188D01*
X58829000Y-6647186D01*
X58745837Y-6583372D01*
X58733805Y-6574139D01*
X58733801Y-6574137D01*
X58585778Y-6512824D01*
X58566385Y-6510271D01*
X58464632Y-6496875D01*
X58464606Y-6496873D01*
X58426929Y-6491913D01*
X58426927Y-6491913D01*
X58422970Y-6492434D01*
X58391079Y-6496632D01*
X58382982Y-6497163D01*
X55978476Y-6497163D01*
X55911437Y-6477478D01*
X55865682Y-6424674D01*
X55855738Y-6355516D01*
X55884763Y-6291960D01*
X55886326Y-6290191D01*
X55923864Y-6248500D01*
X55938367Y-6232393D01*
X56028599Y-6076107D01*
X56084365Y-5904475D01*
X56103229Y-5725000D01*
X56084365Y-5545525D01*
X56028599Y-5373893D01*
X55938367Y-5217607D01*
X55882952Y-5156062D01*
X55817618Y-5083500D01*
X55817615Y-5083498D01*
X55817614Y-5083497D01*
X55817613Y-5083496D01*
X55671615Y-4977422D01*
X55671614Y-4977421D01*
X55506757Y-4904021D01*
X55506751Y-4904019D01*
X55367750Y-4874474D01*
X55330232Y-4866500D01*
X55149768Y-4866500D01*
X55112249Y-4874474D01*
X54973249Y-4904019D01*
X54973244Y-4904021D01*
X54920554Y-4927479D01*
X54912676Y-4930366D01*
X54882719Y-4939096D01*
X54749342Y-4999676D01*
X54663492Y-5042680D01*
X54659200Y-5044629D01*
X54649931Y-5048422D01*
X54609033Y-5057508D01*
X54526044Y-5061567D01*
X54478019Y-5065915D01*
X54477976Y-5065442D01*
X54466405Y-5066500D01*
X50205776Y-5066500D01*
X50138737Y-5046815D01*
X50132891Y-5042818D01*
X50042884Y-4977424D01*
X50042879Y-4977421D01*
X49878022Y-4904021D01*
X49878016Y-4904019D01*
X49739015Y-4874474D01*
X49701497Y-4866500D01*
X49521033Y-4866500D01*
X49490090Y-4873076D01*
X49344513Y-4904019D01*
X49344507Y-4904021D01*
X49179651Y-4977421D01*
X49179646Y-4977424D01*
X49089640Y-5042818D01*
X49023834Y-5066298D01*
X49016755Y-5066500D01*
X42271290Y-5066500D01*
X42247669Y-5064229D01*
X42233955Y-5061568D01*
X42233949Y-5061567D01*
X42150963Y-5057508D01*
X42110075Y-5048426D01*
X42100794Y-5044629D01*
X42096503Y-5042680D01*
X42010656Y-4999676D01*
X41873740Y-4937490D01*
X41870779Y-4936198D01*
X41869914Y-4935821D01*
X41869916Y-4935822D01*
X41807003Y-4912874D01*
X41803040Y-4911271D01*
X41786752Y-4904020D01*
X41786750Y-4904019D01*
X41786749Y-4904019D01*
X41675494Y-4880371D01*
X41610232Y-4866500D01*
X41429768Y-4866500D01*
X41398825Y-4873076D01*
X41253248Y-4904019D01*
X41253242Y-4904021D01*
X41088386Y-4977421D01*
X41088381Y-4977424D01*
X40942388Y-5083494D01*
X40942381Y-5083500D01*
X40821632Y-5217608D01*
X40731400Y-5373894D01*
X40675635Y-5545523D01*
X40656197Y-5730462D01*
X40629612Y-5795077D01*
X40572314Y-5835061D01*
X40532876Y-5841500D01*
X39983745Y-5841500D01*
X39959327Y-5839072D01*
X39947389Y-5836674D01*
X39947393Y-5836674D01*
X39936450Y-5836067D01*
X39885424Y-5821909D01*
X39856916Y-5806855D01*
X39844471Y-5800679D01*
X39777765Y-5769850D01*
X39747425Y-5755828D01*
X39745752Y-5755094D01*
X39742416Y-5753632D01*
X39742410Y-5753630D01*
X39742406Y-5753628D01*
X39682780Y-5731785D01*
X39679294Y-5731270D01*
X39656448Y-5725642D01*
X39599847Y-5705837D01*
X39430004Y-5686701D01*
X39429996Y-5686701D01*
X39260155Y-5705836D01*
X39260150Y-5705837D01*
X39098816Y-5762291D01*
X38954091Y-5853228D01*
X38833228Y-5974091D01*
X38742291Y-6118816D01*
X38685837Y-6280150D01*
X38685836Y-6280154D01*
X38673794Y-6387046D01*
X38646728Y-6451460D01*
X38589134Y-6491015D01*
X38550574Y-6497163D01*
X32892805Y-6497163D01*
X32825766Y-6477478D01*
X32780011Y-6424674D01*
X32769585Y-6387047D01*
X32765428Y-6350157D01*
X32765427Y-6350155D01*
X32765427Y-6350150D01*
X32720256Y-6221060D01*
X32719379Y-6218351D01*
X32713268Y-6197882D01*
X32670578Y-6105514D01*
X32664396Y-6093059D01*
X32664396Y-6093058D01*
X32649355Y-6064578D01*
X32635195Y-6013540D01*
X32634590Y-6002614D01*
X32630718Y-5962029D01*
X32630717Y-5962027D01*
X32630045Y-5954978D01*
X32629765Y-5949087D01*
X32629765Y-1953736D01*
X32632193Y-1929318D01*
X32632262Y-1928974D01*
X32634590Y-1917385D01*
X32635195Y-1906457D01*
X32649354Y-1855419D01*
X32664393Y-1826942D01*
X32670572Y-1814495D01*
X32715362Y-1717586D01*
X32717541Y-1712619D01*
X32739478Y-1652780D01*
X32739989Y-1649314D01*
X32745619Y-1626454D01*
X32765427Y-1569850D01*
X32767072Y-1555248D01*
X32772327Y-1508617D01*
X32799393Y-1444203D01*
X32856988Y-1404647D01*
X32895547Y-1398500D01*
X61035726Y-1398500D01*
X61102765Y-1418185D01*
G37*
%TD.AperFunction*%
%TA.AperFunction,Conductor*%
G36*
X29482761Y-6268185D02*
G01*
X29503403Y-6284819D01*
X29504066Y-6285482D01*
X29537551Y-6346805D01*
X29532567Y-6416497D01*
X29490695Y-6472430D01*
X29425231Y-6496847D01*
X29416385Y-6497163D01*
X27671308Y-6497163D01*
X27604269Y-6477478D01*
X27558514Y-6424674D01*
X27548570Y-6355516D01*
X27577595Y-6291960D01*
X27583627Y-6285482D01*
X27584290Y-6284819D01*
X27645613Y-6251334D01*
X27671971Y-6248500D01*
X29415722Y-6248500D01*
X29482761Y-6268185D01*
G37*
%TD.AperFunction*%
%TA.AperFunction,Conductor*%
G36*
X31214022Y-1418185D02*
G01*
X31259777Y-1470989D01*
X31270203Y-1508616D01*
X31277102Y-1569847D01*
X31322255Y-1698890D01*
X31323142Y-1701628D01*
X31329260Y-1722116D01*
X31371944Y-1814471D01*
X31378119Y-1826914D01*
X31393173Y-1855423D01*
X31407332Y-1906448D01*
X31407333Y-1906457D01*
X31407940Y-1917391D01*
X31410984Y-1949291D01*
X31412485Y-1965024D01*
X31412765Y-1970916D01*
X31412765Y-5620640D01*
X31393080Y-5687679D01*
X31340276Y-5733434D01*
X31271118Y-5743378D01*
X31209694Y-5716158D01*
X31208866Y-5715473D01*
X31193992Y-5704000D01*
X31190843Y-5701745D01*
X31179146Y-5693368D01*
X31059751Y-5614126D01*
X31043112Y-5603958D01*
X30988944Y-5573547D01*
X30958235Y-5556306D01*
X30954300Y-5553900D01*
X30901476Y-5518840D01*
X30894597Y-5513546D01*
X30844094Y-5468722D01*
X30802180Y-5431521D01*
X30771495Y-5406338D01*
X30771494Y-5406337D01*
X30767090Y-5402723D01*
X30762581Y-5398635D01*
X30363069Y-4999123D01*
X30351287Y-4985490D01*
X30336737Y-4965946D01*
X30336736Y-4965945D01*
X30336734Y-4965942D01*
X30335860Y-4965208D01*
X30296252Y-4931972D01*
X30292263Y-4928317D01*
X30286367Y-4922421D01*
X30286366Y-4922420D01*
X30263095Y-4904019D01*
X30260367Y-4901862D01*
X30223124Y-4870612D01*
X30200905Y-4851968D01*
X30200900Y-4851965D01*
X30194870Y-4847999D01*
X30194895Y-4847959D01*
X30188334Y-4843779D01*
X30188310Y-4843820D01*
X30182169Y-4840031D01*
X30111805Y-4807220D01*
X30042450Y-4772389D01*
X30035666Y-4769920D01*
X30035681Y-4769876D01*
X30028336Y-4767322D01*
X30028322Y-4767367D01*
X30021470Y-4765096D01*
X29983442Y-4757244D01*
X29945414Y-4749392D01*
X29869921Y-4731500D01*
X29869919Y-4731500D01*
X29869911Y-4731498D01*
X29862747Y-4730661D01*
X29862752Y-4730612D01*
X29855022Y-4729822D01*
X29855018Y-4729870D01*
X29847827Y-4729240D01*
X29770185Y-4731500D01*
X28273419Y-4731500D01*
X28206380Y-4711815D01*
X28160625Y-4659011D01*
X28150681Y-4589853D01*
X28152128Y-4581724D01*
X28152912Y-4578033D01*
X28152912Y-4578028D01*
X28152914Y-4578024D01*
X28171778Y-4398549D01*
X28152914Y-4219074D01*
X28097148Y-4047442D01*
X28006916Y-3891156D01*
X27945512Y-3822960D01*
X27886167Y-3757049D01*
X27886164Y-3757047D01*
X27886163Y-3757046D01*
X27886162Y-3757045D01*
X27761680Y-3666603D01*
X27740163Y-3650970D01*
X27575306Y-3577570D01*
X27575300Y-3577568D01*
X27524622Y-3566797D01*
X27463140Y-3533605D01*
X27429364Y-3472442D01*
X27434016Y-3402727D01*
X27462720Y-3357828D01*
X28469202Y-2351345D01*
X28475293Y-2346003D01*
X28503987Y-2323987D01*
X28522267Y-2300164D01*
X28528475Y-2292073D01*
X28528477Y-2292072D01*
X28601524Y-2196876D01*
X28636034Y-2113561D01*
X28662838Y-2048850D01*
X28678500Y-1929885D01*
X28678500Y-1929884D01*
X28678723Y-1928191D01*
X28678726Y-1928160D01*
X28679115Y-1925208D01*
X28683750Y-1890000D01*
X28679028Y-1854136D01*
X28678499Y-1846068D01*
X28678500Y-1722800D01*
X28698185Y-1655761D01*
X28750989Y-1610006D01*
X28795297Y-1600367D01*
X28795202Y-1599398D01*
X28801264Y-1598800D01*
X28801265Y-1598801D01*
X28989164Y-1580295D01*
X29169842Y-1525486D01*
X29169847Y-1525483D01*
X29174746Y-1523454D01*
X29178827Y-1521929D01*
X29181413Y-1521064D01*
X29181426Y-1521061D01*
X29334008Y-1457615D01*
X29418438Y-1426032D01*
X29425493Y-1423863D01*
X29455020Y-1416678D01*
X29459783Y-1415519D01*
X29477258Y-1412570D01*
X29541269Y-1406430D01*
X29546131Y-1406156D01*
X29697502Y-1403620D01*
X29748056Y-1400273D01*
X29748069Y-1400269D01*
X29748946Y-1400127D01*
X29768968Y-1398500D01*
X31146983Y-1398500D01*
X31214022Y-1418185D01*
G37*
%TD.AperFunction*%
%TA.AperFunction,Conductor*%
G36*
X23503170Y990822D02*
G01*
X23525069Y965550D01*
X23615543Y827069D01*
X23615548Y827064D01*
X23615549Y827061D01*
X23765528Y664143D01*
X23768025Y661431D01*
X23945689Y523148D01*
X23945690Y523148D01*
X23945692Y523146D01*
X23953008Y519187D01*
X24143691Y415995D01*
X24356630Y342893D01*
X24578696Y305837D01*
X24803834Y305837D01*
X25025900Y342893D01*
X25238839Y415995D01*
X25436841Y523148D01*
X25614505Y661431D01*
X25731978Y789039D01*
X25766980Y827061D01*
X25766982Y827064D01*
X25766987Y827069D01*
X25856555Y964165D01*
X25909699Y1009519D01*
X25978931Y1018943D01*
X26042266Y989441D01*
X26069522Y955163D01*
X26080324Y935117D01*
X26183193Y744212D01*
X26183193Y744213D01*
X26195493Y723729D01*
X26209918Y702055D01*
X26224057Y682813D01*
X26416666Y444719D01*
X26527578Y310579D01*
X26544235Y284311D01*
X26579239Y209829D01*
X26579240Y209827D01*
X26590183Y171427D01*
X26620006Y-84704D01*
X26622154Y-99893D01*
X26622765Y-108585D01*
X26622765Y-1258719D01*
X26603080Y-1325758D01*
X26550276Y-1371513D01*
X26481118Y-1381457D01*
X26417562Y-1352432D01*
X26379788Y-1293654D01*
X26375545Y-1272602D01*
X26373072Y-1250655D01*
X26373071Y-1250650D01*
X26360814Y-1215622D01*
X26316618Y-1089317D01*
X26225680Y-944591D01*
X26104818Y-823729D01*
X26104817Y-823728D01*
X25960092Y-732791D01*
X25798758Y-676337D01*
X25798753Y-676336D01*
X25628913Y-657201D01*
X25628905Y-657201D01*
X25459064Y-676336D01*
X25459059Y-676337D01*
X25297725Y-732791D01*
X25153000Y-823728D01*
X25032137Y-944591D01*
X24941201Y-1089314D01*
X24941200Y-1089315D01*
X24927512Y-1128434D01*
X24920312Y-1145020D01*
X24909700Y-1165276D01*
X24874728Y-1264208D01*
X24872309Y-1272002D01*
X24871013Y-1276178D01*
X24868403Y-1284585D01*
X24859401Y-1318617D01*
X24835880Y-1364957D01*
X24810511Y-1396277D01*
X24806170Y-1401097D01*
X24191446Y-2015821D01*
X24130123Y-2049306D01*
X24060431Y-2044322D01*
X24004498Y-2002450D01*
X23980081Y-1936986D01*
X23979765Y-1928140D01*
X23979765Y-1589275D01*
X23982574Y-1563031D01*
X23984259Y-1555248D01*
X23984259Y-1555247D01*
X23984260Y-1555244D01*
X23992188Y-1442804D01*
X23996704Y-1417285D01*
X23997319Y-1415142D01*
X24006931Y-1391332D01*
X24026759Y-1353932D01*
X24028156Y-1351443D01*
X24099858Y-1230380D01*
X24110589Y-1210311D01*
X24197450Y-1029600D01*
X24200514Y-1022765D01*
X24204346Y-1012408D01*
X24207816Y-1004696D01*
X24211088Y-998577D01*
X24217906Y-976097D01*
X24219086Y-972588D01*
X24224311Y-958477D01*
X24224312Y-958468D01*
X24225851Y-952434D01*
X24227987Y-942864D01*
X24265897Y-817899D01*
X24284403Y-630000D01*
X24265897Y-442101D01*
X24211088Y-261423D01*
X24142759Y-133588D01*
X24122088Y-94914D01*
X24122084Y-94907D01*
X24002306Y51042D01*
X23856357Y170820D01*
X23856350Y170824D01*
X23689843Y259823D01*
X23509166Y314632D01*
X23321265Y333138D01*
X23133363Y314632D01*
X22952692Y259826D01*
X22946433Y257233D01*
X22942522Y255766D01*
X22940043Y254931D01*
X22856031Y219778D01*
X22786589Y212060D01*
X22723998Y243111D01*
X22688130Y303072D01*
X22690374Y372905D01*
X22730016Y430440D01*
X22749146Y443220D01*
X22896841Y523148D01*
X23074505Y661431D01*
X23191978Y789039D01*
X23226980Y827061D01*
X23226980Y827062D01*
X23226987Y827069D01*
X23317458Y965547D01*
X23370603Y1010900D01*
X23439834Y1020324D01*
X23503170Y990822D01*
G37*
%TD.AperFunction*%
%TD*%
%TA.AperFunction,Conductor*%
%TO.N,/VDD_3.3V*%
G36*
X71982415Y-12340673D02*
G01*
X71988730Y-12347022D01*
X71988863Y-12347360D01*
X72033933Y-12467436D01*
X72036906Y-12475357D01*
X72071021Y-12577962D01*
X72071022Y-12577964D01*
X72071021Y-12577963D01*
X72106762Y-12663204D01*
X72163927Y-12750413D01*
X72254820Y-12850654D01*
X72257839Y-12859085D01*
X72254426Y-12866786D01*
X72058051Y-13063161D01*
X72049778Y-13066588D01*
X72041919Y-13063555D01*
X71941678Y-12972662D01*
X71854469Y-12915497D01*
X71769228Y-12879756D01*
X71769229Y-12879757D01*
X71769227Y-12879756D01*
X71666622Y-12845641D01*
X71666621Y-12845640D01*
X71538625Y-12797598D01*
X71532083Y-12791482D01*
X71531782Y-12782533D01*
X71531915Y-12782195D01*
X71658702Y-12473806D01*
X71665013Y-12467461D01*
X71973461Y-12340650D01*
X71982415Y-12340673D01*
G37*
%TD.AperFunction*%
%TD*%
%TA.AperFunction,Conductor*%
%TO.N,/VDD_SPI{slash}GPIO11*%
G36*
X55110563Y-5412447D02*
G01*
X55110708Y-5412779D01*
X55239119Y-5720494D01*
X55239142Y-5729449D01*
X55239119Y-5729506D01*
X55110708Y-6037220D01*
X55104359Y-6043535D01*
X55095404Y-6043512D01*
X55095072Y-6043367D01*
X54970593Y-5986830D01*
X54970593Y-5986829D01*
X54873916Y-5938400D01*
X54788367Y-5903398D01*
X54704110Y-5885864D01*
X54686278Y-5882153D01*
X54551128Y-5875544D01*
X54543033Y-5871717D01*
X54540000Y-5863858D01*
X54540000Y-5586141D01*
X54543427Y-5577868D01*
X54551126Y-5574455D01*
X54686282Y-5567845D01*
X54788367Y-5546601D01*
X54873916Y-5511599D01*
X54970593Y-5463169D01*
X55095074Y-5406631D01*
X55104021Y-5406331D01*
X55110563Y-5412447D01*
G37*
%TD.AperFunction*%
%TD*%
%TA.AperFunction,Conductor*%
%TO.N,/VDD_3.3V*%
G36*
X23153556Y-225054D02*
G01*
X23153563Y-225070D01*
X23320390Y-625500D01*
X23320409Y-634455D01*
X23320390Y-634500D01*
X23153563Y-1034929D01*
X23147218Y-1041248D01*
X23138263Y-1041229D01*
X23138247Y-1041222D01*
X22976789Y-973664D01*
X22851398Y-925701D01*
X22739369Y-897208D01*
X22607168Y-883526D01*
X22432743Y-880217D01*
X22424536Y-876634D01*
X22421265Y-868519D01*
X22421265Y-391480D01*
X22424692Y-383207D01*
X22432742Y-379782D01*
X22594149Y-376719D01*
X22607168Y-376473D01*
X22651235Y-371912D01*
X22739371Y-362790D01*
X22851403Y-334295D01*
X22976789Y-286335D01*
X23138247Y-218776D01*
X23147202Y-218745D01*
X23153556Y-225054D01*
G37*
%TD.AperFunction*%
%TD*%
%TA.AperFunction,Conductor*%
%TO.N,/SPICLK{slash}GPIO30*%
G36*
X38530001Y-14680236D02*
G01*
X38656691Y-14806926D01*
X38660118Y-14815199D01*
X38657592Y-14822460D01*
X38433028Y-15106208D01*
X38342495Y-15357284D01*
X38318723Y-15608075D01*
X38288102Y-15898024D01*
X38287675Y-15900154D01*
X38180276Y-16258550D01*
X38174618Y-16265491D01*
X38165709Y-16266399D01*
X38164602Y-16266005D01*
X38163357Y-16265491D01*
X37395049Y-15948224D01*
X37388712Y-15941901D01*
X37070922Y-15172323D01*
X37070931Y-15163369D01*
X37077270Y-15157044D01*
X37078356Y-15156657D01*
X37436774Y-15049249D01*
X37438900Y-15048823D01*
X37728851Y-15018203D01*
X37979639Y-14994432D01*
X38105179Y-14949164D01*
X38230718Y-14903898D01*
X38230718Y-14903897D01*
X38230720Y-14903897D01*
X38514469Y-14679334D01*
X38523081Y-14676888D01*
X38530001Y-14680236D01*
G37*
%TD.AperFunction*%
%TD*%
%TA.AperFunction,Conductor*%
%TO.N,/CHIP_PU*%
G36*
X25409311Y-1329490D02*
G01*
X25625084Y-1417935D01*
X25631440Y-1424244D01*
X25631473Y-1424324D01*
X25720029Y-1640368D01*
X25719996Y-1649322D01*
X25713640Y-1655631D01*
X25713367Y-1655739D01*
X25626302Y-1688891D01*
X25626302Y-1688892D01*
X25554305Y-1714080D01*
X25554301Y-1714081D01*
X25554303Y-1714081D01*
X25494704Y-1740622D01*
X25433594Y-1782113D01*
X25365358Y-1844579D01*
X25356942Y-1847638D01*
X25349185Y-1844222D01*
X25223408Y-1718445D01*
X25219981Y-1710172D01*
X25222863Y-1702483D01*
X25284734Y-1631570D01*
X25321499Y-1566478D01*
X25341961Y-1502371D01*
X25362050Y-1426408D01*
X25362190Y-1425957D01*
X25371072Y-1400828D01*
X25393842Y-1336415D01*
X25399830Y-1329759D01*
X25408772Y-1329285D01*
X25409311Y-1329490D01*
G37*
%TD.AperFunction*%
%TD*%
%TA.AperFunction,Conductor*%
%TO.N,/VDD_5V*%
G36*
X30461312Y-5815567D02*
G01*
X30520901Y-5868457D01*
X30583898Y-5924372D01*
X30583900Y-5924373D01*
X30583903Y-5924375D01*
X30688183Y-5993587D01*
X30688184Y-5993587D01*
X30688188Y-5993589D01*
X30783452Y-6047071D01*
X30783794Y-6047280D01*
X30887583Y-6116164D01*
X30888226Y-6116660D01*
X31009492Y-6224294D01*
X31013404Y-6232347D01*
X31010475Y-6240810D01*
X31010022Y-6241292D01*
X30771972Y-6480707D01*
X30532557Y-6718757D01*
X30524275Y-6722160D01*
X30516011Y-6718709D01*
X30515574Y-6718244D01*
X30407925Y-6596961D01*
X30407429Y-6596318D01*
X30338545Y-6492529D01*
X30338331Y-6492178D01*
X30284852Y-6396919D01*
X30284852Y-6396918D01*
X30215640Y-6292638D01*
X30215638Y-6292635D01*
X30215637Y-6292633D01*
X30154979Y-6224293D01*
X30106832Y-6170047D01*
X30103903Y-6161584D01*
X30107308Y-6154008D01*
X30445273Y-5816043D01*
X30453545Y-5812617D01*
X30461312Y-5815567D01*
G37*
%TD.AperFunction*%
%TD*%
%TA.AperFunction,Conductor*%
%TO.N,/VDD_3.3V*%
G36*
X27179112Y-4085996D02*
G01*
X27179262Y-4086339D01*
X27307668Y-4394043D01*
X27307691Y-4402998D01*
X27307668Y-4403055D01*
X27179253Y-4710779D01*
X27172904Y-4717094D01*
X27163949Y-4717071D01*
X27163626Y-4716930D01*
X27039262Y-4660581D01*
X26942609Y-4612519D01*
X26942605Y-4612517D01*
X26857045Y-4577926D01*
X26857040Y-4577924D01*
X26772698Y-4560644D01*
X26754987Y-4557016D01*
X26619977Y-4550534D01*
X26611878Y-4546714D01*
X26608838Y-4538847D01*
X26608838Y-4261129D01*
X26612265Y-4252856D01*
X26619952Y-4249445D01*
X26755113Y-4242697D01*
X26857116Y-4221099D01*
X26923139Y-4193722D01*
X26942561Y-4185670D01*
X27039152Y-4136880D01*
X27163617Y-4080196D01*
X27172564Y-4079887D01*
X27179112Y-4085996D01*
G37*
%TD.AperFunction*%
%TD*%
%TA.AperFunction,Conductor*%
%TO.N,/GPIO45*%
G36*
X71468695Y-9765417D02*
G01*
X71475004Y-9771773D01*
X71475159Y-9772171D01*
X71507822Y-9860973D01*
X71507921Y-9861267D01*
X71530863Y-9935553D01*
X71530863Y-9935554D01*
X71554728Y-9997684D01*
X71554730Y-9997687D01*
X71594266Y-10061076D01*
X71656883Y-10131048D01*
X71659846Y-10139497D01*
X71656437Y-10147122D01*
X71530669Y-10272890D01*
X71522396Y-10276317D01*
X71514595Y-10273336D01*
X71444623Y-10210719D01*
X71381234Y-10171183D01*
X71381231Y-10171181D01*
X71319101Y-10147316D01*
X71293131Y-10139296D01*
X71244814Y-10124374D01*
X71244520Y-10124275D01*
X71155718Y-10091612D01*
X71149136Y-10085540D01*
X71148776Y-10076592D01*
X71148916Y-10076230D01*
X71237436Y-9860275D01*
X71243743Y-9853921D01*
X71459742Y-9765384D01*
X71468695Y-9765417D01*
G37*
%TD.AperFunction*%
%TD*%
%TA.AperFunction,Conductor*%
%TO.N,/CHIP_PU*%
G36*
X21730337Y-5211226D02*
G01*
X21856116Y-5337005D01*
X21859543Y-5345278D01*
X21856330Y-5353331D01*
X21845181Y-5365081D01*
X21794039Y-5418975D01*
X21749572Y-5476549D01*
X21718989Y-5532209D01*
X21718983Y-5532222D01*
X21690473Y-5600440D01*
X21656625Y-5684735D01*
X21650363Y-5691135D01*
X21641408Y-5691232D01*
X21641331Y-5691201D01*
X21425089Y-5602564D01*
X21418733Y-5596255D01*
X21418700Y-5596175D01*
X21392486Y-5532222D01*
X21330345Y-5380620D01*
X21330378Y-5371668D01*
X21336734Y-5365359D01*
X21337467Y-5365087D01*
X21428265Y-5334935D01*
X21428960Y-5334750D01*
X21507441Y-5319058D01*
X21507440Y-5319057D01*
X21574477Y-5303861D01*
X21574477Y-5303860D01*
X21574479Y-5303860D01*
X21642119Y-5271348D01*
X21714541Y-5210538D01*
X21723080Y-5207843D01*
X21730337Y-5211226D01*
G37*
%TD.AperFunction*%
%TD*%
%TA.AperFunction,Conductor*%
%TO.N,/VDD_3.3V*%
G36*
X78799511Y89441D02*
G01*
X78996230Y-107278D01*
X78999657Y-115551D01*
X78996727Y-123296D01*
X78879107Y-256486D01*
X78810664Y-372005D01*
X78810663Y-372008D01*
X78770968Y-485521D01*
X78770968Y-485522D01*
X78732366Y-620776D01*
X78732245Y-621153D01*
X78671158Y-790695D01*
X78665130Y-797317D01*
X78656185Y-797736D01*
X78655696Y-797548D01*
X78255065Y-632563D01*
X78248720Y-626244D01*
X78083801Y-225773D01*
X78083820Y-216820D01*
X78090165Y-210501D01*
X78090834Y-210250D01*
X78264490Y-151216D01*
X78265045Y-151060D01*
X78405990Y-119570D01*
X78453249Y-107278D01*
X78525638Y-88450D01*
X78525639Y-88449D01*
X78525641Y-88449D01*
X78525643Y-88448D01*
X78646627Y-26618D01*
X78646628Y-26616D01*
X78646632Y-26615D01*
X78783652Y90077D01*
X78792172Y92831D01*
X78799511Y89441D01*
G37*
%TD.AperFunction*%
%TD*%
%TA.AperFunction,Conductor*%
%TO.N,/U0RXD*%
G36*
X69524160Y-9864996D02*
G01*
X69524332Y-9865387D01*
X69614427Y-10080646D01*
X69614460Y-10089600D01*
X69614427Y-10089680D01*
X69524332Y-10304938D01*
X69517976Y-10311247D01*
X69509022Y-10311214D01*
X69508658Y-10311054D01*
X69422747Y-10271349D01*
X69422469Y-10271211D01*
X69353710Y-10234900D01*
X69292900Y-10207842D01*
X69220122Y-10190976D01*
X69153522Y-10187281D01*
X69152931Y-10187217D01*
X69125188Y-10182824D01*
X69117553Y-10178145D01*
X69115318Y-10171268D01*
X69115318Y-9996231D01*
X69118745Y-9987958D01*
X69126367Y-9984550D01*
X69220122Y-9979349D01*
X69292900Y-9962482D01*
X69353710Y-9935425D01*
X69422480Y-9899107D01*
X69422722Y-9898987D01*
X69508633Y-9859282D01*
X69517578Y-9858923D01*
X69524160Y-9864996D01*
G37*
%TD.AperFunction*%
%TD*%
%TA.AperFunction,Conductor*%
%TO.N,/VDD_3.3V*%
G36*
X28984254Y-224458D02*
G01*
X29145667Y-292459D01*
X29270829Y-341496D01*
X29382587Y-371271D01*
X29514568Y-386024D01*
X29688952Y-389755D01*
X29697150Y-393358D01*
X29700402Y-401452D01*
X29700402Y-878494D01*
X29696975Y-886767D01*
X29688898Y-890192D01*
X29607904Y-891549D01*
X29514853Y-893108D01*
X29514842Y-893108D01*
X29514841Y-893109D01*
X29382744Y-905781D01*
X29270729Y-933038D01*
X29270710Y-933044D01*
X29145417Y-979910D01*
X28984268Y-1046919D01*
X28975313Y-1046932D01*
X28968976Y-1040616D01*
X28943685Y-979910D01*
X28802138Y-640161D01*
X28802120Y-631210D01*
X28968956Y-230757D01*
X28975300Y-224440D01*
X28984254Y-224458D01*
G37*
%TD.AperFunction*%
%TD*%
%TA.AperFunction,Conductor*%
%TO.N,/U0TXD*%
G36*
X69018052Y-10314996D02*
G01*
X69018224Y-10315387D01*
X69108319Y-10530645D01*
X69108352Y-10539599D01*
X69108319Y-10539679D01*
X69018224Y-10754938D01*
X69011868Y-10761247D01*
X69002914Y-10761214D01*
X69002550Y-10761054D01*
X68916639Y-10721349D01*
X68916361Y-10721211D01*
X68847602Y-10684900D01*
X68786792Y-10657842D01*
X68714014Y-10640976D01*
X68620262Y-10635776D01*
X68612191Y-10631896D01*
X68609210Y-10624094D01*
X68609210Y-10446231D01*
X68612637Y-10437958D01*
X68620259Y-10434550D01*
X68714014Y-10429349D01*
X68786792Y-10412482D01*
X68847602Y-10385425D01*
X68916372Y-10349107D01*
X68916614Y-10348987D01*
X69002525Y-10309282D01*
X69011470Y-10308923D01*
X69018052Y-10314996D01*
G37*
%TD.AperFunction*%
%TD*%
%TA.AperFunction,Conductor*%
%TO.N,/VDD_3.3V*%
G36*
X79483436Y-14644155D02*
G01*
X79761509Y-14869677D01*
X80005374Y-14969408D01*
X80248238Y-15005343D01*
X80530568Y-15045983D01*
X80532394Y-15046397D01*
X80884348Y-15156547D01*
X80891220Y-15162289D01*
X80892019Y-15171208D01*
X80891667Y-15172179D01*
X80573827Y-15941877D01*
X80567502Y-15948216D01*
X80567479Y-15948225D01*
X79797781Y-16266065D01*
X79788826Y-16266056D01*
X79782501Y-16259717D01*
X79782149Y-16258746D01*
X79672000Y-15906793D01*
X79671585Y-15904965D01*
X79630945Y-15622636D01*
X79595010Y-15379774D01*
X79595009Y-15379770D01*
X79495280Y-15135909D01*
X79495279Y-15135908D01*
X79495279Y-15135907D01*
X79269757Y-14857834D01*
X79267208Y-14849252D01*
X79270571Y-14842194D01*
X79467796Y-14644969D01*
X79476068Y-14641543D01*
X79483436Y-14644155D01*
G37*
%TD.AperFunction*%
%TD*%
%TA.AperFunction,Conductor*%
%TO.N,/DTR*%
G36*
X6709399Y-707489D02*
G01*
X6775644Y-769815D01*
X6834040Y-813587D01*
X6890619Y-843233D01*
X6890629Y-843237D01*
X6890634Y-843240D01*
X6959741Y-870983D01*
X7044669Y-904666D01*
X7051096Y-910902D01*
X7051232Y-919855D01*
X7051182Y-919979D01*
X6962564Y-1136175D01*
X6956255Y-1142531D01*
X6956175Y-1142564D01*
X6740570Y-1230940D01*
X6731616Y-1230907D01*
X6725307Y-1224551D01*
X6725051Y-1223865D01*
X6694552Y-1133365D01*
X6694380Y-1132742D01*
X6677657Y-1054833D01*
X6661227Y-988467D01*
X6661226Y-988467D01*
X6627725Y-921416D01*
X6585000Y-870983D01*
X6566675Y-849352D01*
X6563943Y-840826D01*
X6567329Y-833519D01*
X6693111Y-707737D01*
X6701383Y-704311D01*
X6709399Y-707489D01*
G37*
%TD.AperFunction*%
%TD*%
%TA.AperFunction,Conductor*%
%TO.N,/VDD_3.3V*%
G36*
X23620761Y-753776D02*
G01*
X23725619Y-797462D01*
X23731938Y-803807D01*
X23731919Y-812762D01*
X23731664Y-813331D01*
X23652554Y-977915D01*
X23652315Y-978362D01*
X23614371Y-1042428D01*
X23579423Y-1101436D01*
X23545564Y-1165300D01*
X23522113Y-1209534D01*
X23522111Y-1209539D01*
X23484670Y-1339903D01*
X23484670Y-1339906D01*
X23472032Y-1519123D01*
X23468032Y-1527135D01*
X23460361Y-1530000D01*
X23182169Y-1530000D01*
X23173896Y-1526573D01*
X23170498Y-1519123D01*
X23169338Y-1502676D01*
X23157859Y-1339908D01*
X23120418Y-1209539D01*
X23063105Y-1101436D01*
X22990206Y-978350D01*
X22989974Y-977916D01*
X22910865Y-813331D01*
X22910369Y-804389D01*
X22916341Y-797717D01*
X22916900Y-797466D01*
X23316766Y-630873D01*
X23325717Y-630855D01*
X23620761Y-753776D01*
G37*
%TD.AperFunction*%
%TD*%
%TA.AperFunction,Conductor*%
%TO.N,/VDD_3.3V*%
G36*
X29240251Y-8203883D02*
G01*
X29245274Y-8205985D01*
X29251583Y-8212341D01*
X29251550Y-8221295D01*
X29251378Y-8221687D01*
X29211682Y-8307575D01*
X29211544Y-8307853D01*
X29175237Y-8376607D01*
X29148179Y-8437416D01*
X29131313Y-8510194D01*
X29126113Y-8603948D01*
X29122233Y-8612019D01*
X29114431Y-8615000D01*
X28936569Y-8615000D01*
X28928296Y-8611573D01*
X28924887Y-8603948D01*
X28924372Y-8594677D01*
X28919686Y-8510195D01*
X28902819Y-8437416D01*
X28875762Y-8376607D01*
X28839450Y-8307846D01*
X28839317Y-8307578D01*
X28799619Y-8221684D01*
X28799260Y-8212739D01*
X28805332Y-8206157D01*
X28805683Y-8206002D01*
X29020984Y-8115889D01*
X29029937Y-8115857D01*
X29240251Y-8203883D01*
G37*
%TD.AperFunction*%
%TD*%
%TA.AperFunction,Conductor*%
%TO.N,Net-(J1-Pin_2)*%
G36*
X13971582Y-8120118D02*
G01*
X14187440Y-8208598D01*
X14193796Y-8214907D01*
X14193829Y-8214987D01*
X14282358Y-8430965D01*
X14282325Y-8439919D01*
X14275969Y-8446228D01*
X14275630Y-8446361D01*
X14187596Y-8479284D01*
X14114321Y-8503333D01*
X14114320Y-8503333D01*
X14053406Y-8528484D01*
X14053402Y-8528486D01*
X13991106Y-8568961D01*
X13921971Y-8631501D01*
X13913537Y-8634509D01*
X13905849Y-8631097D01*
X13780077Y-8505325D01*
X13776650Y-8497052D01*
X13779583Y-8489305D01*
X13841836Y-8418886D01*
X13880043Y-8354675D01*
X13902279Y-8291590D01*
X13923862Y-8216464D01*
X13923965Y-8216147D01*
X13956150Y-8126974D01*
X13962181Y-8120358D01*
X13971126Y-8119943D01*
X13971582Y-8120118D01*
G37*
%TD.AperFunction*%
%TD*%
%TA.AperFunction,Conductor*%
%TO.N,Net-(USB1-CC1)*%
G36*
X14966414Y-1459090D02*
G01*
X14969823Y-1466715D01*
X14975023Y-1560467D01*
X14991889Y-1633245D01*
X15018947Y-1694055D01*
X15055258Y-1762814D01*
X15055396Y-1763092D01*
X15095089Y-1848976D01*
X15095449Y-1857923D01*
X15089377Y-1864505D01*
X15088985Y-1864677D01*
X14873727Y-1954772D01*
X14864773Y-1954805D01*
X14864693Y-1954772D01*
X14649434Y-1864677D01*
X14643125Y-1858321D01*
X14643158Y-1849367D01*
X14643308Y-1849025D01*
X14683034Y-1763067D01*
X14683160Y-1762814D01*
X14719472Y-1694055D01*
X14746529Y-1633245D01*
X14746528Y-1633244D01*
X14763396Y-1560467D01*
X14768596Y-1466715D01*
X14772477Y-1458644D01*
X14780279Y-1455663D01*
X14958141Y-1455663D01*
X14966414Y-1459090D01*
G37*
%TD.AperFunction*%
%TD*%
%TA.AperFunction,Conductor*%
%TO.N,/CHIP_PU*%
G36*
X32236016Y-1488883D02*
G01*
X32241039Y-1490985D01*
X32247348Y-1497341D01*
X32247315Y-1506295D01*
X32247143Y-1506687D01*
X32207447Y-1592575D01*
X32207309Y-1592853D01*
X32171002Y-1661607D01*
X32143944Y-1722416D01*
X32127078Y-1795194D01*
X32121878Y-1888948D01*
X32117998Y-1897019D01*
X32110196Y-1900000D01*
X31932334Y-1900000D01*
X31924061Y-1896573D01*
X31920652Y-1888948D01*
X31920137Y-1879677D01*
X31915451Y-1795195D01*
X31898584Y-1722416D01*
X31871527Y-1661607D01*
X31835215Y-1592846D01*
X31835082Y-1592578D01*
X31795384Y-1506684D01*
X31795025Y-1497739D01*
X31801097Y-1491157D01*
X31801448Y-1491002D01*
X32016749Y-1400889D01*
X32025702Y-1400857D01*
X32236016Y-1488883D01*
G37*
%TD.AperFunction*%
%TD*%
%TA.AperFunction,Conductor*%
%TO.N,/SPIQ{slash}GPIO31*%
G36*
X41070001Y-14680236D02*
G01*
X41196691Y-14806926D01*
X41200118Y-14815199D01*
X41197592Y-14822460D01*
X40973028Y-15106208D01*
X40882495Y-15357284D01*
X40858723Y-15608075D01*
X40828102Y-15898024D01*
X40827675Y-15900154D01*
X40720276Y-16258550D01*
X40714618Y-16265491D01*
X40705709Y-16266399D01*
X40704602Y-16266005D01*
X40703357Y-16265491D01*
X39935049Y-15948224D01*
X39928712Y-15941901D01*
X39610922Y-15172323D01*
X39610931Y-15163369D01*
X39617270Y-15157044D01*
X39618356Y-15156657D01*
X39976774Y-15049249D01*
X39978900Y-15048823D01*
X40268851Y-15018203D01*
X40519639Y-14994432D01*
X40645179Y-14949164D01*
X40770718Y-14903898D01*
X40770718Y-14903897D01*
X40770720Y-14903897D01*
X41054469Y-14679334D01*
X41063081Y-14676888D01*
X41070001Y-14680236D01*
G37*
%TD.AperFunction*%
%TD*%
%TA.AperFunction,Conductor*%
%TO.N,/CHIP_PU*%
G36*
X38885505Y-2419611D02*
G01*
X38885845Y-2419760D01*
X38971788Y-2459480D01*
X38972056Y-2459613D01*
X39040817Y-2495925D01*
X39101626Y-2522982D01*
X39174405Y-2539849D01*
X39268160Y-2545050D01*
X39276229Y-2548929D01*
X39279210Y-2556731D01*
X39279210Y-2734594D01*
X39275783Y-2742867D01*
X39268158Y-2746276D01*
X39174404Y-2751476D01*
X39101626Y-2768342D01*
X39040817Y-2795400D01*
X38972063Y-2831707D01*
X38971785Y-2831845D01*
X38885897Y-2871541D01*
X38876949Y-2871901D01*
X38870367Y-2865829D01*
X38870195Y-2865437D01*
X38829557Y-2768343D01*
X38780099Y-2650178D01*
X38780067Y-2641225D01*
X38870196Y-2425885D01*
X38876551Y-2419578D01*
X38885505Y-2419611D01*
G37*
%TD.AperFunction*%
%TD*%
%TA.AperFunction,Conductor*%
%TO.N,/VDD_3.3V*%
G36*
X62018396Y-1373427D02*
G01*
X62021809Y-1381128D01*
X62028418Y-1516276D01*
X62028418Y-1516280D01*
X62037434Y-1559602D01*
X62049663Y-1618367D01*
X62084665Y-1703916D01*
X62133094Y-1800592D01*
X62133095Y-1800593D01*
X62189632Y-1925072D01*
X62189933Y-1934021D01*
X62183817Y-1940563D01*
X62183485Y-1940708D01*
X61875771Y-2069119D01*
X61866816Y-2069142D01*
X61866759Y-2069119D01*
X61559044Y-1940708D01*
X61552729Y-1934359D01*
X61552752Y-1925404D01*
X61552872Y-1925129D01*
X61609434Y-1800593D01*
X61657864Y-1703916D01*
X61692866Y-1618367D01*
X61714110Y-1516282D01*
X61720720Y-1381128D01*
X61724548Y-1373033D01*
X61732407Y-1370000D01*
X62010123Y-1370000D01*
X62018396Y-1373427D01*
G37*
%TD.AperFunction*%
%TD*%
%TA.AperFunction,Conductor*%
%TO.N,/U0TXD*%
G36*
X7511503Y1984671D02*
G01*
X7517828Y1978332D01*
X7518222Y1977225D01*
X7625620Y1618830D01*
X7626047Y1616700D01*
X7656668Y1326751D01*
X7680440Y1075961D01*
X7770973Y824884D01*
X7995537Y541135D01*
X7997984Y532521D01*
X7994636Y525601D01*
X7867946Y398911D01*
X7859673Y395484D01*
X7852412Y398010D01*
X7568663Y622574D01*
X7317584Y713107D01*
X7317587Y713107D01*
X7066796Y736879D01*
X6776847Y767500D01*
X6774717Y767927D01*
X6501458Y849813D01*
X6416321Y875326D01*
X6409381Y880983D01*
X6408473Y889892D01*
X6408862Y890986D01*
X6726648Y1660554D01*
X6732969Y1666889D01*
X7502549Y1984680D01*
X7511503Y1984671D01*
G37*
%TD.AperFunction*%
%TD*%
%TA.AperFunction,Conductor*%
%TO.N,/VDD_3.3V*%
G36*
X70114478Y-3380868D02*
G01*
X70422220Y-3509291D01*
X70428535Y-3515640D01*
X70428512Y-3524595D01*
X70428367Y-3524927D01*
X70371830Y-3649406D01*
X70323400Y-3746083D01*
X70288398Y-3831632D01*
X70279382Y-3874952D01*
X70267153Y-3933717D01*
X70267153Y-3933722D01*
X70260544Y-4068871D01*
X70256717Y-4076967D01*
X70248858Y-4080000D01*
X69971142Y-4080000D01*
X69962869Y-4076573D01*
X69959456Y-4068872D01*
X69952845Y-3933721D01*
X69952845Y-3933717D01*
X69952845Y-3933716D01*
X69931601Y-3831632D01*
X69896599Y-3746083D01*
X69848169Y-3649406D01*
X69791631Y-3524925D01*
X69791331Y-3515978D01*
X69797447Y-3509436D01*
X69797754Y-3509301D01*
X70105494Y-3380879D01*
X70114449Y-3380857D01*
X70114478Y-3380868D01*
G37*
%TD.AperFunction*%
%TD*%
%TA.AperFunction,Conductor*%
%TO.N,/VDD_3.3V*%
G36*
X79797771Y1984744D02*
G01*
X80567480Y1666899D01*
X80573817Y1660576D01*
X80573827Y1660552D01*
X80891667Y890854D01*
X80891658Y881899D01*
X80885319Y875574D01*
X80884347Y875222D01*
X80532394Y765075D01*
X80530567Y764660D01*
X80248238Y724019D01*
X80005376Y688085D01*
X80005372Y688084D01*
X79761510Y588354D01*
X79761508Y588353D01*
X79483438Y362831D01*
X79474854Y360281D01*
X79467795Y363645D01*
X79270572Y560868D01*
X79267145Y569141D01*
X79269756Y576508D01*
X79495279Y854583D01*
X79595010Y1098448D01*
X79630945Y1341312D01*
X79671585Y1623646D01*
X79672000Y1625470D01*
X79682987Y1660575D01*
X79782150Y1977423D01*
X79787891Y1984293D01*
X79796810Y1985092D01*
X79797771Y1984744D01*
G37*
%TD.AperFunction*%
%TD*%
%TA.AperFunction,Conductor*%
%TO.N,/GPIO45*%
G36*
X74258842Y-13590333D02*
G01*
X74259014Y-13590724D01*
X74349109Y-13805982D01*
X74349142Y-13814936D01*
X74349109Y-13815016D01*
X74259014Y-14030275D01*
X74252658Y-14036584D01*
X74243704Y-14036551D01*
X74243340Y-14036391D01*
X74157429Y-13996686D01*
X74157151Y-13996548D01*
X74088392Y-13960237D01*
X74027582Y-13933179D01*
X73954804Y-13916313D01*
X73861052Y-13911113D01*
X73852981Y-13907233D01*
X73850000Y-13899431D01*
X73850000Y-13721568D01*
X73853427Y-13713295D01*
X73861049Y-13709887D01*
X73954804Y-13704686D01*
X74027582Y-13687819D01*
X74088392Y-13660762D01*
X74157162Y-13624444D01*
X74157404Y-13624324D01*
X74243315Y-13584619D01*
X74252260Y-13584260D01*
X74258842Y-13590333D01*
G37*
%TD.AperFunction*%
%TD*%
%TA.AperFunction,Conductor*%
%TO.N,/U0TXD*%
G36*
X25155505Y-7329111D02*
G01*
X25155845Y-7329260D01*
X25241788Y-7368980D01*
X25242056Y-7369113D01*
X25310817Y-7405425D01*
X25371626Y-7432482D01*
X25444405Y-7449349D01*
X25538158Y-7454549D01*
X25546228Y-7458429D01*
X25549209Y-7466231D01*
X25549209Y-7644094D01*
X25545782Y-7652367D01*
X25538157Y-7655776D01*
X25444404Y-7660976D01*
X25371626Y-7677842D01*
X25310817Y-7704900D01*
X25242063Y-7741207D01*
X25241785Y-7741345D01*
X25155897Y-7781041D01*
X25146949Y-7781401D01*
X25140367Y-7775329D01*
X25140195Y-7774937D01*
X25126110Y-7741284D01*
X25050099Y-7559678D01*
X25050067Y-7550726D01*
X25140196Y-7335385D01*
X25146551Y-7329078D01*
X25155505Y-7329111D01*
G37*
%TD.AperFunction*%
%TD*%
%TA.AperFunction,Conductor*%
%TO.N,/GPIO41*%
G36*
X69339144Y-11651556D02*
G01*
X69345453Y-11657912D01*
X69345608Y-11658310D01*
X69378271Y-11747112D01*
X69378370Y-11747406D01*
X69401312Y-11821692D01*
X69401312Y-11821693D01*
X69425177Y-11883823D01*
X69425179Y-11883826D01*
X69464715Y-11947215D01*
X69527332Y-12017187D01*
X69530295Y-12025636D01*
X69526886Y-12033261D01*
X69401118Y-12159029D01*
X69392845Y-12162456D01*
X69385044Y-12159475D01*
X69315072Y-12096858D01*
X69251683Y-12057322D01*
X69251680Y-12057320D01*
X69189550Y-12033455D01*
X69163580Y-12025435D01*
X69115263Y-12010513D01*
X69114969Y-12010414D01*
X69026167Y-11977751D01*
X69019585Y-11971679D01*
X69019225Y-11962731D01*
X69019365Y-11962369D01*
X69107885Y-11746414D01*
X69114192Y-11740060D01*
X69330191Y-11651523D01*
X69339144Y-11651556D01*
G37*
%TD.AperFunction*%
%TD*%
%TA.AperFunction,Conductor*%
%TO.N,/U0RXD*%
G36*
X24359451Y-7014587D02*
G01*
X24575385Y-7103098D01*
X24581741Y-7109407D01*
X24581774Y-7109487D01*
X24670278Y-7325404D01*
X24670245Y-7334358D01*
X24663889Y-7340667D01*
X24663491Y-7340822D01*
X24574687Y-7373485D01*
X24574393Y-7373584D01*
X24512490Y-7392702D01*
X24500108Y-7396526D01*
X24437976Y-7420391D01*
X24437973Y-7420393D01*
X24374587Y-7459928D01*
X24304614Y-7522545D01*
X24296164Y-7525508D01*
X24288539Y-7522099D01*
X24162772Y-7396332D01*
X24159345Y-7388059D01*
X24162324Y-7380260D01*
X24224942Y-7310286D01*
X24264478Y-7246897D01*
X24288345Y-7184767D01*
X24311287Y-7110472D01*
X24311385Y-7110183D01*
X24311641Y-7109487D01*
X24344050Y-7021379D01*
X24350123Y-7014799D01*
X24359070Y-7014439D01*
X24359451Y-7014587D01*
G37*
%TD.AperFunction*%
%TD*%
%TA.AperFunction,Conductor*%
%TO.N,/SPICS0{slash}GPIO29*%
G36*
X39911506Y-10558924D02*
G01*
X40127440Y-10647435D01*
X40133796Y-10653744D01*
X40133829Y-10653824D01*
X40222333Y-10869741D01*
X40222300Y-10878695D01*
X40215944Y-10885004D01*
X40215546Y-10885159D01*
X40126742Y-10917822D01*
X40126448Y-10917921D01*
X40064545Y-10937039D01*
X40052163Y-10940863D01*
X39990031Y-10964728D01*
X39990028Y-10964730D01*
X39926642Y-11004265D01*
X39856669Y-11066882D01*
X39848219Y-11069845D01*
X39840594Y-11066436D01*
X39714827Y-10940669D01*
X39711400Y-10932396D01*
X39714379Y-10924597D01*
X39776997Y-10854623D01*
X39816533Y-10791234D01*
X39840400Y-10729104D01*
X39863342Y-10654809D01*
X39863440Y-10654520D01*
X39863696Y-10653824D01*
X39896105Y-10565716D01*
X39902178Y-10559136D01*
X39911125Y-10558776D01*
X39911506Y-10558924D01*
G37*
%TD.AperFunction*%
%TD*%
%TA.AperFunction,Conductor*%
%TO.N,/SPIQ{slash}GPIO31*%
G36*
X43006016Y-12548883D02*
G01*
X43011039Y-12550985D01*
X43017348Y-12557341D01*
X43017315Y-12566295D01*
X43017143Y-12566687D01*
X42977447Y-12652575D01*
X42977309Y-12652853D01*
X42941002Y-12721607D01*
X42913944Y-12782416D01*
X42897078Y-12855194D01*
X42891878Y-12948948D01*
X42887998Y-12957019D01*
X42880196Y-12960000D01*
X42702334Y-12960000D01*
X42694061Y-12956573D01*
X42690652Y-12948948D01*
X42690137Y-12939677D01*
X42685451Y-12855195D01*
X42668584Y-12782416D01*
X42641527Y-12721607D01*
X42605215Y-12652846D01*
X42605082Y-12652578D01*
X42565384Y-12566684D01*
X42565025Y-12557739D01*
X42571097Y-12551157D01*
X42571448Y-12551002D01*
X42786749Y-12460889D01*
X42795702Y-12460857D01*
X43006016Y-12548883D01*
G37*
%TD.AperFunction*%
%TD*%
%TA.AperFunction,Conductor*%
%TO.N,/GPIO20{slash}ESP32_USB_D+*%
G36*
X27235749Y1663474D02*
G01*
X28004614Y1344021D01*
X28010939Y1337682D01*
X28010930Y1328727D01*
X28010425Y1327666D01*
X27832946Y998304D01*
X27831742Y996495D01*
X27648367Y769815D01*
X27487840Y575670D01*
X27487839Y575668D01*
X27374319Y334112D01*
X27332470Y-25316D01*
X27328110Y-33137D01*
X27320849Y-35663D01*
X27141681Y-35663D01*
X27133408Y-32236D01*
X27130060Y-25316D01*
X27088209Y334112D01*
X27088210Y334112D01*
X26974688Y575668D01*
X26974687Y575670D01*
X26974686Y575671D01*
X26974686Y575672D01*
X26814161Y769815D01*
X26630786Y996495D01*
X26629582Y998304D01*
X26452103Y1327668D01*
X26451196Y1336575D01*
X26456854Y1343516D01*
X26457902Y1344015D01*
X27226776Y1663473D01*
X27235731Y1663481D01*
X27235749Y1663474D01*
G37*
%TD.AperFunction*%
%TD*%
%TA.AperFunction,Conductor*%
%TO.N,/SPID{slash}GPIO32*%
G36*
X53891506Y-11098924D02*
G01*
X54107440Y-11187435D01*
X54113796Y-11193744D01*
X54113829Y-11193824D01*
X54202333Y-11409741D01*
X54202300Y-11418695D01*
X54195944Y-11425004D01*
X54195546Y-11425159D01*
X54106742Y-11457822D01*
X54106448Y-11457921D01*
X54044545Y-11477039D01*
X54032163Y-11480863D01*
X53970031Y-11504728D01*
X53970028Y-11504730D01*
X53906642Y-11544265D01*
X53836669Y-11606882D01*
X53828219Y-11609845D01*
X53820594Y-11606436D01*
X53694827Y-11480669D01*
X53691400Y-11472396D01*
X53694379Y-11464597D01*
X53756997Y-11394623D01*
X53796533Y-11331234D01*
X53820400Y-11269104D01*
X53843342Y-11194809D01*
X53843440Y-11194520D01*
X53843696Y-11193824D01*
X53876105Y-11105716D01*
X53882178Y-11099136D01*
X53891125Y-11098776D01*
X53891506Y-11098924D01*
G37*
%TD.AperFunction*%
%TD*%
%TA.AperFunction,Conductor*%
%TO.N,/SPICS0{slash}GPIO29*%
G36*
X35990001Y-14680236D02*
G01*
X36116691Y-14806926D01*
X36120118Y-14815199D01*
X36117592Y-14822460D01*
X35893028Y-15106208D01*
X35802495Y-15357284D01*
X35778723Y-15608075D01*
X35748102Y-15898024D01*
X35747675Y-15900154D01*
X35640276Y-16258550D01*
X35634618Y-16265491D01*
X35625709Y-16266399D01*
X35624602Y-16266005D01*
X35623357Y-16265491D01*
X34855049Y-15948224D01*
X34848712Y-15941901D01*
X34530922Y-15172323D01*
X34530931Y-15163369D01*
X34537270Y-15157044D01*
X34538356Y-15156657D01*
X34896774Y-15049249D01*
X34898900Y-15048823D01*
X35188851Y-15018203D01*
X35439639Y-14994432D01*
X35565179Y-14949164D01*
X35690718Y-14903898D01*
X35690718Y-14903897D01*
X35690720Y-14903897D01*
X35974469Y-14679334D01*
X35983081Y-14676888D01*
X35990001Y-14680236D01*
G37*
%TD.AperFunction*%
%TD*%
%TA.AperFunction,Conductor*%
%TO.N,/GPIO0*%
G36*
X37717601Y-3783851D02*
G01*
X37717848Y-3783958D01*
X37803137Y-3822479D01*
X37871901Y-3856339D01*
X37932797Y-3880570D01*
X38005398Y-3895136D01*
X38098124Y-3899477D01*
X38106227Y-3903287D01*
X38109276Y-3911164D01*
X38109276Y-4089037D01*
X38105849Y-4097310D01*
X38098337Y-4100712D01*
X38004489Y-4106828D01*
X38004482Y-4106829D01*
X37932286Y-4126126D01*
X37872252Y-4156104D01*
X37872244Y-4156108D01*
X37839171Y-4174930D01*
X37804132Y-4194873D01*
X37803745Y-4195074D01*
X37718009Y-4235720D01*
X37709065Y-4236168D01*
X37702425Y-4230160D01*
X37702204Y-4229665D01*
X37687726Y-4195074D01*
X37612154Y-4014515D01*
X37612122Y-4005562D01*
X37702291Y-3790126D01*
X37708647Y-3783818D01*
X37717601Y-3783851D01*
G37*
%TD.AperFunction*%
%TD*%
%TA.AperFunction,Conductor*%
%TO.N,/GPIO42*%
G36*
X69349998Y-11043462D02*
G01*
X69356307Y-11049818D01*
X69356417Y-11050099D01*
X69389535Y-11137317D01*
X69414545Y-11209514D01*
X69440872Y-11269327D01*
X69482202Y-11330619D01*
X69544678Y-11398997D01*
X69547728Y-11407416D01*
X69544313Y-11415162D01*
X69418537Y-11540938D01*
X69410264Y-11544365D01*
X69402557Y-11541467D01*
X69402065Y-11541037D01*
X69399348Y-11537546D01*
X69397544Y-11534005D01*
X69319036Y-11455497D01*
X69220108Y-11405091D01*
X69110449Y-11387723D01*
X69110448Y-11387723D01*
X69097957Y-11389700D01*
X69092217Y-11389171D01*
X69037086Y-11369619D01*
X69030434Y-11363624D01*
X69029970Y-11354681D01*
X69030159Y-11354185D01*
X69118622Y-11138368D01*
X69124929Y-11132014D01*
X69341045Y-11043429D01*
X69349998Y-11043462D01*
G37*
%TD.AperFunction*%
%TD*%
%TA.AperFunction,Conductor*%
%TO.N,/VDD_5V*%
G36*
X8454639Y-4900532D02*
G01*
X8460958Y-4906877D01*
X8460939Y-4915832D01*
X8460932Y-4915848D01*
X8393374Y-5077305D01*
X8345411Y-5202695D01*
X8316918Y-5314724D01*
X8303236Y-5446927D01*
X8299928Y-5621353D01*
X8296345Y-5629560D01*
X8288230Y-5632831D01*
X7811190Y-5632831D01*
X7802917Y-5629404D01*
X7799492Y-5621353D01*
X7796183Y-5446927D01*
X7782500Y-5314724D01*
X7754006Y-5202695D01*
X7754005Y-5202691D01*
X7706045Y-5077305D01*
X7638487Y-4915848D01*
X7638455Y-4906893D01*
X7644763Y-4900539D01*
X8045211Y-4733704D01*
X8054162Y-4733686D01*
X8454639Y-4900532D01*
G37*
%TD.AperFunction*%
%TD*%
%TA.AperFunction,Conductor*%
%TO.N,Net-(USB1-CC1)*%
G36*
X10805505Y-309611D02*
G01*
X10805845Y-309760D01*
X10891788Y-349480D01*
X10892056Y-349613D01*
X10960817Y-385925D01*
X11021626Y-412982D01*
X11094405Y-429849D01*
X11188158Y-435049D01*
X11196228Y-438929D01*
X11199209Y-446731D01*
X11199209Y-624594D01*
X11195782Y-632867D01*
X11188157Y-636276D01*
X11094404Y-641476D01*
X11021626Y-658342D01*
X10960817Y-685400D01*
X10892063Y-721707D01*
X10891785Y-721845D01*
X10805897Y-761541D01*
X10796949Y-761901D01*
X10790367Y-755829D01*
X10790195Y-755437D01*
X10776110Y-721784D01*
X10700099Y-540178D01*
X10700067Y-531226D01*
X10790196Y-315885D01*
X10796551Y-309578D01*
X10805505Y-309611D01*
G37*
%TD.AperFunction*%
%TD*%
%TA.AperFunction,Conductor*%
%TO.N,/VDD_3.3V*%
G36*
X23603436Y-14644155D02*
G01*
X23881509Y-14869677D01*
X24125374Y-14969408D01*
X24368238Y-15005343D01*
X24650568Y-15045983D01*
X24652394Y-15046397D01*
X25004348Y-15156547D01*
X25011220Y-15162289D01*
X25012019Y-15171208D01*
X25011667Y-15172179D01*
X24693827Y-15941877D01*
X24687502Y-15948216D01*
X24687479Y-15948225D01*
X23917781Y-16266065D01*
X23908826Y-16266056D01*
X23902501Y-16259717D01*
X23902149Y-16258746D01*
X23792000Y-15906793D01*
X23791585Y-15904965D01*
X23750945Y-15622636D01*
X23715010Y-15379774D01*
X23715009Y-15379770D01*
X23615280Y-15135909D01*
X23615279Y-15135908D01*
X23615279Y-15135907D01*
X23389757Y-14857834D01*
X23387208Y-14849252D01*
X23390571Y-14842194D01*
X23587796Y-14644969D01*
X23596068Y-14641543D01*
X23603436Y-14644155D01*
G37*
%TD.AperFunction*%
%TD*%
%TA.AperFunction,Conductor*%
%TO.N,/DTR*%
G36*
X15678949Y-10623691D02*
G01*
X15685258Y-10630047D01*
X15685425Y-10630478D01*
X15717848Y-10719443D01*
X15717958Y-10719774D01*
X15740235Y-10794461D01*
X15763307Y-10857058D01*
X15802195Y-10920848D01*
X15802199Y-10920853D01*
X15802201Y-10920855D01*
X15822614Y-10943802D01*
X15857223Y-10982707D01*
X15864633Y-10991036D01*
X15867571Y-10999494D01*
X15864164Y-11007085D01*
X15738394Y-11132855D01*
X15730121Y-11136282D01*
X15722296Y-11133280D01*
X15652730Y-11070700D01*
X15605591Y-11040707D01*
X15589877Y-11030709D01*
X15552465Y-11015818D01*
X15528340Y-11006215D01*
X15454592Y-10982748D01*
X15454332Y-10982659D01*
X15365964Y-10949891D01*
X15359399Y-10943802D01*
X15359062Y-10934853D01*
X15359206Y-10934484D01*
X15447723Y-10718535D01*
X15454030Y-10712181D01*
X15669995Y-10623658D01*
X15678949Y-10623691D01*
G37*
%TD.AperFunction*%
%TD*%
%TA.AperFunction,Conductor*%
%TO.N,/U0RXD*%
G36*
X24685505Y-6879611D02*
G01*
X24685845Y-6879760D01*
X24771788Y-6919480D01*
X24772056Y-6919613D01*
X24840817Y-6955925D01*
X24901626Y-6982982D01*
X24974405Y-6999849D01*
X25068160Y-7005050D01*
X25076229Y-7008929D01*
X25079210Y-7016731D01*
X25079209Y-7191346D01*
X25075782Y-7199619D01*
X25067509Y-7203046D01*
X25065679Y-7202902D01*
X25049210Y-7200294D01*
X24981172Y-7211068D01*
X24980583Y-7211131D01*
X24974403Y-7211476D01*
X24965527Y-7213533D01*
X24965122Y-7213612D01*
X24939551Y-7217662D01*
X24939546Y-7217664D01*
X24934013Y-7220482D01*
X24931346Y-7221454D01*
X24901626Y-7228342D01*
X24840817Y-7255400D01*
X24772063Y-7291707D01*
X24771785Y-7291845D01*
X24685897Y-7331541D01*
X24676949Y-7331901D01*
X24670367Y-7325829D01*
X24670195Y-7325437D01*
X24656110Y-7291784D01*
X24580099Y-7110178D01*
X24580067Y-7101226D01*
X24670196Y-6885885D01*
X24676551Y-6879578D01*
X24685505Y-6879611D01*
G37*
%TD.AperFunction*%
%TD*%
%TA.AperFunction,Conductor*%
%TO.N,/CHIP_PU*%
G36*
X71662886Y-2425496D02*
G01*
X71663058Y-2425887D01*
X71753153Y-2641145D01*
X71753186Y-2650099D01*
X71753153Y-2650179D01*
X71663058Y-2865438D01*
X71656702Y-2871747D01*
X71647748Y-2871714D01*
X71647384Y-2871554D01*
X71561473Y-2831849D01*
X71561195Y-2831711D01*
X71492436Y-2795400D01*
X71431626Y-2768342D01*
X71358848Y-2751476D01*
X71265096Y-2746276D01*
X71257025Y-2742396D01*
X71254044Y-2734594D01*
X71254044Y-2556731D01*
X71257471Y-2548458D01*
X71265093Y-2545050D01*
X71358848Y-2539849D01*
X71431626Y-2522982D01*
X71492436Y-2495925D01*
X71561206Y-2459607D01*
X71561448Y-2459487D01*
X71647359Y-2419782D01*
X71656304Y-2419423D01*
X71662886Y-2425496D01*
G37*
%TD.AperFunction*%
%TD*%
%TA.AperFunction,Conductor*%
%TO.N,/VDD_3.3V*%
G36*
X14893688Y-7396531D02*
G01*
X15135033Y-7497246D01*
X15201444Y-7524960D01*
X15207759Y-7531309D01*
X15207736Y-7540264D01*
X15207597Y-7540583D01*
X15151327Y-7664898D01*
X15103415Y-7761547D01*
X15068992Y-7847116D01*
X15048224Y-7949156D01*
X15041796Y-8084111D01*
X15037979Y-8092211D01*
X15030109Y-8095254D01*
X14752391Y-8095254D01*
X14744118Y-8091827D01*
X14740706Y-8084142D01*
X14733900Y-7948986D01*
X14733900Y-7948981D01*
X14712154Y-7847012D01*
X14676550Y-7761614D01*
X14627608Y-7665054D01*
X14570864Y-7540597D01*
X14570551Y-7531649D01*
X14576657Y-7525099D01*
X14576964Y-7524964D01*
X14884704Y-7396542D01*
X14893659Y-7396520D01*
X14893688Y-7396531D01*
G37*
%TD.AperFunction*%
%TD*%
%TA.AperFunction,Conductor*%
%TO.N,/SPIHD{slash}GPIO27*%
G36*
X29986016Y-14298883D02*
G01*
X29991039Y-14300985D01*
X29997348Y-14307341D01*
X29997315Y-14316295D01*
X29997143Y-14316687D01*
X29957447Y-14402575D01*
X29957309Y-14402853D01*
X29921002Y-14471607D01*
X29893944Y-14532416D01*
X29877078Y-14605194D01*
X29871878Y-14698948D01*
X29867998Y-14707019D01*
X29860196Y-14710000D01*
X29682334Y-14710000D01*
X29674061Y-14706573D01*
X29670652Y-14698948D01*
X29670137Y-14689677D01*
X29665451Y-14605195D01*
X29648584Y-14532416D01*
X29621527Y-14471607D01*
X29585215Y-14402846D01*
X29585082Y-14402578D01*
X29545384Y-14316684D01*
X29545025Y-14307739D01*
X29551097Y-14301157D01*
X29551448Y-14301002D01*
X29766749Y-14210889D01*
X29775702Y-14210857D01*
X29986016Y-14298883D01*
G37*
%TD.AperFunction*%
%TD*%
%TA.AperFunction,Conductor*%
%TO.N,/DTR*%
G36*
X27131506Y-11018924D02*
G01*
X27347440Y-11107435D01*
X27353796Y-11113744D01*
X27353829Y-11113824D01*
X27442333Y-11329741D01*
X27442300Y-11338695D01*
X27435944Y-11345004D01*
X27435546Y-11345159D01*
X27346742Y-11377822D01*
X27346448Y-11377921D01*
X27284545Y-11397039D01*
X27272163Y-11400863D01*
X27210031Y-11424728D01*
X27210028Y-11424730D01*
X27146642Y-11464265D01*
X27076669Y-11526882D01*
X27068219Y-11529845D01*
X27060594Y-11526436D01*
X26934827Y-11400669D01*
X26931400Y-11392396D01*
X26934379Y-11384597D01*
X26996997Y-11314623D01*
X27036533Y-11251234D01*
X27060400Y-11189104D01*
X27083342Y-11114809D01*
X27083440Y-11114520D01*
X27083696Y-11113824D01*
X27116105Y-11025716D01*
X27122178Y-11019136D01*
X27131125Y-11018776D01*
X27131506Y-11018924D01*
G37*
%TD.AperFunction*%
%TD*%
%TA.AperFunction,Conductor*%
%TO.N,/DTR*%
G36*
X15809960Y-4918964D02*
G01*
X15816269Y-4925320D01*
X15816424Y-4925718D01*
X15849087Y-5014520D01*
X15849186Y-5014814D01*
X15872128Y-5089100D01*
X15872128Y-5089101D01*
X15895993Y-5151231D01*
X15895995Y-5151234D01*
X15935531Y-5214623D01*
X15998148Y-5284595D01*
X16001111Y-5293044D01*
X15997702Y-5300669D01*
X15871934Y-5426437D01*
X15863661Y-5429864D01*
X15855860Y-5426883D01*
X15785888Y-5364266D01*
X15722499Y-5324730D01*
X15722496Y-5324728D01*
X15660366Y-5300863D01*
X15634396Y-5292843D01*
X15586079Y-5277921D01*
X15585785Y-5277822D01*
X15496983Y-5245159D01*
X15490401Y-5239087D01*
X15490041Y-5230139D01*
X15490181Y-5229777D01*
X15578701Y-5013822D01*
X15585008Y-5007468D01*
X15801007Y-4918931D01*
X15809960Y-4918964D01*
G37*
%TD.AperFunction*%
%TD*%
%TA.AperFunction,Conductor*%
%TO.N,/SPIHD{slash}GPIO27*%
G36*
X29869122Y-14249090D02*
G01*
X29872470Y-14256010D01*
X29914319Y-14615435D01*
X29914318Y-14615435D01*
X30027839Y-14856992D01*
X30027840Y-14856994D01*
X30188367Y-15051139D01*
X30371742Y-15277818D01*
X30372946Y-15279627D01*
X30550425Y-15608991D01*
X30551333Y-15617900D01*
X30545675Y-15624841D01*
X30544614Y-15625346D01*
X29775754Y-15944797D01*
X29766799Y-15944806D01*
X29766776Y-15944797D01*
X28997915Y-15625346D01*
X28991590Y-15619007D01*
X28991599Y-15610052D01*
X28992096Y-15609007D01*
X29169585Y-15279621D01*
X29170782Y-15277823D01*
X29354161Y-15051139D01*
X29514686Y-14856997D01*
X29628209Y-14615438D01*
X29670060Y-14256009D01*
X29674420Y-14248189D01*
X29681681Y-14245663D01*
X29860849Y-14245663D01*
X29869122Y-14249090D01*
G37*
%TD.AperFunction*%
%TD*%
%TA.AperFunction,Conductor*%
%TO.N,/CHIP_PU*%
G36*
X32118469Y-6023427D02*
G01*
X32121878Y-6031052D01*
X32127078Y-6124804D01*
X32143944Y-6197582D01*
X32171002Y-6258392D01*
X32207313Y-6327151D01*
X32207451Y-6327429D01*
X32247144Y-6413313D01*
X32247504Y-6422260D01*
X32241432Y-6428842D01*
X32241040Y-6429014D01*
X32025782Y-6519109D01*
X32016828Y-6519142D01*
X32016748Y-6519109D01*
X31801489Y-6429014D01*
X31795180Y-6422658D01*
X31795213Y-6413704D01*
X31795363Y-6413362D01*
X31835089Y-6327404D01*
X31835215Y-6327151D01*
X31871527Y-6258392D01*
X31898584Y-6197582D01*
X31915451Y-6124804D01*
X31920651Y-6031052D01*
X31924532Y-6022981D01*
X31932334Y-6020000D01*
X32110196Y-6020000D01*
X32118469Y-6023427D01*
G37*
%TD.AperFunction*%
%TD*%
%TA.AperFunction,Conductor*%
%TO.N,Net-(USB1-CC1)*%
G36*
X9066414Y-5399090D02*
G01*
X9069823Y-5406715D01*
X9075023Y-5500467D01*
X9091889Y-5573245D01*
X9118947Y-5634055D01*
X9155258Y-5702814D01*
X9155396Y-5703092D01*
X9195089Y-5788976D01*
X9195449Y-5797923D01*
X9189377Y-5804505D01*
X9188985Y-5804677D01*
X8973727Y-5894772D01*
X8964773Y-5894805D01*
X8964693Y-5894772D01*
X8749434Y-5804677D01*
X8743125Y-5798321D01*
X8743158Y-5789367D01*
X8743308Y-5789025D01*
X8783034Y-5703067D01*
X8783160Y-5702814D01*
X8819472Y-5634055D01*
X8846529Y-5573245D01*
X8846528Y-5573245D01*
X8863396Y-5500467D01*
X8868596Y-5406715D01*
X8872477Y-5398644D01*
X8880279Y-5395663D01*
X9058141Y-5395663D01*
X9066414Y-5399090D01*
G37*
%TD.AperFunction*%
%TD*%
%TA.AperFunction,Conductor*%
%TO.N,/GPIO19{slash}ESP32_USB_D-*%
G36*
X18255505Y-10409611D02*
G01*
X18255845Y-10409760D01*
X18341788Y-10449480D01*
X18342056Y-10449613D01*
X18410817Y-10485925D01*
X18471626Y-10512982D01*
X18544405Y-10529849D01*
X18638158Y-10535049D01*
X18646228Y-10538929D01*
X18649209Y-10546731D01*
X18649209Y-10724594D01*
X18645782Y-10732867D01*
X18638157Y-10736276D01*
X18544404Y-10741476D01*
X18471626Y-10758342D01*
X18410817Y-10785400D01*
X18342063Y-10821707D01*
X18341785Y-10821845D01*
X18255897Y-10861541D01*
X18246949Y-10861901D01*
X18240367Y-10855829D01*
X18240195Y-10855437D01*
X18199557Y-10758343D01*
X18150099Y-10640178D01*
X18150067Y-10631225D01*
X18240196Y-10415885D01*
X18246551Y-10409578D01*
X18255505Y-10409611D01*
G37*
%TD.AperFunction*%
%TD*%
%TA.AperFunction,Conductor*%
%TO.N,/SPID{slash}GPIO32*%
G36*
X43610001Y-14680236D02*
G01*
X43736691Y-14806926D01*
X43740118Y-14815199D01*
X43737592Y-14822460D01*
X43513028Y-15106208D01*
X43422495Y-15357284D01*
X43398723Y-15608075D01*
X43368102Y-15898024D01*
X43367675Y-15900154D01*
X43260276Y-16258550D01*
X43254618Y-16265491D01*
X43245709Y-16266399D01*
X43244602Y-16266005D01*
X43243357Y-16265491D01*
X42475049Y-15948224D01*
X42468712Y-15941901D01*
X42150922Y-15172323D01*
X42150931Y-15163369D01*
X42157270Y-15157044D01*
X42158356Y-15156657D01*
X42516774Y-15049249D01*
X42518900Y-15048823D01*
X42808851Y-15018203D01*
X43059639Y-14994432D01*
X43185179Y-14949164D01*
X43310718Y-14903898D01*
X43310718Y-14903897D01*
X43310720Y-14903897D01*
X43594469Y-14679334D01*
X43603081Y-14676888D01*
X43610001Y-14680236D01*
G37*
%TD.AperFunction*%
%TD*%
%TA.AperFunction,Conductor*%
%TO.N,/VDD_3.3V*%
G36*
X23468425Y-2269170D02*
G01*
X23471837Y-2276841D01*
X23478800Y-2412008D01*
X23500956Y-2513881D01*
X23500957Y-2513885D01*
X23537050Y-2599151D01*
X23537052Y-2599155D01*
X23537120Y-2599287D01*
X23586412Y-2695619D01*
X23643325Y-2820056D01*
X23643650Y-2829005D01*
X23637551Y-2835562D01*
X23637191Y-2835720D01*
X23329506Y-2964119D01*
X23320551Y-2964142D01*
X23320494Y-2964119D01*
X23012753Y-2835697D01*
X23006438Y-2829348D01*
X23006461Y-2820393D01*
X23006573Y-2820134D01*
X23062648Y-2695902D01*
X23062787Y-2695619D01*
X23110131Y-2599287D01*
X23110185Y-2599151D01*
X23144082Y-2513699D01*
X23164400Y-2412008D01*
X23164465Y-2411684D01*
X23170745Y-2276898D01*
X23174553Y-2268794D01*
X23182432Y-2265743D01*
X23460152Y-2265743D01*
X23468425Y-2269170D01*
G37*
%TD.AperFunction*%
%TD*%
%TA.AperFunction,Conductor*%
%TO.N,/VDD_3.3V*%
G36*
X71276092Y-11883108D02*
G01*
X71276582Y-11883547D01*
X71376886Y-11973488D01*
X71376887Y-11973488D01*
X71376890Y-11973491D01*
X71465152Y-12028962D01*
X71508390Y-12045799D01*
X71551630Y-12062637D01*
X71551631Y-12062637D01*
X71655192Y-12094988D01*
X71655441Y-12095073D01*
X71783819Y-12142441D01*
X71790393Y-12148519D01*
X71790745Y-12157467D01*
X71790589Y-12157866D01*
X71663828Y-12466191D01*
X71657513Y-12472540D01*
X71657456Y-12472563D01*
X71349013Y-12599372D01*
X71340058Y-12599349D01*
X71333743Y-12593000D01*
X71333631Y-12592717D01*
X71285304Y-12465890D01*
X71249846Y-12364785D01*
X71212470Y-12281096D01*
X71212470Y-12281095D01*
X71154113Y-12195291D01*
X71119473Y-12157467D01*
X71063275Y-12096102D01*
X71060214Y-12087686D01*
X71063629Y-12079928D01*
X71260011Y-11883546D01*
X71268283Y-11880120D01*
X71276092Y-11883108D01*
G37*
%TD.AperFunction*%
%TD*%
%TA.AperFunction,Conductor*%
%TO.N,/GPIO20{slash}ESP32_USB_D+*%
G36*
X19235223Y-9810292D02*
G01*
X19236247Y-9810778D01*
X19298943Y-9844344D01*
X19299470Y-9844664D01*
X19358676Y-9884987D01*
X19358680Y-9884989D01*
X19358684Y-9884992D01*
X19410573Y-9912495D01*
X19462146Y-9913281D01*
X19512674Y-9879057D01*
X19521445Y-9877256D01*
X19527507Y-9880472D01*
X19653470Y-10006434D01*
X19656897Y-10014706D01*
X19653473Y-10022977D01*
X19651662Y-10024788D01*
X19570776Y-10100195D01*
X19570221Y-10100651D01*
X19499050Y-10152287D01*
X19497387Y-10153294D01*
X19428323Y-10187624D01*
X19427816Y-10187847D01*
X19342708Y-10220527D01*
X19235523Y-10262468D01*
X19226570Y-10262291D01*
X19220468Y-10256090D01*
X19130388Y-10040873D01*
X19130355Y-10031919D01*
X19130378Y-10031862D01*
X19133321Y-10024788D01*
X19219928Y-9816598D01*
X19226268Y-9810279D01*
X19235223Y-9810292D01*
G37*
%TD.AperFunction*%
%TD*%
%TA.AperFunction,Conductor*%
%TO.N,/VDD_3.3V*%
G36*
X70484478Y-7576531D02*
G01*
X70792220Y-7704954D01*
X70798535Y-7711303D01*
X70798512Y-7720258D01*
X70798367Y-7720590D01*
X70741830Y-7845069D01*
X70693400Y-7941746D01*
X70658398Y-8027295D01*
X70649382Y-8070615D01*
X70637153Y-8129380D01*
X70637153Y-8129385D01*
X70630544Y-8264534D01*
X70626717Y-8272630D01*
X70618858Y-8275663D01*
X70341142Y-8275663D01*
X70332869Y-8272236D01*
X70329456Y-8264535D01*
X70322845Y-8129384D01*
X70322845Y-8129380D01*
X70322845Y-8129379D01*
X70301601Y-8027295D01*
X70266599Y-7941746D01*
X70218169Y-7845069D01*
X70161631Y-7720588D01*
X70161331Y-7711641D01*
X70167447Y-7705099D01*
X70167754Y-7704964D01*
X70475494Y-7576542D01*
X70484449Y-7576520D01*
X70484478Y-7576531D01*
G37*
%TD.AperFunction*%
%TD*%
%TA.AperFunction,Conductor*%
%TO.N,/USB_Data-*%
G36*
X6246445Y-6886821D02*
G01*
X6249852Y-6894414D01*
X6255311Y-6988190D01*
X6255312Y-6988197D01*
X6272866Y-7060801D01*
X6272867Y-7060803D01*
X6272868Y-7060807D01*
X6291458Y-7101203D01*
X6300754Y-7121405D01*
X6315246Y-7148259D01*
X6337768Y-7189995D01*
X6337911Y-7190279D01*
X6377876Y-7276127D01*
X6378261Y-7285074D01*
X6372207Y-7291672D01*
X6371786Y-7291858D01*
X6156558Y-7381940D01*
X6147604Y-7381973D01*
X6147524Y-7381940D01*
X6117294Y-7369287D01*
X5932238Y-7291833D01*
X5925930Y-7285478D01*
X5925963Y-7276524D01*
X5926109Y-7276190D01*
X5965488Y-7190433D01*
X5965565Y-7190276D01*
X6001189Y-7121503D01*
X6001189Y-7121504D01*
X6027385Y-7060807D01*
X6027448Y-7060662D01*
X6043664Y-6987933D01*
X6048622Y-6894473D01*
X6052483Y-6886394D01*
X6060306Y-6883394D01*
X6238172Y-6883394D01*
X6246445Y-6886821D01*
G37*
%TD.AperFunction*%
%TD*%
%TA.AperFunction,Conductor*%
%TO.N,/RTS*%
G36*
X12590327Y1984181D02*
G01*
X12596656Y1977847D01*
X12597315Y1975685D01*
X12676125Y1584542D01*
X12676337Y1581576D01*
X12655075Y1202170D01*
X12635566Y884080D01*
X12635567Y884075D01*
X12705770Y708936D01*
X12722995Y665964D01*
X13013810Y587338D01*
X13020902Y581871D01*
X13022456Y576044D01*
X13022455Y397355D01*
X13019028Y389082D01*
X13010755Y385655D01*
X13010119Y385672D01*
X12624846Y406645D01*
X12622881Y406921D01*
X12347920Y469609D01*
X12345816Y470304D01*
X12115433Y571495D01*
X12115105Y571653D01*
X11853008Y708931D01*
X11853004Y708933D01*
X11852998Y708936D01*
X11494135Y874335D01*
X11488056Y880910D01*
X11488217Y889426D01*
X11806357Y1659851D01*
X11812678Y1666186D01*
X12581374Y1984185D01*
X12590327Y1984181D01*
G37*
%TD.AperFunction*%
%TD*%
%TA.AperFunction,Conductor*%
%TO.N,/VDD_3.3V*%
G36*
X78083556Y-225054D02*
G01*
X78083588Y-225130D01*
X78250390Y-625500D01*
X78250409Y-634455D01*
X78250390Y-634500D01*
X78083540Y-1034985D01*
X78077195Y-1041304D01*
X78068279Y-1041301D01*
X77907527Y-975005D01*
X77782340Y-929565D01*
X77782337Y-929564D01*
X77782331Y-929562D01*
X77707656Y-912464D01*
X77670321Y-903915D01*
X77538344Y-892561D01*
X77534701Y-892510D01*
X77364792Y-890159D01*
X77356567Y-886618D01*
X77353254Y-878460D01*
X77353254Y-401415D01*
X77356681Y-393142D01*
X77364665Y-389719D01*
X77539001Y-385439D01*
X77670689Y-369289D01*
X77782084Y-337844D01*
X77906951Y-287400D01*
X78068214Y-218861D01*
X78077166Y-218780D01*
X78083556Y-225054D01*
G37*
%TD.AperFunction*%
%TD*%
%TA.AperFunction,Conductor*%
%TO.N,/VDD_3.3V*%
G36*
X15038396Y-10789090D02*
G01*
X15041809Y-10796791D01*
X15048418Y-10931939D01*
X15048418Y-10931943D01*
X15057434Y-10975265D01*
X15069663Y-11034030D01*
X15104665Y-11119579D01*
X15153094Y-11216256D01*
X15153095Y-11216256D01*
X15209632Y-11340735D01*
X15209933Y-11349684D01*
X15203817Y-11356226D01*
X15203485Y-11356371D01*
X14895771Y-11484782D01*
X14886816Y-11484805D01*
X14886759Y-11484782D01*
X14579044Y-11356371D01*
X14572729Y-11350022D01*
X14572752Y-11341067D01*
X14572872Y-11340792D01*
X14629434Y-11216256D01*
X14677864Y-11119579D01*
X14712866Y-11034030D01*
X14734110Y-10931945D01*
X14740720Y-10796791D01*
X14744548Y-10788696D01*
X14752407Y-10785663D01*
X15030123Y-10785663D01*
X15038396Y-10789090D01*
G37*
%TD.AperFunction*%
%TD*%
%TA.AperFunction,Conductor*%
%TO.N,/GPIO0*%
G36*
X69260107Y-3779833D02*
G01*
X69260279Y-3780224D01*
X69350374Y-3995483D01*
X69350407Y-4004437D01*
X69350374Y-4004517D01*
X69260279Y-4219775D01*
X69253923Y-4226084D01*
X69244969Y-4226051D01*
X69244605Y-4225891D01*
X69158694Y-4186186D01*
X69158416Y-4186048D01*
X69089657Y-4149737D01*
X69028847Y-4122679D01*
X68956069Y-4105813D01*
X68862317Y-4100613D01*
X68854246Y-4096733D01*
X68851265Y-4088931D01*
X68851265Y-3911068D01*
X68854692Y-3902795D01*
X68862314Y-3899387D01*
X68956069Y-3894186D01*
X69028847Y-3877319D01*
X69089657Y-3850262D01*
X69158427Y-3813944D01*
X69158669Y-3813824D01*
X69244580Y-3774119D01*
X69253525Y-3773760D01*
X69260107Y-3779833D01*
G37*
%TD.AperFunction*%
%TD*%
%TA.AperFunction,Conductor*%
%TO.N,/RTS*%
G36*
X20394613Y-2188778D02*
G01*
X20464586Y-2251395D01*
X20493526Y-2269445D01*
X20527968Y-2290928D01*
X20527971Y-2290929D01*
X20527974Y-2290931D01*
X20590105Y-2314798D01*
X20615428Y-2322618D01*
X20664393Y-2337739D01*
X20664687Y-2337838D01*
X20702836Y-2351870D01*
X20753491Y-2370503D01*
X20760073Y-2376576D01*
X20760433Y-2385523D01*
X20760278Y-2385921D01*
X20671774Y-2601838D01*
X20665465Y-2608194D01*
X20665385Y-2608227D01*
X20449468Y-2696731D01*
X20440514Y-2696698D01*
X20434205Y-2690342D01*
X20434050Y-2689944D01*
X20401385Y-2601140D01*
X20401286Y-2600846D01*
X20378346Y-2526562D01*
X20378345Y-2526558D01*
X20354478Y-2464427D01*
X20354476Y-2464424D01*
X20354475Y-2464421D01*
X20332992Y-2429979D01*
X20314942Y-2401039D01*
X20252325Y-2331066D01*
X20249363Y-2322618D01*
X20252771Y-2314994D01*
X20378541Y-2189224D01*
X20386813Y-2185798D01*
X20394613Y-2188778D01*
G37*
%TD.AperFunction*%
%TD*%
%TA.AperFunction,Conductor*%
%TO.N,/VDD_3.3V*%
G36*
X24138503Y-6575103D02*
G01*
X24334879Y-6771479D01*
X24338306Y-6779752D01*
X24335266Y-6787620D01*
X24244382Y-6887654D01*
X24244379Y-6887657D01*
X24186982Y-6974581D01*
X24186981Y-6974581D01*
X24151537Y-7058050D01*
X24150916Y-7059515D01*
X24116533Y-7161823D01*
X24068434Y-7289587D01*
X24062312Y-7296122D01*
X24053362Y-7296415D01*
X24053035Y-7296286D01*
X23744637Y-7169495D01*
X23738289Y-7163181D01*
X23611483Y-6854745D01*
X23611506Y-6845793D01*
X23617855Y-6839478D01*
X23618185Y-6839348D01*
X23746303Y-6791423D01*
X23781835Y-6779752D01*
X23849116Y-6757653D01*
X23849116Y-6757652D01*
X23849123Y-6757650D01*
X23934612Y-6722318D01*
X24022028Y-6665491D01*
X24122382Y-6574699D01*
X24130815Y-6571691D01*
X24138503Y-6575103D01*
G37*
%TD.AperFunction*%
%TD*%
%TA.AperFunction,Conductor*%
%TO.N,/VDD_3.3V*%
G36*
X70350563Y-7263110D02*
G01*
X70350708Y-7263442D01*
X70479119Y-7571157D01*
X70479142Y-7580112D01*
X70479119Y-7580169D01*
X70350708Y-7887883D01*
X70344359Y-7894198D01*
X70335404Y-7894175D01*
X70335072Y-7894030D01*
X70210593Y-7837493D01*
X70210592Y-7837493D01*
X70113916Y-7789063D01*
X70028367Y-7754061D01*
X69944110Y-7736527D01*
X69926278Y-7732816D01*
X69791128Y-7726207D01*
X69783033Y-7722380D01*
X69780000Y-7714521D01*
X69780000Y-7436804D01*
X69783427Y-7428531D01*
X69791126Y-7425118D01*
X69926282Y-7418508D01*
X70028367Y-7397264D01*
X70113916Y-7362262D01*
X70210593Y-7313832D01*
X70335074Y-7257294D01*
X70344021Y-7256994D01*
X70350563Y-7263110D01*
G37*
%TD.AperFunction*%
%TD*%
%TA.AperFunction,Conductor*%
%TO.N,/VDD_SPI{slash}GPIO11*%
G36*
X41664595Y-5406487D02*
G01*
X41664893Y-5406617D01*
X41789406Y-5463169D01*
X41886083Y-5511599D01*
X41971632Y-5546601D01*
X42073716Y-5567845D01*
X42208872Y-5574455D01*
X42216967Y-5578282D01*
X42220000Y-5586141D01*
X42220000Y-5863858D01*
X42216573Y-5872131D01*
X42208871Y-5875544D01*
X42073722Y-5882153D01*
X42073717Y-5882153D01*
X42014952Y-5894382D01*
X41971632Y-5903398D01*
X41886083Y-5938400D01*
X41789406Y-5986829D01*
X41789406Y-5986830D01*
X41664927Y-6043367D01*
X41655978Y-6043668D01*
X41649436Y-6037552D01*
X41649291Y-6037220D01*
X41581596Y-5875000D01*
X41520879Y-5729505D01*
X41520857Y-5720551D01*
X41520880Y-5720494D01*
X41649291Y-5412778D01*
X41655640Y-5406464D01*
X41664595Y-5406487D01*
G37*
%TD.AperFunction*%
%TD*%
%TA.AperFunction,Conductor*%
%TO.N,/VDD_3.3V*%
G36*
X15212336Y-11356368D02*
G01*
X15218651Y-11362717D01*
X15218813Y-11363133D01*
X15266002Y-11491631D01*
X15266103Y-11491931D01*
X15297973Y-11595754D01*
X15297973Y-11595755D01*
X15331083Y-11682564D01*
X15331088Y-11682575D01*
X15386089Y-11771111D01*
X15386091Y-11771114D01*
X15386093Y-11771116D01*
X15410303Y-11798198D01*
X15476337Y-11872066D01*
X15479296Y-11880518D01*
X15475887Y-11888137D01*
X15279507Y-12084517D01*
X15271234Y-12087944D01*
X15263320Y-12084862D01*
X15164417Y-11994036D01*
X15078996Y-11935354D01*
X15020198Y-11908647D01*
X14995731Y-11897533D01*
X14995730Y-11897533D01*
X14895035Y-11861710D01*
X14768524Y-11813305D01*
X14762023Y-11807150D01*
X14761779Y-11798198D01*
X14761864Y-11797982D01*
X14888702Y-11489469D01*
X14895013Y-11483124D01*
X15203383Y-11356345D01*
X15212336Y-11356368D01*
G37*
%TD.AperFunction*%
%TD*%
%TA.AperFunction,Conductor*%
%TO.N,/SPIHD{slash}GPIO27*%
G36*
X39536295Y-6223948D02*
G01*
X39536635Y-6224097D01*
X39622578Y-6263817D01*
X39622846Y-6263950D01*
X39691607Y-6300262D01*
X39752416Y-6327319D01*
X39825195Y-6344186D01*
X39918950Y-6349387D01*
X39927019Y-6353266D01*
X39930000Y-6361068D01*
X39930000Y-6538931D01*
X39926573Y-6547204D01*
X39918948Y-6550613D01*
X39825194Y-6555813D01*
X39752416Y-6572679D01*
X39691607Y-6599737D01*
X39622853Y-6636044D01*
X39622575Y-6636182D01*
X39536687Y-6675878D01*
X39527739Y-6676238D01*
X39521157Y-6670166D01*
X39520985Y-6669774D01*
X39506900Y-6636121D01*
X39430889Y-6454515D01*
X39430857Y-6445563D01*
X39520986Y-6230222D01*
X39527341Y-6223915D01*
X39536295Y-6223948D01*
G37*
%TD.AperFunction*%
%TD*%
%TA.AperFunction,Conductor*%
%TO.N,/GPIO19{slash}ESP32_USB_D-*%
G36*
X28997919Y1984683D02*
G01*
X29767480Y1666899D01*
X29773817Y1660576D01*
X29773827Y1660552D01*
X30091607Y891000D01*
X30091598Y882045D01*
X30085259Y875720D01*
X30084152Y875326D01*
X29725756Y767927D01*
X29723626Y767500D01*
X29433677Y736879D01*
X29182886Y713107D01*
X28931810Y622574D01*
X28648062Y398010D01*
X28639448Y395563D01*
X28632528Y398911D01*
X28505838Y525601D01*
X28502411Y533874D01*
X28504936Y541133D01*
X28729499Y824882D01*
X28820034Y1075963D01*
X28843805Y1326751D01*
X28874425Y1616702D01*
X28874852Y1618830D01*
X28889257Y1666900D01*
X28982253Y1977228D01*
X28987910Y1984166D01*
X28996819Y1985074D01*
X28997919Y1984683D01*
G37*
%TD.AperFunction*%
%TD*%
%TA.AperFunction,Conductor*%
%TO.N,Net-(J1-Pin_2)*%
G36*
X9377067Y-14249090D02*
G01*
X9380415Y-14256010D01*
X9422264Y-14615435D01*
X9422263Y-14615435D01*
X9535784Y-14856992D01*
X9535785Y-14856994D01*
X9696312Y-15051139D01*
X9879687Y-15277818D01*
X9880891Y-15279627D01*
X10058370Y-15608991D01*
X10059278Y-15617900D01*
X10053620Y-15624841D01*
X10052559Y-15625346D01*
X9283699Y-15944797D01*
X9274744Y-15944806D01*
X9274721Y-15944797D01*
X8505860Y-15625346D01*
X8499535Y-15619007D01*
X8499544Y-15610052D01*
X8500041Y-15609007D01*
X8677530Y-15279621D01*
X8678727Y-15277823D01*
X8862106Y-15051139D01*
X9022631Y-14856997D01*
X9136154Y-14615438D01*
X9178005Y-14256009D01*
X9182365Y-14248189D01*
X9189626Y-14245663D01*
X9368794Y-14245663D01*
X9377067Y-14249090D01*
G37*
%TD.AperFunction*%
%TD*%
%TA.AperFunction,Conductor*%
%TO.N,/VDD_3.3V*%
G36*
X14759773Y-7083110D02*
G01*
X14759918Y-7083442D01*
X14888329Y-7391157D01*
X14888352Y-7400112D01*
X14888329Y-7400169D01*
X14759918Y-7707883D01*
X14753569Y-7714198D01*
X14744614Y-7714175D01*
X14744282Y-7714030D01*
X14619803Y-7657493D01*
X14619802Y-7657492D01*
X14523126Y-7609063D01*
X14437577Y-7574061D01*
X14353320Y-7556527D01*
X14335488Y-7552816D01*
X14200338Y-7546207D01*
X14192243Y-7542380D01*
X14189210Y-7534521D01*
X14189210Y-7256804D01*
X14192637Y-7248531D01*
X14200336Y-7245118D01*
X14335492Y-7238508D01*
X14437577Y-7217264D01*
X14523126Y-7182262D01*
X14619803Y-7133832D01*
X14744284Y-7077294D01*
X14753231Y-7076994D01*
X14759773Y-7083110D01*
G37*
%TD.AperFunction*%
%TD*%
%TA.AperFunction,Conductor*%
%TO.N,/SPIWP{slash}GPIO28*%
G36*
X43846542Y-9188939D02*
G01*
X44062440Y-9277435D01*
X44068796Y-9283744D01*
X44068829Y-9283824D01*
X44157343Y-9499766D01*
X44157310Y-9508720D01*
X44150954Y-9515029D01*
X44150581Y-9515175D01*
X44062143Y-9547933D01*
X44061878Y-9548024D01*
X44010402Y-9564339D01*
X43988076Y-9571415D01*
X43973420Y-9577221D01*
X43926455Y-9595826D01*
X43894990Y-9615793D01*
X43863527Y-9635760D01*
X43863525Y-9635761D01*
X43863526Y-9635761D01*
X43793911Y-9698343D01*
X43785467Y-9701325D01*
X43777816Y-9697915D01*
X43652046Y-9572145D01*
X43648619Y-9563872D01*
X43651578Y-9556095D01*
X43714041Y-9485934D01*
X43753015Y-9422197D01*
X43770880Y-9373996D01*
X43776192Y-9359668D01*
X43798562Y-9285017D01*
X43798659Y-9284721D01*
X43831124Y-9195757D01*
X43837179Y-9189161D01*
X43846126Y-9188778D01*
X43846542Y-9188939D01*
G37*
%TD.AperFunction*%
%TD*%
%TA.AperFunction,Conductor*%
%TO.N,/DTR*%
G36*
X16925403Y-10309278D02*
G01*
X16995376Y-10371895D01*
X17024316Y-10389945D01*
X17058758Y-10411428D01*
X17058761Y-10411429D01*
X17058764Y-10411431D01*
X17120895Y-10435298D01*
X17146218Y-10443118D01*
X17195183Y-10458239D01*
X17195477Y-10458338D01*
X17233626Y-10472370D01*
X17284281Y-10491003D01*
X17290863Y-10497076D01*
X17291223Y-10506023D01*
X17291068Y-10506421D01*
X17202564Y-10722338D01*
X17196255Y-10728694D01*
X17196175Y-10728727D01*
X16980258Y-10817231D01*
X16971304Y-10817198D01*
X16964995Y-10810842D01*
X16964840Y-10810444D01*
X16932175Y-10721640D01*
X16932076Y-10721346D01*
X16909136Y-10647062D01*
X16909135Y-10647058D01*
X16885268Y-10584927D01*
X16885266Y-10584924D01*
X16885265Y-10584921D01*
X16863782Y-10550479D01*
X16845732Y-10521539D01*
X16783115Y-10451566D01*
X16780153Y-10443118D01*
X16783561Y-10435494D01*
X16909331Y-10309724D01*
X16917603Y-10306298D01*
X16925403Y-10309278D01*
G37*
%TD.AperFunction*%
%TD*%
%TA.AperFunction,Conductor*%
%TO.N,/DTR*%
G36*
X5042627Y2006283D02*
G01*
X5042998Y2005254D01*
X5173560Y1582117D01*
X5307910Y1191703D01*
X5442259Y846290D01*
X5442260Y846290D01*
X5442260Y846289D01*
X5457395Y812446D01*
X5576608Y545877D01*
X5706949Y298087D01*
X5707767Y289169D01*
X5704867Y284367D01*
X5576214Y155714D01*
X5567941Y152287D01*
X5561605Y154151D01*
X5223279Y372100D01*
X4877018Y550160D01*
X4877013Y550162D01*
X4530762Y683218D01*
X4294576Y743284D01*
X4184500Y771278D01*
X4110559Y780473D01*
X3853450Y812446D01*
X3845663Y816868D01*
X3843283Y825501D01*
X3844073Y828506D01*
X4186653Y1660552D01*
X4192969Y1666895D01*
X5027340Y2012614D01*
X5036294Y2012614D01*
X5042627Y2006283D01*
G37*
%TD.AperFunction*%
%TD*%
%TA.AperFunction,Conductor*%
%TO.N,/SPIHD{slash}GPIO27*%
G36*
X44028842Y-6230333D02*
G01*
X44029012Y-6230720D01*
X44119109Y-6445983D01*
X44119142Y-6454937D01*
X44119109Y-6455017D01*
X44029016Y-6670269D01*
X44022660Y-6676578D01*
X44013706Y-6676545D01*
X44013309Y-6676370D01*
X43927430Y-6636628D01*
X43927147Y-6636487D01*
X43889002Y-6616265D01*
X43858423Y-6600055D01*
X43797652Y-6572852D01*
X43797651Y-6572851D01*
X43724910Y-6555865D01*
X43724905Y-6555864D01*
X43631145Y-6550618D01*
X43623077Y-6546734D01*
X43620099Y-6538936D01*
X43620099Y-6361073D01*
X43623526Y-6352800D01*
X43631155Y-6349391D01*
X43671532Y-6347168D01*
X43724845Y-6344234D01*
X43724847Y-6344233D01*
X43724856Y-6344233D01*
X43797626Y-6327481D01*
X43813114Y-6320626D01*
X43858437Y-6300568D01*
X43887381Y-6285333D01*
X43927212Y-6264369D01*
X43927443Y-6264255D01*
X44013316Y-6224613D01*
X44022263Y-6224258D01*
X44028842Y-6230333D01*
G37*
%TD.AperFunction*%
%TD*%
%TA.AperFunction,Conductor*%
%TO.N,/GPIO41*%
G36*
X70509122Y-14249090D02*
G01*
X70512470Y-14256010D01*
X70554319Y-14615435D01*
X70554318Y-14615435D01*
X70667839Y-14856992D01*
X70667840Y-14856994D01*
X70828367Y-15051139D01*
X71011742Y-15277818D01*
X71012946Y-15279627D01*
X71190425Y-15608991D01*
X71191333Y-15617900D01*
X71185675Y-15624841D01*
X71184614Y-15625346D01*
X70415754Y-15944797D01*
X70406799Y-15944806D01*
X70406776Y-15944797D01*
X69637915Y-15625346D01*
X69631590Y-15619007D01*
X69631599Y-15610052D01*
X69632096Y-15609007D01*
X69809585Y-15279621D01*
X69810782Y-15277823D01*
X69994161Y-15051139D01*
X70154686Y-14856997D01*
X70268209Y-14615438D01*
X70310060Y-14256009D01*
X70314420Y-14248189D01*
X70321681Y-14245663D01*
X70500849Y-14245663D01*
X70509122Y-14249090D01*
G37*
%TD.AperFunction*%
%TD*%
%TA.AperFunction,Conductor*%
%TO.N,/U0RXD*%
G36*
X9273694Y1663474D02*
G01*
X10042559Y1344021D01*
X10048884Y1337682D01*
X10048875Y1328727D01*
X10048370Y1327666D01*
X9870891Y998304D01*
X9869687Y996495D01*
X9686312Y769815D01*
X9525785Y575670D01*
X9525784Y575668D01*
X9412264Y334112D01*
X9370415Y-25316D01*
X9366055Y-33137D01*
X9358794Y-35663D01*
X9179626Y-35663D01*
X9171353Y-32236D01*
X9168005Y-25316D01*
X9126154Y334112D01*
X9126155Y334112D01*
X9012633Y575668D01*
X9012632Y575670D01*
X9012631Y575671D01*
X9012631Y575672D01*
X8852106Y769815D01*
X8668731Y996495D01*
X8667527Y998304D01*
X8490048Y1327668D01*
X8489141Y1336575D01*
X8494799Y1343516D01*
X8495847Y1344015D01*
X9264721Y1663473D01*
X9273676Y1663481D01*
X9273694Y1663474D01*
G37*
%TD.AperFunction*%
%TD*%
%TA.AperFunction,Conductor*%
%TO.N,/VDD_5V*%
G36*
X26657257Y-5801207D02*
G01*
X26995220Y-6139170D01*
X26998647Y-6147443D01*
X26995697Y-6155210D01*
X26886890Y-6277798D01*
X26886888Y-6277801D01*
X26817676Y-6382082D01*
X26764197Y-6477341D01*
X26763970Y-6477713D01*
X26695102Y-6581475D01*
X26694602Y-6582124D01*
X26586970Y-6703389D01*
X26578916Y-6707301D01*
X26570453Y-6704372D01*
X26569971Y-6703919D01*
X26330558Y-6465870D01*
X26092507Y-6226455D01*
X26089104Y-6218173D01*
X26092555Y-6209909D01*
X26093003Y-6209487D01*
X26214307Y-6101819D01*
X26214938Y-6101332D01*
X26318745Y-6032435D01*
X26319063Y-6032241D01*
X26414340Y-5978752D01*
X26414344Y-5978750D01*
X26414345Y-5978750D01*
X26474106Y-5939085D01*
X26518630Y-5909535D01*
X26641217Y-5800729D01*
X26649680Y-5797801D01*
X26657257Y-5801207D01*
G37*
%TD.AperFunction*%
%TD*%
%TA.AperFunction,Conductor*%
%TO.N,/USB_Data-*%
G36*
X6363961Y-6474546D02*
G01*
X6368984Y-6476648D01*
X6375293Y-6483004D01*
X6375260Y-6491958D01*
X6375088Y-6492350D01*
X6335392Y-6578238D01*
X6335254Y-6578516D01*
X6298947Y-6647270D01*
X6271889Y-6708079D01*
X6255023Y-6780857D01*
X6249823Y-6874611D01*
X6245943Y-6882682D01*
X6238141Y-6885663D01*
X6060279Y-6885663D01*
X6052006Y-6882236D01*
X6048597Y-6874611D01*
X6048082Y-6865340D01*
X6043396Y-6780858D01*
X6026529Y-6708079D01*
X5999472Y-6647270D01*
X5963160Y-6578509D01*
X5963027Y-6578241D01*
X5923329Y-6492347D01*
X5922970Y-6483402D01*
X5929042Y-6476820D01*
X5929393Y-6476665D01*
X6144694Y-6386552D01*
X6153647Y-6386520D01*
X6363961Y-6474546D01*
G37*
%TD.AperFunction*%
%TD*%
%TA.AperFunction,Conductor*%
%TO.N,/GPIO42*%
G36*
X72533818Y-14388634D02*
G01*
X72775739Y-14624248D01*
X72958670Y-14791626D01*
X73119182Y-14933574D01*
X73302114Y-15100952D01*
X73484729Y-15278807D01*
X73543822Y-15336359D01*
X73547358Y-15344586D01*
X73544041Y-15352904D01*
X73543942Y-15353004D01*
X72955404Y-15942928D01*
X72947135Y-15946365D01*
X72947111Y-15946365D01*
X72115642Y-15945674D01*
X72107372Y-15942240D01*
X72103952Y-15933964D01*
X72104197Y-15931596D01*
X72179560Y-15570035D01*
X72180901Y-15566543D01*
X72348567Y-15278909D01*
X72348700Y-15278694D01*
X72463995Y-15100952D01*
X72506252Y-15035808D01*
X72551770Y-14797451D01*
X72551769Y-14797450D01*
X72551770Y-14797450D01*
X72388907Y-14529855D01*
X72387533Y-14521006D01*
X72390626Y-14515501D01*
X72517384Y-14388743D01*
X72525656Y-14385317D01*
X72533818Y-14388634D01*
G37*
%TD.AperFunction*%
%TD*%
%TA.AperFunction,Conductor*%
%TO.N,Net-(USB1-CC1)*%
G36*
X8978702Y-2261543D02*
G01*
X9193930Y-2351625D01*
X9200239Y-2357981D01*
X9200206Y-2366935D01*
X9200009Y-2367378D01*
X9159848Y-2453174D01*
X9159679Y-2453507D01*
X9122139Y-2521947D01*
X9122138Y-2521947D01*
X9093614Y-2582386D01*
X9093613Y-2582389D01*
X9075534Y-2654864D01*
X9075532Y-2654871D01*
X9069873Y-2748673D01*
X9065954Y-2756724D01*
X9058194Y-2759668D01*
X8880327Y-2759668D01*
X8872054Y-2756241D01*
X8868642Y-2748566D01*
X8863870Y-2655332D01*
X8863870Y-2655331D01*
X8863769Y-2654864D01*
X8848153Y-2582639D01*
X8822508Y-2521783D01*
X8787387Y-2452951D01*
X8748260Y-2367322D01*
X8747940Y-2358375D01*
X8754040Y-2351819D01*
X8754334Y-2351690D01*
X8969694Y-2261552D01*
X8978646Y-2261520D01*
X8978702Y-2261543D01*
G37*
%TD.AperFunction*%
%TD*%
%TA.AperFunction,Conductor*%
%TO.N,/VDD_3.3V*%
G36*
X25831227Y-14682074D02*
G01*
X25957917Y-14808764D01*
X25961344Y-14817037D01*
X25958815Y-14824302D01*
X25734292Y-15107731D01*
X25734291Y-15107732D01*
X25643424Y-15358453D01*
X25619182Y-15608856D01*
X25588178Y-15898423D01*
X25587750Y-15900541D01*
X25480281Y-16258557D01*
X25474620Y-16265495D01*
X25465711Y-16266399D01*
X25464609Y-16266007D01*
X24695050Y-15948225D01*
X24688712Y-15941901D01*
X24370924Y-15172330D01*
X24370934Y-15163375D01*
X24377273Y-15157050D01*
X24378371Y-15156660D01*
X24736981Y-15049418D01*
X24739108Y-15048993D01*
X25029341Y-15018862D01*
X25029340Y-15018862D01*
X25280418Y-14995683D01*
X25280422Y-14995682D01*
X25280425Y-14995682D01*
X25531768Y-14905615D01*
X25815701Y-14681167D01*
X25824314Y-14678726D01*
X25831227Y-14682074D01*
G37*
%TD.AperFunction*%
%TD*%
%TA.AperFunction,Conductor*%
%TO.N,/VDD_3.3V*%
G36*
X10846125Y-3179194D02*
G01*
X10903564Y-3203125D01*
X10909883Y-3209470D01*
X10909864Y-3218425D01*
X10909609Y-3218994D01*
X10830499Y-3383578D01*
X10830260Y-3384025D01*
X10792316Y-3448091D01*
X10757368Y-3507099D01*
X10723509Y-3570963D01*
X10700058Y-3615197D01*
X10700056Y-3615202D01*
X10662615Y-3745566D01*
X10662615Y-3745569D01*
X10649977Y-3924786D01*
X10645977Y-3932798D01*
X10638306Y-3935663D01*
X10360114Y-3935663D01*
X10351841Y-3932236D01*
X10348443Y-3924786D01*
X10347283Y-3908339D01*
X10335804Y-3745571D01*
X10298363Y-3615202D01*
X10241050Y-3507099D01*
X10168151Y-3384013D01*
X10167919Y-3383579D01*
X10088810Y-3218994D01*
X10088314Y-3210052D01*
X10094286Y-3203380D01*
X10094845Y-3203129D01*
X10494711Y-3036536D01*
X10503662Y-3036518D01*
X10846125Y-3179194D01*
G37*
%TD.AperFunction*%
%TD*%
%TA.AperFunction,Conductor*%
%TO.N,/SPICLK{slash}GPIO30*%
G36*
X52571506Y-11098924D02*
G01*
X52787440Y-11187435D01*
X52793796Y-11193744D01*
X52793829Y-11193824D01*
X52882333Y-11409741D01*
X52882300Y-11418695D01*
X52875944Y-11425004D01*
X52875546Y-11425159D01*
X52786742Y-11457822D01*
X52786448Y-11457921D01*
X52724545Y-11477039D01*
X52712163Y-11480863D01*
X52650031Y-11504728D01*
X52650028Y-11504730D01*
X52586642Y-11544265D01*
X52516669Y-11606882D01*
X52508219Y-11609845D01*
X52500594Y-11606436D01*
X52374827Y-11480669D01*
X52371400Y-11472396D01*
X52374379Y-11464597D01*
X52436997Y-11394623D01*
X52476533Y-11331234D01*
X52500400Y-11269104D01*
X52523342Y-11194809D01*
X52523440Y-11194520D01*
X52523696Y-11193824D01*
X52556105Y-11105716D01*
X52562178Y-11099136D01*
X52571125Y-11098776D01*
X52571506Y-11098924D01*
G37*
%TD.AperFunction*%
%TD*%
%TA.AperFunction,Conductor*%
%TO.N,/VDD_3.3V*%
G36*
X20393999Y1984853D02*
G01*
X20400324Y1978514D01*
X20400584Y1977824D01*
X20516515Y1637835D01*
X20516683Y1637239D01*
X20577224Y1370028D01*
X20637161Y1143497D01*
X20637163Y1143492D01*
X20755202Y914360D01*
X20983106Y647256D01*
X20985869Y638738D01*
X20982479Y631389D01*
X20644213Y293123D01*
X20635940Y289696D01*
X20628346Y292496D01*
X20361242Y520400D01*
X20361242Y520401D01*
X20132110Y638439D01*
X20132109Y638440D01*
X20132106Y638441D01*
X19905574Y698378D01*
X19905573Y698379D01*
X19638363Y758919D01*
X19637767Y759087D01*
X19297778Y875018D01*
X19291054Y880932D01*
X19290480Y889868D01*
X19290732Y890540D01*
X19608703Y1660554D01*
X19615024Y1666889D01*
X20385045Y1984862D01*
X20393999Y1984853D01*
G37*
%TD.AperFunction*%
%TD*%
%TA.AperFunction,Conductor*%
%TO.N,/SPIWP{slash}GPIO28*%
G36*
X33450001Y-14680236D02*
G01*
X33576691Y-14806926D01*
X33580118Y-14815199D01*
X33577592Y-14822460D01*
X33353028Y-15106208D01*
X33262495Y-15357284D01*
X33238723Y-15608075D01*
X33208102Y-15898024D01*
X33207675Y-15900154D01*
X33100276Y-16258550D01*
X33094618Y-16265491D01*
X33085709Y-16266399D01*
X33084602Y-16266005D01*
X33083357Y-16265491D01*
X32315049Y-15948224D01*
X32308712Y-15941901D01*
X31990922Y-15172323D01*
X31990931Y-15163369D01*
X31997270Y-15157044D01*
X31998356Y-15156657D01*
X32356774Y-15049249D01*
X32358900Y-15048823D01*
X32648851Y-15018203D01*
X32899639Y-14994432D01*
X33025179Y-14949164D01*
X33150718Y-14903898D01*
X33150718Y-14903897D01*
X33150720Y-14903897D01*
X33434469Y-14679334D01*
X33443081Y-14676888D01*
X33450001Y-14680236D01*
G37*
%TD.AperFunction*%
%TD*%
%TA.AperFunction,Conductor*%
%TO.N,/U0TXD*%
G36*
X24829451Y-7464087D02*
G01*
X25045385Y-7552598D01*
X25051741Y-7558907D01*
X25051774Y-7558987D01*
X25140278Y-7774904D01*
X25140245Y-7783858D01*
X25133889Y-7790167D01*
X25133491Y-7790322D01*
X25044687Y-7822985D01*
X25044393Y-7823084D01*
X24982490Y-7842202D01*
X24970108Y-7846026D01*
X24907976Y-7869891D01*
X24907973Y-7869893D01*
X24844587Y-7909428D01*
X24774614Y-7972045D01*
X24766164Y-7975008D01*
X24758539Y-7971599D01*
X24632772Y-7845832D01*
X24629345Y-7837559D01*
X24632324Y-7829760D01*
X24694942Y-7759786D01*
X24734478Y-7696397D01*
X24758345Y-7634267D01*
X24781287Y-7559972D01*
X24781385Y-7559683D01*
X24781641Y-7558987D01*
X24814050Y-7470879D01*
X24820123Y-7464299D01*
X24829070Y-7463939D01*
X24829451Y-7464087D01*
G37*
%TD.AperFunction*%
%TD*%
%TA.AperFunction,Conductor*%
%TO.N,/VDD_5V*%
G36*
X8296503Y-8658590D02*
G01*
X8299928Y-8666641D01*
X8303236Y-8841066D01*
X8316918Y-8973267D01*
X8345411Y-9085296D01*
X8393374Y-9210687D01*
X8460932Y-9372145D01*
X8460964Y-9381100D01*
X8454655Y-9387454D01*
X8454639Y-9387461D01*
X8054210Y-9554288D01*
X8045255Y-9554307D01*
X8045210Y-9554288D01*
X7644780Y-9387461D01*
X7638461Y-9381116D01*
X7638480Y-9372161D01*
X7638487Y-9372145D01*
X7706045Y-9210687D01*
X7706045Y-9210686D01*
X7754005Y-9085301D01*
X7782500Y-8973269D01*
X7796183Y-8841065D01*
X7799492Y-8666640D01*
X7803075Y-8658434D01*
X7811190Y-8655163D01*
X8288230Y-8655163D01*
X8296503Y-8658590D01*
G37*
%TD.AperFunction*%
%TD*%
M02*
