%TF.GenerationSoftware,KiCad,Pcbnew,7.0.1*%
%TF.CreationDate,2023-03-19T17:52:52+08:00*%
%TF.ProjectId,UINIO-MCU-ESP32S3,55494e49-4f2d-44d4-9355-2d4553503332,Version 2.0.0*%
%TF.SameCoordinates,PX629df6ePY56b2a99*%
%TF.FileFunction,Copper,L2,Bot*%
%TF.FilePolarity,Positive*%
%FSLAX46Y46*%
G04 Gerber Fmt 4.6, Leading zero omitted, Abs format (unit mm)*
G04 Created by KiCad (PCBNEW 7.0.1) date 2023-03-19 17:52:52*
%MOMM*%
%LPD*%
G01*
G04 APERTURE LIST*
%TA.AperFunction,ComponentPad*%
%ADD10C,1.200000*%
%TD*%
%TA.AperFunction,ComponentPad*%
%ADD11R,1.700000X1.700000*%
%TD*%
%TA.AperFunction,ComponentPad*%
%ADD12O,1.700000X1.700000*%
%TD*%
%TA.AperFunction,ComponentPad*%
%ADD13O,2.100000X1.000000*%
%TD*%
%TA.AperFunction,ComponentPad*%
%ADD14O,1.900000X1.000000*%
%TD*%
%TA.AperFunction,ComponentPad*%
%ADD15R,0.500000X0.900000*%
%TD*%
%TA.AperFunction,ViaPad*%
%ADD16C,0.500000*%
%TD*%
%TA.AperFunction,ViaPad*%
%ADD17C,0.700000*%
%TD*%
%TA.AperFunction,ViaPad*%
%ADD18C,0.900000*%
%TD*%
%TA.AperFunction,Conductor*%
%ADD19C,0.300000*%
%TD*%
%TA.AperFunction,Conductor*%
%ADD20C,0.200000*%
%TD*%
%TA.AperFunction,Conductor*%
%ADD21C,0.500000*%
%TD*%
%TA.AperFunction,Conductor*%
%ADD22C,0.400000*%
%TD*%
%TA.AperFunction,Conductor*%
%ADD23C,0.600000*%
%TD*%
G04 APERTURE END LIST*
D10*
%TO.P,HOLE\u002A\u002A,*%
%TO.N,*%
X85549210Y-15945663D03*
%TD*%
%TO.P,HOLE\u002A\u002A,*%
%TO.N,*%
X14416265Y-15945663D03*
%TD*%
D11*
%TO.P,J3,1,Pin_1*%
%TO.N,/DTR*%
X4189210Y1664337D03*
D12*
%TO.P,J3,2,Pin_2*%
%TO.N,/U0TXD*%
X6729210Y1664337D03*
%TO.P,J3,3,Pin_3*%
%TO.N,/U0RXD*%
X9269210Y1664337D03*
%TO.P,J3,4,Pin_4*%
%TO.N,/RTS*%
X11809210Y1664337D03*
%TD*%
D13*
%TO.P,USB1,13,GND*%
%TO.N,GND*%
X6208210Y-2807831D03*
%TO.P,USB1,14,GND*%
X6208210Y-11457831D03*
D14*
%TO.P,USB1,15,GND*%
X2008210Y-2807831D03*
%TO.P,USB1,16,GND*%
X2008210Y-11457831D03*
%TD*%
D10*
%TO.P,HOLE\u002A\u002A,*%
%TO.N,*%
X14416265Y1664337D03*
%TD*%
D11*
%TO.P,J1,1,Pin_1*%
%TO.N,GND*%
X6739210Y-15945663D03*
D12*
%TO.P,J1,2,Pin_2*%
%TO.N,Net-(J1-Pin_2)*%
X9279210Y-15945663D03*
%TO.P,J1,3,Pin_3*%
%TO.N,Net-(J1-Pin_3)*%
X11819210Y-15945663D03*
%TD*%
D15*
%TO.P,AE1,2,PCB_Trace*%
%TO.N,GND*%
X85466265Y-510000D03*
%TD*%
D10*
%TO.P,HOLE\u002A\u002A,*%
%TO.N,*%
X85549210Y1664337D03*
%TD*%
D11*
%TO.P,J2,1,Pin_1*%
%TO.N,GND*%
X83111265Y1664337D03*
D12*
%TO.P,J2,2,Pin_2*%
%TO.N,/VDD_3.3V*%
X80571265Y1664337D03*
%TO.P,J2,3,Pin_3*%
%TO.N,/GPIO0*%
X78031265Y1664337D03*
%TO.P,J2,4,Pin_4*%
%TO.N,/GPIO1*%
X75491265Y1664337D03*
%TO.P,J2,5,Pin_5*%
%TO.N,/GPIO2*%
X72951265Y1664337D03*
%TO.P,J2,6,Pin_6*%
%TO.N,/GPIO3*%
X70411265Y1664337D03*
%TO.P,J2,7,Pin_7*%
%TO.N,/GPIO4*%
X67871265Y1664337D03*
%TO.P,J2,8,Pin_8*%
%TO.N,/GPIO5*%
X65331265Y1664337D03*
%TO.P,J2,9,Pin_9*%
%TO.N,/GPIO6*%
X62791265Y1664337D03*
%TO.P,J2,10,Pin_10*%
%TO.N,/GPIO7*%
X60251265Y1664337D03*
%TO.P,J2,11,Pin_11*%
%TO.N,/GPIO8*%
X57711265Y1664337D03*
%TO.P,J2,12,Pin_12*%
%TO.N,/GPIO9*%
X55171265Y1664337D03*
%TO.P,J2,13,Pin_13*%
%TO.N,/GPIO10*%
X52631265Y1664337D03*
%TO.P,J2,14,Pin_14*%
%TO.N,/GPIO11*%
X50091265Y1664337D03*
%TO.P,J2,15,Pin_15*%
%TO.N,/GPIO12*%
X47551265Y1664337D03*
%TO.P,J2,16,Pin_16*%
%TO.N,/GPIO13*%
X45011265Y1664337D03*
%TO.P,J2,17,Pin_17*%
%TO.N,/GPIO14*%
X42471265Y1664337D03*
%TO.P,J2,18,Pin_18*%
%TO.N,/GPIO15*%
X39931265Y1664337D03*
%TO.P,J2,19,Pin_19*%
%TO.N,/GPIO16*%
X37391265Y1664337D03*
%TO.P,J2,20,Pin_20*%
%TO.N,/GPIO17*%
X34851265Y1664337D03*
%TO.P,J2,21,Pin_21*%
%TO.N,/GPIO18*%
X32311265Y1664337D03*
%TO.P,J2,22,Pin_22*%
%TO.N,/GPIO19{slash}ESP32_USB_D-*%
X29771265Y1664337D03*
%TO.P,J2,23,Pin_23*%
%TO.N,/GPIO20{slash}ESP32_USB_D+*%
X27231265Y1664337D03*
%TO.P,J2,24,Pin_24*%
%TO.N,/GPIO21*%
X24691265Y1664337D03*
%TO.P,J2,25,Pin_25*%
%TO.N,/SPICS1{slash}GPIO26*%
X22151265Y1664337D03*
%TO.P,J2,26,Pin_26*%
%TO.N,/VDD_3.3V*%
X19611265Y1664337D03*
%TO.P,J2,27,Pin_27*%
%TO.N,GND*%
X17071265Y1664337D03*
%TD*%
D11*
%TO.P,J4,1,Pin_1*%
%TO.N,GND*%
X83111265Y-15945663D03*
D12*
%TO.P,J4,2,Pin_2*%
%TO.N,/VDD_3.3V*%
X80571265Y-15945663D03*
%TO.P,J4,3,Pin_3*%
%TO.N,/GPIO46*%
X78031265Y-15945663D03*
%TO.P,J4,4,Pin_4*%
%TO.N,/GPIO45*%
X75491265Y-15945663D03*
%TO.P,J4,5,Pin_5*%
%TO.N,/GPIO42*%
X72951265Y-15945663D03*
%TO.P,J4,6,Pin_6*%
%TO.N,/GPIO41*%
X70411265Y-15945663D03*
%TO.P,J4,7,Pin_7*%
%TO.N,/GPIO40*%
X67871265Y-15945663D03*
%TO.P,J4,8,Pin_8*%
%TO.N,/GPIO39*%
X65331265Y-15945663D03*
%TO.P,J4,9,Pin_9*%
%TO.N,/GPIO38*%
X62791265Y-15945663D03*
%TO.P,J4,10,Pin_10*%
%TO.N,/GPIO37*%
X60251265Y-15945663D03*
%TO.P,J4,11,Pin_11*%
%TO.N,/GPIO36*%
X57711265Y-15945663D03*
%TO.P,J4,12,Pin_12*%
%TO.N,/GPIO35*%
X55171265Y-15945663D03*
%TO.P,J4,13,Pin_13*%
%TO.N,/GPIO34*%
X52631265Y-15945663D03*
%TO.P,J4,14,Pin_14*%
%TO.N,/GPIO33*%
X50091265Y-15945663D03*
%TO.P,J4,15,Pin_15*%
%TO.N,/SPICLK_P{slash}GPIO47*%
X47551265Y-15945663D03*
%TO.P,J4,16,Pin_16*%
%TO.N,/SPICLK_N{slash}GPIO48*%
X45011265Y-15945663D03*
%TO.P,J4,17,Pin_17*%
%TO.N,/SPID{slash}GPIO32*%
X42471265Y-15945663D03*
%TO.P,J4,18,Pin_18*%
%TO.N,/SPIQ{slash}GPIO31*%
X39931265Y-15945663D03*
%TO.P,J4,19,Pin_19*%
%TO.N,/SPICLK{slash}GPIO30*%
X37391265Y-15945663D03*
%TO.P,J4,20,Pin_20*%
%TO.N,/SPICS0{slash}GPIO29*%
X34851265Y-15945663D03*
%TO.P,J4,21,Pin_21*%
%TO.N,/SPIWP{slash}GPIO28*%
X32311265Y-15945663D03*
%TO.P,J4,22,Pin_22*%
%TO.N,/SPIHD{slash}GPIO27*%
X29771265Y-15945663D03*
%TO.P,J4,23,Pin_23*%
%TO.N,/VDD_SPI{slash}GPIO11*%
X27231265Y-15945663D03*
%TO.P,J4,24,Pin_24*%
%TO.N,/VDD_3.3V*%
X24691265Y-15945663D03*
%TO.P,J4,25,Pin_25*%
%TO.N,GND*%
X22151265Y-15945663D03*
%TO.P,J4,26,Pin_26*%
%TO.N,/VDD_5V*%
X19611265Y-15945663D03*
%TO.P,J4,27,Pin_27*%
%TO.N,GND*%
X17071265Y-15945663D03*
%TD*%
D16*
%TO.N,GND*%
X24066076Y-2319500D03*
X81860000Y-7160000D03*
X66611265Y-12580000D03*
X76850000Y-4990000D03*
X8060000Y-3510000D03*
X84770000Y-12160000D03*
X83800000Y-11160000D03*
X75620000Y-12170000D03*
X72280000Y-3360000D03*
X83800000Y-8160000D03*
X82830000Y-12160000D03*
X82830000Y-4160000D03*
X81860000Y-9160000D03*
X81860000Y-8160000D03*
X84770000Y-7160000D03*
X73190000Y-3360000D03*
X82830000Y-160000D03*
X77140000Y-7570000D03*
D17*
X10501265Y-6941265D03*
D16*
X80890000Y-4160000D03*
D18*
X64131265Y-6100000D03*
D16*
X73190000Y-6620000D03*
X29725000Y-4115000D03*
D17*
X53411265Y-8520000D03*
D16*
X83800000Y-10160000D03*
X79920000Y-2160000D03*
X13844210Y-10915000D03*
X78845000Y-12170000D03*
X78070000Y-8490000D03*
X83800000Y-7160000D03*
D17*
X73310000Y-8390000D03*
D16*
X84770000Y-1160000D03*
X75010000Y-6620000D03*
X64160000Y-12580000D03*
X40130000Y-11960000D03*
X80890000Y-1160000D03*
X76695000Y-12170000D03*
X78066666Y-6620000D03*
X81800000Y-2160000D03*
X79920000Y-13160000D03*
D17*
X60861265Y-2065163D03*
D16*
X80890000Y-160000D03*
X80890000Y-9160000D03*
D18*
X65281265Y-9320000D03*
D16*
X81800000Y-1160000D03*
X33581265Y-1400000D03*
X84770000Y-10160000D03*
X78993332Y-4990000D03*
X48490000Y-4830000D03*
X81860000Y-14160000D03*
X73190000Y-1820000D03*
X79920000Y-14160000D03*
D18*
X28625000Y-13315000D03*
D16*
X46620000Y-4830000D03*
X82830000Y-1160000D03*
X26575000Y-8690000D03*
X84770000Y-6160000D03*
X29725000Y-6390000D03*
D17*
X40040000Y-4940000D03*
D16*
X40390000Y-9010000D03*
D17*
X55000000Y-8850000D03*
D16*
X81860000Y-10160000D03*
X79920000Y-12150000D03*
X79920000Y-9150000D03*
X77140000Y-6620000D03*
X81800000Y-3160000D03*
X58253148Y-8843372D03*
X80890000Y-2160000D03*
D18*
X17075000Y-2490000D03*
D16*
X82830000Y-14160000D03*
X77770000Y-12170000D03*
X82830000Y-2160000D03*
X20880000Y-620000D03*
X84770000Y-160000D03*
X78993332Y-7570000D03*
X79920000Y-11160000D03*
X83800000Y-1160000D03*
D18*
X67471265Y-7130000D03*
D16*
X80890000Y-3160000D03*
X22000000Y-2780000D03*
X79910000Y-4990000D03*
X76695000Y-13170000D03*
D18*
X66421265Y-8190000D03*
D17*
X24345000Y-3825000D03*
D16*
X25780000Y-2319500D03*
X81800000Y-160000D03*
X80890000Y-14160000D03*
X78845000Y-13170000D03*
X79920000Y-4160000D03*
D18*
X65281265Y-4940000D03*
D16*
X82830000Y-11160000D03*
X80880000Y-4990000D03*
X80890000Y-8160000D03*
X79920000Y-3160000D03*
X13844210Y-12620790D03*
D17*
X22911265Y-5270000D03*
X20691265Y-7480000D03*
D16*
X84770000Y-11160000D03*
X43430000Y-8820000D03*
X80890000Y-7160000D03*
X75010000Y-4990000D03*
X10901265Y-13240000D03*
X70450000Y-5290000D03*
X79920000Y-10150000D03*
X77770000Y-13170000D03*
X80890000Y-10160000D03*
X27325000Y-6390000D03*
X80890000Y-11160000D03*
X71356666Y-4990000D03*
D18*
X63101265Y-7130000D03*
D16*
X84770000Y-4160000D03*
X80890000Y-13160000D03*
X82830000Y-7160000D03*
X79920000Y-1160000D03*
D18*
X18761265Y-14189500D03*
D16*
X79920000Y-7150000D03*
X72280000Y-4990000D03*
X78996666Y-8490000D03*
X71370000Y-6620000D03*
D18*
X65281265Y-7130000D03*
D17*
X54570000Y-4810000D03*
D16*
X84770000Y-14160000D03*
X78066666Y-7570000D03*
X84770000Y-13160000D03*
X82830000Y-9160000D03*
D17*
X73311265Y-12050000D03*
X56881265Y-5250000D03*
D16*
X79920000Y-160000D03*
X44010000Y-12546163D03*
X82830000Y-13160000D03*
D18*
X17087764Y-164500D03*
D16*
X83800000Y-12160000D03*
X70460000Y-6620000D03*
X29720000Y-1869500D03*
X83800000Y-2160000D03*
D17*
X46830632Y-9929368D03*
D16*
X83800000Y-14160000D03*
X84770000Y-5160000D03*
X83800000Y-13160000D03*
X80890000Y-12160000D03*
X26781765Y-1869500D03*
X82830000Y-8160000D03*
X81860000Y-12160000D03*
X72280000Y-6620000D03*
X19350000Y-2565000D03*
D18*
X64131265Y-8190000D03*
D16*
X10501265Y-9780000D03*
X84770000Y-9160000D03*
D18*
X66421265Y-6100000D03*
D16*
X73190000Y-4990000D03*
X83800000Y-9160000D03*
X79920000Y-8150000D03*
X82830000Y-5030000D03*
X83800000Y-160000D03*
X82830000Y-3160000D03*
X81860000Y-13160000D03*
X25420000Y-13860000D03*
X84770000Y-8160000D03*
X81800000Y-4160000D03*
X81860000Y-11160000D03*
X82830000Y-10160000D03*
D18*
%TO.N,/VDD_5V*%
X8049710Y-4732831D03*
D17*
X30771265Y-6480000D03*
X26331265Y-6465163D03*
D18*
X8049710Y-9555163D03*
D17*
%TO.N,/VDD_3.3V*%
X23325000Y-2965000D03*
D18*
X78251265Y-630000D03*
D17*
X23740829Y-7166932D03*
X70480000Y-7575663D03*
X61871265Y-2070000D03*
D18*
X23321265Y-630000D03*
D17*
X14891265Y-11485663D03*
D16*
X29025500Y-8115000D03*
D18*
X10499210Y-3035663D03*
D17*
X27308549Y-4619072D03*
X70110000Y-3380000D03*
X71661265Y-12470000D03*
D18*
X28801265Y-635663D03*
D17*
X14889210Y-7395663D03*
D16*
%TO.N,/CHIP_PU*%
X21421265Y-5600000D03*
X71754044Y-2645663D03*
X25628909Y-1420500D03*
X38779210Y-2645663D03*
X32021265Y-1400000D03*
X32021265Y-6520000D03*
D17*
%TO.N,/VDD_SPI{slash}GPIO11*%
X49611265Y-5725000D03*
X41520000Y-5725000D03*
X55240000Y-5725000D03*
D16*
%TO.N,Net-(J1-Pin_2)*%
X14191265Y-8211163D03*
%TO.N,/GPIO0*%
X37611265Y-4010000D03*
X69351265Y-4000000D03*
%TO.N,/GPIO19{slash}ESP32_USB_D-*%
X18149210Y-10635663D03*
%TO.N,/GPIO20{slash}ESP32_USB_D+*%
X19129210Y-10035663D03*
%TO.N,/DTR*%
X6960000Y-1140000D03*
X17200000Y-10726163D03*
X15581265Y-5010000D03*
X15450287Y-10714713D03*
X27351265Y-11110000D03*
%TO.N,/U0RXD*%
X69615318Y-10085163D03*
X24579210Y-7105663D03*
%TO.N,/U0TXD*%
X25049210Y-7555163D03*
X69109210Y-10535163D03*
%TO.N,/RTS*%
X20669210Y-2605663D03*
%TO.N,/GPIO45*%
X74350000Y-13810500D03*
X71240000Y-9856453D03*
%TO.N,/GPIO42*%
X69121186Y-11134546D03*
%TO.N,/GPIO41*%
X69110449Y-11742592D03*
%TO.N,/SPID{slash}GPIO32*%
X54111265Y-11190000D03*
%TO.N,/SPIQ{slash}GPIO31*%
X42791265Y-12460000D03*
%TO.N,/SPICLK{slash}GPIO30*%
X52791265Y-11190000D03*
%TO.N,/SPICS0{slash}GPIO29*%
X40131265Y-10650000D03*
%TO.N,/SPIWP{slash}GPIO28*%
X44066265Y-9280000D03*
%TO.N,/SPIHD{slash}GPIO27*%
X29771265Y-14210000D03*
X44120000Y-6450500D03*
X39430000Y-6450000D03*
%TO.N,Net-(USB1-CC1)*%
X14869210Y-1955663D03*
X10699210Y-535663D03*
X8974210Y-2260663D03*
X8969210Y-5895663D03*
%TO.N,/USB_Data-*%
X6149210Y-6385663D03*
X6152042Y-7382831D03*
%TD*%
D19*
%TO.N,GND*%
X29725000Y-1874500D02*
X29725000Y-4115000D01*
D20*
X48490000Y-4830000D02*
X46620000Y-4830000D01*
D21*
X17075000Y-177264D02*
X17075000Y-2490000D01*
D19*
X24345000Y-3825000D02*
X22911265Y-5258735D01*
D20*
X13844210Y-12620790D02*
X13844210Y-10915000D01*
D19*
X73190000Y-1820000D02*
X73190000Y-3360000D01*
D21*
X75620000Y-12170000D02*
X79900000Y-12170000D01*
D19*
X24345000Y-3825000D02*
X24345000Y-3754500D01*
D22*
X17087764Y-152764D02*
X17075000Y-165528D01*
D19*
X24345000Y-3754500D02*
X25780000Y-2319500D01*
X22911265Y-5270000D02*
X20701265Y-7480000D01*
X73310000Y-8390000D02*
X73311265Y-8391265D01*
D21*
X79920000Y-8500000D02*
X79920000Y-8150000D01*
X18761265Y-14189500D02*
X18761765Y-14190000D01*
D19*
X29725000Y-6390000D02*
X27325000Y-6390000D01*
D21*
X66611265Y-12580000D02*
X61989776Y-12580000D01*
D20*
X70750000Y-4990000D02*
X70450000Y-5290000D01*
X73190000Y-4990000D02*
X70750000Y-4990000D01*
D19*
X43451265Y-8820000D02*
X43731265Y-8540000D01*
D22*
X17075000Y-2465000D02*
X17100000Y-2490000D01*
D21*
X18761265Y-14190000D02*
X17071265Y-15880000D01*
X79900000Y-12170000D02*
X79920000Y-12150000D01*
D19*
X20701265Y-7480000D02*
X20691265Y-7480000D01*
D21*
X6208210Y-11457831D02*
X6208210Y-15414663D01*
X17087764Y-164500D02*
X17075000Y-177264D01*
D19*
X73311265Y-8391265D02*
X73311265Y-12050000D01*
X26331765Y-2319500D02*
X25780000Y-2319500D01*
X45441264Y-8540000D02*
X46830632Y-9929368D01*
X24066076Y-1383924D02*
X24070000Y-1380000D01*
X24066076Y-2319500D02*
X24066076Y-1383924D01*
D21*
X79910000Y-8490000D02*
X79920000Y-8500000D01*
D19*
X29720000Y-1869500D02*
X29725000Y-1874500D01*
D22*
X17075000Y-165528D02*
X17075000Y-765000D01*
D21*
X61989776Y-12580000D02*
X58253148Y-8843372D01*
X79920000Y-12150000D02*
X79920000Y-8500000D01*
X18761765Y-14190000D02*
X20395602Y-14190000D01*
D19*
X26781765Y-1869500D02*
X26331765Y-2319500D01*
D21*
X78070000Y-8490000D02*
X79910000Y-8490000D01*
X20395602Y-14190000D02*
X22151265Y-15945663D01*
D23*
X65281265Y-4940000D02*
X40040000Y-4940000D01*
D21*
X18761265Y-14189500D02*
X18761265Y-14190000D01*
D19*
X43731265Y-8540000D02*
X45441264Y-8540000D01*
X22911265Y-5258735D02*
X22911265Y-5270000D01*
D21*
%TO.N,/VDD_5V*%
X27306428Y-5490000D02*
X26331265Y-6465163D01*
X8049710Y-9555163D02*
X8049710Y-4732831D01*
X29781265Y-5490000D02*
X27306428Y-5490000D01*
X30771265Y-6480000D02*
X29781265Y-5490000D01*
D20*
%TO.N,/VDD_3.3V*%
X29025500Y-11614500D02*
X24694337Y-15945663D01*
D21*
X63711265Y-640000D02*
X78241265Y-640000D01*
X28805602Y-640000D02*
X63711265Y-640000D01*
D19*
X78241265Y-640000D02*
X78251265Y-630000D01*
X71661265Y-12470000D02*
X73501265Y-14310000D01*
X14889210Y-7395663D02*
X13949210Y-7395663D01*
X26290000Y-4620000D02*
X23743068Y-7166932D01*
X14891265Y-7397718D02*
X14889210Y-7395663D01*
X23321265Y-2961265D02*
X23325000Y-2965000D01*
X14891265Y-11485663D02*
X14891265Y-11500000D01*
D21*
X21905602Y-630000D02*
X19611265Y1664337D01*
D19*
X70480000Y-11300000D02*
X71650000Y-12470000D01*
X23743068Y-7166932D02*
X23740829Y-7166932D01*
X69255663Y-7575663D02*
X70480000Y-7575663D01*
X70110000Y-3380000D02*
X70110000Y-4290000D01*
X70480000Y-7575663D02*
X70480000Y-11300000D01*
X14891265Y-11500000D02*
X16881265Y-13490000D01*
X22235602Y-13490000D02*
X24691265Y-15945663D01*
X78266928Y-640000D02*
X80571265Y1664337D01*
X14891265Y-11485663D02*
X14891265Y-7397718D01*
X71650000Y-12470000D02*
X71661265Y-12470000D01*
X78261265Y-640000D02*
X78266928Y-640000D01*
X23321265Y-630000D02*
X23321265Y-2961265D01*
X13949210Y-7395663D02*
X10499210Y-3945663D01*
D21*
X23321265Y-630000D02*
X21905602Y-630000D01*
D19*
X27307621Y-4620000D02*
X26290000Y-4620000D01*
X28801265Y-635663D02*
X28805602Y-640000D01*
X16881265Y-13490000D02*
X22235602Y-13490000D01*
X73501265Y-14310000D02*
X78935602Y-14310000D01*
X68410000Y-5990000D02*
X68410000Y-6730000D01*
X63711265Y-640000D02*
X61871265Y-640000D01*
X61871265Y-640000D02*
X61871265Y-2070000D01*
X78935602Y-14310000D02*
X80571265Y-15945663D01*
X27308549Y-4619072D02*
X27307621Y-4620000D01*
X10499210Y-3945663D02*
X10499210Y-3035663D01*
X70110000Y-4290000D02*
X68410000Y-5990000D01*
X78251265Y-630000D02*
X78261265Y-640000D01*
D20*
X29025500Y-8115000D02*
X29025500Y-11614500D01*
D19*
X68410000Y-6730000D02*
X69255663Y-7575663D01*
D20*
%TO.N,/CHIP_PU*%
X32021265Y-1400000D02*
X32021265Y-6520000D01*
X38779210Y-2645663D02*
X71754044Y-2645663D01*
X25628909Y-1438909D02*
X21467818Y-5600000D01*
X21467818Y-5600000D02*
X21421265Y-5600000D01*
X25628909Y-1420500D02*
X25628909Y-1438909D01*
D19*
%TO.N,/VDD_SPI{slash}GPIO11*%
X41520000Y-5725000D02*
X55240000Y-5725000D01*
D20*
%TO.N,Net-(J1-Pin_2)*%
X14191265Y-8211163D02*
X14191265Y-8220000D01*
X9279210Y-13132055D02*
X9279210Y-15945663D01*
X14191265Y-8220000D02*
X9279210Y-13132055D01*
%TO.N,/GPIO0*%
X37621265Y-4000000D02*
X37611265Y-4010000D01*
X69351265Y-4000000D02*
X37621265Y-4000000D01*
%TO.N,/GPIO19{slash}ESP32_USB_D-*%
X28070000Y-1890000D02*
X28070000Y-36928D01*
X28070000Y-36928D02*
X29771265Y1664337D01*
X18149210Y-10635663D02*
X19324337Y-10635663D01*
X19324337Y-10635663D02*
X28070000Y-1890000D01*
%TO.N,/GPIO20{slash}ESP32_USB_D+*%
X19500073Y-10035663D02*
X27231265Y-2304471D01*
X19129210Y-10035663D02*
X19500073Y-10035663D01*
X27231265Y-2304471D02*
X27231265Y1664337D01*
%TO.N,/DTR*%
X15450287Y-10719022D02*
X17696265Y-12965000D01*
X6960000Y-1140000D02*
X6960000Y-1100000D01*
X16711265Y-6140000D02*
X15581265Y-5010000D01*
X16711265Y-10237428D02*
X16711265Y-6140000D01*
X6960000Y-1100000D02*
X4195663Y1664337D01*
X15450287Y-10714713D02*
X15450287Y-10719022D01*
X17200000Y-10726163D02*
X16711265Y-10237428D01*
X25496265Y-12965000D02*
X27351265Y-11110000D01*
X17696265Y-12965000D02*
X25496265Y-12965000D01*
%TO.N,/U0RXD*%
X24579210Y-7105663D02*
X20509210Y-11175663D01*
X16971192Y-11175663D02*
X15969210Y-10173681D01*
X20509210Y-11175663D02*
X16971192Y-11175663D01*
X15969210Y-7151399D02*
X9269210Y-451399D01*
X24579210Y-7105663D02*
X58426928Y-7105663D01*
X61406428Y-10085163D02*
X69615318Y-10085163D01*
X58426928Y-7105663D02*
X61406428Y-10085163D01*
X15969210Y-10173681D02*
X15969210Y-7151399D01*
X9269210Y-451399D02*
X9269210Y1664337D01*
%TO.N,/U0TXD*%
X25049210Y-7555163D02*
X58236428Y-7555163D01*
X15669210Y-7275663D02*
X6729210Y1664337D01*
X25049210Y-7555163D02*
X21128710Y-11475663D01*
X21128710Y-11475663D02*
X16846928Y-11475663D01*
X61216428Y-10535163D02*
X69109210Y-10535163D01*
X58236428Y-7555163D02*
X61216428Y-10535163D01*
X16846928Y-11475663D02*
X15669210Y-10297945D01*
X15669210Y-10297945D02*
X15669210Y-7275663D01*
%TO.N,/RTS*%
X13000000Y485000D02*
X17578547Y485000D01*
X11820663Y1664337D02*
X13000000Y485000D01*
X17578547Y485000D02*
X20669210Y-2605663D01*
%TO.N,/GPIO45*%
X73710500Y-13810500D02*
X74350000Y-13810500D01*
X72530000Y-12630000D02*
X73710500Y-13810500D01*
X72530000Y-11146453D02*
X72530000Y-12630000D01*
X71240000Y-9856453D02*
X72530000Y-11146453D01*
%TO.N,/GPIO42*%
X72951265Y-14947718D02*
X72951265Y-15945663D01*
X69121186Y-11134546D02*
X69138093Y-11134546D01*
X69138093Y-11134546D02*
X72951265Y-14947718D01*
%TO.N,/GPIO41*%
X69110449Y-11742592D02*
X70411265Y-13043408D01*
X70411265Y-13043408D02*
X70411265Y-15945663D01*
%TO.N,/SPID{slash}GPIO32*%
X44116928Y-14300000D02*
X42471265Y-15945663D01*
X54111265Y-11190000D02*
X51001265Y-14300000D01*
X51001265Y-14300000D02*
X44116928Y-14300000D01*
%TO.N,/SPIQ{slash}GPIO31*%
X42791265Y-13085663D02*
X39931265Y-15945663D01*
X42791265Y-12460000D02*
X42791265Y-13085663D01*
%TO.N,/SPICLK{slash}GPIO30*%
X52121265Y-11860000D02*
X41476928Y-11860000D01*
X41476928Y-11860000D02*
X37391265Y-15945663D01*
X52791265Y-11190000D02*
X52121265Y-11860000D01*
%TO.N,/SPICS0{slash}GPIO29*%
X38416928Y-12380000D02*
X34851265Y-15945663D01*
X40131265Y-10650000D02*
X38416928Y-12364337D01*
X38416928Y-12364337D02*
X38416928Y-12380000D01*
%TO.N,/SPIWP{slash}GPIO28*%
X43360000Y-9990000D02*
X38266928Y-9990000D01*
X44066265Y-9283735D02*
X43360000Y-9990000D01*
X38266928Y-9990000D02*
X32311265Y-15945663D01*
X44066265Y-9280000D02*
X44066265Y-9283735D01*
%TO.N,/SPIHD{slash}GPIO27*%
X44120000Y-6450500D02*
X44119500Y-6450000D01*
X39430000Y-6450000D02*
X44119500Y-6450000D01*
X29771265Y-15945663D02*
X29771265Y-14210000D01*
%TO.N,Net-(USB1-CC1)*%
X8974210Y-2260663D02*
X8969210Y-2265663D01*
X8969210Y-2265663D02*
X8969210Y-5895663D01*
X14869210Y-1155663D02*
X14249210Y-535663D01*
X14249210Y-535663D02*
X10699210Y-535663D01*
X14869210Y-1955663D02*
X14869210Y-1155663D01*
%TO.N,/USB_Data-*%
X6149210Y-6385663D02*
X6149210Y-7379999D01*
X6149210Y-7379999D02*
X6152042Y-7382831D01*
%TD*%
%TA.AperFunction,Conductor*%
%TO.N,GND*%
G36*
X2747767Y2736817D02*
G01*
X2796879Y2708434D01*
X2828213Y2661150D01*
X2835212Y2604859D01*
X2830710Y2562975D01*
X2830710Y765703D01*
X2837221Y705132D01*
X2888320Y568134D01*
X2975948Y451076D01*
X3093006Y363448D01*
X3230004Y312349D01*
X3230007Y312349D01*
X3230009Y312348D01*
X3290572Y305837D01*
X3763013Y305837D01*
X3787687Y303358D01*
X3790082Y302871D01*
X4081445Y266639D01*
X4096695Y263764D01*
X4367764Y194827D01*
X4381654Y190409D01*
X4641370Y90605D01*
X4660624Y83206D01*
X4672851Y77732D01*
X4960842Y-70363D01*
X4971287Y-76393D01*
X5206787Y-228102D01*
X5254003Y-258518D01*
X5274531Y-275080D01*
X6153415Y-1153964D01*
X6174648Y-1182368D01*
X6186972Y-1215620D01*
X6192239Y-1240159D01*
X6199068Y-1268125D01*
X6199427Y-1269436D01*
X6208043Y-1297659D01*
X6232628Y-1370607D01*
X6238439Y-1387848D01*
X6247791Y-1406663D01*
X6250842Y-1412801D01*
X6256843Y-1427037D01*
X6272290Y-1471181D01*
X6272291Y-1471183D01*
X6352479Y-1598801D01*
X6363230Y-1615910D01*
X6421891Y-1674571D01*
X6448771Y-1714799D01*
X6458210Y-1762252D01*
X6458210Y-2557831D01*
X7731576Y-2557831D01*
X7731277Y-2555882D01*
X7660645Y-2365167D01*
X7553064Y-2192567D01*
X7412943Y-2045161D01*
X7344799Y-1997731D01*
X7305060Y-1952071D01*
X7291670Y-1893039D01*
X7307821Y-1834703D01*
X7349662Y-1790963D01*
X7435909Y-1736771D01*
X7556771Y-1615909D01*
X7647709Y-1471183D01*
X7704162Y-1309850D01*
X7723299Y-1140000D01*
X7704162Y-970150D01*
X7647709Y-808817D01*
X7556771Y-664091D01*
X7435909Y-543229D01*
X7291183Y-452291D01*
X7287535Y-451014D01*
X7267785Y-444103D01*
X7248274Y-435320D01*
X7233981Y-427336D01*
X7150312Y-394152D01*
X7149835Y-393962D01*
X7137882Y-389164D01*
X7129177Y-385669D01*
X7090401Y-360906D01*
X7061267Y-333495D01*
X7035527Y-313572D01*
X7023744Y-303195D01*
X6680902Y39647D01*
X6649872Y91500D01*
X6647034Y151862D01*
X6673063Y206397D01*
X6721776Y242155D01*
X6781606Y250642D01*
X6934434Y234503D01*
X7012760Y226231D01*
X7018228Y225683D01*
X7188873Y209507D01*
X7219230Y202709D01*
X7296654Y174792D01*
X7331543Y155379D01*
X7533742Y-4646D01*
X7533745Y-4648D01*
X7534213Y-4954D01*
X7537371Y-7518D01*
X7538167Y-8148D01*
X7538159Y-8157D01*
X7554092Y-21094D01*
X8846412Y-1313414D01*
X8877885Y-1366767D01*
X8879622Y-1428687D01*
X8851191Y-1483722D01*
X8799686Y-1518136D01*
X8643029Y-1572952D01*
X8498299Y-1663893D01*
X8377440Y-1784752D01*
X8291304Y-1921835D01*
X8286501Y-1929480D01*
X8244114Y-2050614D01*
X8230047Y-2090816D01*
X8210910Y-2260662D01*
X8230047Y-2430511D01*
X8271085Y-2547793D01*
X8272685Y-2552689D01*
X8281208Y-2580734D01*
X8320226Y-2666126D01*
X8324541Y-2675329D01*
X8324709Y-2675677D01*
X8330121Y-2686599D01*
X8341627Y-2709148D01*
X8355011Y-2759160D01*
X8355306Y-2764916D01*
X8355813Y-2774818D01*
X8359389Y-2799115D01*
X8360710Y-2817166D01*
X8360710Y-3663510D01*
X8342011Y-3728990D01*
X8291554Y-3774722D01*
X8224556Y-3786913D01*
X8049710Y-3769693D01*
X7861809Y-3788199D01*
X7681133Y-3843007D01*
X7514619Y-3932010D01*
X7368669Y-4051790D01*
X7248889Y-4197740D01*
X7159886Y-4364254D01*
X7105078Y-4544930D01*
X7086914Y-4729357D01*
X7086572Y-4732831D01*
X7088111Y-4748458D01*
X7105078Y-4920731D01*
X7161472Y-5106636D01*
X7161648Y-5106563D01*
X7228522Y-5266389D01*
X7229949Y-5269952D01*
X7261137Y-5351488D01*
X7265494Y-5365222D01*
X7273357Y-5396136D01*
X7276524Y-5413937D01*
X7282646Y-5473089D01*
X7283283Y-5483501D01*
X7286083Y-5631093D01*
X7290377Y-5667942D01*
X7291210Y-5682292D01*
X7291210Y-8605702D01*
X7290377Y-8620053D01*
X7286083Y-8656899D01*
X7283283Y-8804490D01*
X7282646Y-8814903D01*
X7276524Y-8874054D01*
X7273357Y-8891854D01*
X7265494Y-8922768D01*
X7261136Y-8936503D01*
X7229954Y-9018023D01*
X7228529Y-9021584D01*
X7193798Y-9104590D01*
X7164784Y-9173935D01*
X7161648Y-9181429D01*
X7161473Y-9181355D01*
X7105078Y-9367262D01*
X7086572Y-9555162D01*
X7105078Y-9743063D01*
X7159886Y-9923739D01*
X7248889Y-10090253D01*
X7262095Y-10106344D01*
X7368669Y-10236204D01*
X7514619Y-10355983D01*
X7681133Y-10444986D01*
X7861811Y-10499795D01*
X8049710Y-10518301D01*
X8237609Y-10499795D01*
X8418287Y-10444986D01*
X8584801Y-10355983D01*
X8730751Y-10236204D01*
X8850530Y-10090254D01*
X8939533Y-9923740D01*
X8994342Y-9743062D01*
X9012848Y-9555163D01*
X8994342Y-9367264D01*
X8961301Y-9258343D01*
X8937950Y-9181365D01*
X8937775Y-9181439D01*
X8870893Y-9021599D01*
X8869467Y-9018036D01*
X8869462Y-9018023D01*
X8838276Y-8936494D01*
X8833923Y-8922774D01*
X8826055Y-8891842D01*
X8822892Y-8874060D01*
X8816771Y-8814911D01*
X8816134Y-8804497D01*
X8813336Y-8656904D01*
X8809043Y-8620054D01*
X8808210Y-8605705D01*
X8808210Y-6779578D01*
X8827216Y-6713606D01*
X8878409Y-6667858D01*
X8946094Y-6656358D01*
X8969210Y-6658962D01*
X9139060Y-6639825D01*
X9300393Y-6583372D01*
X9445119Y-6492434D01*
X9565981Y-6371572D01*
X9656919Y-6226846D01*
X9713372Y-6065513D01*
X9732509Y-5895663D01*
X9713372Y-5725813D01*
X9670262Y-5602613D01*
X9668822Y-5598239D01*
X9661214Y-5573548D01*
X9621584Y-5487800D01*
X9615579Y-5475255D01*
X9615306Y-5474704D01*
X9615303Y-5474697D01*
X9609252Y-5462872D01*
X9597302Y-5440244D01*
X9583140Y-5389196D01*
X9582535Y-5378286D01*
X9582535Y-5378282D01*
X9579103Y-5355595D01*
X9577710Y-5337054D01*
X9577710Y-3850787D01*
X9594774Y-3788012D01*
X9641269Y-3742515D01*
X9704400Y-3726816D01*
X9766790Y-3745238D01*
X9811268Y-3792709D01*
X9813539Y-3796993D01*
X9823168Y-3820857D01*
X9823778Y-3822982D01*
X9828284Y-3848471D01*
X9836215Y-3960917D01*
X9840604Y-3987414D01*
X9842210Y-4003778D01*
X9843647Y-4049496D01*
X9849673Y-4070238D01*
X9853618Y-4089284D01*
X9856327Y-4110726D01*
X9873368Y-4153768D01*
X9877151Y-4164817D01*
X9890065Y-4209264D01*
X9901060Y-4227856D01*
X9909619Y-4245326D01*
X9917316Y-4264766D01*
X9917575Y-4265419D01*
X9944788Y-4302874D01*
X9951187Y-4312615D01*
X9974757Y-4352470D01*
X9974758Y-4352471D01*
X9990032Y-4367745D01*
X10002668Y-4382539D01*
X10015369Y-4400020D01*
X10050952Y-4429457D01*
X10051030Y-4429521D01*
X10059671Y-4437384D01*
X13422492Y-7800205D01*
X13435978Y-7817037D01*
X13437792Y-7818741D01*
X13437794Y-7818743D01*
X13440866Y-7821628D01*
X13468740Y-7860429D01*
X13479875Y-7906892D01*
X13472616Y-7954116D01*
X13441028Y-8041631D01*
X13435540Y-8057659D01*
X13435311Y-8058367D01*
X13430268Y-8074871D01*
X13423411Y-8098740D01*
X13397143Y-8146617D01*
X13394864Y-8149195D01*
X13382707Y-8165883D01*
X13370164Y-8180550D01*
X8882881Y-12667833D01*
X8870688Y-12678526D01*
X8845224Y-12698065D01*
X8820732Y-12729984D01*
X8820733Y-12729982D01*
X8747686Y-12825178D01*
X8689770Y-12965000D01*
X8689770Y-12965001D01*
X8686371Y-12973207D01*
X8669649Y-13100228D01*
X8669649Y-13100235D01*
X8665459Y-13132055D01*
X8669649Y-13163875D01*
X8670710Y-13180060D01*
X8670710Y-14170603D01*
X8668592Y-14191015D01*
X8668604Y-14191017D01*
X8668492Y-14191972D01*
X8668068Y-14196058D01*
X8667951Y-14196620D01*
X8663385Y-14235832D01*
X8638127Y-14452749D01*
X8627184Y-14491148D01*
X8592179Y-14565633D01*
X8575518Y-14591907D01*
X8466400Y-14723877D01*
X8462935Y-14728113D01*
X8279497Y-14954870D01*
X8276653Y-14958741D01*
X8224942Y-14999549D01*
X8159629Y-15008115D01*
X8099145Y-14982022D01*
X8060558Y-14928634D01*
X8032562Y-14853574D01*
X7946398Y-14738474D01*
X7831299Y-14652310D01*
X7696585Y-14602065D01*
X7637034Y-14595663D01*
X6989210Y-14595663D01*
X6989210Y-16071663D01*
X6972597Y-16133663D01*
X6927210Y-16179050D01*
X6865210Y-16195663D01*
X5389210Y-16195663D01*
X5389210Y-16843486D01*
X5395527Y-16902245D01*
X5383773Y-16969681D01*
X5338030Y-17020606D01*
X5272237Y-17039500D01*
X3013485Y-17039500D01*
X3006531Y-17039305D01*
X2709110Y-17022599D01*
X2695292Y-17021042D01*
X2405048Y-16971725D01*
X2391492Y-16968631D01*
X2108591Y-16887127D01*
X2095466Y-16882534D01*
X1823476Y-16769871D01*
X1810948Y-16763838D01*
X1553276Y-16621427D01*
X1541501Y-16614028D01*
X1301401Y-16443667D01*
X1290530Y-16434998D01*
X1138456Y-16299097D01*
X1071006Y-16238820D01*
X1061175Y-16228989D01*
X1031448Y-16195725D01*
X864997Y-16009466D01*
X856329Y-15998596D01*
X781176Y-15892679D01*
X685958Y-15758483D01*
X678576Y-15746734D01*
X650350Y-15695663D01*
X5389210Y-15695663D01*
X6489210Y-15695663D01*
X6489210Y-14595663D01*
X5841386Y-14595663D01*
X5781834Y-14602065D01*
X5647120Y-14652310D01*
X5532021Y-14738474D01*
X5445857Y-14853573D01*
X5395612Y-14988287D01*
X5389210Y-15047839D01*
X5389210Y-15695663D01*
X650350Y-15695663D01*
X536153Y-15489043D01*
X530125Y-15476524D01*
X527457Y-15470084D01*
X417457Y-15204525D01*
X412866Y-15191402D01*
X409952Y-15181287D01*
X331363Y-14908510D01*
X328269Y-14894956D01*
X278950Y-14604701D01*
X277394Y-14590889D01*
X276772Y-14579824D01*
X260694Y-14293593D01*
X260500Y-14286640D01*
X260500Y-11707831D01*
X584844Y-11707831D01*
X585142Y-11709779D01*
X655774Y-11900494D01*
X763355Y-12073094D01*
X903476Y-12220500D01*
X1070404Y-12336686D01*
X1257302Y-12416890D01*
X1456521Y-12457831D01*
X1758210Y-12457831D01*
X1758210Y-11707831D01*
X2258210Y-11707831D01*
X2258210Y-12457831D01*
X2508920Y-12457831D01*
X2660549Y-12442411D01*
X2854599Y-12381527D01*
X3032424Y-12282827D01*
X3186741Y-12150351D01*
X3311231Y-11989523D01*
X3400799Y-11806925D01*
X3426456Y-11707831D01*
X4684844Y-11707831D01*
X4685142Y-11709779D01*
X4755774Y-11900494D01*
X4863355Y-12073094D01*
X5003476Y-12220500D01*
X5170404Y-12336686D01*
X5357302Y-12416890D01*
X5556521Y-12457831D01*
X5958210Y-12457831D01*
X5958210Y-11707831D01*
X6458210Y-11707831D01*
X6458210Y-12457831D01*
X6808920Y-12457831D01*
X6960549Y-12442411D01*
X7154599Y-12381527D01*
X7332424Y-12282827D01*
X7486741Y-12150351D01*
X7611231Y-11989523D01*
X7700799Y-11806925D01*
X7726456Y-11707831D01*
X6458210Y-11707831D01*
X5958210Y-11707831D01*
X4684844Y-11707831D01*
X3426456Y-11707831D01*
X2258210Y-11707831D01*
X1758210Y-11707831D01*
X584844Y-11707831D01*
X260500Y-11707831D01*
X260500Y-11207831D01*
X589963Y-11207831D01*
X1758210Y-11207831D01*
X1758210Y-10457831D01*
X2258210Y-10457831D01*
X2258210Y-11207831D01*
X3431576Y-11207831D01*
X4689963Y-11207831D01*
X5958210Y-11207831D01*
X5958210Y-10555856D01*
X5970229Y-10502600D01*
X6003955Y-10459668D01*
X6006213Y-10457831D01*
X6458210Y-10457831D01*
X6458210Y-11207831D01*
X7731576Y-11207831D01*
X7731277Y-11205882D01*
X7660645Y-11015167D01*
X7553064Y-10842567D01*
X7412943Y-10695161D01*
X7246015Y-10578975D01*
X7059117Y-10498771D01*
X6859899Y-10457831D01*
X6458210Y-10457831D01*
X6006213Y-10457831D01*
X6095875Y-10384885D01*
X6179181Y-10266868D01*
X6227556Y-10130752D01*
X6237414Y-9986632D01*
X6208024Y-9845197D01*
X6141564Y-9716936D01*
X6141563Y-9716934D01*
X6042965Y-9611361D01*
X5919539Y-9536304D01*
X5780438Y-9497331D01*
X5672261Y-9497331D01*
X5565099Y-9512060D01*
X5432601Y-9569612D01*
X5320543Y-9660777D01*
X5237240Y-9778791D01*
X5188863Y-9914912D01*
X5179006Y-10059028D01*
X5179006Y-10059030D01*
X5186161Y-10093463D01*
X5208396Y-10200465D01*
X5274856Y-10328726D01*
X5288396Y-10343224D01*
X5316330Y-10391522D01*
X5320260Y-10447178D01*
X5299393Y-10498923D01*
X5257952Y-10536281D01*
X5083993Y-10632835D01*
X4929678Y-10765310D01*
X4805188Y-10926138D01*
X4715620Y-11108736D01*
X4689963Y-11207830D01*
X4689963Y-11207831D01*
X3431576Y-11207831D01*
X3431277Y-11205882D01*
X3360645Y-11015167D01*
X3253064Y-10842567D01*
X3112943Y-10695161D01*
X2946015Y-10578975D01*
X2759117Y-10498771D01*
X2559899Y-10457831D01*
X2258210Y-10457831D01*
X1758210Y-10457831D01*
X1507500Y-10457831D01*
X1355870Y-10473250D01*
X1161820Y-10534134D01*
X983995Y-10632834D01*
X829678Y-10765310D01*
X705188Y-10926138D01*
X615620Y-11108736D01*
X589963Y-11207830D01*
X589963Y-11207831D01*
X260500Y-11207831D01*
X260500Y-6385662D01*
X5385910Y-6385662D01*
X5405047Y-6555509D01*
X5405047Y-6555511D01*
X5405048Y-6555513D01*
X5448146Y-6678682D01*
X5449597Y-6683094D01*
X5457198Y-6707760D01*
X5457200Y-6707765D01*
X5457201Y-6707767D01*
X5496808Y-6793468D01*
X5496851Y-6793561D01*
X5503144Y-6806686D01*
X5503417Y-6807235D01*
X5509160Y-6818441D01*
X5514571Y-6828686D01*
X5528921Y-6886095D01*
X5515031Y-6943618D01*
X5509683Y-6953943D01*
X5504483Y-6964264D01*
X5504230Y-6964781D01*
X5498793Y-6976242D01*
X5459471Y-7061872D01*
X5451328Y-7088510D01*
X5449788Y-7093209D01*
X5407879Y-7212981D01*
X5388742Y-7382831D01*
X5407879Y-7552677D01*
X5407879Y-7552679D01*
X5407880Y-7552681D01*
X5464333Y-7714014D01*
X5555271Y-7858740D01*
X5676133Y-7979602D01*
X5820859Y-8070540D01*
X5982192Y-8126993D01*
X6152042Y-8146130D01*
X6321892Y-8126993D01*
X6483225Y-8070540D01*
X6627951Y-7979602D01*
X6748813Y-7858740D01*
X6839751Y-7714014D01*
X6896204Y-7552681D01*
X6915341Y-7382831D01*
X6896204Y-7212981D01*
X6851593Y-7085494D01*
X6850230Y-7081365D01*
X6843403Y-7059408D01*
X6803523Y-6973744D01*
X6803511Y-6973718D01*
X6796677Y-6959605D01*
X6796366Y-6958987D01*
X6789571Y-6945953D01*
X6786813Y-6940843D01*
X6771942Y-6882512D01*
X6786295Y-6824049D01*
X6789238Y-6818476D01*
X6789256Y-6818442D01*
X6795296Y-6806638D01*
X6795571Y-6806083D01*
X6801580Y-6793531D01*
X6841211Y-6707783D01*
X6848803Y-6683143D01*
X6850241Y-6678771D01*
X6893372Y-6555513D01*
X6912509Y-6385663D01*
X6910921Y-6371573D01*
X6901752Y-6290191D01*
X6893372Y-6215813D01*
X6836919Y-6054480D01*
X6745981Y-5909754D01*
X6625119Y-5788892D01*
X6480393Y-5697954D01*
X6319060Y-5641501D01*
X6319058Y-5641500D01*
X6319056Y-5641500D01*
X6149210Y-5622363D01*
X5979363Y-5641500D01*
X5979360Y-5641500D01*
X5979360Y-5641501D01*
X5818027Y-5697954D01*
X5818025Y-5697954D01*
X5818025Y-5697955D01*
X5673299Y-5788893D01*
X5552440Y-5909752D01*
X5470218Y-6040606D01*
X5461501Y-6054480D01*
X5431577Y-6139999D01*
X5405047Y-6215816D01*
X5385910Y-6385662D01*
X260500Y-6385662D01*
X260500Y-3057831D01*
X584844Y-3057831D01*
X585142Y-3059779D01*
X655774Y-3250494D01*
X763355Y-3423094D01*
X903476Y-3570500D01*
X1070404Y-3686686D01*
X1257302Y-3766890D01*
X1456521Y-3807831D01*
X1758210Y-3807831D01*
X1758210Y-3057831D01*
X2258210Y-3057831D01*
X2258210Y-3807831D01*
X2508920Y-3807831D01*
X2660549Y-3792411D01*
X2854599Y-3731527D01*
X3032424Y-3632827D01*
X3186741Y-3500351D01*
X3311231Y-3339523D01*
X3400799Y-3156925D01*
X3426456Y-3057831D01*
X4684844Y-3057831D01*
X4685142Y-3059779D01*
X4755774Y-3250494D01*
X4863355Y-3423094D01*
X5003476Y-3570500D01*
X5170403Y-3686685D01*
X5250094Y-3720884D01*
X5294384Y-3753033D01*
X5320521Y-3801117D01*
X5323413Y-3855769D01*
X5302498Y-3906343D01*
X5237239Y-3998793D01*
X5188863Y-4134912D01*
X5179937Y-4265417D01*
X5179006Y-4279030D01*
X5197441Y-4367745D01*
X5208396Y-4420465D01*
X5274856Y-4548727D01*
X5373454Y-4654300D01*
X5496880Y-4729357D01*
X5635982Y-4768331D01*
X5744159Y-4768331D01*
X5851321Y-4753602D01*
X5983819Y-4696050D01*
X6095875Y-4604885D01*
X6179181Y-4486868D01*
X6227556Y-4350752D01*
X6237414Y-4206632D01*
X6208024Y-4065197D01*
X6141564Y-3936936D01*
X6141563Y-3936934D01*
X6042965Y-3831362D01*
X6033394Y-3825542D01*
X6017782Y-3816048D01*
X5974124Y-3770874D01*
X5958210Y-3710100D01*
X5958210Y-3057831D01*
X6458210Y-3057831D01*
X6458210Y-3807831D01*
X6808920Y-3807831D01*
X6960549Y-3792411D01*
X7154599Y-3731527D01*
X7332424Y-3632827D01*
X7486741Y-3500351D01*
X7611231Y-3339523D01*
X7700799Y-3156925D01*
X7726456Y-3057831D01*
X6458210Y-3057831D01*
X5958210Y-3057831D01*
X4684844Y-3057831D01*
X3426456Y-3057831D01*
X2258210Y-3057831D01*
X1758210Y-3057831D01*
X584844Y-3057831D01*
X260500Y-3057831D01*
X260500Y-2557831D01*
X589963Y-2557831D01*
X1758210Y-2557831D01*
X1758210Y-1807831D01*
X2258210Y-1807831D01*
X2258210Y-2557831D01*
X3431576Y-2557831D01*
X4689963Y-2557831D01*
X5958210Y-2557831D01*
X5958210Y-1807831D01*
X5607500Y-1807831D01*
X5455870Y-1823250D01*
X5261820Y-1884134D01*
X5083995Y-1982834D01*
X4929678Y-2115310D01*
X4805188Y-2276138D01*
X4715620Y-2458736D01*
X4689963Y-2557830D01*
X4689963Y-2557831D01*
X3431576Y-2557831D01*
X3431277Y-2555882D01*
X3360645Y-2365167D01*
X3253064Y-2192567D01*
X3112943Y-2045161D01*
X2946015Y-1928975D01*
X2759117Y-1848771D01*
X2559899Y-1807831D01*
X2258210Y-1807831D01*
X1758210Y-1807831D01*
X1507500Y-1807831D01*
X1355870Y-1823250D01*
X1161820Y-1884134D01*
X983995Y-1982834D01*
X829678Y-2115310D01*
X705188Y-2276138D01*
X615620Y-2458736D01*
X589963Y-2557830D01*
X589963Y-2557831D01*
X260500Y-2557831D01*
X260500Y-34166D01*
X260501Y-34163D01*
X260500Y6534D01*
X260695Y13482D01*
X261427Y26523D01*
X277390Y310922D01*
X278944Y324709D01*
X328256Y614982D01*
X331344Y628513D01*
X412847Y911435D01*
X417430Y924535D01*
X530107Y1196571D01*
X536124Y1209066D01*
X678542Y1466759D01*
X685925Y1478510D01*
X856303Y1718639D01*
X864962Y1729497D01*
X1061154Y1949038D01*
X1070965Y1958849D01*
X1290516Y2155051D01*
X1301361Y2163699D01*
X1511965Y2313128D01*
X1541481Y2334070D01*
X1553243Y2341462D01*
X1810936Y2483881D01*
X1823437Y2489901D01*
X2095461Y2602573D01*
X2108566Y2607158D01*
X2391480Y2688659D01*
X2405030Y2691752D01*
X2691154Y2740359D01*
X2747767Y2736817D01*
G37*
%TD.AperFunction*%
%TA.AperFunction,Conductor*%
G36*
X83299265Y1897724D02*
G01*
X83344652Y1852337D01*
X83361265Y1790337D01*
X83361265Y314337D01*
X84009089Y314337D01*
X84068640Y320740D01*
X84203354Y370985D01*
X84318453Y457149D01*
X84404617Y572248D01*
X84454862Y706962D01*
X84461265Y766513D01*
X84461265Y893217D01*
X84476717Y953161D01*
X84519222Y998166D01*
X84578186Y1017015D01*
X84638915Y1005010D01*
X84686272Y965144D01*
X84701701Y943477D01*
X84707651Y935122D01*
X84711669Y931291D01*
X84725049Y916279D01*
X84726509Y914346D01*
X84749687Y893217D01*
X84792210Y854452D01*
X84794242Y852558D01*
X84860864Y789034D01*
X84862603Y787916D01*
X84877577Y776411D01*
X84878324Y775949D01*
X84878328Y775945D01*
X84956881Y727307D01*
X84958646Y726193D01*
X84973043Y716940D01*
X85014833Y672052D01*
X85030000Y612627D01*
X85030000Y-14890615D01*
X85011882Y-14955152D01*
X84962822Y-15000830D01*
X84947179Y-15008894D01*
X84918292Y-15031611D01*
X84906925Y-15039563D01*
X84878328Y-15057270D01*
X84835586Y-15096234D01*
X84828704Y-15102064D01*
X84780776Y-15139756D01*
X84758975Y-15164915D01*
X84748806Y-15175343D01*
X84726510Y-15195669D01*
X84689576Y-15244577D01*
X84684346Y-15251040D01*
X84678988Y-15257225D01*
X84630265Y-15291581D01*
X84571139Y-15299227D01*
X84515279Y-15278396D01*
X84475597Y-15233903D01*
X84461265Y-15176034D01*
X84461265Y-15047839D01*
X84454862Y-14988287D01*
X84404617Y-14853573D01*
X84318453Y-14738474D01*
X84203354Y-14652310D01*
X84068640Y-14602065D01*
X84009089Y-14595663D01*
X83361265Y-14595663D01*
X83361265Y-16071663D01*
X83344652Y-16133663D01*
X83299265Y-16179050D01*
X83237265Y-16195663D01*
X82985265Y-16195663D01*
X82923265Y-16179050D01*
X82877878Y-16133663D01*
X82861265Y-16071663D01*
X82861265Y-14595663D01*
X82213441Y-14595663D01*
X82153889Y-14602065D01*
X82019175Y-14652310D01*
X81904076Y-14738474D01*
X81817912Y-14853574D01*
X81771584Y-14977785D01*
X81735632Y-15028998D01*
X81679251Y-15056136D01*
X81616797Y-15052288D01*
X81564173Y-15018435D01*
X81494505Y-14942757D01*
X81472946Y-14925977D01*
X81316841Y-14804474D01*
X81118839Y-14697321D01*
X81118838Y-14697320D01*
X81118837Y-14697320D01*
X81067299Y-14679627D01*
X81054573Y-14674453D01*
X81037721Y-14666487D01*
X81037718Y-14666486D01*
X81037716Y-14666485D01*
X80940894Y-14636182D01*
X80937674Y-14635126D01*
X80904858Y-14623861D01*
X80890797Y-14620504D01*
X80685754Y-14556333D01*
X80645945Y-14545608D01*
X80644114Y-14545193D01*
X80603736Y-14537722D01*
X80322705Y-14497269D01*
X80322222Y-14497198D01*
X80156995Y-14472750D01*
X80128208Y-14464859D01*
X80043016Y-14430019D01*
X80011846Y-14411554D01*
X79972750Y-14379847D01*
X79806889Y-14245331D01*
X79802802Y-14242596D01*
X79784087Y-14227225D01*
X79462320Y-13905458D01*
X79448836Y-13888627D01*
X79395327Y-13838379D01*
X79392530Y-13835668D01*
X79371934Y-13815072D01*
X79368350Y-13812292D01*
X79359480Y-13804716D01*
X79325735Y-13773028D01*
X79306802Y-13762619D01*
X79290543Y-13751939D01*
X79273470Y-13738696D01*
X79262824Y-13734089D01*
X79230979Y-13720308D01*
X79220502Y-13715175D01*
X79197609Y-13702590D01*
X79179936Y-13692874D01*
X79159015Y-13687503D01*
X79140606Y-13681200D01*
X79120777Y-13672619D01*
X79075057Y-13665378D01*
X79063618Y-13663009D01*
X79018792Y-13651500D01*
X79018790Y-13651500D01*
X78997183Y-13651500D01*
X78977785Y-13649973D01*
X78969205Y-13648614D01*
X78956451Y-13646594D01*
X78956450Y-13646594D01*
X78910366Y-13650950D01*
X78898699Y-13651500D01*
X75185941Y-13651500D01*
X75136354Y-13641154D01*
X75095043Y-13611841D01*
X75068900Y-13568458D01*
X75037709Y-13479317D01*
X74946771Y-13334591D01*
X74825909Y-13213729D01*
X74681183Y-13122791D01*
X74519850Y-13066338D01*
X74519848Y-13066337D01*
X74519846Y-13066337D01*
X74350000Y-13047200D01*
X74180150Y-13066337D01*
X74056991Y-13109431D01*
X74052559Y-13110889D01*
X74027891Y-13118491D01*
X74004615Y-13129248D01*
X73955919Y-13140641D01*
X73906683Y-13131873D01*
X73864916Y-13104367D01*
X73174819Y-12414270D01*
X73147939Y-12374042D01*
X73138500Y-12326589D01*
X73138500Y-11194457D01*
X73139561Y-11178271D01*
X73143750Y-11146452D01*
X73139561Y-11114635D01*
X73139559Y-11114619D01*
X73138500Y-11106575D01*
X73138500Y-11106568D01*
X73122838Y-10987603D01*
X73061524Y-10839578D01*
X73045808Y-10819096D01*
X73021425Y-10787320D01*
X73021424Y-10787319D01*
X73014900Y-10778817D01*
X72988477Y-10744381D01*
X72988474Y-10744378D01*
X72983529Y-10737933D01*
X72983530Y-10737935D01*
X72983528Y-10737933D01*
X72963987Y-10712466D01*
X72938512Y-10692918D01*
X72926326Y-10682230D01*
X72065271Y-9821175D01*
X72053142Y-9807074D01*
X72051129Y-9804343D01*
X72039537Y-9788619D01*
X72036892Y-9785663D01*
X72032231Y-9780454D01*
X72006157Y-9734354D01*
X71998604Y-9709896D01*
X71995986Y-9701791D01*
X71994529Y-9697278D01*
X71994340Y-9696718D01*
X71992313Y-9690970D01*
X71989702Y-9683562D01*
X71981321Y-9660777D01*
X71957095Y-9594911D01*
X71953401Y-9587926D01*
X71946610Y-9575083D01*
X71939187Y-9558074D01*
X71938168Y-9555163D01*
X71927709Y-9525270D01*
X71836771Y-9380544D01*
X71715909Y-9259682D01*
X71571183Y-9168744D01*
X71409850Y-9112291D01*
X71409848Y-9112290D01*
X71409846Y-9112290D01*
X71248616Y-9094124D01*
X71192648Y-9073358D01*
X71152870Y-9028845D01*
X71138500Y-8970904D01*
X71138500Y-8332573D01*
X71139783Y-8314781D01*
X71142482Y-8296163D01*
X71143431Y-8289619D01*
X71147489Y-8206625D01*
X71156571Y-8165737D01*
X71159486Y-8158614D01*
X71163367Y-8150069D01*
X71200842Y-8075264D01*
X71205092Y-8066578D01*
X71205284Y-8066176D01*
X71208922Y-8058368D01*
X71209451Y-8057233D01*
X71236016Y-7998743D01*
X71265903Y-7932941D01*
X71265904Y-7932934D01*
X71266596Y-7931413D01*
X71267939Y-7928802D01*
X71290154Y-7860429D01*
X71324365Y-7755138D01*
X71343229Y-7575663D01*
X71324365Y-7396188D01*
X71268599Y-7224556D01*
X71264574Y-7217585D01*
X71178369Y-7068272D01*
X71143605Y-7029663D01*
X71057613Y-6934159D01*
X70942703Y-6850672D01*
X70911614Y-6828084D01*
X70746749Y-6754681D01*
X70570234Y-6717163D01*
X70570232Y-6717163D01*
X70389768Y-6717163D01*
X70389766Y-6717163D01*
X70213247Y-6754682D01*
X70166238Y-6775612D01*
X70151593Y-6781055D01*
X70122728Y-6789756D01*
X69998429Y-6846210D01*
X69989097Y-6850561D01*
X69988864Y-6850672D01*
X69980344Y-6854845D01*
X69905601Y-6892287D01*
X69897011Y-6896189D01*
X69889924Y-6899088D01*
X69849037Y-6908171D01*
X69766042Y-6912231D01*
X69740881Y-6915880D01*
X69723087Y-6917163D01*
X69579785Y-6917163D01*
X69532332Y-6907724D01*
X69492104Y-6880844D01*
X69104819Y-6493559D01*
X69077939Y-6453331D01*
X69068500Y-6405878D01*
X69068500Y-6314122D01*
X69077939Y-6266669D01*
X69104819Y-6226441D01*
X69455192Y-5876068D01*
X70514542Y-4816716D01*
X70531372Y-4803235D01*
X70541239Y-4792727D01*
X70581652Y-4749690D01*
X70584269Y-4746989D01*
X70604927Y-4726333D01*
X70607708Y-4722747D01*
X70615273Y-4713887D01*
X70646972Y-4680133D01*
X70657380Y-4661200D01*
X70668059Y-4644942D01*
X70681304Y-4627868D01*
X70699691Y-4585375D01*
X70704822Y-4574902D01*
X70727124Y-4534337D01*
X70732497Y-4513405D01*
X70738796Y-4495010D01*
X70747380Y-4475176D01*
X70754620Y-4429454D01*
X70756990Y-4418012D01*
X70758219Y-4413229D01*
X70768500Y-4373188D01*
X70768500Y-4351581D01*
X70770027Y-4332182D01*
X70771593Y-4322292D01*
X70773406Y-4310848D01*
X70769049Y-4264764D01*
X70768500Y-4253097D01*
X70768500Y-4136910D01*
X70769783Y-4119118D01*
X70773431Y-4093954D01*
X70777489Y-4010964D01*
X70786571Y-3970074D01*
X70789486Y-3962951D01*
X70793367Y-3954406D01*
X70830842Y-3879601D01*
X70835092Y-3870915D01*
X70835284Y-3870513D01*
X70836833Y-3867186D01*
X70839451Y-3861570D01*
X70866908Y-3801117D01*
X70895903Y-3737278D01*
X70895904Y-3737271D01*
X70896596Y-3735750D01*
X70897939Y-3733139D01*
X70915589Y-3678817D01*
X70954365Y-3559475D01*
X70973229Y-3380000D01*
X70973228Y-3379997D01*
X70974591Y-3367038D01*
X70978571Y-3367456D01*
X70986270Y-3323802D01*
X71032010Y-3273004D01*
X71097719Y-3254163D01*
X71195435Y-3254163D01*
X71213976Y-3255556D01*
X71236663Y-3258988D01*
X71247577Y-3259593D01*
X71298623Y-3273754D01*
X71321264Y-3285711D01*
X71325867Y-3288066D01*
X71333078Y-3291756D01*
X71333567Y-3291997D01*
X71333636Y-3292032D01*
X71346183Y-3298038D01*
X71401930Y-3323802D01*
X71431932Y-3337668D01*
X71456605Y-3345272D01*
X71461039Y-3346731D01*
X71584193Y-3389825D01*
X71754044Y-3408962D01*
X71923894Y-3389825D01*
X72085227Y-3333372D01*
X72229953Y-3242434D01*
X72350815Y-3121572D01*
X72441753Y-2976846D01*
X72498206Y-2815513D01*
X72517343Y-2645663D01*
X72513763Y-2613893D01*
X72507227Y-2555882D01*
X72498206Y-2475813D01*
X72441753Y-2314480D01*
X72350815Y-2169754D01*
X72229953Y-2048892D01*
X72085227Y-1957954D01*
X71923894Y-1901501D01*
X71923892Y-1901500D01*
X71923890Y-1901500D01*
X71754044Y-1882363D01*
X71584194Y-1901500D01*
X71461035Y-1944594D01*
X71456603Y-1946052D01*
X71431933Y-1953654D01*
X71346174Y-1993289D01*
X71334460Y-1998885D01*
X71333940Y-1999141D01*
X71321262Y-2005613D01*
X71298617Y-2017572D01*
X71247592Y-2031730D01*
X71236655Y-2032337D01*
X71213977Y-2035768D01*
X71195431Y-2037163D01*
X62842692Y-2037163D01*
X62784478Y-2022649D01*
X62739891Y-1982503D01*
X62719372Y-1926128D01*
X62715630Y-1890525D01*
X62659864Y-1718893D01*
X62659863Y-1718892D01*
X62659204Y-1716862D01*
X62657860Y-1714248D01*
X62657169Y-1712727D01*
X62657168Y-1712723D01*
X62600722Y-1588444D01*
X62596549Y-1579485D01*
X62596357Y-1579083D01*
X62596231Y-1578826D01*
X62595337Y-1576997D01*
X62582883Y-1516126D01*
X62601520Y-1456856D01*
X62646569Y-1414066D01*
X62706719Y-1398500D01*
X63622609Y-1398500D01*
X63755445Y-1398500D01*
X77304996Y-1398500D01*
X77318747Y-1399264D01*
X77357685Y-1403610D01*
X77508288Y-1405694D01*
X77517195Y-1406137D01*
X77582022Y-1411714D01*
X77599051Y-1414384D01*
X77626010Y-1420557D01*
X77629421Y-1421338D01*
X77644050Y-1425650D01*
X77678123Y-1438017D01*
X77718429Y-1452648D01*
X77719438Y-1453014D01*
X77724404Y-1454938D01*
X77763790Y-1471181D01*
X77878119Y-1518332D01*
X77878080Y-1518425D01*
X77882687Y-1519822D01*
X77882688Y-1519823D01*
X78063366Y-1574632D01*
X78251265Y-1593138D01*
X78439164Y-1574632D01*
X78619842Y-1519823D01*
X78786356Y-1430820D01*
X78932306Y-1311041D01*
X79052085Y-1165091D01*
X79141088Y-998577D01*
X79143939Y-989176D01*
X79152642Y-967854D01*
X79154257Y-964757D01*
X79215276Y-795402D01*
X79220794Y-779251D01*
X79221038Y-778496D01*
X79226205Y-761510D01*
X79259659Y-644287D01*
X79261823Y-637468D01*
X79274429Y-601419D01*
X79284795Y-579149D01*
X79290170Y-570078D01*
X79303902Y-551211D01*
X79310951Y-543229D01*
X79381625Y-463201D01*
X79393652Y-446672D01*
X79406229Y-431957D01*
X79784093Y-54093D01*
X79802811Y-38722D01*
X79806893Y-35991D01*
X80011855Y130240D01*
X80043012Y148697D01*
X80128210Y183540D01*
X80156989Y191429D01*
X80322281Y215886D01*
X80603730Y256399D01*
X80644310Y263916D01*
X80646137Y264331D01*
X80685763Y275014D01*
X80890775Y339176D01*
X80904863Y342538D01*
X80905894Y342893D01*
X80905900Y342893D01*
X80937792Y353842D01*
X80940965Y354883D01*
X81037716Y385161D01*
X81054586Y393136D01*
X81067281Y398296D01*
X81118839Y415995D01*
X81316841Y523148D01*
X81494505Y661431D01*
X81536420Y706962D01*
X81564173Y737109D01*
X81616796Y770963D01*
X81679251Y774811D01*
X81735632Y747673D01*
X81771584Y696460D01*
X81817912Y572248D01*
X81904076Y457149D01*
X82019175Y370985D01*
X82153889Y320740D01*
X82213441Y314337D01*
X82861265Y314337D01*
X82861265Y1790337D01*
X82877878Y1852337D01*
X82923265Y1897724D01*
X82985265Y1914337D01*
X83237265Y1914337D01*
X83299265Y1897724D01*
G37*
%TD.AperFunction*%
%TA.AperFunction,Conductor*%
G36*
X14181650Y-9238093D02*
G01*
X14219250Y-9282116D01*
X14232765Y-9338411D01*
X14232765Y-10728754D01*
X14231481Y-10746552D01*
X14227832Y-10771707D01*
X14223773Y-10854698D01*
X14214690Y-10895587D01*
X14211791Y-10902674D01*
X14207889Y-10911264D01*
X14170447Y-10986007D01*
X14166274Y-10994527D01*
X14166163Y-10994760D01*
X14161829Y-11004055D01*
X14104653Y-11129943D01*
X14103327Y-11132521D01*
X14046900Y-11306186D01*
X14030347Y-11463674D01*
X14028036Y-11485663D01*
X14046900Y-11665138D01*
X14046901Y-11665141D01*
X14102665Y-11836769D01*
X14192895Y-11993053D01*
X14206959Y-12008672D01*
X14313652Y-12127167D01*
X14459650Y-12233241D01*
X14541738Y-12269788D01*
X14550562Y-12274145D01*
X14585027Y-12292900D01*
X14585031Y-12292901D01*
X14585032Y-12292902D01*
X14711232Y-12341188D01*
X14711330Y-12341224D01*
X14711393Y-12341249D01*
X14716424Y-12343144D01*
X14716683Y-12343240D01*
X14716704Y-12343247D01*
X14716705Y-12343248D01*
X14723096Y-12345569D01*
X14798207Y-12372290D01*
X14807918Y-12376213D01*
X14815548Y-12379679D01*
X14834468Y-12390363D01*
X14836562Y-12391802D01*
X14850221Y-12402675D01*
X14896151Y-12444854D01*
X14915992Y-12463075D01*
X14938204Y-12479867D01*
X14951106Y-12491101D01*
X16354547Y-13894542D01*
X16368034Y-13911375D01*
X16369848Y-13913078D01*
X16369849Y-13913080D01*
X16421537Y-13961618D01*
X16424303Y-13964298D01*
X16444932Y-13984927D01*
X16448507Y-13987700D01*
X16457387Y-13995283D01*
X16491132Y-14026972D01*
X16510068Y-14037382D01*
X16526320Y-14048058D01*
X16536630Y-14056055D01*
X16543398Y-14061305D01*
X16585878Y-14079687D01*
X16596370Y-14084827D01*
X16636928Y-14107124D01*
X16657849Y-14112495D01*
X16676259Y-14118798D01*
X16696089Y-14127380D01*
X16741818Y-14134621D01*
X16753240Y-14136987D01*
X16798077Y-14148500D01*
X16819684Y-14148500D01*
X16839081Y-14150026D01*
X16860417Y-14153406D01*
X16906500Y-14149049D01*
X16918168Y-14148500D01*
X21911480Y-14148500D01*
X21958933Y-14157939D01*
X21999161Y-14184819D01*
X22364946Y-14550604D01*
X22391826Y-14590832D01*
X22401265Y-14638285D01*
X22401265Y-16071663D01*
X22384652Y-16133663D01*
X22339265Y-16179050D01*
X22277265Y-16195663D01*
X22025265Y-16195663D01*
X21963265Y-16179050D01*
X21917878Y-16133663D01*
X21901265Y-16071663D01*
X21901265Y-14615027D01*
X21901264Y-14615027D01*
X21687772Y-14672232D01*
X21473686Y-14772063D01*
X21280186Y-14907553D01*
X21113158Y-15074581D01*
X20986397Y-15255615D01*
X20941193Y-15294937D01*
X20882829Y-15308475D01*
X20824930Y-15293068D01*
X20781013Y-15252312D01*
X20686988Y-15108395D01*
X20596096Y-15009662D01*
X20534505Y-14942757D01*
X20356841Y-14804474D01*
X20158839Y-14697321D01*
X20158838Y-14697320D01*
X20158837Y-14697320D01*
X19945901Y-14624219D01*
X19723834Y-14587163D01*
X19498696Y-14587163D01*
X19276628Y-14624219D01*
X19063692Y-14697320D01*
X18865689Y-14804474D01*
X18688025Y-14942757D01*
X18535540Y-15108397D01*
X18441515Y-15252313D01*
X18397599Y-15293068D01*
X18339700Y-15308475D01*
X18281336Y-15294937D01*
X18236132Y-15255614D01*
X18109374Y-15074584D01*
X17942346Y-14907556D01*
X17748841Y-14772062D01*
X17534757Y-14672232D01*
X17321265Y-14615027D01*
X17321265Y-16071663D01*
X17304652Y-16133663D01*
X17259265Y-16179050D01*
X17197265Y-16195663D01*
X16945265Y-16195663D01*
X16883265Y-16179050D01*
X16837878Y-16133663D01*
X16821265Y-16071663D01*
X16821265Y-14615027D01*
X16821264Y-14615027D01*
X16607772Y-14672232D01*
X16393686Y-14772063D01*
X16200186Y-14907553D01*
X16033155Y-15074584D01*
X15897665Y-15268084D01*
X15797834Y-15482170D01*
X15738963Y-15701879D01*
X15707139Y-15757196D01*
X15652019Y-15789360D01*
X15588204Y-15789852D01*
X15532595Y-15758541D01*
X15499923Y-15703724D01*
X15489044Y-15665491D01*
X15487821Y-15660845D01*
X15481499Y-15634786D01*
X15468563Y-15581459D01*
X15463370Y-15570089D01*
X15456900Y-15552513D01*
X15454339Y-15543512D01*
X15454337Y-15543508D01*
X15417776Y-15470084D01*
X15415981Y-15466322D01*
X15380621Y-15388891D01*
X15375387Y-15381542D01*
X15365392Y-15364883D01*
X15362768Y-15359613D01*
X15323749Y-15307944D01*
X15311275Y-15291425D01*
X15309222Y-15288625D01*
X15257826Y-15216450D01*
X15253806Y-15212617D01*
X15240427Y-15197607D01*
X15238966Y-15195672D01*
X15173226Y-15135742D01*
X15171230Y-15133881D01*
X15124347Y-15089178D01*
X15104611Y-15070360D01*
X15102862Y-15069236D01*
X15087892Y-15057732D01*
X15008591Y-15008630D01*
X15006831Y-15007519D01*
X14925541Y-14955277D01*
X14916225Y-14950572D01*
X14823148Y-14914515D01*
X14821856Y-14914006D01*
X14727079Y-14876063D01*
X14623283Y-14856660D01*
X14622602Y-14856530D01*
X14522116Y-14837163D01*
X14522114Y-14837163D01*
X14518983Y-14837163D01*
X14313547Y-14837163D01*
X14313545Y-14837163D01*
X14266880Y-14845885D01*
X14255886Y-14847434D01*
X14205529Y-14852243D01*
X14163611Y-14864551D01*
X14151465Y-14867461D01*
X14111610Y-14874911D01*
X14064132Y-14893304D01*
X14054280Y-14896652D01*
X14043130Y-14899927D01*
X14002401Y-14911886D01*
X13966656Y-14930314D01*
X13954634Y-14935723D01*
X13920047Y-14949122D01*
X13873805Y-14977754D01*
X13865351Y-14982541D01*
X13814234Y-15008894D01*
X13785347Y-15031611D01*
X13773980Y-15039563D01*
X13745383Y-15057270D01*
X13702641Y-15096234D01*
X13695759Y-15102064D01*
X13647831Y-15139756D01*
X13626030Y-15164915D01*
X13615861Y-15175343D01*
X13593565Y-15195669D01*
X13556631Y-15244577D01*
X13551393Y-15251050D01*
X13509198Y-15299747D01*
X13494279Y-15325587D01*
X13485848Y-15338310D01*
X13469761Y-15359612D01*
X13440897Y-15417577D01*
X13437287Y-15424301D01*
X13403349Y-15483084D01*
X13394727Y-15507995D01*
X13388553Y-15522697D01*
X13378191Y-15543508D01*
X13367158Y-15582286D01*
X13334240Y-15637344D01*
X13278214Y-15668585D01*
X13214073Y-15667649D01*
X13158983Y-15634786D01*
X13127687Y-15578792D01*
X13108506Y-15503047D01*
X13018070Y-15296872D01*
X12894932Y-15108395D01*
X12742450Y-14942757D01*
X12564786Y-14804474D01*
X12366784Y-14697321D01*
X12366783Y-14697320D01*
X12366782Y-14697320D01*
X12153846Y-14624219D01*
X11931779Y-14587163D01*
X11706641Y-14587163D01*
X11484573Y-14624219D01*
X11271637Y-14697320D01*
X11073634Y-14804474D01*
X10895970Y-14942757D01*
X10743485Y-15108397D01*
X10653919Y-15245487D01*
X10606812Y-15287942D01*
X10544875Y-15301554D01*
X10484307Y-15282764D01*
X10440950Y-15236486D01*
X10436906Y-15228982D01*
X10332939Y-15036039D01*
X10308367Y-14995116D01*
X10308361Y-14995106D01*
X10307166Y-14993311D01*
X10278914Y-14954864D01*
X10278911Y-14954860D01*
X10095590Y-14728248D01*
X10092109Y-14723991D01*
X9991296Y-14602065D01*
X9982895Y-14591904D01*
X9966234Y-14565629D01*
X9963591Y-14560005D01*
X9931231Y-14491147D01*
X9920291Y-14452755D01*
X9890469Y-14196623D01*
X9890351Y-14196060D01*
X9889926Y-14191968D01*
X9889816Y-14191020D01*
X9889827Y-14191018D01*
X9887710Y-14170607D01*
X9887710Y-13435466D01*
X9897149Y-13388013D01*
X9924029Y-13347785D01*
X14021084Y-9250730D01*
X14070447Y-9220480D01*
X14128163Y-9215938D01*
X14181650Y-9238093D01*
G37*
%TD.AperFunction*%
%TA.AperFunction,Conductor*%
G36*
X57980470Y-8173102D02*
G01*
X58020698Y-8199982D01*
X60752205Y-10931489D01*
X60762900Y-10943684D01*
X60768145Y-10950520D01*
X60782441Y-10969150D01*
X60807905Y-10988689D01*
X60807918Y-10988700D01*
X60814355Y-10993639D01*
X60814356Y-10993640D01*
X60862409Y-11030512D01*
X60863374Y-11031252D01*
X60863376Y-11031254D01*
X60879230Y-11043419D01*
X60909553Y-11066687D01*
X61057578Y-11128001D01*
X61176543Y-11143663D01*
X61176550Y-11143663D01*
X61216428Y-11148913D01*
X61248248Y-11144723D01*
X61264433Y-11143663D01*
X68248101Y-11143663D01*
X68306043Y-11158033D01*
X68350555Y-11197812D01*
X68371321Y-11253780D01*
X68377023Y-11304395D01*
X68404273Y-11382273D01*
X68411231Y-11423226D01*
X68404273Y-11464179D01*
X68366286Y-11572742D01*
X68347149Y-11742591D01*
X68366286Y-11912438D01*
X68366286Y-11912440D01*
X68366287Y-11912442D01*
X68422740Y-12073775D01*
X68513678Y-12218501D01*
X68634540Y-12339363D01*
X68779266Y-12430301D01*
X68812074Y-12441780D01*
X68829079Y-12449202D01*
X68845397Y-12457831D01*
X68848907Y-12459687D01*
X68909612Y-12482015D01*
X68937558Y-12492294D01*
X68944966Y-12494905D01*
X68950714Y-12496932D01*
X68951274Y-12497121D01*
X68955787Y-12498578D01*
X68963892Y-12501196D01*
X68988350Y-12508749D01*
X69034450Y-12534823D01*
X69039659Y-12539484D01*
X69042615Y-12542129D01*
X69061070Y-12555734D01*
X69075171Y-12567863D01*
X69766446Y-13259138D01*
X69793326Y-13299366D01*
X69802765Y-13346819D01*
X69802765Y-14170603D01*
X69800647Y-14191015D01*
X69800659Y-14191017D01*
X69800547Y-14191972D01*
X69800123Y-14196058D01*
X69800006Y-14196620D01*
X69795440Y-14235832D01*
X69770182Y-14452749D01*
X69759239Y-14491148D01*
X69724234Y-14565633D01*
X69707573Y-14591907D01*
X69598455Y-14723877D01*
X69594990Y-14728113D01*
X69411557Y-14954864D01*
X69383343Y-14993255D01*
X69382142Y-14995059D01*
X69357544Y-15036020D01*
X69346093Y-15057271D01*
X69253567Y-15228982D01*
X69249523Y-15236486D01*
X69206165Y-15282764D01*
X69145598Y-15301553D01*
X69083660Y-15287941D01*
X69036553Y-15245486D01*
X69017581Y-15216448D01*
X68946987Y-15108395D01*
X68794505Y-14942757D01*
X68616841Y-14804474D01*
X68418839Y-14697321D01*
X68418838Y-14697320D01*
X68418837Y-14697320D01*
X68205901Y-14624219D01*
X67983834Y-14587163D01*
X67758696Y-14587163D01*
X67536628Y-14624219D01*
X67323692Y-14697320D01*
X67125689Y-14804474D01*
X66948025Y-14942757D01*
X66795544Y-15108393D01*
X66705074Y-15246868D01*
X66660282Y-15288101D01*
X66601265Y-15303046D01*
X66542248Y-15288101D01*
X66497456Y-15246868D01*
X66464008Y-15195672D01*
X66406987Y-15108395D01*
X66254505Y-14942757D01*
X66076841Y-14804474D01*
X65878839Y-14697321D01*
X65878838Y-14697320D01*
X65878837Y-14697320D01*
X65665901Y-14624219D01*
X65443834Y-14587163D01*
X65218696Y-14587163D01*
X64996628Y-14624219D01*
X64783692Y-14697320D01*
X64585689Y-14804474D01*
X64408025Y-14942757D01*
X64255544Y-15108393D01*
X64165074Y-15246868D01*
X64120282Y-15288101D01*
X64061265Y-15303046D01*
X64002248Y-15288101D01*
X63957456Y-15246868D01*
X63924008Y-15195672D01*
X63866987Y-15108395D01*
X63714505Y-14942757D01*
X63536841Y-14804474D01*
X63338839Y-14697321D01*
X63338838Y-14697320D01*
X63338837Y-14697320D01*
X63125901Y-14624219D01*
X62903834Y-14587163D01*
X62678696Y-14587163D01*
X62456628Y-14624219D01*
X62243692Y-14697320D01*
X62045689Y-14804474D01*
X61868025Y-14942757D01*
X61715544Y-15108393D01*
X61625074Y-15246868D01*
X61580282Y-15288101D01*
X61521265Y-15303046D01*
X61462248Y-15288101D01*
X61417456Y-15246868D01*
X61384008Y-15195672D01*
X61326987Y-15108395D01*
X61174505Y-14942757D01*
X60996841Y-14804474D01*
X60798839Y-14697321D01*
X60798838Y-14697320D01*
X60798837Y-14697320D01*
X60585901Y-14624219D01*
X60363834Y-14587163D01*
X60138696Y-14587163D01*
X59916628Y-14624219D01*
X59703692Y-14697320D01*
X59505689Y-14804474D01*
X59328025Y-14942757D01*
X59175544Y-15108393D01*
X59085074Y-15246868D01*
X59040282Y-15288101D01*
X58981265Y-15303046D01*
X58922248Y-15288101D01*
X58877456Y-15246868D01*
X58844008Y-15195672D01*
X58786987Y-15108395D01*
X58634505Y-14942757D01*
X58456841Y-14804474D01*
X58258839Y-14697321D01*
X58258838Y-14697320D01*
X58258837Y-14697320D01*
X58045901Y-14624219D01*
X57823834Y-14587163D01*
X57598696Y-14587163D01*
X57376628Y-14624219D01*
X57163692Y-14697320D01*
X56965689Y-14804474D01*
X56788025Y-14942757D01*
X56635544Y-15108393D01*
X56545074Y-15246868D01*
X56500282Y-15288101D01*
X56441265Y-15303046D01*
X56382248Y-15288101D01*
X56337456Y-15246868D01*
X56304008Y-15195672D01*
X56246987Y-15108395D01*
X56094505Y-14942757D01*
X55916841Y-14804474D01*
X55718839Y-14697321D01*
X55718838Y-14697320D01*
X55718837Y-14697320D01*
X55505901Y-14624219D01*
X55283834Y-14587163D01*
X55058696Y-14587163D01*
X54836628Y-14624219D01*
X54623692Y-14697320D01*
X54425689Y-14804474D01*
X54248025Y-14942757D01*
X54095544Y-15108393D01*
X54005074Y-15246868D01*
X53960282Y-15288101D01*
X53901265Y-15303046D01*
X53842248Y-15288101D01*
X53797456Y-15246868D01*
X53764008Y-15195672D01*
X53706987Y-15108395D01*
X53554505Y-14942757D01*
X53376841Y-14804474D01*
X53178839Y-14697321D01*
X53178838Y-14697320D01*
X53178837Y-14697320D01*
X52965901Y-14624219D01*
X52743834Y-14587163D01*
X52518696Y-14587163D01*
X52296628Y-14624219D01*
X52083692Y-14697320D01*
X51885689Y-14804474D01*
X51708025Y-14942757D01*
X51555544Y-15108393D01*
X51465074Y-15246868D01*
X51420282Y-15288101D01*
X51361265Y-15303046D01*
X51302248Y-15288101D01*
X51257456Y-15246868D01*
X51166983Y-15108389D01*
X51141668Y-15080890D01*
X51113178Y-15029207D01*
X51111806Y-14970207D01*
X51137862Y-14917256D01*
X51185443Y-14882346D01*
X51308141Y-14831524D01*
X51403337Y-14758477D01*
X51403337Y-14758476D01*
X51419631Y-14745974D01*
X51419633Y-14745971D01*
X51435252Y-14733987D01*
X51454801Y-14708509D01*
X51465481Y-14696331D01*
X54146550Y-12015262D01*
X54160642Y-12003141D01*
X54179100Y-11989535D01*
X54179101Y-11989533D01*
X54179105Y-11989531D01*
X54187257Y-11982236D01*
X54233361Y-11956156D01*
X54257821Y-11948603D01*
X54270423Y-11944533D01*
X54271010Y-11944335D01*
X54284149Y-11939703D01*
X54372808Y-11907093D01*
X54392630Y-11896610D01*
X54409622Y-11889194D01*
X54442448Y-11877709D01*
X54587174Y-11786771D01*
X54708036Y-11665909D01*
X54798974Y-11521183D01*
X54855427Y-11359850D01*
X54874564Y-11190000D01*
X54873242Y-11178271D01*
X54868088Y-11132521D01*
X54855427Y-11020150D01*
X54798974Y-10858817D01*
X54708036Y-10714091D01*
X54587174Y-10593229D01*
X54442448Y-10502291D01*
X54281115Y-10445838D01*
X54281113Y-10445837D01*
X54281111Y-10445837D01*
X54111265Y-10426700D01*
X53941418Y-10445837D01*
X53941415Y-10445837D01*
X53941415Y-10445838D01*
X53780082Y-10502291D01*
X53780080Y-10502291D01*
X53780080Y-10502292D01*
X53635354Y-10593230D01*
X53538946Y-10689639D01*
X53483359Y-10721733D01*
X53419171Y-10721733D01*
X53363584Y-10689639D01*
X53267175Y-10593230D01*
X53267174Y-10593229D01*
X53122448Y-10502291D01*
X52961115Y-10445838D01*
X52961113Y-10445837D01*
X52961111Y-10445837D01*
X52791265Y-10426700D01*
X52621418Y-10445837D01*
X52621415Y-10445837D01*
X52621415Y-10445838D01*
X52460082Y-10502291D01*
X52460080Y-10502291D01*
X52460080Y-10502292D01*
X52315354Y-10593230D01*
X52194494Y-10714090D01*
X52103555Y-10858816D01*
X52092078Y-10891617D01*
X52084654Y-10908627D01*
X52074178Y-10928436D01*
X52041552Y-11017130D01*
X52037041Y-11029915D01*
X52036839Y-11030512D01*
X52032666Y-11043419D01*
X52025105Y-11067903D01*
X51999034Y-11113998D01*
X51991719Y-11122172D01*
X51978114Y-11140627D01*
X51965990Y-11154724D01*
X51905536Y-11215180D01*
X51865307Y-11242061D01*
X51817853Y-11251500D01*
X41524933Y-11251500D01*
X41508748Y-11250439D01*
X41476928Y-11246249D01*
X41445108Y-11250439D01*
X41445094Y-11250439D01*
X41348624Y-11263139D01*
X41337471Y-11264608D01*
X41337460Y-11264608D01*
X41318077Y-11267161D01*
X41170052Y-11328475D01*
X41074855Y-11401523D01*
X41042939Y-11426014D01*
X41023394Y-11451484D01*
X41012703Y-11463674D01*
X38216146Y-14260231D01*
X38200214Y-14273168D01*
X38200222Y-14273178D01*
X38199478Y-14273766D01*
X38196286Y-14276359D01*
X38195807Y-14276671D01*
X37993597Y-14436703D01*
X37958706Y-14456117D01*
X37881295Y-14484030D01*
X37850935Y-14490829D01*
X37680269Y-14507005D01*
X37674948Y-14507540D01*
X37436447Y-14532726D01*
X37376618Y-14524238D01*
X37327905Y-14488481D01*
X37301876Y-14433945D01*
X37304714Y-14373584D01*
X37335742Y-14321733D01*
X38813260Y-12844215D01*
X38825438Y-12833535D01*
X38850915Y-12813987D01*
X38862897Y-12798370D01*
X38862901Y-12798367D01*
X38875403Y-12782072D01*
X38875405Y-12782072D01*
X38922121Y-12721189D01*
X38932801Y-12709011D01*
X40166550Y-11475262D01*
X40180642Y-11463141D01*
X40199100Y-11449535D01*
X40199101Y-11449533D01*
X40199105Y-11449531D01*
X40207257Y-11442236D01*
X40253361Y-11416156D01*
X40277821Y-11408603D01*
X40290423Y-11404533D01*
X40291010Y-11404335D01*
X40304149Y-11399703D01*
X40392808Y-11367093D01*
X40412630Y-11356610D01*
X40429622Y-11349194D01*
X40462448Y-11337709D01*
X40607174Y-11246771D01*
X40728036Y-11125909D01*
X40818974Y-10981183D01*
X40875427Y-10819850D01*
X40882930Y-10753249D01*
X40887960Y-10708617D01*
X40908726Y-10652648D01*
X40953239Y-10612870D01*
X41011180Y-10598500D01*
X43311995Y-10598500D01*
X43328179Y-10599560D01*
X43360000Y-10603750D01*
X43391821Y-10599560D01*
X43391833Y-10599560D01*
X43399884Y-10598500D01*
X43399885Y-10598500D01*
X43499456Y-10585391D01*
X43518851Y-10582838D01*
X43666876Y-10521524D01*
X43762072Y-10448477D01*
X43762072Y-10448476D01*
X43778366Y-10435974D01*
X43778367Y-10435971D01*
X43793987Y-10423987D01*
X43813534Y-10398513D01*
X43824219Y-10386329D01*
X44104210Y-10106337D01*
X44118081Y-10094380D01*
X44137213Y-10080214D01*
X44147177Y-10071255D01*
X44192618Y-10045260D01*
X44216885Y-10037570D01*
X44227980Y-10033914D01*
X44228509Y-10033733D01*
X44240638Y-10029412D01*
X44328945Y-9996702D01*
X44348267Y-9986431D01*
X44365511Y-9978883D01*
X44397448Y-9967709D01*
X44542174Y-9876771D01*
X44663036Y-9755909D01*
X44753974Y-9611183D01*
X44810427Y-9449850D01*
X44829564Y-9280000D01*
X44810427Y-9110150D01*
X44753974Y-8948817D01*
X44663036Y-8804091D01*
X44542174Y-8683229D01*
X44397448Y-8592291D01*
X44236115Y-8535838D01*
X44236113Y-8535837D01*
X44236111Y-8535837D01*
X44066265Y-8516700D01*
X43896418Y-8535837D01*
X43896415Y-8535837D01*
X43896415Y-8535838D01*
X43735082Y-8592291D01*
X43735080Y-8592291D01*
X43735080Y-8592292D01*
X43590354Y-8683230D01*
X43469494Y-8804090D01*
X43378554Y-8948818D01*
X43366723Y-8982628D01*
X43359437Y-8999376D01*
X43348737Y-9019725D01*
X43316342Y-9108499D01*
X43311476Y-9122455D01*
X43311309Y-9122957D01*
X43306634Y-9137742D01*
X43299363Y-9162007D01*
X43273199Y-9208860D01*
X43268052Y-9214641D01*
X43255061Y-9232352D01*
X43242758Y-9246690D01*
X43144270Y-9345180D01*
X43104041Y-9372061D01*
X43056588Y-9381500D01*
X38314932Y-9381500D01*
X38298747Y-9380439D01*
X38295557Y-9380019D01*
X38266928Y-9376249D01*
X38238298Y-9380019D01*
X38235108Y-9380439D01*
X38235094Y-9380440D01*
X38108078Y-9397162D01*
X37960050Y-9458477D01*
X37923475Y-9476764D01*
X37896430Y-9507295D01*
X37868128Y-9529012D01*
X37868127Y-9529011D01*
X37868126Y-9529013D01*
X37832940Y-9556012D01*
X37813394Y-9581484D01*
X37802703Y-9593674D01*
X33136146Y-14260231D01*
X33120214Y-14273168D01*
X33120222Y-14273178D01*
X33119478Y-14273766D01*
X33116286Y-14276359D01*
X33115807Y-14276671D01*
X32913597Y-14436703D01*
X32878706Y-14456117D01*
X32801295Y-14484030D01*
X32770935Y-14490829D01*
X32600269Y-14507005D01*
X32594949Y-14507540D01*
X32304975Y-14538162D01*
X32258021Y-14545329D01*
X32255883Y-14545757D01*
X32209352Y-14557365D01*
X32005852Y-14618347D01*
X31990678Y-14621873D01*
X31976633Y-14624217D01*
X31912758Y-14646145D01*
X31908094Y-14647644D01*
X31850965Y-14664764D01*
X31834224Y-14672453D01*
X31822741Y-14677048D01*
X31763691Y-14697320D01*
X31565687Y-14804475D01*
X31388025Y-14942757D01*
X31235540Y-15108397D01*
X31145974Y-15245487D01*
X31098867Y-15287942D01*
X31036930Y-15301554D01*
X30976362Y-15282764D01*
X30933005Y-15236486D01*
X30928961Y-15228982D01*
X30824994Y-15036039D01*
X30800422Y-14995116D01*
X30800416Y-14995106D01*
X30799221Y-14993311D01*
X30770969Y-14954864D01*
X30770966Y-14954860D01*
X30587645Y-14728248D01*
X30584164Y-14723991D01*
X30521038Y-14647644D01*
X30495841Y-14617170D01*
X30469345Y-14560005D01*
X30474363Y-14497200D01*
X30515427Y-14379850D01*
X30534564Y-14210000D01*
X30515427Y-14040150D01*
X30458974Y-13878817D01*
X30368036Y-13734091D01*
X30247174Y-13613229D01*
X30102448Y-13522291D01*
X29941115Y-13465838D01*
X29941113Y-13465837D01*
X29941111Y-13465837D01*
X29771265Y-13446700D01*
X29601418Y-13465837D01*
X29601415Y-13465837D01*
X29601415Y-13465838D01*
X29440082Y-13522291D01*
X29440080Y-13522291D01*
X29440080Y-13522292D01*
X29295354Y-13613230D01*
X29174495Y-13734089D01*
X29091600Y-13866014D01*
X29083556Y-13878817D01*
X29045458Y-13987694D01*
X29027102Y-14040153D01*
X29007965Y-14210000D01*
X29027102Y-14379847D01*
X29027102Y-14379849D01*
X29027103Y-14379850D01*
X29044658Y-14430019D01*
X29068165Y-14497198D01*
X29073183Y-14560003D01*
X29046688Y-14617167D01*
X28958362Y-14723992D01*
X28954990Y-14728113D01*
X28771557Y-14954864D01*
X28743343Y-14993255D01*
X28742142Y-14995059D01*
X28717544Y-15036020D01*
X28706093Y-15057271D01*
X28613567Y-15228982D01*
X28609523Y-15236486D01*
X28566165Y-15282764D01*
X28505598Y-15301553D01*
X28443660Y-15287941D01*
X28396553Y-15245486D01*
X28377581Y-15216448D01*
X28306987Y-15108395D01*
X28154505Y-14942757D01*
X27976841Y-14804474D01*
X27778839Y-14697321D01*
X27778838Y-14697320D01*
X27778837Y-14697320D01*
X27565901Y-14624219D01*
X27343834Y-14587163D01*
X27212747Y-14587163D01*
X27156452Y-14573648D01*
X27112429Y-14536048D01*
X27090274Y-14482561D01*
X27094816Y-14424845D01*
X27125066Y-14375482D01*
X28256034Y-13244514D01*
X29421832Y-12078715D01*
X29434010Y-12068035D01*
X29459487Y-12048487D01*
X29471470Y-12032869D01*
X29471473Y-12032867D01*
X29484977Y-12015269D01*
X29542955Y-11939710D01*
X29553829Y-11925539D01*
X29555671Y-11923138D01*
X29557024Y-11921375D01*
X29618338Y-11773350D01*
X29634000Y-11654385D01*
X29634000Y-11654378D01*
X29639250Y-11614500D01*
X29637973Y-11604803D01*
X29635061Y-11582680D01*
X29634000Y-11566495D01*
X29634000Y-8673608D01*
X29635394Y-8655064D01*
X29638823Y-8632391D01*
X29638825Y-8632380D01*
X29639430Y-8621463D01*
X29653593Y-8570412D01*
X29665546Y-8547779D01*
X29671586Y-8535975D01*
X29671861Y-8535420D01*
X29677870Y-8522868D01*
X29717501Y-8437120D01*
X29725093Y-8412480D01*
X29726531Y-8408108D01*
X29769662Y-8284850D01*
X29770909Y-8273779D01*
X29791674Y-8217813D01*
X29836187Y-8178033D01*
X29894129Y-8163663D01*
X57933017Y-8163663D01*
X57980470Y-8173102D01*
G37*
%TD.AperFunction*%
%TA.AperFunction,Conductor*%
G36*
X27738249Y-11841534D02*
G01*
X27779856Y-11897479D01*
X27784699Y-11967031D01*
X27751247Y-12028202D01*
X25517489Y-14261960D01*
X25501661Y-14274806D01*
X25501683Y-14274834D01*
X25499534Y-14276531D01*
X25497571Y-14278126D01*
X25497270Y-14278322D01*
X25497264Y-14278326D01*
X25497259Y-14278330D01*
X25368837Y-14379847D01*
X25295272Y-14437999D01*
X25260207Y-14457452D01*
X25183234Y-14485036D01*
X25152802Y-14491780D01*
X24982035Y-14507545D01*
X24976363Y-14508102D01*
X24725310Y-14534165D01*
X24694839Y-14533563D01*
X24442705Y-14497269D01*
X24442222Y-14497198D01*
X24276995Y-14472750D01*
X24248208Y-14464859D01*
X24163016Y-14430019D01*
X24131846Y-14411554D01*
X24092750Y-14379847D01*
X23926889Y-14245331D01*
X23922802Y-14242596D01*
X23904087Y-14227225D01*
X23462043Y-13785181D01*
X23431793Y-13735818D01*
X23427251Y-13678102D01*
X23449406Y-13624615D01*
X23493429Y-13587015D01*
X23549724Y-13573500D01*
X25448260Y-13573500D01*
X25464444Y-13574560D01*
X25496265Y-13578750D01*
X25528086Y-13574560D01*
X25528098Y-13574560D01*
X25536149Y-13573500D01*
X25536150Y-13573500D01*
X25635721Y-13560391D01*
X25655116Y-13557838D01*
X25803141Y-13496524D01*
X25898337Y-13423477D01*
X25898337Y-13423476D01*
X25914631Y-13410974D01*
X25914633Y-13410971D01*
X25930252Y-13398987D01*
X25949801Y-13373509D01*
X25960481Y-13361331D01*
X27386550Y-11935262D01*
X27400642Y-11923141D01*
X27419100Y-11909535D01*
X27419101Y-11909533D01*
X27419105Y-11909531D01*
X27427257Y-11902236D01*
X27473361Y-11876156D01*
X27497821Y-11868603D01*
X27510423Y-11864533D01*
X27511010Y-11864335D01*
X27524149Y-11859703D01*
X27612808Y-11827093D01*
X27612808Y-11827092D01*
X27620616Y-11824221D01*
X27621897Y-11827704D01*
X27673032Y-11816883D01*
X27738249Y-11841534D01*
G37*
%TD.AperFunction*%
%TA.AperFunction,Conductor*%
G36*
X51729149Y-12482015D02*
G01*
X51773172Y-12519615D01*
X51795327Y-12573102D01*
X51790785Y-12630818D01*
X51760535Y-12680181D01*
X50785535Y-13655181D01*
X50745307Y-13682061D01*
X50697854Y-13691500D01*
X44164933Y-13691500D01*
X44148748Y-13690439D01*
X44116928Y-13686249D01*
X44085108Y-13690439D01*
X44085094Y-13690439D01*
X43988624Y-13703139D01*
X43977471Y-13704608D01*
X43977460Y-13704608D01*
X43958076Y-13707161D01*
X43810053Y-13768474D01*
X43749327Y-13815073D01*
X43749326Y-13815074D01*
X43682938Y-13866014D01*
X43663392Y-13891487D01*
X43652700Y-13903678D01*
X43296147Y-14260231D01*
X43280215Y-14273168D01*
X43280223Y-14273178D01*
X43279479Y-14273766D01*
X43276287Y-14276359D01*
X43275808Y-14276671D01*
X43073598Y-14436703D01*
X43038711Y-14456115D01*
X42961290Y-14484032D01*
X42930935Y-14490829D01*
X42760269Y-14507005D01*
X42754948Y-14507540D01*
X42516447Y-14532726D01*
X42456618Y-14524238D01*
X42407905Y-14488481D01*
X42381876Y-14433945D01*
X42384714Y-14373584D01*
X42415742Y-14321733D01*
X43187597Y-13549878D01*
X43199775Y-13539198D01*
X43225252Y-13519650D01*
X43239378Y-13501239D01*
X43239382Y-13501236D01*
X43249741Y-13487735D01*
X43249743Y-13487734D01*
X43322789Y-13392539D01*
X43384103Y-13244514D01*
X43388631Y-13210118D01*
X43399765Y-13125548D01*
X43400826Y-13117489D01*
X43400826Y-13117483D01*
X43403097Y-13100235D01*
X43405015Y-13085663D01*
X43400825Y-13053842D01*
X43399765Y-13037658D01*
X43399765Y-13018608D01*
X43401159Y-13000064D01*
X43404590Y-12977380D01*
X43405195Y-12966463D01*
X43419358Y-12915412D01*
X43431311Y-12892779D01*
X43437351Y-12880975D01*
X43437626Y-12880420D01*
X43443635Y-12867868D01*
X43483266Y-12782120D01*
X43490858Y-12757480D01*
X43492296Y-12753108D01*
X43535427Y-12629850D01*
X43537079Y-12615183D01*
X43541200Y-12578616D01*
X43561966Y-12522648D01*
X43606479Y-12482870D01*
X43664420Y-12468500D01*
X51672854Y-12468500D01*
X51729149Y-12482015D01*
G37*
%TD.AperFunction*%
%TA.AperFunction,Conductor*%
G36*
X28214813Y-8178033D02*
G01*
X28259326Y-8217813D01*
X28280090Y-8273779D01*
X28281338Y-8284850D01*
X28324436Y-8408019D01*
X28325887Y-8412431D01*
X28333488Y-8437097D01*
X28333490Y-8437102D01*
X28333491Y-8437104D01*
X28333499Y-8437121D01*
X28373141Y-8522898D01*
X28379434Y-8536023D01*
X28379707Y-8536572D01*
X28385455Y-8547786D01*
X28397409Y-8570424D01*
X28411567Y-8621451D01*
X28412174Y-8632386D01*
X28415605Y-8655066D01*
X28417000Y-8673613D01*
X28417000Y-11311089D01*
X28407561Y-11358542D01*
X28380683Y-11398767D01*
X28316313Y-11463138D01*
X28262031Y-11517420D01*
X28204648Y-11549980D01*
X28138687Y-11548499D01*
X28082823Y-11513397D01*
X28052870Y-11454610D01*
X28057308Y-11388785D01*
X28095427Y-11279850D01*
X28114564Y-11110000D01*
X28095427Y-10940150D01*
X28038974Y-10778817D01*
X27948036Y-10634091D01*
X27827174Y-10513229D01*
X27682448Y-10422291D01*
X27521115Y-10365838D01*
X27521113Y-10365837D01*
X27521111Y-10365837D01*
X27351265Y-10346700D01*
X27181418Y-10365837D01*
X27181415Y-10365837D01*
X27181415Y-10365838D01*
X27020082Y-10422291D01*
X27020080Y-10422291D01*
X27020080Y-10422292D01*
X26875354Y-10513230D01*
X26754494Y-10634090D01*
X26663555Y-10778816D01*
X26652078Y-10811617D01*
X26644654Y-10828627D01*
X26634178Y-10848436D01*
X26601552Y-10937130D01*
X26597041Y-10949915D01*
X26596839Y-10950512D01*
X26592666Y-10963419D01*
X26585105Y-10987903D01*
X26559034Y-11033998D01*
X26551725Y-11042165D01*
X26538113Y-11060630D01*
X26525986Y-11074728D01*
X25280535Y-12320181D01*
X25240307Y-12347061D01*
X25192854Y-12356500D01*
X17999676Y-12356500D01*
X17952223Y-12347061D01*
X17911995Y-12320181D01*
X17887658Y-12295844D01*
X17857408Y-12246481D01*
X17852866Y-12188765D01*
X17875021Y-12135278D01*
X17919044Y-12097678D01*
X17975339Y-12084163D01*
X21080705Y-12084163D01*
X21096889Y-12085223D01*
X21128710Y-12089413D01*
X21160531Y-12085223D01*
X21160543Y-12085223D01*
X21168594Y-12084163D01*
X21168595Y-12084163D01*
X21268166Y-12071054D01*
X21287561Y-12068501D01*
X21435586Y-12007187D01*
X21530782Y-11934140D01*
X21530782Y-11934139D01*
X21547076Y-11921637D01*
X21547078Y-11921634D01*
X21562697Y-11909650D01*
X21582246Y-11884172D01*
X21592926Y-11871994D01*
X25084495Y-8380425D01*
X25098587Y-8368304D01*
X25117045Y-8354698D01*
X25117046Y-8354696D01*
X25117050Y-8354694D01*
X25125202Y-8347399D01*
X25171306Y-8321319D01*
X25195766Y-8313766D01*
X25208368Y-8309696D01*
X25208955Y-8309498D01*
X25222094Y-8304866D01*
X25310753Y-8272256D01*
X25329568Y-8262306D01*
X25351006Y-8253426D01*
X25371330Y-8247164D01*
X25457078Y-8207533D01*
X25469630Y-8201524D01*
X25470185Y-8201249D01*
X25481989Y-8195209D01*
X25504623Y-8183255D01*
X25555673Y-8169093D01*
X25566590Y-8168488D01*
X25589276Y-8165056D01*
X25607818Y-8163663D01*
X28156871Y-8163663D01*
X28214813Y-8178033D01*
G37*
%TD.AperFunction*%
%TA.AperFunction,Conductor*%
G36*
X18397599Y1011742D02*
G01*
X18441515Y970987D01*
X18535540Y827072D01*
X18535542Y827070D01*
X18535543Y827069D01*
X18688025Y661431D01*
X18865689Y523148D01*
X19063691Y415995D01*
X19063694Y415994D01*
X19101844Y402897D01*
X19117150Y396468D01*
X19132052Y388996D01*
X19471748Y273165D01*
X19497665Y265086D01*
X19498352Y264892D01*
X19498844Y264752D01*
X19502128Y263916D01*
X19518203Y259824D01*
X19525208Y258041D01*
X19569435Y248021D01*
X19780975Y200095D01*
X19785256Y199044D01*
X19933617Y159789D01*
X19958678Y150151D01*
X20060426Y97735D01*
X20084123Y81832D01*
X20295042Y-98134D01*
X20306574Y-106248D01*
X20322901Y-119980D01*
X21323798Y-1120877D01*
X21335579Y-1134509D01*
X21350132Y-1154057D01*
X21388535Y-1186281D01*
X21396509Y-1193588D01*
X21400502Y-1197581D01*
X21423316Y-1215620D01*
X21425073Y-1217009D01*
X21427868Y-1219286D01*
X21452744Y-1240159D01*
X21485962Y-1268032D01*
X21485963Y-1268032D01*
X21486860Y-1268785D01*
X21503634Y-1279471D01*
X21504696Y-1279966D01*
X21504697Y-1279967D01*
X21536658Y-1294871D01*
X21573432Y-1312019D01*
X21576679Y-1313591D01*
X21645469Y-1348139D01*
X21664244Y-1354664D01*
X21665391Y-1354900D01*
X21665396Y-1354903D01*
X21739757Y-1370257D01*
X21743179Y-1371017D01*
X21818085Y-1388770D01*
X21837875Y-1390792D01*
X21839040Y-1390758D01*
X21839045Y-1390759D01*
X21914895Y-1388552D01*
X21918502Y-1388500D01*
X22371809Y-1388500D01*
X22386154Y-1389332D01*
X22394809Y-1390340D01*
X22423001Y-1393625D01*
X22443995Y-1394023D01*
X22533807Y-1395726D01*
X22592288Y-1411651D01*
X22636235Y-1453393D01*
X22655147Y-1510978D01*
X22658270Y-1555247D01*
X22658271Y-1555251D01*
X22661098Y-1572318D01*
X22662765Y-1592582D01*
X22662765Y-2209427D01*
X22661520Y-2226955D01*
X22657801Y-2252993D01*
X22653804Y-2338768D01*
X22645201Y-2378716D01*
X22642132Y-2386453D01*
X22638157Y-2395423D01*
X22620913Y-2430511D01*
X22601856Y-2469288D01*
X22601830Y-2469342D01*
X22598606Y-2476024D01*
X22598547Y-2476149D01*
X22594569Y-2484748D01*
X22538366Y-2609265D01*
X22537106Y-2611721D01*
X22480635Y-2785523D01*
X22472048Y-2867220D01*
X22461771Y-2965000D01*
X22480635Y-3144475D01*
X22480636Y-3144478D01*
X22536399Y-3316103D01*
X22536400Y-3316105D01*
X22536401Y-3316107D01*
X22618679Y-3458616D01*
X22634819Y-3509806D01*
X22627813Y-3563024D01*
X22598972Y-3608295D01*
X21414540Y-4792727D01*
X21385368Y-4814375D01*
X21351174Y-4826639D01*
X21328631Y-4831146D01*
X21297581Y-4838363D01*
X21296192Y-4838732D01*
X21266120Y-4847706D01*
X21211393Y-4865880D01*
X21175652Y-4877749D01*
X21150002Y-4890368D01*
X21136222Y-4896145D01*
X21090081Y-4912290D01*
X20945355Y-5003229D01*
X20824495Y-5124089D01*
X20735081Y-5266389D01*
X20733556Y-5268817D01*
X20683018Y-5413247D01*
X20677102Y-5430153D01*
X20657965Y-5600000D01*
X20677102Y-5769846D01*
X20677102Y-5769848D01*
X20677103Y-5769850D01*
X20733556Y-5931183D01*
X20824494Y-6075909D01*
X20945356Y-6196771D01*
X21090082Y-6287709D01*
X21251415Y-6344162D01*
X21421265Y-6363299D01*
X21591115Y-6344162D01*
X21752448Y-6287709D01*
X21897174Y-6196771D01*
X22018036Y-6075909D01*
X22108974Y-5931183D01*
X22116628Y-5909306D01*
X22125648Y-5889372D01*
X22133146Y-5876072D01*
X22165348Y-5795869D01*
X22165937Y-5794431D01*
X22173123Y-5777241D01*
X22197579Y-5739711D01*
X22228821Y-5706789D01*
X22249871Y-5679813D01*
X22259939Y-5668426D01*
X25677294Y-2251071D01*
X25690334Y-2239735D01*
X25712087Y-2223342D01*
X25729469Y-2207429D01*
X25772249Y-2181849D01*
X25795752Y-2173627D01*
X25802952Y-2171048D01*
X25803252Y-2170938D01*
X25809208Y-2168712D01*
X25896098Y-2135626D01*
X25913468Y-2126206D01*
X25931624Y-2118169D01*
X25960092Y-2108209D01*
X26104818Y-2017271D01*
X26225680Y-1896409D01*
X26316618Y-1751683D01*
X26373071Y-1590350D01*
X26374572Y-1577027D01*
X26375545Y-1568395D01*
X26397635Y-1510524D01*
X26444963Y-1470559D01*
X26505718Y-1458474D01*
X26564737Y-1477285D01*
X26607293Y-1522298D01*
X26622765Y-1582279D01*
X26622765Y-2001060D01*
X26613326Y-2048513D01*
X26586446Y-2088741D01*
X19416842Y-9258343D01*
X19356747Y-9291555D01*
X19313387Y-9289116D01*
X19312943Y-9293065D01*
X19129210Y-9272363D01*
X18959363Y-9291500D01*
X18959360Y-9291500D01*
X18959360Y-9291501D01*
X18798027Y-9347954D01*
X18798025Y-9347954D01*
X18798025Y-9347955D01*
X18653299Y-9438893D01*
X18532440Y-9559752D01*
X18441500Y-9704481D01*
X18406556Y-9804343D01*
X18377196Y-9851069D01*
X18330469Y-9880429D01*
X18275632Y-9886607D01*
X18149210Y-9872363D01*
X17979363Y-9891500D01*
X17979360Y-9891500D01*
X17979360Y-9891501D01*
X17818027Y-9947954D01*
X17818025Y-9947954D01*
X17818025Y-9947955D01*
X17668562Y-10041869D01*
X17602591Y-10060875D01*
X17536619Y-10041870D01*
X17531183Y-10038454D01*
X17518209Y-10033914D01*
X17498385Y-10026977D01*
X17481377Y-10019554D01*
X17461555Y-10009072D01*
X17400957Y-9986782D01*
X17358466Y-9960406D01*
X17329850Y-9919390D01*
X17319765Y-9870406D01*
X17319765Y-6188004D01*
X17320826Y-6171818D01*
X17325015Y-6139999D01*
X17320826Y-6108182D01*
X17320824Y-6108166D01*
X17319765Y-6100122D01*
X17319765Y-6100115D01*
X17304103Y-5981150D01*
X17245014Y-5838496D01*
X17242790Y-5833127D01*
X17242789Y-5833126D01*
X17242789Y-5833125D01*
X17196883Y-5773299D01*
X17169742Y-5737928D01*
X17169739Y-5737925D01*
X17145252Y-5706013D01*
X17119777Y-5686465D01*
X17107591Y-5675777D01*
X16406536Y-4974722D01*
X16394407Y-4960621D01*
X16380802Y-4942166D01*
X16378052Y-4939093D01*
X16373496Y-4934001D01*
X16347422Y-4887901D01*
X16342083Y-4870613D01*
X16339869Y-4863443D01*
X16335920Y-4851216D01*
X16335794Y-4850825D01*
X16335605Y-4850265D01*
X16333578Y-4844517D01*
X16330967Y-4837109D01*
X16319973Y-4807220D01*
X16298360Y-4748458D01*
X16290096Y-4732831D01*
X16287875Y-4728630D01*
X16280452Y-4711621D01*
X16278053Y-4704766D01*
X16268974Y-4678817D01*
X16178036Y-4534091D01*
X16057174Y-4413229D01*
X15912448Y-4322291D01*
X15751115Y-4265838D01*
X15751113Y-4265837D01*
X15751111Y-4265837D01*
X15581265Y-4246700D01*
X15411418Y-4265837D01*
X15411415Y-4265837D01*
X15411415Y-4265838D01*
X15250082Y-4322291D01*
X15250080Y-4322291D01*
X15250080Y-4322292D01*
X15105354Y-4413230D01*
X14984495Y-4534089D01*
X14905893Y-4659182D01*
X14893556Y-4678817D01*
X14837600Y-4838732D01*
X14837102Y-4840154D01*
X14833670Y-4870613D01*
X14807396Y-4934042D01*
X14751404Y-4973770D01*
X14682857Y-4977619D01*
X14622769Y-4944409D01*
X11068146Y-1389786D01*
X11037534Y-1339290D01*
X11033748Y-1280361D01*
X11057648Y-1226363D01*
X11103813Y-1189542D01*
X11107078Y-1188033D01*
X11119630Y-1182024D01*
X11120185Y-1181749D01*
X11131989Y-1175709D01*
X11154623Y-1163755D01*
X11205673Y-1149593D01*
X11216590Y-1148988D01*
X11239276Y-1145556D01*
X11257818Y-1144163D01*
X13945799Y-1144163D01*
X13993252Y-1153602D01*
X14033480Y-1180482D01*
X14215175Y-1362177D01*
X14243473Y-1405985D01*
X14251255Y-1457553D01*
X14237145Y-1507761D01*
X14229144Y-1522912D01*
X14222691Y-1535552D01*
X14222432Y-1536079D01*
X14216836Y-1547793D01*
X14177201Y-1633552D01*
X14169599Y-1658222D01*
X14168141Y-1662654D01*
X14125047Y-1785813D01*
X14105910Y-1955662D01*
X14125047Y-2125509D01*
X14125047Y-2125511D01*
X14125048Y-2125513D01*
X14181501Y-2286846D01*
X14272439Y-2431572D01*
X14393301Y-2552434D01*
X14538027Y-2643372D01*
X14699360Y-2699825D01*
X14869210Y-2718962D01*
X15039060Y-2699825D01*
X15200393Y-2643372D01*
X15345119Y-2552434D01*
X15465981Y-2431572D01*
X15556919Y-2286846D01*
X15613372Y-2125513D01*
X15632509Y-1955663D01*
X15630751Y-1940064D01*
X15618664Y-1832779D01*
X15613372Y-1785813D01*
X15570262Y-1662613D01*
X15568822Y-1658239D01*
X15561214Y-1633548D01*
X15521584Y-1547800D01*
X15515579Y-1535255D01*
X15515306Y-1534704D01*
X15515303Y-1534697D01*
X15509649Y-1523647D01*
X15509258Y-1522883D01*
X15497301Y-1500242D01*
X15483140Y-1449196D01*
X15482535Y-1438286D01*
X15482535Y-1438282D01*
X15479103Y-1415595D01*
X15477710Y-1397054D01*
X15477710Y-1203667D01*
X15478771Y-1187481D01*
X15479444Y-1182368D01*
X15482960Y-1155663D01*
X15482358Y-1151094D01*
X15478771Y-1123845D01*
X15478769Y-1123829D01*
X15477710Y-1115785D01*
X15477710Y-1115778D01*
X15462048Y-996813D01*
X15400734Y-848788D01*
X15377032Y-817899D01*
X15368477Y-806750D01*
X15368476Y-806749D01*
X15347371Y-779244D01*
X15327687Y-753591D01*
X15327684Y-753588D01*
X15322739Y-747143D01*
X15322740Y-747145D01*
X15322738Y-747143D01*
X15303197Y-721676D01*
X15277722Y-702128D01*
X15265536Y-691440D01*
X14909277Y-335181D01*
X14879027Y-285818D01*
X14874485Y-228102D01*
X14896640Y-174615D01*
X14940663Y-137015D01*
X14996958Y-123500D01*
X17275136Y-123500D01*
X17322589Y-132939D01*
X17362817Y-159819D01*
X19843935Y-2640937D01*
X19856063Y-2655037D01*
X19869671Y-2673495D01*
X19876976Y-2681659D01*
X19903049Y-2727755D01*
X19910604Y-2752218D01*
X19914500Y-2764305D01*
X19914711Y-2764932D01*
X19919497Y-2778532D01*
X19952120Y-2867220D01*
X19962601Y-2887040D01*
X19970024Y-2904048D01*
X19981501Y-2936846D01*
X20072439Y-3081572D01*
X20193301Y-3202434D01*
X20338027Y-3293372D01*
X20499360Y-3349825D01*
X20669210Y-3368962D01*
X20839060Y-3349825D01*
X21000393Y-3293372D01*
X21145119Y-3202434D01*
X21265981Y-3081572D01*
X21356919Y-2936846D01*
X21413372Y-2775513D01*
X21432509Y-2605663D01*
X21413372Y-2435813D01*
X21356919Y-2274480D01*
X21265981Y-2129754D01*
X21145119Y-2008892D01*
X21000393Y-1917954D01*
X21000392Y-1917953D01*
X21000391Y-1917953D01*
X20967595Y-1906477D01*
X20950587Y-1899054D01*
X20930767Y-1888573D01*
X20842079Y-1855950D01*
X20828479Y-1851164D01*
X20827851Y-1850953D01*
X20815767Y-1847057D01*
X20791303Y-1839502D01*
X20745207Y-1813429D01*
X20737043Y-1806124D01*
X20718581Y-1792513D01*
X20704481Y-1780385D01*
X18191786Y732310D01*
X18161761Y780988D01*
X18156776Y837963D01*
X18177893Y891115D01*
X18236133Y974289D01*
X18281337Y1013611D01*
X18339701Y1027149D01*
X18397599Y1011742D01*
G37*
%TD.AperFunction*%
%TA.AperFunction,Conductor*%
G36*
X61095963Y-1414070D02*
G01*
X61141014Y-1456870D01*
X61159643Y-1516151D01*
X61147174Y-1577027D01*
X61146293Y-1578826D01*
X61146163Y-1579097D01*
X61141829Y-1588392D01*
X61084653Y-1714280D01*
X61083327Y-1716858D01*
X61026900Y-1890523D01*
X61026899Y-1890525D01*
X61026900Y-1890525D01*
X61023157Y-1926128D01*
X61002639Y-1982503D01*
X60958052Y-2022649D01*
X60899838Y-2037163D01*
X39337823Y-2037163D01*
X39319277Y-2035768D01*
X39312567Y-2034753D01*
X39296596Y-2032337D01*
X39285661Y-2031730D01*
X39234634Y-2017572D01*
X39211996Y-2005618D01*
X39211997Y-2005618D01*
X39211979Y-2005609D01*
X39200788Y-1999873D01*
X39200259Y-1999610D01*
X39200233Y-1999597D01*
X39187108Y-1993304D01*
X39187076Y-1993289D01*
X39101314Y-1953654D01*
X39101312Y-1953653D01*
X39101307Y-1953651D01*
X39076641Y-1946050D01*
X39072229Y-1944599D01*
X38949060Y-1901501D01*
X38949058Y-1901500D01*
X38949056Y-1901500D01*
X38779210Y-1882363D01*
X38609363Y-1901500D01*
X38609360Y-1901500D01*
X38609360Y-1901501D01*
X38448027Y-1957954D01*
X38448025Y-1957954D01*
X38448025Y-1957955D01*
X38303299Y-2048893D01*
X38182440Y-2169752D01*
X38095339Y-2308371D01*
X38091501Y-2314480D01*
X38064717Y-2391025D01*
X38035047Y-2475816D01*
X38015910Y-2645662D01*
X38035047Y-2815509D01*
X38035047Y-2815511D01*
X38035048Y-2815513D01*
X38091501Y-2976846D01*
X38157305Y-3081572D01*
X38182440Y-3121573D01*
X38238576Y-3177709D01*
X38269867Y-3230437D01*
X38272069Y-3291712D01*
X38244645Y-3346550D01*
X38194299Y-3381546D01*
X38133341Y-3388141D01*
X38122142Y-3386539D01*
X38101617Y-3385578D01*
X38052643Y-3372959D01*
X38030144Y-3361880D01*
X38022288Y-3358095D01*
X38021836Y-3357882D01*
X38014346Y-3354426D01*
X37929259Y-3315996D01*
X37898704Y-3306846D01*
X37893325Y-3305101D01*
X37781113Y-3265837D01*
X37611265Y-3246700D01*
X37441418Y-3265837D01*
X37441415Y-3265837D01*
X37441415Y-3265838D01*
X37280082Y-3322291D01*
X37280080Y-3322291D01*
X37280080Y-3322292D01*
X37135354Y-3413230D01*
X37014495Y-3534089D01*
X36944226Y-3645920D01*
X36923556Y-3678817D01*
X36881820Y-3798092D01*
X36867102Y-3840153D01*
X36847965Y-4010000D01*
X36867102Y-4179846D01*
X36867102Y-4179848D01*
X36867103Y-4179850D01*
X36923556Y-4341183D01*
X37014494Y-4485909D01*
X37135356Y-4606771D01*
X37280082Y-4697709D01*
X37441415Y-4754162D01*
X37611265Y-4773299D01*
X37781115Y-4754162D01*
X37922351Y-4704740D01*
X37925573Y-4703664D01*
X37937982Y-4699718D01*
X37937991Y-4699713D01*
X37939609Y-4699199D01*
X37943297Y-4697685D01*
X37949805Y-4694112D01*
X38023520Y-4659166D01*
X38040914Y-4650513D01*
X38041689Y-4650109D01*
X38058319Y-4641046D01*
X38079426Y-4629032D01*
X38126128Y-4615034D01*
X38125970Y-4614050D01*
X38131732Y-4613125D01*
X38131734Y-4613125D01*
X38150786Y-4610066D01*
X38170437Y-4608500D01*
X68560877Y-4608500D01*
X68617172Y-4622015D01*
X68661195Y-4659615D01*
X68683350Y-4713102D01*
X68678808Y-4770818D01*
X68648558Y-4820181D01*
X68005452Y-5463286D01*
X67988625Y-5476768D01*
X67938379Y-5530274D01*
X67935700Y-5533038D01*
X67923219Y-5545521D01*
X67915068Y-5553672D01*
X67912287Y-5557257D01*
X67904713Y-5566124D01*
X67873027Y-5599867D01*
X67862619Y-5618799D01*
X67851940Y-5635056D01*
X67838694Y-5652133D01*
X67820309Y-5694616D01*
X67815173Y-5705101D01*
X67792875Y-5745661D01*
X67787503Y-5766586D01*
X67781202Y-5784988D01*
X67772619Y-5804822D01*
X67765379Y-5850536D01*
X67763011Y-5861970D01*
X67751500Y-5906809D01*
X67751500Y-5928419D01*
X67749973Y-5947818D01*
X67746594Y-5969150D01*
X67750950Y-6015234D01*
X67751500Y-6026903D01*
X67751500Y-6643610D01*
X67749133Y-6665044D01*
X67751439Y-6738401D01*
X67751500Y-6742296D01*
X67751500Y-6771432D01*
X67752068Y-6775931D01*
X67752983Y-6787564D01*
X67754437Y-6833833D01*
X67760463Y-6854575D01*
X67764408Y-6873621D01*
X67767117Y-6895063D01*
X67784158Y-6938105D01*
X67787941Y-6949154D01*
X67800855Y-6993601D01*
X67811850Y-7012193D01*
X67820409Y-7029663D01*
X67828364Y-7049754D01*
X67828365Y-7049756D01*
X67855578Y-7087211D01*
X67861977Y-7096952D01*
X67885547Y-7136807D01*
X67885548Y-7136808D01*
X67900822Y-7152082D01*
X67913458Y-7166876D01*
X67926159Y-7184357D01*
X67961820Y-7213858D01*
X67970461Y-7221721D01*
X68728945Y-7980205D01*
X68742432Y-7997038D01*
X68744246Y-7998741D01*
X68744247Y-7998743D01*
X68789918Y-8041631D01*
X68795935Y-8047281D01*
X68798701Y-8049961D01*
X68819330Y-8070590D01*
X68822905Y-8073363D01*
X68831785Y-8080946D01*
X68865530Y-8112635D01*
X68884466Y-8123045D01*
X68900718Y-8133721D01*
X68913555Y-8143678D01*
X68917796Y-8146968D01*
X68960276Y-8165350D01*
X68970768Y-8170490D01*
X69011326Y-8192787D01*
X69032247Y-8198158D01*
X69050657Y-8204461D01*
X69070487Y-8213043D01*
X69116216Y-8220284D01*
X69127638Y-8222650D01*
X69172475Y-8234163D01*
X69194082Y-8234163D01*
X69213479Y-8235689D01*
X69234815Y-8239069D01*
X69280898Y-8234712D01*
X69292566Y-8234163D01*
X69697500Y-8234163D01*
X69759500Y-8250776D01*
X69804887Y-8296163D01*
X69821500Y-8358163D01*
X69821500Y-9206339D01*
X69802494Y-9272311D01*
X69751301Y-9318059D01*
X69683616Y-9329559D01*
X69615317Y-9321863D01*
X69445468Y-9341000D01*
X69322309Y-9384094D01*
X69317877Y-9385552D01*
X69293207Y-9393154D01*
X69207448Y-9432789D01*
X69195734Y-9438385D01*
X69195214Y-9438641D01*
X69182536Y-9445113D01*
X69159891Y-9457072D01*
X69108866Y-9471230D01*
X69097929Y-9471837D01*
X69075251Y-9475268D01*
X69056705Y-9476663D01*
X61709839Y-9476663D01*
X61662386Y-9467224D01*
X61622158Y-9440344D01*
X58891153Y-6709339D01*
X58880459Y-6697145D01*
X58860917Y-6671678D01*
X58860915Y-6671677D01*
X58860915Y-6671676D01*
X58835447Y-6652133D01*
X58733804Y-6574139D01*
X58585779Y-6512825D01*
X58566384Y-6510271D01*
X58553823Y-6508617D01*
X58458761Y-6496102D01*
X58458748Y-6496102D01*
X58458596Y-6496082D01*
X58456998Y-6495871D01*
X58426928Y-6491912D01*
X58396857Y-6495871D01*
X58395260Y-6496082D01*
X58395108Y-6496102D01*
X58378923Y-6497163D01*
X55978476Y-6497163D01*
X55923341Y-6484231D01*
X55879706Y-6448133D01*
X55856672Y-6396398D01*
X55859044Y-6339817D01*
X55886326Y-6290191D01*
X55938367Y-6232393D01*
X55958933Y-6196771D01*
X56028599Y-6076107D01*
X56084365Y-5904475D01*
X56103229Y-5725000D01*
X56084365Y-5545525D01*
X56028599Y-5373893D01*
X56018036Y-5355598D01*
X55938369Y-5217609D01*
X55919848Y-5197040D01*
X55817613Y-5083496D01*
X55708447Y-5004182D01*
X55671614Y-4977421D01*
X55506749Y-4904018D01*
X55330234Y-4866500D01*
X55330232Y-4866500D01*
X55149768Y-4866500D01*
X55149766Y-4866500D01*
X54973247Y-4904019D01*
X54926238Y-4924949D01*
X54911593Y-4930392D01*
X54882728Y-4939093D01*
X54758429Y-4995547D01*
X54749097Y-4999898D01*
X54748864Y-5000009D01*
X54740344Y-5004182D01*
X54665601Y-5041624D01*
X54657011Y-5045526D01*
X54649924Y-5048425D01*
X54609037Y-5057508D01*
X54526042Y-5061568D01*
X54500881Y-5065217D01*
X54483087Y-5066500D01*
X50205776Y-5066500D01*
X50167458Y-5060431D01*
X50132890Y-5042818D01*
X50042879Y-4977421D01*
X49878014Y-4904018D01*
X49701499Y-4866500D01*
X49701497Y-4866500D01*
X49521033Y-4866500D01*
X49521031Y-4866500D01*
X49344517Y-4904018D01*
X49179649Y-4977422D01*
X49089641Y-5042818D01*
X49055073Y-5060431D01*
X49016755Y-5066500D01*
X42276912Y-5066500D01*
X42259118Y-5065217D01*
X42233955Y-5061568D01*
X42150961Y-5057508D01*
X42110064Y-5048421D01*
X42102981Y-5045523D01*
X42094399Y-5041625D01*
X42019539Y-5004124D01*
X42010575Y-4999743D01*
X42010148Y-4999539D01*
X42001537Y-4995533D01*
X41877276Y-4939095D01*
X41848418Y-4930397D01*
X41833767Y-4924952D01*
X41786751Y-4904019D01*
X41610234Y-4866500D01*
X41610232Y-4866500D01*
X41429768Y-4866500D01*
X41429766Y-4866500D01*
X41253252Y-4904018D01*
X41088381Y-4977423D01*
X40942387Y-5083494D01*
X40821632Y-5217606D01*
X40731400Y-5373893D01*
X40679682Y-5533069D01*
X40675635Y-5545525D01*
X40656771Y-5725000D01*
X40656197Y-5730462D01*
X40635676Y-5786840D01*
X40591090Y-5826986D01*
X40532876Y-5841500D01*
X39988613Y-5841500D01*
X39970067Y-5840105D01*
X39959430Y-5838496D01*
X39947386Y-5836674D01*
X39936451Y-5836067D01*
X39885424Y-5821909D01*
X39862786Y-5809955D01*
X39862787Y-5809955D01*
X39862769Y-5809946D01*
X39851578Y-5804210D01*
X39851049Y-5803947D01*
X39851023Y-5803934D01*
X39837898Y-5797641D01*
X39814527Y-5786840D01*
X39752104Y-5757991D01*
X39752102Y-5757990D01*
X39752097Y-5757988D01*
X39727431Y-5750387D01*
X39723019Y-5748936D01*
X39599850Y-5705838D01*
X39599848Y-5705837D01*
X39599846Y-5705837D01*
X39430000Y-5686700D01*
X39260153Y-5705837D01*
X39260150Y-5705837D01*
X39260150Y-5705838D01*
X39098817Y-5762291D01*
X39098815Y-5762291D01*
X39098815Y-5762292D01*
X38954089Y-5853230D01*
X38833230Y-5974089D01*
X38748983Y-6108166D01*
X38742291Y-6118817D01*
X38690556Y-6266669D01*
X38685837Y-6280154D01*
X38673793Y-6387047D01*
X38653026Y-6443015D01*
X38608514Y-6482793D01*
X38550573Y-6497163D01*
X32892804Y-6497163D01*
X32834862Y-6482793D01*
X32790350Y-6443014D01*
X32769584Y-6387045D01*
X32767841Y-6371572D01*
X32765427Y-6350150D01*
X32722317Y-6226950D01*
X32720877Y-6222576D01*
X32713269Y-6197885D01*
X32673639Y-6112137D01*
X32667634Y-6099592D01*
X32667361Y-6099041D01*
X32667358Y-6099034D01*
X32661307Y-6087209D01*
X32655444Y-6076107D01*
X32649356Y-6064579D01*
X32635195Y-6013533D01*
X32634590Y-6002623D01*
X32634590Y-6002619D01*
X32631158Y-5979932D01*
X32629765Y-5961391D01*
X32629765Y-1958608D01*
X32631159Y-1940064D01*
X32634590Y-1917380D01*
X32635195Y-1906463D01*
X32649358Y-1855412D01*
X32661311Y-1832779D01*
X32667351Y-1820975D01*
X32667626Y-1820420D01*
X32673635Y-1807868D01*
X32713266Y-1722120D01*
X32720858Y-1697480D01*
X32722296Y-1693108D01*
X32765427Y-1569850D01*
X32769232Y-1536079D01*
X32772327Y-1508616D01*
X32793094Y-1452648D01*
X32837606Y-1412870D01*
X32895547Y-1398500D01*
X61035806Y-1398500D01*
X61095963Y-1414070D01*
G37*
%TD.AperFunction*%
%TA.AperFunction,Conductor*%
G36*
X29463175Y-6257939D02*
G01*
X29503403Y-6284819D01*
X29504066Y-6285482D01*
X29534316Y-6334845D01*
X29538858Y-6392561D01*
X29516703Y-6446048D01*
X29472680Y-6483648D01*
X29416385Y-6497163D01*
X27671308Y-6497163D01*
X27615013Y-6483648D01*
X27570990Y-6446048D01*
X27548835Y-6392561D01*
X27553377Y-6334845D01*
X27583627Y-6285482D01*
X27584290Y-6284819D01*
X27624518Y-6257939D01*
X27671971Y-6248500D01*
X29415722Y-6248500D01*
X29463175Y-6257939D01*
G37*
%TD.AperFunction*%
%TA.AperFunction,Conductor*%
G36*
X31204924Y-1412870D02*
G01*
X31249436Y-1452648D01*
X31270203Y-1508616D01*
X31275458Y-1555251D01*
X31277103Y-1569850D01*
X31320201Y-1693019D01*
X31321652Y-1697431D01*
X31329253Y-1722097D01*
X31329255Y-1722102D01*
X31329256Y-1722104D01*
X31347811Y-1762252D01*
X31368906Y-1807898D01*
X31375199Y-1821023D01*
X31375212Y-1821049D01*
X31375475Y-1821578D01*
X31378617Y-1827709D01*
X31381220Y-1832786D01*
X31393174Y-1855424D01*
X31407332Y-1906451D01*
X31407939Y-1917386D01*
X31411370Y-1940066D01*
X31412765Y-1958613D01*
X31412765Y-5621074D01*
X31393467Y-5687508D01*
X31341580Y-5733264D01*
X31273254Y-5744100D01*
X31209756Y-5716643D01*
X31201657Y-5709947D01*
X31200373Y-5708959D01*
X31171193Y-5688090D01*
X31067929Y-5619554D01*
X31051864Y-5609316D01*
X31051124Y-5608864D01*
X31034657Y-5599211D01*
X30960248Y-5557437D01*
X30952382Y-5552628D01*
X30905088Y-5521239D01*
X30891345Y-5510662D01*
X30802185Y-5431525D01*
X30784910Y-5418891D01*
X30770429Y-5406483D01*
X30363069Y-4999123D01*
X30351286Y-4985489D01*
X30336732Y-4965939D01*
X30298326Y-4933712D01*
X30290352Y-4926405D01*
X30286365Y-4922418D01*
X30261779Y-4902978D01*
X30259021Y-4900733D01*
X30200905Y-4851968D01*
X30200903Y-4851966D01*
X30200008Y-4851216D01*
X30183230Y-4840526D01*
X30113424Y-4807974D01*
X30110182Y-4806404D01*
X30041409Y-4771866D01*
X30022614Y-4765333D01*
X29965802Y-4753602D01*
X29947186Y-4749758D01*
X29943671Y-4748979D01*
X29941447Y-4748452D01*
X29869921Y-4731500D01*
X29868773Y-4731228D01*
X29848992Y-4729207D01*
X29847823Y-4729241D01*
X29771971Y-4731448D01*
X29768367Y-4731500D01*
X28295245Y-4731500D01*
X28237031Y-4716986D01*
X28192445Y-4676840D01*
X28171924Y-4620462D01*
X28171778Y-4619072D01*
X28152914Y-4439597D01*
X28097148Y-4267965D01*
X28063257Y-4209264D01*
X28006918Y-4111681D01*
X27965063Y-4065197D01*
X27886162Y-3977568D01*
X27751336Y-3879611D01*
X27740163Y-3871493D01*
X27575298Y-3798090D01*
X27398783Y-3760572D01*
X27398781Y-3760572D01*
X27359338Y-3760572D01*
X27303043Y-3747057D01*
X27259020Y-3709457D01*
X27236865Y-3655970D01*
X27241407Y-3598254D01*
X27271657Y-3548891D01*
X27855548Y-2965000D01*
X28466332Y-2354215D01*
X28478510Y-2343535D01*
X28503987Y-2323987D01*
X28517389Y-2306520D01*
X28528475Y-2292073D01*
X28528477Y-2292072D01*
X28601524Y-2196876D01*
X28604268Y-2190251D01*
X28637829Y-2109227D01*
X28637829Y-2109226D01*
X28662820Y-2048893D01*
X28662838Y-2048850D01*
X28678500Y-1929885D01*
X28678500Y-1929878D01*
X28678553Y-1929480D01*
X28679559Y-1921835D01*
X28679561Y-1921818D01*
X28680144Y-1917391D01*
X28683750Y-1890000D01*
X28682981Y-1884162D01*
X28679561Y-1858180D01*
X28678500Y-1841995D01*
X28678500Y-1723279D01*
X28693142Y-1664826D01*
X28733610Y-1620177D01*
X28790346Y-1599876D01*
X28801262Y-1598800D01*
X28801265Y-1598801D01*
X28989164Y-1580295D01*
X29169842Y-1525486D01*
X29169844Y-1525484D01*
X29175902Y-1523647D01*
X29175800Y-1523401D01*
X29181425Y-1521061D01*
X29181428Y-1521061D01*
X29332003Y-1458446D01*
X29336046Y-1456849D01*
X29414991Y-1427321D01*
X29429094Y-1422985D01*
X29459777Y-1415518D01*
X29477235Y-1412573D01*
X29538847Y-1406662D01*
X29548600Y-1406113D01*
X29697498Y-1403620D01*
X29735267Y-1399302D01*
X29749352Y-1398500D01*
X31146983Y-1398500D01*
X31204924Y-1412870D01*
G37*
%TD.AperFunction*%
%TA.AperFunction,Conductor*%
G36*
X23480283Y1006776D02*
G01*
X23525074Y965542D01*
X23608425Y837963D01*
X23615543Y827069D01*
X23768025Y661431D01*
X23945689Y523148D01*
X24143691Y415995D01*
X24356630Y342893D01*
X24578696Y305837D01*
X24803834Y305837D01*
X25025900Y342893D01*
X25238839Y415995D01*
X25436841Y523148D01*
X25614505Y661431D01*
X25766987Y827069D01*
X25856555Y964165D01*
X25903660Y1006617D01*
X25965597Y1020230D01*
X26026165Y1001441D01*
X26069523Y955162D01*
X26177533Y754718D01*
X26202111Y713784D01*
X26203313Y711978D01*
X26231549Y673553D01*
X26414886Y446919D01*
X26416870Y444493D01*
X26418362Y442669D01*
X26465911Y385161D01*
X26527575Y310582D01*
X26544234Y284309D01*
X26579238Y209827D01*
X26590182Y171427D01*
X26597988Y104391D01*
X26620006Y-84705D01*
X26620123Y-85266D01*
X26620547Y-89352D01*
X26620659Y-90308D01*
X26620647Y-90309D01*
X26622765Y-110722D01*
X26622765Y-1258721D01*
X26607293Y-1318702D01*
X26564737Y-1363715D01*
X26505718Y-1382526D01*
X26444963Y-1370441D01*
X26397635Y-1330476D01*
X26375545Y-1272605D01*
X26373071Y-1250653D01*
X26373071Y-1250650D01*
X26316618Y-1089317D01*
X26225680Y-944591D01*
X26104818Y-823729D01*
X25960092Y-732791D01*
X25798759Y-676338D01*
X25798757Y-676337D01*
X25798755Y-676337D01*
X25628909Y-657200D01*
X25459062Y-676337D01*
X25459059Y-676337D01*
X25459059Y-676338D01*
X25297726Y-732791D01*
X25297724Y-732791D01*
X25297724Y-732792D01*
X25152998Y-823730D01*
X25032138Y-944590D01*
X24941200Y-1089316D01*
X24927946Y-1127191D01*
X24921193Y-1142913D01*
X24909703Y-1165269D01*
X24878139Y-1254558D01*
X24871583Y-1274368D01*
X24871316Y-1275237D01*
X24865567Y-1295314D01*
X24859453Y-1318428D01*
X24837876Y-1359117D01*
X24839333Y-1360165D01*
X24825304Y-1379671D01*
X24812317Y-1394950D01*
X24191446Y-2015822D01*
X24142083Y-2046072D01*
X24084367Y-2050614D01*
X24030880Y-2028459D01*
X23993280Y-1984436D01*
X23979765Y-1928141D01*
X23979765Y-1592578D01*
X23981432Y-1572313D01*
X23984260Y-1555240D01*
X23984786Y-1547787D01*
X23992187Y-1442811D01*
X23996681Y-1417364D01*
X23996997Y-1416261D01*
X23997292Y-1415231D01*
X24006927Y-1391339D01*
X24026087Y-1355199D01*
X24028888Y-1350205D01*
X24094008Y-1240258D01*
X24104909Y-1220911D01*
X24105387Y-1220018D01*
X24115476Y-1200144D01*
X24194476Y-1035788D01*
X24196084Y-1030813D01*
X24204718Y-1010494D01*
X24211086Y-998580D01*
X24211088Y-998577D01*
X24265897Y-817899D01*
X24284403Y-630000D01*
X24265897Y-442101D01*
X24211088Y-261423D01*
X24122085Y-94909D01*
X24002306Y51041D01*
X23874007Y156334D01*
X23856355Y170821D01*
X23689841Y259824D01*
X23509165Y314632D01*
X23321265Y333138D01*
X23133363Y314632D01*
X22947463Y258239D01*
X22947536Y258066D01*
X22856032Y219779D01*
X22794471Y210928D01*
X22736357Y233080D01*
X22696307Y280662D01*
X22684398Y341705D01*
X22703625Y400852D01*
X22749149Y443222D01*
X22896841Y523148D01*
X23074505Y661431D01*
X23226987Y827069D01*
X23317455Y965542D01*
X23362247Y1006776D01*
X23421265Y1021721D01*
X23480283Y1006776D01*
G37*
%TD.AperFunction*%
%TD*%
%TA.AperFunction,Conductor*%
%TO.N,/SPICS0{slash}GPIO29*%
G36*
X39911521Y-10558930D02*
G01*
X40127441Y-10647435D01*
X40131276Y-10649988D01*
X40133829Y-10653824D01*
X40222333Y-10869741D01*
X40223081Y-10875889D01*
X40220586Y-10881558D01*
X40215546Y-10885159D01*
X40126887Y-10917769D01*
X40126300Y-10917967D01*
X40052161Y-10940863D01*
X39990028Y-10964730D01*
X39926642Y-11004264D01*
X39856669Y-11066882D01*
X39848543Y-11069859D01*
X39840594Y-11066436D01*
X39714827Y-10940669D01*
X39711404Y-10932720D01*
X39714379Y-10924597D01*
X39776997Y-10854623D01*
X39816533Y-10791234D01*
X39840400Y-10729104D01*
X39863300Y-10654946D01*
X39863493Y-10654375D01*
X39865107Y-10649988D01*
X39896106Y-10565716D01*
X39899706Y-10560678D01*
X39905375Y-10558183D01*
X39911521Y-10558930D01*
G37*
%TD.AperFunction*%
%TD*%
%TA.AperFunction,Conductor*%
%TO.N,/GPIO19{slash}ESP32_USB_D-*%
G36*
X18255892Y-10409782D02*
G01*
X18341658Y-10449419D01*
X18342187Y-10449682D01*
X18410817Y-10485925D01*
X18471626Y-10512982D01*
X18544405Y-10529849D01*
X18577090Y-10531662D01*
X18638158Y-10535050D01*
X18646009Y-10538691D01*
X18649210Y-10546732D01*
X18649210Y-10724594D01*
X18646009Y-10732635D01*
X18638158Y-10736276D01*
X18544406Y-10741475D01*
X18471626Y-10758343D01*
X18410816Y-10785400D01*
X18342200Y-10821635D01*
X18341645Y-10821910D01*
X18255897Y-10861541D01*
X18249787Y-10862558D01*
X18244014Y-10860314D01*
X18240195Y-10855437D01*
X18185431Y-10724594D01*
X18150099Y-10640177D01*
X18149193Y-10635663D01*
X18150099Y-10631148D01*
X18240196Y-10415884D01*
X18244014Y-10411010D01*
X18249787Y-10408766D01*
X18255892Y-10409782D01*
G37*
%TD.AperFunction*%
%TD*%
%TA.AperFunction,Conductor*%
%TO.N,/VDD_5V*%
G36*
X8054206Y-4733704D02*
G01*
X8454640Y-4900532D01*
X8459439Y-4904233D01*
X8461744Y-4909841D01*
X8460932Y-4915848D01*
X8393379Y-5077291D01*
X8345412Y-5202692D01*
X8316919Y-5314721D01*
X8303235Y-5446929D01*
X8299928Y-5621353D01*
X8296424Y-5629482D01*
X8288230Y-5632831D01*
X7811190Y-5632831D01*
X7802996Y-5629482D01*
X7799492Y-5621353D01*
X7796183Y-5446929D01*
X7796183Y-5446928D01*
X7782500Y-5314723D01*
X7754005Y-5202691D01*
X7706045Y-5077305D01*
X7638487Y-4915848D01*
X7637675Y-4909841D01*
X7639980Y-4904233D01*
X7644777Y-4900533D01*
X8045213Y-4733704D01*
X8049710Y-4732805D01*
X8054206Y-4733704D01*
G37*
%TD.AperFunction*%
%TD*%
%TA.AperFunction,Conductor*%
%TO.N,/VDD_3.3V*%
G36*
X24138503Y-6575103D02*
G01*
X24334879Y-6771479D01*
X24338303Y-6779472D01*
X24335266Y-6787620D01*
X24244379Y-6887657D01*
X24186982Y-6974579D01*
X24150914Y-7059517D01*
X24116605Y-7161607D01*
X24116465Y-7162002D01*
X24068434Y-7289587D01*
X24064815Y-7294584D01*
X24059158Y-7297045D01*
X24053035Y-7296286D01*
X23744637Y-7169495D01*
X23740813Y-7166947D01*
X23738265Y-7163123D01*
X23660750Y-6974580D01*
X23611482Y-6854745D01*
X23610725Y-6848616D01*
X23613196Y-6842954D01*
X23618201Y-6839342D01*
X23746113Y-6791494D01*
X23746470Y-6791367D01*
X23849123Y-6757650D01*
X23934612Y-6722318D01*
X24022028Y-6665491D01*
X24122382Y-6574699D01*
X24130522Y-6571680D01*
X24138503Y-6575103D01*
G37*
%TD.AperFunction*%
%TD*%
%TA.AperFunction,Conductor*%
%TO.N,/VDD_5V*%
G36*
X26657257Y-5801207D02*
G01*
X26995220Y-6139170D01*
X26998642Y-6147095D01*
X26995697Y-6155210D01*
X26886890Y-6277797D01*
X26817675Y-6382083D01*
X26764303Y-6477152D01*
X26763849Y-6477894D01*
X26695328Y-6581134D01*
X26694330Y-6582431D01*
X26586970Y-6703389D01*
X26581705Y-6706791D01*
X26575438Y-6706986D01*
X26569971Y-6703919D01*
X26330558Y-6465870D01*
X26330510Y-6465822D01*
X26092507Y-6226455D01*
X26089440Y-6220988D01*
X26089635Y-6214722D01*
X26093034Y-6209460D01*
X26214004Y-6102087D01*
X26215282Y-6101104D01*
X26318548Y-6032566D01*
X26319254Y-6032134D01*
X26414340Y-5978752D01*
X26518630Y-5909535D01*
X26641217Y-5800729D01*
X26649332Y-5797785D01*
X26657257Y-5801207D01*
G37*
%TD.AperFunction*%
%TD*%
%TA.AperFunction,Conductor*%
%TO.N,/VDD_3.3V*%
G36*
X71276092Y-11883108D02*
G01*
X71376890Y-11973491D01*
X71465152Y-12028962D01*
X71551628Y-12062636D01*
X71655051Y-12094944D01*
X71655570Y-12095121D01*
X71783820Y-12142441D01*
X71788854Y-12146046D01*
X71791344Y-12151718D01*
X71790589Y-12157866D01*
X71663828Y-12466191D01*
X71661280Y-12470015D01*
X71657456Y-12472563D01*
X71349013Y-12599372D01*
X71342906Y-12600133D01*
X71337258Y-12597689D01*
X71333631Y-12592717D01*
X71323149Y-12565209D01*
X71285355Y-12466025D01*
X71285257Y-12465757D01*
X71249846Y-12364785D01*
X71212470Y-12281095D01*
X71154113Y-12195291D01*
X71154110Y-12195288D01*
X71154109Y-12195286D01*
X71063275Y-12096102D01*
X71060206Y-12087943D01*
X71063629Y-12079928D01*
X71260011Y-11883546D01*
X71267965Y-11880124D01*
X71276092Y-11883108D01*
G37*
%TD.AperFunction*%
%TD*%
%TA.AperFunction,Conductor*%
%TO.N,/VDD_3.3V*%
G36*
X23149862Y-220270D02*
G01*
X23153563Y-225070D01*
X23320390Y-625500D01*
X23321290Y-630000D01*
X23320390Y-634500D01*
X23153563Y-1034929D01*
X23149862Y-1039729D01*
X23144254Y-1042034D01*
X23138247Y-1041222D01*
X22976802Y-973669D01*
X22851401Y-925702D01*
X22739372Y-897209D01*
X22607165Y-883525D01*
X22473884Y-880998D01*
X22432742Y-880217D01*
X22424614Y-876714D01*
X22421265Y-868520D01*
X22421265Y-391480D01*
X22424614Y-383286D01*
X22432742Y-379782D01*
X22607167Y-376473D01*
X22739371Y-362790D01*
X22851403Y-334295D01*
X22976789Y-286335D01*
X23138247Y-218776D01*
X23144254Y-217965D01*
X23149862Y-220270D01*
G37*
%TD.AperFunction*%
%TD*%
%TA.AperFunction,Conductor*%
%TO.N,/VDD_5V*%
G36*
X8296424Y-8658512D02*
G01*
X8299928Y-8666641D01*
X8303235Y-8841063D01*
X8316919Y-8973270D01*
X8345412Y-9085299D01*
X8393379Y-9210700D01*
X8460932Y-9372145D01*
X8461744Y-9378152D01*
X8459439Y-9383760D01*
X8454639Y-9387461D01*
X8054210Y-9554288D01*
X8049710Y-9555188D01*
X8045210Y-9554288D01*
X7644780Y-9387461D01*
X7639980Y-9383760D01*
X7637675Y-9378152D01*
X7638487Y-9372145D01*
X7706045Y-9210687D01*
X7754005Y-9085301D01*
X7782500Y-8973269D01*
X7796183Y-8841065D01*
X7799492Y-8666640D01*
X7802996Y-8658512D01*
X7811190Y-8655163D01*
X8288230Y-8655163D01*
X8296424Y-8658512D01*
G37*
%TD.AperFunction*%
%TD*%
%TA.AperFunction,Conductor*%
%TO.N,/VDD_3.3V*%
G36*
X79483436Y-14644155D02*
G01*
X79761509Y-14869677D01*
X80005374Y-14969408D01*
X80248238Y-15005343D01*
X80530568Y-15045983D01*
X80532394Y-15046397D01*
X80884349Y-15156547D01*
X80889692Y-15160047D01*
X80892401Y-15165833D01*
X80891667Y-15172179D01*
X80573827Y-15941877D01*
X80571286Y-15945684D01*
X80567479Y-15948225D01*
X79797781Y-16266065D01*
X79791435Y-16266799D01*
X79785649Y-16264090D01*
X79782149Y-16258746D01*
X79672000Y-15906793D01*
X79671585Y-15904965D01*
X79630945Y-15622636D01*
X79595010Y-15379772D01*
X79495279Y-15135907D01*
X79269757Y-14857834D01*
X79267161Y-14849858D01*
X79270571Y-14842194D01*
X79467796Y-14644969D01*
X79475460Y-14641559D01*
X79483436Y-14644155D01*
G37*
%TD.AperFunction*%
%TD*%
%TA.AperFunction,Conductor*%
%TO.N,/GPIO19{slash}ESP32_USB_D-*%
G36*
X28997924Y1984681D02*
G01*
X29767481Y1666899D01*
X29771286Y1664359D01*
X29773826Y1660553D01*
X30015228Y1075962D01*
X30091607Y891000D01*
X30092333Y884607D01*
X30089569Y878797D01*
X30084152Y875326D01*
X29725756Y767927D01*
X29723626Y767500D01*
X29433783Y736891D01*
X29433658Y736878D01*
X29182887Y713107D01*
X28931808Y622573D01*
X28648062Y398010D01*
X28640123Y395504D01*
X28632528Y398911D01*
X28505838Y525601D01*
X28502431Y533196D01*
X28504936Y541133D01*
X28729499Y824882D01*
X28820034Y1075963D01*
X28843805Y1326751D01*
X28874425Y1616702D01*
X28874852Y1618830D01*
X28889257Y1666900D01*
X28982254Y1977229D01*
X28985723Y1982642D01*
X28991533Y1985406D01*
X28997924Y1984681D01*
G37*
%TD.AperFunction*%
%TD*%
%TA.AperFunction,Conductor*%
%TO.N,/DTR*%
G36*
X6709400Y-707490D02*
G01*
X6775642Y-769814D01*
X6834037Y-813585D01*
X6834040Y-813587D01*
X6890634Y-843240D01*
X6959741Y-870983D01*
X6959764Y-870992D01*
X6959763Y-870992D01*
X6990922Y-883350D01*
X7044670Y-904667D01*
X7049557Y-908315D01*
X7051944Y-913928D01*
X7051182Y-919979D01*
X6962564Y-1136175D01*
X6960011Y-1140011D01*
X6956175Y-1142564D01*
X6740570Y-1230940D01*
X6734316Y-1231672D01*
X6728588Y-1229056D01*
X6725047Y-1223852D01*
X6694656Y-1133676D01*
X6694306Y-1132399D01*
X6677660Y-1054847D01*
X6661227Y-988467D01*
X6627724Y-921415D01*
X6566675Y-849352D01*
X6563913Y-841308D01*
X6567329Y-833519D01*
X6693111Y-707737D01*
X6701205Y-704312D01*
X6709400Y-707490D01*
G37*
%TD.AperFunction*%
%TD*%
%TA.AperFunction,Conductor*%
%TO.N,/SPIHD{slash}GPIO27*%
G36*
X39536682Y-6224119D02*
G01*
X39622448Y-6263756D01*
X39622977Y-6264019D01*
X39691607Y-6300262D01*
X39752416Y-6327319D01*
X39825195Y-6344186D01*
X39857880Y-6345999D01*
X39918948Y-6349387D01*
X39926799Y-6353028D01*
X39930000Y-6361069D01*
X39930000Y-6538931D01*
X39926799Y-6546972D01*
X39918948Y-6550613D01*
X39825196Y-6555812D01*
X39752416Y-6572680D01*
X39691606Y-6599737D01*
X39622990Y-6635972D01*
X39622435Y-6636247D01*
X39536687Y-6675878D01*
X39530577Y-6676895D01*
X39524804Y-6674651D01*
X39520985Y-6669774D01*
X39430890Y-6454516D01*
X39429983Y-6449999D01*
X39430889Y-6445486D01*
X39520986Y-6230221D01*
X39524804Y-6225347D01*
X39530577Y-6223103D01*
X39536682Y-6224119D01*
G37*
%TD.AperFunction*%
%TD*%
%TA.AperFunction,Conductor*%
%TO.N,/VDD_3.3V*%
G36*
X28984297Y-224477D02*
G01*
X29145645Y-292450D01*
X29145654Y-292453D01*
X29145667Y-292459D01*
X29270829Y-341496D01*
X29382587Y-371271D01*
X29514568Y-386024D01*
X29688952Y-389755D01*
X29697063Y-393268D01*
X29700402Y-401452D01*
X29700402Y-878495D01*
X29697044Y-886699D01*
X29688898Y-890192D01*
X29642950Y-890962D01*
X29514862Y-893107D01*
X29482686Y-896193D01*
X29382746Y-905781D01*
X29382743Y-905781D01*
X29382740Y-905782D01*
X29270719Y-933041D01*
X29145420Y-979908D01*
X28984268Y-1046919D01*
X28975317Y-1046933D01*
X28968976Y-1040616D01*
X28924158Y-933041D01*
X28802138Y-640160D01*
X28801239Y-635662D01*
X28802137Y-631167D01*
X28968957Y-230756D01*
X28972664Y-225953D01*
X28978282Y-223652D01*
X28984297Y-224477D01*
G37*
%TD.AperFunction*%
%TD*%
%TA.AperFunction,Conductor*%
%TO.N,/SPIQ{slash}GPIO31*%
G36*
X42795779Y-12460889D02*
G01*
X43006016Y-12548883D01*
X43011039Y-12550985D01*
X43015916Y-12554804D01*
X43018160Y-12560577D01*
X43017143Y-12566687D01*
X42977512Y-12652435D01*
X42977237Y-12652990D01*
X42941002Y-12721606D01*
X42913945Y-12782416D01*
X42897077Y-12855196D01*
X42891878Y-12948948D01*
X42888237Y-12956799D01*
X42880196Y-12960000D01*
X42702334Y-12960000D01*
X42694293Y-12956799D01*
X42690652Y-12948948D01*
X42685451Y-12855196D01*
X42685451Y-12855195D01*
X42668584Y-12782416D01*
X42641527Y-12721607D01*
X42605284Y-12652977D01*
X42605021Y-12652448D01*
X42565384Y-12566682D01*
X42564368Y-12560577D01*
X42566612Y-12554804D01*
X42571486Y-12550986D01*
X42786750Y-12460889D01*
X42791265Y-12459983D01*
X42795779Y-12460889D01*
G37*
%TD.AperFunction*%
%TD*%
%TA.AperFunction,Conductor*%
%TO.N,/GPIO42*%
G36*
X69352798Y-11045125D02*
G01*
X69356419Y-11050102D01*
X69389476Y-11137163D01*
X69389593Y-11137486D01*
X69414540Y-11209503D01*
X69414545Y-11209514D01*
X69440872Y-11269327D01*
X69440873Y-11269328D01*
X69482201Y-11330618D01*
X69544678Y-11398997D01*
X69547737Y-11407153D01*
X69544313Y-11415162D01*
X69418537Y-11540938D01*
X69410651Y-11544359D01*
X69402557Y-11541467D01*
X69402065Y-11541037D01*
X69399349Y-11537547D01*
X69397544Y-11534005D01*
X69397543Y-11534004D01*
X69397542Y-11534002D01*
X69319037Y-11455498D01*
X69319037Y-11455497D01*
X69319036Y-11455497D01*
X69239874Y-11415162D01*
X69220109Y-11405091D01*
X69110447Y-11387722D01*
X69097957Y-11389700D01*
X69092217Y-11389171D01*
X69037086Y-11369619D01*
X69031976Y-11366042D01*
X69029430Y-11360348D01*
X69030170Y-11354157D01*
X69118622Y-11138367D01*
X69121174Y-11134534D01*
X69125007Y-11131982D01*
X69341046Y-11043428D01*
X69347152Y-11042675D01*
X69352798Y-11045125D01*
G37*
%TD.AperFunction*%
%TD*%
%TA.AperFunction,Conductor*%
%TO.N,Net-(USB1-CC1)*%
G36*
X9066182Y-5398864D02*
G01*
X9069823Y-5406715D01*
X9075022Y-5500465D01*
X9091890Y-5573244D01*
X9118947Y-5634055D01*
X9155186Y-5702677D01*
X9155459Y-5703228D01*
X9195089Y-5788976D01*
X9196106Y-5795085D01*
X9193862Y-5800858D01*
X9188985Y-5804677D01*
X8973726Y-5894772D01*
X8969209Y-5895679D01*
X8964692Y-5894772D01*
X8749434Y-5804677D01*
X8744557Y-5800858D01*
X8742313Y-5795085D01*
X8743329Y-5788979D01*
X8782967Y-5703212D01*
X8783221Y-5702697D01*
X8819472Y-5634055D01*
X8846529Y-5573245D01*
X8863396Y-5500467D01*
X8868596Y-5406715D01*
X8872238Y-5398864D01*
X8880279Y-5395663D01*
X9058141Y-5395663D01*
X9066182Y-5398864D01*
G37*
%TD.AperFunction*%
%TD*%
%TA.AperFunction,Conductor*%
%TO.N,/VDD_3.3V*%
G36*
X70484504Y-7576542D02*
G01*
X70792220Y-7704954D01*
X70797088Y-7708750D01*
X70799346Y-7714496D01*
X70798367Y-7720590D01*
X70741921Y-7844868D01*
X70741729Y-7845270D01*
X70693402Y-7941740D01*
X70658398Y-8027295D01*
X70637154Y-8129381D01*
X70630544Y-8264535D01*
X70626927Y-8272436D01*
X70618858Y-8275663D01*
X70341142Y-8275663D01*
X70333073Y-8272436D01*
X70329456Y-8264535D01*
X70328076Y-8236334D01*
X70322845Y-8129379D01*
X70301601Y-8027295D01*
X70266599Y-7941746D01*
X70218254Y-7845240D01*
X70218091Y-7844898D01*
X70161631Y-7720588D01*
X70160653Y-7714495D01*
X70162911Y-7708750D01*
X70167777Y-7704955D01*
X70475495Y-7576542D01*
X70480000Y-7575641D01*
X70484504Y-7576542D01*
G37*
%TD.AperFunction*%
%TD*%
%TA.AperFunction,Conductor*%
%TO.N,/VDD_3.3V*%
G36*
X62018192Y-1373227D02*
G01*
X62021809Y-1381128D01*
X62028419Y-1516282D01*
X62049663Y-1618366D01*
X62084667Y-1703921D01*
X62132994Y-1800391D01*
X62133186Y-1800793D01*
X62189632Y-1925072D01*
X62190611Y-1931166D01*
X62188353Y-1936912D01*
X62183485Y-1940708D01*
X61875771Y-2069119D01*
X61871265Y-2070021D01*
X61866759Y-2069119D01*
X61559044Y-1940708D01*
X61554176Y-1936912D01*
X61551918Y-1931167D01*
X61552896Y-1925075D01*
X61609365Y-1800743D01*
X61609509Y-1800442D01*
X61657864Y-1703916D01*
X61692866Y-1618367D01*
X61714110Y-1516282D01*
X61720720Y-1381128D01*
X61724338Y-1373227D01*
X61732407Y-1370000D01*
X62010123Y-1370000D01*
X62018192Y-1373227D01*
G37*
%TD.AperFunction*%
%TD*%
%TA.AperFunction,Conductor*%
%TO.N,/SPIHD{slash}GPIO27*%
G36*
X44025195Y-6225844D02*
G01*
X44029012Y-6230720D01*
X44119109Y-6445982D01*
X44120016Y-6450499D01*
X44119109Y-6455016D01*
X44029016Y-6670269D01*
X44025196Y-6675147D01*
X44019420Y-6677391D01*
X44013309Y-6676370D01*
X43927573Y-6636694D01*
X43927007Y-6636413D01*
X43858426Y-6600056D01*
X43797650Y-6572851D01*
X43724906Y-6555864D01*
X43631145Y-6550618D01*
X43623298Y-6546975D01*
X43620099Y-6538936D01*
X43620099Y-6361073D01*
X43623302Y-6353030D01*
X43631155Y-6349391D01*
X43724856Y-6344233D01*
X43797626Y-6327481D01*
X43858440Y-6300566D01*
X43927093Y-6264432D01*
X43927572Y-6264196D01*
X44013316Y-6224613D01*
X44019424Y-6223599D01*
X44025195Y-6225844D01*
G37*
%TD.AperFunction*%
%TD*%
%TA.AperFunction,Conductor*%
%TO.N,/VDD_3.3V*%
G36*
X27175462Y-4301990D02*
G01*
X27179260Y-4306859D01*
X27307668Y-4614566D01*
X27308570Y-4619072D01*
X27307668Y-4623578D01*
X27179255Y-4931298D01*
X27175460Y-4936164D01*
X27169718Y-4938424D01*
X27163625Y-4937447D01*
X27039417Y-4881119D01*
X27039029Y-4880935D01*
X26942551Y-4832834D01*
X26856998Y-4798095D01*
X26754930Y-4777065D01*
X26619869Y-4770538D01*
X26611964Y-4766923D01*
X26608734Y-4758852D01*
X26608734Y-4481135D01*
X26611959Y-4473069D01*
X26619855Y-4469449D01*
X26646371Y-4468134D01*
X26755011Y-4462750D01*
X26857044Y-4441280D01*
X26942525Y-4406005D01*
X27038976Y-4357431D01*
X27039334Y-4357259D01*
X27163618Y-4300714D01*
X27169714Y-4299732D01*
X27175462Y-4301990D01*
G37*
%TD.AperFunction*%
%TD*%
%TA.AperFunction,Conductor*%
%TO.N,/SPICLK{slash}GPIO30*%
G36*
X38530001Y-14680236D02*
G01*
X38656691Y-14806926D01*
X38660098Y-14814521D01*
X38657592Y-14822460D01*
X38433029Y-15106206D01*
X38342495Y-15357285D01*
X38318724Y-15608056D01*
X38318711Y-15608181D01*
X38288102Y-15898024D01*
X38287675Y-15900154D01*
X38180276Y-16258550D01*
X38176805Y-16263967D01*
X38170995Y-16266731D01*
X38164602Y-16266005D01*
X37395050Y-15948225D01*
X37391243Y-15945684D01*
X37388703Y-15941879D01*
X37070921Y-15172322D01*
X37070196Y-15165931D01*
X37072960Y-15160121D01*
X37078373Y-15156652D01*
X37436774Y-15049249D01*
X37438900Y-15048823D01*
X37728851Y-15018203D01*
X37979639Y-14994432D01*
X38230720Y-14903897D01*
X38514469Y-14679334D01*
X38522406Y-14676829D01*
X38530001Y-14680236D01*
G37*
%TD.AperFunction*%
%TD*%
%TA.AperFunction,Conductor*%
%TO.N,/SPIWP{slash}GPIO28*%
G36*
X33450001Y-14680236D02*
G01*
X33576691Y-14806926D01*
X33580098Y-14814521D01*
X33577592Y-14822460D01*
X33353029Y-15106206D01*
X33262495Y-15357285D01*
X33238724Y-15608056D01*
X33238711Y-15608181D01*
X33208102Y-15898024D01*
X33207675Y-15900154D01*
X33100276Y-16258550D01*
X33096805Y-16263967D01*
X33090995Y-16266731D01*
X33084602Y-16266005D01*
X32315050Y-15948225D01*
X32311243Y-15945684D01*
X32308703Y-15941879D01*
X31990921Y-15172322D01*
X31990196Y-15165931D01*
X31992960Y-15160121D01*
X31998373Y-15156652D01*
X32356774Y-15049249D01*
X32358900Y-15048823D01*
X32648851Y-15018203D01*
X32899639Y-14994432D01*
X33150720Y-14903897D01*
X33434469Y-14679334D01*
X33442406Y-14676829D01*
X33450001Y-14680236D01*
G37*
%TD.AperFunction*%
%TD*%
%TA.AperFunction,Conductor*%
%TO.N,/VDD_3.3V*%
G36*
X14893714Y-7396542D02*
G01*
X15135033Y-7497246D01*
X15201444Y-7524960D01*
X15206309Y-7528752D01*
X15208569Y-7534492D01*
X15207597Y-7540583D01*
X15151415Y-7664702D01*
X15151239Y-7665073D01*
X15103417Y-7761541D01*
X15085965Y-7804924D01*
X15069035Y-7847012D01*
X15068994Y-7847113D01*
X15048224Y-7949157D01*
X15041796Y-8084111D01*
X15038183Y-8092022D01*
X15030109Y-8095254D01*
X14752391Y-8095254D01*
X14744329Y-8092033D01*
X14740706Y-8084142D01*
X14733900Y-7948983D01*
X14733900Y-7948981D01*
X14712154Y-7847012D01*
X14676550Y-7761614D01*
X14627709Y-7665253D01*
X14627518Y-7664858D01*
X14570864Y-7540596D01*
X14569877Y-7534500D01*
X14572134Y-7528748D01*
X14577002Y-7524948D01*
X14884705Y-7396542D01*
X14889210Y-7395641D01*
X14893714Y-7396542D01*
G37*
%TD.AperFunction*%
%TD*%
%TA.AperFunction,Conductor*%
%TO.N,/U0TXD*%
G36*
X7514751Y1982642D02*
G01*
X7518222Y1977225D01*
X7625620Y1618830D01*
X7626047Y1616700D01*
X7656654Y1326876D01*
X7656607Y1326872D01*
X7656668Y1326751D01*
X7680440Y1075962D01*
X7770974Y824882D01*
X7995537Y541135D01*
X7998043Y533196D01*
X7994636Y525601D01*
X7867946Y398911D01*
X7860351Y395504D01*
X7852412Y398010D01*
X7568665Y622573D01*
X7317585Y713107D01*
X7066814Y736878D01*
X7066689Y736891D01*
X6776847Y767500D01*
X6774717Y767927D01*
X6501458Y849813D01*
X6416321Y875326D01*
X6410905Y878796D01*
X6408141Y884606D01*
X6408866Y890997D01*
X6726649Y1660557D01*
X6729188Y1664359D01*
X6732990Y1666898D01*
X7502550Y1984681D01*
X7508941Y1985406D01*
X7514751Y1982642D01*
G37*
%TD.AperFunction*%
%TD*%
%TA.AperFunction,Conductor*%
%TO.N,/U0TXD*%
G36*
X69014405Y-10310510D02*
G01*
X69018224Y-10315387D01*
X69108319Y-10530646D01*
X69109226Y-10535163D01*
X69108319Y-10539680D01*
X69018224Y-10754938D01*
X69014405Y-10759815D01*
X69008632Y-10762059D01*
X69002524Y-10761042D01*
X68916775Y-10721412D01*
X68916224Y-10721139D01*
X68847602Y-10684900D01*
X68847601Y-10684899D01*
X68786792Y-10657843D01*
X68764835Y-10652754D01*
X68714012Y-10640975D01*
X68620262Y-10635776D01*
X68612411Y-10632135D01*
X68609210Y-10624094D01*
X68609210Y-10446232D01*
X68612411Y-10438191D01*
X68620262Y-10434550D01*
X68666828Y-10431966D01*
X68714014Y-10429349D01*
X68786792Y-10412482D01*
X68847602Y-10385425D01*
X68916244Y-10349174D01*
X68916759Y-10348920D01*
X69002526Y-10309282D01*
X69008632Y-10308266D01*
X69014405Y-10310510D01*
G37*
%TD.AperFunction*%
%TD*%
%TA.AperFunction,Conductor*%
%TO.N,/USB_Data-*%
G36*
X6153724Y-6386552D02*
G01*
X6363961Y-6474546D01*
X6368984Y-6476648D01*
X6373861Y-6480467D01*
X6376105Y-6486240D01*
X6375088Y-6492350D01*
X6335457Y-6578098D01*
X6335182Y-6578653D01*
X6298947Y-6647269D01*
X6271890Y-6708079D01*
X6255022Y-6780859D01*
X6249823Y-6874611D01*
X6246182Y-6882462D01*
X6238141Y-6885663D01*
X6060279Y-6885663D01*
X6052238Y-6882462D01*
X6048597Y-6874611D01*
X6043396Y-6780859D01*
X6043396Y-6780858D01*
X6026529Y-6708079D01*
X5999472Y-6647270D01*
X5963229Y-6578640D01*
X5962966Y-6578111D01*
X5923329Y-6492345D01*
X5922313Y-6486240D01*
X5924557Y-6480467D01*
X5929431Y-6476649D01*
X6144695Y-6386552D01*
X6149210Y-6385646D01*
X6153724Y-6386552D01*
G37*
%TD.AperFunction*%
%TD*%
%TA.AperFunction,Conductor*%
%TO.N,/VDD_5V*%
G36*
X30461312Y-5815567D02*
G01*
X30583899Y-5924373D01*
X30685493Y-5991800D01*
X30688188Y-5993589D01*
X30783260Y-6046964D01*
X30783991Y-6047411D01*
X30887239Y-6115936D01*
X30888531Y-6116930D01*
X31009493Y-6224295D01*
X31012894Y-6229558D01*
X31013089Y-6235825D01*
X31010022Y-6241292D01*
X30772020Y-6480659D01*
X30771972Y-6480707D01*
X30532557Y-6718757D01*
X30527090Y-6721824D01*
X30520823Y-6721629D01*
X30515560Y-6718228D01*
X30408195Y-6597266D01*
X30407199Y-6595971D01*
X30338679Y-6492731D01*
X30338225Y-6491989D01*
X30331864Y-6480659D01*
X30284854Y-6396923D01*
X30215637Y-6292633D01*
X30106832Y-6170047D01*
X30103887Y-6161932D01*
X30107308Y-6154008D01*
X30445273Y-5816043D01*
X30453197Y-5812622D01*
X30461312Y-5815567D01*
G37*
%TD.AperFunction*%
%TD*%
%TA.AperFunction,Conductor*%
%TO.N,/CHIP_PU*%
G36*
X21730337Y-5211226D02*
G01*
X21856116Y-5337005D01*
X21859542Y-5345125D01*
X21856330Y-5353331D01*
X21794042Y-5418973D01*
X21749572Y-5476548D01*
X21718986Y-5532214D01*
X21690465Y-5600457D01*
X21656625Y-5684735D01*
X21652969Y-5689597D01*
X21647366Y-5691965D01*
X21641331Y-5691201D01*
X21425089Y-5602564D01*
X21421253Y-5600011D01*
X21418700Y-5596175D01*
X21330344Y-5380620D01*
X21329616Y-5374351D01*
X21332251Y-5368614D01*
X21337482Y-5365082D01*
X21427932Y-5335046D01*
X21429311Y-5334680D01*
X21507441Y-5319058D01*
X21574479Y-5303860D01*
X21642119Y-5271348D01*
X21714541Y-5210538D01*
X21722572Y-5207810D01*
X21730337Y-5211226D01*
G37*
%TD.AperFunction*%
%TD*%
%TA.AperFunction,Conductor*%
%TO.N,/DTR*%
G36*
X5039504Y2010625D02*
G01*
X5042998Y2005254D01*
X5173560Y1582117D01*
X5173565Y1582103D01*
X5307909Y1191703D01*
X5442253Y846305D01*
X5442258Y846292D01*
X5442260Y846289D01*
X5576610Y545875D01*
X5668018Y372099D01*
X5706949Y298087D01*
X5708162Y290885D01*
X5704867Y284367D01*
X5576214Y155714D01*
X5569185Y152353D01*
X5561605Y154151D01*
X5359468Y284367D01*
X5223280Y372099D01*
X4877019Y550159D01*
X4877014Y550161D01*
X4530762Y683218D01*
X4184503Y771278D01*
X3853450Y812446D01*
X3847037Y815388D01*
X3843481Y821481D01*
X3844074Y828509D01*
X4186653Y1660553D01*
X4189189Y1664360D01*
X4192988Y1666903D01*
X5027341Y2012614D01*
X5033705Y2013351D01*
X5039504Y2010625D01*
G37*
%TD.AperFunction*%
%TD*%
%TA.AperFunction,Conductor*%
%TO.N,/U0RXD*%
G36*
X24359466Y-7014593D02*
G01*
X24575386Y-7103098D01*
X24579221Y-7105651D01*
X24581774Y-7109487D01*
X24670278Y-7325404D01*
X24671026Y-7331552D01*
X24668531Y-7337221D01*
X24663491Y-7340822D01*
X24574832Y-7373432D01*
X24574245Y-7373630D01*
X24500106Y-7396526D01*
X24437973Y-7420393D01*
X24374587Y-7459927D01*
X24304614Y-7522545D01*
X24296488Y-7525522D01*
X24288539Y-7522099D01*
X24162772Y-7396332D01*
X24159349Y-7388383D01*
X24162324Y-7380260D01*
X24224942Y-7310286D01*
X24264478Y-7246897D01*
X24288345Y-7184767D01*
X24311245Y-7110609D01*
X24311438Y-7110038D01*
X24313052Y-7105651D01*
X24344051Y-7021379D01*
X24347651Y-7016341D01*
X24353320Y-7013846D01*
X24359466Y-7014593D01*
G37*
%TD.AperFunction*%
%TD*%
%TA.AperFunction,Conductor*%
%TO.N,Net-(J1-Pin_2)*%
G36*
X13971590Y-8120121D02*
G01*
X14187441Y-8208598D01*
X14191276Y-8211151D01*
X14193829Y-8214987D01*
X14282358Y-8430965D01*
X14283109Y-8437092D01*
X14280637Y-8442749D01*
X14275630Y-8446361D01*
X14187821Y-8479199D01*
X14187372Y-8479357D01*
X14114311Y-8503336D01*
X14053402Y-8528486D01*
X13991108Y-8568959D01*
X13921971Y-8631501D01*
X13913829Y-8634520D01*
X13905849Y-8631097D01*
X13780077Y-8505325D01*
X13776656Y-8497412D01*
X13779583Y-8489305D01*
X13841836Y-8418886D01*
X13880043Y-8354675D01*
X13902279Y-8291590D01*
X13923810Y-8216644D01*
X13924030Y-8215965D01*
X13956151Y-8126972D01*
X13959737Y-8121899D01*
X13965419Y-8119377D01*
X13971590Y-8120121D01*
G37*
%TD.AperFunction*%
%TD*%
%TA.AperFunction,Conductor*%
%TO.N,/VDD_3.3V*%
G36*
X23603436Y-14644155D02*
G01*
X23881509Y-14869677D01*
X24125374Y-14969408D01*
X24368238Y-15005343D01*
X24650568Y-15045983D01*
X24652394Y-15046397D01*
X25004349Y-15156547D01*
X25009692Y-15160047D01*
X25012401Y-15165833D01*
X25011667Y-15172179D01*
X24693827Y-15941877D01*
X24691286Y-15945684D01*
X24687479Y-15948225D01*
X23917781Y-16266065D01*
X23911435Y-16266799D01*
X23905649Y-16264090D01*
X23902149Y-16258746D01*
X23792000Y-15906793D01*
X23791585Y-15904965D01*
X23750945Y-15622636D01*
X23715010Y-15379772D01*
X23615279Y-15135907D01*
X23389757Y-14857834D01*
X23387161Y-14849858D01*
X23390571Y-14842194D01*
X23587796Y-14644969D01*
X23595460Y-14641559D01*
X23603436Y-14644155D01*
G37*
%TD.AperFunction*%
%TD*%
%TA.AperFunction,Conductor*%
%TO.N,/CHIP_PU*%
G36*
X38885892Y-2419782D02*
G01*
X38971658Y-2459419D01*
X38972187Y-2459682D01*
X39040817Y-2495925D01*
X39101626Y-2522982D01*
X39174405Y-2539849D01*
X39207090Y-2541662D01*
X39268158Y-2545050D01*
X39276009Y-2548691D01*
X39279210Y-2556732D01*
X39279210Y-2734594D01*
X39276009Y-2742635D01*
X39268158Y-2746276D01*
X39174406Y-2751475D01*
X39101626Y-2768343D01*
X39040816Y-2795400D01*
X38972200Y-2831635D01*
X38971645Y-2831910D01*
X38885897Y-2871541D01*
X38879787Y-2872558D01*
X38874014Y-2870314D01*
X38870195Y-2865437D01*
X38815431Y-2734594D01*
X38780099Y-2650177D01*
X38779193Y-2645663D01*
X38780099Y-2641148D01*
X38870196Y-2425884D01*
X38874014Y-2421010D01*
X38879787Y-2418766D01*
X38885892Y-2419782D01*
G37*
%TD.AperFunction*%
%TD*%
%TA.AperFunction,Conductor*%
%TO.N,/SPIQ{slash}GPIO31*%
G36*
X41070001Y-14680236D02*
G01*
X41196691Y-14806926D01*
X41200098Y-14814521D01*
X41197592Y-14822460D01*
X40973029Y-15106206D01*
X40882495Y-15357285D01*
X40858724Y-15608056D01*
X40858711Y-15608181D01*
X40828102Y-15898024D01*
X40827675Y-15900154D01*
X40720276Y-16258550D01*
X40716805Y-16263967D01*
X40710995Y-16266731D01*
X40704602Y-16266005D01*
X39935050Y-15948225D01*
X39931243Y-15945684D01*
X39928703Y-15941879D01*
X39610921Y-15172322D01*
X39610196Y-15165931D01*
X39612960Y-15160121D01*
X39618373Y-15156652D01*
X39976774Y-15049249D01*
X39978900Y-15048823D01*
X40268851Y-15018203D01*
X40519639Y-14994432D01*
X40770720Y-14903897D01*
X41054469Y-14679334D01*
X41062406Y-14676829D01*
X41070001Y-14680236D01*
G37*
%TD.AperFunction*%
%TD*%
%TA.AperFunction,Conductor*%
%TO.N,/U0RXD*%
G36*
X24685892Y-6879782D02*
G01*
X24771658Y-6919419D01*
X24772187Y-6919682D01*
X24840817Y-6955925D01*
X24901626Y-6982982D01*
X24974405Y-6999849D01*
X25007090Y-7001662D01*
X25068158Y-7005050D01*
X25076009Y-7008691D01*
X25079210Y-7016732D01*
X25079210Y-7191347D01*
X25077322Y-7197719D01*
X25072269Y-7202036D01*
X25065680Y-7202902D01*
X25059494Y-7201923D01*
X25049209Y-7200293D01*
X24981465Y-7211022D01*
X24980286Y-7211148D01*
X24974404Y-7211475D01*
X24965728Y-7213486D01*
X24964918Y-7213644D01*
X24939547Y-7217663D01*
X24934013Y-7220482D01*
X24931346Y-7221454D01*
X24901626Y-7228343D01*
X24840816Y-7255400D01*
X24772200Y-7291635D01*
X24771645Y-7291910D01*
X24685897Y-7331541D01*
X24679787Y-7332558D01*
X24674014Y-7330314D01*
X24670195Y-7325437D01*
X24629557Y-7228343D01*
X24580099Y-7110177D01*
X24579193Y-7105663D01*
X24580099Y-7101148D01*
X24670196Y-6885884D01*
X24674014Y-6881010D01*
X24679787Y-6878766D01*
X24685892Y-6879782D01*
G37*
%TD.AperFunction*%
%TD*%
%TA.AperFunction,Conductor*%
%TO.N,/GPIO41*%
G36*
X70508629Y-14248625D02*
G01*
X70512470Y-14256010D01*
X70554319Y-14615436D01*
X70667840Y-14856995D01*
X70828342Y-15051109D01*
X70828421Y-15051206D01*
X71011742Y-15277818D01*
X71012946Y-15279627D01*
X71190425Y-15608991D01*
X71191802Y-15615276D01*
X71189648Y-15621338D01*
X71184614Y-15625346D01*
X70415753Y-15944797D01*
X70411264Y-15945692D01*
X70406775Y-15944797D01*
X69637915Y-15625346D01*
X69632881Y-15621338D01*
X69630727Y-15615276D01*
X69632103Y-15608994D01*
X69809585Y-15279621D01*
X69810782Y-15277823D01*
X69994161Y-15051139D01*
X70154686Y-14856997D01*
X70268209Y-14615438D01*
X70310060Y-14256009D01*
X70313901Y-14248625D01*
X70321681Y-14245663D01*
X70500849Y-14245663D01*
X70508629Y-14248625D01*
G37*
%TD.AperFunction*%
%TD*%
%TA.AperFunction,Conductor*%
%TO.N,/CHIP_PU*%
G36*
X71659239Y-2421010D02*
G01*
X71663058Y-2425887D01*
X71753153Y-2641146D01*
X71754060Y-2645663D01*
X71753153Y-2650180D01*
X71663058Y-2865438D01*
X71659239Y-2870315D01*
X71653466Y-2872559D01*
X71647358Y-2871542D01*
X71561609Y-2831912D01*
X71561058Y-2831639D01*
X71492436Y-2795400D01*
X71431626Y-2768343D01*
X71409669Y-2763254D01*
X71358846Y-2751475D01*
X71265096Y-2746276D01*
X71257245Y-2742635D01*
X71254044Y-2734594D01*
X71254044Y-2556732D01*
X71257245Y-2548691D01*
X71265096Y-2545050D01*
X71311662Y-2542466D01*
X71358848Y-2539849D01*
X71431626Y-2522982D01*
X71492436Y-2495925D01*
X71561078Y-2459674D01*
X71561593Y-2459420D01*
X71647360Y-2419782D01*
X71653466Y-2418766D01*
X71659239Y-2421010D01*
G37*
%TD.AperFunction*%
%TD*%
%TA.AperFunction,Conductor*%
%TO.N,Net-(USB1-CC1)*%
G36*
X14966182Y-1458864D02*
G01*
X14969823Y-1466715D01*
X14975022Y-1560465D01*
X14991890Y-1633244D01*
X15018947Y-1694055D01*
X15055186Y-1762677D01*
X15055459Y-1763228D01*
X15095089Y-1848976D01*
X15096106Y-1855085D01*
X15093862Y-1860858D01*
X15088985Y-1864677D01*
X14873727Y-1954772D01*
X14869210Y-1955679D01*
X14864693Y-1954772D01*
X14649434Y-1864677D01*
X14644557Y-1860858D01*
X14642313Y-1855085D01*
X14643329Y-1848979D01*
X14682967Y-1763212D01*
X14683221Y-1762697D01*
X14719472Y-1694055D01*
X14746529Y-1633245D01*
X14763396Y-1560467D01*
X14768596Y-1466715D01*
X14772238Y-1458864D01*
X14780279Y-1455663D01*
X14958141Y-1455663D01*
X14966182Y-1458864D01*
G37*
%TD.AperFunction*%
%TD*%
%TA.AperFunction,Conductor*%
%TO.N,/GPIO41*%
G36*
X69342007Y-11653270D02*
G01*
X69345608Y-11658310D01*
X69378218Y-11746967D01*
X69378416Y-11747554D01*
X69401312Y-11821694D01*
X69425179Y-11883826D01*
X69464713Y-11947213D01*
X69527331Y-12017187D01*
X69530308Y-12025313D01*
X69526885Y-12033262D01*
X69401119Y-12159028D01*
X69393170Y-12162451D01*
X69385044Y-12159474D01*
X69315070Y-12096856D01*
X69251683Y-12057322D01*
X69189551Y-12033455D01*
X69115411Y-12010559D01*
X69114824Y-12010361D01*
X69026167Y-11977751D01*
X69021127Y-11974150D01*
X69018632Y-11968481D01*
X69019379Y-11962335D01*
X69107885Y-11746413D01*
X69110437Y-11742580D01*
X69114270Y-11740028D01*
X69330192Y-11651522D01*
X69336338Y-11650775D01*
X69342007Y-11653270D01*
G37*
%TD.AperFunction*%
%TD*%
%TA.AperFunction,Conductor*%
%TO.N,/GPIO20{slash}ESP32_USB_D+*%
G36*
X19236250Y-9810779D02*
G01*
X19298663Y-9844194D01*
X19299727Y-9844839D01*
X19358680Y-9884990D01*
X19358684Y-9884992D01*
X19410573Y-9912495D01*
X19462146Y-9913281D01*
X19512674Y-9879057D01*
X19520345Y-9877098D01*
X19527508Y-9880472D01*
X19653470Y-10006434D01*
X19656499Y-10011680D01*
X19656498Y-10017737D01*
X19653468Y-10022983D01*
X19651806Y-10024644D01*
X19651513Y-10024926D01*
X19571038Y-10099950D01*
X19569931Y-10100862D01*
X19499050Y-10152287D01*
X19497387Y-10153294D01*
X19428571Y-10187501D01*
X19427557Y-10187946D01*
X19342741Y-10220513D01*
X19342708Y-10220527D01*
X19312051Y-10232522D01*
X19235523Y-10262468D01*
X19226696Y-10262345D01*
X19220468Y-10256090D01*
X19130388Y-10040873D01*
X19129481Y-10036369D01*
X19130378Y-10031862D01*
X19219928Y-9816597D01*
X19223926Y-9811576D01*
X19229975Y-9809419D01*
X19236250Y-9810779D01*
G37*
%TD.AperFunction*%
%TD*%
%TA.AperFunction,Conductor*%
%TO.N,/DTR*%
G36*
X16925403Y-10309278D02*
G01*
X16988094Y-10365379D01*
X16995377Y-10371896D01*
X17016505Y-10385073D01*
X17058764Y-10411431D01*
X17120895Y-10435298D01*
X17120899Y-10435299D01*
X17120901Y-10435300D01*
X17195035Y-10458193D01*
X17195618Y-10458389D01*
X17284281Y-10491003D01*
X17289321Y-10494604D01*
X17291816Y-10500273D01*
X17291068Y-10506421D01*
X17202564Y-10722338D01*
X17200011Y-10726174D01*
X17196175Y-10728727D01*
X16980258Y-10817231D01*
X16974110Y-10817979D01*
X16968441Y-10815484D01*
X16964840Y-10810444D01*
X16934098Y-10726870D01*
X16932226Y-10721781D01*
X16932030Y-10721198D01*
X16909137Y-10647064D01*
X16909135Y-10647058D01*
X16885268Y-10584927D01*
X16845732Y-10521539D01*
X16783115Y-10451566D01*
X16780139Y-10443442D01*
X16783561Y-10435494D01*
X16909331Y-10309724D01*
X16917279Y-10306302D01*
X16925403Y-10309278D01*
G37*
%TD.AperFunction*%
%TD*%
%TA.AperFunction,Conductor*%
%TO.N,/SPIHD{slash}GPIO27*%
G36*
X29775779Y-14210889D02*
G01*
X29986016Y-14298883D01*
X29991039Y-14300985D01*
X29995916Y-14304804D01*
X29998160Y-14310577D01*
X29997143Y-14316687D01*
X29957512Y-14402435D01*
X29957237Y-14402990D01*
X29921002Y-14471606D01*
X29893945Y-14532416D01*
X29877077Y-14605196D01*
X29871878Y-14698948D01*
X29868237Y-14706799D01*
X29860196Y-14710000D01*
X29682334Y-14710000D01*
X29674293Y-14706799D01*
X29670652Y-14698948D01*
X29665451Y-14605196D01*
X29665451Y-14605195D01*
X29648584Y-14532416D01*
X29621527Y-14471607D01*
X29585284Y-14402977D01*
X29585021Y-14402448D01*
X29545384Y-14316682D01*
X29544368Y-14310577D01*
X29546612Y-14304804D01*
X29551486Y-14300986D01*
X29766750Y-14210889D01*
X29771265Y-14209983D01*
X29775779Y-14210889D01*
G37*
%TD.AperFunction*%
%TD*%
%TA.AperFunction,Conductor*%
%TO.N,/GPIO42*%
G36*
X72533819Y-14388635D02*
G01*
X72775741Y-14624250D01*
X72958677Y-14791633D01*
X73059100Y-14880440D01*
X73119135Y-14933532D01*
X73119219Y-14933608D01*
X73230915Y-15035807D01*
X73301976Y-15100826D01*
X73302241Y-15101076D01*
X73543822Y-15336359D01*
X73546932Y-15341609D01*
X73546976Y-15347711D01*
X73543942Y-15353004D01*
X72955404Y-15942928D01*
X72951600Y-15945474D01*
X72947111Y-15946365D01*
X72115642Y-15945674D01*
X72109117Y-15943679D01*
X72104814Y-15938382D01*
X72104198Y-15931590D01*
X72179560Y-15570035D01*
X72180901Y-15566543D01*
X72348487Y-15279046D01*
X72348776Y-15278577D01*
X72506252Y-15035808D01*
X72551770Y-14797451D01*
X72551769Y-14797450D01*
X72551770Y-14797450D01*
X72388907Y-14529855D01*
X72387284Y-14522379D01*
X72390627Y-14515500D01*
X72517384Y-14388743D01*
X72525579Y-14385317D01*
X72533819Y-14388635D01*
G37*
%TD.AperFunction*%
%TD*%
%TA.AperFunction,Conductor*%
%TO.N,/VDD_3.3V*%
G36*
X15038192Y-10788890D02*
G01*
X15041809Y-10796791D01*
X15048419Y-10931945D01*
X15069663Y-11034029D01*
X15104667Y-11119584D01*
X15152994Y-11216054D01*
X15153186Y-11216456D01*
X15209632Y-11340735D01*
X15210611Y-11346829D01*
X15208353Y-11352575D01*
X15203485Y-11356371D01*
X14895771Y-11484782D01*
X14891265Y-11485684D01*
X14886759Y-11484782D01*
X14579044Y-11356371D01*
X14574176Y-11352575D01*
X14571918Y-11346830D01*
X14572896Y-11340738D01*
X14629365Y-11216406D01*
X14629509Y-11216105D01*
X14677864Y-11119579D01*
X14712866Y-11034030D01*
X14734110Y-10931945D01*
X14740720Y-10796791D01*
X14744338Y-10788890D01*
X14752407Y-10785663D01*
X15030123Y-10785663D01*
X15038192Y-10788890D01*
G37*
%TD.AperFunction*%
%TD*%
%TA.AperFunction,Conductor*%
%TO.N,/USB_Data-*%
G36*
X6246201Y-6886584D02*
G01*
X6249852Y-6894414D01*
X6255312Y-6988192D01*
X6272866Y-7060802D01*
X6300759Y-7121414D01*
X6337673Y-7189818D01*
X6337984Y-7190436D01*
X6377876Y-7276127D01*
X6378909Y-7282245D01*
X6376670Y-7288031D01*
X6371786Y-7291858D01*
X6156559Y-7381940D01*
X6152042Y-7382847D01*
X6147525Y-7381940D01*
X5979774Y-7311729D01*
X5932238Y-7291833D01*
X5927368Y-7288023D01*
X5925120Y-7282261D01*
X5926122Y-7276161D01*
X5965426Y-7190570D01*
X5965640Y-7190133D01*
X6001191Y-7121499D01*
X6027448Y-7060662D01*
X6043664Y-6987933D01*
X6048622Y-6894473D01*
X6052255Y-6886605D01*
X6060306Y-6883394D01*
X6238172Y-6883394D01*
X6246201Y-6886584D01*
G37*
%TD.AperFunction*%
%TD*%
%TA.AperFunction,Conductor*%
%TO.N,/GPIO20{slash}ESP32_USB_D+*%
G36*
X27235753Y1663473D02*
G01*
X28004614Y1344021D01*
X28009648Y1340013D01*
X28011802Y1333951D01*
X28010425Y1327666D01*
X27832946Y998304D01*
X27831742Y996495D01*
X27648421Y769883D01*
X27648342Y769786D01*
X27487840Y575671D01*
X27374319Y334113D01*
X27332470Y-25316D01*
X27328629Y-32701D01*
X27320849Y-35663D01*
X27141681Y-35663D01*
X27133901Y-32701D01*
X27130060Y-25316D01*
X27088209Y334113D01*
X26974687Y575671D01*
X26814185Y769786D01*
X26814106Y769883D01*
X26630786Y996495D01*
X26629582Y998304D01*
X26452103Y1327668D01*
X26450727Y1333951D01*
X26452881Y1340013D01*
X26457912Y1344020D01*
X27226776Y1663473D01*
X27231265Y1664367D01*
X27235753Y1663473D01*
G37*
%TD.AperFunction*%
%TD*%
%TA.AperFunction,Conductor*%
%TO.N,/U0TXD*%
G36*
X24829466Y-7464093D02*
G01*
X25045386Y-7552598D01*
X25049221Y-7555151D01*
X25051774Y-7558987D01*
X25140278Y-7774904D01*
X25141026Y-7781052D01*
X25138531Y-7786721D01*
X25133491Y-7790322D01*
X25044832Y-7822932D01*
X25044245Y-7823130D01*
X24970106Y-7846026D01*
X24907973Y-7869893D01*
X24844587Y-7909427D01*
X24774614Y-7972045D01*
X24766488Y-7975022D01*
X24758539Y-7971599D01*
X24632772Y-7845832D01*
X24629349Y-7837883D01*
X24632324Y-7829760D01*
X24694942Y-7759786D01*
X24734478Y-7696397D01*
X24758345Y-7634267D01*
X24781245Y-7560109D01*
X24781438Y-7559538D01*
X24783052Y-7555151D01*
X24814051Y-7470879D01*
X24817651Y-7465841D01*
X24823320Y-7463346D01*
X24829466Y-7464093D01*
G37*
%TD.AperFunction*%
%TD*%
%TA.AperFunction,Conductor*%
%TO.N,/VDD_3.3V*%
G36*
X29030016Y-8115890D02*
G01*
X29245274Y-8205985D01*
X29250151Y-8209804D01*
X29252395Y-8215577D01*
X29251378Y-8221687D01*
X29211747Y-8307435D01*
X29211472Y-8307990D01*
X29175237Y-8376606D01*
X29148180Y-8437416D01*
X29131312Y-8510196D01*
X29126113Y-8603948D01*
X29122472Y-8611799D01*
X29114431Y-8615000D01*
X28936569Y-8615000D01*
X28928528Y-8611799D01*
X28924887Y-8603948D01*
X28919686Y-8510196D01*
X28919686Y-8510195D01*
X28902819Y-8437416D01*
X28875762Y-8376607D01*
X28839519Y-8307977D01*
X28839256Y-8307448D01*
X28799619Y-8221682D01*
X28798603Y-8215577D01*
X28800847Y-8209804D01*
X28805721Y-8205986D01*
X29020986Y-8115889D01*
X29025499Y-8114983D01*
X29030016Y-8115890D01*
G37*
%TD.AperFunction*%
%TD*%
%TA.AperFunction,Conductor*%
%TO.N,/SPICLK{slash}GPIO30*%
G36*
X52571521Y-11098930D02*
G01*
X52787441Y-11187435D01*
X52791276Y-11189988D01*
X52793829Y-11193824D01*
X52882333Y-11409741D01*
X52883081Y-11415889D01*
X52880586Y-11421558D01*
X52875546Y-11425159D01*
X52786887Y-11457769D01*
X52786300Y-11457967D01*
X52712161Y-11480863D01*
X52650028Y-11504730D01*
X52586642Y-11544264D01*
X52516669Y-11606882D01*
X52508543Y-11609859D01*
X52500594Y-11606436D01*
X52374827Y-11480669D01*
X52371404Y-11472720D01*
X52374379Y-11464597D01*
X52436997Y-11394623D01*
X52476533Y-11331234D01*
X52500400Y-11269104D01*
X52523300Y-11194946D01*
X52523493Y-11194375D01*
X52525107Y-11189988D01*
X52556106Y-11105716D01*
X52559706Y-11100678D01*
X52565375Y-11098183D01*
X52571521Y-11098930D01*
G37*
%TD.AperFunction*%
%TD*%
%TA.AperFunction,Conductor*%
%TO.N,Net-(USB1-CC1)*%
G36*
X8978725Y-2261552D02*
G01*
X9193931Y-2351625D01*
X9198818Y-2355459D01*
X9201055Y-2361255D01*
X9200009Y-2367378D01*
X9159927Y-2453004D01*
X9159589Y-2453671D01*
X9122137Y-2521949D01*
X9093614Y-2582384D01*
X9075532Y-2654872D01*
X9069873Y-2748673D01*
X9066214Y-2756487D01*
X9058194Y-2759668D01*
X8880327Y-2759668D01*
X8872268Y-2756450D01*
X8868642Y-2748566D01*
X8867851Y-2733133D01*
X8863870Y-2655330D01*
X8848153Y-2582639D01*
X8822508Y-2521783D01*
X8787493Y-2453160D01*
X8787278Y-2452713D01*
X8748261Y-2367323D01*
X8747268Y-2361226D01*
X8749519Y-2355473D01*
X8754383Y-2351669D01*
X8969696Y-2261552D01*
X8974209Y-2260646D01*
X8978725Y-2261552D01*
G37*
%TD.AperFunction*%
%TD*%
%TA.AperFunction,Conductor*%
%TO.N,/VDD_3.3V*%
G36*
X25831227Y-14682074D02*
G01*
X25957917Y-14808764D01*
X25961325Y-14816362D01*
X25958815Y-14824302D01*
X25734291Y-15107733D01*
X25643424Y-15358453D01*
X25619194Y-15608737D01*
X25619182Y-15608856D01*
X25588178Y-15898423D01*
X25587750Y-15900541D01*
X25480281Y-16258557D01*
X25476810Y-16263972D01*
X25471000Y-16266733D01*
X25464609Y-16266007D01*
X24695050Y-15948225D01*
X24691243Y-15945684D01*
X24688703Y-15941879D01*
X24370925Y-15172330D01*
X24370199Y-15165935D01*
X24372966Y-15160123D01*
X24378384Y-15156656D01*
X24736981Y-15049418D01*
X24739108Y-15048993D01*
X25029341Y-15018862D01*
X25280425Y-14995682D01*
X25531768Y-14905615D01*
X25815701Y-14681166D01*
X25823635Y-14678667D01*
X25831227Y-14682074D01*
G37*
%TD.AperFunction*%
%TD*%
%TA.AperFunction,Conductor*%
%TO.N,/VDD_3.3V*%
G36*
X23468209Y-2268960D02*
G01*
X23471836Y-2276840D01*
X23478800Y-2412006D01*
X23500956Y-2513881D01*
X23537051Y-2599154D01*
X23537052Y-2599155D01*
X23586301Y-2695402D01*
X23586524Y-2695864D01*
X23586621Y-2696077D01*
X23643325Y-2820056D01*
X23644320Y-2826158D01*
X23642065Y-2831915D01*
X23637191Y-2835720D01*
X23329506Y-2964119D01*
X23325000Y-2965021D01*
X23320494Y-2964119D01*
X23012753Y-2835697D01*
X23007891Y-2831908D01*
X23005629Y-2826174D01*
X23006594Y-2820088D01*
X23062591Y-2696026D01*
X23062708Y-2695779D01*
X23110135Y-2599277D01*
X23144082Y-2513699D01*
X23164465Y-2411683D01*
X23170745Y-2276897D01*
X23174354Y-2268980D01*
X23182432Y-2265743D01*
X23460152Y-2265743D01*
X23468209Y-2268960D01*
G37*
%TD.AperFunction*%
%TD*%
%TA.AperFunction,Conductor*%
%TO.N,/VDD_3.3V*%
G36*
X70346912Y-7258574D02*
G01*
X70350708Y-7263442D01*
X70479119Y-7571157D01*
X70480021Y-7575663D01*
X70479119Y-7580169D01*
X70350708Y-7887883D01*
X70346912Y-7892751D01*
X70341166Y-7895009D01*
X70335072Y-7894030D01*
X70210793Y-7837584D01*
X70210391Y-7837392D01*
X70113921Y-7789065D01*
X70105320Y-7785546D01*
X70028367Y-7754061D01*
X69926282Y-7732817D01*
X69872330Y-7730178D01*
X69791128Y-7726207D01*
X69783227Y-7722590D01*
X69780000Y-7714521D01*
X69780000Y-7436805D01*
X69783227Y-7428736D01*
X69791128Y-7425119D01*
X69818923Y-7423759D01*
X69926282Y-7418508D01*
X70028367Y-7397264D01*
X70113916Y-7362262D01*
X70210442Y-7313907D01*
X70210743Y-7313763D01*
X70335075Y-7257294D01*
X70341167Y-7256316D01*
X70346912Y-7258574D01*
G37*
%TD.AperFunction*%
%TD*%
%TA.AperFunction,Conductor*%
%TO.N,/SPID{slash}GPIO32*%
G36*
X43610001Y-14680236D02*
G01*
X43736691Y-14806926D01*
X43740098Y-14814521D01*
X43737592Y-14822460D01*
X43513029Y-15106206D01*
X43422495Y-15357285D01*
X43398724Y-15608056D01*
X43398711Y-15608181D01*
X43368102Y-15898024D01*
X43367675Y-15900154D01*
X43260276Y-16258550D01*
X43256805Y-16263967D01*
X43250995Y-16266731D01*
X43244602Y-16266005D01*
X42475050Y-15948225D01*
X42471243Y-15945684D01*
X42468703Y-15941879D01*
X42150921Y-15172322D01*
X42150196Y-15165931D01*
X42152960Y-15160121D01*
X42158373Y-15156652D01*
X42516774Y-15049249D01*
X42518900Y-15048823D01*
X42808851Y-15018203D01*
X43059639Y-14994432D01*
X43310720Y-14903897D01*
X43594469Y-14679334D01*
X43602406Y-14676829D01*
X43610001Y-14680236D01*
G37*
%TD.AperFunction*%
%TD*%
%TA.AperFunction,Conductor*%
%TO.N,/VDD_SPI{slash}GPIO11*%
G36*
X41664925Y-5406631D02*
G01*
X41789235Y-5463091D01*
X41789577Y-5463254D01*
X41886083Y-5511599D01*
X41971632Y-5546601D01*
X42073716Y-5567845D01*
X42180671Y-5573076D01*
X42208872Y-5574456D01*
X42216773Y-5578073D01*
X42220000Y-5586142D01*
X42220000Y-5863858D01*
X42216773Y-5871927D01*
X42208872Y-5875544D01*
X42116196Y-5880076D01*
X42073716Y-5882154D01*
X41971631Y-5903398D01*
X41971632Y-5903398D01*
X41886077Y-5938402D01*
X41789607Y-5986729D01*
X41789205Y-5986921D01*
X41664927Y-6043367D01*
X41658833Y-6044346D01*
X41653087Y-6042088D01*
X41649291Y-6037220D01*
X41520880Y-5729506D01*
X41519978Y-5725000D01*
X41520880Y-5720494D01*
X41580313Y-5578073D01*
X41649292Y-5412777D01*
X41653087Y-5407911D01*
X41658832Y-5405653D01*
X41664925Y-5406631D01*
G37*
%TD.AperFunction*%
%TD*%
%TA.AperFunction,Conductor*%
%TO.N,/RTS*%
G36*
X20394613Y-2188778D02*
G01*
X20457304Y-2244879D01*
X20464587Y-2251396D01*
X20485715Y-2264573D01*
X20527974Y-2290931D01*
X20590105Y-2314798D01*
X20590109Y-2314799D01*
X20590111Y-2314800D01*
X20664245Y-2337693D01*
X20664828Y-2337889D01*
X20753491Y-2370503D01*
X20758531Y-2374104D01*
X20761026Y-2379773D01*
X20760278Y-2385921D01*
X20671774Y-2601838D01*
X20669221Y-2605674D01*
X20665385Y-2608227D01*
X20449468Y-2696731D01*
X20443320Y-2697479D01*
X20437651Y-2694984D01*
X20434050Y-2689944D01*
X20403308Y-2606370D01*
X20401436Y-2601281D01*
X20401240Y-2600698D01*
X20378347Y-2526564D01*
X20378345Y-2526558D01*
X20354478Y-2464427D01*
X20314942Y-2401039D01*
X20252325Y-2331066D01*
X20249349Y-2322942D01*
X20252771Y-2314994D01*
X20378541Y-2189224D01*
X20386489Y-2185802D01*
X20394613Y-2188778D01*
G37*
%TD.AperFunction*%
%TD*%
%TA.AperFunction,Conductor*%
%TO.N,/SPIWP{slash}GPIO28*%
G36*
X43846551Y-9188942D02*
G01*
X44062441Y-9277435D01*
X44066276Y-9279988D01*
X44068829Y-9283824D01*
X44157343Y-9499766D01*
X44158093Y-9505905D01*
X44155607Y-9511569D01*
X44150581Y-9515175D01*
X44062274Y-9547885D01*
X44061745Y-9548066D01*
X43988083Y-9571412D01*
X43926453Y-9595827D01*
X43863525Y-9635760D01*
X43793911Y-9698343D01*
X43785778Y-9701338D01*
X43777816Y-9697915D01*
X43652046Y-9572145D01*
X43648624Y-9564211D01*
X43651578Y-9556095D01*
X43714041Y-9485934D01*
X43753015Y-9422197D01*
X43776194Y-9359661D01*
X43798523Y-9285147D01*
X43798717Y-9284564D01*
X43831124Y-9195757D01*
X43834719Y-9190703D01*
X43840394Y-9188196D01*
X43846551Y-9188942D01*
G37*
%TD.AperFunction*%
%TD*%
%TA.AperFunction,Conductor*%
%TO.N,/SPIHD{slash}GPIO27*%
G36*
X29868629Y-14248625D02*
G01*
X29872470Y-14256010D01*
X29914319Y-14615436D01*
X30027840Y-14856995D01*
X30188342Y-15051109D01*
X30188421Y-15051206D01*
X30371742Y-15277818D01*
X30372946Y-15279627D01*
X30550425Y-15608991D01*
X30551802Y-15615276D01*
X30549648Y-15621338D01*
X30544614Y-15625346D01*
X29775753Y-15944797D01*
X29771264Y-15945692D01*
X29766775Y-15944797D01*
X28997915Y-15625346D01*
X28992881Y-15621338D01*
X28990727Y-15615276D01*
X28992103Y-15608994D01*
X29169585Y-15279621D01*
X29170782Y-15277823D01*
X29354161Y-15051139D01*
X29514686Y-14856997D01*
X29628209Y-14615438D01*
X29670060Y-14256009D01*
X29673901Y-14248625D01*
X29681681Y-14245663D01*
X29860849Y-14245663D01*
X29868629Y-14248625D01*
G37*
%TD.AperFunction*%
%TD*%
%TA.AperFunction,Conductor*%
%TO.N,/VDD_SPI{slash}GPIO11*%
G36*
X55106912Y-5407911D02*
G01*
X55110708Y-5412779D01*
X55239119Y-5720494D01*
X55240021Y-5725000D01*
X55239119Y-5729506D01*
X55110708Y-6037220D01*
X55106912Y-6042088D01*
X55101166Y-6044346D01*
X55095072Y-6043367D01*
X54970793Y-5986921D01*
X54970391Y-5986729D01*
X54873921Y-5938402D01*
X54865320Y-5934883D01*
X54788367Y-5903398D01*
X54686282Y-5882154D01*
X54632330Y-5879515D01*
X54551128Y-5875544D01*
X54543227Y-5871927D01*
X54540000Y-5863858D01*
X54540000Y-5586142D01*
X54543227Y-5578073D01*
X54551128Y-5574456D01*
X54578923Y-5573096D01*
X54686282Y-5567845D01*
X54788367Y-5546601D01*
X54873916Y-5511599D01*
X54970442Y-5463244D01*
X54970743Y-5463100D01*
X55095075Y-5406631D01*
X55101167Y-5405653D01*
X55106912Y-5407911D01*
G37*
%TD.AperFunction*%
%TD*%
%TA.AperFunction,Conductor*%
%TO.N,/DTR*%
G36*
X15681830Y-10625420D02*
G01*
X15685425Y-10630478D01*
X15717789Y-10719279D01*
X15718008Y-10719941D01*
X15740236Y-10794464D01*
X15763306Y-10857057D01*
X15763307Y-10857058D01*
X15802195Y-10920848D01*
X15857223Y-10982707D01*
X15864633Y-10991036D01*
X15867586Y-10999153D01*
X15864164Y-11007085D01*
X15738394Y-11132855D01*
X15730430Y-11136278D01*
X15722296Y-11133280D01*
X15652733Y-11070703D01*
X15589879Y-11030710D01*
X15589877Y-11030709D01*
X15528334Y-11006213D01*
X15528331Y-11006212D01*
X15528326Y-11006210D01*
X15454723Y-10982790D01*
X15454203Y-10982611D01*
X15365964Y-10949891D01*
X15360940Y-10946285D01*
X15358456Y-10940622D01*
X15359206Y-10934484D01*
X15447723Y-10718534D01*
X15450275Y-10714701D01*
X15454108Y-10712149D01*
X15669995Y-10623657D01*
X15676155Y-10622911D01*
X15681830Y-10625420D01*
G37*
%TD.AperFunction*%
%TD*%
%TA.AperFunction,Conductor*%
%TO.N,/DTR*%
G36*
X15812823Y-4920678D02*
G01*
X15816424Y-4925718D01*
X15849034Y-5014375D01*
X15849232Y-5014962D01*
X15872128Y-5089102D01*
X15895995Y-5151234D01*
X15935529Y-5214621D01*
X15998147Y-5284595D01*
X16001124Y-5292721D01*
X15997701Y-5300670D01*
X15871935Y-5426436D01*
X15863986Y-5429859D01*
X15855860Y-5426882D01*
X15785886Y-5364264D01*
X15722499Y-5324730D01*
X15660367Y-5300863D01*
X15586227Y-5277967D01*
X15585640Y-5277769D01*
X15496983Y-5245159D01*
X15491943Y-5241558D01*
X15489448Y-5235889D01*
X15490195Y-5229743D01*
X15578701Y-5013821D01*
X15581253Y-5009988D01*
X15585086Y-5007436D01*
X15801008Y-4918930D01*
X15807154Y-4918183D01*
X15812823Y-4920678D01*
G37*
%TD.AperFunction*%
%TD*%
%TA.AperFunction,Conductor*%
%TO.N,/U0TXD*%
G36*
X25155892Y-7329282D02*
G01*
X25241658Y-7368919D01*
X25242187Y-7369182D01*
X25310817Y-7405425D01*
X25371626Y-7432482D01*
X25444405Y-7449349D01*
X25477090Y-7451162D01*
X25538158Y-7454550D01*
X25546009Y-7458191D01*
X25549210Y-7466232D01*
X25549210Y-7644094D01*
X25546009Y-7652135D01*
X25538158Y-7655776D01*
X25444406Y-7660975D01*
X25371626Y-7677843D01*
X25310816Y-7704900D01*
X25242200Y-7741135D01*
X25241645Y-7741410D01*
X25155897Y-7781041D01*
X25149787Y-7782058D01*
X25144014Y-7779814D01*
X25140195Y-7774937D01*
X25085431Y-7644094D01*
X25050099Y-7559677D01*
X25049193Y-7555163D01*
X25050099Y-7550648D01*
X25140196Y-7335384D01*
X25144014Y-7330510D01*
X25149787Y-7328266D01*
X25155892Y-7329282D01*
G37*
%TD.AperFunction*%
%TD*%
%TA.AperFunction,Conductor*%
%TO.N,/VDD_3.3V*%
G36*
X78079869Y-220316D02*
G01*
X78083588Y-225130D01*
X78250390Y-625499D01*
X78251290Y-629999D01*
X78250390Y-634499D01*
X78083540Y-1034985D01*
X78077215Y-1041296D01*
X78068279Y-1041301D01*
X77907527Y-975005D01*
X77849627Y-953988D01*
X77782330Y-929561D01*
X77670320Y-903915D01*
X77538344Y-892561D01*
X77364791Y-890159D01*
X77356624Y-886677D01*
X77353254Y-878461D01*
X77353254Y-401416D01*
X77356580Y-393245D01*
X77364667Y-389720D01*
X77480820Y-386867D01*
X77539001Y-385439D01*
X77670689Y-369289D01*
X77782084Y-337844D01*
X77782089Y-337842D01*
X77906932Y-287408D01*
X77906951Y-287400D01*
X78068216Y-218861D01*
X78074236Y-218020D01*
X78079869Y-220316D01*
G37*
%TD.AperFunction*%
%TD*%
%TA.AperFunction,Conductor*%
%TO.N,/U0RXD*%
G36*
X69520513Y-9860510D02*
G01*
X69524332Y-9865387D01*
X69614427Y-10080646D01*
X69615334Y-10085163D01*
X69614427Y-10089680D01*
X69524332Y-10304938D01*
X69520513Y-10309815D01*
X69514740Y-10312059D01*
X69508632Y-10311042D01*
X69422883Y-10271412D01*
X69422332Y-10271139D01*
X69353710Y-10234900D01*
X69292900Y-10207843D01*
X69270943Y-10202754D01*
X69220120Y-10190975D01*
X69153819Y-10187297D01*
X69152637Y-10187171D01*
X69125188Y-10182824D01*
X69118121Y-10178867D01*
X69115318Y-10171268D01*
X69115318Y-9996232D01*
X69118519Y-9988191D01*
X69126370Y-9984550D01*
X69172936Y-9981966D01*
X69220122Y-9979349D01*
X69292900Y-9962482D01*
X69353710Y-9935425D01*
X69422352Y-9899174D01*
X69422867Y-9898920D01*
X69508634Y-9859282D01*
X69514740Y-9858266D01*
X69520513Y-9860510D01*
G37*
%TD.AperFunction*%
%TD*%
%TA.AperFunction,Conductor*%
%TO.N,/CHIP_PU*%
G36*
X32118237Y-6023201D02*
G01*
X32121878Y-6031052D01*
X32127077Y-6124802D01*
X32143945Y-6197581D01*
X32171002Y-6258392D01*
X32207241Y-6327014D01*
X32207514Y-6327565D01*
X32247144Y-6413313D01*
X32248161Y-6419422D01*
X32245917Y-6425195D01*
X32241040Y-6429014D01*
X32025782Y-6519109D01*
X32021265Y-6520016D01*
X32016748Y-6519109D01*
X31801489Y-6429014D01*
X31796612Y-6425195D01*
X31794368Y-6419422D01*
X31795384Y-6413316D01*
X31835022Y-6327549D01*
X31835276Y-6327034D01*
X31871527Y-6258392D01*
X31898584Y-6197582D01*
X31915451Y-6124804D01*
X31920651Y-6031052D01*
X31924293Y-6023201D01*
X31932334Y-6020000D01*
X32110196Y-6020000D01*
X32118237Y-6023201D01*
G37*
%TD.AperFunction*%
%TD*%
%TA.AperFunction,Conductor*%
%TO.N,/CHIP_PU*%
G36*
X32025779Y-1400889D02*
G01*
X32236016Y-1488883D01*
X32241039Y-1490985D01*
X32245916Y-1494804D01*
X32248160Y-1500577D01*
X32247143Y-1506687D01*
X32207512Y-1592435D01*
X32207237Y-1592990D01*
X32171002Y-1661606D01*
X32143945Y-1722416D01*
X32127077Y-1795196D01*
X32121878Y-1888948D01*
X32118237Y-1896799D01*
X32110196Y-1900000D01*
X31932334Y-1900000D01*
X31924293Y-1896799D01*
X31920652Y-1888948D01*
X31915451Y-1795196D01*
X31915451Y-1795195D01*
X31898584Y-1722416D01*
X31871527Y-1661607D01*
X31835284Y-1592977D01*
X31835021Y-1592448D01*
X31795384Y-1506682D01*
X31794368Y-1500577D01*
X31796612Y-1494804D01*
X31801486Y-1490986D01*
X32016750Y-1400889D01*
X32021265Y-1399983D01*
X32025779Y-1400889D01*
G37*
%TD.AperFunction*%
%TD*%
%TA.AperFunction,Conductor*%
%TO.N,/VDD_3.3V*%
G36*
X70114504Y-3380879D02*
G01*
X70422220Y-3509291D01*
X70427088Y-3513087D01*
X70429346Y-3518833D01*
X70428367Y-3524927D01*
X70371921Y-3649205D01*
X70371729Y-3649607D01*
X70323402Y-3746077D01*
X70288398Y-3831632D01*
X70267154Y-3933718D01*
X70260544Y-4068872D01*
X70256927Y-4076773D01*
X70248858Y-4080000D01*
X69971142Y-4080000D01*
X69963073Y-4076773D01*
X69959456Y-4068872D01*
X69958076Y-4040671D01*
X69952845Y-3933716D01*
X69931601Y-3831632D01*
X69896599Y-3746083D01*
X69848254Y-3649577D01*
X69848091Y-3649235D01*
X69791631Y-3524925D01*
X69790653Y-3518832D01*
X69792911Y-3513087D01*
X69797777Y-3509292D01*
X70105495Y-3380879D01*
X70110000Y-3379978D01*
X70114504Y-3380879D01*
G37*
%TD.AperFunction*%
%TD*%
%TA.AperFunction,Conductor*%
%TO.N,/CHIP_PU*%
G36*
X25409310Y-1329490D02*
G01*
X25625085Y-1417935D01*
X25628920Y-1420488D01*
X25631473Y-1424324D01*
X25720029Y-1640368D01*
X25720784Y-1646472D01*
X25718337Y-1652116D01*
X25713367Y-1655739D01*
X25626477Y-1688825D01*
X25626177Y-1688935D01*
X25587462Y-1702480D01*
X25554305Y-1714080D01*
X25554302Y-1714081D01*
X25554300Y-1714082D01*
X25494700Y-1740625D01*
X25433593Y-1782115D01*
X25365358Y-1844579D01*
X25357200Y-1847646D01*
X25349185Y-1844222D01*
X25223408Y-1718445D01*
X25219988Y-1710570D01*
X25222863Y-1702483D01*
X25284734Y-1631570D01*
X25321499Y-1566478D01*
X25341961Y-1502371D01*
X25361991Y-1426634D01*
X25362269Y-1425733D01*
X25365026Y-1417935D01*
X25393843Y-1336415D01*
X25397416Y-1331300D01*
X25403113Y-1328749D01*
X25409310Y-1329490D01*
G37*
%TD.AperFunction*%
%TD*%
%TA.AperFunction,Conductor*%
%TO.N,/GPIO45*%
G36*
X74255195Y-13585847D02*
G01*
X74259014Y-13590724D01*
X74349109Y-13805983D01*
X74350016Y-13810500D01*
X74349109Y-13815017D01*
X74259014Y-14030275D01*
X74255195Y-14035152D01*
X74249422Y-14037396D01*
X74243314Y-14036379D01*
X74157565Y-13996749D01*
X74157014Y-13996476D01*
X74088392Y-13960237D01*
X74027582Y-13933180D01*
X74005625Y-13928091D01*
X73954802Y-13916312D01*
X73861052Y-13911113D01*
X73853201Y-13907472D01*
X73850000Y-13899431D01*
X73850000Y-13721569D01*
X73853201Y-13713528D01*
X73861052Y-13709887D01*
X73907618Y-13707303D01*
X73954804Y-13704686D01*
X74027582Y-13687819D01*
X74088392Y-13660762D01*
X74157034Y-13624511D01*
X74157549Y-13624257D01*
X74243316Y-13584619D01*
X74249422Y-13583603D01*
X74255195Y-13585847D01*
G37*
%TD.AperFunction*%
%TD*%
%TA.AperFunction,Conductor*%
%TO.N,Net-(J1-Pin_2)*%
G36*
X9376574Y-14248625D02*
G01*
X9380415Y-14256010D01*
X9422264Y-14615436D01*
X9535785Y-14856995D01*
X9696287Y-15051109D01*
X9696366Y-15051206D01*
X9879687Y-15277818D01*
X9880891Y-15279627D01*
X10058370Y-15608991D01*
X10059747Y-15615276D01*
X10057593Y-15621338D01*
X10052559Y-15625346D01*
X9283698Y-15944797D01*
X9279209Y-15945692D01*
X9274720Y-15944797D01*
X8505860Y-15625346D01*
X8500826Y-15621338D01*
X8498672Y-15615276D01*
X8500048Y-15608994D01*
X8677530Y-15279621D01*
X8678727Y-15277823D01*
X8862106Y-15051139D01*
X9022631Y-14856997D01*
X9136154Y-14615438D01*
X9178005Y-14256009D01*
X9181846Y-14248625D01*
X9189626Y-14245663D01*
X9368794Y-14245663D01*
X9376574Y-14248625D01*
G37*
%TD.AperFunction*%
%TD*%
%TA.AperFunction,Conductor*%
%TO.N,/GPIO0*%
G36*
X69256460Y-3775347D02*
G01*
X69260279Y-3780224D01*
X69350374Y-3995483D01*
X69351281Y-4000000D01*
X69350374Y-4004517D01*
X69260279Y-4219775D01*
X69256460Y-4224652D01*
X69250687Y-4226896D01*
X69244579Y-4225879D01*
X69158830Y-4186249D01*
X69158279Y-4185976D01*
X69089657Y-4149737D01*
X69028847Y-4122680D01*
X69006890Y-4117591D01*
X68956067Y-4105812D01*
X68862317Y-4100613D01*
X68854466Y-4096972D01*
X68851265Y-4088931D01*
X68851265Y-3911069D01*
X68854466Y-3903028D01*
X68862317Y-3899387D01*
X68908883Y-3896803D01*
X68956069Y-3894186D01*
X69028847Y-3877319D01*
X69089657Y-3850262D01*
X69158299Y-3814011D01*
X69158814Y-3813757D01*
X69244581Y-3774119D01*
X69250687Y-3773103D01*
X69256460Y-3775347D01*
G37*
%TD.AperFunction*%
%TD*%
%TA.AperFunction,Conductor*%
%TO.N,/SPICS0{slash}GPIO29*%
G36*
X35990001Y-14680236D02*
G01*
X36116691Y-14806926D01*
X36120098Y-14814521D01*
X36117592Y-14822460D01*
X35893029Y-15106206D01*
X35802495Y-15357285D01*
X35778724Y-15608056D01*
X35778711Y-15608181D01*
X35748102Y-15898024D01*
X35747675Y-15900154D01*
X35640276Y-16258550D01*
X35636805Y-16263967D01*
X35630995Y-16266731D01*
X35624602Y-16266005D01*
X34855050Y-15948225D01*
X34851243Y-15945684D01*
X34848703Y-15941879D01*
X34530921Y-15172322D01*
X34530196Y-15165931D01*
X34532960Y-15160121D01*
X34538373Y-15156652D01*
X34896774Y-15049249D01*
X34898900Y-15048823D01*
X35188851Y-15018203D01*
X35439639Y-14994432D01*
X35690720Y-14903897D01*
X35974469Y-14679334D01*
X35982406Y-14676829D01*
X35990001Y-14680236D01*
G37*
%TD.AperFunction*%
%TD*%
%TA.AperFunction,Conductor*%
%TO.N,/U0RXD*%
G36*
X9273698Y1663473D02*
G01*
X10042559Y1344021D01*
X10047593Y1340013D01*
X10049747Y1333951D01*
X10048370Y1327666D01*
X9870891Y998304D01*
X9869687Y996495D01*
X9686366Y769883D01*
X9686287Y769786D01*
X9525785Y575671D01*
X9412264Y334113D01*
X9370415Y-25316D01*
X9366574Y-32701D01*
X9358794Y-35663D01*
X9179626Y-35663D01*
X9171846Y-32701D01*
X9168005Y-25316D01*
X9126154Y334113D01*
X9012632Y575671D01*
X8852130Y769786D01*
X8852051Y769883D01*
X8668731Y996495D01*
X8667527Y998304D01*
X8490048Y1327668D01*
X8488672Y1333951D01*
X8490826Y1340013D01*
X8495857Y1344020D01*
X9264721Y1663473D01*
X9269210Y1664367D01*
X9273698Y1663473D01*
G37*
%TD.AperFunction*%
%TD*%
%TA.AperFunction,Conductor*%
%TO.N,/VDD_3.3V*%
G36*
X10503707Y-3036536D02*
G01*
X10798706Y-3159439D01*
X10903564Y-3203125D01*
X10908486Y-3206988D01*
X10910713Y-3212835D01*
X10909609Y-3218994D01*
X10830609Y-3383350D01*
X10830131Y-3384243D01*
X10757364Y-3507104D01*
X10700055Y-3615202D01*
X10662614Y-3745569D01*
X10649977Y-3924786D01*
X10646283Y-3932522D01*
X10638306Y-3935663D01*
X10360114Y-3935663D01*
X10352137Y-3932522D01*
X10348443Y-3924786D01*
X10335804Y-3745569D01*
X10298363Y-3615202D01*
X10241053Y-3507103D01*
X10168287Y-3384243D01*
X10167809Y-3383350D01*
X10088810Y-3218994D01*
X10087706Y-3212835D01*
X10089933Y-3206988D01*
X10094854Y-3203125D01*
X10494714Y-3036535D01*
X10499209Y-3035637D01*
X10503707Y-3036536D01*
G37*
%TD.AperFunction*%
%TD*%
%TA.AperFunction,Conductor*%
%TO.N,/GPIO45*%
G36*
X71471558Y-9767131D02*
G01*
X71475159Y-9772171D01*
X71507769Y-9860828D01*
X71507967Y-9861415D01*
X71530863Y-9935555D01*
X71554730Y-9997687D01*
X71594264Y-10061074D01*
X71656882Y-10131048D01*
X71659859Y-10139174D01*
X71656436Y-10147123D01*
X71530670Y-10272889D01*
X71522721Y-10276312D01*
X71514595Y-10273335D01*
X71444621Y-10210717D01*
X71381234Y-10171183D01*
X71319102Y-10147316D01*
X71244962Y-10124420D01*
X71244375Y-10124222D01*
X71155718Y-10091612D01*
X71150678Y-10088011D01*
X71148183Y-10082342D01*
X71148930Y-10076196D01*
X71237436Y-9860274D01*
X71239988Y-9856441D01*
X71243821Y-9853889D01*
X71459743Y-9765383D01*
X71465889Y-9764636D01*
X71471558Y-9767131D01*
G37*
%TD.AperFunction*%
%TD*%
%TA.AperFunction,Conductor*%
%TO.N,/GPIO0*%
G36*
X37717897Y-3783980D02*
G01*
X37802969Y-3822403D01*
X37803317Y-3822567D01*
X37871901Y-3856339D01*
X37932797Y-3880570D01*
X37969097Y-3887852D01*
X38005396Y-3895136D01*
X38098123Y-3899478D01*
X38106040Y-3903088D01*
X38109276Y-3911165D01*
X38109276Y-4089038D01*
X38106114Y-4097038D01*
X38098337Y-4100712D01*
X38004484Y-4106828D01*
X38004484Y-4106829D01*
X37932286Y-4126126D01*
X37872228Y-4156116D01*
X37804322Y-4194764D01*
X37803547Y-4195168D01*
X37718009Y-4235720D01*
X37711872Y-4236794D01*
X37706053Y-4234565D01*
X37702204Y-4229665D01*
X37612154Y-4014514D01*
X37611248Y-4010000D01*
X37612154Y-4005485D01*
X37702291Y-3790125D01*
X37706082Y-3785270D01*
X37711815Y-3783013D01*
X37717897Y-3783980D01*
G37*
%TD.AperFunction*%
%TD*%
%TA.AperFunction,Conductor*%
%TO.N,/SPID{slash}GPIO32*%
G36*
X53891521Y-11098930D02*
G01*
X54107441Y-11187435D01*
X54111276Y-11189988D01*
X54113829Y-11193824D01*
X54202333Y-11409741D01*
X54203081Y-11415889D01*
X54200586Y-11421558D01*
X54195546Y-11425159D01*
X54106887Y-11457769D01*
X54106300Y-11457967D01*
X54032161Y-11480863D01*
X53970028Y-11504730D01*
X53906642Y-11544264D01*
X53836669Y-11606882D01*
X53828543Y-11609859D01*
X53820594Y-11606436D01*
X53694827Y-11480669D01*
X53691404Y-11472720D01*
X53694379Y-11464597D01*
X53756997Y-11394623D01*
X53796533Y-11331234D01*
X53820400Y-11269104D01*
X53843300Y-11194946D01*
X53843493Y-11194375D01*
X53845107Y-11189988D01*
X53876106Y-11105716D01*
X53879706Y-11100678D01*
X53885375Y-11098183D01*
X53891521Y-11098930D01*
G37*
%TD.AperFunction*%
%TD*%
%TA.AperFunction,Conductor*%
%TO.N,/VDD_3.3V*%
G36*
X78799511Y89441D02*
G01*
X78996230Y-107278D01*
X78999651Y-115188D01*
X78996727Y-123296D01*
X78879109Y-256483D01*
X78810662Y-372007D01*
X78770968Y-485521D01*
X78732421Y-620585D01*
X78732177Y-621340D01*
X78671158Y-790695D01*
X78667566Y-795779D01*
X78661875Y-798301D01*
X78655696Y-797548D01*
X78255065Y-632563D01*
X78251247Y-630017D01*
X78248702Y-626201D01*
X78083800Y-225773D01*
X78083058Y-219526D01*
X78085660Y-213796D01*
X78090852Y-210244D01*
X78264184Y-151320D01*
X78265367Y-150988D01*
X78405990Y-119570D01*
X78525641Y-88449D01*
X78646632Y-26615D01*
X78783652Y90077D01*
X78791706Y92859D01*
X78799511Y89441D01*
G37*
%TD.AperFunction*%
%TD*%
%TA.AperFunction,Conductor*%
%TO.N,/VDD_3.3V*%
G36*
X79797779Y1984741D02*
G01*
X80567481Y1666899D01*
X80571286Y1664359D01*
X80573827Y1660552D01*
X80891667Y890854D01*
X80892401Y884508D01*
X80889692Y878722D01*
X80884347Y875222D01*
X80532394Y765075D01*
X80530567Y764660D01*
X80373042Y741985D01*
X80248238Y724019D01*
X80248214Y724016D01*
X80005372Y688084D01*
X79761509Y588354D01*
X79483438Y362831D01*
X79475460Y360234D01*
X79467795Y363645D01*
X79270572Y560868D01*
X79267161Y568533D01*
X79269757Y576509D01*
X79495279Y854583D01*
X79595010Y1098448D01*
X79630945Y1341312D01*
X79671585Y1623646D01*
X79672000Y1625470D01*
X79684171Y1664359D01*
X79782150Y1977424D01*
X79785649Y1982765D01*
X79791435Y1985474D01*
X79797779Y1984741D01*
G37*
%TD.AperFunction*%
%TD*%
%TA.AperFunction,Conductor*%
%TO.N,/VDD_3.3V*%
G36*
X14756122Y-7078574D02*
G01*
X14759918Y-7083442D01*
X14888329Y-7391157D01*
X14889231Y-7395663D01*
X14888329Y-7400169D01*
X14759918Y-7707883D01*
X14756122Y-7712751D01*
X14750376Y-7715009D01*
X14744282Y-7714030D01*
X14620003Y-7657584D01*
X14619601Y-7657392D01*
X14523131Y-7609065D01*
X14514530Y-7605546D01*
X14437577Y-7574061D01*
X14335492Y-7552817D01*
X14281540Y-7550178D01*
X14200338Y-7546207D01*
X14192437Y-7542590D01*
X14189210Y-7534521D01*
X14189210Y-7256805D01*
X14192437Y-7248736D01*
X14200338Y-7245119D01*
X14228133Y-7243759D01*
X14335492Y-7238508D01*
X14437577Y-7217264D01*
X14523126Y-7182262D01*
X14619652Y-7133907D01*
X14619953Y-7133763D01*
X14744285Y-7077294D01*
X14750377Y-7076316D01*
X14756122Y-7078574D01*
G37*
%TD.AperFunction*%
%TD*%
%TA.AperFunction,Conductor*%
%TO.N,/VDD_3.3V*%
G36*
X23325761Y-630873D02*
G01*
X23668180Y-773531D01*
X23725619Y-797462D01*
X23730541Y-801325D01*
X23732768Y-807172D01*
X23731664Y-813331D01*
X23652664Y-977687D01*
X23652186Y-978580D01*
X23579419Y-1101441D01*
X23522110Y-1209539D01*
X23484669Y-1339906D01*
X23472032Y-1519123D01*
X23468338Y-1526859D01*
X23460361Y-1530000D01*
X23182169Y-1530000D01*
X23174192Y-1526859D01*
X23170498Y-1519123D01*
X23157859Y-1339906D01*
X23120418Y-1209539D01*
X23063108Y-1101440D01*
X22990342Y-978580D01*
X22989864Y-977687D01*
X22910865Y-813331D01*
X22909761Y-807172D01*
X22911988Y-801325D01*
X22916909Y-797462D01*
X23316768Y-630873D01*
X23321265Y-629974D01*
X23325761Y-630873D01*
G37*
%TD.AperFunction*%
%TD*%
%TA.AperFunction,Conductor*%
%TO.N,/VDD_3.3V*%
G36*
X20397026Y1983015D02*
G01*
X20400584Y1977824D01*
X20516415Y1638128D01*
X20516752Y1636937D01*
X20577223Y1370033D01*
X20637161Y1143495D01*
X20697971Y1025453D01*
X20755203Y914359D01*
X20939486Y698379D01*
X20983106Y647256D01*
X20985897Y639200D01*
X20982479Y631389D01*
X20644213Y293123D01*
X20636402Y289705D01*
X20628346Y292496D01*
X20361244Y520398D01*
X20361243Y520399D01*
X20250149Y577631D01*
X20132107Y638441D01*
X20030085Y665435D01*
X19905574Y698378D01*
X19869237Y706611D01*
X19638665Y758850D01*
X19637474Y759187D01*
X19297778Y875018D01*
X19292587Y878576D01*
X19289991Y884309D01*
X19290739Y890556D01*
X19608704Y1660557D01*
X19611243Y1664359D01*
X19615045Y1666898D01*
X20385046Y1984863D01*
X20391293Y1985611D01*
X20397026Y1983015D01*
G37*
%TD.AperFunction*%
%TD*%
%TA.AperFunction,Conductor*%
%TO.N,/VDD_3.3V*%
G36*
X71985246Y-12342357D02*
G01*
X71988863Y-12347360D01*
X72036832Y-12475161D01*
X72036980Y-12475581D01*
X72071018Y-12577955D01*
X72106763Y-12663205D01*
X72163926Y-12750411D01*
X72254820Y-12850654D01*
X72257850Y-12858799D01*
X72254426Y-12866786D01*
X72058051Y-13063161D01*
X72050064Y-13066585D01*
X72041919Y-13063555D01*
X71941676Y-12972661D01*
X71854470Y-12915498D01*
X71769220Y-12879753D01*
X71666846Y-12845715D01*
X71666426Y-12845567D01*
X71538625Y-12797598D01*
X71533622Y-12793981D01*
X71531157Y-12788321D01*
X71531915Y-12782195D01*
X71658702Y-12473805D01*
X71661249Y-12469984D01*
X71665070Y-12467437D01*
X71973461Y-12340649D01*
X71979586Y-12339892D01*
X71985246Y-12342357D01*
G37*
%TD.AperFunction*%
%TD*%
%TA.AperFunction,Conductor*%
%TO.N,/RTS*%
G36*
X12594106Y1981660D02*
G01*
X12597315Y1975685D01*
X12676125Y1584542D01*
X12676337Y1581576D01*
X12655075Y1202170D01*
X12635567Y884077D01*
X12722995Y665964D01*
X13013811Y587338D01*
X13020046Y583156D01*
X13022456Y576044D01*
X13022456Y397355D01*
X13020781Y391322D01*
X13016235Y387017D01*
X13010120Y385672D01*
X12624846Y406645D01*
X12622881Y406921D01*
X12347920Y469609D01*
X12345816Y470304D01*
X12115635Y571406D01*
X12114911Y571754D01*
X11853012Y708930D01*
X11494135Y874335D01*
X11488139Y880690D01*
X11488217Y889426D01*
X11806357Y1659852D01*
X11808894Y1663654D01*
X11812693Y1666192D01*
X12581375Y1984186D01*
X12588122Y1984850D01*
X12594106Y1981660D01*
G37*
%TD.AperFunction*%
%TD*%
%TA.AperFunction,Conductor*%
%TO.N,Net-(USB1-CC1)*%
G36*
X10805892Y-309782D02*
G01*
X10891658Y-349419D01*
X10892187Y-349682D01*
X10960817Y-385925D01*
X11021626Y-412982D01*
X11094405Y-429849D01*
X11127090Y-431662D01*
X11188158Y-435050D01*
X11196009Y-438691D01*
X11199210Y-446732D01*
X11199210Y-624594D01*
X11196009Y-632635D01*
X11188158Y-636276D01*
X11094406Y-641475D01*
X11021626Y-658343D01*
X10960816Y-685400D01*
X10892200Y-721635D01*
X10891645Y-721910D01*
X10805897Y-761541D01*
X10799787Y-762558D01*
X10794014Y-760314D01*
X10790195Y-755437D01*
X10735431Y-624594D01*
X10700099Y-540177D01*
X10699193Y-535663D01*
X10700099Y-531148D01*
X10790196Y-315884D01*
X10794014Y-311010D01*
X10799787Y-308766D01*
X10805892Y-309782D01*
G37*
%TD.AperFunction*%
%TD*%
%TA.AperFunction,Conductor*%
%TO.N,/DTR*%
G36*
X27131521Y-11018930D02*
G01*
X27347441Y-11107435D01*
X27351276Y-11109988D01*
X27353829Y-11113824D01*
X27442333Y-11329741D01*
X27443081Y-11335889D01*
X27440586Y-11341558D01*
X27435546Y-11345159D01*
X27346887Y-11377769D01*
X27346300Y-11377967D01*
X27272161Y-11400863D01*
X27210028Y-11424730D01*
X27146642Y-11464264D01*
X27076669Y-11526882D01*
X27068543Y-11529859D01*
X27060594Y-11526436D01*
X26934827Y-11400669D01*
X26931404Y-11392720D01*
X26934379Y-11384597D01*
X26996997Y-11314623D01*
X27036533Y-11251234D01*
X27060400Y-11189104D01*
X27083300Y-11114946D01*
X27083493Y-11114375D01*
X27085107Y-11109988D01*
X27116106Y-11025716D01*
X27119706Y-11020678D01*
X27125375Y-11018183D01*
X27131521Y-11018930D01*
G37*
%TD.AperFunction*%
%TD*%
%TA.AperFunction,Conductor*%
%TO.N,/VDD_3.3V*%
G36*
X15215210Y-11358087D02*
G01*
X15218813Y-11363133D01*
X15265948Y-11491483D01*
X15266150Y-11492083D01*
X15297972Y-11595752D01*
X15331085Y-11682569D01*
X15386090Y-11771112D01*
X15386091Y-11771113D01*
X15386093Y-11771116D01*
X15419978Y-11809021D01*
X15476337Y-11872066D01*
X15479309Y-11880191D01*
X15475887Y-11888137D01*
X15279507Y-12084517D01*
X15271483Y-12087941D01*
X15263320Y-12084862D01*
X15164417Y-11994036D01*
X15078996Y-11935354D01*
X14995730Y-11897533D01*
X14995728Y-11897532D01*
X14995723Y-11897530D01*
X14895150Y-11861751D01*
X14894891Y-11861655D01*
X14768525Y-11813306D01*
X14763561Y-11809677D01*
X14761123Y-11804032D01*
X14761884Y-11797932D01*
X14888702Y-11489468D01*
X14891249Y-11485647D01*
X14895070Y-11483100D01*
X15203384Y-11356344D01*
X15209535Y-11355591D01*
X15215210Y-11358087D01*
G37*
%TD.AperFunction*%
%TD*%
M02*
